<?xml version="1.0" encoding="utf-8" standalone="no"?>
<!DOCTYPE svg PUBLIC "-//W3C//DTD SVG 1.1//EN"
  "http://www.w3.org/Graphics/SVG/1.1/DTD/svg11.dtd">
<!-- Created with matplotlib (https://matplotlib.org/) -->
<svg height="587.67025pt" version="1.1" viewBox="0 0 857.15275 587.67025" width="857.15275pt" xmlns="http://www.w3.org/2000/svg" xmlns:xlink="http://www.w3.org/1999/xlink">
 <defs>
  <style type="text/css">
*{stroke-linecap:butt;stroke-linejoin:round;}
  </style>
 </defs>
 <g id="figure_1">
  <g id="patch_1">
   <path d="M 0 587.67025 
L 857.15275 587.67025 
L 857.15275 0 
L 0 0 
z
" style="fill:#ffffff;"/>
  </g>
  <g id="axes_1">
   <g id="patch_2">
    <path d="M 62.85525 162.186667 
L 842.31775 162.186667 
L 842.31775 29.52 
L 62.85525 29.52 
z
" style="fill:#ffffff;"/>
   </g>
   <g id="patch_3">
    <path clip-path="url(#p09ec02464e)" d="M 98.285364 162.186667 
L 98.285364 161.871895 
L 121.905439 161.871895 
L 121.905439 161.462693 
L 145.525515 161.462693 
L 145.525515 161.179398 
L 169.145591 161.179398 
L 169.145591 159.605542 
L 192.765667 159.605542 
L 192.765667 156.804077 
L 216.385742 156.804077 
L 216.385742 151.547396 
L 240.005818 151.547396 
L 240.005818 144.81129 
L 263.625894 144.81129 
L 263.625894 137.477118 
L 287.24597 137.477118 
L 287.24597 124.256723 
L 310.866045 124.256723 
L 310.866045 107.227595 
L 334.486121 107.227595 
L 334.486121 83.273498 
L 358.106197 83.273498 
L 358.106197 67.377546 
L 381.726273 67.377546 
L 381.726273 49.183764 
L 405.346348 49.183764 
L 405.346348 36.687343 
L 428.966424 36.687343 
L 428.966424 35.83746 
L 452.5865 35.83746 
L 452.5865 48.68013 
L 476.206576 48.68013 
L 476.206576 56.832707 
L 499.826652 56.832707 
L 499.826652 57.588158 
L 523.446727 57.588158 
L 523.446727 89.254153 
L 547.066803 89.254153 
L 547.066803 99.012063 
L 570.686879 99.012063 
L 570.686879 127.404436 
L 594.306955 127.404436 
L 594.306955 129.481927 
L 617.92703 129.481927 
L 617.92703 145.126061 
L 641.547106 145.126061 
L 641.547106 152.113985 
L 665.167182 152.113985 
L 665.167182 157.087371 
L 688.787258 157.087371 
L 688.787258 159.448156 
L 712.407333 159.448156 
L 712.407333 160.581333 
L 736.027409 160.581333 
L 736.027409 161.49417 
L 759.647485 161.49417 
L 759.647485 162.060758 
L 783.267561 162.060758 
L 783.267561 161.745987 
L 806.887636 161.745987 
L 806.887636 162.186667 
L 783.267561 162.186667 
L 783.267561 162.186667 
L 759.647485 162.186667 
L 759.647485 162.186667 
L 736.027409 162.186667 
L 736.027409 162.186667 
L 712.407333 162.186667 
L 712.407333 162.186667 
L 688.787258 162.186667 
L 688.787258 162.186667 
L 665.167182 162.186667 
L 665.167182 162.186667 
L 641.547106 162.186667 
L 641.547106 162.186667 
L 617.92703 162.186667 
L 617.92703 162.186667 
L 594.306955 162.186667 
L 594.306955 162.186667 
L 570.686879 162.186667 
L 570.686879 162.186667 
L 547.066803 162.186667 
L 547.066803 162.186667 
L 523.446727 162.186667 
L 523.446727 162.186667 
L 499.826652 162.186667 
L 499.826652 162.186667 
L 476.206576 162.186667 
L 476.206576 162.186667 
L 452.5865 162.186667 
L 452.5865 162.186667 
L 428.966424 162.186667 
L 428.966424 162.186667 
L 405.346348 162.186667 
L 405.346348 162.186667 
L 381.726273 162.186667 
L 381.726273 162.186667 
L 358.106197 162.186667 
L 358.106197 162.186667 
L 334.486121 162.186667 
L 334.486121 162.186667 
L 310.866045 162.186667 
L 310.866045 162.186667 
L 287.24597 162.186667 
L 287.24597 162.186667 
L 263.625894 162.186667 
L 263.625894 162.186667 
L 240.005818 162.186667 
L 240.005818 162.186667 
L 216.385742 162.186667 
L 216.385742 162.186667 
L 192.765667 162.186667 
L 192.765667 162.186667 
L 169.145591 162.186667 
L 169.145591 162.186667 
L 145.525515 162.186667 
L 145.525515 162.186667 
L 121.905439 162.186667 
L 121.905439 162.186667 
z
" style="fill:#a60628;opacity:0.85;"/>
   </g>
   <g id="matplotlib.axis_1">
    <g id="xtick_1">
     <g id="line2d_1">
      <path clip-path="url(#p09ec02464e)" d="M 123.927037 162.186667 
L 123.927037 29.52 
" style="fill:none;stroke:#808080;stroke-dasharray:0.3,0.495;stroke-dashoffset:0;stroke-width:0.3;"/>
     </g>
     <g id="line2d_2">
      <defs>
       <path d="M 0 0 
L 0 3.5 
" id="m928f0f66e9" style="stroke:#000000;stroke-width:0.8;"/>
      </defs>
      <g>
       <use style="stroke:#000000;stroke-width:0.8;" x="123.927037" xlink:href="#m928f0f66e9" y="162.186667"/>
      </g>
     </g>
     <g id="text_1">
      <!-- 2430 -->
      <defs>
       <path d="M 19.1875 8.296875 
L 53.609375 8.296875 
L 53.609375 0 
L 7.328125 0 
L 7.328125 8.296875 
Q 12.9375 14.109375 22.625 23.890625 
Q 32.328125 33.6875 34.8125 36.53125 
Q 39.546875 41.84375 41.421875 45.53125 
Q 43.3125 49.21875 43.3125 52.78125 
Q 43.3125 58.59375 39.234375 62.25 
Q 35.15625 65.921875 28.609375 65.921875 
Q 23.96875 65.921875 18.8125 64.3125 
Q 13.671875 62.703125 7.8125 59.421875 
L 7.8125 69.390625 
Q 13.765625 71.78125 18.9375 73 
Q 24.125 74.21875 28.421875 74.21875 
Q 39.75 74.21875 46.484375 68.546875 
Q 53.21875 62.890625 53.21875 53.421875 
Q 53.21875 48.921875 51.53125 44.890625 
Q 49.859375 40.875 45.40625 35.40625 
Q 44.1875 33.984375 37.640625 27.21875 
Q 31.109375 20.453125 19.1875 8.296875 
z
" id="DejaVuSans-50"/>
       <path d="M 37.796875 64.3125 
L 12.890625 25.390625 
L 37.796875 25.390625 
z
M 35.203125 72.90625 
L 47.609375 72.90625 
L 47.609375 25.390625 
L 58.015625 25.390625 
L 58.015625 17.1875 
L 47.609375 17.1875 
L 47.609375 0 
L 37.796875 0 
L 37.796875 17.1875 
L 4.890625 17.1875 
L 4.890625 26.703125 
z
" id="DejaVuSans-52"/>
       <path d="M 40.578125 39.3125 
Q 47.65625 37.796875 51.625 33 
Q 55.609375 28.21875 55.609375 21.1875 
Q 55.609375 10.40625 48.1875 4.484375 
Q 40.765625 -1.421875 27.09375 -1.421875 
Q 22.515625 -1.421875 17.65625 -0.515625 
Q 12.796875 0.390625 7.625 2.203125 
L 7.625 11.71875 
Q 11.71875 9.328125 16.59375 8.109375 
Q 21.484375 6.890625 26.8125 6.890625 
Q 36.078125 6.890625 40.9375 10.546875 
Q 45.796875 14.203125 45.796875 21.1875 
Q 45.796875 27.640625 41.28125 31.265625 
Q 36.765625 34.90625 28.71875 34.90625 
L 20.21875 34.90625 
L 20.21875 43.015625 
L 29.109375 43.015625 
Q 36.375 43.015625 40.234375 45.921875 
Q 44.09375 48.828125 44.09375 54.296875 
Q 44.09375 59.90625 40.109375 62.90625 
Q 36.140625 65.921875 28.71875 65.921875 
Q 24.65625 65.921875 20.015625 65.03125 
Q 15.375 64.15625 9.8125 62.3125 
L 9.8125 71.09375 
Q 15.4375 72.65625 20.34375 73.4375 
Q 25.25 74.21875 29.59375 74.21875 
Q 40.828125 74.21875 47.359375 69.109375 
Q 53.90625 64.015625 53.90625 55.328125 
Q 53.90625 49.265625 50.4375 45.09375 
Q 46.96875 40.921875 40.578125 39.3125 
z
" id="DejaVuSans-51"/>
       <path d="M 31.78125 66.40625 
Q 24.171875 66.40625 20.328125 58.90625 
Q 16.5 51.421875 16.5 36.375 
Q 16.5 21.390625 20.328125 13.890625 
Q 24.171875 6.390625 31.78125 6.390625 
Q 39.453125 6.390625 43.28125 13.890625 
Q 47.125 21.390625 47.125 36.375 
Q 47.125 51.421875 43.28125 58.90625 
Q 39.453125 66.40625 31.78125 66.40625 
z
M 31.78125 74.21875 
Q 44.046875 74.21875 50.515625 64.515625 
Q 56.984375 54.828125 56.984375 36.375 
Q 56.984375 17.96875 50.515625 8.265625 
Q 44.046875 -1.421875 31.78125 -1.421875 
Q 19.53125 -1.421875 13.0625 8.265625 
Q 6.59375 17.96875 6.59375 36.375 
Q 6.59375 54.828125 13.0625 64.515625 
Q 19.53125 74.21875 31.78125 74.21875 
z
" id="DejaVuSans-48"/>
      </defs>
      <g transform="translate(108.657037 178.304792)scale(0.12 -0.12)">
       <use xlink:href="#DejaVuSans-50"/>
       <use x="63.623047" xlink:href="#DejaVuSans-52"/>
       <use x="127.246094" xlink:href="#DejaVuSans-51"/>
       <use x="190.869141" xlink:href="#DejaVuSans-48"/>
      </g>
     </g>
    </g>
    <g id="xtick_2">
     <g id="line2d_3">
      <path clip-path="url(#p09ec02464e)" d="M 245.015192 162.186667 
L 245.015192 29.52 
" style="fill:none;stroke:#808080;stroke-dasharray:0.3,0.495;stroke-dashoffset:0;stroke-width:0.3;"/>
     </g>
     <g id="line2d_4">
      <g>
       <use style="stroke:#000000;stroke-width:0.8;" x="245.015192" xlink:href="#m928f0f66e9" y="162.186667"/>
      </g>
     </g>
     <g id="text_2">
      <!-- 2440 -->
      <g transform="translate(229.745192 178.304792)scale(0.12 -0.12)">
       <use xlink:href="#DejaVuSans-50"/>
       <use x="63.623047" xlink:href="#DejaVuSans-52"/>
       <use x="127.246094" xlink:href="#DejaVuSans-52"/>
       <use x="190.869141" xlink:href="#DejaVuSans-48"/>
      </g>
     </g>
    </g>
    <g id="xtick_3">
     <g id="line2d_5">
      <path clip-path="url(#p09ec02464e)" d="M 366.103347 162.186667 
L 366.103347 29.52 
" style="fill:none;stroke:#808080;stroke-dasharray:0.3,0.495;stroke-dashoffset:0;stroke-width:0.3;"/>
     </g>
     <g id="line2d_6">
      <g>
       <use style="stroke:#000000;stroke-width:0.8;" x="366.103347" xlink:href="#m928f0f66e9" y="162.186667"/>
      </g>
     </g>
     <g id="text_3">
      <!-- 2450 -->
      <defs>
       <path d="M 10.796875 72.90625 
L 49.515625 72.90625 
L 49.515625 64.59375 
L 19.828125 64.59375 
L 19.828125 46.734375 
Q 21.96875 47.46875 24.109375 47.828125 
Q 26.265625 48.1875 28.421875 48.1875 
Q 40.625 48.1875 47.75 41.5 
Q 54.890625 34.8125 54.890625 23.390625 
Q 54.890625 11.625 47.5625 5.09375 
Q 40.234375 -1.421875 26.90625 -1.421875 
Q 22.3125 -1.421875 17.546875 -0.640625 
Q 12.796875 0.140625 7.71875 1.703125 
L 7.71875 11.625 
Q 12.109375 9.234375 16.796875 8.0625 
Q 21.484375 6.890625 26.703125 6.890625 
Q 35.15625 6.890625 40.078125 11.328125 
Q 45.015625 15.765625 45.015625 23.390625 
Q 45.015625 31 40.078125 35.4375 
Q 35.15625 39.890625 26.703125 39.890625 
Q 22.75 39.890625 18.8125 39.015625 
Q 14.890625 38.140625 10.796875 36.28125 
z
" id="DejaVuSans-53"/>
      </defs>
      <g transform="translate(350.833347 178.304792)scale(0.12 -0.12)">
       <use xlink:href="#DejaVuSans-50"/>
       <use x="63.623047" xlink:href="#DejaVuSans-52"/>
       <use x="127.246094" xlink:href="#DejaVuSans-53"/>
       <use x="190.869141" xlink:href="#DejaVuSans-48"/>
      </g>
     </g>
    </g>
    <g id="xtick_4">
     <g id="line2d_7">
      <path clip-path="url(#p09ec02464e)" d="M 487.191501 162.186667 
L 487.191501 29.52 
" style="fill:none;stroke:#808080;stroke-dasharray:0.3,0.495;stroke-dashoffset:0;stroke-width:0.3;"/>
     </g>
     <g id="line2d_8">
      <g>
       <use style="stroke:#000000;stroke-width:0.8;" x="487.191501" xlink:href="#m928f0f66e9" y="162.186667"/>
      </g>
     </g>
     <g id="text_4">
      <!-- 2460 -->
      <defs>
       <path d="M 33.015625 40.375 
Q 26.375 40.375 22.484375 35.828125 
Q 18.609375 31.296875 18.609375 23.390625 
Q 18.609375 15.53125 22.484375 10.953125 
Q 26.375 6.390625 33.015625 6.390625 
Q 39.65625 6.390625 43.53125 10.953125 
Q 47.40625 15.53125 47.40625 23.390625 
Q 47.40625 31.296875 43.53125 35.828125 
Q 39.65625 40.375 33.015625 40.375 
z
M 52.59375 71.296875 
L 52.59375 62.3125 
Q 48.875 64.0625 45.09375 64.984375 
Q 41.3125 65.921875 37.59375 65.921875 
Q 27.828125 65.921875 22.671875 59.328125 
Q 17.53125 52.734375 16.796875 39.40625 
Q 19.671875 43.65625 24.015625 45.921875 
Q 28.375 48.1875 33.59375 48.1875 
Q 44.578125 48.1875 50.953125 41.515625 
Q 57.328125 34.859375 57.328125 23.390625 
Q 57.328125 12.15625 50.6875 5.359375 
Q 44.046875 -1.421875 33.015625 -1.421875 
Q 20.359375 -1.421875 13.671875 8.265625 
Q 6.984375 17.96875 6.984375 36.375 
Q 6.984375 53.65625 15.1875 63.9375 
Q 23.390625 74.21875 37.203125 74.21875 
Q 40.921875 74.21875 44.703125 73.484375 
Q 48.484375 72.75 52.59375 71.296875 
z
" id="DejaVuSans-54"/>
      </defs>
      <g transform="translate(471.921501 178.304792)scale(0.12 -0.12)">
       <use xlink:href="#DejaVuSans-50"/>
       <use x="63.623047" xlink:href="#DejaVuSans-52"/>
       <use x="127.246094" xlink:href="#DejaVuSans-54"/>
       <use x="190.869141" xlink:href="#DejaVuSans-48"/>
      </g>
     </g>
    </g>
    <g id="xtick_5">
     <g id="line2d_9">
      <path clip-path="url(#p09ec02464e)" d="M 608.279656 162.186667 
L 608.279656 29.52 
" style="fill:none;stroke:#808080;stroke-dasharray:0.3,0.495;stroke-dashoffset:0;stroke-width:0.3;"/>
     </g>
     <g id="line2d_10">
      <g>
       <use style="stroke:#000000;stroke-width:0.8;" x="608.279656" xlink:href="#m928f0f66e9" y="162.186667"/>
      </g>
     </g>
     <g id="text_5">
      <!-- 2470 -->
      <defs>
       <path d="M 8.203125 72.90625 
L 55.078125 72.90625 
L 55.078125 68.703125 
L 28.609375 0 
L 18.3125 0 
L 43.21875 64.59375 
L 8.203125 64.59375 
z
" id="DejaVuSans-55"/>
      </defs>
      <g transform="translate(593.009656 178.304792)scale(0.12 -0.12)">
       <use xlink:href="#DejaVuSans-50"/>
       <use x="63.623047" xlink:href="#DejaVuSans-52"/>
       <use x="127.246094" xlink:href="#DejaVuSans-55"/>
       <use x="190.869141" xlink:href="#DejaVuSans-48"/>
      </g>
     </g>
    </g>
    <g id="xtick_6">
     <g id="line2d_11">
      <path clip-path="url(#p09ec02464e)" d="M 729.367811 162.186667 
L 729.367811 29.52 
" style="fill:none;stroke:#808080;stroke-dasharray:0.3,0.495;stroke-dashoffset:0;stroke-width:0.3;"/>
     </g>
     <g id="line2d_12">
      <g>
       <use style="stroke:#000000;stroke-width:0.8;" x="729.367811" xlink:href="#m928f0f66e9" y="162.186667"/>
      </g>
     </g>
     <g id="text_6">
      <!-- 2480 -->
      <defs>
       <path d="M 31.78125 34.625 
Q 24.75 34.625 20.71875 30.859375 
Q 16.703125 27.09375 16.703125 20.515625 
Q 16.703125 13.921875 20.71875 10.15625 
Q 24.75 6.390625 31.78125 6.390625 
Q 38.8125 6.390625 42.859375 10.171875 
Q 46.921875 13.96875 46.921875 20.515625 
Q 46.921875 27.09375 42.890625 30.859375 
Q 38.875 34.625 31.78125 34.625 
z
M 21.921875 38.8125 
Q 15.578125 40.375 12.03125 44.71875 
Q 8.5 49.078125 8.5 55.328125 
Q 8.5 64.0625 14.71875 69.140625 
Q 20.953125 74.21875 31.78125 74.21875 
Q 42.671875 74.21875 48.875 69.140625 
Q 55.078125 64.0625 55.078125 55.328125 
Q 55.078125 49.078125 51.53125 44.71875 
Q 48 40.375 41.703125 38.8125 
Q 48.828125 37.15625 52.796875 32.3125 
Q 56.78125 27.484375 56.78125 20.515625 
Q 56.78125 9.90625 50.3125 4.234375 
Q 43.84375 -1.421875 31.78125 -1.421875 
Q 19.734375 -1.421875 13.25 4.234375 
Q 6.78125 9.90625 6.78125 20.515625 
Q 6.78125 27.484375 10.78125 32.3125 
Q 14.796875 37.15625 21.921875 38.8125 
z
M 18.3125 54.390625 
Q 18.3125 48.734375 21.84375 45.5625 
Q 25.390625 42.390625 31.78125 42.390625 
Q 38.140625 42.390625 41.71875 45.5625 
Q 45.3125 48.734375 45.3125 54.390625 
Q 45.3125 60.0625 41.71875 63.234375 
Q 38.140625 66.40625 31.78125 66.40625 
Q 25.390625 66.40625 21.84375 63.234375 
Q 18.3125 60.0625 18.3125 54.390625 
z
" id="DejaVuSans-56"/>
      </defs>
      <g transform="translate(714.097811 178.304792)scale(0.12 -0.12)">
       <use xlink:href="#DejaVuSans-50"/>
       <use x="63.623047" xlink:href="#DejaVuSans-52"/>
       <use x="127.246094" xlink:href="#DejaVuSans-56"/>
       <use x="190.869141" xlink:href="#DejaVuSans-48"/>
      </g>
     </g>
    </g>
    <g id="text_7">
     <!-- $\lambda_1$ value -->
     <defs>
      <path d="M 36.71875 67.4375 
L 48.828125 0 
L 39.3125 0 
L 31.84375 40.4375 
L 5.125 0 
L -4.390625 0 
L 29.734375 52.4375 
L 28.03125 62.109375 
Q 26.953125 68.265625 21.734375 68.265625 
L 17.046875 68.265625 
L 18.5 75.984375 
L 24.21875 75.875 
Q 35.203125 75.734375 36.71875 67.4375 
z
" id="DejaVuSans-Oblique-955"/>
      <path d="M 12.40625 8.296875 
L 28.515625 8.296875 
L 28.515625 63.921875 
L 10.984375 60.40625 
L 10.984375 69.390625 
L 28.421875 72.90625 
L 38.28125 72.90625 
L 38.28125 8.296875 
L 54.390625 8.296875 
L 54.390625 0 
L 12.40625 0 
z
" id="DejaVuSans-49"/>
      <path id="DejaVuSans-32"/>
      <path d="M 2.984375 54.6875 
L 12.5 54.6875 
L 29.59375 8.796875 
L 46.6875 54.6875 
L 56.203125 54.6875 
L 35.6875 0 
L 23.484375 0 
z
" id="DejaVuSans-118"/>
      <path d="M 34.28125 27.484375 
Q 23.390625 27.484375 19.1875 25 
Q 14.984375 22.515625 14.984375 16.5 
Q 14.984375 11.71875 18.140625 8.90625 
Q 21.296875 6.109375 26.703125 6.109375 
Q 34.1875 6.109375 38.703125 11.40625 
Q 43.21875 16.703125 43.21875 25.484375 
L 43.21875 27.484375 
z
M 52.203125 31.203125 
L 52.203125 0 
L 43.21875 0 
L 43.21875 8.296875 
Q 40.140625 3.328125 35.546875 0.953125 
Q 30.953125 -1.421875 24.3125 -1.421875 
Q 15.921875 -1.421875 10.953125 3.296875 
Q 6 8.015625 6 15.921875 
Q 6 25.140625 12.171875 29.828125 
Q 18.359375 34.515625 30.609375 34.515625 
L 43.21875 34.515625 
L 43.21875 35.40625 
Q 43.21875 41.609375 39.140625 45 
Q 35.0625 48.390625 27.6875 48.390625 
Q 23 48.390625 18.546875 47.265625 
Q 14.109375 46.140625 10.015625 43.890625 
L 10.015625 52.203125 
Q 14.9375 54.109375 19.578125 55.046875 
Q 24.21875 56 28.609375 56 
Q 40.484375 56 46.34375 49.84375 
Q 52.203125 43.703125 52.203125 31.203125 
z
" id="DejaVuSans-97"/>
      <path d="M 9.421875 75.984375 
L 18.40625 75.984375 
L 18.40625 0 
L 9.421875 0 
z
" id="DejaVuSans-108"/>
      <path d="M 8.5 21.578125 
L 8.5 54.6875 
L 17.484375 54.6875 
L 17.484375 21.921875 
Q 17.484375 14.15625 20.5 10.265625 
Q 23.53125 6.390625 29.59375 6.390625 
Q 36.859375 6.390625 41.078125 11.03125 
Q 45.3125 15.671875 45.3125 23.6875 
L 45.3125 54.6875 
L 54.296875 54.6875 
L 54.296875 0 
L 45.3125 0 
L 45.3125 8.40625 
Q 42.046875 3.421875 37.71875 1 
Q 33.40625 -1.421875 27.6875 -1.421875 
Q 18.265625 -1.421875 13.375 4.4375 
Q 8.5 10.296875 8.5 21.578125 
z
M 31.109375 56 
z
" id="DejaVuSans-117"/>
      <path d="M 56.203125 29.59375 
L 56.203125 25.203125 
L 14.890625 25.203125 
Q 15.484375 15.921875 20.484375 11.0625 
Q 25.484375 6.203125 34.421875 6.203125 
Q 39.59375 6.203125 44.453125 7.46875 
Q 49.3125 8.734375 54.109375 11.28125 
L 54.109375 2.78125 
Q 49.265625 0.734375 44.1875 -0.34375 
Q 39.109375 -1.421875 33.890625 -1.421875 
Q 20.796875 -1.421875 13.15625 6.1875 
Q 5.515625 13.8125 5.515625 26.8125 
Q 5.515625 40.234375 12.765625 48.109375 
Q 20.015625 56 32.328125 56 
Q 43.359375 56 49.78125 48.890625 
Q 56.203125 41.796875 56.203125 29.59375 
z
M 47.21875 32.234375 
Q 47.125 39.59375 43.09375 43.984375 
Q 39.0625 48.390625 32.421875 48.390625 
Q 24.90625 48.390625 20.390625 44.140625 
Q 15.875 39.890625 15.1875 32.171875 
z
" id="DejaVuSans-101"/>
     </defs>
     <g transform="translate(422.9225 199.742167)scale(0.144 -0.144)">
      <use transform="translate(0 0.015625)" xlink:href="#DejaVuSans-Oblique-955"/>
      <use transform="translate(59.179688 -16.390625)scale(0.7)" xlink:href="#DejaVuSans-49"/>
      <use transform="translate(106.450195 0.015625)" xlink:href="#DejaVuSans-32"/>
      <use transform="translate(138.237305 0.015625)" xlink:href="#DejaVuSans-118"/>
      <use transform="translate(197.416992 0.015625)" xlink:href="#DejaVuSans-97"/>
      <use transform="translate(258.696289 0.015625)" xlink:href="#DejaVuSans-108"/>
      <use transform="translate(286.479492 0.015625)" xlink:href="#DejaVuSans-117"/>
      <use transform="translate(349.858398 0.015625)" xlink:href="#DejaVuSans-101"/>
     </g>
    </g>
   </g>
   <g id="matplotlib.axis_2">
    <g id="ytick_1">
     <g id="line2d_13">
      <path clip-path="url(#p09ec02464e)" d="M 62.85525 162.186667 
L 842.31775 162.186667 
" style="fill:none;stroke:#808080;stroke-dasharray:0.3,0.495;stroke-dashoffset:0;stroke-width:0.3;"/>
     </g>
     <g id="line2d_14">
      <defs>
       <path d="M 0 0 
L -3.5 0 
" id="m29aba4c848" style="stroke:#000000;stroke-width:0.8;"/>
      </defs>
      <g>
       <use style="stroke:#000000;stroke-width:0.8;" x="62.85525" xlink:href="#m29aba4c848" y="162.186667"/>
      </g>
     </g>
     <g id="text_8">
      <!-- 0.00 -->
      <defs>
       <path d="M 10.6875 12.40625 
L 21 12.40625 
L 21 0 
L 10.6875 0 
z
" id="DejaVuSans-46"/>
      </defs>
      <g transform="translate(29.1365 166.745729)scale(0.12 -0.12)">
       <use xlink:href="#DejaVuSans-48"/>
       <use x="63.623047" xlink:href="#DejaVuSans-46"/>
       <use x="95.410156" xlink:href="#DejaVuSans-48"/>
       <use x="159.033203" xlink:href="#DejaVuSans-48"/>
      </g>
     </g>
    </g>
    <g id="ytick_2">
     <g id="line2d_15">
      <path clip-path="url(#p09ec02464e)" d="M 62.85525 113.065942 
L 842.31775 113.065942 
" style="fill:none;stroke:#808080;stroke-dasharray:0.3,0.495;stroke-dashoffset:0;stroke-width:0.3;"/>
     </g>
     <g id="line2d_16">
      <g>
       <use style="stroke:#000000;stroke-width:0.8;" x="62.85525" xlink:href="#m29aba4c848" y="113.065942"/>
      </g>
     </g>
     <g id="text_9">
      <!-- 0.02 -->
      <g transform="translate(29.1365 117.625005)scale(0.12 -0.12)">
       <use xlink:href="#DejaVuSans-48"/>
       <use x="63.623047" xlink:href="#DejaVuSans-46"/>
       <use x="95.410156" xlink:href="#DejaVuSans-48"/>
       <use x="159.033203" xlink:href="#DejaVuSans-50"/>
      </g>
     </g>
    </g>
    <g id="ytick_3">
     <g id="line2d_17">
      <path clip-path="url(#p09ec02464e)" d="M 62.85525 63.945218 
L 842.31775 63.945218 
" style="fill:none;stroke:#808080;stroke-dasharray:0.3,0.495;stroke-dashoffset:0;stroke-width:0.3;"/>
     </g>
     <g id="line2d_18">
      <g>
       <use style="stroke:#000000;stroke-width:0.8;" x="62.85525" xlink:href="#m29aba4c848" y="63.945218"/>
      </g>
     </g>
     <g id="text_10">
      <!-- 0.04 -->
      <g transform="translate(29.1365 68.504281)scale(0.12 -0.12)">
       <use xlink:href="#DejaVuSans-48"/>
       <use x="63.623047" xlink:href="#DejaVuSans-46"/>
       <use x="95.410156" xlink:href="#DejaVuSans-48"/>
       <use x="159.033203" xlink:href="#DejaVuSans-52"/>
      </g>
     </g>
    </g>
    <g id="text_11">
     <!-- Density -->
     <defs>
      <path d="M 19.671875 64.796875 
L 19.671875 8.109375 
L 31.59375 8.109375 
Q 46.6875 8.109375 53.6875 14.9375 
Q 60.6875 21.78125 60.6875 36.53125 
Q 60.6875 51.171875 53.6875 57.984375 
Q 46.6875 64.796875 31.59375 64.796875 
z
M 9.8125 72.90625 
L 30.078125 72.90625 
Q 51.265625 72.90625 61.171875 64.09375 
Q 71.09375 55.28125 71.09375 36.53125 
Q 71.09375 17.671875 61.125 8.828125 
Q 51.171875 0 30.078125 0 
L 9.8125 0 
z
" id="DejaVuSans-68"/>
      <path d="M 54.890625 33.015625 
L 54.890625 0 
L 45.90625 0 
L 45.90625 32.71875 
Q 45.90625 40.484375 42.875 44.328125 
Q 39.84375 48.1875 33.796875 48.1875 
Q 26.515625 48.1875 22.3125 43.546875 
Q 18.109375 38.921875 18.109375 30.90625 
L 18.109375 0 
L 9.078125 0 
L 9.078125 54.6875 
L 18.109375 54.6875 
L 18.109375 46.1875 
Q 21.34375 51.125 25.703125 53.5625 
Q 30.078125 56 35.796875 56 
Q 45.21875 56 50.046875 50.171875 
Q 54.890625 44.34375 54.890625 33.015625 
z
" id="DejaVuSans-110"/>
      <path d="M 44.28125 53.078125 
L 44.28125 44.578125 
Q 40.484375 46.53125 36.375 47.5 
Q 32.28125 48.484375 27.875 48.484375 
Q 21.1875 48.484375 17.84375 46.4375 
Q 14.5 44.390625 14.5 40.28125 
Q 14.5 37.15625 16.890625 35.375 
Q 19.28125 33.59375 26.515625 31.984375 
L 29.59375 31.296875 
Q 39.15625 29.25 43.1875 25.515625 
Q 47.21875 21.78125 47.21875 15.09375 
Q 47.21875 7.46875 41.1875 3.015625 
Q 35.15625 -1.421875 24.609375 -1.421875 
Q 20.21875 -1.421875 15.453125 -0.5625 
Q 10.6875 0.296875 5.421875 2 
L 5.421875 11.28125 
Q 10.40625 8.6875 15.234375 7.390625 
Q 20.0625 6.109375 24.8125 6.109375 
Q 31.15625 6.109375 34.5625 8.28125 
Q 37.984375 10.453125 37.984375 14.40625 
Q 37.984375 18.0625 35.515625 20.015625 
Q 33.0625 21.96875 24.703125 23.78125 
L 21.578125 24.515625 
Q 13.234375 26.265625 9.515625 29.90625 
Q 5.8125 33.546875 5.8125 39.890625 
Q 5.8125 47.609375 11.28125 51.796875 
Q 16.75 56 26.8125 56 
Q 31.78125 56 36.171875 55.265625 
Q 40.578125 54.546875 44.28125 53.078125 
z
" id="DejaVuSans-115"/>
      <path d="M 9.421875 54.6875 
L 18.40625 54.6875 
L 18.40625 0 
L 9.421875 0 
z
M 9.421875 75.984375 
L 18.40625 75.984375 
L 18.40625 64.59375 
L 9.421875 64.59375 
z
" id="DejaVuSans-105"/>
      <path d="M 18.3125 70.21875 
L 18.3125 54.6875 
L 36.8125 54.6875 
L 36.8125 47.703125 
L 18.3125 47.703125 
L 18.3125 18.015625 
Q 18.3125 11.328125 20.140625 9.421875 
Q 21.96875 7.515625 27.59375 7.515625 
L 36.8125 7.515625 
L 36.8125 0 
L 27.59375 0 
Q 17.1875 0 13.234375 3.875 
Q 9.28125 7.765625 9.28125 18.015625 
L 9.28125 47.703125 
L 2.6875 47.703125 
L 2.6875 54.6875 
L 9.28125 54.6875 
L 9.28125 70.21875 
z
" id="DejaVuSans-116"/>
      <path d="M 32.171875 -5.078125 
Q 28.375 -14.84375 24.75 -17.8125 
Q 21.140625 -20.796875 15.09375 -20.796875 
L 7.90625 -20.796875 
L 7.90625 -13.28125 
L 13.1875 -13.28125 
Q 16.890625 -13.28125 18.9375 -11.515625 
Q 21 -9.765625 23.484375 -3.21875 
L 25.09375 0.875 
L 2.984375 54.6875 
L 12.5 54.6875 
L 29.59375 11.921875 
L 46.6875 54.6875 
L 56.203125 54.6875 
z
" id="DejaVuSans-121"/>
     </defs>
     <g transform="translate(18.14175 123.225708)rotate(-90)scale(0.144 -0.144)">
      <use xlink:href="#DejaVuSans-68"/>
      <use x="77.001953" xlink:href="#DejaVuSans-101"/>
      <use x="138.525391" xlink:href="#DejaVuSans-110"/>
      <use x="201.904297" xlink:href="#DejaVuSans-115"/>
      <use x="254.003906" xlink:href="#DejaVuSans-105"/>
      <use x="281.787109" xlink:href="#DejaVuSans-116"/>
      <use x="320.996094" xlink:href="#DejaVuSans-121"/>
     </g>
    </g>
   </g>
   <g id="patch_4">
    <path d="M 62.85525 162.186667 
L 62.85525 29.52 
" style="fill:none;stroke:#000000;stroke-linecap:square;stroke-linejoin:miter;stroke-width:0.8;"/>
   </g>
   <g id="patch_5">
    <path d="M 842.31775 162.186667 
L 842.31775 29.52 
" style="fill:none;stroke:#000000;stroke-linecap:square;stroke-linejoin:miter;stroke-width:0.8;"/>
   </g>
   <g id="patch_6">
    <path d="M 62.85525 162.186667 
L 842.31775 162.186667 
" style="fill:none;stroke:#000000;stroke-linecap:square;stroke-linejoin:miter;stroke-width:0.8;"/>
   </g>
   <g id="patch_7">
    <path d="M 62.85525 29.52 
L 842.31775 29.52 
" style="fill:none;stroke:#000000;stroke-linecap:square;stroke-linejoin:miter;stroke-width:0.8;"/>
   </g>
   <g id="legend_1">
    <g id="patch_8">
     <path d="M 71.25525 56.76 
L 195.57525 56.76 
Q 197.97525 56.76 197.97525 54.36 
L 197.97525 37.92 
Q 197.97525 35.52 195.57525 35.52 
L 71.25525 35.52 
Q 68.85525 35.52 68.85525 37.92 
L 68.85525 54.36 
Q 68.85525 56.76 71.25525 56.76 
z
" style="fill:#ffffff;opacity:0.8;stroke:#cccccc;stroke-linejoin:miter;"/>
    </g>
    <g id="patch_9">
     <path d="M 73.65525 49.44 
L 97.65525 49.44 
L 97.65525 41.04 
L 73.65525 41.04 
z
" style="fill:#a60628;opacity:0.85;"/>
    </g>
    <g id="text_12">
     <!-- posterior of $\lambda_1$ -->
     <defs>
      <path d="M 18.109375 8.203125 
L 18.109375 -20.796875 
L 9.078125 -20.796875 
L 9.078125 54.6875 
L 18.109375 54.6875 
L 18.109375 46.390625 
Q 20.953125 51.265625 25.265625 53.625 
Q 29.59375 56 35.59375 56 
Q 45.5625 56 51.78125 48.09375 
Q 58.015625 40.1875 58.015625 27.296875 
Q 58.015625 14.40625 51.78125 6.484375 
Q 45.5625 -1.421875 35.59375 -1.421875 
Q 29.59375 -1.421875 25.265625 0.953125 
Q 20.953125 3.328125 18.109375 8.203125 
z
M 48.6875 27.296875 
Q 48.6875 37.203125 44.609375 42.84375 
Q 40.53125 48.484375 33.40625 48.484375 
Q 26.265625 48.484375 22.1875 42.84375 
Q 18.109375 37.203125 18.109375 27.296875 
Q 18.109375 17.390625 22.1875 11.75 
Q 26.265625 6.109375 33.40625 6.109375 
Q 40.53125 6.109375 44.609375 11.75 
Q 48.6875 17.390625 48.6875 27.296875 
z
" id="DejaVuSans-112"/>
      <path d="M 30.609375 48.390625 
Q 23.390625 48.390625 19.1875 42.75 
Q 14.984375 37.109375 14.984375 27.296875 
Q 14.984375 17.484375 19.15625 11.84375 
Q 23.34375 6.203125 30.609375 6.203125 
Q 37.796875 6.203125 41.984375 11.859375 
Q 46.1875 17.53125 46.1875 27.296875 
Q 46.1875 37.015625 41.984375 42.703125 
Q 37.796875 48.390625 30.609375 48.390625 
z
M 30.609375 56 
Q 42.328125 56 49.015625 48.375 
Q 55.71875 40.765625 55.71875 27.296875 
Q 55.71875 13.875 49.015625 6.21875 
Q 42.328125 -1.421875 30.609375 -1.421875 
Q 18.84375 -1.421875 12.171875 6.21875 
Q 5.515625 13.875 5.515625 27.296875 
Q 5.515625 40.765625 12.171875 48.375 
Q 18.84375 56 30.609375 56 
z
" id="DejaVuSans-111"/>
      <path d="M 41.109375 46.296875 
Q 39.59375 47.171875 37.8125 47.578125 
Q 36.03125 48 33.890625 48 
Q 26.265625 48 22.1875 43.046875 
Q 18.109375 38.09375 18.109375 28.8125 
L 18.109375 0 
L 9.078125 0 
L 9.078125 54.6875 
L 18.109375 54.6875 
L 18.109375 46.1875 
Q 20.953125 51.171875 25.484375 53.578125 
Q 30.03125 56 36.53125 56 
Q 37.453125 56 38.578125 55.875 
Q 39.703125 55.765625 41.0625 55.515625 
z
" id="DejaVuSans-114"/>
      <path d="M 37.109375 75.984375 
L 37.109375 68.5 
L 28.515625 68.5 
Q 23.6875 68.5 21.796875 66.546875 
Q 19.921875 64.59375 19.921875 59.515625 
L 19.921875 54.6875 
L 34.71875 54.6875 
L 34.71875 47.703125 
L 19.921875 47.703125 
L 19.921875 0 
L 10.890625 0 
L 10.890625 47.703125 
L 2.296875 47.703125 
L 2.296875 54.6875 
L 10.890625 54.6875 
L 10.890625 58.5 
Q 10.890625 67.625 15.140625 71.796875 
Q 19.390625 75.984375 28.609375 75.984375 
z
" id="DejaVuSans-102"/>
     </defs>
     <g transform="translate(107.25525 49.44)scale(0.12 -0.12)">
      <use transform="translate(0 0.015625)" xlink:href="#DejaVuSans-112"/>
      <use transform="translate(63.476562 0.015625)" xlink:href="#DejaVuSans-111"/>
      <use transform="translate(124.658203 0.015625)" xlink:href="#DejaVuSans-115"/>
      <use transform="translate(176.757812 0.015625)" xlink:href="#DejaVuSans-116"/>
      <use transform="translate(215.966797 0.015625)" xlink:href="#DejaVuSans-101"/>
      <use transform="translate(277.490234 0.015625)" xlink:href="#DejaVuSans-114"/>
      <use transform="translate(318.603516 0.015625)" xlink:href="#DejaVuSans-105"/>
      <use transform="translate(346.386719 0.015625)" xlink:href="#DejaVuSans-111"/>
      <use transform="translate(407.568359 0.015625)" xlink:href="#DejaVuSans-114"/>
      <use transform="translate(448.681641 0.015625)" xlink:href="#DejaVuSans-32"/>
      <use transform="translate(480.46875 0.015625)" xlink:href="#DejaVuSans-111"/>
      <use transform="translate(541.650391 0.015625)" xlink:href="#DejaVuSans-102"/>
      <use transform="translate(576.855469 0.015625)" xlink:href="#DejaVuSans-32"/>
      <use transform="translate(608.642578 0.015625)" xlink:href="#DejaVuSans-Oblique-955"/>
      <use transform="translate(667.822266 -16.390625)scale(0.7)" xlink:href="#DejaVuSans-49"/>
     </g>
    </g>
   </g>
  </g>
  <g id="axes_2">
   <g id="patch_10">
    <path d="M 62.85525 351.053333 
L 842.31775 351.053333 
L 842.31775 218.386667 
L 62.85525 218.386667 
z
" style="fill:#ffffff;"/>
   </g>
   <g id="patch_11">
    <path clip-path="url(#pd09e01999f)" d="M 98.285364 351.053333 
L 98.285364 351.026359 
L 121.905439 351.026359 
L 121.905439 351.026359 
L 145.525515 351.026359 
L 145.525515 350.540815 
L 169.145591 350.540815 
L 169.145591 350.055272 
L 192.765667 350.055272 
L 192.765667 348.355869 
L 216.385742 348.355869 
L 216.385742 345.145888 
L 240.005818 345.145888 
L 240.005818 340.910869 
L 263.625894 340.910869 
L 263.625894 331.307898 
L 287.24597 331.307898 
L 287.24597 318.225198 
L 310.866045 318.225198 
L 310.866045 301.824618 
L 334.486121 301.824618 
L 334.486121 287.17739 
L 358.106197 287.17739 
L 358.106197 263.035088 
L 381.726273 263.035088 
L 381.726273 243.019906 
L 405.346348 243.019906 
L 405.346348 235.763729 
L 428.966424 235.763729 
L 428.966424 224.704127 
L 452.5865 224.704127 
L 452.5865 239.216482 
L 476.206576 239.216482 
L 476.206576 249.170124 
L 499.826652 249.170124 
L 499.826652 276.225686 
L 523.446727 276.225686 
L 523.446727 285.100342 
L 547.066803 285.100342 
L 547.066803 311.049945 
L 570.686879 311.049945 
L 570.686879 324.726086 
L 594.306955 324.726086 
L 594.306955 333.492844 
L 617.92703 333.492844 
L 617.92703 343.257663 
L 641.547106 343.257663 
L 641.547106 345.388659 
L 665.167182 345.388659 
L 665.167182 348.976286 
L 688.787258 348.976286 
L 688.787258 350.001322 
L 712.407333 350.001322 
L 712.407333 350.783587 
L 736.027409 350.783587 
L 736.027409 351.026359 
L 759.647485 351.026359 
L 759.647485 351.053333 
L 783.267561 351.053333 
L 783.267561 351.026359 
L 806.887636 351.026359 
L 806.887636 351.053333 
L 783.267561 351.053333 
L 783.267561 351.053333 
L 759.647485 351.053333 
L 759.647485 351.053333 
L 736.027409 351.053333 
L 736.027409 351.053333 
L 712.407333 351.053333 
L 712.407333 351.053333 
L 688.787258 351.053333 
L 688.787258 351.053333 
L 665.167182 351.053333 
L 665.167182 351.053333 
L 641.547106 351.053333 
L 641.547106 351.053333 
L 617.92703 351.053333 
L 617.92703 351.053333 
L 594.306955 351.053333 
L 594.306955 351.053333 
L 570.686879 351.053333 
L 570.686879 351.053333 
L 547.066803 351.053333 
L 547.066803 351.053333 
L 523.446727 351.053333 
L 523.446727 351.053333 
L 499.826652 351.053333 
L 499.826652 351.053333 
L 476.206576 351.053333 
L 476.206576 351.053333 
L 452.5865 351.053333 
L 452.5865 351.053333 
L 428.966424 351.053333 
L 428.966424 351.053333 
L 405.346348 351.053333 
L 405.346348 351.053333 
L 381.726273 351.053333 
L 381.726273 351.053333 
L 358.106197 351.053333 
L 358.106197 351.053333 
L 334.486121 351.053333 
L 334.486121 351.053333 
L 310.866045 351.053333 
L 310.866045 351.053333 
L 287.24597 351.053333 
L 287.24597 351.053333 
L 263.625894 351.053333 
L 263.625894 351.053333 
L 240.005818 351.053333 
L 240.005818 351.053333 
L 216.385742 351.053333 
L 216.385742 351.053333 
L 192.765667 351.053333 
L 192.765667 351.053333 
L 169.145591 351.053333 
L 169.145591 351.053333 
L 145.525515 351.053333 
L 145.525515 351.053333 
L 121.905439 351.053333 
L 121.905439 351.053333 
z
" style="fill:#7a68a6;opacity:0.85;"/>
   </g>
   <g id="matplotlib.axis_3">
    <g id="xtick_7">
     <g id="line2d_19">
      <path clip-path="url(#pd09e01999f)" d="M 138.929981 351.053333 
L 138.929981 218.386667 
" style="fill:none;stroke:#808080;stroke-dasharray:0.3,0.495;stroke-dashoffset:0;stroke-width:0.3;"/>
     </g>
     <g id="line2d_20">
      <g>
       <use style="stroke:#000000;stroke-width:0.8;" x="138.929981" xlink:href="#m928f0f66e9" y="351.053333"/>
      </g>
     </g>
     <g id="text_13">
      <!-- 330 -->
      <g transform="translate(127.477481 367.171458)scale(0.12 -0.12)">
       <use xlink:href="#DejaVuSans-51"/>
       <use x="63.623047" xlink:href="#DejaVuSans-51"/>
       <use x="127.246094" xlink:href="#DejaVuSans-48"/>
      </g>
     </g>
    </g>
    <g id="xtick_8">
     <g id="line2d_21">
      <path clip-path="url(#pd09e01999f)" d="M 310.778754 351.053333 
L 310.778754 218.386667 
" style="fill:none;stroke:#808080;stroke-dasharray:0.3,0.495;stroke-dashoffset:0;stroke-width:0.3;"/>
     </g>
     <g id="line2d_22">
      <g>
       <use style="stroke:#000000;stroke-width:0.8;" x="310.778754" xlink:href="#m928f0f66e9" y="351.053333"/>
      </g>
     </g>
     <g id="text_14">
      <!-- 335 -->
      <g transform="translate(299.326254 367.171458)scale(0.12 -0.12)">
       <use xlink:href="#DejaVuSans-51"/>
       <use x="63.623047" xlink:href="#DejaVuSans-51"/>
       <use x="127.246094" xlink:href="#DejaVuSans-53"/>
      </g>
     </g>
    </g>
    <g id="xtick_9">
     <g id="line2d_23">
      <path clip-path="url(#pd09e01999f)" d="M 482.627528 351.053333 
L 482.627528 218.386667 
" style="fill:none;stroke:#808080;stroke-dasharray:0.3,0.495;stroke-dashoffset:0;stroke-width:0.3;"/>
     </g>
     <g id="line2d_24">
      <g>
       <use style="stroke:#000000;stroke-width:0.8;" x="482.627528" xlink:href="#m928f0f66e9" y="351.053333"/>
      </g>
     </g>
     <g id="text_15">
      <!-- 340 -->
      <g transform="translate(471.175028 367.171458)scale(0.12 -0.12)">
       <use xlink:href="#DejaVuSans-51"/>
       <use x="63.623047" xlink:href="#DejaVuSans-52"/>
       <use x="127.246094" xlink:href="#DejaVuSans-48"/>
      </g>
     </g>
    </g>
    <g id="xtick_10">
     <g id="line2d_25">
      <path clip-path="url(#pd09e01999f)" d="M 654.476301 351.053333 
L 654.476301 218.386667 
" style="fill:none;stroke:#808080;stroke-dasharray:0.3,0.495;stroke-dashoffset:0;stroke-width:0.3;"/>
     </g>
     <g id="line2d_26">
      <g>
       <use style="stroke:#000000;stroke-width:0.8;" x="654.476301" xlink:href="#m928f0f66e9" y="351.053333"/>
      </g>
     </g>
     <g id="text_16">
      <!-- 345 -->
      <g transform="translate(643.023801 367.171458)scale(0.12 -0.12)">
       <use xlink:href="#DejaVuSans-51"/>
       <use x="63.623047" xlink:href="#DejaVuSans-52"/>
       <use x="127.246094" xlink:href="#DejaVuSans-53"/>
      </g>
     </g>
    </g>
    <g id="xtick_11">
     <g id="line2d_27">
      <path clip-path="url(#pd09e01999f)" d="M 826.325075 351.053333 
L 826.325075 218.386667 
" style="fill:none;stroke:#808080;stroke-dasharray:0.3,0.495;stroke-dashoffset:0;stroke-width:0.3;"/>
     </g>
     <g id="line2d_28">
      <g>
       <use style="stroke:#000000;stroke-width:0.8;" x="826.325075" xlink:href="#m928f0f66e9" y="351.053333"/>
      </g>
     </g>
     <g id="text_17">
      <!-- 350 -->
      <g transform="translate(814.872575 367.171458)scale(0.12 -0.12)">
       <use xlink:href="#DejaVuSans-51"/>
       <use x="63.623047" xlink:href="#DejaVuSans-53"/>
       <use x="127.246094" xlink:href="#DejaVuSans-48"/>
      </g>
     </g>
    </g>
    <g id="text_18">
     <!-- $\lambda_2$ value -->
     <g transform="translate(422.9225 388.608833)scale(0.144 -0.144)">
      <use transform="translate(0 0.015625)" xlink:href="#DejaVuSans-Oblique-955"/>
      <use transform="translate(59.179688 -16.390625)scale(0.7)" xlink:href="#DejaVuSans-50"/>
      <use transform="translate(106.450195 0.015625)" xlink:href="#DejaVuSans-32"/>
      <use transform="translate(138.237305 0.015625)" xlink:href="#DejaVuSans-118"/>
      <use transform="translate(197.416992 0.015625)" xlink:href="#DejaVuSans-97"/>
      <use transform="translate(258.696289 0.015625)" xlink:href="#DejaVuSans-108"/>
      <use transform="translate(286.479492 0.015625)" xlink:href="#DejaVuSans-117"/>
      <use transform="translate(349.858398 0.015625)" xlink:href="#DejaVuSans-101"/>
     </g>
    </g>
   </g>
   <g id="matplotlib.axis_4">
    <g id="ytick_4">
     <g id="line2d_29">
      <path clip-path="url(#pd09e01999f)" d="M 62.85525 351.053333 
L 842.31775 351.053333 
" style="fill:none;stroke:#808080;stroke-dasharray:0.3,0.495;stroke-dashoffset:0;stroke-width:0.3;"/>
     </g>
     <g id="line2d_30">
      <g>
       <use style="stroke:#000000;stroke-width:0.8;" x="62.85525" xlink:href="#m29aba4c848" y="351.053333"/>
      </g>
     </g>
     <g id="text_19">
      <!-- 0.00 -->
      <g transform="translate(29.1365 355.612396)scale(0.12 -0.12)">
       <use xlink:href="#DejaVuSans-48"/>
       <use x="63.623047" xlink:href="#DejaVuSans-46"/>
       <use x="95.410156" xlink:href="#DejaVuSans-48"/>
       <use x="159.033203" xlink:href="#DejaVuSans-48"/>
      </g>
     </g>
    </g>
    <g id="ytick_5">
     <g id="line2d_31">
      <path clip-path="url(#pd09e01999f)" d="M 62.85525 313.977538 
L 842.31775 313.977538 
" style="fill:none;stroke:#808080;stroke-dasharray:0.3,0.495;stroke-dashoffset:0;stroke-width:0.3;"/>
     </g>
     <g id="line2d_32">
      <g>
       <use style="stroke:#000000;stroke-width:0.8;" x="62.85525" xlink:href="#m29aba4c848" y="313.977538"/>
      </g>
     </g>
     <g id="text_20">
      <!-- 0.05 -->
      <g transform="translate(29.1365 318.5366)scale(0.12 -0.12)">
       <use xlink:href="#DejaVuSans-48"/>
       <use x="63.623047" xlink:href="#DejaVuSans-46"/>
       <use x="95.410156" xlink:href="#DejaVuSans-48"/>
       <use x="159.033203" xlink:href="#DejaVuSans-53"/>
      </g>
     </g>
    </g>
    <g id="ytick_6">
     <g id="line2d_33">
      <path clip-path="url(#pd09e01999f)" d="M 62.85525 276.901742 
L 842.31775 276.901742 
" style="fill:none;stroke:#808080;stroke-dasharray:0.3,0.495;stroke-dashoffset:0;stroke-width:0.3;"/>
     </g>
     <g id="line2d_34">
      <g>
       <use style="stroke:#000000;stroke-width:0.8;" x="62.85525" xlink:href="#m29aba4c848" y="276.901742"/>
      </g>
     </g>
     <g id="text_21">
      <!-- 0.10 -->
      <g transform="translate(29.1365 281.460804)scale(0.12 -0.12)">
       <use xlink:href="#DejaVuSans-48"/>
       <use x="63.623047" xlink:href="#DejaVuSans-46"/>
       <use x="95.410156" xlink:href="#DejaVuSans-49"/>
       <use x="159.033203" xlink:href="#DejaVuSans-48"/>
      </g>
     </g>
    </g>
    <g id="ytick_7">
     <g id="line2d_35">
      <path clip-path="url(#pd09e01999f)" d="M 62.85525 239.825946 
L 842.31775 239.825946 
" style="fill:none;stroke:#808080;stroke-dasharray:0.3,0.495;stroke-dashoffset:0;stroke-width:0.3;"/>
     </g>
     <g id="line2d_36">
      <g>
       <use style="stroke:#000000;stroke-width:0.8;" x="62.85525" xlink:href="#m29aba4c848" y="239.825946"/>
      </g>
     </g>
     <g id="text_22">
      <!-- 0.15 -->
      <g transform="translate(29.1365 244.385009)scale(0.12 -0.12)">
       <use xlink:href="#DejaVuSans-48"/>
       <use x="63.623047" xlink:href="#DejaVuSans-46"/>
       <use x="95.410156" xlink:href="#DejaVuSans-49"/>
       <use x="159.033203" xlink:href="#DejaVuSans-53"/>
      </g>
     </g>
    </g>
    <g id="text_23">
     <!-- Density -->
     <g transform="translate(18.14175 312.092375)rotate(-90)scale(0.144 -0.144)">
      <use xlink:href="#DejaVuSans-68"/>
      <use x="77.001953" xlink:href="#DejaVuSans-101"/>
      <use x="138.525391" xlink:href="#DejaVuSans-110"/>
      <use x="201.904297" xlink:href="#DejaVuSans-115"/>
      <use x="254.003906" xlink:href="#DejaVuSans-105"/>
      <use x="281.787109" xlink:href="#DejaVuSans-116"/>
      <use x="320.996094" xlink:href="#DejaVuSans-121"/>
     </g>
    </g>
   </g>
   <g id="patch_12">
    <path d="M 62.85525 351.053333 
L 62.85525 218.386667 
" style="fill:none;stroke:#000000;stroke-linecap:square;stroke-linejoin:miter;stroke-width:0.8;"/>
   </g>
   <g id="patch_13">
    <path d="M 842.31775 351.053333 
L 842.31775 218.386667 
" style="fill:none;stroke:#000000;stroke-linecap:square;stroke-linejoin:miter;stroke-width:0.8;"/>
   </g>
   <g id="patch_14">
    <path d="M 62.85525 351.053333 
L 842.31775 351.053333 
" style="fill:none;stroke:#000000;stroke-linecap:square;stroke-linejoin:miter;stroke-width:0.8;"/>
   </g>
   <g id="patch_15">
    <path d="M 62.85525 218.386667 
L 842.31775 218.386667 
" style="fill:none;stroke:#000000;stroke-linecap:square;stroke-linejoin:miter;stroke-width:0.8;"/>
   </g>
   <g id="legend_2">
    <g id="patch_16">
     <path d="M 71.25525 245.626667 
L 195.57525 245.626667 
Q 197.97525 245.626667 197.97525 243.226667 
L 197.97525 226.786667 
Q 197.97525 224.386667 195.57525 224.386667 
L 71.25525 224.386667 
Q 68.85525 224.386667 68.85525 226.786667 
L 68.85525 243.226667 
Q 68.85525 245.626667 71.25525 245.626667 
z
" style="fill:#ffffff;opacity:0.8;stroke:#cccccc;stroke-linejoin:miter;"/>
    </g>
    <g id="patch_17">
     <path d="M 73.65525 238.306667 
L 97.65525 238.306667 
L 97.65525 229.906667 
L 73.65525 229.906667 
z
" style="fill:#7a68a6;opacity:0.85;"/>
    </g>
    <g id="text_24">
     <!-- posterior of $\lambda_2$ -->
     <g transform="translate(107.25525 238.306667)scale(0.12 -0.12)">
      <use transform="translate(0 0.015625)" xlink:href="#DejaVuSans-112"/>
      <use transform="translate(63.476562 0.015625)" xlink:href="#DejaVuSans-111"/>
      <use transform="translate(124.658203 0.015625)" xlink:href="#DejaVuSans-115"/>
      <use transform="translate(176.757812 0.015625)" xlink:href="#DejaVuSans-116"/>
      <use transform="translate(215.966797 0.015625)" xlink:href="#DejaVuSans-101"/>
      <use transform="translate(277.490234 0.015625)" xlink:href="#DejaVuSans-114"/>
      <use transform="translate(318.603516 0.015625)" xlink:href="#DejaVuSans-105"/>
      <use transform="translate(346.386719 0.015625)" xlink:href="#DejaVuSans-111"/>
      <use transform="translate(407.568359 0.015625)" xlink:href="#DejaVuSans-114"/>
      <use transform="translate(448.681641 0.015625)" xlink:href="#DejaVuSans-32"/>
      <use transform="translate(480.46875 0.015625)" xlink:href="#DejaVuSans-111"/>
      <use transform="translate(541.650391 0.015625)" xlink:href="#DejaVuSans-102"/>
      <use transform="translate(576.855469 0.015625)" xlink:href="#DejaVuSans-32"/>
      <use transform="translate(608.642578 0.015625)" xlink:href="#DejaVuSans-Oblique-955"/>
      <use transform="translate(667.822266 -16.390625)scale(0.7)" xlink:href="#DejaVuSans-50"/>
     </g>
    </g>
   </g>
  </g>
  <g id="axes_3">
   <g id="patch_18">
    <path d="M 62.85525 539.92 
L 842.31775 539.92 
L 842.31775 407.253333 
L 62.85525 407.253333 
z
" style="fill:#ffffff;"/>
   </g>
   <g id="patch_19">
    <path clip-path="url(#p053d3e2ca3)" d="M 422.319177 539.92 
L 422.319177 539.92 
L 422.319177 539.92 
L 422.319177 539.92 
z
" style="fill:#467821;stroke:#467821;stroke-linejoin:miter;stroke-width:2;"/>
   </g>
   <g id="patch_20">
    <path clip-path="url(#p053d3e2ca3)" d="M 422.409393 539.92 
L 422.409393 539.92 
L 422.409393 539.92 
L 422.409393 539.92 
z
" style="fill:#467821;stroke:#467821;stroke-linejoin:miter;stroke-width:2;"/>
   </g>
   <g id="patch_21">
    <path clip-path="url(#p053d3e2ca3)" d="M 422.499608 539.92 
L 422.499608 539.92 
L 422.499608 539.92 
L 422.499608 539.92 
z
" style="fill:#467821;stroke:#467821;stroke-linejoin:miter;stroke-width:2;"/>
   </g>
   <g id="patch_22">
    <path clip-path="url(#p053d3e2ca3)" d="M 422.589824 539.92 
L 422.589824 539.92 
L 422.589824 539.92 
L 422.589824 539.92 
z
" style="fill:#467821;stroke:#467821;stroke-linejoin:miter;stroke-width:2;"/>
   </g>
   <g id="patch_23">
    <path clip-path="url(#p053d3e2ca3)" d="M 422.680039 539.92 
L 422.680039 539.92 
L 422.680039 539.92 
L 422.680039 539.92 
z
" style="fill:#467821;stroke:#467821;stroke-linejoin:miter;stroke-width:2;"/>
   </g>
   <g id="patch_24">
    <path clip-path="url(#p053d3e2ca3)" d="M 422.770255 539.92 
L 422.770255 539.92 
L 422.770255 539.92 
L 422.770255 539.92 
z
" style="fill:#467821;stroke:#467821;stroke-linejoin:miter;stroke-width:2;"/>
   </g>
   <g id="patch_25">
    <path clip-path="url(#p053d3e2ca3)" d="M 422.860471 539.92 
L 422.860471 539.92 
L 422.860471 539.92 
L 422.860471 539.92 
z
" style="fill:#467821;stroke:#467821;stroke-linejoin:miter;stroke-width:2;"/>
   </g>
   <g id="patch_26">
    <path clip-path="url(#p053d3e2ca3)" d="M 422.950686 539.92 
L 422.950686 539.92 
L 422.950686 539.92 
L 422.950686 539.92 
z
" style="fill:#467821;stroke:#467821;stroke-linejoin:miter;stroke-width:2;"/>
   </g>
   <g id="patch_27">
    <path clip-path="url(#p053d3e2ca3)" d="M 423.040902 539.92 
L 423.040902 539.92 
L 423.040902 539.92 
L 423.040902 539.92 
z
" style="fill:#467821;stroke:#467821;stroke-linejoin:miter;stroke-width:2;"/>
   </g>
   <g id="patch_28">
    <path clip-path="url(#p053d3e2ca3)" d="M 423.131117 539.92 
L 423.131117 539.92 
L 423.131117 539.92 
L 423.131117 539.92 
z
" style="fill:#467821;stroke:#467821;stroke-linejoin:miter;stroke-width:2;"/>
   </g>
   <g id="patch_29">
    <path clip-path="url(#p053d3e2ca3)" d="M 423.221333 539.92 
L 423.221333 539.92 
L 423.221333 539.92 
L 423.221333 539.92 
z
" style="fill:#467821;stroke:#467821;stroke-linejoin:miter;stroke-width:2;"/>
   </g>
   <g id="patch_30">
    <path clip-path="url(#p053d3e2ca3)" d="M 423.311548 539.92 
L 423.311548 539.92 
L 423.311548 539.92 
L 423.311548 539.92 
z
" style="fill:#467821;stroke:#467821;stroke-linejoin:miter;stroke-width:2;"/>
   </g>
   <g id="patch_31">
    <path clip-path="url(#p053d3e2ca3)" d="M 423.401764 539.92 
L 423.401764 539.92 
L 423.401764 539.92 
L 423.401764 539.92 
z
" style="fill:#467821;stroke:#467821;stroke-linejoin:miter;stroke-width:2;"/>
   </g>
   <g id="patch_32">
    <path clip-path="url(#p053d3e2ca3)" d="M 423.49198 539.92 
L 423.49198 539.92 
L 423.49198 539.92 
L 423.49198 539.92 
z
" style="fill:#467821;stroke:#467821;stroke-linejoin:miter;stroke-width:2;"/>
   </g>
   <g id="patch_33">
    <path clip-path="url(#p053d3e2ca3)" d="M 423.582195 539.92 
L 423.582195 539.92 
L 423.582195 539.92 
L 423.582195 539.92 
z
" style="fill:#467821;stroke:#467821;stroke-linejoin:miter;stroke-width:2;"/>
   </g>
   <g id="patch_34">
    <path clip-path="url(#p053d3e2ca3)" d="M 423.672411 539.92 
L 423.672411 539.92 
L 423.672411 539.92 
L 423.672411 539.92 
z
" style="fill:#467821;stroke:#467821;stroke-linejoin:miter;stroke-width:2;"/>
   </g>
   <g id="patch_35">
    <path clip-path="url(#p053d3e2ca3)" d="M 423.762626 539.92 
L 423.762626 539.92 
L 423.762626 539.92 
L 423.762626 539.92 
z
" style="fill:#467821;stroke:#467821;stroke-linejoin:miter;stroke-width:2;"/>
   </g>
   <g id="patch_36">
    <path clip-path="url(#p053d3e2ca3)" d="M 423.852842 539.92 
L 423.852842 539.92 
L 423.852842 539.92 
L 423.852842 539.92 
z
" style="fill:#467821;stroke:#467821;stroke-linejoin:miter;stroke-width:2;"/>
   </g>
   <g id="patch_37">
    <path clip-path="url(#p053d3e2ca3)" d="M 423.943057 539.92 
L 423.943057 539.92 
L 423.943057 539.92 
L 423.943057 539.92 
z
" style="fill:#467821;stroke:#467821;stroke-linejoin:miter;stroke-width:2;"/>
   </g>
   <g id="patch_38">
    <path clip-path="url(#p053d3e2ca3)" d="M 424.033273 539.92 
L 424.033273 539.92 
L 424.033273 539.92 
L 424.033273 539.92 
z
" style="fill:#467821;stroke:#467821;stroke-linejoin:miter;stroke-width:2;"/>
   </g>
   <g id="patch_39">
    <path clip-path="url(#p053d3e2ca3)" d="M 424.123489 539.92 
L 424.123489 539.92 
L 424.123489 539.92 
L 424.123489 539.92 
z
" style="fill:#467821;stroke:#467821;stroke-linejoin:miter;stroke-width:2;"/>
   </g>
   <g id="patch_40">
    <path clip-path="url(#p053d3e2ca3)" d="M 424.213704 539.92 
L 424.213704 539.92 
L 424.213704 539.92 
L 424.213704 539.92 
z
" style="fill:#467821;stroke:#467821;stroke-linejoin:miter;stroke-width:2;"/>
   </g>
   <g id="patch_41">
    <path clip-path="url(#p053d3e2ca3)" d="M 424.30392 539.92 
L 424.30392 539.92 
L 424.30392 539.92 
L 424.30392 539.92 
z
" style="fill:#467821;stroke:#467821;stroke-linejoin:miter;stroke-width:2;"/>
   </g>
   <g id="patch_42">
    <path clip-path="url(#p053d3e2ca3)" d="M 424.394135 539.92 
L 424.394135 539.92 
L 424.394135 539.92 
L 424.394135 539.92 
z
" style="fill:#467821;stroke:#467821;stroke-linejoin:miter;stroke-width:2;"/>
   </g>
   <g id="patch_43">
    <path clip-path="url(#p053d3e2ca3)" d="M 424.484351 539.92 
L 424.484351 539.92 
L 424.484351 539.92 
L 424.484351 539.92 
z
" style="fill:#467821;stroke:#467821;stroke-linejoin:miter;stroke-width:2;"/>
   </g>
   <g id="patch_44">
    <path clip-path="url(#p053d3e2ca3)" d="M 424.574566 539.92 
L 424.574566 539.92 
L 424.574566 539.92 
L 424.574566 539.92 
z
" style="fill:#467821;stroke:#467821;stroke-linejoin:miter;stroke-width:2;"/>
   </g>
   <g id="patch_45">
    <path clip-path="url(#p053d3e2ca3)" d="M 424.664782 539.92 
L 424.664782 539.92 
L 424.664782 539.92 
L 424.664782 539.92 
z
" style="fill:#467821;stroke:#467821;stroke-linejoin:miter;stroke-width:2;"/>
   </g>
   <g id="patch_46">
    <path clip-path="url(#p053d3e2ca3)" d="M 424.754998 539.92 
L 424.754998 539.92 
L 424.754998 539.92 
L 424.754998 539.92 
z
" style="fill:#467821;stroke:#467821;stroke-linejoin:miter;stroke-width:2;"/>
   </g>
   <g id="patch_47">
    <path clip-path="url(#p053d3e2ca3)" d="M 424.845213 539.92 
L 424.845213 539.92 
L 424.845213 539.92 
L 424.845213 539.92 
z
" style="fill:#467821;stroke:#467821;stroke-linejoin:miter;stroke-width:2;"/>
   </g>
   <g id="patch_48">
    <path clip-path="url(#p053d3e2ca3)" d="M 424.935429 539.92 
L 424.935429 539.92 
L 424.935429 539.92 
L 424.935429 539.92 
z
" style="fill:#467821;stroke:#467821;stroke-linejoin:miter;stroke-width:2;"/>
   </g>
   <g id="patch_49">
    <path clip-path="url(#p053d3e2ca3)" d="M 425.025644 539.92 
L 425.025644 539.92 
L 425.025644 539.92 
L 425.025644 539.92 
z
" style="fill:#467821;stroke:#467821;stroke-linejoin:miter;stroke-width:2;"/>
   </g>
   <g id="patch_50">
    <path clip-path="url(#p053d3e2ca3)" d="M 425.11586 539.92 
L 425.11586 539.92 
L 425.11586 539.92 
L 425.11586 539.92 
z
" style="fill:#467821;stroke:#467821;stroke-linejoin:miter;stroke-width:2;"/>
   </g>
   <g id="patch_51">
    <path clip-path="url(#p053d3e2ca3)" d="M 425.206075 539.92 
L 425.206075 539.92 
L 425.206075 539.92 
L 425.206075 539.92 
z
" style="fill:#467821;stroke:#467821;stroke-linejoin:miter;stroke-width:2;"/>
   </g>
   <g id="patch_52">
    <path clip-path="url(#p053d3e2ca3)" d="M 425.296291 539.92 
L 425.296291 539.92 
L 425.296291 539.92 
L 425.296291 539.92 
z
" style="fill:#467821;stroke:#467821;stroke-linejoin:miter;stroke-width:2;"/>
   </g>
   <g id="patch_53">
    <path clip-path="url(#p053d3e2ca3)" d="M 425.386507 539.92 
L 425.386507 539.92 
L 425.386507 539.92 
L 425.386507 539.92 
z
" style="fill:#467821;stroke:#467821;stroke-linejoin:miter;stroke-width:2;"/>
   </g>
   <g id="patch_54">
    <path clip-path="url(#p053d3e2ca3)" d="M 425.476722 539.92 
L 425.476722 539.92 
L 425.476722 539.92 
L 425.476722 539.92 
z
" style="fill:#467821;stroke:#467821;stroke-linejoin:miter;stroke-width:2;"/>
   </g>
   <g id="patch_55">
    <path clip-path="url(#p053d3e2ca3)" d="M 425.566938 539.92 
L 425.566938 539.92 
L 425.566938 539.92 
L 425.566938 539.92 
z
" style="fill:#467821;stroke:#467821;stroke-linejoin:miter;stroke-width:2;"/>
   </g>
   <g id="patch_56">
    <path clip-path="url(#p053d3e2ca3)" d="M 425.657153 539.92 
L 425.657153 539.92 
L 425.657153 539.92 
L 425.657153 539.92 
z
" style="fill:#467821;stroke:#467821;stroke-linejoin:miter;stroke-width:2;"/>
   </g>
   <g id="patch_57">
    <path clip-path="url(#p053d3e2ca3)" d="M 425.747369 539.92 
L 425.747369 539.92 
L 425.747369 539.92 
L 425.747369 539.92 
z
" style="fill:#467821;stroke:#467821;stroke-linejoin:miter;stroke-width:2;"/>
   </g>
   <g id="patch_58">
    <path clip-path="url(#p053d3e2ca3)" d="M 425.837584 539.92 
L 425.837584 539.92 
L 425.837584 539.92 
L 425.837584 539.92 
z
" style="fill:#467821;stroke:#467821;stroke-linejoin:miter;stroke-width:2;"/>
   </g>
   <g id="patch_59">
    <path clip-path="url(#p053d3e2ca3)" d="M 425.9278 539.92 
L 425.9278 539.92 
L 425.9278 539.92 
L 425.9278 539.92 
z
" style="fill:#467821;stroke:#467821;stroke-linejoin:miter;stroke-width:2;"/>
   </g>
   <g id="patch_60">
    <path clip-path="url(#p053d3e2ca3)" d="M 426.018015 539.92 
L 426.018015 539.92 
L 426.018015 539.92 
L 426.018015 539.92 
z
" style="fill:#467821;stroke:#467821;stroke-linejoin:miter;stroke-width:2;"/>
   </g>
   <g id="patch_61">
    <path clip-path="url(#p053d3e2ca3)" d="M 426.108231 539.92 
L 426.108231 539.92 
L 426.108231 539.92 
L 426.108231 539.92 
z
" style="fill:#467821;stroke:#467821;stroke-linejoin:miter;stroke-width:2;"/>
   </g>
   <g id="patch_62">
    <path clip-path="url(#p053d3e2ca3)" d="M 426.198447 539.92 
L 426.198447 539.92 
L 426.198447 539.92 
L 426.198447 539.92 
z
" style="fill:#467821;stroke:#467821;stroke-linejoin:miter;stroke-width:2;"/>
   </g>
   <g id="patch_63">
    <path clip-path="url(#p053d3e2ca3)" d="M 426.288662 539.92 
L 426.288662 539.92 
L 426.288662 539.92 
L 426.288662 539.92 
z
" style="fill:#467821;stroke:#467821;stroke-linejoin:miter;stroke-width:2;"/>
   </g>
   <g id="patch_64">
    <path clip-path="url(#p053d3e2ca3)" d="M 426.378878 539.92 
L 426.378878 539.92 
L 426.378878 539.92 
L 426.378878 539.92 
z
" style="fill:#467821;stroke:#467821;stroke-linejoin:miter;stroke-width:2;"/>
   </g>
   <g id="patch_65">
    <path clip-path="url(#p053d3e2ca3)" d="M 426.469093 539.92 
L 426.469093 539.92 
L 426.469093 539.92 
L 426.469093 539.92 
z
" style="fill:#467821;stroke:#467821;stroke-linejoin:miter;stroke-width:2;"/>
   </g>
   <g id="patch_66">
    <path clip-path="url(#p053d3e2ca3)" d="M 426.559309 539.92 
L 426.559309 539.92 
L 426.559309 539.92 
L 426.559309 539.92 
z
" style="fill:#467821;stroke:#467821;stroke-linejoin:miter;stroke-width:2;"/>
   </g>
   <g id="patch_67">
    <path clip-path="url(#p053d3e2ca3)" d="M 426.649524 539.92 
L 426.649524 539.92 
L 426.649524 413.570794 
L 426.649524 413.570794 
z
" style="fill:#467821;stroke:#467821;stroke-linejoin:miter;stroke-width:2;"/>
   </g>
   <g id="patch_68">
    <path clip-path="url(#p053d3e2ca3)" d="M 426.73974 539.92 
L 426.73974 539.92 
L 426.73974 539.92 
L 426.73974 539.92 
z
" style="fill:#467821;stroke:#467821;stroke-linejoin:miter;stroke-width:2;"/>
   </g>
   <g id="patch_69">
    <path clip-path="url(#p053d3e2ca3)" d="M 426.829956 539.92 
L 426.829956 539.92 
L 426.829956 539.92 
L 426.829956 539.92 
z
" style="fill:#467821;stroke:#467821;stroke-linejoin:miter;stroke-width:2;"/>
   </g>
   <g id="patch_70">
    <path clip-path="url(#p053d3e2ca3)" d="M 426.920171 539.92 
L 426.920171 539.92 
L 426.920171 539.92 
L 426.920171 539.92 
z
" style="fill:#467821;stroke:#467821;stroke-linejoin:miter;stroke-width:2;"/>
   </g>
   <g id="patch_71">
    <path clip-path="url(#p053d3e2ca3)" d="M 427.010387 539.92 
L 427.010387 539.92 
L 427.010387 539.92 
L 427.010387 539.92 
z
" style="fill:#467821;stroke:#467821;stroke-linejoin:miter;stroke-width:2;"/>
   </g>
   <g id="patch_72">
    <path clip-path="url(#p053d3e2ca3)" d="M 427.100602 539.92 
L 427.100602 539.92 
L 427.100602 539.92 
L 427.100602 539.92 
z
" style="fill:#467821;stroke:#467821;stroke-linejoin:miter;stroke-width:2;"/>
   </g>
   <g id="patch_73">
    <path clip-path="url(#p053d3e2ca3)" d="M 427.190818 539.92 
L 427.190818 539.92 
L 427.190818 539.92 
L 427.190818 539.92 
z
" style="fill:#467821;stroke:#467821;stroke-linejoin:miter;stroke-width:2;"/>
   </g>
   <g id="patch_74">
    <path clip-path="url(#p053d3e2ca3)" d="M 427.281033 539.92 
L 427.281033 539.92 
L 427.281033 539.92 
L 427.281033 539.92 
z
" style="fill:#467821;stroke:#467821;stroke-linejoin:miter;stroke-width:2;"/>
   </g>
   <g id="patch_75">
    <path clip-path="url(#p053d3e2ca3)" d="M 427.371249 539.92 
L 427.371249 539.92 
L 427.371249 539.92 
L 427.371249 539.92 
z
" style="fill:#467821;stroke:#467821;stroke-linejoin:miter;stroke-width:2;"/>
   </g>
   <g id="patch_76">
    <path clip-path="url(#p053d3e2ca3)" d="M 427.461465 539.92 
L 427.461465 539.92 
L 427.461465 539.92 
L 427.461465 539.92 
z
" style="fill:#467821;stroke:#467821;stroke-linejoin:miter;stroke-width:2;"/>
   </g>
   <g id="patch_77">
    <path clip-path="url(#p053d3e2ca3)" d="M 427.55168 539.92 
L 427.55168 539.92 
L 427.55168 539.92 
L 427.55168 539.92 
z
" style="fill:#467821;stroke:#467821;stroke-linejoin:miter;stroke-width:2;"/>
   </g>
   <g id="patch_78">
    <path clip-path="url(#p053d3e2ca3)" d="M 427.641896 539.92 
L 427.641896 539.92 
L 427.641896 539.92 
L 427.641896 539.92 
z
" style="fill:#467821;stroke:#467821;stroke-linejoin:miter;stroke-width:2;"/>
   </g>
   <g id="patch_79">
    <path clip-path="url(#p053d3e2ca3)" d="M 427.732111 539.92 
L 427.732111 539.92 
L 427.732111 539.92 
L 427.732111 539.92 
z
" style="fill:#467821;stroke:#467821;stroke-linejoin:miter;stroke-width:2;"/>
   </g>
   <g id="patch_80">
    <path clip-path="url(#p053d3e2ca3)" d="M 427.822327 539.92 
L 427.822327 539.92 
L 427.822327 539.92 
L 427.822327 539.92 
z
" style="fill:#467821;stroke:#467821;stroke-linejoin:miter;stroke-width:2;"/>
   </g>
   <g id="patch_81">
    <path clip-path="url(#p053d3e2ca3)" d="M 427.912542 539.92 
L 427.912542 539.92 
L 427.912542 539.92 
L 427.912542 539.92 
z
" style="fill:#467821;stroke:#467821;stroke-linejoin:miter;stroke-width:2;"/>
   </g>
   <g id="patch_82">
    <path clip-path="url(#p053d3e2ca3)" d="M 428.002758 539.92 
L 428.002758 539.92 
L 428.002758 539.92 
L 428.002758 539.92 
z
" style="fill:#467821;stroke:#467821;stroke-linejoin:miter;stroke-width:2;"/>
   </g>
   <g id="patch_83">
    <path clip-path="url(#p053d3e2ca3)" d="M 428.092974 539.92 
L 428.092974 539.92 
L 428.092974 539.92 
L 428.092974 539.92 
z
" style="fill:#467821;stroke:#467821;stroke-linejoin:miter;stroke-width:2;"/>
   </g>
   <g id="patch_84">
    <path clip-path="url(#p053d3e2ca3)" d="M 428.183189 539.92 
L 428.183189 539.92 
L 428.183189 539.92 
L 428.183189 539.92 
z
" style="fill:#467821;stroke:#467821;stroke-linejoin:miter;stroke-width:2;"/>
   </g>
   <g id="patch_85">
    <path clip-path="url(#p053d3e2ca3)" d="M 428.273405 539.92 
L 428.273405 539.92 
L 428.273405 539.92 
L 428.273405 539.92 
z
" style="fill:#467821;stroke:#467821;stroke-linejoin:miter;stroke-width:2;"/>
   </g>
   <g id="patch_86">
    <path clip-path="url(#p053d3e2ca3)" d="M 428.36362 539.92 
L 428.36362 539.92 
L 428.36362 539.92 
L 428.36362 539.92 
z
" style="fill:#467821;stroke:#467821;stroke-linejoin:miter;stroke-width:2;"/>
   </g>
   <g id="patch_87">
    <path clip-path="url(#p053d3e2ca3)" d="M 428.453836 539.92 
L 428.453836 539.92 
L 428.453836 539.92 
L 428.453836 539.92 
z
" style="fill:#467821;stroke:#467821;stroke-linejoin:miter;stroke-width:2;"/>
   </g>
   <g id="patch_88">
    <path clip-path="url(#p053d3e2ca3)" d="M 428.544051 539.92 
L 428.544051 539.92 
L 428.544051 539.92 
L 428.544051 539.92 
z
" style="fill:#467821;stroke:#467821;stroke-linejoin:miter;stroke-width:2;"/>
   </g>
   <g id="patch_89">
    <path clip-path="url(#p053d3e2ca3)" d="M 428.634267 539.92 
L 428.634267 539.92 
L 428.634267 539.92 
L 428.634267 539.92 
z
" style="fill:#467821;stroke:#467821;stroke-linejoin:miter;stroke-width:2;"/>
   </g>
   <g id="patch_90">
    <path clip-path="url(#p053d3e2ca3)" d="M 428.724482 539.92 
L 428.724482 539.92 
L 428.724482 539.92 
L 428.724482 539.92 
z
" style="fill:#467821;stroke:#467821;stroke-linejoin:miter;stroke-width:2;"/>
   </g>
   <g id="patch_91">
    <path clip-path="url(#p053d3e2ca3)" d="M 428.814698 539.92 
L 428.814698 539.92 
L 428.814698 539.92 
L 428.814698 539.92 
z
" style="fill:#467821;stroke:#467821;stroke-linejoin:miter;stroke-width:2;"/>
   </g>
   <g id="patch_92">
    <path clip-path="url(#p053d3e2ca3)" d="M 428.904914 539.92 
L 428.904914 539.92 
L 428.904914 539.92 
L 428.904914 539.92 
z
" style="fill:#467821;stroke:#467821;stroke-linejoin:miter;stroke-width:2;"/>
   </g>
   <g id="patch_93">
    <path clip-path="url(#p053d3e2ca3)" d="M 428.995129 539.92 
L 428.995129 539.92 
L 428.995129 539.92 
L 428.995129 539.92 
z
" style="fill:#467821;stroke:#467821;stroke-linejoin:miter;stroke-width:2;"/>
   </g>
   <g id="patch_94">
    <path clip-path="url(#p053d3e2ca3)" d="M 429.085345 539.92 
L 429.085345 539.92 
L 429.085345 539.92 
L 429.085345 539.92 
z
" style="fill:#467821;stroke:#467821;stroke-linejoin:miter;stroke-width:2;"/>
   </g>
   <g id="patch_95">
    <path clip-path="url(#p053d3e2ca3)" d="M 429.17556 539.92 
L 429.17556 539.92 
L 429.17556 539.92 
L 429.17556 539.92 
z
" style="fill:#467821;stroke:#467821;stroke-linejoin:miter;stroke-width:2;"/>
   </g>
   <g id="patch_96">
    <path clip-path="url(#p053d3e2ca3)" d="M 429.265776 539.92 
L 429.265776 539.92 
L 429.265776 539.92 
L 429.265776 539.92 
z
" style="fill:#467821;stroke:#467821;stroke-linejoin:miter;stroke-width:2;"/>
   </g>
   <g id="patch_97">
    <path clip-path="url(#p053d3e2ca3)" d="M 429.355991 539.92 
L 429.355991 539.92 
L 429.355991 539.92 
L 429.355991 539.92 
z
" style="fill:#467821;stroke:#467821;stroke-linejoin:miter;stroke-width:2;"/>
   </g>
   <g id="patch_98">
    <path clip-path="url(#p053d3e2ca3)" d="M 429.446207 539.92 
L 429.446207 539.92 
L 429.446207 539.92 
L 429.446207 539.92 
z
" style="fill:#467821;stroke:#467821;stroke-linejoin:miter;stroke-width:2;"/>
   </g>
   <g id="patch_99">
    <path clip-path="url(#p053d3e2ca3)" d="M 429.536423 539.92 
L 429.536423 539.92 
L 429.536423 539.92 
L 429.536423 539.92 
z
" style="fill:#467821;stroke:#467821;stroke-linejoin:miter;stroke-width:2;"/>
   </g>
   <g id="patch_100">
    <path clip-path="url(#p053d3e2ca3)" d="M 429.626638 539.92 
L 429.626638 539.92 
L 429.626638 539.92 
L 429.626638 539.92 
z
" style="fill:#467821;stroke:#467821;stroke-linejoin:miter;stroke-width:2;"/>
   </g>
   <g id="patch_101">
    <path clip-path="url(#p053d3e2ca3)" d="M 429.716854 539.92 
L 429.716854 539.92 
L 429.716854 539.92 
L 429.716854 539.92 
z
" style="fill:#467821;stroke:#467821;stroke-linejoin:miter;stroke-width:2;"/>
   </g>
   <g id="patch_102">
    <path clip-path="url(#p053d3e2ca3)" d="M 429.807069 539.92 
L 429.807069 539.92 
L 429.807069 539.92 
L 429.807069 539.92 
z
" style="fill:#467821;stroke:#467821;stroke-linejoin:miter;stroke-width:2;"/>
   </g>
   <g id="patch_103">
    <path clip-path="url(#p053d3e2ca3)" d="M 429.897285 539.92 
L 429.897285 539.92 
L 429.897285 539.92 
L 429.897285 539.92 
z
" style="fill:#467821;stroke:#467821;stroke-linejoin:miter;stroke-width:2;"/>
   </g>
   <g id="patch_104">
    <path clip-path="url(#p053d3e2ca3)" d="M 429.9875 539.92 
L 429.9875 539.92 
L 429.9875 539.92 
L 429.9875 539.92 
z
" style="fill:#467821;stroke:#467821;stroke-linejoin:miter;stroke-width:2;"/>
   </g>
   <g id="patch_105">
    <path clip-path="url(#p053d3e2ca3)" d="M 430.077716 539.92 
L 430.077716 539.92 
L 430.077716 539.92 
L 430.077716 539.92 
z
" style="fill:#467821;stroke:#467821;stroke-linejoin:miter;stroke-width:2;"/>
   </g>
   <g id="patch_106">
    <path clip-path="url(#p053d3e2ca3)" d="M 430.167932 539.92 
L 430.167932 539.92 
L 430.167932 539.92 
L 430.167932 539.92 
z
" style="fill:#467821;stroke:#467821;stroke-linejoin:miter;stroke-width:2;"/>
   </g>
   <g id="patch_107">
    <path clip-path="url(#p053d3e2ca3)" d="M 430.258147 539.92 
L 430.258147 539.92 
L 430.258147 539.92 
L 430.258147 539.92 
z
" style="fill:#467821;stroke:#467821;stroke-linejoin:miter;stroke-width:2;"/>
   </g>
   <g id="patch_108">
    <path clip-path="url(#p053d3e2ca3)" d="M 430.348363 539.92 
L 430.348363 539.92 
L 430.348363 539.92 
L 430.348363 539.92 
z
" style="fill:#467821;stroke:#467821;stroke-linejoin:miter;stroke-width:2;"/>
   </g>
   <g id="patch_109">
    <path clip-path="url(#p053d3e2ca3)" d="M 430.438578 539.92 
L 430.438578 539.92 
L 430.438578 539.92 
L 430.438578 539.92 
z
" style="fill:#467821;stroke:#467821;stroke-linejoin:miter;stroke-width:2;"/>
   </g>
   <g id="patch_110">
    <path clip-path="url(#p053d3e2ca3)" d="M 430.528794 539.92 
L 430.528794 539.92 
L 430.528794 539.92 
L 430.528794 539.92 
z
" style="fill:#467821;stroke:#467821;stroke-linejoin:miter;stroke-width:2;"/>
   </g>
   <g id="patch_111">
    <path clip-path="url(#p053d3e2ca3)" d="M 430.619009 539.92 
L 430.619009 539.92 
L 430.619009 539.92 
L 430.619009 539.92 
z
" style="fill:#467821;stroke:#467821;stroke-linejoin:miter;stroke-width:2;"/>
   </g>
   <g id="patch_112">
    <path clip-path="url(#p053d3e2ca3)" d="M 430.709225 539.92 
L 430.709225 539.92 
L 430.709225 539.92 
L 430.709225 539.92 
z
" style="fill:#467821;stroke:#467821;stroke-linejoin:miter;stroke-width:2;"/>
   </g>
   <g id="patch_113">
    <path clip-path="url(#p053d3e2ca3)" d="M 430.799441 539.92 
L 430.799441 539.92 
L 430.799441 539.92 
L 430.799441 539.92 
z
" style="fill:#467821;stroke:#467821;stroke-linejoin:miter;stroke-width:2;"/>
   </g>
   <g id="patch_114">
    <path clip-path="url(#p053d3e2ca3)" d="M 430.889656 539.92 
L 430.889656 539.92 
L 430.889656 539.92 
L 430.889656 539.92 
z
" style="fill:#467821;stroke:#467821;stroke-linejoin:miter;stroke-width:2;"/>
   </g>
   <g id="matplotlib.axis_5">
    <g id="xtick_12">
     <g id="line2d_37">
      <path clip-path="url(#p053d3e2ca3)" d="M 62.85525 539.92 
L 62.85525 407.253333 
" style="fill:none;stroke:#808080;stroke-dasharray:0.3,0.495;stroke-dashoffset:0;stroke-width:0.3;"/>
     </g>
     <g id="line2d_38">
      <g>
       <use style="stroke:#000000;stroke-width:0.8;" x="62.85525" xlink:href="#m928f0f66e9" y="539.92"/>
      </g>
     </g>
     <g id="text_25">
      <!-- 0 -->
      <g transform="translate(59.03775 556.038125)scale(0.12 -0.12)">
       <use xlink:href="#DejaVuSans-48"/>
      </g>
     </g>
    </g>
    <g id="xtick_13">
     <g id="line2d_39">
      <path clip-path="url(#p053d3e2ca3)" d="M 114.819417 539.92 
L 114.819417 407.253333 
" style="fill:none;stroke:#808080;stroke-dasharray:0.3,0.495;stroke-dashoffset:0;stroke-width:0.3;"/>
     </g>
     <g id="line2d_40">
      <g>
       <use style="stroke:#000000;stroke-width:0.8;" x="114.819417" xlink:href="#m928f0f66e9" y="539.92"/>
      </g>
     </g>
     <g id="text_26">
      <!-- 6 -->
      <g transform="translate(111.001917 556.038125)scale(0.12 -0.12)">
       <use xlink:href="#DejaVuSans-54"/>
      </g>
     </g>
    </g>
    <g id="xtick_14">
     <g id="line2d_41">
      <path clip-path="url(#p053d3e2ca3)" d="M 166.783583 539.92 
L 166.783583 407.253333 
" style="fill:none;stroke:#808080;stroke-dasharray:0.3,0.495;stroke-dashoffset:0;stroke-width:0.3;"/>
     </g>
     <g id="line2d_42">
      <g>
       <use style="stroke:#000000;stroke-width:0.8;" x="166.783583" xlink:href="#m928f0f66e9" y="539.92"/>
      </g>
     </g>
     <g id="text_27">
      <!-- 12 -->
      <g transform="translate(159.148583 556.038125)scale(0.12 -0.12)">
       <use xlink:href="#DejaVuSans-49"/>
       <use x="63.623047" xlink:href="#DejaVuSans-50"/>
      </g>
     </g>
    </g>
    <g id="xtick_15">
     <g id="line2d_43">
      <path clip-path="url(#p053d3e2ca3)" d="M 218.74775 539.92 
L 218.74775 407.253333 
" style="fill:none;stroke:#808080;stroke-dasharray:0.3,0.495;stroke-dashoffset:0;stroke-width:0.3;"/>
     </g>
     <g id="line2d_44">
      <g>
       <use style="stroke:#000000;stroke-width:0.8;" x="218.74775" xlink:href="#m928f0f66e9" y="539.92"/>
      </g>
     </g>
     <g id="text_28">
      <!-- 18 -->
      <g transform="translate(211.11275 556.038125)scale(0.12 -0.12)">
       <use xlink:href="#DejaVuSans-49"/>
       <use x="63.623047" xlink:href="#DejaVuSans-56"/>
      </g>
     </g>
    </g>
    <g id="xtick_16">
     <g id="line2d_45">
      <path clip-path="url(#p053d3e2ca3)" d="M 270.711917 539.92 
L 270.711917 407.253333 
" style="fill:none;stroke:#808080;stroke-dasharray:0.3,0.495;stroke-dashoffset:0;stroke-width:0.3;"/>
     </g>
     <g id="line2d_46">
      <g>
       <use style="stroke:#000000;stroke-width:0.8;" x="270.711917" xlink:href="#m928f0f66e9" y="539.92"/>
      </g>
     </g>
     <g id="text_29">
      <!-- 24 -->
      <g transform="translate(263.076917 556.038125)scale(0.12 -0.12)">
       <use xlink:href="#DejaVuSans-50"/>
       <use x="63.623047" xlink:href="#DejaVuSans-52"/>
      </g>
     </g>
    </g>
    <g id="xtick_17">
     <g id="line2d_47">
      <path clip-path="url(#p053d3e2ca3)" d="M 322.676083 539.92 
L 322.676083 407.253333 
" style="fill:none;stroke:#808080;stroke-dasharray:0.3,0.495;stroke-dashoffset:0;stroke-width:0.3;"/>
     </g>
     <g id="line2d_48">
      <g>
       <use style="stroke:#000000;stroke-width:0.8;" x="322.676083" xlink:href="#m928f0f66e9" y="539.92"/>
      </g>
     </g>
     <g id="text_30">
      <!-- 30 -->
      <g transform="translate(315.041083 556.038125)scale(0.12 -0.12)">
       <use xlink:href="#DejaVuSans-51"/>
       <use x="63.623047" xlink:href="#DejaVuSans-48"/>
      </g>
     </g>
    </g>
    <g id="xtick_18">
     <g id="line2d_49">
      <path clip-path="url(#p053d3e2ca3)" d="M 374.64025 539.92 
L 374.64025 407.253333 
" style="fill:none;stroke:#808080;stroke-dasharray:0.3,0.495;stroke-dashoffset:0;stroke-width:0.3;"/>
     </g>
     <g id="line2d_50">
      <g>
       <use style="stroke:#000000;stroke-width:0.8;" x="374.64025" xlink:href="#m928f0f66e9" y="539.92"/>
      </g>
     </g>
     <g id="text_31">
      <!-- 36 -->
      <g transform="translate(367.00525 556.038125)scale(0.12 -0.12)">
       <use xlink:href="#DejaVuSans-51"/>
       <use x="63.623047" xlink:href="#DejaVuSans-54"/>
      </g>
     </g>
    </g>
    <g id="xtick_19">
     <g id="line2d_51">
      <path clip-path="url(#p053d3e2ca3)" d="M 426.604417 539.92 
L 426.604417 407.253333 
" style="fill:none;stroke:#808080;stroke-dasharray:0.3,0.495;stroke-dashoffset:0;stroke-width:0.3;"/>
     </g>
     <g id="line2d_52">
      <g>
       <use style="stroke:#000000;stroke-width:0.8;" x="426.604417" xlink:href="#m928f0f66e9" y="539.92"/>
      </g>
     </g>
     <g id="text_32">
      <!-- 42 -->
      <g transform="translate(418.969417 556.038125)scale(0.12 -0.12)">
       <use xlink:href="#DejaVuSans-52"/>
       <use x="63.623047" xlink:href="#DejaVuSans-50"/>
      </g>
     </g>
    </g>
    <g id="xtick_20">
     <g id="line2d_53">
      <path clip-path="url(#p053d3e2ca3)" d="M 478.568583 539.92 
L 478.568583 407.253333 
" style="fill:none;stroke:#808080;stroke-dasharray:0.3,0.495;stroke-dashoffset:0;stroke-width:0.3;"/>
     </g>
     <g id="line2d_54">
      <g>
       <use style="stroke:#000000;stroke-width:0.8;" x="478.568583" xlink:href="#m928f0f66e9" y="539.92"/>
      </g>
     </g>
     <g id="text_33">
      <!-- 48 -->
      <g transform="translate(470.933583 556.038125)scale(0.12 -0.12)">
       <use xlink:href="#DejaVuSans-52"/>
       <use x="63.623047" xlink:href="#DejaVuSans-56"/>
      </g>
     </g>
    </g>
    <g id="xtick_21">
     <g id="line2d_55">
      <path clip-path="url(#p053d3e2ca3)" d="M 530.53275 539.92 
L 530.53275 407.253333 
" style="fill:none;stroke:#808080;stroke-dasharray:0.3,0.495;stroke-dashoffset:0;stroke-width:0.3;"/>
     </g>
     <g id="line2d_56">
      <g>
       <use style="stroke:#000000;stroke-width:0.8;" x="530.53275" xlink:href="#m928f0f66e9" y="539.92"/>
      </g>
     </g>
     <g id="text_34">
      <!-- 54 -->
      <g transform="translate(522.89775 556.038125)scale(0.12 -0.12)">
       <use xlink:href="#DejaVuSans-53"/>
       <use x="63.623047" xlink:href="#DejaVuSans-52"/>
      </g>
     </g>
    </g>
    <g id="xtick_22">
     <g id="line2d_57">
      <path clip-path="url(#p053d3e2ca3)" d="M 582.496917 539.92 
L 582.496917 407.253333 
" style="fill:none;stroke:#808080;stroke-dasharray:0.3,0.495;stroke-dashoffset:0;stroke-width:0.3;"/>
     </g>
     <g id="line2d_58">
      <g>
       <use style="stroke:#000000;stroke-width:0.8;" x="582.496917" xlink:href="#m928f0f66e9" y="539.92"/>
      </g>
     </g>
     <g id="text_35">
      <!-- 60 -->
      <g transform="translate(574.861917 556.038125)scale(0.12 -0.12)">
       <use xlink:href="#DejaVuSans-54"/>
       <use x="63.623047" xlink:href="#DejaVuSans-48"/>
      </g>
     </g>
    </g>
    <g id="xtick_23">
     <g id="line2d_59">
      <path clip-path="url(#p053d3e2ca3)" d="M 634.461083 539.92 
L 634.461083 407.253333 
" style="fill:none;stroke:#808080;stroke-dasharray:0.3,0.495;stroke-dashoffset:0;stroke-width:0.3;"/>
     </g>
     <g id="line2d_60">
      <g>
       <use style="stroke:#000000;stroke-width:0.8;" x="634.461083" xlink:href="#m928f0f66e9" y="539.92"/>
      </g>
     </g>
     <g id="text_36">
      <!-- 66 -->
      <g transform="translate(626.826083 556.038125)scale(0.12 -0.12)">
       <use xlink:href="#DejaVuSans-54"/>
       <use x="63.623047" xlink:href="#DejaVuSans-54"/>
      </g>
     </g>
    </g>
    <g id="xtick_24">
     <g id="line2d_61">
      <path clip-path="url(#p053d3e2ca3)" d="M 686.42525 539.92 
L 686.42525 407.253333 
" style="fill:none;stroke:#808080;stroke-dasharray:0.3,0.495;stroke-dashoffset:0;stroke-width:0.3;"/>
     </g>
     <g id="line2d_62">
      <g>
       <use style="stroke:#000000;stroke-width:0.8;" x="686.42525" xlink:href="#m928f0f66e9" y="539.92"/>
      </g>
     </g>
     <g id="text_37">
      <!-- 72 -->
      <g transform="translate(678.79025 556.038125)scale(0.12 -0.12)">
       <use xlink:href="#DejaVuSans-55"/>
       <use x="63.623047" xlink:href="#DejaVuSans-50"/>
      </g>
     </g>
    </g>
    <g id="xtick_25">
     <g id="line2d_63">
      <path clip-path="url(#p053d3e2ca3)" d="M 738.389417 539.92 
L 738.389417 407.253333 
" style="fill:none;stroke:#808080;stroke-dasharray:0.3,0.495;stroke-dashoffset:0;stroke-width:0.3;"/>
     </g>
     <g id="line2d_64">
      <g>
       <use style="stroke:#000000;stroke-width:0.8;" x="738.389417" xlink:href="#m928f0f66e9" y="539.92"/>
      </g>
     </g>
     <g id="text_38">
      <!-- 78 -->
      <g transform="translate(730.754417 556.038125)scale(0.12 -0.12)">
       <use xlink:href="#DejaVuSans-55"/>
       <use x="63.623047" xlink:href="#DejaVuSans-56"/>
      </g>
     </g>
    </g>
    <g id="xtick_26">
     <g id="line2d_65">
      <path clip-path="url(#p053d3e2ca3)" d="M 790.353583 539.92 
L 790.353583 407.253333 
" style="fill:none;stroke:#808080;stroke-dasharray:0.3,0.495;stroke-dashoffset:0;stroke-width:0.3;"/>
     </g>
     <g id="line2d_66">
      <g>
       <use style="stroke:#000000;stroke-width:0.8;" x="790.353583" xlink:href="#m928f0f66e9" y="539.92"/>
      </g>
     </g>
     <g id="text_39">
      <!-- 84 -->
      <g transform="translate(782.718583 556.038125)scale(0.12 -0.12)">
       <use xlink:href="#DejaVuSans-56"/>
       <use x="63.623047" xlink:href="#DejaVuSans-52"/>
      </g>
     </g>
    </g>
    <g id="xtick_27">
     <g id="line2d_67">
      <path clip-path="url(#p053d3e2ca3)" d="M 842.31775 539.92 
L 842.31775 407.253333 
" style="fill:none;stroke:#808080;stroke-dasharray:0.3,0.495;stroke-dashoffset:0;stroke-width:0.3;"/>
     </g>
     <g id="line2d_68">
      <g>
       <use style="stroke:#000000;stroke-width:0.8;" x="842.31775" xlink:href="#m928f0f66e9" y="539.92"/>
      </g>
     </g>
     <g id="text_40">
      <!-- 90 -->
      <defs>
       <path d="M 10.984375 1.515625 
L 10.984375 10.5 
Q 14.703125 8.734375 18.5 7.8125 
Q 22.3125 6.890625 25.984375 6.890625 
Q 35.75 6.890625 40.890625 13.453125 
Q 46.046875 20.015625 46.78125 33.40625 
Q 43.953125 29.203125 39.59375 26.953125 
Q 35.25 24.703125 29.984375 24.703125 
Q 19.046875 24.703125 12.671875 31.3125 
Q 6.296875 37.9375 6.296875 49.421875 
Q 6.296875 60.640625 12.9375 67.421875 
Q 19.578125 74.21875 30.609375 74.21875 
Q 43.265625 74.21875 49.921875 64.515625 
Q 56.59375 54.828125 56.59375 36.375 
Q 56.59375 19.140625 48.40625 8.859375 
Q 40.234375 -1.421875 26.421875 -1.421875 
Q 22.703125 -1.421875 18.890625 -0.6875 
Q 15.09375 0.046875 10.984375 1.515625 
z
M 30.609375 32.421875 
Q 37.25 32.421875 41.125 36.953125 
Q 45.015625 41.5 45.015625 49.421875 
Q 45.015625 57.28125 41.125 61.84375 
Q 37.25 66.40625 30.609375 66.40625 
Q 23.96875 66.40625 20.09375 61.84375 
Q 16.21875 57.28125 16.21875 49.421875 
Q 16.21875 41.5 20.09375 36.953125 
Q 23.96875 32.421875 30.609375 32.421875 
z
" id="DejaVuSans-57"/>
      </defs>
      <g transform="translate(834.68275 556.038125)scale(0.12 -0.12)">
       <use xlink:href="#DejaVuSans-57"/>
       <use x="63.623047" xlink:href="#DejaVuSans-48"/>
      </g>
     </g>
    </g>
    <g id="text_41">
     <!-- $\tau$ (in hours) -->
     <defs>
      <path d="M 32.859375 9.96875 
Q 34.1875 7.625 39.453125 7.625 
L 43.75 7.625 
L 42.28125 0 
L 36.921875 0 
Q 28.125 0 25 4.6875 
Q 21.921875 9.46875 23.96875 19.828125 
L 29 45.703125 
L 8.453125 45.703125 
L 10.203125 54.6875 
L 60.640625 54.6875 
L 58.890625 45.703125 
L 38.1875 45.703125 
L 33.015625 19.28125 
Q 31.640625 12.203125 32.859375 9.96875 
z
" id="DejaVuSans-Oblique-964"/>
      <path d="M 31 75.875 
Q 24.46875 64.65625 21.28125 53.65625 
Q 18.109375 42.671875 18.109375 31.390625 
Q 18.109375 20.125 21.3125 9.0625 
Q 24.515625 -2 31 -13.1875 
L 23.1875 -13.1875 
Q 15.875 -1.703125 12.234375 9.375 
Q 8.59375 20.453125 8.59375 31.390625 
Q 8.59375 42.28125 12.203125 53.3125 
Q 15.828125 64.359375 23.1875 75.875 
z
" id="DejaVuSans-40"/>
      <path d="M 54.890625 33.015625 
L 54.890625 0 
L 45.90625 0 
L 45.90625 32.71875 
Q 45.90625 40.484375 42.875 44.328125 
Q 39.84375 48.1875 33.796875 48.1875 
Q 26.515625 48.1875 22.3125 43.546875 
Q 18.109375 38.921875 18.109375 30.90625 
L 18.109375 0 
L 9.078125 0 
L 9.078125 75.984375 
L 18.109375 75.984375 
L 18.109375 46.1875 
Q 21.34375 51.125 25.703125 53.5625 
Q 30.078125 56 35.796875 56 
Q 45.21875 56 50.046875 50.171875 
Q 54.890625 44.34375 54.890625 33.015625 
z
" id="DejaVuSans-104"/>
      <path d="M 8.015625 75.875 
L 15.828125 75.875 
Q 23.140625 64.359375 26.78125 53.3125 
Q 30.421875 42.28125 30.421875 31.390625 
Q 30.421875 20.453125 26.78125 9.375 
Q 23.140625 -1.703125 15.828125 -13.1875 
L 8.015625 -13.1875 
Q 14.5 -2 17.703125 9.0625 
Q 20.90625 20.125 20.90625 31.390625 
Q 20.90625 42.671875 17.703125 53.65625 
Q 14.5 64.65625 8.015625 75.875 
z
" id="DejaVuSans-41"/>
     </defs>
     <g transform="translate(411.1865 577.4755)scale(0.144 -0.144)">
      <use transform="translate(0 0.015625)" xlink:href="#DejaVuSans-Oblique-964"/>
      <use transform="translate(60.205078 0.015625)" xlink:href="#DejaVuSans-32"/>
      <use transform="translate(91.992188 0.015625)" xlink:href="#DejaVuSans-40"/>
      <use transform="translate(131.005859 0.015625)" xlink:href="#DejaVuSans-105"/>
      <use transform="translate(158.789062 0.015625)" xlink:href="#DejaVuSans-110"/>
      <use transform="translate(222.167969 0.015625)" xlink:href="#DejaVuSans-32"/>
      <use transform="translate(253.955078 0.015625)" xlink:href="#DejaVuSans-104"/>
      <use transform="translate(317.333984 0.015625)" xlink:href="#DejaVuSans-111"/>
      <use transform="translate(378.515625 0.015625)" xlink:href="#DejaVuSans-117"/>
      <use transform="translate(441.894531 0.015625)" xlink:href="#DejaVuSans-114"/>
      <use transform="translate(483.007812 0.015625)" xlink:href="#DejaVuSans-115"/>
      <use transform="translate(535.107422 0.015625)" xlink:href="#DejaVuSans-41"/>
     </g>
    </g>
   </g>
   <g id="matplotlib.axis_6">
    <g id="ytick_8">
     <g id="line2d_69">
      <path clip-path="url(#p053d3e2ca3)" d="M 62.85525 539.92 
L 842.31775 539.92 
" style="fill:none;stroke:#808080;stroke-dasharray:0.3,0.495;stroke-dashoffset:0;stroke-width:0.3;"/>
     </g>
     <g id="line2d_70">
      <g>
       <use style="stroke:#000000;stroke-width:0.8;" x="62.85525" xlink:href="#m29aba4c848" y="539.92"/>
      </g>
     </g>
     <g id="text_42">
      <!-- 0.00 -->
      <g transform="translate(29.1365 544.479063)scale(0.12 -0.12)">
       <use xlink:href="#DejaVuSans-48"/>
       <use x="63.623047" xlink:href="#DejaVuSans-46"/>
       <use x="95.410156" xlink:href="#DejaVuSans-48"/>
       <use x="159.033203" xlink:href="#DejaVuSans-48"/>
      </g>
     </g>
    </g>
    <g id="ytick_9">
     <g id="line2d_71">
      <path clip-path="url(#p053d3e2ca3)" d="M 62.85525 508.332698 
L 842.31775 508.332698 
" style="fill:none;stroke:#808080;stroke-dasharray:0.3,0.495;stroke-dashoffset:0;stroke-width:0.3;"/>
     </g>
     <g id="line2d_72">
      <g>
       <use style="stroke:#000000;stroke-width:0.8;" x="62.85525" xlink:href="#m29aba4c848" y="508.332698"/>
      </g>
     </g>
     <g id="text_43">
      <!-- 0.25 -->
      <g transform="translate(29.1365 512.891761)scale(0.12 -0.12)">
       <use xlink:href="#DejaVuSans-48"/>
       <use x="63.623047" xlink:href="#DejaVuSans-46"/>
       <use x="95.410156" xlink:href="#DejaVuSans-50"/>
       <use x="159.033203" xlink:href="#DejaVuSans-53"/>
      </g>
     </g>
    </g>
    <g id="ytick_10">
     <g id="line2d_73">
      <path clip-path="url(#p053d3e2ca3)" d="M 62.85525 476.745397 
L 842.31775 476.745397 
" style="fill:none;stroke:#808080;stroke-dasharray:0.3,0.495;stroke-dashoffset:0;stroke-width:0.3;"/>
     </g>
     <g id="line2d_74">
      <g>
       <use style="stroke:#000000;stroke-width:0.8;" x="62.85525" xlink:href="#m29aba4c848" y="476.745397"/>
      </g>
     </g>
     <g id="text_44">
      <!-- 0.50 -->
      <g transform="translate(29.1365 481.304459)scale(0.12 -0.12)">
       <use xlink:href="#DejaVuSans-48"/>
       <use x="63.623047" xlink:href="#DejaVuSans-46"/>
       <use x="95.410156" xlink:href="#DejaVuSans-53"/>
       <use x="159.033203" xlink:href="#DejaVuSans-48"/>
      </g>
     </g>
    </g>
    <g id="ytick_11">
     <g id="line2d_75">
      <path clip-path="url(#p053d3e2ca3)" d="M 62.85525 445.158095 
L 842.31775 445.158095 
" style="fill:none;stroke:#808080;stroke-dasharray:0.3,0.495;stroke-dashoffset:0;stroke-width:0.3;"/>
     </g>
     <g id="line2d_76">
      <g>
       <use style="stroke:#000000;stroke-width:0.8;" x="62.85525" xlink:href="#m29aba4c848" y="445.158095"/>
      </g>
     </g>
     <g id="text_45">
      <!-- 0.75 -->
      <g transform="translate(29.1365 449.717158)scale(0.12 -0.12)">
       <use xlink:href="#DejaVuSans-48"/>
       <use x="63.623047" xlink:href="#DejaVuSans-46"/>
       <use x="95.410156" xlink:href="#DejaVuSans-55"/>
       <use x="159.033203" xlink:href="#DejaVuSans-53"/>
      </g>
     </g>
    </g>
    <g id="ytick_12">
     <g id="line2d_77">
      <path clip-path="url(#p053d3e2ca3)" d="M 62.85525 413.570794 
L 842.31775 413.570794 
" style="fill:none;stroke:#808080;stroke-dasharray:0.3,0.495;stroke-dashoffset:0;stroke-width:0.3;"/>
     </g>
     <g id="line2d_78">
      <g>
       <use style="stroke:#000000;stroke-width:0.8;" x="62.85525" xlink:href="#m29aba4c848" y="413.570794"/>
      </g>
     </g>
     <g id="text_46">
      <!-- 1.00 -->
      <g transform="translate(29.1365 418.129856)scale(0.12 -0.12)">
       <use xlink:href="#DejaVuSans-49"/>
       <use x="63.623047" xlink:href="#DejaVuSans-46"/>
       <use x="95.410156" xlink:href="#DejaVuSans-48"/>
       <use x="159.033203" xlink:href="#DejaVuSans-48"/>
      </g>
     </g>
    </g>
    <g id="text_47">
     <!-- Probability -->
     <defs>
      <path d="M 19.671875 64.796875 
L 19.671875 37.40625 
L 32.078125 37.40625 
Q 38.96875 37.40625 42.71875 40.96875 
Q 46.484375 44.53125 46.484375 51.125 
Q 46.484375 57.671875 42.71875 61.234375 
Q 38.96875 64.796875 32.078125 64.796875 
z
M 9.8125 72.90625 
L 32.078125 72.90625 
Q 44.34375 72.90625 50.609375 67.359375 
Q 56.890625 61.8125 56.890625 51.125 
Q 56.890625 40.328125 50.609375 34.8125 
Q 44.34375 29.296875 32.078125 29.296875 
L 19.671875 29.296875 
L 19.671875 0 
L 9.8125 0 
z
" id="DejaVuSans-80"/>
      <path d="M 48.6875 27.296875 
Q 48.6875 37.203125 44.609375 42.84375 
Q 40.53125 48.484375 33.40625 48.484375 
Q 26.265625 48.484375 22.1875 42.84375 
Q 18.109375 37.203125 18.109375 27.296875 
Q 18.109375 17.390625 22.1875 11.75 
Q 26.265625 6.109375 33.40625 6.109375 
Q 40.53125 6.109375 44.609375 11.75 
Q 48.6875 17.390625 48.6875 27.296875 
z
M 18.109375 46.390625 
Q 20.953125 51.265625 25.265625 53.625 
Q 29.59375 56 35.59375 56 
Q 45.5625 56 51.78125 48.09375 
Q 58.015625 40.1875 58.015625 27.296875 
Q 58.015625 14.40625 51.78125 6.484375 
Q 45.5625 -1.421875 35.59375 -1.421875 
Q 29.59375 -1.421875 25.265625 0.953125 
Q 20.953125 3.328125 18.109375 8.203125 
L 18.109375 0 
L 9.078125 0 
L 9.078125 75.984375 
L 18.109375 75.984375 
z
" id="DejaVuSans-98"/>
     </defs>
     <g transform="translate(18.14175 511.928917)rotate(-90)scale(0.144 -0.144)">
      <use xlink:href="#DejaVuSans-80"/>
      <use x="60.287109" xlink:href="#DejaVuSans-114"/>
      <use x="101.369141" xlink:href="#DejaVuSans-111"/>
      <use x="162.550781" xlink:href="#DejaVuSans-98"/>
      <use x="226.027344" xlink:href="#DejaVuSans-97"/>
      <use x="287.306641" xlink:href="#DejaVuSans-98"/>
      <use x="350.783203" xlink:href="#DejaVuSans-105"/>
      <use x="378.566406" xlink:href="#DejaVuSans-108"/>
      <use x="406.349609" xlink:href="#DejaVuSans-105"/>
      <use x="434.132812" xlink:href="#DejaVuSans-116"/>
      <use x="473.341797" xlink:href="#DejaVuSans-121"/>
     </g>
    </g>
   </g>
   <g id="patch_115">
    <path d="M 62.85525 539.92 
L 62.85525 407.253333 
" style="fill:none;stroke:#000000;stroke-linecap:square;stroke-linejoin:miter;stroke-width:0.8;"/>
   </g>
   <g id="patch_116">
    <path d="M 842.31775 539.92 
L 842.31775 407.253333 
" style="fill:none;stroke:#000000;stroke-linecap:square;stroke-linejoin:miter;stroke-width:0.8;"/>
   </g>
   <g id="patch_117">
    <path d="M 62.85525 539.92 
L 842.31775 539.92 
" style="fill:none;stroke:#000000;stroke-linecap:square;stroke-linejoin:miter;stroke-width:0.8;"/>
   </g>
   <g id="patch_118">
    <path d="M 62.85525 407.253333 
L 842.31775 407.253333 
" style="fill:none;stroke:#000000;stroke-linecap:square;stroke-linejoin:miter;stroke-width:0.8;"/>
   </g>
   <g id="legend_3">
    <g id="patch_119">
     <path d="M 71.25525 434.493333 
L 189.93525 434.493333 
Q 192.33525 434.493333 192.33525 432.093333 
L 192.33525 415.653333 
Q 192.33525 413.253333 189.93525 413.253333 
L 71.25525 413.253333 
Q 68.85525 413.253333 68.85525 415.653333 
L 68.85525 432.093333 
Q 68.85525 434.493333 71.25525 434.493333 
z
" style="fill:#ffffff;opacity:0.8;stroke:#cccccc;stroke-linejoin:miter;"/>
    </g>
    <g id="patch_120">
     <path d="M 73.65525 427.173333 
L 97.65525 427.173333 
L 97.65525 418.773333 
L 73.65525 418.773333 
z
" style="fill:#467821;stroke:#467821;stroke-linejoin:miter;stroke-width:2;"/>
    </g>
    <g id="text_48">
     <!-- posterior of $\tau$ -->
     <g transform="translate(107.25525 427.173333)scale(0.12 -0.12)">
      <use transform="translate(0 0.015625)" xlink:href="#DejaVuSans-112"/>
      <use transform="translate(63.476562 0.015625)" xlink:href="#DejaVuSans-111"/>
      <use transform="translate(124.658203 0.015625)" xlink:href="#DejaVuSans-115"/>
      <use transform="translate(176.757812 0.015625)" xlink:href="#DejaVuSans-116"/>
      <use transform="translate(215.966797 0.015625)" xlink:href="#DejaVuSans-101"/>
      <use transform="translate(277.490234 0.015625)" xlink:href="#DejaVuSans-114"/>
      <use transform="translate(318.603516 0.015625)" xlink:href="#DejaVuSans-105"/>
      <use transform="translate(346.386719 0.015625)" xlink:href="#DejaVuSans-111"/>
      <use transform="translate(407.568359 0.015625)" xlink:href="#DejaVuSans-114"/>
      <use transform="translate(448.681641 0.015625)" xlink:href="#DejaVuSans-32"/>
      <use transform="translate(480.46875 0.015625)" xlink:href="#DejaVuSans-111"/>
      <use transform="translate(541.650391 0.015625)" xlink:href="#DejaVuSans-102"/>
      <use transform="translate(576.855469 0.015625)" xlink:href="#DejaVuSans-32"/>
      <use transform="translate(608.642578 0.015625)" xlink:href="#DejaVuSans-Oblique-964"/>
     </g>
    </g>
   </g>
  </g>
  <g id="text_49">
   <!-- Posterior distributions of the variables $\lambda_1,\;\lambda_2,\;\tau$ -->
   <defs>
    <path d="M 45.40625 46.390625 
L 45.40625 75.984375 
L 54.390625 75.984375 
L 54.390625 0 
L 45.40625 0 
L 45.40625 8.203125 
Q 42.578125 3.328125 38.25 0.953125 
Q 33.9375 -1.421875 27.875 -1.421875 
Q 17.96875 -1.421875 11.734375 6.484375 
Q 5.515625 14.40625 5.515625 27.296875 
Q 5.515625 40.1875 11.734375 48.09375 
Q 17.96875 56 27.875 56 
Q 33.9375 56 38.25 53.625 
Q 42.578125 51.265625 45.40625 46.390625 
z
M 14.796875 27.296875 
Q 14.796875 17.390625 18.875 11.75 
Q 22.953125 6.109375 30.078125 6.109375 
Q 37.203125 6.109375 41.296875 11.75 
Q 45.40625 17.390625 45.40625 27.296875 
Q 45.40625 37.203125 41.296875 42.84375 
Q 37.203125 48.484375 30.078125 48.484375 
Q 22.953125 48.484375 18.875 42.84375 
Q 14.796875 37.203125 14.796875 27.296875 
z
" id="DejaVuSans-100"/>
    <path d="M 11.71875 12.40625 
L 22.015625 12.40625 
L 22.015625 4 
L 14.015625 -11.625 
L 7.71875 -11.625 
L 11.71875 4 
z
" id="DejaVuSans-44"/>
   </defs>
   <g transform="translate(191.38025 22.396875)scale(0.2 -0.2)">
    <use transform="translate(0 0.015625)" xlink:href="#DejaVuSans-80"/>
    <use transform="translate(60.302734 0.015625)" xlink:href="#DejaVuSans-111"/>
    <use transform="translate(121.484375 0.015625)" xlink:href="#DejaVuSans-115"/>
    <use transform="translate(173.583984 0.015625)" xlink:href="#DejaVuSans-116"/>
    <use transform="translate(212.792969 0.015625)" xlink:href="#DejaVuSans-101"/>
    <use transform="translate(274.316406 0.015625)" xlink:href="#DejaVuSans-114"/>
    <use transform="translate(315.429688 0.015625)" xlink:href="#DejaVuSans-105"/>
    <use transform="translate(343.212891 0.015625)" xlink:href="#DejaVuSans-111"/>
    <use transform="translate(404.394531 0.015625)" xlink:href="#DejaVuSans-114"/>
    <use transform="translate(445.507812 0.015625)" xlink:href="#DejaVuSans-32"/>
    <use transform="translate(477.294922 0.015625)" xlink:href="#DejaVuSans-100"/>
    <use transform="translate(540.771484 0.015625)" xlink:href="#DejaVuSans-105"/>
    <use transform="translate(568.554688 0.015625)" xlink:href="#DejaVuSans-115"/>
    <use transform="translate(620.654297 0.015625)" xlink:href="#DejaVuSans-116"/>
    <use transform="translate(659.863281 0.015625)" xlink:href="#DejaVuSans-114"/>
    <use transform="translate(700.976562 0.015625)" xlink:href="#DejaVuSans-105"/>
    <use transform="translate(728.759766 0.015625)" xlink:href="#DejaVuSans-98"/>
    <use transform="translate(792.236328 0.015625)" xlink:href="#DejaVuSans-117"/>
    <use transform="translate(855.615234 0.015625)" xlink:href="#DejaVuSans-116"/>
    <use transform="translate(894.824219 0.015625)" xlink:href="#DejaVuSans-105"/>
    <use transform="translate(922.607422 0.015625)" xlink:href="#DejaVuSans-111"/>
    <use transform="translate(983.789062 0.015625)" xlink:href="#DejaVuSans-110"/>
    <use transform="translate(1047.167969 0.015625)" xlink:href="#DejaVuSans-115"/>
    <use transform="translate(1099.267578 0.015625)" xlink:href="#DejaVuSans-32"/>
    <use transform="translate(1131.054688 0.015625)" xlink:href="#DejaVuSans-111"/>
    <use transform="translate(1192.236328 0.015625)" xlink:href="#DejaVuSans-102"/>
    <use transform="translate(1227.441406 0.015625)" xlink:href="#DejaVuSans-32"/>
    <use transform="translate(1259.228516 0.015625)" xlink:href="#DejaVuSans-116"/>
    <use transform="translate(1298.4375 0.015625)" xlink:href="#DejaVuSans-104"/>
    <use transform="translate(1361.816406 0.015625)" xlink:href="#DejaVuSans-101"/>
    <use transform="translate(1423.339844 0.015625)" xlink:href="#DejaVuSans-32"/>
    <use transform="translate(1455.126953 0.015625)" xlink:href="#DejaVuSans-118"/>
    <use transform="translate(1514.306641 0.015625)" xlink:href="#DejaVuSans-97"/>
    <use transform="translate(1575.585938 0.015625)" xlink:href="#DejaVuSans-114"/>
    <use transform="translate(1616.699219 0.015625)" xlink:href="#DejaVuSans-105"/>
    <use transform="translate(1644.482422 0.015625)" xlink:href="#DejaVuSans-97"/>
    <use transform="translate(1705.761719 0.015625)" xlink:href="#DejaVuSans-98"/>
    <use transform="translate(1769.238281 0.015625)" xlink:href="#DejaVuSans-108"/>
    <use transform="translate(1797.021484 0.015625)" xlink:href="#DejaVuSans-101"/>
    <use transform="translate(1858.544922 0.015625)" xlink:href="#DejaVuSans-115"/>
    <use transform="translate(1910.644531 0.015625)" xlink:href="#DejaVuSans-32"/>
    <use transform="translate(1942.431641 0.015625)" xlink:href="#DejaVuSans-Oblique-955"/>
    <use transform="translate(2001.611328 -16.390625)scale(0.7)" xlink:href="#DejaVuSans-49"/>
    <use transform="translate(2048.881836 0.015625)" xlink:href="#DejaVuSans-44"/>
    <use transform="translate(2127.210503 0.015625)" xlink:href="#DejaVuSans-Oblique-955"/>
    <use transform="translate(2186.39019 -16.390625)scale(0.7)" xlink:href="#DejaVuSans-50"/>
    <use transform="translate(2233.660698 0.015625)" xlink:href="#DejaVuSans-44"/>
    <use transform="translate(2311.989365 0.015625)" xlink:href="#DejaVuSans-Oblique-964"/>
   </g>
  </g>
 </g>
 <defs>
  <clipPath id="p09ec02464e">
   <rect height="132.666667" width="779.4625" x="62.85525" y="29.52"/>
  </clipPath>
  <clipPath id="pd09e01999f">
   <rect height="132.666667" width="779.4625" x="62.85525" y="218.386667"/>
  </clipPath>
  <clipPath id="p053d3e2ca3">
   <rect height="132.666667" width="779.4625" x="62.85525" y="407.253333"/>
  </clipPath>
 </defs>
</svg>
