<?xml version="1.0" encoding="utf-8" standalone="no"?>
<!DOCTYPE svg PUBLIC "-//W3C//DTD SVG 1.1//EN"
  "http://www.w3.org/Graphics/SVG/1.1/DTD/svg11.dtd">
<!-- Created with matplotlib (https://matplotlib.org/) -->
<svg height="587.67025pt" version="1.1" viewBox="0 0 857.28775 587.67025" width="857.28775pt" xmlns="http://www.w3.org/2000/svg" xmlns:xlink="http://www.w3.org/1999/xlink">
 <defs>
  <style type="text/css">
*{stroke-linecap:butt;stroke-linejoin:round;}
  </style>
 </defs>
 <g id="figure_1">
  <g id="patch_1">
   <path d="M 0 587.67025 
L 857.28775 587.67025 
L 857.28775 0 
L 0 0 
z
" style="fill:#ffffff;"/>
  </g>
  <g id="axes_1">
   <g id="patch_2">
    <path d="M 70.49025 162.565659 
L 842.45275 162.565659 
L 842.45275 30.088488 
L 70.49025 30.088488 
z
" style="fill:#ffffff;"/>
   </g>
   <g id="patch_3">
    <path clip-path="url(#p49be0fea59)" d="M 105.579455 162.565659 
L 105.579455 162.508375 
L 128.972258 162.508375 
L 128.972258 162.45109 
L 152.365061 162.45109 
L 152.365061 162.307879 
L 175.757864 162.307879 
L 175.757864 160.818487 
L 199.150667 160.818487 
L 199.150667 160.073791 
L 222.54347 160.073791 
L 222.54347 157.581922 
L 245.936273 157.581922 
L 245.936273 151.939416 
L 269.329076 151.939416 
L 269.329076 145.63814 
L 292.721879 145.63814 
L 292.721879 133.522504 
L 316.114682 133.522504 
L 316.114682 116.136711 
L 339.507485 116.136711 
L 339.507485 94.569161 
L 362.900288 94.569161 
L 362.900288 87.351335 
L 386.293091 87.351335 
L 386.293091 67.588242 
L 409.685894 67.588242 
L 409.685894 45.33328 
L 433.078697 45.33328 
L 433.078697 43.729319 
L 456.4715 43.729319 
L 456.4715 36.396925 
L 479.864303 36.396925 
L 479.864303 41.838936 
L 503.257106 41.838936 
L 503.257106 67.588242 
L 526.649909 67.588242 
L 526.649909 87.265409 
L 550.042712 87.265409 
L 550.042712 106.913934 
L 573.435515 106.913934 
L 573.435515 130.228655 
L 596.828318 130.228655 
L 596.828318 139.537359 
L 620.221121 139.537359 
L 620.221121 149.0752 
L 643.613924 149.0752 
L 643.613924 154.603137 
L 667.006727 154.603137 
L 667.006727 158.040197 
L 690.39953 158.040197 
L 690.39953 160.274286 
L 713.792333 160.274286 
L 713.792333 161.190835 
L 737.185136 161.190835 
L 737.185136 161.849605 
L 760.577939 161.849605 
L 760.577939 162.537017 
L 783.970742 162.537017 
L 783.970742 162.393806 
L 807.363545 162.393806 
L 807.363545 162.565659 
L 783.970742 162.565659 
L 783.970742 162.565659 
L 760.577939 162.565659 
L 760.577939 162.565659 
L 737.185136 162.565659 
L 737.185136 162.565659 
L 713.792333 162.565659 
L 713.792333 162.565659 
L 690.39953 162.565659 
L 690.39953 162.565659 
L 667.006727 162.565659 
L 667.006727 162.565659 
L 643.613924 162.565659 
L 643.613924 162.565659 
L 620.221121 162.565659 
L 620.221121 162.565659 
L 596.828318 162.565659 
L 596.828318 162.565659 
L 573.435515 162.565659 
L 573.435515 162.565659 
L 550.042712 162.565659 
L 550.042712 162.565659 
L 526.649909 162.565659 
L 526.649909 162.565659 
L 503.257106 162.565659 
L 503.257106 162.565659 
L 479.864303 162.565659 
L 479.864303 162.565659 
L 456.4715 162.565659 
L 456.4715 162.565659 
L 433.078697 162.565659 
L 433.078697 162.565659 
L 409.685894 162.565659 
L 409.685894 162.565659 
L 386.293091 162.565659 
L 386.293091 162.565659 
L 362.900288 162.565659 
L 362.900288 162.565659 
L 339.507485 162.565659 
L 339.507485 162.565659 
L 316.114682 162.565659 
L 316.114682 162.565659 
L 292.721879 162.565659 
L 292.721879 162.565659 
L 269.329076 162.565659 
L 269.329076 162.565659 
L 245.936273 162.565659 
L 245.936273 162.565659 
L 222.54347 162.565659 
L 222.54347 162.565659 
L 199.150667 162.565659 
L 199.150667 162.565659 
L 175.757864 162.565659 
L 175.757864 162.565659 
L 152.365061 162.565659 
L 152.365061 162.565659 
L 128.972258 162.565659 
L 128.972258 162.565659 
z
" style="fill:#a60628;opacity:0.85;"/>
   </g>
   <g id="matplotlib.axis_1">
    <g id="xtick_1">
     <g id="line2d_1">
      <path clip-path="url(#p49be0fea59)" d="M 87.750217 162.565659 
L 87.750217 30.088488 
" style="fill:none;stroke:#808080;stroke-dasharray:0.3,0.495;stroke-dashoffset:0;stroke-width:0.3;"/>
     </g>
     <g id="line2d_2">
      <defs>
       <path d="M 0 0 
L 0 3.5 
" id="m5f02df2a33" style="stroke:#000000;stroke-width:0.8;"/>
      </defs>
      <g>
       <use style="stroke:#000000;stroke-width:0.8;" x="87.750217" xlink:href="#m5f02df2a33" y="162.565659"/>
      </g>
     </g>
     <g id="text_1">
      <!-- 37550 -->
      <defs>
       <path d="M 40.578125 39.3125 
Q 47.65625 37.796875 51.625 33 
Q 55.609375 28.21875 55.609375 21.1875 
Q 55.609375 10.40625 48.1875 4.484375 
Q 40.765625 -1.421875 27.09375 -1.421875 
Q 22.515625 -1.421875 17.65625 -0.515625 
Q 12.796875 0.390625 7.625 2.203125 
L 7.625 11.71875 
Q 11.71875 9.328125 16.59375 8.109375 
Q 21.484375 6.890625 26.8125 6.890625 
Q 36.078125 6.890625 40.9375 10.546875 
Q 45.796875 14.203125 45.796875 21.1875 
Q 45.796875 27.640625 41.28125 31.265625 
Q 36.765625 34.90625 28.71875 34.90625 
L 20.21875 34.90625 
L 20.21875 43.015625 
L 29.109375 43.015625 
Q 36.375 43.015625 40.234375 45.921875 
Q 44.09375 48.828125 44.09375 54.296875 
Q 44.09375 59.90625 40.109375 62.90625 
Q 36.140625 65.921875 28.71875 65.921875 
Q 24.65625 65.921875 20.015625 65.03125 
Q 15.375 64.15625 9.8125 62.3125 
L 9.8125 71.09375 
Q 15.4375 72.65625 20.34375 73.4375 
Q 25.25 74.21875 29.59375 74.21875 
Q 40.828125 74.21875 47.359375 69.109375 
Q 53.90625 64.015625 53.90625 55.328125 
Q 53.90625 49.265625 50.4375 45.09375 
Q 46.96875 40.921875 40.578125 39.3125 
z
" id="DejaVuSans-51"/>
       <path d="M 8.203125 72.90625 
L 55.078125 72.90625 
L 55.078125 68.703125 
L 28.609375 0 
L 18.3125 0 
L 43.21875 64.59375 
L 8.203125 64.59375 
z
" id="DejaVuSans-55"/>
       <path d="M 10.796875 72.90625 
L 49.515625 72.90625 
L 49.515625 64.59375 
L 19.828125 64.59375 
L 19.828125 46.734375 
Q 21.96875 47.46875 24.109375 47.828125 
Q 26.265625 48.1875 28.421875 48.1875 
Q 40.625 48.1875 47.75 41.5 
Q 54.890625 34.8125 54.890625 23.390625 
Q 54.890625 11.625 47.5625 5.09375 
Q 40.234375 -1.421875 26.90625 -1.421875 
Q 22.3125 -1.421875 17.546875 -0.640625 
Q 12.796875 0.140625 7.71875 1.703125 
L 7.71875 11.625 
Q 12.109375 9.234375 16.796875 8.0625 
Q 21.484375 6.890625 26.703125 6.890625 
Q 35.15625 6.890625 40.078125 11.328125 
Q 45.015625 15.765625 45.015625 23.390625 
Q 45.015625 31 40.078125 35.4375 
Q 35.15625 39.890625 26.703125 39.890625 
Q 22.75 39.890625 18.8125 39.015625 
Q 14.890625 38.140625 10.796875 36.28125 
z
" id="DejaVuSans-53"/>
       <path d="M 31.78125 66.40625 
Q 24.171875 66.40625 20.328125 58.90625 
Q 16.5 51.421875 16.5 36.375 
Q 16.5 21.390625 20.328125 13.890625 
Q 24.171875 6.390625 31.78125 6.390625 
Q 39.453125 6.390625 43.28125 13.890625 
Q 47.125 21.390625 47.125 36.375 
Q 47.125 51.421875 43.28125 58.90625 
Q 39.453125 66.40625 31.78125 66.40625 
z
M 31.78125 74.21875 
Q 44.046875 74.21875 50.515625 64.515625 
Q 56.984375 54.828125 56.984375 36.375 
Q 56.984375 17.96875 50.515625 8.265625 
Q 44.046875 -1.421875 31.78125 -1.421875 
Q 19.53125 -1.421875 13.0625 8.265625 
Q 6.59375 17.96875 6.59375 36.375 
Q 6.59375 54.828125 13.0625 64.515625 
Q 19.53125 74.21875 31.78125 74.21875 
z
" id="DejaVuSans-48"/>
      </defs>
      <g transform="translate(68.662717 178.683784)scale(0.12 -0.12)">
       <use xlink:href="#DejaVuSans-51"/>
       <use x="63.623047" xlink:href="#DejaVuSans-55"/>
       <use x="127.246094" xlink:href="#DejaVuSans-53"/>
       <use x="190.869141" xlink:href="#DejaVuSans-53"/>
       <use x="254.492188" xlink:href="#DejaVuSans-48"/>
      </g>
     </g>
    </g>
    <g id="xtick_2">
     <g id="line2d_3">
      <path clip-path="url(#p49be0fea59)" d="M 244.924686 162.565659 
L 244.924686 30.088488 
" style="fill:none;stroke:#808080;stroke-dasharray:0.3,0.495;stroke-dashoffset:0;stroke-width:0.3;"/>
     </g>
     <g id="line2d_4">
      <g>
       <use style="stroke:#000000;stroke-width:0.8;" x="244.924686" xlink:href="#m5f02df2a33" y="162.565659"/>
      </g>
     </g>
     <g id="text_2">
      <!-- 37600 -->
      <defs>
       <path d="M 33.015625 40.375 
Q 26.375 40.375 22.484375 35.828125 
Q 18.609375 31.296875 18.609375 23.390625 
Q 18.609375 15.53125 22.484375 10.953125 
Q 26.375 6.390625 33.015625 6.390625 
Q 39.65625 6.390625 43.53125 10.953125 
Q 47.40625 15.53125 47.40625 23.390625 
Q 47.40625 31.296875 43.53125 35.828125 
Q 39.65625 40.375 33.015625 40.375 
z
M 52.59375 71.296875 
L 52.59375 62.3125 
Q 48.875 64.0625 45.09375 64.984375 
Q 41.3125 65.921875 37.59375 65.921875 
Q 27.828125 65.921875 22.671875 59.328125 
Q 17.53125 52.734375 16.796875 39.40625 
Q 19.671875 43.65625 24.015625 45.921875 
Q 28.375 48.1875 33.59375 48.1875 
Q 44.578125 48.1875 50.953125 41.515625 
Q 57.328125 34.859375 57.328125 23.390625 
Q 57.328125 12.15625 50.6875 5.359375 
Q 44.046875 -1.421875 33.015625 -1.421875 
Q 20.359375 -1.421875 13.671875 8.265625 
Q 6.984375 17.96875 6.984375 36.375 
Q 6.984375 53.65625 15.1875 63.9375 
Q 23.390625 74.21875 37.203125 74.21875 
Q 40.921875 74.21875 44.703125 73.484375 
Q 48.484375 72.75 52.59375 71.296875 
z
" id="DejaVuSans-54"/>
      </defs>
      <g transform="translate(225.837186 178.683784)scale(0.12 -0.12)">
       <use xlink:href="#DejaVuSans-51"/>
       <use x="63.623047" xlink:href="#DejaVuSans-55"/>
       <use x="127.246094" xlink:href="#DejaVuSans-54"/>
       <use x="190.869141" xlink:href="#DejaVuSans-48"/>
       <use x="254.492188" xlink:href="#DejaVuSans-48"/>
      </g>
     </g>
    </g>
    <g id="xtick_3">
     <g id="line2d_5">
      <path clip-path="url(#p49be0fea59)" d="M 402.099156 162.565659 
L 402.099156 30.088488 
" style="fill:none;stroke:#808080;stroke-dasharray:0.3,0.495;stroke-dashoffset:0;stroke-width:0.3;"/>
     </g>
     <g id="line2d_6">
      <g>
       <use style="stroke:#000000;stroke-width:0.8;" x="402.099156" xlink:href="#m5f02df2a33" y="162.565659"/>
      </g>
     </g>
     <g id="text_3">
      <!-- 37650 -->
      <g transform="translate(383.011656 178.683784)scale(0.12 -0.12)">
       <use xlink:href="#DejaVuSans-51"/>
       <use x="63.623047" xlink:href="#DejaVuSans-55"/>
       <use x="127.246094" xlink:href="#DejaVuSans-54"/>
       <use x="190.869141" xlink:href="#DejaVuSans-53"/>
       <use x="254.492188" xlink:href="#DejaVuSans-48"/>
      </g>
     </g>
    </g>
    <g id="xtick_4">
     <g id="line2d_7">
      <path clip-path="url(#p49be0fea59)" d="M 559.273626 162.565659 
L 559.273626 30.088488 
" style="fill:none;stroke:#808080;stroke-dasharray:0.3,0.495;stroke-dashoffset:0;stroke-width:0.3;"/>
     </g>
     <g id="line2d_8">
      <g>
       <use style="stroke:#000000;stroke-width:0.8;" x="559.273626" xlink:href="#m5f02df2a33" y="162.565659"/>
      </g>
     </g>
     <g id="text_4">
      <!-- 37700 -->
      <g transform="translate(540.186126 178.683784)scale(0.12 -0.12)">
       <use xlink:href="#DejaVuSans-51"/>
       <use x="63.623047" xlink:href="#DejaVuSans-55"/>
       <use x="127.246094" xlink:href="#DejaVuSans-55"/>
       <use x="190.869141" xlink:href="#DejaVuSans-48"/>
       <use x="254.492188" xlink:href="#DejaVuSans-48"/>
      </g>
     </g>
    </g>
    <g id="xtick_5">
     <g id="line2d_9">
      <path clip-path="url(#p49be0fea59)" d="M 716.448095 162.565659 
L 716.448095 30.088488 
" style="fill:none;stroke:#808080;stroke-dasharray:0.3,0.495;stroke-dashoffset:0;stroke-width:0.3;"/>
     </g>
     <g id="line2d_10">
      <g>
       <use style="stroke:#000000;stroke-width:0.8;" x="716.448095" xlink:href="#m5f02df2a33" y="162.565659"/>
      </g>
     </g>
     <g id="text_5">
      <!-- 37750 -->
      <g transform="translate(697.360595 178.683784)scale(0.12 -0.12)">
       <use xlink:href="#DejaVuSans-51"/>
       <use x="63.623047" xlink:href="#DejaVuSans-55"/>
       <use x="127.246094" xlink:href="#DejaVuSans-55"/>
       <use x="190.869141" xlink:href="#DejaVuSans-53"/>
       <use x="254.492188" xlink:href="#DejaVuSans-48"/>
      </g>
     </g>
    </g>
    <g id="text_6">
     <!-- $\lambda_1$ value -->
     <defs>
      <path d="M 36.71875 67.4375 
L 48.828125 0 
L 39.3125 0 
L 31.84375 40.4375 
L 5.125 0 
L -4.390625 0 
L 29.734375 52.4375 
L 28.03125 62.109375 
Q 26.953125 68.265625 21.734375 68.265625 
L 17.046875 68.265625 
L 18.5 75.984375 
L 24.21875 75.875 
Q 35.203125 75.734375 36.71875 67.4375 
z
" id="DejaVuSans-Oblique-955"/>
      <path d="M 12.40625 8.296875 
L 28.515625 8.296875 
L 28.515625 63.921875 
L 10.984375 60.40625 
L 10.984375 69.390625 
L 28.421875 72.90625 
L 38.28125 72.90625 
L 38.28125 8.296875 
L 54.390625 8.296875 
L 54.390625 0 
L 12.40625 0 
z
" id="DejaVuSans-49"/>
      <path id="DejaVuSans-32"/>
      <path d="M 2.984375 54.6875 
L 12.5 54.6875 
L 29.59375 8.796875 
L 46.6875 54.6875 
L 56.203125 54.6875 
L 35.6875 0 
L 23.484375 0 
z
" id="DejaVuSans-118"/>
      <path d="M 34.28125 27.484375 
Q 23.390625 27.484375 19.1875 25 
Q 14.984375 22.515625 14.984375 16.5 
Q 14.984375 11.71875 18.140625 8.90625 
Q 21.296875 6.109375 26.703125 6.109375 
Q 34.1875 6.109375 38.703125 11.40625 
Q 43.21875 16.703125 43.21875 25.484375 
L 43.21875 27.484375 
z
M 52.203125 31.203125 
L 52.203125 0 
L 43.21875 0 
L 43.21875 8.296875 
Q 40.140625 3.328125 35.546875 0.953125 
Q 30.953125 -1.421875 24.3125 -1.421875 
Q 15.921875 -1.421875 10.953125 3.296875 
Q 6 8.015625 6 15.921875 
Q 6 25.140625 12.171875 29.828125 
Q 18.359375 34.515625 30.609375 34.515625 
L 43.21875 34.515625 
L 43.21875 35.40625 
Q 43.21875 41.609375 39.140625 45 
Q 35.0625 48.390625 27.6875 48.390625 
Q 23 48.390625 18.546875 47.265625 
Q 14.109375 46.140625 10.015625 43.890625 
L 10.015625 52.203125 
Q 14.9375 54.109375 19.578125 55.046875 
Q 24.21875 56 28.609375 56 
Q 40.484375 56 46.34375 49.84375 
Q 52.203125 43.703125 52.203125 31.203125 
z
" id="DejaVuSans-97"/>
      <path d="M 9.421875 75.984375 
L 18.40625 75.984375 
L 18.40625 0 
L 9.421875 0 
z
" id="DejaVuSans-108"/>
      <path d="M 8.5 21.578125 
L 8.5 54.6875 
L 17.484375 54.6875 
L 17.484375 21.921875 
Q 17.484375 14.15625 20.5 10.265625 
Q 23.53125 6.390625 29.59375 6.390625 
Q 36.859375 6.390625 41.078125 11.03125 
Q 45.3125 15.671875 45.3125 23.6875 
L 45.3125 54.6875 
L 54.296875 54.6875 
L 54.296875 0 
L 45.3125 0 
L 45.3125 8.40625 
Q 42.046875 3.421875 37.71875 1 
Q 33.40625 -1.421875 27.6875 -1.421875 
Q 18.265625 -1.421875 13.375 4.4375 
Q 8.5 10.296875 8.5 21.578125 
z
M 31.109375 56 
z
" id="DejaVuSans-117"/>
      <path d="M 56.203125 29.59375 
L 56.203125 25.203125 
L 14.890625 25.203125 
Q 15.484375 15.921875 20.484375 11.0625 
Q 25.484375 6.203125 34.421875 6.203125 
Q 39.59375 6.203125 44.453125 7.46875 
Q 49.3125 8.734375 54.109375 11.28125 
L 54.109375 2.78125 
Q 49.265625 0.734375 44.1875 -0.34375 
Q 39.109375 -1.421875 33.890625 -1.421875 
Q 20.796875 -1.421875 13.15625 6.1875 
Q 5.515625 13.8125 5.515625 26.8125 
Q 5.515625 40.234375 12.765625 48.109375 
Q 20.015625 56 32.328125 56 
Q 43.359375 56 49.78125 48.890625 
Q 56.203125 41.796875 56.203125 29.59375 
z
M 47.21875 32.234375 
Q 47.125 39.59375 43.09375 43.984375 
Q 39.0625 48.390625 32.421875 48.390625 
Q 24.90625 48.390625 20.390625 44.140625 
Q 15.875 39.890625 15.1875 32.171875 
z
" id="DejaVuSans-101"/>
     </defs>
     <g transform="translate(426.8075 200.121159)scale(0.144 -0.144)">
      <use transform="translate(0 0.015625)" xlink:href="#DejaVuSans-Oblique-955"/>
      <use transform="translate(59.179688 -16.390625)scale(0.7)" xlink:href="#DejaVuSans-49"/>
      <use transform="translate(106.450195 0.015625)" xlink:href="#DejaVuSans-32"/>
      <use transform="translate(138.237305 0.015625)" xlink:href="#DejaVuSans-118"/>
      <use transform="translate(197.416992 0.015625)" xlink:href="#DejaVuSans-97"/>
      <use transform="translate(258.696289 0.015625)" xlink:href="#DejaVuSans-108"/>
      <use transform="translate(286.479492 0.015625)" xlink:href="#DejaVuSans-117"/>
      <use transform="translate(349.858398 0.015625)" xlink:href="#DejaVuSans-101"/>
     </g>
    </g>
   </g>
   <g id="matplotlib.axis_2">
    <g id="ytick_1">
     <g id="line2d_11">
      <path clip-path="url(#p49be0fea59)" d="M 70.49025 162.565659 
L 842.45275 162.565659 
" style="fill:none;stroke:#808080;stroke-dasharray:0.3,0.495;stroke-dashoffset:0;stroke-width:0.3;"/>
     </g>
     <g id="line2d_12">
      <defs>
       <path d="M 0 0 
L -3.5 0 
" id="mdd9ddea56d" style="stroke:#000000;stroke-width:0.8;"/>
      </defs>
      <g>
       <use style="stroke:#000000;stroke-width:0.8;" x="70.49025" xlink:href="#mdd9ddea56d" y="162.565659"/>
      </g>
     </g>
     <g id="text_7">
      <!-- 0.000 -->
      <defs>
       <path d="M 10.6875 12.40625 
L 21 12.40625 
L 21 0 
L 10.6875 0 
z
" id="DejaVuSans-46"/>
      </defs>
      <g transform="translate(29.1365 167.124721)scale(0.12 -0.12)">
       <use xlink:href="#DejaVuSans-48"/>
       <use x="63.623047" xlink:href="#DejaVuSans-46"/>
       <use x="95.410156" xlink:href="#DejaVuSans-48"/>
       <use x="159.033203" xlink:href="#DejaVuSans-48"/>
       <use x="222.65625" xlink:href="#DejaVuSans-48"/>
      </g>
     </g>
    </g>
    <g id="ytick_2">
     <g id="line2d_13">
      <path clip-path="url(#p49be0fea59)" d="M 70.49025 119.936566 
L 842.45275 119.936566 
" style="fill:none;stroke:#808080;stroke-dasharray:0.3,0.495;stroke-dashoffset:0;stroke-width:0.3;"/>
     </g>
     <g id="line2d_14">
      <g>
       <use style="stroke:#000000;stroke-width:0.8;" x="70.49025" xlink:href="#mdd9ddea56d" y="119.936566"/>
      </g>
     </g>
     <g id="text_8">
      <!-- 0.005 -->
      <g transform="translate(29.1365 124.495628)scale(0.12 -0.12)">
       <use xlink:href="#DejaVuSans-48"/>
       <use x="63.623047" xlink:href="#DejaVuSans-46"/>
       <use x="95.410156" xlink:href="#DejaVuSans-48"/>
       <use x="159.033203" xlink:href="#DejaVuSans-48"/>
       <use x="222.65625" xlink:href="#DejaVuSans-53"/>
      </g>
     </g>
    </g>
    <g id="ytick_3">
     <g id="line2d_15">
      <path clip-path="url(#p49be0fea59)" d="M 70.49025 77.307473 
L 842.45275 77.307473 
" style="fill:none;stroke:#808080;stroke-dasharray:0.3,0.495;stroke-dashoffset:0;stroke-width:0.3;"/>
     </g>
     <g id="line2d_16">
      <g>
       <use style="stroke:#000000;stroke-width:0.8;" x="70.49025" xlink:href="#mdd9ddea56d" y="77.307473"/>
      </g>
     </g>
     <g id="text_9">
      <!-- 0.010 -->
      <g transform="translate(29.1365 81.866535)scale(0.12 -0.12)">
       <use xlink:href="#DejaVuSans-48"/>
       <use x="63.623047" xlink:href="#DejaVuSans-46"/>
       <use x="95.410156" xlink:href="#DejaVuSans-48"/>
       <use x="159.033203" xlink:href="#DejaVuSans-49"/>
       <use x="222.65625" xlink:href="#DejaVuSans-48"/>
      </g>
     </g>
    </g>
    <g id="ytick_4">
     <g id="line2d_17">
      <path clip-path="url(#p49be0fea59)" d="M 70.49025 34.67838 
L 842.45275 34.67838 
" style="fill:none;stroke:#808080;stroke-dasharray:0.3,0.495;stroke-dashoffset:0;stroke-width:0.3;"/>
     </g>
     <g id="line2d_18">
      <g>
       <use style="stroke:#000000;stroke-width:0.8;" x="70.49025" xlink:href="#mdd9ddea56d" y="34.67838"/>
      </g>
     </g>
     <g id="text_10">
      <!-- 0.015 -->
      <g transform="translate(29.1365 39.237442)scale(0.12 -0.12)">
       <use xlink:href="#DejaVuSans-48"/>
       <use x="63.623047" xlink:href="#DejaVuSans-46"/>
       <use x="95.410156" xlink:href="#DejaVuSans-48"/>
       <use x="159.033203" xlink:href="#DejaVuSans-49"/>
       <use x="222.65625" xlink:href="#DejaVuSans-53"/>
      </g>
     </g>
    </g>
    <g id="text_11">
     <!-- Density -->
     <defs>
      <path d="M 19.671875 64.796875 
L 19.671875 8.109375 
L 31.59375 8.109375 
Q 46.6875 8.109375 53.6875 14.9375 
Q 60.6875 21.78125 60.6875 36.53125 
Q 60.6875 51.171875 53.6875 57.984375 
Q 46.6875 64.796875 31.59375 64.796875 
z
M 9.8125 72.90625 
L 30.078125 72.90625 
Q 51.265625 72.90625 61.171875 64.09375 
Q 71.09375 55.28125 71.09375 36.53125 
Q 71.09375 17.671875 61.125 8.828125 
Q 51.171875 0 30.078125 0 
L 9.8125 0 
z
" id="DejaVuSans-68"/>
      <path d="M 54.890625 33.015625 
L 54.890625 0 
L 45.90625 0 
L 45.90625 32.71875 
Q 45.90625 40.484375 42.875 44.328125 
Q 39.84375 48.1875 33.796875 48.1875 
Q 26.515625 48.1875 22.3125 43.546875 
Q 18.109375 38.921875 18.109375 30.90625 
L 18.109375 0 
L 9.078125 0 
L 9.078125 54.6875 
L 18.109375 54.6875 
L 18.109375 46.1875 
Q 21.34375 51.125 25.703125 53.5625 
Q 30.078125 56 35.796875 56 
Q 45.21875 56 50.046875 50.171875 
Q 54.890625 44.34375 54.890625 33.015625 
z
" id="DejaVuSans-110"/>
      <path d="M 44.28125 53.078125 
L 44.28125 44.578125 
Q 40.484375 46.53125 36.375 47.5 
Q 32.28125 48.484375 27.875 48.484375 
Q 21.1875 48.484375 17.84375 46.4375 
Q 14.5 44.390625 14.5 40.28125 
Q 14.5 37.15625 16.890625 35.375 
Q 19.28125 33.59375 26.515625 31.984375 
L 29.59375 31.296875 
Q 39.15625 29.25 43.1875 25.515625 
Q 47.21875 21.78125 47.21875 15.09375 
Q 47.21875 7.46875 41.1875 3.015625 
Q 35.15625 -1.421875 24.609375 -1.421875 
Q 20.21875 -1.421875 15.453125 -0.5625 
Q 10.6875 0.296875 5.421875 2 
L 5.421875 11.28125 
Q 10.40625 8.6875 15.234375 7.390625 
Q 20.0625 6.109375 24.8125 6.109375 
Q 31.15625 6.109375 34.5625 8.28125 
Q 37.984375 10.453125 37.984375 14.40625 
Q 37.984375 18.0625 35.515625 20.015625 
Q 33.0625 21.96875 24.703125 23.78125 
L 21.578125 24.515625 
Q 13.234375 26.265625 9.515625 29.90625 
Q 5.8125 33.546875 5.8125 39.890625 
Q 5.8125 47.609375 11.28125 51.796875 
Q 16.75 56 26.8125 56 
Q 31.78125 56 36.171875 55.265625 
Q 40.578125 54.546875 44.28125 53.078125 
z
" id="DejaVuSans-115"/>
      <path d="M 9.421875 54.6875 
L 18.40625 54.6875 
L 18.40625 0 
L 9.421875 0 
z
M 9.421875 75.984375 
L 18.40625 75.984375 
L 18.40625 64.59375 
L 9.421875 64.59375 
z
" id="DejaVuSans-105"/>
      <path d="M 18.3125 70.21875 
L 18.3125 54.6875 
L 36.8125 54.6875 
L 36.8125 47.703125 
L 18.3125 47.703125 
L 18.3125 18.015625 
Q 18.3125 11.328125 20.140625 9.421875 
Q 21.96875 7.515625 27.59375 7.515625 
L 36.8125 7.515625 
L 36.8125 0 
L 27.59375 0 
Q 17.1875 0 13.234375 3.875 
Q 9.28125 7.765625 9.28125 18.015625 
L 9.28125 47.703125 
L 2.6875 47.703125 
L 2.6875 54.6875 
L 9.28125 54.6875 
L 9.28125 70.21875 
z
" id="DejaVuSans-116"/>
      <path d="M 32.171875 -5.078125 
Q 28.375 -14.84375 24.75 -17.8125 
Q 21.140625 -20.796875 15.09375 -20.796875 
L 7.90625 -20.796875 
L 7.90625 -13.28125 
L 13.1875 -13.28125 
Q 16.890625 -13.28125 18.9375 -11.515625 
Q 21 -9.765625 23.484375 -3.21875 
L 25.09375 0.875 
L 2.984375 54.6875 
L 12.5 54.6875 
L 29.59375 11.921875 
L 46.6875 54.6875 
L 56.203125 54.6875 
z
" id="DejaVuSans-121"/>
     </defs>
     <g transform="translate(18.14175 123.699449)rotate(-90)scale(0.144 -0.144)">
      <use xlink:href="#DejaVuSans-68"/>
      <use x="77.001953" xlink:href="#DejaVuSans-101"/>
      <use x="138.525391" xlink:href="#DejaVuSans-110"/>
      <use x="201.904297" xlink:href="#DejaVuSans-115"/>
      <use x="254.003906" xlink:href="#DejaVuSans-105"/>
      <use x="281.787109" xlink:href="#DejaVuSans-116"/>
      <use x="320.996094" xlink:href="#DejaVuSans-121"/>
     </g>
    </g>
   </g>
   <g id="patch_4">
    <path d="M 70.49025 162.565659 
L 70.49025 30.088488 
" style="fill:none;stroke:#000000;stroke-linecap:square;stroke-linejoin:miter;stroke-width:0.8;"/>
   </g>
   <g id="patch_5">
    <path d="M 842.45275 162.565659 
L 842.45275 30.088488 
" style="fill:none;stroke:#000000;stroke-linecap:square;stroke-linejoin:miter;stroke-width:0.8;"/>
   </g>
   <g id="patch_6">
    <path d="M 70.49025 162.565659 
L 842.45275 162.565659 
" style="fill:none;stroke:#000000;stroke-linecap:square;stroke-linejoin:miter;stroke-width:0.8;"/>
   </g>
   <g id="patch_7">
    <path d="M 70.49025 30.088488 
L 842.45275 30.088488 
" style="fill:none;stroke:#000000;stroke-linecap:square;stroke-linejoin:miter;stroke-width:0.8;"/>
   </g>
   <g id="legend_1">
    <g id="patch_8">
     <path d="M 78.89025 57.328488 
L 203.21025 57.328488 
Q 205.61025 57.328488 205.61025 54.928488 
L 205.61025 38.488488 
Q 205.61025 36.088488 203.21025 36.088488 
L 78.89025 36.088488 
Q 76.49025 36.088488 76.49025 38.488488 
L 76.49025 54.928488 
Q 76.49025 57.328488 78.89025 57.328488 
z
" style="fill:#ffffff;opacity:0.8;stroke:#cccccc;stroke-linejoin:miter;"/>
    </g>
    <g id="patch_9">
     <path d="M 81.29025 50.008488 
L 105.29025 50.008488 
L 105.29025 41.608488 
L 81.29025 41.608488 
z
" style="fill:#a60628;opacity:0.85;"/>
    </g>
    <g id="text_12">
     <!-- posterior of $\lambda_1$ -->
     <defs>
      <path d="M 18.109375 8.203125 
L 18.109375 -20.796875 
L 9.078125 -20.796875 
L 9.078125 54.6875 
L 18.109375 54.6875 
L 18.109375 46.390625 
Q 20.953125 51.265625 25.265625 53.625 
Q 29.59375 56 35.59375 56 
Q 45.5625 56 51.78125 48.09375 
Q 58.015625 40.1875 58.015625 27.296875 
Q 58.015625 14.40625 51.78125 6.484375 
Q 45.5625 -1.421875 35.59375 -1.421875 
Q 29.59375 -1.421875 25.265625 0.953125 
Q 20.953125 3.328125 18.109375 8.203125 
z
M 48.6875 27.296875 
Q 48.6875 37.203125 44.609375 42.84375 
Q 40.53125 48.484375 33.40625 48.484375 
Q 26.265625 48.484375 22.1875 42.84375 
Q 18.109375 37.203125 18.109375 27.296875 
Q 18.109375 17.390625 22.1875 11.75 
Q 26.265625 6.109375 33.40625 6.109375 
Q 40.53125 6.109375 44.609375 11.75 
Q 48.6875 17.390625 48.6875 27.296875 
z
" id="DejaVuSans-112"/>
      <path d="M 30.609375 48.390625 
Q 23.390625 48.390625 19.1875 42.75 
Q 14.984375 37.109375 14.984375 27.296875 
Q 14.984375 17.484375 19.15625 11.84375 
Q 23.34375 6.203125 30.609375 6.203125 
Q 37.796875 6.203125 41.984375 11.859375 
Q 46.1875 17.53125 46.1875 27.296875 
Q 46.1875 37.015625 41.984375 42.703125 
Q 37.796875 48.390625 30.609375 48.390625 
z
M 30.609375 56 
Q 42.328125 56 49.015625 48.375 
Q 55.71875 40.765625 55.71875 27.296875 
Q 55.71875 13.875 49.015625 6.21875 
Q 42.328125 -1.421875 30.609375 -1.421875 
Q 18.84375 -1.421875 12.171875 6.21875 
Q 5.515625 13.875 5.515625 27.296875 
Q 5.515625 40.765625 12.171875 48.375 
Q 18.84375 56 30.609375 56 
z
" id="DejaVuSans-111"/>
      <path d="M 41.109375 46.296875 
Q 39.59375 47.171875 37.8125 47.578125 
Q 36.03125 48 33.890625 48 
Q 26.265625 48 22.1875 43.046875 
Q 18.109375 38.09375 18.109375 28.8125 
L 18.109375 0 
L 9.078125 0 
L 9.078125 54.6875 
L 18.109375 54.6875 
L 18.109375 46.1875 
Q 20.953125 51.171875 25.484375 53.578125 
Q 30.03125 56 36.53125 56 
Q 37.453125 56 38.578125 55.875 
Q 39.703125 55.765625 41.0625 55.515625 
z
" id="DejaVuSans-114"/>
      <path d="M 37.109375 75.984375 
L 37.109375 68.5 
L 28.515625 68.5 
Q 23.6875 68.5 21.796875 66.546875 
Q 19.921875 64.59375 19.921875 59.515625 
L 19.921875 54.6875 
L 34.71875 54.6875 
L 34.71875 47.703125 
L 19.921875 47.703125 
L 19.921875 0 
L 10.890625 0 
L 10.890625 47.703125 
L 2.296875 47.703125 
L 2.296875 54.6875 
L 10.890625 54.6875 
L 10.890625 58.5 
Q 10.890625 67.625 15.140625 71.796875 
Q 19.390625 75.984375 28.609375 75.984375 
z
" id="DejaVuSans-102"/>
     </defs>
     <g transform="translate(114.89025 50.008488)scale(0.12 -0.12)">
      <use transform="translate(0 0.015625)" xlink:href="#DejaVuSans-112"/>
      <use transform="translate(63.476562 0.015625)" xlink:href="#DejaVuSans-111"/>
      <use transform="translate(124.658203 0.015625)" xlink:href="#DejaVuSans-115"/>
      <use transform="translate(176.757812 0.015625)" xlink:href="#DejaVuSans-116"/>
      <use transform="translate(215.966797 0.015625)" xlink:href="#DejaVuSans-101"/>
      <use transform="translate(277.490234 0.015625)" xlink:href="#DejaVuSans-114"/>
      <use transform="translate(318.603516 0.015625)" xlink:href="#DejaVuSans-105"/>
      <use transform="translate(346.386719 0.015625)" xlink:href="#DejaVuSans-111"/>
      <use transform="translate(407.568359 0.015625)" xlink:href="#DejaVuSans-114"/>
      <use transform="translate(448.681641 0.015625)" xlink:href="#DejaVuSans-32"/>
      <use transform="translate(480.46875 0.015625)" xlink:href="#DejaVuSans-111"/>
      <use transform="translate(541.650391 0.015625)" xlink:href="#DejaVuSans-102"/>
      <use transform="translate(576.855469 0.015625)" xlink:href="#DejaVuSans-32"/>
      <use transform="translate(608.642578 0.015625)" xlink:href="#DejaVuSans-Oblique-955"/>
      <use transform="translate(667.822266 -16.390625)scale(0.7)" xlink:href="#DejaVuSans-49"/>
     </g>
    </g>
   </g>
  </g>
  <g id="axes_2">
   <g id="patch_10">
    <path d="M 70.49025 351.242829 
L 842.45275 351.242829 
L 842.45275 218.765659 
L 70.49025 218.765659 
z
" style="fill:#ffffff;"/>
   </g>
   <g id="patch_11">
    <path clip-path="url(#pa731b934ec)" d="M 105.579455 351.242829 
L 105.579455 351.113657 
L 128.972258 351.113657 
L 128.972258 351.14595 
L 152.365061 351.14595 
L 152.365061 350.693849 
L 175.757864 350.693849 
L 175.757864 350.015696 
L 199.150667 350.015696 
L 199.150667 348.65939 
L 222.54347 348.65939 
L 222.54347 345.688434 
L 245.936273 345.688434 
L 245.936273 341.554931 
L 269.329076 341.554931 
L 269.329076 333.513975 
L 292.721879 333.513975 
L 292.721879 321.597859 
L 316.114682 321.597859 
L 316.114682 309.132763 
L 339.507485 309.132763 
L 339.507485 292.695628 
L 362.900288 292.695628 
L 362.900288 274.837602 
L 386.293091 274.837602 
L 386.293091 262.889193 
L 409.685894 262.889193 
L 409.685894 240.251804 
L 433.078697 240.251804 
L 433.078697 225.074096 
L 456.4715 225.074096 
L 456.4715 226.753331 
L 479.864303 226.753331 
L 479.864303 227.754414 
L 503.257106 227.754414 
L 503.257106 240.86537 
L 526.649909 240.86537 
L 526.649909 253.750276 
L 550.042712 253.750276 
L 550.042712 273.481296 
L 573.435515 273.481296 
L 573.435515 286.624545 
L 596.828318 286.624545 
L 596.828318 306.581617 
L 620.221121 306.581617 
L 620.221121 320.855121 
L 643.613924 320.855121 
L 643.613924 330.413847 
L 667.006727 330.413847 
L 667.006727 337.13079 
L 690.39953 337.13079 
L 690.39953 344.13837 
L 713.792333 344.13837 
L 713.792333 347.658307 
L 737.185136 347.658307 
L 737.185136 349.208371 
L 760.577939 349.208371 
L 760.577939 350.435505 
L 783.970742 350.435505 
L 783.970742 351.049071 
L 807.363545 351.049071 
L 807.363545 351.242829 
L 783.970742 351.242829 
L 783.970742 351.242829 
L 760.577939 351.242829 
L 760.577939 351.242829 
L 737.185136 351.242829 
L 737.185136 351.242829 
L 713.792333 351.242829 
L 713.792333 351.242829 
L 690.39953 351.242829 
L 690.39953 351.242829 
L 667.006727 351.242829 
L 667.006727 351.242829 
L 643.613924 351.242829 
L 643.613924 351.242829 
L 620.221121 351.242829 
L 620.221121 351.242829 
L 596.828318 351.242829 
L 596.828318 351.242829 
L 573.435515 351.242829 
L 573.435515 351.242829 
L 550.042712 351.242829 
L 550.042712 351.242829 
L 526.649909 351.242829 
L 526.649909 351.242829 
L 503.257106 351.242829 
L 503.257106 351.242829 
L 479.864303 351.242829 
L 479.864303 351.242829 
L 456.4715 351.242829 
L 456.4715 351.242829 
L 433.078697 351.242829 
L 433.078697 351.242829 
L 409.685894 351.242829 
L 409.685894 351.242829 
L 386.293091 351.242829 
L 386.293091 351.242829 
L 362.900288 351.242829 
L 362.900288 351.242829 
L 339.507485 351.242829 
L 339.507485 351.242829 
L 316.114682 351.242829 
L 316.114682 351.242829 
L 292.721879 351.242829 
L 292.721879 351.242829 
L 269.329076 351.242829 
L 269.329076 351.242829 
L 245.936273 351.242829 
L 245.936273 351.242829 
L 222.54347 351.242829 
L 222.54347 351.242829 
L 199.150667 351.242829 
L 199.150667 351.242829 
L 175.757864 351.242829 
L 175.757864 351.242829 
L 152.365061 351.242829 
L 152.365061 351.242829 
L 128.972258 351.242829 
L 128.972258 351.242829 
z
" style="fill:#7a68a6;opacity:0.85;"/>
   </g>
   <g id="matplotlib.axis_3">
    <g id="xtick_6">
     <g id="line2d_19">
      <path clip-path="url(#pa731b934ec)" d="M 179.98233 351.242829 
L 179.98233 218.765659 
" style="fill:none;stroke:#808080;stroke-dasharray:0.3,0.495;stroke-dashoffset:0;stroke-width:0.3;"/>
     </g>
     <g id="line2d_20">
      <g>
       <use style="stroke:#000000;stroke-width:0.8;" x="179.98233" xlink:href="#m5f02df2a33" y="351.242829"/>
      </g>
     </g>
     <g id="text_13">
      <!-- 43250 -->
      <defs>
       <path d="M 37.796875 64.3125 
L 12.890625 25.390625 
L 37.796875 25.390625 
z
M 35.203125 72.90625 
L 47.609375 72.90625 
L 47.609375 25.390625 
L 58.015625 25.390625 
L 58.015625 17.1875 
L 47.609375 17.1875 
L 47.609375 0 
L 37.796875 0 
L 37.796875 17.1875 
L 4.890625 17.1875 
L 4.890625 26.703125 
z
" id="DejaVuSans-52"/>
       <path d="M 19.1875 8.296875 
L 53.609375 8.296875 
L 53.609375 0 
L 7.328125 0 
L 7.328125 8.296875 
Q 12.9375 14.109375 22.625 23.890625 
Q 32.328125 33.6875 34.8125 36.53125 
Q 39.546875 41.84375 41.421875 45.53125 
Q 43.3125 49.21875 43.3125 52.78125 
Q 43.3125 58.59375 39.234375 62.25 
Q 35.15625 65.921875 28.609375 65.921875 
Q 23.96875 65.921875 18.8125 64.3125 
Q 13.671875 62.703125 7.8125 59.421875 
L 7.8125 69.390625 
Q 13.765625 71.78125 18.9375 73 
Q 24.125 74.21875 28.421875 74.21875 
Q 39.75 74.21875 46.484375 68.546875 
Q 53.21875 62.890625 53.21875 53.421875 
Q 53.21875 48.921875 51.53125 44.890625 
Q 49.859375 40.875 45.40625 35.40625 
Q 44.1875 33.984375 37.640625 27.21875 
Q 31.109375 20.453125 19.1875 8.296875 
z
" id="DejaVuSans-50"/>
      </defs>
      <g transform="translate(160.89483 367.360954)scale(0.12 -0.12)">
       <use xlink:href="#DejaVuSans-52"/>
       <use x="63.623047" xlink:href="#DejaVuSans-51"/>
       <use x="127.246094" xlink:href="#DejaVuSans-50"/>
       <use x="190.869141" xlink:href="#DejaVuSans-53"/>
       <use x="254.492188" xlink:href="#DejaVuSans-48"/>
      </g>
     </g>
    </g>
    <g id="xtick_7">
     <g id="line2d_21">
      <path clip-path="url(#pa731b934ec)" d="M 336.331319 351.242829 
L 336.331319 218.765659 
" style="fill:none;stroke:#808080;stroke-dasharray:0.3,0.495;stroke-dashoffset:0;stroke-width:0.3;"/>
     </g>
     <g id="line2d_22">
      <g>
       <use style="stroke:#000000;stroke-width:0.8;" x="336.331319" xlink:href="#m5f02df2a33" y="351.242829"/>
      </g>
     </g>
     <g id="text_14">
      <!-- 43300 -->
      <g transform="translate(317.243819 367.360954)scale(0.12 -0.12)">
       <use xlink:href="#DejaVuSans-52"/>
       <use x="63.623047" xlink:href="#DejaVuSans-51"/>
       <use x="127.246094" xlink:href="#DejaVuSans-51"/>
       <use x="190.869141" xlink:href="#DejaVuSans-48"/>
       <use x="254.492188" xlink:href="#DejaVuSans-48"/>
      </g>
     </g>
    </g>
    <g id="xtick_8">
     <g id="line2d_23">
      <path clip-path="url(#pa731b934ec)" d="M 492.680308 351.242829 
L 492.680308 218.765659 
" style="fill:none;stroke:#808080;stroke-dasharray:0.3,0.495;stroke-dashoffset:0;stroke-width:0.3;"/>
     </g>
     <g id="line2d_24">
      <g>
       <use style="stroke:#000000;stroke-width:0.8;" x="492.680308" xlink:href="#m5f02df2a33" y="351.242829"/>
      </g>
     </g>
     <g id="text_15">
      <!-- 43350 -->
      <g transform="translate(473.592808 367.360954)scale(0.12 -0.12)">
       <use xlink:href="#DejaVuSans-52"/>
       <use x="63.623047" xlink:href="#DejaVuSans-51"/>
       <use x="127.246094" xlink:href="#DejaVuSans-51"/>
       <use x="190.869141" xlink:href="#DejaVuSans-53"/>
       <use x="254.492188" xlink:href="#DejaVuSans-48"/>
      </g>
     </g>
    </g>
    <g id="xtick_9">
     <g id="line2d_25">
      <path clip-path="url(#pa731b934ec)" d="M 649.029297 351.242829 
L 649.029297 218.765659 
" style="fill:none;stroke:#808080;stroke-dasharray:0.3,0.495;stroke-dashoffset:0;stroke-width:0.3;"/>
     </g>
     <g id="line2d_26">
      <g>
       <use style="stroke:#000000;stroke-width:0.8;" x="649.029297" xlink:href="#m5f02df2a33" y="351.242829"/>
      </g>
     </g>
     <g id="text_16">
      <!-- 43400 -->
      <g transform="translate(629.941797 367.360954)scale(0.12 -0.12)">
       <use xlink:href="#DejaVuSans-52"/>
       <use x="63.623047" xlink:href="#DejaVuSans-51"/>
       <use x="127.246094" xlink:href="#DejaVuSans-52"/>
       <use x="190.869141" xlink:href="#DejaVuSans-48"/>
       <use x="254.492188" xlink:href="#DejaVuSans-48"/>
      </g>
     </g>
    </g>
    <g id="xtick_10">
     <g id="line2d_27">
      <path clip-path="url(#pa731b934ec)" d="M 805.378286 351.242829 
L 805.378286 218.765659 
" style="fill:none;stroke:#808080;stroke-dasharray:0.3,0.495;stroke-dashoffset:0;stroke-width:0.3;"/>
     </g>
     <g id="line2d_28">
      <g>
       <use style="stroke:#000000;stroke-width:0.8;" x="805.378286" xlink:href="#m5f02df2a33" y="351.242829"/>
      </g>
     </g>
     <g id="text_17">
      <!-- 43450 -->
      <g transform="translate(786.290786 367.360954)scale(0.12 -0.12)">
       <use xlink:href="#DejaVuSans-52"/>
       <use x="63.623047" xlink:href="#DejaVuSans-51"/>
       <use x="127.246094" xlink:href="#DejaVuSans-52"/>
       <use x="190.869141" xlink:href="#DejaVuSans-53"/>
       <use x="254.492188" xlink:href="#DejaVuSans-48"/>
      </g>
     </g>
    </g>
    <g id="text_18">
     <!-- $\lambda_2$ value -->
     <g transform="translate(426.8075 388.798329)scale(0.144 -0.144)">
      <use transform="translate(0 0.015625)" xlink:href="#DejaVuSans-Oblique-955"/>
      <use transform="translate(59.179688 -16.390625)scale(0.7)" xlink:href="#DejaVuSans-50"/>
      <use transform="translate(106.450195 0.015625)" xlink:href="#DejaVuSans-32"/>
      <use transform="translate(138.237305 0.015625)" xlink:href="#DejaVuSans-118"/>
      <use transform="translate(197.416992 0.015625)" xlink:href="#DejaVuSans-97"/>
      <use transform="translate(258.696289 0.015625)" xlink:href="#DejaVuSans-108"/>
      <use transform="translate(286.479492 0.015625)" xlink:href="#DejaVuSans-117"/>
      <use transform="translate(349.858398 0.015625)" xlink:href="#DejaVuSans-101"/>
     </g>
    </g>
   </g>
   <g id="matplotlib.axis_4">
    <g id="ytick_5">
     <g id="line2d_29">
      <path clip-path="url(#pa731b934ec)" d="M 70.49025 351.242829 
L 842.45275 351.242829 
" style="fill:none;stroke:#808080;stroke-dasharray:0.3,0.495;stroke-dashoffset:0;stroke-width:0.3;"/>
     </g>
     <g id="line2d_30">
      <g>
       <use style="stroke:#000000;stroke-width:0.8;" x="70.49025" xlink:href="#mdd9ddea56d" y="351.242829"/>
      </g>
     </g>
     <g id="text_19">
      <!-- 0.000 -->
      <g transform="translate(29.1365 355.801892)scale(0.12 -0.12)">
       <use xlink:href="#DejaVuSans-48"/>
       <use x="63.623047" xlink:href="#DejaVuSans-46"/>
       <use x="95.410156" xlink:href="#DejaVuSans-48"/>
       <use x="159.033203" xlink:href="#DejaVuSans-48"/>
       <use x="222.65625" xlink:href="#DejaVuSans-48"/>
      </g>
     </g>
    </g>
    <g id="ytick_6">
     <g id="line2d_31">
      <path clip-path="url(#pa731b934ec)" d="M 70.49025 302.926323 
L 842.45275 302.926323 
" style="fill:none;stroke:#808080;stroke-dasharray:0.3,0.495;stroke-dashoffset:0;stroke-width:0.3;"/>
     </g>
     <g id="line2d_32">
      <g>
       <use style="stroke:#000000;stroke-width:0.8;" x="70.49025" xlink:href="#mdd9ddea56d" y="302.926323"/>
      </g>
     </g>
     <g id="text_20">
      <!-- 0.005 -->
      <g transform="translate(29.1365 307.485386)scale(0.12 -0.12)">
       <use xlink:href="#DejaVuSans-48"/>
       <use x="63.623047" xlink:href="#DejaVuSans-46"/>
       <use x="95.410156" xlink:href="#DejaVuSans-48"/>
       <use x="159.033203" xlink:href="#DejaVuSans-48"/>
       <use x="222.65625" xlink:href="#DejaVuSans-53"/>
      </g>
     </g>
    </g>
    <g id="ytick_7">
     <g id="line2d_33">
      <path clip-path="url(#pa731b934ec)" d="M 70.49025 254.609817 
L 842.45275 254.609817 
" style="fill:none;stroke:#808080;stroke-dasharray:0.3,0.495;stroke-dashoffset:0;stroke-width:0.3;"/>
     </g>
     <g id="line2d_34">
      <g>
       <use style="stroke:#000000;stroke-width:0.8;" x="70.49025" xlink:href="#mdd9ddea56d" y="254.609817"/>
      </g>
     </g>
     <g id="text_21">
      <!-- 0.010 -->
      <g transform="translate(29.1365 259.16888)scale(0.12 -0.12)">
       <use xlink:href="#DejaVuSans-48"/>
       <use x="63.623047" xlink:href="#DejaVuSans-46"/>
       <use x="95.410156" xlink:href="#DejaVuSans-48"/>
       <use x="159.033203" xlink:href="#DejaVuSans-49"/>
       <use x="222.65625" xlink:href="#DejaVuSans-48"/>
      </g>
     </g>
    </g>
    <g id="text_22">
     <!-- Density -->
     <g transform="translate(18.14175 312.376619)rotate(-90)scale(0.144 -0.144)">
      <use xlink:href="#DejaVuSans-68"/>
      <use x="77.001953" xlink:href="#DejaVuSans-101"/>
      <use x="138.525391" xlink:href="#DejaVuSans-110"/>
      <use x="201.904297" xlink:href="#DejaVuSans-115"/>
      <use x="254.003906" xlink:href="#DejaVuSans-105"/>
      <use x="281.787109" xlink:href="#DejaVuSans-116"/>
      <use x="320.996094" xlink:href="#DejaVuSans-121"/>
     </g>
    </g>
   </g>
   <g id="patch_12">
    <path d="M 70.49025 351.242829 
L 70.49025 218.765659 
" style="fill:none;stroke:#000000;stroke-linecap:square;stroke-linejoin:miter;stroke-width:0.8;"/>
   </g>
   <g id="patch_13">
    <path d="M 842.45275 351.242829 
L 842.45275 218.765659 
" style="fill:none;stroke:#000000;stroke-linecap:square;stroke-linejoin:miter;stroke-width:0.8;"/>
   </g>
   <g id="patch_14">
    <path d="M 70.49025 351.242829 
L 842.45275 351.242829 
" style="fill:none;stroke:#000000;stroke-linecap:square;stroke-linejoin:miter;stroke-width:0.8;"/>
   </g>
   <g id="patch_15">
    <path d="M 70.49025 218.765659 
L 842.45275 218.765659 
" style="fill:none;stroke:#000000;stroke-linecap:square;stroke-linejoin:miter;stroke-width:0.8;"/>
   </g>
   <g id="legend_2">
    <g id="patch_16">
     <path d="M 78.89025 246.005659 
L 203.21025 246.005659 
Q 205.61025 246.005659 205.61025 243.605659 
L 205.61025 227.165659 
Q 205.61025 224.765659 203.21025 224.765659 
L 78.89025 224.765659 
Q 76.49025 224.765659 76.49025 227.165659 
L 76.49025 243.605659 
Q 76.49025 246.005659 78.89025 246.005659 
z
" style="fill:#ffffff;opacity:0.8;stroke:#cccccc;stroke-linejoin:miter;"/>
    </g>
    <g id="patch_17">
     <path d="M 81.29025 238.685659 
L 105.29025 238.685659 
L 105.29025 230.285659 
L 81.29025 230.285659 
z
" style="fill:#7a68a6;opacity:0.85;"/>
    </g>
    <g id="text_23">
     <!-- posterior of $\lambda_2$ -->
     <g transform="translate(114.89025 238.685659)scale(0.12 -0.12)">
      <use transform="translate(0 0.015625)" xlink:href="#DejaVuSans-112"/>
      <use transform="translate(63.476562 0.015625)" xlink:href="#DejaVuSans-111"/>
      <use transform="translate(124.658203 0.015625)" xlink:href="#DejaVuSans-115"/>
      <use transform="translate(176.757812 0.015625)" xlink:href="#DejaVuSans-116"/>
      <use transform="translate(215.966797 0.015625)" xlink:href="#DejaVuSans-101"/>
      <use transform="translate(277.490234 0.015625)" xlink:href="#DejaVuSans-114"/>
      <use transform="translate(318.603516 0.015625)" xlink:href="#DejaVuSans-105"/>
      <use transform="translate(346.386719 0.015625)" xlink:href="#DejaVuSans-111"/>
      <use transform="translate(407.568359 0.015625)" xlink:href="#DejaVuSans-114"/>
      <use transform="translate(448.681641 0.015625)" xlink:href="#DejaVuSans-32"/>
      <use transform="translate(480.46875 0.015625)" xlink:href="#DejaVuSans-111"/>
      <use transform="translate(541.650391 0.015625)" xlink:href="#DejaVuSans-102"/>
      <use transform="translate(576.855469 0.015625)" xlink:href="#DejaVuSans-32"/>
      <use transform="translate(608.642578 0.015625)" xlink:href="#DejaVuSans-Oblique-955"/>
      <use transform="translate(667.822266 -16.390625)scale(0.7)" xlink:href="#DejaVuSans-50"/>
     </g>
    </g>
   </g>
  </g>
  <g id="axes_3">
   <g id="patch_18">
    <path d="M 70.49025 539.92 
L 842.45275 539.92 
L 842.45275 407.442829 
L 70.49025 407.442829 
z
" style="fill:#ffffff;"/>
   </g>
   <g id="patch_19">
    <path clip-path="url(#pcad21e1250)" d="M 495.114299 539.92 
L 495.114299 539.92 
L 495.114299 539.92 
L 495.114299 539.92 
z
" style="fill:#467821;stroke:#467821;stroke-linejoin:miter;stroke-width:2;"/>
   </g>
   <g id="patch_20">
    <path clip-path="url(#pcad21e1250)" d="M 495.203646 539.92 
L 495.203646 539.92 
L 495.203646 539.92 
L 495.203646 539.92 
z
" style="fill:#467821;stroke:#467821;stroke-linejoin:miter;stroke-width:2;"/>
   </g>
   <g id="patch_21">
    <path clip-path="url(#pcad21e1250)" d="M 495.292994 539.92 
L 495.292994 539.92 
L 495.292994 539.92 
L 495.292994 539.92 
z
" style="fill:#467821;stroke:#467821;stroke-linejoin:miter;stroke-width:2;"/>
   </g>
   <g id="patch_22">
    <path clip-path="url(#pcad21e1250)" d="M 495.382341 539.92 
L 495.382341 539.92 
L 495.382341 539.92 
L 495.382341 539.92 
z
" style="fill:#467821;stroke:#467821;stroke-linejoin:miter;stroke-width:2;"/>
   </g>
   <g id="patch_23">
    <path clip-path="url(#pcad21e1250)" d="M 495.471689 539.92 
L 495.471689 539.92 
L 495.471689 539.92 
L 495.471689 539.92 
z
" style="fill:#467821;stroke:#467821;stroke-linejoin:miter;stroke-width:2;"/>
   </g>
   <g id="patch_24">
    <path clip-path="url(#pcad21e1250)" d="M 495.561036 539.92 
L 495.561036 539.92 
L 495.561036 539.92 
L 495.561036 539.92 
z
" style="fill:#467821;stroke:#467821;stroke-linejoin:miter;stroke-width:2;"/>
   </g>
   <g id="patch_25">
    <path clip-path="url(#pcad21e1250)" d="M 495.650384 539.92 
L 495.650384 539.92 
L 495.650384 539.92 
L 495.650384 539.92 
z
" style="fill:#467821;stroke:#467821;stroke-linejoin:miter;stroke-width:2;"/>
   </g>
   <g id="patch_26">
    <path clip-path="url(#pcad21e1250)" d="M 495.739731 539.92 
L 495.739731 539.92 
L 495.739731 539.92 
L 495.739731 539.92 
z
" style="fill:#467821;stroke:#467821;stroke-linejoin:miter;stroke-width:2;"/>
   </g>
   <g id="patch_27">
    <path clip-path="url(#pcad21e1250)" d="M 495.829079 539.92 
L 495.829079 539.92 
L 495.829079 539.92 
L 495.829079 539.92 
z
" style="fill:#467821;stroke:#467821;stroke-linejoin:miter;stroke-width:2;"/>
   </g>
   <g id="patch_28">
    <path clip-path="url(#pcad21e1250)" d="M 495.918426 539.92 
L 495.918426 539.92 
L 495.918426 539.92 
L 495.918426 539.92 
z
" style="fill:#467821;stroke:#467821;stroke-linejoin:miter;stroke-width:2;"/>
   </g>
   <g id="patch_29">
    <path clip-path="url(#pcad21e1250)" d="M 496.007774 539.92 
L 496.007774 539.92 
L 496.007774 539.92 
L 496.007774 539.92 
z
" style="fill:#467821;stroke:#467821;stroke-linejoin:miter;stroke-width:2;"/>
   </g>
   <g id="patch_30">
    <path clip-path="url(#pcad21e1250)" d="M 496.097121 539.92 
L 496.097121 539.92 
L 496.097121 539.92 
L 496.097121 539.92 
z
" style="fill:#467821;stroke:#467821;stroke-linejoin:miter;stroke-width:2;"/>
   </g>
   <g id="patch_31">
    <path clip-path="url(#pcad21e1250)" d="M 496.186469 539.92 
L 496.186469 539.92 
L 496.186469 539.92 
L 496.186469 539.92 
z
" style="fill:#467821;stroke:#467821;stroke-linejoin:miter;stroke-width:2;"/>
   </g>
   <g id="patch_32">
    <path clip-path="url(#pcad21e1250)" d="M 496.275816 539.92 
L 496.275816 539.92 
L 496.275816 539.92 
L 496.275816 539.92 
z
" style="fill:#467821;stroke:#467821;stroke-linejoin:miter;stroke-width:2;"/>
   </g>
   <g id="patch_33">
    <path clip-path="url(#pcad21e1250)" d="M 496.365164 539.92 
L 496.365164 539.92 
L 496.365164 539.92 
L 496.365164 539.92 
z
" style="fill:#467821;stroke:#467821;stroke-linejoin:miter;stroke-width:2;"/>
   </g>
   <g id="patch_34">
    <path clip-path="url(#pcad21e1250)" d="M 496.454511 539.92 
L 496.454511 539.92 
L 496.454511 539.92 
L 496.454511 539.92 
z
" style="fill:#467821;stroke:#467821;stroke-linejoin:miter;stroke-width:2;"/>
   </g>
   <g id="patch_35">
    <path clip-path="url(#pcad21e1250)" d="M 496.543859 539.92 
L 496.543859 539.92 
L 496.543859 539.92 
L 496.543859 539.92 
z
" style="fill:#467821;stroke:#467821;stroke-linejoin:miter;stroke-width:2;"/>
   </g>
   <g id="patch_36">
    <path clip-path="url(#pcad21e1250)" d="M 496.633206 539.92 
L 496.633206 539.92 
L 496.633206 539.92 
L 496.633206 539.92 
z
" style="fill:#467821;stroke:#467821;stroke-linejoin:miter;stroke-width:2;"/>
   </g>
   <g id="patch_37">
    <path clip-path="url(#pcad21e1250)" d="M 496.722554 539.92 
L 496.722554 539.92 
L 496.722554 539.92 
L 496.722554 539.92 
z
" style="fill:#467821;stroke:#467821;stroke-linejoin:miter;stroke-width:2;"/>
   </g>
   <g id="patch_38">
    <path clip-path="url(#pcad21e1250)" d="M 496.811901 539.92 
L 496.811901 539.92 
L 496.811901 539.92 
L 496.811901 539.92 
z
" style="fill:#467821;stroke:#467821;stroke-linejoin:miter;stroke-width:2;"/>
   </g>
   <g id="patch_39">
    <path clip-path="url(#pcad21e1250)" d="M 496.901249 539.92 
L 496.901249 539.92 
L 496.901249 539.92 
L 496.901249 539.92 
z
" style="fill:#467821;stroke:#467821;stroke-linejoin:miter;stroke-width:2;"/>
   </g>
   <g id="patch_40">
    <path clip-path="url(#pcad21e1250)" d="M 496.990596 539.92 
L 496.990596 539.92 
L 496.990596 539.92 
L 496.990596 539.92 
z
" style="fill:#467821;stroke:#467821;stroke-linejoin:miter;stroke-width:2;"/>
   </g>
   <g id="patch_41">
    <path clip-path="url(#pcad21e1250)" d="M 497.079944 539.92 
L 497.079944 539.92 
L 497.079944 539.92 
L 497.079944 539.92 
z
" style="fill:#467821;stroke:#467821;stroke-linejoin:miter;stroke-width:2;"/>
   </g>
   <g id="patch_42">
    <path clip-path="url(#pcad21e1250)" d="M 497.169292 539.92 
L 497.169292 539.92 
L 497.169292 539.92 
L 497.169292 539.92 
z
" style="fill:#467821;stroke:#467821;stroke-linejoin:miter;stroke-width:2;"/>
   </g>
   <g id="patch_43">
    <path clip-path="url(#pcad21e1250)" d="M 497.258639 539.92 
L 497.258639 539.92 
L 497.258639 539.92 
L 497.258639 539.92 
z
" style="fill:#467821;stroke:#467821;stroke-linejoin:miter;stroke-width:2;"/>
   </g>
   <g id="patch_44">
    <path clip-path="url(#pcad21e1250)" d="M 497.347987 539.92 
L 497.347987 539.92 
L 497.347987 539.92 
L 497.347987 539.92 
z
" style="fill:#467821;stroke:#467821;stroke-linejoin:miter;stroke-width:2;"/>
   </g>
   <g id="patch_45">
    <path clip-path="url(#pcad21e1250)" d="M 497.437334 539.92 
L 497.437334 539.92 
L 497.437334 539.92 
L 497.437334 539.92 
z
" style="fill:#467821;stroke:#467821;stroke-linejoin:miter;stroke-width:2;"/>
   </g>
   <g id="patch_46">
    <path clip-path="url(#pcad21e1250)" d="M 497.526682 539.92 
L 497.526682 539.92 
L 497.526682 539.92 
L 497.526682 539.92 
z
" style="fill:#467821;stroke:#467821;stroke-linejoin:miter;stroke-width:2;"/>
   </g>
   <g id="patch_47">
    <path clip-path="url(#pcad21e1250)" d="M 497.616029 539.92 
L 497.616029 539.92 
L 497.616029 539.92 
L 497.616029 539.92 
z
" style="fill:#467821;stroke:#467821;stroke-linejoin:miter;stroke-width:2;"/>
   </g>
   <g id="patch_48">
    <path clip-path="url(#pcad21e1250)" d="M 497.705377 539.92 
L 497.705377 539.92 
L 497.705377 539.92 
L 497.705377 539.92 
z
" style="fill:#467821;stroke:#467821;stroke-linejoin:miter;stroke-width:2;"/>
   </g>
   <g id="patch_49">
    <path clip-path="url(#pcad21e1250)" d="M 497.794724 539.92 
L 497.794724 539.92 
L 497.794724 539.92 
L 497.794724 539.92 
z
" style="fill:#467821;stroke:#467821;stroke-linejoin:miter;stroke-width:2;"/>
   </g>
   <g id="patch_50">
    <path clip-path="url(#pcad21e1250)" d="M 497.884072 539.92 
L 497.884072 539.92 
L 497.884072 539.92 
L 497.884072 539.92 
z
" style="fill:#467821;stroke:#467821;stroke-linejoin:miter;stroke-width:2;"/>
   </g>
   <g id="patch_51">
    <path clip-path="url(#pcad21e1250)" d="M 497.973419 539.92 
L 497.973419 539.92 
L 497.973419 539.92 
L 497.973419 539.92 
z
" style="fill:#467821;stroke:#467821;stroke-linejoin:miter;stroke-width:2;"/>
   </g>
   <g id="patch_52">
    <path clip-path="url(#pcad21e1250)" d="M 498.062767 539.92 
L 498.062767 539.92 
L 498.062767 539.92 
L 498.062767 539.92 
z
" style="fill:#467821;stroke:#467821;stroke-linejoin:miter;stroke-width:2;"/>
   </g>
   <g id="patch_53">
    <path clip-path="url(#pcad21e1250)" d="M 498.152114 539.92 
L 498.152114 539.92 
L 498.152114 539.92 
L 498.152114 539.92 
z
" style="fill:#467821;stroke:#467821;stroke-linejoin:miter;stroke-width:2;"/>
   </g>
   <g id="patch_54">
    <path clip-path="url(#pcad21e1250)" d="M 498.241462 539.92 
L 498.241462 539.92 
L 498.241462 539.92 
L 498.241462 539.92 
z
" style="fill:#467821;stroke:#467821;stroke-linejoin:miter;stroke-width:2;"/>
   </g>
   <g id="patch_55">
    <path clip-path="url(#pcad21e1250)" d="M 498.330809 539.92 
L 498.330809 539.92 
L 498.330809 539.92 
L 498.330809 539.92 
z
" style="fill:#467821;stroke:#467821;stroke-linejoin:miter;stroke-width:2;"/>
   </g>
   <g id="patch_56">
    <path clip-path="url(#pcad21e1250)" d="M 498.420157 539.92 
L 498.420157 539.92 
L 498.420157 539.92 
L 498.420157 539.92 
z
" style="fill:#467821;stroke:#467821;stroke-linejoin:miter;stroke-width:2;"/>
   </g>
   <g id="patch_57">
    <path clip-path="url(#pcad21e1250)" d="M 498.509504 539.92 
L 498.509504 539.92 
L 498.509504 539.92 
L 498.509504 539.92 
z
" style="fill:#467821;stroke:#467821;stroke-linejoin:miter;stroke-width:2;"/>
   </g>
   <g id="patch_58">
    <path clip-path="url(#pcad21e1250)" d="M 498.598852 539.92 
L 498.598852 539.92 
L 498.598852 539.92 
L 498.598852 539.92 
z
" style="fill:#467821;stroke:#467821;stroke-linejoin:miter;stroke-width:2;"/>
   </g>
   <g id="patch_59">
    <path clip-path="url(#pcad21e1250)" d="M 498.688199 539.92 
L 498.688199 539.92 
L 498.688199 539.92 
L 498.688199 539.92 
z
" style="fill:#467821;stroke:#467821;stroke-linejoin:miter;stroke-width:2;"/>
   </g>
   <g id="patch_60">
    <path clip-path="url(#pcad21e1250)" d="M 498.777547 539.92 
L 498.777547 539.92 
L 498.777547 539.92 
L 498.777547 539.92 
z
" style="fill:#467821;stroke:#467821;stroke-linejoin:miter;stroke-width:2;"/>
   </g>
   <g id="patch_61">
    <path clip-path="url(#pcad21e1250)" d="M 498.866894 539.92 
L 498.866894 539.92 
L 498.866894 539.92 
L 498.866894 539.92 
z
" style="fill:#467821;stroke:#467821;stroke-linejoin:miter;stroke-width:2;"/>
   </g>
   <g id="patch_62">
    <path clip-path="url(#pcad21e1250)" d="M 498.956242 539.92 
L 498.956242 539.92 
L 498.956242 539.92 
L 498.956242 539.92 
z
" style="fill:#467821;stroke:#467821;stroke-linejoin:miter;stroke-width:2;"/>
   </g>
   <g id="patch_63">
    <path clip-path="url(#pcad21e1250)" d="M 499.045589 539.92 
L 499.045589 539.92 
L 499.045589 539.92 
L 499.045589 539.92 
z
" style="fill:#467821;stroke:#467821;stroke-linejoin:miter;stroke-width:2;"/>
   </g>
   <g id="patch_64">
    <path clip-path="url(#pcad21e1250)" d="M 499.134937 539.92 
L 499.134937 539.92 
L 499.134937 539.92 
L 499.134937 539.92 
z
" style="fill:#467821;stroke:#467821;stroke-linejoin:miter;stroke-width:2;"/>
   </g>
   <g id="patch_65">
    <path clip-path="url(#pcad21e1250)" d="M 499.224284 539.92 
L 499.224284 539.92 
L 499.224284 539.92 
L 499.224284 539.92 
z
" style="fill:#467821;stroke:#467821;stroke-linejoin:miter;stroke-width:2;"/>
   </g>
   <g id="patch_66">
    <path clip-path="url(#pcad21e1250)" d="M 499.313632 539.92 
L 499.313632 539.92 
L 499.313632 539.92 
L 499.313632 539.92 
z
" style="fill:#467821;stroke:#467821;stroke-linejoin:miter;stroke-width:2;"/>
   </g>
   <g id="patch_67">
    <path clip-path="url(#pcad21e1250)" d="M 499.402979 539.92 
L 499.402979 539.92 
L 499.402979 413.751266 
L 499.402979 413.751266 
z
" style="fill:#467821;stroke:#467821;stroke-linejoin:miter;stroke-width:2;"/>
   </g>
   <g id="patch_68">
    <path clip-path="url(#pcad21e1250)" d="M 499.492327 539.92 
L 499.492327 539.92 
L 499.492327 539.92 
L 499.492327 539.92 
z
" style="fill:#467821;stroke:#467821;stroke-linejoin:miter;stroke-width:2;"/>
   </g>
   <g id="patch_69">
    <path clip-path="url(#pcad21e1250)" d="M 499.581674 539.92 
L 499.581674 539.92 
L 499.581674 539.92 
L 499.581674 539.92 
z
" style="fill:#467821;stroke:#467821;stroke-linejoin:miter;stroke-width:2;"/>
   </g>
   <g id="patch_70">
    <path clip-path="url(#pcad21e1250)" d="M 499.671022 539.92 
L 499.671022 539.92 
L 499.671022 539.92 
L 499.671022 539.92 
z
" style="fill:#467821;stroke:#467821;stroke-linejoin:miter;stroke-width:2;"/>
   </g>
   <g id="patch_71">
    <path clip-path="url(#pcad21e1250)" d="M 499.760369 539.92 
L 499.760369 539.92 
L 499.760369 539.92 
L 499.760369 539.92 
z
" style="fill:#467821;stroke:#467821;stroke-linejoin:miter;stroke-width:2;"/>
   </g>
   <g id="patch_72">
    <path clip-path="url(#pcad21e1250)" d="M 499.849717 539.92 
L 499.849717 539.92 
L 499.849717 539.92 
L 499.849717 539.92 
z
" style="fill:#467821;stroke:#467821;stroke-linejoin:miter;stroke-width:2;"/>
   </g>
   <g id="patch_73">
    <path clip-path="url(#pcad21e1250)" d="M 499.939064 539.92 
L 499.939064 539.92 
L 499.939064 539.92 
L 499.939064 539.92 
z
" style="fill:#467821;stroke:#467821;stroke-linejoin:miter;stroke-width:2;"/>
   </g>
   <g id="patch_74">
    <path clip-path="url(#pcad21e1250)" d="M 500.028412 539.92 
L 500.028412 539.92 
L 500.028412 539.92 
L 500.028412 539.92 
z
" style="fill:#467821;stroke:#467821;stroke-linejoin:miter;stroke-width:2;"/>
   </g>
   <g id="patch_75">
    <path clip-path="url(#pcad21e1250)" d="M 500.117759 539.92 
L 500.117759 539.92 
L 500.117759 539.92 
L 500.117759 539.92 
z
" style="fill:#467821;stroke:#467821;stroke-linejoin:miter;stroke-width:2;"/>
   </g>
   <g id="patch_76">
    <path clip-path="url(#pcad21e1250)" d="M 500.207107 539.92 
L 500.207107 539.92 
L 500.207107 539.92 
L 500.207107 539.92 
z
" style="fill:#467821;stroke:#467821;stroke-linejoin:miter;stroke-width:2;"/>
   </g>
   <g id="patch_77">
    <path clip-path="url(#pcad21e1250)" d="M 500.296454 539.92 
L 500.296454 539.92 
L 500.296454 539.92 
L 500.296454 539.92 
z
" style="fill:#467821;stroke:#467821;stroke-linejoin:miter;stroke-width:2;"/>
   </g>
   <g id="patch_78">
    <path clip-path="url(#pcad21e1250)" d="M 500.385802 539.92 
L 500.385802 539.92 
L 500.385802 539.92 
L 500.385802 539.92 
z
" style="fill:#467821;stroke:#467821;stroke-linejoin:miter;stroke-width:2;"/>
   </g>
   <g id="patch_79">
    <path clip-path="url(#pcad21e1250)" d="M 500.475149 539.92 
L 500.475149 539.92 
L 500.475149 539.92 
L 500.475149 539.92 
z
" style="fill:#467821;stroke:#467821;stroke-linejoin:miter;stroke-width:2;"/>
   </g>
   <g id="patch_80">
    <path clip-path="url(#pcad21e1250)" d="M 500.564497 539.92 
L 500.564497 539.92 
L 500.564497 539.92 
L 500.564497 539.92 
z
" style="fill:#467821;stroke:#467821;stroke-linejoin:miter;stroke-width:2;"/>
   </g>
   <g id="patch_81">
    <path clip-path="url(#pcad21e1250)" d="M 500.653844 539.92 
L 500.653844 539.92 
L 500.653844 539.92 
L 500.653844 539.92 
z
" style="fill:#467821;stroke:#467821;stroke-linejoin:miter;stroke-width:2;"/>
   </g>
   <g id="patch_82">
    <path clip-path="url(#pcad21e1250)" d="M 500.743192 539.92 
L 500.743192 539.92 
L 500.743192 539.92 
L 500.743192 539.92 
z
" style="fill:#467821;stroke:#467821;stroke-linejoin:miter;stroke-width:2;"/>
   </g>
   <g id="patch_83">
    <path clip-path="url(#pcad21e1250)" d="M 500.832539 539.92 
L 500.832539 539.92 
L 500.832539 539.92 
L 500.832539 539.92 
z
" style="fill:#467821;stroke:#467821;stroke-linejoin:miter;stroke-width:2;"/>
   </g>
   <g id="patch_84">
    <path clip-path="url(#pcad21e1250)" d="M 500.921887 539.92 
L 500.921887 539.92 
L 500.921887 539.92 
L 500.921887 539.92 
z
" style="fill:#467821;stroke:#467821;stroke-linejoin:miter;stroke-width:2;"/>
   </g>
   <g id="patch_85">
    <path clip-path="url(#pcad21e1250)" d="M 501.011235 539.92 
L 501.011235 539.92 
L 501.011235 539.92 
L 501.011235 539.92 
z
" style="fill:#467821;stroke:#467821;stroke-linejoin:miter;stroke-width:2;"/>
   </g>
   <g id="patch_86">
    <path clip-path="url(#pcad21e1250)" d="M 501.100582 539.92 
L 501.100582 539.92 
L 501.100582 539.92 
L 501.100582 539.92 
z
" style="fill:#467821;stroke:#467821;stroke-linejoin:miter;stroke-width:2;"/>
   </g>
   <g id="patch_87">
    <path clip-path="url(#pcad21e1250)" d="M 501.18993 539.92 
L 501.18993 539.92 
L 501.18993 539.92 
L 501.18993 539.92 
z
" style="fill:#467821;stroke:#467821;stroke-linejoin:miter;stroke-width:2;"/>
   </g>
   <g id="patch_88">
    <path clip-path="url(#pcad21e1250)" d="M 501.279277 539.92 
L 501.279277 539.92 
L 501.279277 539.92 
L 501.279277 539.92 
z
" style="fill:#467821;stroke:#467821;stroke-linejoin:miter;stroke-width:2;"/>
   </g>
   <g id="patch_89">
    <path clip-path="url(#pcad21e1250)" d="M 501.368625 539.92 
L 501.368625 539.92 
L 501.368625 539.92 
L 501.368625 539.92 
z
" style="fill:#467821;stroke:#467821;stroke-linejoin:miter;stroke-width:2;"/>
   </g>
   <g id="patch_90">
    <path clip-path="url(#pcad21e1250)" d="M 501.457972 539.92 
L 501.457972 539.92 
L 501.457972 539.92 
L 501.457972 539.92 
z
" style="fill:#467821;stroke:#467821;stroke-linejoin:miter;stroke-width:2;"/>
   </g>
   <g id="patch_91">
    <path clip-path="url(#pcad21e1250)" d="M 501.54732 539.92 
L 501.54732 539.92 
L 501.54732 539.92 
L 501.54732 539.92 
z
" style="fill:#467821;stroke:#467821;stroke-linejoin:miter;stroke-width:2;"/>
   </g>
   <g id="patch_92">
    <path clip-path="url(#pcad21e1250)" d="M 501.636667 539.92 
L 501.636667 539.92 
L 501.636667 539.92 
L 501.636667 539.92 
z
" style="fill:#467821;stroke:#467821;stroke-linejoin:miter;stroke-width:2;"/>
   </g>
   <g id="patch_93">
    <path clip-path="url(#pcad21e1250)" d="M 501.726015 539.92 
L 501.726015 539.92 
L 501.726015 539.92 
L 501.726015 539.92 
z
" style="fill:#467821;stroke:#467821;stroke-linejoin:miter;stroke-width:2;"/>
   </g>
   <g id="patch_94">
    <path clip-path="url(#pcad21e1250)" d="M 501.815362 539.92 
L 501.815362 539.92 
L 501.815362 539.92 
L 501.815362 539.92 
z
" style="fill:#467821;stroke:#467821;stroke-linejoin:miter;stroke-width:2;"/>
   </g>
   <g id="patch_95">
    <path clip-path="url(#pcad21e1250)" d="M 501.90471 539.92 
L 501.90471 539.92 
L 501.90471 539.92 
L 501.90471 539.92 
z
" style="fill:#467821;stroke:#467821;stroke-linejoin:miter;stroke-width:2;"/>
   </g>
   <g id="patch_96">
    <path clip-path="url(#pcad21e1250)" d="M 501.994057 539.92 
L 501.994057 539.92 
L 501.994057 539.92 
L 501.994057 539.92 
z
" style="fill:#467821;stroke:#467821;stroke-linejoin:miter;stroke-width:2;"/>
   </g>
   <g id="patch_97">
    <path clip-path="url(#pcad21e1250)" d="M 502.083405 539.92 
L 502.083405 539.92 
L 502.083405 539.92 
L 502.083405 539.92 
z
" style="fill:#467821;stroke:#467821;stroke-linejoin:miter;stroke-width:2;"/>
   </g>
   <g id="patch_98">
    <path clip-path="url(#pcad21e1250)" d="M 502.172752 539.92 
L 502.172752 539.92 
L 502.172752 539.92 
L 502.172752 539.92 
z
" style="fill:#467821;stroke:#467821;stroke-linejoin:miter;stroke-width:2;"/>
   </g>
   <g id="patch_99">
    <path clip-path="url(#pcad21e1250)" d="M 502.2621 539.92 
L 502.2621 539.92 
L 502.2621 539.92 
L 502.2621 539.92 
z
" style="fill:#467821;stroke:#467821;stroke-linejoin:miter;stroke-width:2;"/>
   </g>
   <g id="patch_100">
    <path clip-path="url(#pcad21e1250)" d="M 502.351447 539.92 
L 502.351447 539.92 
L 502.351447 539.92 
L 502.351447 539.92 
z
" style="fill:#467821;stroke:#467821;stroke-linejoin:miter;stroke-width:2;"/>
   </g>
   <g id="patch_101">
    <path clip-path="url(#pcad21e1250)" d="M 502.440795 539.92 
L 502.440795 539.92 
L 502.440795 539.92 
L 502.440795 539.92 
z
" style="fill:#467821;stroke:#467821;stroke-linejoin:miter;stroke-width:2;"/>
   </g>
   <g id="patch_102">
    <path clip-path="url(#pcad21e1250)" d="M 502.530142 539.92 
L 502.530142 539.92 
L 502.530142 539.92 
L 502.530142 539.92 
z
" style="fill:#467821;stroke:#467821;stroke-linejoin:miter;stroke-width:2;"/>
   </g>
   <g id="patch_103">
    <path clip-path="url(#pcad21e1250)" d="M 502.61949 539.92 
L 502.61949 539.92 
L 502.61949 539.92 
L 502.61949 539.92 
z
" style="fill:#467821;stroke:#467821;stroke-linejoin:miter;stroke-width:2;"/>
   </g>
   <g id="patch_104">
    <path clip-path="url(#pcad21e1250)" d="M 502.708837 539.92 
L 502.708837 539.92 
L 502.708837 539.92 
L 502.708837 539.92 
z
" style="fill:#467821;stroke:#467821;stroke-linejoin:miter;stroke-width:2;"/>
   </g>
   <g id="patch_105">
    <path clip-path="url(#pcad21e1250)" d="M 502.798185 539.92 
L 502.798185 539.92 
L 502.798185 539.92 
L 502.798185 539.92 
z
" style="fill:#467821;stroke:#467821;stroke-linejoin:miter;stroke-width:2;"/>
   </g>
   <g id="patch_106">
    <path clip-path="url(#pcad21e1250)" d="M 502.887532 539.92 
L 502.887532 539.92 
L 502.887532 539.92 
L 502.887532 539.92 
z
" style="fill:#467821;stroke:#467821;stroke-linejoin:miter;stroke-width:2;"/>
   </g>
   <g id="patch_107">
    <path clip-path="url(#pcad21e1250)" d="M 502.97688 539.92 
L 502.97688 539.92 
L 502.97688 539.92 
L 502.97688 539.92 
z
" style="fill:#467821;stroke:#467821;stroke-linejoin:miter;stroke-width:2;"/>
   </g>
   <g id="patch_108">
    <path clip-path="url(#pcad21e1250)" d="M 503.066227 539.92 
L 503.066227 539.92 
L 503.066227 539.92 
L 503.066227 539.92 
z
" style="fill:#467821;stroke:#467821;stroke-linejoin:miter;stroke-width:2;"/>
   </g>
   <g id="patch_109">
    <path clip-path="url(#pcad21e1250)" d="M 503.155575 539.92 
L 503.155575 539.92 
L 503.155575 539.92 
L 503.155575 539.92 
z
" style="fill:#467821;stroke:#467821;stroke-linejoin:miter;stroke-width:2;"/>
   </g>
   <g id="patch_110">
    <path clip-path="url(#pcad21e1250)" d="M 503.244922 539.92 
L 503.244922 539.92 
L 503.244922 539.92 
L 503.244922 539.92 
z
" style="fill:#467821;stroke:#467821;stroke-linejoin:miter;stroke-width:2;"/>
   </g>
   <g id="patch_111">
    <path clip-path="url(#pcad21e1250)" d="M 503.33427 539.92 
L 503.33427 539.92 
L 503.33427 539.92 
L 503.33427 539.92 
z
" style="fill:#467821;stroke:#467821;stroke-linejoin:miter;stroke-width:2;"/>
   </g>
   <g id="patch_112">
    <path clip-path="url(#pcad21e1250)" d="M 503.423617 539.92 
L 503.423617 539.92 
L 503.423617 539.92 
L 503.423617 539.92 
z
" style="fill:#467821;stroke:#467821;stroke-linejoin:miter;stroke-width:2;"/>
   </g>
   <g id="patch_113">
    <path clip-path="url(#pcad21e1250)" d="M 503.512965 539.92 
L 503.512965 539.92 
L 503.512965 539.92 
L 503.512965 539.92 
z
" style="fill:#467821;stroke:#467821;stroke-linejoin:miter;stroke-width:2;"/>
   </g>
   <g id="patch_114">
    <path clip-path="url(#pcad21e1250)" d="M 503.602312 539.92 
L 503.602312 539.92 
L 503.602312 539.92 
L 503.602312 539.92 
z
" style="fill:#467821;stroke:#467821;stroke-linejoin:miter;stroke-width:2;"/>
   </g>
   <g id="matplotlib.axis_5">
    <g id="xtick_11">
     <g id="line2d_35">
      <path clip-path="url(#pcad21e1250)" d="M 70.49025 539.92 
L 70.49025 407.442829 
" style="fill:none;stroke:#808080;stroke-dasharray:0.3,0.495;stroke-dashoffset:0;stroke-width:0.3;"/>
     </g>
     <g id="line2d_36">
      <g>
       <use style="stroke:#000000;stroke-width:0.8;" x="70.49025" xlink:href="#m5f02df2a33" y="539.92"/>
      </g>
     </g>
     <g id="text_24">
      <!-- 0 -->
      <g transform="translate(66.67275 556.038125)scale(0.12 -0.12)">
       <use xlink:href="#DejaVuSans-48"/>
      </g>
     </g>
    </g>
    <g id="xtick_12">
     <g id="line2d_37">
      <path clip-path="url(#pcad21e1250)" d="M 121.954417 539.92 
L 121.954417 407.442829 
" style="fill:none;stroke:#808080;stroke-dasharray:0.3,0.495;stroke-dashoffset:0;stroke-width:0.3;"/>
     </g>
     <g id="line2d_38">
      <g>
       <use style="stroke:#000000;stroke-width:0.8;" x="121.954417" xlink:href="#m5f02df2a33" y="539.92"/>
      </g>
     </g>
     <g id="text_25">
      <!-- 6 -->
      <g transform="translate(118.136917 556.038125)scale(0.12 -0.12)">
       <use xlink:href="#DejaVuSans-54"/>
      </g>
     </g>
    </g>
    <g id="xtick_13">
     <g id="line2d_39">
      <path clip-path="url(#pcad21e1250)" d="M 173.418583 539.92 
L 173.418583 407.442829 
" style="fill:none;stroke:#808080;stroke-dasharray:0.3,0.495;stroke-dashoffset:0;stroke-width:0.3;"/>
     </g>
     <g id="line2d_40">
      <g>
       <use style="stroke:#000000;stroke-width:0.8;" x="173.418583" xlink:href="#m5f02df2a33" y="539.92"/>
      </g>
     </g>
     <g id="text_26">
      <!-- 12 -->
      <g transform="translate(165.783583 556.038125)scale(0.12 -0.12)">
       <use xlink:href="#DejaVuSans-49"/>
       <use x="63.623047" xlink:href="#DejaVuSans-50"/>
      </g>
     </g>
    </g>
    <g id="xtick_14">
     <g id="line2d_41">
      <path clip-path="url(#pcad21e1250)" d="M 224.88275 539.92 
L 224.88275 407.442829 
" style="fill:none;stroke:#808080;stroke-dasharray:0.3,0.495;stroke-dashoffset:0;stroke-width:0.3;"/>
     </g>
     <g id="line2d_42">
      <g>
       <use style="stroke:#000000;stroke-width:0.8;" x="224.88275" xlink:href="#m5f02df2a33" y="539.92"/>
      </g>
     </g>
     <g id="text_27">
      <!-- 18 -->
      <defs>
       <path d="M 31.78125 34.625 
Q 24.75 34.625 20.71875 30.859375 
Q 16.703125 27.09375 16.703125 20.515625 
Q 16.703125 13.921875 20.71875 10.15625 
Q 24.75 6.390625 31.78125 6.390625 
Q 38.8125 6.390625 42.859375 10.171875 
Q 46.921875 13.96875 46.921875 20.515625 
Q 46.921875 27.09375 42.890625 30.859375 
Q 38.875 34.625 31.78125 34.625 
z
M 21.921875 38.8125 
Q 15.578125 40.375 12.03125 44.71875 
Q 8.5 49.078125 8.5 55.328125 
Q 8.5 64.0625 14.71875 69.140625 
Q 20.953125 74.21875 31.78125 74.21875 
Q 42.671875 74.21875 48.875 69.140625 
Q 55.078125 64.0625 55.078125 55.328125 
Q 55.078125 49.078125 51.53125 44.71875 
Q 48 40.375 41.703125 38.8125 
Q 48.828125 37.15625 52.796875 32.3125 
Q 56.78125 27.484375 56.78125 20.515625 
Q 56.78125 9.90625 50.3125 4.234375 
Q 43.84375 -1.421875 31.78125 -1.421875 
Q 19.734375 -1.421875 13.25 4.234375 
Q 6.78125 9.90625 6.78125 20.515625 
Q 6.78125 27.484375 10.78125 32.3125 
Q 14.796875 37.15625 21.921875 38.8125 
z
M 18.3125 54.390625 
Q 18.3125 48.734375 21.84375 45.5625 
Q 25.390625 42.390625 31.78125 42.390625 
Q 38.140625 42.390625 41.71875 45.5625 
Q 45.3125 48.734375 45.3125 54.390625 
Q 45.3125 60.0625 41.71875 63.234375 
Q 38.140625 66.40625 31.78125 66.40625 
Q 25.390625 66.40625 21.84375 63.234375 
Q 18.3125 60.0625 18.3125 54.390625 
z
" id="DejaVuSans-56"/>
      </defs>
      <g transform="translate(217.24775 556.038125)scale(0.12 -0.12)">
       <use xlink:href="#DejaVuSans-49"/>
       <use x="63.623047" xlink:href="#DejaVuSans-56"/>
      </g>
     </g>
    </g>
    <g id="xtick_15">
     <g id="line2d_43">
      <path clip-path="url(#pcad21e1250)" d="M 276.346917 539.92 
L 276.346917 407.442829 
" style="fill:none;stroke:#808080;stroke-dasharray:0.3,0.495;stroke-dashoffset:0;stroke-width:0.3;"/>
     </g>
     <g id="line2d_44">
      <g>
       <use style="stroke:#000000;stroke-width:0.8;" x="276.346917" xlink:href="#m5f02df2a33" y="539.92"/>
      </g>
     </g>
     <g id="text_28">
      <!-- 24 -->
      <g transform="translate(268.711917 556.038125)scale(0.12 -0.12)">
       <use xlink:href="#DejaVuSans-50"/>
       <use x="63.623047" xlink:href="#DejaVuSans-52"/>
      </g>
     </g>
    </g>
    <g id="xtick_16">
     <g id="line2d_45">
      <path clip-path="url(#pcad21e1250)" d="M 327.811083 539.92 
L 327.811083 407.442829 
" style="fill:none;stroke:#808080;stroke-dasharray:0.3,0.495;stroke-dashoffset:0;stroke-width:0.3;"/>
     </g>
     <g id="line2d_46">
      <g>
       <use style="stroke:#000000;stroke-width:0.8;" x="327.811083" xlink:href="#m5f02df2a33" y="539.92"/>
      </g>
     </g>
     <g id="text_29">
      <!-- 30 -->
      <g transform="translate(320.176083 556.038125)scale(0.12 -0.12)">
       <use xlink:href="#DejaVuSans-51"/>
       <use x="63.623047" xlink:href="#DejaVuSans-48"/>
      </g>
     </g>
    </g>
    <g id="xtick_17">
     <g id="line2d_47">
      <path clip-path="url(#pcad21e1250)" d="M 379.27525 539.92 
L 379.27525 407.442829 
" style="fill:none;stroke:#808080;stroke-dasharray:0.3,0.495;stroke-dashoffset:0;stroke-width:0.3;"/>
     </g>
     <g id="line2d_48">
      <g>
       <use style="stroke:#000000;stroke-width:0.8;" x="379.27525" xlink:href="#m5f02df2a33" y="539.92"/>
      </g>
     </g>
     <g id="text_30">
      <!-- 36 -->
      <g transform="translate(371.64025 556.038125)scale(0.12 -0.12)">
       <use xlink:href="#DejaVuSans-51"/>
       <use x="63.623047" xlink:href="#DejaVuSans-54"/>
      </g>
     </g>
    </g>
    <g id="xtick_18">
     <g id="line2d_49">
      <path clip-path="url(#pcad21e1250)" d="M 430.739417 539.92 
L 430.739417 407.442829 
" style="fill:none;stroke:#808080;stroke-dasharray:0.3,0.495;stroke-dashoffset:0;stroke-width:0.3;"/>
     </g>
     <g id="line2d_50">
      <g>
       <use style="stroke:#000000;stroke-width:0.8;" x="430.739417" xlink:href="#m5f02df2a33" y="539.92"/>
      </g>
     </g>
     <g id="text_31">
      <!-- 42 -->
      <g transform="translate(423.104417 556.038125)scale(0.12 -0.12)">
       <use xlink:href="#DejaVuSans-52"/>
       <use x="63.623047" xlink:href="#DejaVuSans-50"/>
      </g>
     </g>
    </g>
    <g id="xtick_19">
     <g id="line2d_51">
      <path clip-path="url(#pcad21e1250)" d="M 482.203583 539.92 
L 482.203583 407.442829 
" style="fill:none;stroke:#808080;stroke-dasharray:0.3,0.495;stroke-dashoffset:0;stroke-width:0.3;"/>
     </g>
     <g id="line2d_52">
      <g>
       <use style="stroke:#000000;stroke-width:0.8;" x="482.203583" xlink:href="#m5f02df2a33" y="539.92"/>
      </g>
     </g>
     <g id="text_32">
      <!-- 48 -->
      <g transform="translate(474.568583 556.038125)scale(0.12 -0.12)">
       <use xlink:href="#DejaVuSans-52"/>
       <use x="63.623047" xlink:href="#DejaVuSans-56"/>
      </g>
     </g>
    </g>
    <g id="xtick_20">
     <g id="line2d_53">
      <path clip-path="url(#pcad21e1250)" d="M 533.66775 539.92 
L 533.66775 407.442829 
" style="fill:none;stroke:#808080;stroke-dasharray:0.3,0.495;stroke-dashoffset:0;stroke-width:0.3;"/>
     </g>
     <g id="line2d_54">
      <g>
       <use style="stroke:#000000;stroke-width:0.8;" x="533.66775" xlink:href="#m5f02df2a33" y="539.92"/>
      </g>
     </g>
     <g id="text_33">
      <!-- 54 -->
      <g transform="translate(526.03275 556.038125)scale(0.12 -0.12)">
       <use xlink:href="#DejaVuSans-53"/>
       <use x="63.623047" xlink:href="#DejaVuSans-52"/>
      </g>
     </g>
    </g>
    <g id="xtick_21">
     <g id="line2d_55">
      <path clip-path="url(#pcad21e1250)" d="M 585.131917 539.92 
L 585.131917 407.442829 
" style="fill:none;stroke:#808080;stroke-dasharray:0.3,0.495;stroke-dashoffset:0;stroke-width:0.3;"/>
     </g>
     <g id="line2d_56">
      <g>
       <use style="stroke:#000000;stroke-width:0.8;" x="585.131917" xlink:href="#m5f02df2a33" y="539.92"/>
      </g>
     </g>
     <g id="text_34">
      <!-- 60 -->
      <g transform="translate(577.496917 556.038125)scale(0.12 -0.12)">
       <use xlink:href="#DejaVuSans-54"/>
       <use x="63.623047" xlink:href="#DejaVuSans-48"/>
      </g>
     </g>
    </g>
    <g id="xtick_22">
     <g id="line2d_57">
      <path clip-path="url(#pcad21e1250)" d="M 636.596083 539.92 
L 636.596083 407.442829 
" style="fill:none;stroke:#808080;stroke-dasharray:0.3,0.495;stroke-dashoffset:0;stroke-width:0.3;"/>
     </g>
     <g id="line2d_58">
      <g>
       <use style="stroke:#000000;stroke-width:0.8;" x="636.596083" xlink:href="#m5f02df2a33" y="539.92"/>
      </g>
     </g>
     <g id="text_35">
      <!-- 66 -->
      <g transform="translate(628.961083 556.038125)scale(0.12 -0.12)">
       <use xlink:href="#DejaVuSans-54"/>
       <use x="63.623047" xlink:href="#DejaVuSans-54"/>
      </g>
     </g>
    </g>
    <g id="xtick_23">
     <g id="line2d_59">
      <path clip-path="url(#pcad21e1250)" d="M 688.06025 539.92 
L 688.06025 407.442829 
" style="fill:none;stroke:#808080;stroke-dasharray:0.3,0.495;stroke-dashoffset:0;stroke-width:0.3;"/>
     </g>
     <g id="line2d_60">
      <g>
       <use style="stroke:#000000;stroke-width:0.8;" x="688.06025" xlink:href="#m5f02df2a33" y="539.92"/>
      </g>
     </g>
     <g id="text_36">
      <!-- 72 -->
      <g transform="translate(680.42525 556.038125)scale(0.12 -0.12)">
       <use xlink:href="#DejaVuSans-55"/>
       <use x="63.623047" xlink:href="#DejaVuSans-50"/>
      </g>
     </g>
    </g>
    <g id="xtick_24">
     <g id="line2d_61">
      <path clip-path="url(#pcad21e1250)" d="M 739.524417 539.92 
L 739.524417 407.442829 
" style="fill:none;stroke:#808080;stroke-dasharray:0.3,0.495;stroke-dashoffset:0;stroke-width:0.3;"/>
     </g>
     <g id="line2d_62">
      <g>
       <use style="stroke:#000000;stroke-width:0.8;" x="739.524417" xlink:href="#m5f02df2a33" y="539.92"/>
      </g>
     </g>
     <g id="text_37">
      <!-- 78 -->
      <g transform="translate(731.889417 556.038125)scale(0.12 -0.12)">
       <use xlink:href="#DejaVuSans-55"/>
       <use x="63.623047" xlink:href="#DejaVuSans-56"/>
      </g>
     </g>
    </g>
    <g id="xtick_25">
     <g id="line2d_63">
      <path clip-path="url(#pcad21e1250)" d="M 790.988583 539.92 
L 790.988583 407.442829 
" style="fill:none;stroke:#808080;stroke-dasharray:0.3,0.495;stroke-dashoffset:0;stroke-width:0.3;"/>
     </g>
     <g id="line2d_64">
      <g>
       <use style="stroke:#000000;stroke-width:0.8;" x="790.988583" xlink:href="#m5f02df2a33" y="539.92"/>
      </g>
     </g>
     <g id="text_38">
      <!-- 84 -->
      <g transform="translate(783.353583 556.038125)scale(0.12 -0.12)">
       <use xlink:href="#DejaVuSans-56"/>
       <use x="63.623047" xlink:href="#DejaVuSans-52"/>
      </g>
     </g>
    </g>
    <g id="xtick_26">
     <g id="line2d_65">
      <path clip-path="url(#pcad21e1250)" d="M 842.45275 539.92 
L 842.45275 407.442829 
" style="fill:none;stroke:#808080;stroke-dasharray:0.3,0.495;stroke-dashoffset:0;stroke-width:0.3;"/>
     </g>
     <g id="line2d_66">
      <g>
       <use style="stroke:#000000;stroke-width:0.8;" x="842.45275" xlink:href="#m5f02df2a33" y="539.92"/>
      </g>
     </g>
     <g id="text_39">
      <!-- 90 -->
      <defs>
       <path d="M 10.984375 1.515625 
L 10.984375 10.5 
Q 14.703125 8.734375 18.5 7.8125 
Q 22.3125 6.890625 25.984375 6.890625 
Q 35.75 6.890625 40.890625 13.453125 
Q 46.046875 20.015625 46.78125 33.40625 
Q 43.953125 29.203125 39.59375 26.953125 
Q 35.25 24.703125 29.984375 24.703125 
Q 19.046875 24.703125 12.671875 31.3125 
Q 6.296875 37.9375 6.296875 49.421875 
Q 6.296875 60.640625 12.9375 67.421875 
Q 19.578125 74.21875 30.609375 74.21875 
Q 43.265625 74.21875 49.921875 64.515625 
Q 56.59375 54.828125 56.59375 36.375 
Q 56.59375 19.140625 48.40625 8.859375 
Q 40.234375 -1.421875 26.421875 -1.421875 
Q 22.703125 -1.421875 18.890625 -0.6875 
Q 15.09375 0.046875 10.984375 1.515625 
z
M 30.609375 32.421875 
Q 37.25 32.421875 41.125 36.953125 
Q 45.015625 41.5 45.015625 49.421875 
Q 45.015625 57.28125 41.125 61.84375 
Q 37.25 66.40625 30.609375 66.40625 
Q 23.96875 66.40625 20.09375 61.84375 
Q 16.21875 57.28125 16.21875 49.421875 
Q 16.21875 41.5 20.09375 36.953125 
Q 23.96875 32.421875 30.609375 32.421875 
z
" id="DejaVuSans-57"/>
      </defs>
      <g transform="translate(834.81775 556.038125)scale(0.12 -0.12)">
       <use xlink:href="#DejaVuSans-57"/>
       <use x="63.623047" xlink:href="#DejaVuSans-48"/>
      </g>
     </g>
    </g>
    <g id="text_40">
     <!-- $\tau$ (in hours) -->
     <defs>
      <path d="M 32.859375 9.96875 
Q 34.1875 7.625 39.453125 7.625 
L 43.75 7.625 
L 42.28125 0 
L 36.921875 0 
Q 28.125 0 25 4.6875 
Q 21.921875 9.46875 23.96875 19.828125 
L 29 45.703125 
L 8.453125 45.703125 
L 10.203125 54.6875 
L 60.640625 54.6875 
L 58.890625 45.703125 
L 38.1875 45.703125 
L 33.015625 19.28125 
Q 31.640625 12.203125 32.859375 9.96875 
z
" id="DejaVuSans-Oblique-964"/>
      <path d="M 31 75.875 
Q 24.46875 64.65625 21.28125 53.65625 
Q 18.109375 42.671875 18.109375 31.390625 
Q 18.109375 20.125 21.3125 9.0625 
Q 24.515625 -2 31 -13.1875 
L 23.1875 -13.1875 
Q 15.875 -1.703125 12.234375 9.375 
Q 8.59375 20.453125 8.59375 31.390625 
Q 8.59375 42.28125 12.203125 53.3125 
Q 15.828125 64.359375 23.1875 75.875 
z
" id="DejaVuSans-40"/>
      <path d="M 54.890625 33.015625 
L 54.890625 0 
L 45.90625 0 
L 45.90625 32.71875 
Q 45.90625 40.484375 42.875 44.328125 
Q 39.84375 48.1875 33.796875 48.1875 
Q 26.515625 48.1875 22.3125 43.546875 
Q 18.109375 38.921875 18.109375 30.90625 
L 18.109375 0 
L 9.078125 0 
L 9.078125 75.984375 
L 18.109375 75.984375 
L 18.109375 46.1875 
Q 21.34375 51.125 25.703125 53.5625 
Q 30.078125 56 35.796875 56 
Q 45.21875 56 50.046875 50.171875 
Q 54.890625 44.34375 54.890625 33.015625 
z
" id="DejaVuSans-104"/>
      <path d="M 8.015625 75.875 
L 15.828125 75.875 
Q 23.140625 64.359375 26.78125 53.3125 
Q 30.421875 42.28125 30.421875 31.390625 
Q 30.421875 20.453125 26.78125 9.375 
Q 23.140625 -1.703125 15.828125 -13.1875 
L 8.015625 -13.1875 
Q 14.5 -2 17.703125 9.0625 
Q 20.90625 20.125 20.90625 31.390625 
Q 20.90625 42.671875 17.703125 53.65625 
Q 14.5 64.65625 8.015625 75.875 
z
" id="DejaVuSans-41"/>
     </defs>
     <g transform="translate(415.0715 577.4755)scale(0.144 -0.144)">
      <use transform="translate(0 0.015625)" xlink:href="#DejaVuSans-Oblique-964"/>
      <use transform="translate(60.205078 0.015625)" xlink:href="#DejaVuSans-32"/>
      <use transform="translate(91.992188 0.015625)" xlink:href="#DejaVuSans-40"/>
      <use transform="translate(131.005859 0.015625)" xlink:href="#DejaVuSans-105"/>
      <use transform="translate(158.789062 0.015625)" xlink:href="#DejaVuSans-110"/>
      <use transform="translate(222.167969 0.015625)" xlink:href="#DejaVuSans-32"/>
      <use transform="translate(253.955078 0.015625)" xlink:href="#DejaVuSans-104"/>
      <use transform="translate(317.333984 0.015625)" xlink:href="#DejaVuSans-111"/>
      <use transform="translate(378.515625 0.015625)" xlink:href="#DejaVuSans-117"/>
      <use transform="translate(441.894531 0.015625)" xlink:href="#DejaVuSans-114"/>
      <use transform="translate(483.007812 0.015625)" xlink:href="#DejaVuSans-115"/>
      <use transform="translate(535.107422 0.015625)" xlink:href="#DejaVuSans-41"/>
     </g>
    </g>
   </g>
   <g id="matplotlib.axis_6">
    <g id="ytick_8">
     <g id="line2d_67">
      <path clip-path="url(#pcad21e1250)" d="M 70.49025 539.92 
L 842.45275 539.92 
" style="fill:none;stroke:#808080;stroke-dasharray:0.3,0.495;stroke-dashoffset:0;stroke-width:0.3;"/>
     </g>
     <g id="line2d_68">
      <g>
       <use style="stroke:#000000;stroke-width:0.8;" x="70.49025" xlink:href="#mdd9ddea56d" y="539.92"/>
      </g>
     </g>
     <g id="text_41">
      <!-- 0.00 -->
      <g transform="translate(36.7715 544.479063)scale(0.12 -0.12)">
       <use xlink:href="#DejaVuSans-48"/>
       <use x="63.623047" xlink:href="#DejaVuSans-46"/>
       <use x="95.410156" xlink:href="#DejaVuSans-48"/>
       <use x="159.033203" xlink:href="#DejaVuSans-48"/>
      </g>
     </g>
    </g>
    <g id="ytick_9">
     <g id="line2d_69">
      <path clip-path="url(#pcad21e1250)" d="M 70.49025 508.377817 
L 842.45275 508.377817 
" style="fill:none;stroke:#808080;stroke-dasharray:0.3,0.495;stroke-dashoffset:0;stroke-width:0.3;"/>
     </g>
     <g id="line2d_70">
      <g>
       <use style="stroke:#000000;stroke-width:0.8;" x="70.49025" xlink:href="#mdd9ddea56d" y="508.377817"/>
      </g>
     </g>
     <g id="text_42">
      <!-- 0.25 -->
      <g transform="translate(36.7715 512.936879)scale(0.12 -0.12)">
       <use xlink:href="#DejaVuSans-48"/>
       <use x="63.623047" xlink:href="#DejaVuSans-46"/>
       <use x="95.410156" xlink:href="#DejaVuSans-50"/>
       <use x="159.033203" xlink:href="#DejaVuSans-53"/>
      </g>
     </g>
    </g>
    <g id="ytick_10">
     <g id="line2d_71">
      <path clip-path="url(#pcad21e1250)" d="M 70.49025 476.835633 
L 842.45275 476.835633 
" style="fill:none;stroke:#808080;stroke-dasharray:0.3,0.495;stroke-dashoffset:0;stroke-width:0.3;"/>
     </g>
     <g id="line2d_72">
      <g>
       <use style="stroke:#000000;stroke-width:0.8;" x="70.49025" xlink:href="#mdd9ddea56d" y="476.835633"/>
      </g>
     </g>
     <g id="text_43">
      <!-- 0.50 -->
      <g transform="translate(36.7715 481.394696)scale(0.12 -0.12)">
       <use xlink:href="#DejaVuSans-48"/>
       <use x="63.623047" xlink:href="#DejaVuSans-46"/>
       <use x="95.410156" xlink:href="#DejaVuSans-53"/>
       <use x="159.033203" xlink:href="#DejaVuSans-48"/>
      </g>
     </g>
    </g>
    <g id="ytick_11">
     <g id="line2d_73">
      <path clip-path="url(#pcad21e1250)" d="M 70.49025 445.29345 
L 842.45275 445.29345 
" style="fill:none;stroke:#808080;stroke-dasharray:0.3,0.495;stroke-dashoffset:0;stroke-width:0.3;"/>
     </g>
     <g id="line2d_74">
      <g>
       <use style="stroke:#000000;stroke-width:0.8;" x="70.49025" xlink:href="#mdd9ddea56d" y="445.29345"/>
      </g>
     </g>
     <g id="text_44">
      <!-- 0.75 -->
      <g transform="translate(36.7715 449.852512)scale(0.12 -0.12)">
       <use xlink:href="#DejaVuSans-48"/>
       <use x="63.623047" xlink:href="#DejaVuSans-46"/>
       <use x="95.410156" xlink:href="#DejaVuSans-55"/>
       <use x="159.033203" xlink:href="#DejaVuSans-53"/>
      </g>
     </g>
    </g>
    <g id="ytick_12">
     <g id="line2d_75">
      <path clip-path="url(#pcad21e1250)" d="M 70.49025 413.751266 
L 842.45275 413.751266 
" style="fill:none;stroke:#808080;stroke-dasharray:0.3,0.495;stroke-dashoffset:0;stroke-width:0.3;"/>
     </g>
     <g id="line2d_76">
      <g>
       <use style="stroke:#000000;stroke-width:0.8;" x="70.49025" xlink:href="#mdd9ddea56d" y="413.751266"/>
      </g>
     </g>
     <g id="text_45">
      <!-- 1.00 -->
      <g transform="translate(36.7715 418.310329)scale(0.12 -0.12)">
       <use xlink:href="#DejaVuSans-49"/>
       <use x="63.623047" xlink:href="#DejaVuSans-46"/>
       <use x="95.410156" xlink:href="#DejaVuSans-48"/>
       <use x="159.033203" xlink:href="#DejaVuSans-48"/>
      </g>
     </g>
    </g>
    <g id="text_46">
     <!-- Probability -->
     <defs>
      <path d="M 19.671875 64.796875 
L 19.671875 37.40625 
L 32.078125 37.40625 
Q 38.96875 37.40625 42.71875 40.96875 
Q 46.484375 44.53125 46.484375 51.125 
Q 46.484375 57.671875 42.71875 61.234375 
Q 38.96875 64.796875 32.078125 64.796875 
z
M 9.8125 72.90625 
L 32.078125 72.90625 
Q 44.34375 72.90625 50.609375 67.359375 
Q 56.890625 61.8125 56.890625 51.125 
Q 56.890625 40.328125 50.609375 34.8125 
Q 44.34375 29.296875 32.078125 29.296875 
L 19.671875 29.296875 
L 19.671875 0 
L 9.8125 0 
z
" id="DejaVuSans-80"/>
      <path d="M 48.6875 27.296875 
Q 48.6875 37.203125 44.609375 42.84375 
Q 40.53125 48.484375 33.40625 48.484375 
Q 26.265625 48.484375 22.1875 42.84375 
Q 18.109375 37.203125 18.109375 27.296875 
Q 18.109375 17.390625 22.1875 11.75 
Q 26.265625 6.109375 33.40625 6.109375 
Q 40.53125 6.109375 44.609375 11.75 
Q 48.6875 17.390625 48.6875 27.296875 
z
M 18.109375 46.390625 
Q 20.953125 51.265625 25.265625 53.625 
Q 29.59375 56 35.59375 56 
Q 45.5625 56 51.78125 48.09375 
Q 58.015625 40.1875 58.015625 27.296875 
Q 58.015625 14.40625 51.78125 6.484375 
Q 45.5625 -1.421875 35.59375 -1.421875 
Q 29.59375 -1.421875 25.265625 0.953125 
Q 20.953125 3.328125 18.109375 8.203125 
L 18.109375 0 
L 9.078125 0 
L 9.078125 75.984375 
L 18.109375 75.984375 
z
" id="DejaVuSans-98"/>
     </defs>
     <g transform="translate(25.77675 512.023665)rotate(-90)scale(0.144 -0.144)">
      <use xlink:href="#DejaVuSans-80"/>
      <use x="60.287109" xlink:href="#DejaVuSans-114"/>
      <use x="101.369141" xlink:href="#DejaVuSans-111"/>
      <use x="162.550781" xlink:href="#DejaVuSans-98"/>
      <use x="226.027344" xlink:href="#DejaVuSans-97"/>
      <use x="287.306641" xlink:href="#DejaVuSans-98"/>
      <use x="350.783203" xlink:href="#DejaVuSans-105"/>
      <use x="378.566406" xlink:href="#DejaVuSans-108"/>
      <use x="406.349609" xlink:href="#DejaVuSans-105"/>
      <use x="434.132812" xlink:href="#DejaVuSans-116"/>
      <use x="473.341797" xlink:href="#DejaVuSans-121"/>
     </g>
    </g>
   </g>
   <g id="patch_115">
    <path d="M 70.49025 539.92 
L 70.49025 407.442829 
" style="fill:none;stroke:#000000;stroke-linecap:square;stroke-linejoin:miter;stroke-width:0.8;"/>
   </g>
   <g id="patch_116">
    <path d="M 842.45275 539.92 
L 842.45275 407.442829 
" style="fill:none;stroke:#000000;stroke-linecap:square;stroke-linejoin:miter;stroke-width:0.8;"/>
   </g>
   <g id="patch_117">
    <path d="M 70.49025 539.92 
L 842.45275 539.92 
" style="fill:none;stroke:#000000;stroke-linecap:square;stroke-linejoin:miter;stroke-width:0.8;"/>
   </g>
   <g id="patch_118">
    <path d="M 70.49025 407.442829 
L 842.45275 407.442829 
" style="fill:none;stroke:#000000;stroke-linecap:square;stroke-linejoin:miter;stroke-width:0.8;"/>
   </g>
   <g id="legend_3">
    <g id="patch_119">
     <path d="M 78.89025 434.682829 
L 197.57025 434.682829 
Q 199.97025 434.682829 199.97025 432.282829 
L 199.97025 415.842829 
Q 199.97025 413.442829 197.57025 413.442829 
L 78.89025 413.442829 
Q 76.49025 413.442829 76.49025 415.842829 
L 76.49025 432.282829 
Q 76.49025 434.682829 78.89025 434.682829 
z
" style="fill:#ffffff;opacity:0.8;stroke:#cccccc;stroke-linejoin:miter;"/>
    </g>
    <g id="patch_120">
     <path d="M 81.29025 427.362829 
L 105.29025 427.362829 
L 105.29025 418.962829 
L 81.29025 418.962829 
z
" style="fill:#467821;stroke:#467821;stroke-linejoin:miter;stroke-width:2;"/>
    </g>
    <g id="text_47">
     <!-- posterior of $\tau$ -->
     <g transform="translate(114.89025 427.362829)scale(0.12 -0.12)">
      <use transform="translate(0 0.015625)" xlink:href="#DejaVuSans-112"/>
      <use transform="translate(63.476562 0.015625)" xlink:href="#DejaVuSans-111"/>
      <use transform="translate(124.658203 0.015625)" xlink:href="#DejaVuSans-115"/>
      <use transform="translate(176.757812 0.015625)" xlink:href="#DejaVuSans-116"/>
      <use transform="translate(215.966797 0.015625)" xlink:href="#DejaVuSans-101"/>
      <use transform="translate(277.490234 0.015625)" xlink:href="#DejaVuSans-114"/>
      <use transform="translate(318.603516 0.015625)" xlink:href="#DejaVuSans-105"/>
      <use transform="translate(346.386719 0.015625)" xlink:href="#DejaVuSans-111"/>
      <use transform="translate(407.568359 0.015625)" xlink:href="#DejaVuSans-114"/>
      <use transform="translate(448.681641 0.015625)" xlink:href="#DejaVuSans-32"/>
      <use transform="translate(480.46875 0.015625)" xlink:href="#DejaVuSans-111"/>
      <use transform="translate(541.650391 0.015625)" xlink:href="#DejaVuSans-102"/>
      <use transform="translate(576.855469 0.015625)" xlink:href="#DejaVuSans-32"/>
      <use transform="translate(608.642578 0.015625)" xlink:href="#DejaVuSans-Oblique-964"/>
     </g>
    </g>
   </g>
  </g>
  <g id="text_48">
   <!-- Posterior distributions of the variables $\lambda_1,\;\lambda_2,\;\tau$ -->
   <defs>
    <path d="M 45.40625 46.390625 
L 45.40625 75.984375 
L 54.390625 75.984375 
L 54.390625 0 
L 45.40625 0 
L 45.40625 8.203125 
Q 42.578125 3.328125 38.25 0.953125 
Q 33.9375 -1.421875 27.875 -1.421875 
Q 17.96875 -1.421875 11.734375 6.484375 
Q 5.515625 14.40625 5.515625 27.296875 
Q 5.515625 40.1875 11.734375 48.09375 
Q 17.96875 56 27.875 56 
Q 33.9375 56 38.25 53.625 
Q 42.578125 51.265625 45.40625 46.390625 
z
M 14.796875 27.296875 
Q 14.796875 17.390625 18.875 11.75 
Q 22.953125 6.109375 30.078125 6.109375 
Q 37.203125 6.109375 41.296875 11.75 
Q 45.40625 17.390625 45.40625 27.296875 
Q 45.40625 37.203125 41.296875 42.84375 
Q 37.203125 48.484375 30.078125 48.484375 
Q 22.953125 48.484375 18.875 42.84375 
Q 14.796875 37.203125 14.796875 27.296875 
z
" id="DejaVuSans-100"/>
    <path d="M 11.71875 12.40625 
L 22.015625 12.40625 
L 22.015625 4 
L 14.015625 -11.625 
L 7.71875 -11.625 
L 11.71875 4 
z
" id="DejaVuSans-44"/>
   </defs>
   <g transform="translate(191.51525 22.396875)scale(0.2 -0.2)">
    <use transform="translate(0 0.015625)" xlink:href="#DejaVuSans-80"/>
    <use transform="translate(60.302734 0.015625)" xlink:href="#DejaVuSans-111"/>
    <use transform="translate(121.484375 0.015625)" xlink:href="#DejaVuSans-115"/>
    <use transform="translate(173.583984 0.015625)" xlink:href="#DejaVuSans-116"/>
    <use transform="translate(212.792969 0.015625)" xlink:href="#DejaVuSans-101"/>
    <use transform="translate(274.316406 0.015625)" xlink:href="#DejaVuSans-114"/>
    <use transform="translate(315.429688 0.015625)" xlink:href="#DejaVuSans-105"/>
    <use transform="translate(343.212891 0.015625)" xlink:href="#DejaVuSans-111"/>
    <use transform="translate(404.394531 0.015625)" xlink:href="#DejaVuSans-114"/>
    <use transform="translate(445.507812 0.015625)" xlink:href="#DejaVuSans-32"/>
    <use transform="translate(477.294922 0.015625)" xlink:href="#DejaVuSans-100"/>
    <use transform="translate(540.771484 0.015625)" xlink:href="#DejaVuSans-105"/>
    <use transform="translate(568.554688 0.015625)" xlink:href="#DejaVuSans-115"/>
    <use transform="translate(620.654297 0.015625)" xlink:href="#DejaVuSans-116"/>
    <use transform="translate(659.863281 0.015625)" xlink:href="#DejaVuSans-114"/>
    <use transform="translate(700.976562 0.015625)" xlink:href="#DejaVuSans-105"/>
    <use transform="translate(728.759766 0.015625)" xlink:href="#DejaVuSans-98"/>
    <use transform="translate(792.236328 0.015625)" xlink:href="#DejaVuSans-117"/>
    <use transform="translate(855.615234 0.015625)" xlink:href="#DejaVuSans-116"/>
    <use transform="translate(894.824219 0.015625)" xlink:href="#DejaVuSans-105"/>
    <use transform="translate(922.607422 0.015625)" xlink:href="#DejaVuSans-111"/>
    <use transform="translate(983.789062 0.015625)" xlink:href="#DejaVuSans-110"/>
    <use transform="translate(1047.167969 0.015625)" xlink:href="#DejaVuSans-115"/>
    <use transform="translate(1099.267578 0.015625)" xlink:href="#DejaVuSans-32"/>
    <use transform="translate(1131.054688 0.015625)" xlink:href="#DejaVuSans-111"/>
    <use transform="translate(1192.236328 0.015625)" xlink:href="#DejaVuSans-102"/>
    <use transform="translate(1227.441406 0.015625)" xlink:href="#DejaVuSans-32"/>
    <use transform="translate(1259.228516 0.015625)" xlink:href="#DejaVuSans-116"/>
    <use transform="translate(1298.4375 0.015625)" xlink:href="#DejaVuSans-104"/>
    <use transform="translate(1361.816406 0.015625)" xlink:href="#DejaVuSans-101"/>
    <use transform="translate(1423.339844 0.015625)" xlink:href="#DejaVuSans-32"/>
    <use transform="translate(1455.126953 0.015625)" xlink:href="#DejaVuSans-118"/>
    <use transform="translate(1514.306641 0.015625)" xlink:href="#DejaVuSans-97"/>
    <use transform="translate(1575.585938 0.015625)" xlink:href="#DejaVuSans-114"/>
    <use transform="translate(1616.699219 0.015625)" xlink:href="#DejaVuSans-105"/>
    <use transform="translate(1644.482422 0.015625)" xlink:href="#DejaVuSans-97"/>
    <use transform="translate(1705.761719 0.015625)" xlink:href="#DejaVuSans-98"/>
    <use transform="translate(1769.238281 0.015625)" xlink:href="#DejaVuSans-108"/>
    <use transform="translate(1797.021484 0.015625)" xlink:href="#DejaVuSans-101"/>
    <use transform="translate(1858.544922 0.015625)" xlink:href="#DejaVuSans-115"/>
    <use transform="translate(1910.644531 0.015625)" xlink:href="#DejaVuSans-32"/>
    <use transform="translate(1942.431641 0.015625)" xlink:href="#DejaVuSans-Oblique-955"/>
    <use transform="translate(2001.611328 -16.390625)scale(0.7)" xlink:href="#DejaVuSans-49"/>
    <use transform="translate(2048.881836 0.015625)" xlink:href="#DejaVuSans-44"/>
    <use transform="translate(2127.210503 0.015625)" xlink:href="#DejaVuSans-Oblique-955"/>
    <use transform="translate(2186.39019 -16.390625)scale(0.7)" xlink:href="#DejaVuSans-50"/>
    <use transform="translate(2233.660698 0.015625)" xlink:href="#DejaVuSans-44"/>
    <use transform="translate(2311.989365 0.015625)" xlink:href="#DejaVuSans-Oblique-964"/>
   </g>
  </g>
 </g>
 <defs>
  <clipPath id="p49be0fea59">
   <rect height="132.477171" width="771.9625" x="70.49025" y="30.088488"/>
  </clipPath>
  <clipPath id="pa731b934ec">
   <rect height="132.477171" width="771.9625" x="70.49025" y="218.765659"/>
  </clipPath>
  <clipPath id="pcad21e1250">
   <rect height="132.477171" width="771.9625" x="70.49025" y="407.442829"/>
  </clipPath>
 </defs>
</svg>
