<?xml version="1.0" encoding="utf-8" standalone="no"?>
<!DOCTYPE svg PUBLIC "-//W3C//DTD SVG 1.1//EN"
  "http://www.w3.org/Graphics/SVG/1.1/DTD/svg11.dtd">
<!-- Created with matplotlib (https://matplotlib.org/) -->
<svg height="422.874686pt" version="1.1" viewBox="0 0 1145.2965 422.874686" width="1145.2965pt" xmlns="http://www.w3.org/2000/svg" xmlns:xlink="http://www.w3.org/1999/xlink">
 <defs>
  <style type="text/css">
*{stroke-linecap:butt;stroke-linejoin:round;}
  </style>
 </defs>
 <g id="figure_1">
  <g id="patch_1">
   <path d="M 0 422.874686 
L 1145.2965 422.874686 
L 1145.2965 0 
L 0 0 
z
" style="fill:#ffffff;"/>
  </g>
  <g id="axes_1">
   <g id="patch_2">
    <path d="M 77.9465 379.124436 
L 1138.0965 379.124436 
L 1138.0965 33.247636 
L 77.9465 33.247636 
z
" style="fill:#ffffff;"/>
   </g>
   <g id="PolyCollection_1">
    <defs>
     <path d="M 77.9465 -282.250053 
L 77.9465 -268.982086 
L 88.989729 -268.982086 
L 100.032958 -268.982086 
L 111.076188 -268.982086 
L 122.119417 -268.982086 
L 133.162646 -268.982086 
L 144.205875 -268.982086 
L 155.249104 -268.982086 
L 166.292333 -268.982086 
L 177.335562 -268.982086 
L 188.378792 -268.982086 
L 199.422021 -268.982086 
L 210.46525 -268.982086 
L 221.508479 -268.982086 
L 232.551708 -268.982086 
L 243.594938 -268.982086 
L 254.638167 -268.982086 
L 265.681396 -268.982086 
L 276.724625 -268.982086 
L 287.767854 -268.982086 
L 298.811083 -268.982086 
L 309.854312 -268.982086 
L 320.897542 -268.982086 
L 331.940771 -268.982086 
L 342.984 -268.982086 
L 354.027229 -268.982086 
L 365.070458 -268.982086 
L 376.113688 -268.982086 
L 387.156917 -268.982086 
L 398.200146 -268.982086 
L 409.243375 -268.982086 
L 420.286604 -268.982086 
L 431.329833 -268.982086 
L 442.373063 -268.982086 
L 453.416292 -268.982086 
L 464.459521 -268.982086 
L 475.50275 -268.982086 
L 486.545979 -268.982086 
L 497.589208 -268.982086 
L 508.632437 -268.982086 
L 519.675667 -268.982086 
L 530.718896 -268.982086 
L 541.762125 -268.982086 
L 552.805354 -263.857566 
L 563.848583 -263.857566 
L 574.891813 -263.857566 
L 585.935042 -263.857566 
L 596.978271 -263.857566 
L 608.0215 -263.857566 
L 619.064729 -263.857566 
L 630.107958 -263.857566 
L 641.151187 -263.857566 
L 652.194417 -263.857566 
L 663.237646 -263.857566 
L 674.280875 -263.857566 
L 685.324104 -263.857566 
L 696.367333 -263.857566 
L 707.410562 -263.857566 
L 718.453792 -263.857566 
L 729.497021 -263.857566 
L 740.54025 -263.857566 
L 751.583479 -263.857566 
L 762.626708 -263.857566 
L 773.669937 -263.857566 
L 784.713167 -263.857566 
L 795.756396 -263.857566 
L 806.799625 -263.857566 
L 817.842854 -263.857566 
L 828.886083 -263.857566 
L 839.929313 -263.857566 
L 850.972542 -263.857566 
L 862.015771 -263.857566 
L 873.059 -263.857566 
L 884.102229 -263.857566 
L 895.145458 -263.857566 
L 906.188688 -263.857566 
L 917.231917 -263.857566 
L 928.275146 -263.857566 
L 939.318375 -263.857566 
L 950.361604 -263.857566 
L 961.404833 -263.857566 
L 972.448062 -263.857566 
L 983.491292 -263.857566 
L 994.534521 -263.857566 
L 1005.57775 -263.857566 
L 1016.620979 -263.857566 
L 1027.664208 -263.857566 
L 1038.707437 -263.857566 
L 1049.750667 -263.857566 
L 1060.793896 -263.857566 
L 1071.837125 -263.857566 
L 1082.880354 -263.857566 
L 1093.923583 -263.857566 
L 1104.966813 -263.857566 
L 1116.010042 -263.857566 
L 1127.053271 -263.857566 
L 1127.053271 -281.376017 
L 1127.053271 -281.376017 
L 1116.010042 -281.376017 
L 1104.966813 -281.376017 
L 1093.923583 -281.376017 
L 1082.880354 -281.376017 
L 1071.837125 -281.376017 
L 1060.793896 -281.376017 
L 1049.750667 -281.376017 
L 1038.707437 -281.376017 
L 1027.664208 -281.376017 
L 1016.620979 -281.376017 
L 1005.57775 -281.376017 
L 994.534521 -281.376017 
L 983.491292 -281.376017 
L 972.448062 -281.376017 
L 961.404833 -281.376017 
L 950.361604 -281.376017 
L 939.318375 -281.376017 
L 928.275146 -281.376017 
L 917.231917 -281.376017 
L 906.188688 -281.376017 
L 895.145458 -281.376017 
L 884.102229 -281.376017 
L 873.059 -281.376017 
L 862.015771 -269.124283 
L 850.972542 -269.124283 
L 839.929313 -269.124283 
L 828.886083 -269.124283 
L 817.842854 -269.124283 
L 806.799625 -269.124283 
L 795.756396 -269.124283 
L 784.713167 -269.124283 
L 773.669937 -269.124283 
L 762.626708 -269.124283 
L 751.583479 -269.124283 
L 740.54025 -269.124283 
L 729.497021 -269.124283 
L 718.453792 -269.124283 
L 707.410562 -269.124283 
L 696.367333 -269.124283 
L 685.324104 -269.124283 
L 674.280875 -269.124283 
L 663.237646 -269.124283 
L 652.194417 -269.124283 
L 641.151187 -269.124283 
L 630.107958 -269.124283 
L 619.064729 -269.124283 
L 608.0215 -269.124283 
L 596.978271 -269.124283 
L 585.935042 -269.124283 
L 574.891813 -269.124283 
L 563.848583 -269.124283 
L 552.805354 -269.124283 
L 541.762125 -282.250053 
L 530.718896 -282.250053 
L 519.675667 -282.250053 
L 508.632437 -282.250053 
L 497.589208 -282.250053 
L 486.545979 -282.250053 
L 475.50275 -282.250053 
L 464.459521 -282.250053 
L 453.416292 -282.250053 
L 442.373063 -282.250053 
L 431.329833 -282.250053 
L 420.286604 -282.250053 
L 409.243375 -282.250053 
L 398.200146 -282.250053 
L 387.156917 -282.250053 
L 376.113688 -282.250053 
L 365.070458 -282.250053 
L 354.027229 -282.250053 
L 342.984 -282.250053 
L 331.940771 -282.250053 
L 320.897542 -282.250053 
L 309.854312 -282.250053 
L 298.811083 -282.250053 
L 287.767854 -282.250053 
L 276.724625 -282.250053 
L 265.681396 -282.250053 
L 254.638167 -282.250053 
L 243.594938 -282.250053 
L 232.551708 -282.250053 
L 221.508479 -282.250053 
L 210.46525 -282.250053 
L 199.422021 -282.250053 
L 188.378792 -282.250053 
L 177.335562 -282.250053 
L 166.292333 -282.250053 
L 155.249104 -282.250053 
L 144.205875 -282.250053 
L 133.162646 -282.250053 
L 122.119417 -282.250053 
L 111.076188 -282.250053 
L 100.032958 -282.250053 
L 88.989729 -282.250053 
L 77.9465 -282.250053 
z
" id="md288b326b3" style="stroke:#ffa500;stroke-opacity:0.25;"/>
    </defs>
    <g clip-path="url(#pe82a1a9edb)">
     <use style="fill:#ffa500;fill-opacity:0.25;stroke:#ffa500;stroke-opacity:0.25;" x="0" xlink:href="#md288b326b3" y="422.874686"/>
    </g>
   </g>
   <g id="patch_3">
    <path clip-path="url(#pe82a1a9edb)" d="M 73.529208 379.124436 
L 82.363792 379.124436 
L 82.363792 146.521591 
L 73.529208 146.521591 
z
" style="fill:#348abd;opacity:0.85;"/>
   </g>
   <g id="patch_4">
    <path clip-path="url(#pe82a1a9edb)" d="M 84.572438 379.124436 
L 93.407021 379.124436 
L 93.407021 174.177502 
L 84.572438 174.177502 
z
" style="fill:#348abd;opacity:0.85;"/>
   </g>
   <g id="patch_5">
    <path clip-path="url(#pe82a1a9edb)" d="M 95.615667 379.124436 
L 104.45025 379.124436 
L 104.45025 157.366557 
L 95.615667 157.366557 
z
" style="fill:#348abd;opacity:0.85;"/>
   </g>
   <g id="patch_6">
    <path clip-path="url(#pe82a1a9edb)" d="M 106.658896 379.124436 
L 115.493479 379.124436 
L 115.493479 151.917977 
L 106.658896 151.917977 
z
" style="fill:#348abd;opacity:0.85;"/>
   </g>
   <g id="patch_7">
    <path clip-path="url(#pe82a1a9edb)" d="M 117.702125 379.124436 
L 126.536708 379.124436 
L 126.536708 104.530537 
L 117.702125 104.530537 
z
" style="fill:#348abd;opacity:0.85;"/>
   </g>
   <g id="patch_8">
    <path clip-path="url(#pe82a1a9edb)" d="M 128.745354 379.124436 
L 137.579937 379.124436 
L 137.579937 116.696233 
L 128.745354 116.696233 
z
" style="fill:#348abd;opacity:0.85;"/>
   </g>
   <g id="patch_9">
    <path clip-path="url(#pe82a1a9edb)" d="M 139.788583 379.124436 
L 148.623167 379.124436 
L 148.623167 140.383145 
L 139.788583 140.383145 
z
" style="fill:#348abd;opacity:0.85;"/>
   </g>
   <g id="patch_10">
    <path clip-path="url(#pe82a1a9edb)" d="M 150.831813 379.124436 
L 159.666396 379.124436 
L 159.666396 142.52763 
L 150.831813 142.52763 
z
" style="fill:#348abd;opacity:0.85;"/>
   </g>
   <g id="patch_11">
    <path clip-path="url(#pe82a1a9edb)" d="M 161.875042 379.124436 
L 170.709625 379.124436 
L 170.709625 128.932277 
L 161.875042 128.932277 
z
" style="fill:#348abd;opacity:0.85;"/>
   </g>
   <g id="patch_12">
    <path clip-path="url(#pe82a1a9edb)" d="M 172.918271 379.124436 
L 181.752854 379.124436 
L 181.752854 161.367326 
L 172.918271 161.367326 
z
" style="fill:#348abd;opacity:0.85;"/>
   </g>
   <g id="patch_13">
    <path clip-path="url(#pe82a1a9edb)" d="M 183.9615 379.124436 
L 192.796083 379.124436 
L 192.796083 133.071473 
L 183.9615 133.071473 
z
" style="fill:#348abd;opacity:0.85;"/>
   </g>
   <g id="patch_14">
    <path clip-path="url(#pe82a1a9edb)" d="M 195.004729 379.124436 
L 203.839313 379.124436 
L 203.839313 137.943652 
L 195.004729 137.943652 
z
" style="fill:#348abd;opacity:0.85;"/>
   </g>
   <g id="patch_15">
    <path clip-path="url(#pe82a1a9edb)" d="M 206.047958 379.124436 
L 214.882542 379.124436 
L 214.882542 109.255211 
L 206.047958 109.255211 
z
" style="fill:#348abd;opacity:0.85;"/>
   </g>
   <g id="patch_16">
    <path clip-path="url(#pe82a1a9edb)" d="M 217.091187 379.124436 
L 225.925771 379.124436 
L 225.925771 164.882465 
L 217.091187 164.882465 
z
" style="fill:#348abd;opacity:0.85;"/>
   </g>
   <g id="patch_17">
    <path clip-path="url(#pe82a1a9edb)" d="M 228.134417 379.124436 
L 236.969 379.124436 
L 236.969 136.582074 
L 228.134417 136.582074 
z
" style="fill:#348abd;opacity:0.85;"/>
   </g>
   <g id="patch_18">
    <path clip-path="url(#pe82a1a9edb)" d="M 239.177646 379.124436 
L 248.012229 379.124436 
L 248.012229 148.94293 
L 239.177646 148.94293 
z
" style="fill:#348abd;opacity:0.85;"/>
   </g>
   <g id="patch_19">
    <path clip-path="url(#pe82a1a9edb)" d="M 250.220875 379.124436 
L 259.055458 379.124436 
L 259.055458 148.679691 
L 250.220875 148.679691 
z
" style="fill:#348abd;opacity:0.85;"/>
   </g>
   <g id="patch_20">
    <path clip-path="url(#pe82a1a9edb)" d="M 261.264104 379.124436 
L 270.098688 379.124436 
L 270.098688 179.14726 
L 261.264104 179.14726 
z
" style="fill:#348abd;opacity:0.85;"/>
   </g>
   <g id="patch_21">
    <path clip-path="url(#pe82a1a9edb)" d="M 272.307333 379.124436 
L 281.141917 379.124436 
L 281.141917 180.163905 
L 272.307333 180.163905 
z
" style="fill:#348abd;opacity:0.85;"/>
   </g>
   <g id="patch_22">
    <path clip-path="url(#pe82a1a9edb)" d="M 283.350563 379.124436 
L 292.185146 379.124436 
L 292.185146 154.402856 
L 283.350563 154.402856 
z
" style="fill:#348abd;opacity:0.85;"/>
   </g>
   <g id="patch_23">
    <path clip-path="url(#pe82a1a9edb)" d="M 294.393792 379.124436 
L 303.228375 379.124436 
L 303.228375 116.469303 
L 294.393792 116.469303 
z
" style="fill:#348abd;opacity:0.85;"/>
   </g>
   <g id="patch_24">
    <path clip-path="url(#pe82a1a9edb)" d="M 305.437021 379.124436 
L 314.271604 379.124436 
L 314.271604 98.149276 
L 305.437021 98.149276 
z
" style="fill:#348abd;opacity:0.85;"/>
   </g>
   <g id="patch_25">
    <path clip-path="url(#pe82a1a9edb)" d="M 316.48025 379.124436 
L 325.314833 379.124436 
L 325.314833 101.453371 
L 316.48025 101.453371 
z
" style="fill:#348abd;opacity:0.85;"/>
   </g>
   <g id="patch_26">
    <path clip-path="url(#pe82a1a9edb)" d="M 327.523479 379.124436 
L 336.358063 379.124436 
L 336.358063 107.467006 
L 327.523479 107.467006 
z
" style="fill:#348abd;opacity:0.85;"/>
   </g>
   <g id="patch_27">
    <path clip-path="url(#pe82a1a9edb)" d="M 338.566708 379.124436 
L 347.401292 379.124436 
L 347.401292 102.526748 
L 338.566708 102.526748 
z
" style="fill:#348abd;opacity:0.85;"/>
   </g>
   <g id="patch_28">
    <path clip-path="url(#pe82a1a9edb)" d="M 349.609938 379.124436 
L 358.444521 379.124436 
L 358.444521 120.268105 
L 349.609938 120.268105 
z
" style="fill:#348abd;opacity:0.85;"/>
   </g>
   <g id="patch_29">
    <path clip-path="url(#pe82a1a9edb)" d="M 360.653167 379.124436 
L 369.48775 379.124436 
L 369.48775 114.372474 
L 360.653167 114.372474 
z
" style="fill:#348abd;opacity:0.85;"/>
   </g>
   <g id="patch_30">
    <path clip-path="url(#pe82a1a9edb)" d="M 371.696396 379.124436 
L 380.530979 379.124436 
L 380.530979 133.452715 
L 371.696396 133.452715 
z
" style="fill:#348abd;opacity:0.85;"/>
   </g>
   <g id="patch_31">
    <path clip-path="url(#pe82a1a9edb)" d="M 382.739625 379.124436 
L 391.574208 379.124436 
L 391.574208 132.49961 
L 382.739625 132.49961 
z
" style="fill:#348abd;opacity:0.85;"/>
   </g>
   <g id="patch_32">
    <path clip-path="url(#pe82a1a9edb)" d="M 393.782854 379.124436 
L 402.617438 379.124436 
L 402.617438 155.256111 
L 393.782854 155.256111 
z
" style="fill:#348abd;opacity:0.85;"/>
   </g>
   <g id="patch_33">
    <path clip-path="url(#pe82a1a9edb)" d="M 404.826083 379.124436 
L 413.660667 379.124436 
L 413.660667 149.821147 
L 404.826083 149.821147 
z
" style="fill:#348abd;opacity:0.85;"/>
   </g>
   <g id="patch_34">
    <path clip-path="url(#pe82a1a9edb)" d="M 415.869313 379.124436 
L 424.703896 379.124436 
L 424.703896 154.772751 
L 415.869313 154.772751 
z
" style="fill:#348abd;opacity:0.85;"/>
   </g>
   <g id="patch_35">
    <path clip-path="url(#pe82a1a9edb)" d="M 426.912542 379.124436 
L 435.747125 379.124436 
L 435.747125 136.938354 
L 426.912542 136.938354 
z
" style="fill:#348abd;opacity:0.85;"/>
   </g>
   <g id="patch_36">
    <path clip-path="url(#pe82a1a9edb)" d="M 437.955771 379.124436 
L 446.790354 379.124436 
L 446.790354 198.293311 
L 437.955771 198.293311 
z
" style="fill:#348abd;opacity:0.85;"/>
   </g>
   <g id="patch_37">
    <path clip-path="url(#pe82a1a9edb)" d="M 448.999 379.124436 
L 457.833583 379.124436 
L 457.833583 169.684296 
L 448.999 169.684296 
z
" style="fill:#348abd;opacity:0.85;"/>
   </g>
   <g id="patch_38">
    <path clip-path="url(#pe82a1a9edb)" d="M 460.042229 379.124436 
L 468.876812 379.124436 
L 468.876812 162.150233 
L 460.042229 162.150233 
z
" style="fill:#348abd;opacity:0.85;"/>
   </g>
   <g id="patch_39">
    <path clip-path="url(#pe82a1a9edb)" d="M 471.085458 379.124436 
L 479.920042 379.124436 
L 479.920042 136.504918 
L 471.085458 136.504918 
z
" style="fill:#348abd;opacity:0.85;"/>
   </g>
   <g id="patch_40">
    <path clip-path="url(#pe82a1a9edb)" d="M 482.128688 379.124436 
L 490.963271 379.124436 
L 490.963271 145.39602 
L 482.128688 145.39602 
z
" style="fill:#348abd;opacity:0.85;"/>
   </g>
   <g id="patch_41">
    <path clip-path="url(#pe82a1a9edb)" d="M 493.171917 379.124436 
L 502.0065 379.124436 
L 502.0065 150.717519 
L 493.171917 150.717519 
z
" style="fill:#348abd;opacity:0.85;"/>
   </g>
   <g id="patch_42">
    <path clip-path="url(#pe82a1a9edb)" d="M 504.215146 379.124436 
L 513.049729 379.124436 
L 513.049729 137.138052 
L 504.215146 137.138052 
z
" style="fill:#348abd;opacity:0.85;"/>
   </g>
   <g id="patch_43">
    <path clip-path="url(#pe82a1a9edb)" d="M 515.258375 379.124436 
L 524.092958 379.124436 
L 524.092958 149.966382 
L 515.258375 149.966382 
z
" style="fill:#348abd;opacity:0.85;"/>
   </g>
   <g id="patch_44">
    <path clip-path="url(#pe82a1a9edb)" d="M 526.301604 379.124436 
L 535.136187 379.124436 
L 535.136187 133.184938 
L 526.301604 133.184938 
z
" style="fill:#348abd;opacity:0.85;"/>
   </g>
   <g id="patch_45">
    <path clip-path="url(#pe82a1a9edb)" d="M 537.344833 379.124436 
L 546.179417 379.124436 
L 546.179417 130.091887 
L 537.344833 130.091887 
z
" style="fill:#348abd;opacity:0.85;"/>
   </g>
   <g id="patch_46">
    <path clip-path="url(#pe82a1a9edb)" d="M 548.388063 379.124436 
L 557.222646 379.124436 
L 557.222646 166.008036 
L 548.388063 166.008036 
z
" style="fill:#348abd;opacity:0.85;"/>
   </g>
   <g id="patch_47">
    <path clip-path="url(#pe82a1a9edb)" d="M 559.431292 379.124436 
L 568.265875 379.124436 
L 568.265875 172.66842 
L 559.431292 172.66842 
z
" style="fill:#348abd;opacity:0.85;"/>
   </g>
   <g id="patch_48">
    <path clip-path="url(#pe82a1a9edb)" d="M 570.474521 379.124436 
L 579.309104 379.124436 
L 579.309104 172.888542 
L 570.474521 172.888542 
z
" style="fill:#348abd;opacity:0.85;"/>
   </g>
   <g id="patch_49">
    <path clip-path="url(#pe82a1a9edb)" d="M 581.51775 379.124436 
L 590.352333 379.124436 
L 590.352333 188.002053 
L 581.51775 188.002053 
z
" style="fill:#348abd;opacity:0.85;"/>
   </g>
   <g id="patch_50">
    <path clip-path="url(#pe82a1a9edb)" d="M 592.560979 379.124436 
L 601.395562 379.124436 
L 601.395562 193.97484 
L 592.560979 193.97484 
z
" style="fill:#348abd;opacity:0.85;"/>
   </g>
   <g id="patch_51">
    <path clip-path="url(#pe82a1a9edb)" d="M 603.604208 379.124436 
L 612.438792 379.124436 
L 612.438792 199.834163 
L 603.604208 199.834163 
z
" style="fill:#348abd;opacity:0.85;"/>
   </g>
   <g id="patch_52">
    <path clip-path="url(#pe82a1a9edb)" d="M 614.647438 379.124436 
L 623.482021 379.124436 
L 623.482021 179.217608 
L 614.647438 179.217608 
z
" style="fill:#348abd;opacity:0.85;"/>
   </g>
   <g id="patch_53">
    <path clip-path="url(#pe82a1a9edb)" d="M 625.690667 379.124436 
L 634.52525 379.124436 
L 634.52525 177.806106 
L 625.690667 177.806106 
z
" style="fill:#348abd;opacity:0.85;"/>
   </g>
   <g id="patch_54">
    <path clip-path="url(#pe82a1a9edb)" d="M 636.733896 379.124436 
L 645.568479 379.124436 
L 645.568479 163.348421 
L 636.733896 163.348421 
z
" style="fill:#348abd;opacity:0.85;"/>
   </g>
   <g id="patch_55">
    <path clip-path="url(#pe82a1a9edb)" d="M 647.777125 379.124436 
L 656.611708 379.124436 
L 656.611708 146.340047 
L 647.777125 146.340047 
z
" style="fill:#348abd;opacity:0.85;"/>
   </g>
   <g id="patch_56">
    <path clip-path="url(#pe82a1a9edb)" d="M 658.820354 379.124436 
L 667.654937 379.124436 
L 667.654937 147.592698 
L 658.820354 147.592698 
z
" style="fill:#348abd;opacity:0.85;"/>
   </g>
   <g id="patch_57">
    <path clip-path="url(#pe82a1a9edb)" d="M 669.863583 379.124436 
L 678.698167 379.124436 
L 678.698167 170.337853 
L 669.863583 170.337853 
z
" style="fill:#348abd;opacity:0.85;"/>
   </g>
   <g id="patch_58">
    <path clip-path="url(#pe82a1a9edb)" d="M 680.906813 379.124436 
L 689.741396 379.124436 
L 689.741396 154.051115 
L 680.906813 154.051115 
z
" style="fill:#348abd;opacity:0.85;"/>
   </g>
   <g id="patch_59">
    <path clip-path="url(#pe82a1a9edb)" d="M 691.950042 379.124436 
L 700.784625 379.124436 
L 700.784625 164.850695 
L 691.950042 164.850695 
z
" style="fill:#348abd;opacity:0.85;"/>
   </g>
   <g id="patch_60">
    <path clip-path="url(#pe82a1a9edb)" d="M 702.993271 379.124436 
L 711.827854 379.124436 
L 711.827854 169.466443 
L 702.993271 169.466443 
z
" style="fill:#348abd;opacity:0.85;"/>
   </g>
   <g id="patch_61">
    <path clip-path="url(#pe82a1a9edb)" d="M 714.0365 379.124436 
L 722.871083 379.124436 
L 722.871083 156.209216 
L 714.0365 156.209216 
z
" style="fill:#348abd;opacity:0.85;"/>
   </g>
   <g id="patch_62">
    <path clip-path="url(#pe82a1a9edb)" d="M 725.079729 379.124436 
L 733.914312 379.124436 
L 733.914312 182.031535 
L 725.079729 182.031535 
z
" style="fill:#348abd;opacity:0.85;"/>
   </g>
   <g id="patch_63">
    <path clip-path="url(#pe82a1a9edb)" d="M 736.122958 379.124436 
L 744.957542 379.124436 
L 744.957542 180.086749 
L 736.122958 180.086749 
z
" style="fill:#348abd;opacity:0.85;"/>
   </g>
   <g id="patch_64">
    <path clip-path="url(#pe82a1a9edb)" d="M 747.166187 379.124436 
L 756.000771 379.124436 
L 756.000771 205.813758 
L 747.166187 205.813758 
z
" style="fill:#348abd;opacity:0.85;"/>
   </g>
   <g id="patch_65">
    <path clip-path="url(#pe82a1a9edb)" d="M 758.209417 379.124436 
L 767.044 379.124436 
L 767.044 198.817518 
L 758.209417 198.817518 
z
" style="fill:#348abd;opacity:0.85;"/>
   </g>
   <g id="patch_66">
    <path clip-path="url(#pe82a1a9edb)" d="M 769.252646 379.124436 
L 778.087229 379.124436 
L 778.087229 194.832634 
L 769.252646 194.832634 
z
" style="fill:#348abd;opacity:0.85;"/>
   </g>
   <g id="patch_67">
    <path clip-path="url(#pe82a1a9edb)" d="M 780.295875 379.124436 
L 789.130458 379.124436 
L 789.130458 214.389428 
L 780.295875 214.389428 
z
" style="fill:#348abd;opacity:0.85;"/>
   </g>
   <g id="patch_68">
    <path clip-path="url(#pe82a1a9edb)" d="M 791.339104 379.124436 
L 800.173687 379.124436 
L 800.173687 185.82126 
L 791.339104 185.82126 
z
" style="fill:#348abd;opacity:0.85;"/>
   </g>
   <g id="patch_69">
    <path clip-path="url(#pe82a1a9edb)" d="M 802.382333 379.124436 
L 811.216917 379.124436 
L 811.216917 170.616976 
L 802.382333 170.616976 
z
" style="fill:#348abd;opacity:0.85;"/>
   </g>
   <g id="patch_70">
    <path clip-path="url(#pe82a1a9edb)" d="M 813.425562 379.124436 
L 822.260146 379.124436 
L 822.260146 157.650219 
L 813.425562 157.650219 
z
" style="fill:#348abd;opacity:0.85;"/>
   </g>
   <g id="patch_71">
    <path clip-path="url(#pe82a1a9edb)" d="M 824.468792 379.124436 
L 833.303375 379.124436 
L 833.303375 137.024587 
L 824.468792 137.024587 
z
" style="fill:#348abd;opacity:0.85;"/>
   </g>
   <g id="patch_72">
    <path clip-path="url(#pe82a1a9edb)" d="M 835.512021 379.124436 
L 844.346604 379.124436 
L 844.346604 148.477724 
L 835.512021 148.477724 
z
" style="fill:#348abd;opacity:0.85;"/>
   </g>
   <g id="patch_73">
    <path clip-path="url(#pe82a1a9edb)" d="M 846.55525 379.124436 
L 855.389833 379.124436 
L 855.389833 173.083701 
L 846.55525 173.083701 
z
" style="fill:#348abd;opacity:0.85;"/>
   </g>
   <g id="patch_74">
    <path clip-path="url(#pe82a1a9edb)" d="M 857.598479 379.124436 
L 866.433062 379.124436 
L 866.433062 149.816609 
L 857.598479 149.816609 
z
" style="fill:#348abd;opacity:0.85;"/>
   </g>
   <g id="patch_75">
    <path clip-path="url(#pe82a1a9edb)" d="M 868.641708 379.124436 
L 877.476292 379.124436 
L 877.476292 117.531334 
L 868.641708 117.531334 
z
" style="fill:#348abd;opacity:0.85;"/>
   </g>
   <g id="patch_76">
    <path clip-path="url(#pe82a1a9edb)" d="M 879.684937 379.124436 
L 888.519521 379.124436 
L 888.519521 74.519096 
L 879.684937 74.519096 
z
" style="fill:#348abd;opacity:0.85;"/>
   </g>
   <g id="patch_77">
    <path clip-path="url(#pe82a1a9edb)" d="M 890.728167 379.124436 
L 899.56275 379.124436 
L 899.56275 88.636387 
L 890.728167 88.636387 
z
" style="fill:#348abd;opacity:0.85;"/>
   </g>
   <g id="patch_78">
    <path clip-path="url(#pe82a1a9edb)" d="M 901.771396 379.124436 
L 910.605979 379.124436 
L 910.605979 143.290113 
L 901.771396 143.290113 
z
" style="fill:#348abd;opacity:0.85;"/>
   </g>
   <g id="patch_79">
    <path clip-path="url(#pe82a1a9edb)" d="M 912.814625 379.124436 
L 921.649208 379.124436 
L 921.649208 49.71796 
L 912.814625 49.71796 
z
" style="fill:#348abd;opacity:0.85;"/>
   </g>
   <g id="patch_80">
    <path clip-path="url(#pe82a1a9edb)" d="M 923.857854 379.124436 
L 932.692437 379.124436 
L 932.692437 113.786995 
L 923.857854 113.786995 
z
" style="fill:#348abd;opacity:0.85;"/>
   </g>
   <g id="patch_81">
    <path clip-path="url(#pe82a1a9edb)" d="M 934.901083 379.124436 
L 943.735667 379.124436 
L 943.735667 132.549535 
L 934.901083 132.549535 
z
" style="fill:#348abd;opacity:0.85;"/>
   </g>
   <g id="patch_82">
    <path clip-path="url(#pe82a1a9edb)" d="M 945.944312 379.124436 
L 954.778896 379.124436 
L 954.778896 135.753781 
L 945.944312 135.753781 
z
" style="fill:#348abd;opacity:0.85;"/>
   </g>
   <g id="patch_83">
    <path clip-path="url(#pe82a1a9edb)" d="M 956.987542 379.124436 
L 965.822125 379.124436 
L 965.822125 176.217599 
L 956.987542 176.217599 
z
" style="fill:#348abd;opacity:0.85;"/>
   </g>
   <g id="patch_84">
    <path clip-path="url(#pe82a1a9edb)" d="M 968.030771 379.124436 
L 976.865354 379.124436 
L 976.865354 151.868052 
L 968.030771 151.868052 
z
" style="fill:#348abd;opacity:0.85;"/>
   </g>
   <g id="patch_85">
    <path clip-path="url(#pe82a1a9edb)" d="M 979.074 379.124436 
L 987.908583 379.124436 
L 987.908583 168.601841 
L 979.074 168.601841 
z
" style="fill:#348abd;opacity:0.85;"/>
   </g>
   <g id="patch_86">
    <path clip-path="url(#pe82a1a9edb)" d="M 990.117229 379.124436 
L 998.951812 379.124436 
L 998.951812 157.09651 
L 990.117229 157.09651 
z
" style="fill:#348abd;opacity:0.85;"/>
   </g>
   <g id="patch_87">
    <path clip-path="url(#pe82a1a9edb)" d="M 1001.160458 379.124436 
L 1009.995042 379.124436 
L 1009.995042 133.734108 
L 1001.160458 133.734108 
z
" style="fill:#348abd;opacity:0.85;"/>
   </g>
   <g id="patch_88">
    <path clip-path="url(#pe82a1a9edb)" d="M 1012.203687 379.124436 
L 1021.038271 379.124436 
L 1021.038271 134.721251 
L 1012.203687 134.721251 
z
" style="fill:#348abd;opacity:0.85;"/>
   </g>
   <g id="patch_89">
    <path clip-path="url(#pe82a1a9edb)" d="M 1023.246917 379.124436 
L 1032.0815 379.124436 
L 1032.0815 154.695595 
L 1023.246917 154.695595 
z
" style="fill:#348abd;opacity:0.85;"/>
   </g>
   <g id="patch_90">
    <path clip-path="url(#pe82a1a9edb)" d="M 1034.290146 379.124436 
L 1043.124729 379.124436 
L 1043.124729 146.324162 
L 1034.290146 146.324162 
z
" style="fill:#348abd;opacity:0.85;"/>
   </g>
   <g id="patch_91">
    <path clip-path="url(#pe82a1a9edb)" d="M 1045.333375 379.124436 
L 1054.167958 379.124436 
L 1054.167958 130.089618 
L 1045.333375 130.089618 
z
" style="fill:#348abd;opacity:0.85;"/>
   </g>
   <g id="patch_92">
    <path clip-path="url(#pe82a1a9edb)" d="M 1056.376604 379.124436 
L 1065.211187 379.124436 
L 1065.211187 147.368038 
L 1056.376604 147.368038 
z
" style="fill:#348abd;opacity:0.85;"/>
   </g>
   <g id="patch_93">
    <path clip-path="url(#pe82a1a9edb)" d="M 1067.419833 379.124436 
L 1076.254417 379.124436 
L 1076.254417 156.831003 
L 1067.419833 156.831003 
z
" style="fill:#348abd;opacity:0.85;"/>
   </g>
   <g id="patch_94">
    <path clip-path="url(#pe82a1a9edb)" d="M 1078.463062 379.124436 
L 1087.297646 379.124436 
L 1087.297646 153.304517 
L 1078.463062 153.304517 
z
" style="fill:#348abd;opacity:0.85;"/>
   </g>
   <g id="patch_95">
    <path clip-path="url(#pe82a1a9edb)" d="M 1089.506292 379.124436 
L 1098.340875 379.124436 
L 1098.340875 179.918821 
L 1089.506292 179.918821 
z
" style="fill:#348abd;opacity:0.85;"/>
   </g>
   <g id="patch_96">
    <path clip-path="url(#pe82a1a9edb)" d="M 1100.549521 379.124436 
L 1109.384104 379.124436 
L 1109.384104 193.958955 
L 1100.549521 193.958955 
z
" style="fill:#348abd;opacity:0.85;"/>
   </g>
   <g id="patch_97">
    <path clip-path="url(#pe82a1a9edb)" d="M 1111.59275 379.124436 
L 1120.427333 379.124436 
L 1120.427333 175.019411 
L 1111.59275 175.019411 
z
" style="fill:#348abd;opacity:0.85;"/>
   </g>
   <g id="patch_98">
    <path clip-path="url(#pe82a1a9edb)" d="M 1122.635979 379.124436 
L 1131.470562 379.124436 
L 1131.470562 183.617773 
L 1122.635979 183.617773 
z
" style="fill:#348abd;opacity:0.85;"/>
   </g>
   <g id="matplotlib.axis_1">
    <g id="xtick_1">
     <g id="line2d_1">
      <path clip-path="url(#pe82a1a9edb)" d="M 77.9465 379.124436 
L 77.9465 33.247636 
" style="fill:none;stroke:#808080;stroke-dasharray:0.3,0.495;stroke-dashoffset:0;stroke-width:0.3;"/>
     </g>
     <g id="line2d_2">
      <defs>
       <path d="M 0 0 
L 0 3.5 
" id="m491f38f044" style="stroke:#000000;stroke-width:0.8;"/>
      </defs>
      <g>
       <use style="stroke:#000000;stroke-width:0.8;" x="77.9465" xlink:href="#m491f38f044" y="379.124436"/>
      </g>
     </g>
     <g id="text_1">
      <!-- 0 -->
      <defs>
       <path d="M 31.78125 66.40625 
Q 24.171875 66.40625 20.328125 58.90625 
Q 16.5 51.421875 16.5 36.375 
Q 16.5 21.390625 20.328125 13.890625 
Q 24.171875 6.390625 31.78125 6.390625 
Q 39.453125 6.390625 43.28125 13.890625 
Q 47.125 21.390625 47.125 36.375 
Q 47.125 51.421875 43.28125 58.90625 
Q 39.453125 66.40625 31.78125 66.40625 
z
M 31.78125 74.21875 
Q 44.046875 74.21875 50.515625 64.515625 
Q 56.984375 54.828125 56.984375 36.375 
Q 56.984375 17.96875 50.515625 8.265625 
Q 44.046875 -1.421875 31.78125 -1.421875 
Q 19.53125 -1.421875 13.0625 8.265625 
Q 6.59375 17.96875 6.59375 36.375 
Q 6.59375 54.828125 13.0625 64.515625 
Q 19.53125 74.21875 31.78125 74.21875 
z
" id="DejaVuSans-48"/>
      </defs>
      <g transform="translate(74.129 395.242561)scale(0.12 -0.12)">
       <use xlink:href="#DejaVuSans-48"/>
      </g>
     </g>
    </g>
    <g id="xtick_2">
     <g id="line2d_3">
      <path clip-path="url(#pe82a1a9edb)" d="M 298.811083 379.124436 
L 298.811083 33.247636 
" style="fill:none;stroke:#808080;stroke-dasharray:0.3,0.495;stroke-dashoffset:0;stroke-width:0.3;"/>
     </g>
     <g id="line2d_4">
      <g>
       <use style="stroke:#000000;stroke-width:0.8;" x="298.811083" xlink:href="#m491f38f044" y="379.124436"/>
      </g>
     </g>
     <g id="text_2">
      <!-- 20 -->
      <defs>
       <path d="M 19.1875 8.296875 
L 53.609375 8.296875 
L 53.609375 0 
L 7.328125 0 
L 7.328125 8.296875 
Q 12.9375 14.109375 22.625 23.890625 
Q 32.328125 33.6875 34.8125 36.53125 
Q 39.546875 41.84375 41.421875 45.53125 
Q 43.3125 49.21875 43.3125 52.78125 
Q 43.3125 58.59375 39.234375 62.25 
Q 35.15625 65.921875 28.609375 65.921875 
Q 23.96875 65.921875 18.8125 64.3125 
Q 13.671875 62.703125 7.8125 59.421875 
L 7.8125 69.390625 
Q 13.765625 71.78125 18.9375 73 
Q 24.125 74.21875 28.421875 74.21875 
Q 39.75 74.21875 46.484375 68.546875 
Q 53.21875 62.890625 53.21875 53.421875 
Q 53.21875 48.921875 51.53125 44.890625 
Q 49.859375 40.875 45.40625 35.40625 
Q 44.1875 33.984375 37.640625 27.21875 
Q 31.109375 20.453125 19.1875 8.296875 
z
" id="DejaVuSans-50"/>
      </defs>
      <g transform="translate(291.176083 395.242561)scale(0.12 -0.12)">
       <use xlink:href="#DejaVuSans-50"/>
       <use x="63.623047" xlink:href="#DejaVuSans-48"/>
      </g>
     </g>
    </g>
    <g id="xtick_3">
     <g id="line2d_5">
      <path clip-path="url(#pe82a1a9edb)" d="M 519.675667 379.124436 
L 519.675667 33.247636 
" style="fill:none;stroke:#808080;stroke-dasharray:0.3,0.495;stroke-dashoffset:0;stroke-width:0.3;"/>
     </g>
     <g id="line2d_6">
      <g>
       <use style="stroke:#000000;stroke-width:0.8;" x="519.675667" xlink:href="#m491f38f044" y="379.124436"/>
      </g>
     </g>
     <g id="text_3">
      <!-- 40 -->
      <defs>
       <path d="M 37.796875 64.3125 
L 12.890625 25.390625 
L 37.796875 25.390625 
z
M 35.203125 72.90625 
L 47.609375 72.90625 
L 47.609375 25.390625 
L 58.015625 25.390625 
L 58.015625 17.1875 
L 47.609375 17.1875 
L 47.609375 0 
L 37.796875 0 
L 37.796875 17.1875 
L 4.890625 17.1875 
L 4.890625 26.703125 
z
" id="DejaVuSans-52"/>
      </defs>
      <g transform="translate(512.040667 395.242561)scale(0.12 -0.12)">
       <use xlink:href="#DejaVuSans-52"/>
       <use x="63.623047" xlink:href="#DejaVuSans-48"/>
      </g>
     </g>
    </g>
    <g id="xtick_4">
     <g id="line2d_7">
      <path clip-path="url(#pe82a1a9edb)" d="M 740.54025 379.124436 
L 740.54025 33.247636 
" style="fill:none;stroke:#808080;stroke-dasharray:0.3,0.495;stroke-dashoffset:0;stroke-width:0.3;"/>
     </g>
     <g id="line2d_8">
      <g>
       <use style="stroke:#000000;stroke-width:0.8;" x="740.54025" xlink:href="#m491f38f044" y="379.124436"/>
      </g>
     </g>
     <g id="text_4">
      <!-- 60 -->
      <defs>
       <path d="M 33.015625 40.375 
Q 26.375 40.375 22.484375 35.828125 
Q 18.609375 31.296875 18.609375 23.390625 
Q 18.609375 15.53125 22.484375 10.953125 
Q 26.375 6.390625 33.015625 6.390625 
Q 39.65625 6.390625 43.53125 10.953125 
Q 47.40625 15.53125 47.40625 23.390625 
Q 47.40625 31.296875 43.53125 35.828125 
Q 39.65625 40.375 33.015625 40.375 
z
M 52.59375 71.296875 
L 52.59375 62.3125 
Q 48.875 64.0625 45.09375 64.984375 
Q 41.3125 65.921875 37.59375 65.921875 
Q 27.828125 65.921875 22.671875 59.328125 
Q 17.53125 52.734375 16.796875 39.40625 
Q 19.671875 43.65625 24.015625 45.921875 
Q 28.375 48.1875 33.59375 48.1875 
Q 44.578125 48.1875 50.953125 41.515625 
Q 57.328125 34.859375 57.328125 23.390625 
Q 57.328125 12.15625 50.6875 5.359375 
Q 44.046875 -1.421875 33.015625 -1.421875 
Q 20.359375 -1.421875 13.671875 8.265625 
Q 6.984375 17.96875 6.984375 36.375 
Q 6.984375 53.65625 15.1875 63.9375 
Q 23.390625 74.21875 37.203125 74.21875 
Q 40.921875 74.21875 44.703125 73.484375 
Q 48.484375 72.75 52.59375 71.296875 
z
" id="DejaVuSans-54"/>
      </defs>
      <g transform="translate(732.90525 395.242561)scale(0.12 -0.12)">
       <use xlink:href="#DejaVuSans-54"/>
       <use x="63.623047" xlink:href="#DejaVuSans-48"/>
      </g>
     </g>
    </g>
    <g id="xtick_5">
     <g id="line2d_9">
      <path clip-path="url(#pe82a1a9edb)" d="M 961.404833 379.124436 
L 961.404833 33.247636 
" style="fill:none;stroke:#808080;stroke-dasharray:0.3,0.495;stroke-dashoffset:0;stroke-width:0.3;"/>
     </g>
     <g id="line2d_10">
      <g>
       <use style="stroke:#000000;stroke-width:0.8;" x="961.404833" xlink:href="#m491f38f044" y="379.124436"/>
      </g>
     </g>
     <g id="text_5">
      <!-- 80 -->
      <defs>
       <path d="M 31.78125 34.625 
Q 24.75 34.625 20.71875 30.859375 
Q 16.703125 27.09375 16.703125 20.515625 
Q 16.703125 13.921875 20.71875 10.15625 
Q 24.75 6.390625 31.78125 6.390625 
Q 38.8125 6.390625 42.859375 10.171875 
Q 46.921875 13.96875 46.921875 20.515625 
Q 46.921875 27.09375 42.890625 30.859375 
Q 38.875 34.625 31.78125 34.625 
z
M 21.921875 38.8125 
Q 15.578125 40.375 12.03125 44.71875 
Q 8.5 49.078125 8.5 55.328125 
Q 8.5 64.0625 14.71875 69.140625 
Q 20.953125 74.21875 31.78125 74.21875 
Q 42.671875 74.21875 48.875 69.140625 
Q 55.078125 64.0625 55.078125 55.328125 
Q 55.078125 49.078125 51.53125 44.71875 
Q 48 40.375 41.703125 38.8125 
Q 48.828125 37.15625 52.796875 32.3125 
Q 56.78125 27.484375 56.78125 20.515625 
Q 56.78125 9.90625 50.3125 4.234375 
Q 43.84375 -1.421875 31.78125 -1.421875 
Q 19.734375 -1.421875 13.25 4.234375 
Q 6.78125 9.90625 6.78125 20.515625 
Q 6.78125 27.484375 10.78125 32.3125 
Q 14.796875 37.15625 21.921875 38.8125 
z
M 18.3125 54.390625 
Q 18.3125 48.734375 21.84375 45.5625 
Q 25.390625 42.390625 31.78125 42.390625 
Q 38.140625 42.390625 41.71875 45.5625 
Q 45.3125 48.734375 45.3125 54.390625 
Q 45.3125 60.0625 41.71875 63.234375 
Q 38.140625 66.40625 31.78125 66.40625 
Q 25.390625 66.40625 21.84375 63.234375 
Q 18.3125 60.0625 18.3125 54.390625 
z
" id="DejaVuSans-56"/>
      </defs>
      <g transform="translate(953.769833 395.242561)scale(0.12 -0.12)">
       <use xlink:href="#DejaVuSans-56"/>
       <use x="63.623047" xlink:href="#DejaVuSans-48"/>
      </g>
     </g>
    </g>
    <g id="text_6">
     <!-- Time (in hours) -->
     <defs>
      <path d="M -0.296875 72.90625 
L 61.375 72.90625 
L 61.375 64.59375 
L 35.5 64.59375 
L 35.5 0 
L 25.59375 0 
L 25.59375 64.59375 
L -0.296875 64.59375 
z
" id="DejaVuSans-84"/>
      <path d="M 9.421875 54.6875 
L 18.40625 54.6875 
L 18.40625 0 
L 9.421875 0 
z
M 9.421875 75.984375 
L 18.40625 75.984375 
L 18.40625 64.59375 
L 9.421875 64.59375 
z
" id="DejaVuSans-105"/>
      <path d="M 52 44.1875 
Q 55.375 50.25 60.0625 53.125 
Q 64.75 56 71.09375 56 
Q 79.640625 56 84.28125 50.015625 
Q 88.921875 44.046875 88.921875 33.015625 
L 88.921875 0 
L 79.890625 0 
L 79.890625 32.71875 
Q 79.890625 40.578125 77.09375 44.375 
Q 74.3125 48.1875 68.609375 48.1875 
Q 61.625 48.1875 57.5625 43.546875 
Q 53.515625 38.921875 53.515625 30.90625 
L 53.515625 0 
L 44.484375 0 
L 44.484375 32.71875 
Q 44.484375 40.625 41.703125 44.40625 
Q 38.921875 48.1875 33.109375 48.1875 
Q 26.21875 48.1875 22.15625 43.53125 
Q 18.109375 38.875 18.109375 30.90625 
L 18.109375 0 
L 9.078125 0 
L 9.078125 54.6875 
L 18.109375 54.6875 
L 18.109375 46.1875 
Q 21.1875 51.21875 25.484375 53.609375 
Q 29.78125 56 35.6875 56 
Q 41.65625 56 45.828125 52.96875 
Q 50 49.953125 52 44.1875 
z
" id="DejaVuSans-109"/>
      <path d="M 56.203125 29.59375 
L 56.203125 25.203125 
L 14.890625 25.203125 
Q 15.484375 15.921875 20.484375 11.0625 
Q 25.484375 6.203125 34.421875 6.203125 
Q 39.59375 6.203125 44.453125 7.46875 
Q 49.3125 8.734375 54.109375 11.28125 
L 54.109375 2.78125 
Q 49.265625 0.734375 44.1875 -0.34375 
Q 39.109375 -1.421875 33.890625 -1.421875 
Q 20.796875 -1.421875 13.15625 6.1875 
Q 5.515625 13.8125 5.515625 26.8125 
Q 5.515625 40.234375 12.765625 48.109375 
Q 20.015625 56 32.328125 56 
Q 43.359375 56 49.78125 48.890625 
Q 56.203125 41.796875 56.203125 29.59375 
z
M 47.21875 32.234375 
Q 47.125 39.59375 43.09375 43.984375 
Q 39.0625 48.390625 32.421875 48.390625 
Q 24.90625 48.390625 20.390625 44.140625 
Q 15.875 39.890625 15.1875 32.171875 
z
" id="DejaVuSans-101"/>
      <path id="DejaVuSans-32"/>
      <path d="M 31 75.875 
Q 24.46875 64.65625 21.28125 53.65625 
Q 18.109375 42.671875 18.109375 31.390625 
Q 18.109375 20.125 21.3125 9.0625 
Q 24.515625 -2 31 -13.1875 
L 23.1875 -13.1875 
Q 15.875 -1.703125 12.234375 9.375 
Q 8.59375 20.453125 8.59375 31.390625 
Q 8.59375 42.28125 12.203125 53.3125 
Q 15.828125 64.359375 23.1875 75.875 
z
" id="DejaVuSans-40"/>
      <path d="M 54.890625 33.015625 
L 54.890625 0 
L 45.90625 0 
L 45.90625 32.71875 
Q 45.90625 40.484375 42.875 44.328125 
Q 39.84375 48.1875 33.796875 48.1875 
Q 26.515625 48.1875 22.3125 43.546875 
Q 18.109375 38.921875 18.109375 30.90625 
L 18.109375 0 
L 9.078125 0 
L 9.078125 54.6875 
L 18.109375 54.6875 
L 18.109375 46.1875 
Q 21.34375 51.125 25.703125 53.5625 
Q 30.078125 56 35.796875 56 
Q 45.21875 56 50.046875 50.171875 
Q 54.890625 44.34375 54.890625 33.015625 
z
" id="DejaVuSans-110"/>
      <path d="M 54.890625 33.015625 
L 54.890625 0 
L 45.90625 0 
L 45.90625 32.71875 
Q 45.90625 40.484375 42.875 44.328125 
Q 39.84375 48.1875 33.796875 48.1875 
Q 26.515625 48.1875 22.3125 43.546875 
Q 18.109375 38.921875 18.109375 30.90625 
L 18.109375 0 
L 9.078125 0 
L 9.078125 75.984375 
L 18.109375 75.984375 
L 18.109375 46.1875 
Q 21.34375 51.125 25.703125 53.5625 
Q 30.078125 56 35.796875 56 
Q 45.21875 56 50.046875 50.171875 
Q 54.890625 44.34375 54.890625 33.015625 
z
" id="DejaVuSans-104"/>
      <path d="M 30.609375 48.390625 
Q 23.390625 48.390625 19.1875 42.75 
Q 14.984375 37.109375 14.984375 27.296875 
Q 14.984375 17.484375 19.15625 11.84375 
Q 23.34375 6.203125 30.609375 6.203125 
Q 37.796875 6.203125 41.984375 11.859375 
Q 46.1875 17.53125 46.1875 27.296875 
Q 46.1875 37.015625 41.984375 42.703125 
Q 37.796875 48.390625 30.609375 48.390625 
z
M 30.609375 56 
Q 42.328125 56 49.015625 48.375 
Q 55.71875 40.765625 55.71875 27.296875 
Q 55.71875 13.875 49.015625 6.21875 
Q 42.328125 -1.421875 30.609375 -1.421875 
Q 18.84375 -1.421875 12.171875 6.21875 
Q 5.515625 13.875 5.515625 27.296875 
Q 5.515625 40.765625 12.171875 48.375 
Q 18.84375 56 30.609375 56 
z
" id="DejaVuSans-111"/>
      <path d="M 8.5 21.578125 
L 8.5 54.6875 
L 17.484375 54.6875 
L 17.484375 21.921875 
Q 17.484375 14.15625 20.5 10.265625 
Q 23.53125 6.390625 29.59375 6.390625 
Q 36.859375 6.390625 41.078125 11.03125 
Q 45.3125 15.671875 45.3125 23.6875 
L 45.3125 54.6875 
L 54.296875 54.6875 
L 54.296875 0 
L 45.3125 0 
L 45.3125 8.40625 
Q 42.046875 3.421875 37.71875 1 
Q 33.40625 -1.421875 27.6875 -1.421875 
Q 18.265625 -1.421875 13.375 4.4375 
Q 8.5 10.296875 8.5 21.578125 
z
M 31.109375 56 
z
" id="DejaVuSans-117"/>
      <path d="M 41.109375 46.296875 
Q 39.59375 47.171875 37.8125 47.578125 
Q 36.03125 48 33.890625 48 
Q 26.265625 48 22.1875 43.046875 
Q 18.109375 38.09375 18.109375 28.8125 
L 18.109375 0 
L 9.078125 0 
L 9.078125 54.6875 
L 18.109375 54.6875 
L 18.109375 46.1875 
Q 20.953125 51.171875 25.484375 53.578125 
Q 30.03125 56 36.53125 56 
Q 37.453125 56 38.578125 55.875 
Q 39.703125 55.765625 41.0625 55.515625 
z
" id="DejaVuSans-114"/>
      <path d="M 44.28125 53.078125 
L 44.28125 44.578125 
Q 40.484375 46.53125 36.375 47.5 
Q 32.28125 48.484375 27.875 48.484375 
Q 21.1875 48.484375 17.84375 46.4375 
Q 14.5 44.390625 14.5 40.28125 
Q 14.5 37.15625 16.890625 35.375 
Q 19.28125 33.59375 26.515625 31.984375 
L 29.59375 31.296875 
Q 39.15625 29.25 43.1875 25.515625 
Q 47.21875 21.78125 47.21875 15.09375 
Q 47.21875 7.46875 41.1875 3.015625 
Q 35.15625 -1.421875 24.609375 -1.421875 
Q 20.21875 -1.421875 15.453125 -0.5625 
Q 10.6875 0.296875 5.421875 2 
L 5.421875 11.28125 
Q 10.40625 8.6875 15.234375 7.390625 
Q 20.0625 6.109375 24.8125 6.109375 
Q 31.15625 6.109375 34.5625 8.28125 
Q 37.984375 10.453125 37.984375 14.40625 
Q 37.984375 18.0625 35.515625 20.015625 
Q 33.0625 21.96875 24.703125 23.78125 
L 21.578125 24.515625 
Q 13.234375 26.265625 9.515625 29.90625 
Q 5.8125 33.546875 5.8125 39.890625 
Q 5.8125 47.609375 11.28125 51.796875 
Q 16.75 56 26.8125 56 
Q 31.78125 56 36.171875 55.265625 
Q 40.578125 54.546875 44.28125 53.078125 
z
" id="DejaVuSans-115"/>
      <path d="M 8.015625 75.875 
L 15.828125 75.875 
Q 23.140625 64.359375 26.78125 53.3125 
Q 30.421875 42.28125 30.421875 31.390625 
Q 30.421875 20.453125 26.78125 9.375 
Q 23.140625 -1.703125 15.828125 -13.1875 
L 8.015625 -13.1875 
Q 14.5 -2 17.703125 9.0625 
Q 20.90625 20.125 20.90625 31.390625 
Q 20.90625 42.671875 17.703125 53.65625 
Q 14.5 64.65625 8.015625 75.875 
z
" id="DejaVuSans-41"/>
     </defs>
     <g transform="translate(553.183375 412.679936)scale(0.144 -0.144)">
      <use xlink:href="#DejaVuSans-84"/>
      <use x="61.037109" xlink:href="#DejaVuSans-105"/>
      <use x="88.820312" xlink:href="#DejaVuSans-109"/>
      <use x="186.232422" xlink:href="#DejaVuSans-101"/>
      <use x="247.755859" xlink:href="#DejaVuSans-32"/>
      <use x="279.542969" xlink:href="#DejaVuSans-40"/>
      <use x="318.556641" xlink:href="#DejaVuSans-105"/>
      <use x="346.339844" xlink:href="#DejaVuSans-110"/>
      <use x="409.71875" xlink:href="#DejaVuSans-32"/>
      <use x="441.505859" xlink:href="#DejaVuSans-104"/>
      <use x="504.884766" xlink:href="#DejaVuSans-111"/>
      <use x="566.066406" xlink:href="#DejaVuSans-117"/>
      <use x="629.445312" xlink:href="#DejaVuSans-114"/>
      <use x="670.558594" xlink:href="#DejaVuSans-115"/>
      <use x="722.658203" xlink:href="#DejaVuSans-41"/>
     </g>
    </g>
   </g>
   <g id="matplotlib.axis_2">
    <g id="ytick_1">
     <g id="line2d_11">
      <path clip-path="url(#pe82a1a9edb)" d="M 77.9465 379.124436 
L 1138.0965 379.124436 
" style="fill:none;stroke:#808080;stroke-dasharray:0.3,0.495;stroke-dashoffset:0;stroke-width:0.3;"/>
     </g>
     <g id="line2d_12">
      <defs>
       <path d="M 0 0 
L -3.5 0 
" id="m0cc5da4de4" style="stroke:#000000;stroke-width:0.8;"/>
      </defs>
      <g>
       <use style="stroke:#000000;stroke-width:0.8;" x="77.9465" xlink:href="#m0cc5da4de4" y="379.124436"/>
      </g>
     </g>
     <g id="text_7">
      <!-- 0 -->
      <g transform="translate(63.3115 383.683498)scale(0.12 -0.12)">
       <use xlink:href="#DejaVuSans-48"/>
      </g>
     </g>
    </g>
    <g id="ytick_2">
     <g id="line2d_13">
      <path clip-path="url(#pe82a1a9edb)" d="M 77.9465 333.738515 
L 1138.0965 333.738515 
" style="fill:none;stroke:#808080;stroke-dasharray:0.3,0.495;stroke-dashoffset:0;stroke-width:0.3;"/>
     </g>
     <g id="line2d_14">
      <g>
       <use style="stroke:#000000;stroke-width:0.8;" x="77.9465" xlink:href="#m0cc5da4de4" y="333.738515"/>
      </g>
     </g>
     <g id="text_8">
      <!-- 20000 -->
      <g transform="translate(32.7715 338.297577)scale(0.12 -0.12)">
       <use xlink:href="#DejaVuSans-50"/>
       <use x="63.623047" xlink:href="#DejaVuSans-48"/>
       <use x="127.246094" xlink:href="#DejaVuSans-48"/>
       <use x="190.869141" xlink:href="#DejaVuSans-48"/>
       <use x="254.492188" xlink:href="#DejaVuSans-48"/>
      </g>
     </g>
    </g>
    <g id="ytick_3">
     <g id="line2d_15">
      <path clip-path="url(#pe82a1a9edb)" d="M 77.9465 288.352594 
L 1138.0965 288.352594 
" style="fill:none;stroke:#808080;stroke-dasharray:0.3,0.495;stroke-dashoffset:0;stroke-width:0.3;"/>
     </g>
     <g id="line2d_16">
      <g>
       <use style="stroke:#000000;stroke-width:0.8;" x="77.9465" xlink:href="#m0cc5da4de4" y="288.352594"/>
      </g>
     </g>
     <g id="text_9">
      <!-- 40000 -->
      <g transform="translate(32.7715 292.911656)scale(0.12 -0.12)">
       <use xlink:href="#DejaVuSans-52"/>
       <use x="63.623047" xlink:href="#DejaVuSans-48"/>
       <use x="127.246094" xlink:href="#DejaVuSans-48"/>
       <use x="190.869141" xlink:href="#DejaVuSans-48"/>
       <use x="254.492188" xlink:href="#DejaVuSans-48"/>
      </g>
     </g>
    </g>
    <g id="ytick_4">
     <g id="line2d_17">
      <path clip-path="url(#pe82a1a9edb)" d="M 77.9465 242.966673 
L 1138.0965 242.966673 
" style="fill:none;stroke:#808080;stroke-dasharray:0.3,0.495;stroke-dashoffset:0;stroke-width:0.3;"/>
     </g>
     <g id="line2d_18">
      <g>
       <use style="stroke:#000000;stroke-width:0.8;" x="77.9465" xlink:href="#m0cc5da4de4" y="242.966673"/>
      </g>
     </g>
     <g id="text_10">
      <!-- 60000 -->
      <g transform="translate(32.7715 247.525735)scale(0.12 -0.12)">
       <use xlink:href="#DejaVuSans-54"/>
       <use x="63.623047" xlink:href="#DejaVuSans-48"/>
       <use x="127.246094" xlink:href="#DejaVuSans-48"/>
       <use x="190.869141" xlink:href="#DejaVuSans-48"/>
       <use x="254.492188" xlink:href="#DejaVuSans-48"/>
      </g>
     </g>
    </g>
    <g id="ytick_5">
     <g id="line2d_19">
      <path clip-path="url(#pe82a1a9edb)" d="M 77.9465 197.580752 
L 1138.0965 197.580752 
" style="fill:none;stroke:#808080;stroke-dasharray:0.3,0.495;stroke-dashoffset:0;stroke-width:0.3;"/>
     </g>
     <g id="line2d_20">
      <g>
       <use style="stroke:#000000;stroke-width:0.8;" x="77.9465" xlink:href="#m0cc5da4de4" y="197.580752"/>
      </g>
     </g>
     <g id="text_11">
      <!-- 80000 -->
      <g transform="translate(32.7715 202.139814)scale(0.12 -0.12)">
       <use xlink:href="#DejaVuSans-56"/>
       <use x="63.623047" xlink:href="#DejaVuSans-48"/>
       <use x="127.246094" xlink:href="#DejaVuSans-48"/>
       <use x="190.869141" xlink:href="#DejaVuSans-48"/>
       <use x="254.492188" xlink:href="#DejaVuSans-48"/>
      </g>
     </g>
    </g>
    <g id="ytick_6">
     <g id="line2d_21">
      <path clip-path="url(#pe82a1a9edb)" d="M 77.9465 152.194831 
L 1138.0965 152.194831 
" style="fill:none;stroke:#808080;stroke-dasharray:0.3,0.495;stroke-dashoffset:0;stroke-width:0.3;"/>
     </g>
     <g id="line2d_22">
      <g>
       <use style="stroke:#000000;stroke-width:0.8;" x="77.9465" xlink:href="#m0cc5da4de4" y="152.194831"/>
      </g>
     </g>
     <g id="text_12">
      <!-- 100000 -->
      <defs>
       <path d="M 12.40625 8.296875 
L 28.515625 8.296875 
L 28.515625 63.921875 
L 10.984375 60.40625 
L 10.984375 69.390625 
L 28.421875 72.90625 
L 38.28125 72.90625 
L 38.28125 8.296875 
L 54.390625 8.296875 
L 54.390625 0 
L 12.40625 0 
z
" id="DejaVuSans-49"/>
      </defs>
      <g transform="translate(25.1365 156.753893)scale(0.12 -0.12)">
       <use xlink:href="#DejaVuSans-49"/>
       <use x="63.623047" xlink:href="#DejaVuSans-48"/>
       <use x="127.246094" xlink:href="#DejaVuSans-48"/>
       <use x="190.869141" xlink:href="#DejaVuSans-48"/>
       <use x="254.492188" xlink:href="#DejaVuSans-48"/>
       <use x="318.115234" xlink:href="#DejaVuSans-48"/>
      </g>
     </g>
    </g>
    <g id="ytick_7">
     <g id="line2d_23">
      <path clip-path="url(#pe82a1a9edb)" d="M 77.9465 106.80891 
L 1138.0965 106.80891 
" style="fill:none;stroke:#808080;stroke-dasharray:0.3,0.495;stroke-dashoffset:0;stroke-width:0.3;"/>
     </g>
     <g id="line2d_24">
      <g>
       <use style="stroke:#000000;stroke-width:0.8;" x="77.9465" xlink:href="#m0cc5da4de4" y="106.80891"/>
      </g>
     </g>
     <g id="text_13">
      <!-- 120000 -->
      <g transform="translate(25.1365 111.367972)scale(0.12 -0.12)">
       <use xlink:href="#DejaVuSans-49"/>
       <use x="63.623047" xlink:href="#DejaVuSans-50"/>
       <use x="127.246094" xlink:href="#DejaVuSans-48"/>
       <use x="190.869141" xlink:href="#DejaVuSans-48"/>
       <use x="254.492188" xlink:href="#DejaVuSans-48"/>
       <use x="318.115234" xlink:href="#DejaVuSans-48"/>
      </g>
     </g>
    </g>
    <g id="ytick_8">
     <g id="line2d_25">
      <path clip-path="url(#pe82a1a9edb)" d="M 77.9465 61.422989 
L 1138.0965 61.422989 
" style="fill:none;stroke:#808080;stroke-dasharray:0.3,0.495;stroke-dashoffset:0;stroke-width:0.3;"/>
     </g>
     <g id="line2d_26">
      <g>
       <use style="stroke:#000000;stroke-width:0.8;" x="77.9465" xlink:href="#m0cc5da4de4" y="61.422989"/>
      </g>
     </g>
     <g id="text_14">
      <!-- 140000 -->
      <g transform="translate(25.1365 65.982051)scale(0.12 -0.12)">
       <use xlink:href="#DejaVuSans-49"/>
       <use x="63.623047" xlink:href="#DejaVuSans-52"/>
       <use x="127.246094" xlink:href="#DejaVuSans-48"/>
       <use x="190.869141" xlink:href="#DejaVuSans-48"/>
       <use x="254.492188" xlink:href="#DejaVuSans-48"/>
       <use x="318.115234" xlink:href="#DejaVuSans-48"/>
      </g>
     </g>
    </g>
    <g id="text_15">
     <!-- Energy [Wh] -->
     <defs>
      <path d="M 9.8125 72.90625 
L 55.90625 72.90625 
L 55.90625 64.59375 
L 19.671875 64.59375 
L 19.671875 43.015625 
L 54.390625 43.015625 
L 54.390625 34.71875 
L 19.671875 34.71875 
L 19.671875 8.296875 
L 56.78125 8.296875 
L 56.78125 0 
L 9.8125 0 
z
" id="DejaVuSans-69"/>
      <path d="M 45.40625 27.984375 
Q 45.40625 37.75 41.375 43.109375 
Q 37.359375 48.484375 30.078125 48.484375 
Q 22.859375 48.484375 18.828125 43.109375 
Q 14.796875 37.75 14.796875 27.984375 
Q 14.796875 18.265625 18.828125 12.890625 
Q 22.859375 7.515625 30.078125 7.515625 
Q 37.359375 7.515625 41.375 12.890625 
Q 45.40625 18.265625 45.40625 27.984375 
z
M 54.390625 6.78125 
Q 54.390625 -7.171875 48.1875 -13.984375 
Q 42 -20.796875 29.203125 -20.796875 
Q 24.46875 -20.796875 20.265625 -20.09375 
Q 16.0625 -19.390625 12.109375 -17.921875 
L 12.109375 -9.1875 
Q 16.0625 -11.328125 19.921875 -12.34375 
Q 23.78125 -13.375 27.78125 -13.375 
Q 36.625 -13.375 41.015625 -8.765625 
Q 45.40625 -4.15625 45.40625 5.171875 
L 45.40625 9.625 
Q 42.625 4.78125 38.28125 2.390625 
Q 33.9375 0 27.875 0 
Q 17.828125 0 11.671875 7.65625 
Q 5.515625 15.328125 5.515625 27.984375 
Q 5.515625 40.671875 11.671875 48.328125 
Q 17.828125 56 27.875 56 
Q 33.9375 56 38.28125 53.609375 
Q 42.625 51.21875 45.40625 46.390625 
L 45.40625 54.6875 
L 54.390625 54.6875 
z
" id="DejaVuSans-103"/>
      <path d="M 32.171875 -5.078125 
Q 28.375 -14.84375 24.75 -17.8125 
Q 21.140625 -20.796875 15.09375 -20.796875 
L 7.90625 -20.796875 
L 7.90625 -13.28125 
L 13.1875 -13.28125 
Q 16.890625 -13.28125 18.9375 -11.515625 
Q 21 -9.765625 23.484375 -3.21875 
L 25.09375 0.875 
L 2.984375 54.6875 
L 12.5 54.6875 
L 29.59375 11.921875 
L 46.6875 54.6875 
L 56.203125 54.6875 
z
" id="DejaVuSans-121"/>
      <path d="M 8.59375 75.984375 
L 29.296875 75.984375 
L 29.296875 69 
L 17.578125 69 
L 17.578125 -6.203125 
L 29.296875 -6.203125 
L 29.296875 -13.1875 
L 8.59375 -13.1875 
z
" id="DejaVuSans-91"/>
      <path d="M 3.328125 72.90625 
L 13.28125 72.90625 
L 28.609375 11.28125 
L 43.890625 72.90625 
L 54.984375 72.90625 
L 70.3125 11.28125 
L 85.59375 72.90625 
L 95.609375 72.90625 
L 77.296875 0 
L 64.890625 0 
L 49.515625 63.28125 
L 33.984375 0 
L 21.578125 0 
z
" id="DejaVuSans-87"/>
      <path d="M 30.421875 75.984375 
L 30.421875 -13.1875 
L 9.71875 -13.1875 
L 9.71875 -6.203125 
L 21.390625 -6.203125 
L 21.390625 69 
L 9.71875 69 
L 9.71875 75.984375 
z
" id="DejaVuSans-93"/>
     </defs>
     <g transform="translate(18.14175 251.108411)rotate(-90)scale(0.144 -0.144)">
      <use xlink:href="#DejaVuSans-69"/>
      <use x="63.183594" xlink:href="#DejaVuSans-110"/>
      <use x="126.5625" xlink:href="#DejaVuSans-101"/>
      <use x="188.085938" xlink:href="#DejaVuSans-114"/>
      <use x="229.183594" xlink:href="#DejaVuSans-103"/>
      <use x="292.660156" xlink:href="#DejaVuSans-121"/>
      <use x="351.839844" xlink:href="#DejaVuSans-32"/>
      <use x="383.626953" xlink:href="#DejaVuSans-91"/>
      <use x="422.640625" xlink:href="#DejaVuSans-87"/>
      <use x="521.517578" xlink:href="#DejaVuSans-104"/>
      <use x="584.896484" xlink:href="#DejaVuSans-93"/>
     </g>
    </g>
   </g>
   <g id="line2d_27">
    <path clip-path="url(#pe82a1a9edb)" d="M 77.9465 144.048082 
L 88.989729 144.048082 
L 100.032958 144.048082 
L 111.076188 144.048082 
L 122.119417 144.048082 
L 133.162646 144.048082 
L 144.205875 144.048082 
L 155.249104 144.048082 
L 166.292333 144.048082 
L 177.335562 144.048082 
L 188.378792 144.048082 
L 199.422021 144.048082 
L 210.46525 144.048082 
L 221.508479 144.048082 
L 232.551708 144.048082 
L 243.594938 144.048082 
L 254.638167 144.048082 
L 265.681396 144.048082 
L 276.724625 144.048082 
L 287.767854 144.048082 
L 298.811083 144.048082 
L 309.854312 144.048082 
L 320.897542 144.048082 
L 331.940771 144.048082 
L 342.984 144.048082 
L 354.027229 144.048082 
L 365.070458 144.048082 
L 376.113688 144.048082 
L 387.156917 144.048082 
L 398.200146 144.048082 
L 409.243375 144.048082 
L 420.286604 144.048082 
L 431.329833 144.048082 
L 442.373063 144.048082 
L 453.416292 144.048082 
L 464.459521 144.048082 
L 475.50275 144.048082 
L 486.545979 144.048082 
L 497.589208 144.048082 
L 508.632437 144.048082 
L 519.675667 144.048082 
L 530.718896 144.048082 
L 541.762125 144.048082 
L 552.805354 157.610034 
L 563.848583 157.610034 
L 574.891813 157.610034 
L 585.935042 157.610034 
L 596.978271 157.610034 
L 608.0215 157.610034 
L 619.064729 157.610034 
L 630.107958 157.610034 
L 641.151187 157.610034 
L 652.194417 157.610034 
L 663.237646 157.610034 
L 674.280875 157.610034 
L 685.324104 157.610034 
L 696.367333 157.610034 
L 707.410562 157.610034 
L 718.453792 157.610034 
L 729.497021 157.610034 
L 740.54025 157.610034 
L 751.583479 157.610034 
L 762.626708 157.610034 
L 773.669937 157.610034 
L 784.713167 157.610034 
L 795.756396 157.610034 
L 806.799625 157.610034 
L 817.842854 157.610034 
L 828.886083 157.610034 
L 839.929313 157.610034 
L 850.972542 157.610034 
L 862.015771 157.610034 
L 873.059 154.561265 
L 884.102229 154.561265 
L 895.145458 154.561265 
L 906.188688 154.561265 
L 917.231917 154.561265 
L 928.275146 154.561265 
L 939.318375 154.561265 
L 950.361604 154.561265 
L 961.404833 154.561265 
L 972.448062 154.561265 
L 983.491292 154.561265 
L 994.534521 154.561265 
L 1005.57775 154.561265 
L 1016.620979 154.561265 
L 1027.664208 154.561265 
L 1038.707437 154.561265 
L 1049.750667 154.561265 
L 1060.793896 154.561265 
L 1071.837125 154.561265 
L 1082.880354 154.561265 
L 1093.923583 154.561265 
L 1104.966813 154.561265 
L 1116.010042 154.561265 
L 1127.053271 154.561265 
" style="fill:none;stroke:#e24a33;stroke-linecap:square;stroke-opacity:0.95;stroke-width:4;"/>
   </g>
   <g id="line2d_28">
    <path clip-path="url(#pe82a1a9edb)" d="M 641.151187 379.124436 
L 641.151187 33.247636 
" style="fill:none;stroke:#000000;stroke-dasharray:4,6.6;stroke-dashoffset:0;stroke-width:4;"/>
   </g>
   <g id="patch_99">
    <path d="M 77.9465 379.124436 
L 77.9465 33.247636 
" style="fill:none;stroke:#000000;stroke-linecap:square;stroke-linejoin:miter;stroke-width:0.8;"/>
   </g>
   <g id="patch_100">
    <path d="M 1138.0965 379.124436 
L 1138.0965 33.247636 
" style="fill:none;stroke:#000000;stroke-linecap:square;stroke-linejoin:miter;stroke-width:0.8;"/>
   </g>
   <g id="patch_101">
    <path d="M 77.9465 379.124436 
L 1138.0965 379.124436 
" style="fill:none;stroke:#000000;stroke-linecap:square;stroke-linejoin:miter;stroke-width:0.8;"/>
   </g>
   <g id="patch_102">
    <path d="M 77.9465 33.247636 
L 1138.0965 33.247636 
" style="fill:none;stroke:#000000;stroke-linecap:square;stroke-linejoin:miter;stroke-width:0.8;"/>
   </g>
   <g id="text_16">
    <!-- 04-Nov-2019, 11:00 -->
    <defs>
     <path d="M 4.890625 31.390625 
L 31.203125 31.390625 
L 31.203125 23.390625 
L 4.890625 23.390625 
z
" id="DejaVuSans-45"/>
     <path d="M 9.8125 72.90625 
L 23.09375 72.90625 
L 55.421875 11.921875 
L 55.421875 72.90625 
L 64.984375 72.90625 
L 64.984375 0 
L 51.703125 0 
L 19.390625 60.984375 
L 19.390625 0 
L 9.8125 0 
z
" id="DejaVuSans-78"/>
     <path d="M 2.984375 54.6875 
L 12.5 54.6875 
L 29.59375 8.796875 
L 46.6875 54.6875 
L 56.203125 54.6875 
L 35.6875 0 
L 23.484375 0 
z
" id="DejaVuSans-118"/>
     <path d="M 10.984375 1.515625 
L 10.984375 10.5 
Q 14.703125 8.734375 18.5 7.8125 
Q 22.3125 6.890625 25.984375 6.890625 
Q 35.75 6.890625 40.890625 13.453125 
Q 46.046875 20.015625 46.78125 33.40625 
Q 43.953125 29.203125 39.59375 26.953125 
Q 35.25 24.703125 29.984375 24.703125 
Q 19.046875 24.703125 12.671875 31.3125 
Q 6.296875 37.9375 6.296875 49.421875 
Q 6.296875 60.640625 12.9375 67.421875 
Q 19.578125 74.21875 30.609375 74.21875 
Q 43.265625 74.21875 49.921875 64.515625 
Q 56.59375 54.828125 56.59375 36.375 
Q 56.59375 19.140625 48.40625 8.859375 
Q 40.234375 -1.421875 26.421875 -1.421875 
Q 22.703125 -1.421875 18.890625 -0.6875 
Q 15.09375 0.046875 10.984375 1.515625 
z
M 30.609375 32.421875 
Q 37.25 32.421875 41.125 36.953125 
Q 45.015625 41.5 45.015625 49.421875 
Q 45.015625 57.28125 41.125 61.84375 
Q 37.25 66.40625 30.609375 66.40625 
Q 23.96875 66.40625 20.09375 61.84375 
Q 16.21875 57.28125 16.21875 49.421875 
Q 16.21875 41.5 20.09375 36.953125 
Q 23.96875 32.421875 30.609375 32.421875 
z
" id="DejaVuSans-57"/>
     <path d="M 11.71875 12.40625 
L 22.015625 12.40625 
L 22.015625 4 
L 14.015625 -11.625 
L 7.71875 -11.625 
L 11.71875 4 
z
" id="DejaVuSans-44"/>
     <path d="M 11.71875 12.40625 
L 22.015625 12.40625 
L 22.015625 0 
L 11.71875 0 
z
M 11.71875 51.703125 
L 22.015625 51.703125 
L 22.015625 39.3125 
L 11.71875 39.3125 
z
" id="DejaVuSans-58"/>
    </defs>
    <g transform="translate(574.891813 174.887791)scale(0.16 -0.16)">
     <use xlink:href="#DejaVuSans-48"/>
     <use x="63.623047" xlink:href="#DejaVuSans-52"/>
     <use x="127.246094" xlink:href="#DejaVuSans-45"/>
     <use x="163.330078" xlink:href="#DejaVuSans-78"/>
     <use x="238.134766" xlink:href="#DejaVuSans-111"/>
     <use x="299.316406" xlink:href="#DejaVuSans-118"/>
     <use x="358.464844" xlink:href="#DejaVuSans-45"/>
     <use x="394.548828" xlink:href="#DejaVuSans-50"/>
     <use x="458.171875" xlink:href="#DejaVuSans-48"/>
     <use x="521.794922" xlink:href="#DejaVuSans-49"/>
     <use x="585.417969" xlink:href="#DejaVuSans-57"/>
     <use x="649.041016" xlink:href="#DejaVuSans-44"/>
     <use x="680.828125" xlink:href="#DejaVuSans-32"/>
     <use x="712.615234" xlink:href="#DejaVuSans-49"/>
     <use x="776.238281" xlink:href="#DejaVuSans-49"/>
     <use x="839.861328" xlink:href="#DejaVuSans-58"/>
     <use x="873.552734" xlink:href="#DejaVuSans-48"/>
     <use x="937.175781" xlink:href="#DejaVuSans-48"/>
    </g>
   </g>
   <g id="text_17">
    <!-- Expected energy consumption (main incomer, KFC Argyle Rd Glasgow) -->
    <defs>
     <path d="M 54.890625 54.6875 
L 35.109375 28.078125 
L 55.90625 0 
L 45.3125 0 
L 29.390625 21.484375 
L 13.484375 0 
L 2.875 0 
L 24.125 28.609375 
L 4.6875 54.6875 
L 15.28125 54.6875 
L 29.78125 35.203125 
L 44.28125 54.6875 
z
" id="DejaVuSans-120"/>
     <path d="M 18.109375 8.203125 
L 18.109375 -20.796875 
L 9.078125 -20.796875 
L 9.078125 54.6875 
L 18.109375 54.6875 
L 18.109375 46.390625 
Q 20.953125 51.265625 25.265625 53.625 
Q 29.59375 56 35.59375 56 
Q 45.5625 56 51.78125 48.09375 
Q 58.015625 40.1875 58.015625 27.296875 
Q 58.015625 14.40625 51.78125 6.484375 
Q 45.5625 -1.421875 35.59375 -1.421875 
Q 29.59375 -1.421875 25.265625 0.953125 
Q 20.953125 3.328125 18.109375 8.203125 
z
M 48.6875 27.296875 
Q 48.6875 37.203125 44.609375 42.84375 
Q 40.53125 48.484375 33.40625 48.484375 
Q 26.265625 48.484375 22.1875 42.84375 
Q 18.109375 37.203125 18.109375 27.296875 
Q 18.109375 17.390625 22.1875 11.75 
Q 26.265625 6.109375 33.40625 6.109375 
Q 40.53125 6.109375 44.609375 11.75 
Q 48.6875 17.390625 48.6875 27.296875 
z
" id="DejaVuSans-112"/>
     <path d="M 48.78125 52.59375 
L 48.78125 44.1875 
Q 44.96875 46.296875 41.140625 47.34375 
Q 37.3125 48.390625 33.40625 48.390625 
Q 24.65625 48.390625 19.8125 42.84375 
Q 14.984375 37.3125 14.984375 27.296875 
Q 14.984375 17.28125 19.8125 11.734375 
Q 24.65625 6.203125 33.40625 6.203125 
Q 37.3125 6.203125 41.140625 7.25 
Q 44.96875 8.296875 48.78125 10.40625 
L 48.78125 2.09375 
Q 45.015625 0.34375 40.984375 -0.53125 
Q 36.96875 -1.421875 32.421875 -1.421875 
Q 20.0625 -1.421875 12.78125 6.34375 
Q 5.515625 14.109375 5.515625 27.296875 
Q 5.515625 40.671875 12.859375 48.328125 
Q 20.21875 56 33.015625 56 
Q 37.15625 56 41.109375 55.140625 
Q 45.0625 54.296875 48.78125 52.59375 
z
" id="DejaVuSans-99"/>
     <path d="M 18.3125 70.21875 
L 18.3125 54.6875 
L 36.8125 54.6875 
L 36.8125 47.703125 
L 18.3125 47.703125 
L 18.3125 18.015625 
Q 18.3125 11.328125 20.140625 9.421875 
Q 21.96875 7.515625 27.59375 7.515625 
L 36.8125 7.515625 
L 36.8125 0 
L 27.59375 0 
Q 17.1875 0 13.234375 3.875 
Q 9.28125 7.765625 9.28125 18.015625 
L 9.28125 47.703125 
L 2.6875 47.703125 
L 2.6875 54.6875 
L 9.28125 54.6875 
L 9.28125 70.21875 
z
" id="DejaVuSans-116"/>
     <path d="M 45.40625 46.390625 
L 45.40625 75.984375 
L 54.390625 75.984375 
L 54.390625 0 
L 45.40625 0 
L 45.40625 8.203125 
Q 42.578125 3.328125 38.25 0.953125 
Q 33.9375 -1.421875 27.875 -1.421875 
Q 17.96875 -1.421875 11.734375 6.484375 
Q 5.515625 14.40625 5.515625 27.296875 
Q 5.515625 40.1875 11.734375 48.09375 
Q 17.96875 56 27.875 56 
Q 33.9375 56 38.25 53.625 
Q 42.578125 51.265625 45.40625 46.390625 
z
M 14.796875 27.296875 
Q 14.796875 17.390625 18.875 11.75 
Q 22.953125 6.109375 30.078125 6.109375 
Q 37.203125 6.109375 41.296875 11.75 
Q 45.40625 17.390625 45.40625 27.296875 
Q 45.40625 37.203125 41.296875 42.84375 
Q 37.203125 48.484375 30.078125 48.484375 
Q 22.953125 48.484375 18.875 42.84375 
Q 14.796875 37.203125 14.796875 27.296875 
z
" id="DejaVuSans-100"/>
     <path d="M 34.28125 27.484375 
Q 23.390625 27.484375 19.1875 25 
Q 14.984375 22.515625 14.984375 16.5 
Q 14.984375 11.71875 18.140625 8.90625 
Q 21.296875 6.109375 26.703125 6.109375 
Q 34.1875 6.109375 38.703125 11.40625 
Q 43.21875 16.703125 43.21875 25.484375 
L 43.21875 27.484375 
z
M 52.203125 31.203125 
L 52.203125 0 
L 43.21875 0 
L 43.21875 8.296875 
Q 40.140625 3.328125 35.546875 0.953125 
Q 30.953125 -1.421875 24.3125 -1.421875 
Q 15.921875 -1.421875 10.953125 3.296875 
Q 6 8.015625 6 15.921875 
Q 6 25.140625 12.171875 29.828125 
Q 18.359375 34.515625 30.609375 34.515625 
L 43.21875 34.515625 
L 43.21875 35.40625 
Q 43.21875 41.609375 39.140625 45 
Q 35.0625 48.390625 27.6875 48.390625 
Q 23 48.390625 18.546875 47.265625 
Q 14.109375 46.140625 10.015625 43.890625 
L 10.015625 52.203125 
Q 14.9375 54.109375 19.578125 55.046875 
Q 24.21875 56 28.609375 56 
Q 40.484375 56 46.34375 49.84375 
Q 52.203125 43.703125 52.203125 31.203125 
z
" id="DejaVuSans-97"/>
     <path d="M 9.8125 72.90625 
L 19.671875 72.90625 
L 19.671875 42.09375 
L 52.390625 72.90625 
L 65.09375 72.90625 
L 28.90625 38.921875 
L 67.671875 0 
L 54.6875 0 
L 19.671875 35.109375 
L 19.671875 0 
L 9.8125 0 
z
" id="DejaVuSans-75"/>
     <path d="M 9.8125 72.90625 
L 51.703125 72.90625 
L 51.703125 64.59375 
L 19.671875 64.59375 
L 19.671875 43.109375 
L 48.578125 43.109375 
L 48.578125 34.8125 
L 19.671875 34.8125 
L 19.671875 0 
L 9.8125 0 
z
" id="DejaVuSans-70"/>
     <path d="M 64.40625 67.28125 
L 64.40625 56.890625 
Q 59.421875 61.53125 53.78125 63.8125 
Q 48.140625 66.109375 41.796875 66.109375 
Q 29.296875 66.109375 22.65625 58.46875 
Q 16.015625 50.828125 16.015625 36.375 
Q 16.015625 21.96875 22.65625 14.328125 
Q 29.296875 6.6875 41.796875 6.6875 
Q 48.140625 6.6875 53.78125 8.984375 
Q 59.421875 11.28125 64.40625 15.921875 
L 64.40625 5.609375 
Q 59.234375 2.09375 53.4375 0.328125 
Q 47.65625 -1.421875 41.21875 -1.421875 
Q 24.65625 -1.421875 15.125 8.703125 
Q 5.609375 18.84375 5.609375 36.375 
Q 5.609375 53.953125 15.125 64.078125 
Q 24.65625 74.21875 41.21875 74.21875 
Q 47.75 74.21875 53.53125 72.484375 
Q 59.328125 70.75 64.40625 67.28125 
z
" id="DejaVuSans-67"/>
     <path d="M 34.1875 63.1875 
L 20.796875 26.90625 
L 47.609375 26.90625 
z
M 28.609375 72.90625 
L 39.796875 72.90625 
L 67.578125 0 
L 57.328125 0 
L 50.6875 18.703125 
L 17.828125 18.703125 
L 11.1875 0 
L 0.78125 0 
z
" id="DejaVuSans-65"/>
     <path d="M 9.421875 75.984375 
L 18.40625 75.984375 
L 18.40625 0 
L 9.421875 0 
z
" id="DejaVuSans-108"/>
     <path d="M 44.390625 34.1875 
Q 47.5625 33.109375 50.5625 29.59375 
Q 53.5625 26.078125 56.59375 19.921875 
L 66.609375 0 
L 56 0 
L 46.6875 18.703125 
Q 43.0625 26.03125 39.671875 28.421875 
Q 36.28125 30.8125 30.421875 30.8125 
L 19.671875 30.8125 
L 19.671875 0 
L 9.8125 0 
L 9.8125 72.90625 
L 32.078125 72.90625 
Q 44.578125 72.90625 50.734375 67.671875 
Q 56.890625 62.453125 56.890625 51.90625 
Q 56.890625 45.015625 53.6875 40.46875 
Q 50.484375 35.9375 44.390625 34.1875 
z
M 19.671875 64.796875 
L 19.671875 38.921875 
L 32.078125 38.921875 
Q 39.203125 38.921875 42.84375 42.21875 
Q 46.484375 45.515625 46.484375 51.90625 
Q 46.484375 58.296875 42.84375 61.546875 
Q 39.203125 64.796875 32.078125 64.796875 
z
" id="DejaVuSans-82"/>
     <path d="M 59.515625 10.40625 
L 59.515625 29.984375 
L 43.40625 29.984375 
L 43.40625 38.09375 
L 69.28125 38.09375 
L 69.28125 6.78125 
Q 63.578125 2.734375 56.6875 0.65625 
Q 49.8125 -1.421875 42 -1.421875 
Q 24.90625 -1.421875 15.25 8.5625 
Q 5.609375 18.5625 5.609375 36.375 
Q 5.609375 54.25 15.25 64.234375 
Q 24.90625 74.21875 42 74.21875 
Q 49.125 74.21875 55.546875 72.453125 
Q 61.96875 70.703125 67.390625 67.28125 
L 67.390625 56.78125 
Q 61.921875 61.421875 55.765625 63.765625 
Q 49.609375 66.109375 42.828125 66.109375 
Q 29.4375 66.109375 22.71875 58.640625 
Q 16.015625 51.171875 16.015625 36.375 
Q 16.015625 21.625 22.71875 14.15625 
Q 29.4375 6.6875 42.828125 6.6875 
Q 48.046875 6.6875 52.140625 7.59375 
Q 56.25 8.5 59.515625 10.40625 
z
" id="DejaVuSans-71"/>
     <path d="M 4.203125 54.6875 
L 13.1875 54.6875 
L 24.421875 12.015625 
L 35.59375 54.6875 
L 46.1875 54.6875 
L 57.421875 12.015625 
L 68.609375 54.6875 
L 77.59375 54.6875 
L 63.28125 0 
L 52.6875 0 
L 40.921875 44.828125 
L 29.109375 0 
L 18.5 0 
z
" id="DejaVuSans-119"/>
    </defs>
    <g transform="translate(300.6103 20.3301)scale(0.1728 -0.1728)">
     <use xlink:href="#DejaVuSans-69"/>
     <use x="63.183594" xlink:href="#DejaVuSans-120"/>
     <use x="122.363281" xlink:href="#DejaVuSans-112"/>
     <use x="185.839844" xlink:href="#DejaVuSans-101"/>
     <use x="247.363281" xlink:href="#DejaVuSans-99"/>
     <use x="302.34375" xlink:href="#DejaVuSans-116"/>
     <use x="341.552734" xlink:href="#DejaVuSans-101"/>
     <use x="403.076172" xlink:href="#DejaVuSans-100"/>
     <use x="466.552734" xlink:href="#DejaVuSans-32"/>
     <use x="498.339844" xlink:href="#DejaVuSans-101"/>
     <use x="559.863281" xlink:href="#DejaVuSans-110"/>
     <use x="623.242188" xlink:href="#DejaVuSans-101"/>
     <use x="684.765625" xlink:href="#DejaVuSans-114"/>
     <use x="725.863281" xlink:href="#DejaVuSans-103"/>
     <use x="789.339844" xlink:href="#DejaVuSans-121"/>
     <use x="848.519531" xlink:href="#DejaVuSans-32"/>
     <use x="880.306641" xlink:href="#DejaVuSans-99"/>
     <use x="935.287109" xlink:href="#DejaVuSans-111"/>
     <use x="996.46875" xlink:href="#DejaVuSans-110"/>
     <use x="1059.847656" xlink:href="#DejaVuSans-115"/>
     <use x="1111.947266" xlink:href="#DejaVuSans-117"/>
     <use x="1175.326172" xlink:href="#DejaVuSans-109"/>
     <use x="1272.738281" xlink:href="#DejaVuSans-112"/>
     <use x="1336.214844" xlink:href="#DejaVuSans-116"/>
     <use x="1375.423828" xlink:href="#DejaVuSans-105"/>
     <use x="1403.207031" xlink:href="#DejaVuSans-111"/>
     <use x="1464.388672" xlink:href="#DejaVuSans-110"/>
     <use x="1527.767578" xlink:href="#DejaVuSans-32"/>
     <use x="1559.554688" xlink:href="#DejaVuSans-40"/>
     <use x="1598.568359" xlink:href="#DejaVuSans-109"/>
     <use x="1695.980469" xlink:href="#DejaVuSans-97"/>
     <use x="1757.259766" xlink:href="#DejaVuSans-105"/>
     <use x="1785.042969" xlink:href="#DejaVuSans-110"/>
     <use x="1848.421875" xlink:href="#DejaVuSans-32"/>
     <use x="1880.208984" xlink:href="#DejaVuSans-105"/>
     <use x="1907.992188" xlink:href="#DejaVuSans-110"/>
     <use x="1971.371094" xlink:href="#DejaVuSans-99"/>
     <use x="2026.351562" xlink:href="#DejaVuSans-111"/>
     <use x="2087.533203" xlink:href="#DejaVuSans-109"/>
     <use x="2184.945312" xlink:href="#DejaVuSans-101"/>
     <use x="2246.46875" xlink:href="#DejaVuSans-114"/>
     <use x="2287.582031" xlink:href="#DejaVuSans-44"/>
     <use x="2319.369141" xlink:href="#DejaVuSans-32"/>
     <use x="2351.15625" xlink:href="#DejaVuSans-75"/>
     <use x="2416.732422" xlink:href="#DejaVuSans-70"/>
     <use x="2474.251953" xlink:href="#DejaVuSans-67"/>
     <use x="2544.076172" xlink:href="#DejaVuSans-32"/>
     <use x="2575.863281" xlink:href="#DejaVuSans-65"/>
     <use x="2644.271484" xlink:href="#DejaVuSans-114"/>
     <use x="2685.369141" xlink:href="#DejaVuSans-103"/>
     <use x="2748.845703" xlink:href="#DejaVuSans-121"/>
     <use x="2808.025391" xlink:href="#DejaVuSans-108"/>
     <use x="2835.808594" xlink:href="#DejaVuSans-101"/>
     <use x="2897.332031" xlink:href="#DejaVuSans-32"/>
     <use x="2929.119141" xlink:href="#DejaVuSans-82"/>
     <use x="2998.601562" xlink:href="#DejaVuSans-100"/>
     <use x="3062.078125" xlink:href="#DejaVuSans-32"/>
     <use x="3093.865234" xlink:href="#DejaVuSans-71"/>
     <use x="3171.355469" xlink:href="#DejaVuSans-108"/>
     <use x="3199.138672" xlink:href="#DejaVuSans-97"/>
     <use x="3260.417969" xlink:href="#DejaVuSans-115"/>
     <use x="3312.517578" xlink:href="#DejaVuSans-103"/>
     <use x="3375.994141" xlink:href="#DejaVuSans-111"/>
     <use x="3437.175781" xlink:href="#DejaVuSans-119"/>
     <use x="3518.962891" xlink:href="#DejaVuSans-41"/>
    </g>
   </g>
   <g id="legend_1">
    <g id="patch_103">
     <path d="M 953.99775 113.302636 
L 1129.6965 113.302636 
Q 1132.0965 113.302636 1132.0965 110.902636 
L 1132.0965 41.647636 
Q 1132.0965 39.247636 1129.6965 39.247636 
L 953.99775 39.247636 
Q 951.59775 39.247636 951.59775 41.647636 
L 951.59775 110.902636 
Q 951.59775 113.302636 953.99775 113.302636 
z
" style="fill:#ffffff;opacity:0.8;stroke:#cccccc;stroke-linejoin:miter;"/>
    </g>
    <g id="line2d_29">
     <path d="M 956.39775 48.965761 
L 980.39775 48.965761 
" style="fill:none;stroke:#e24a33;stroke-linecap:square;stroke-opacity:0.95;stroke-width:4;"/>
    </g>
    <g id="line2d_30"/>
    <g id="text_18">
     <!-- expected consumption -->
     <g transform="translate(989.99775 53.165761)scale(0.12 -0.12)">
      <use xlink:href="#DejaVuSans-101"/>
      <use x="61.507812" xlink:href="#DejaVuSans-120"/>
      <use x="120.6875" xlink:href="#DejaVuSans-112"/>
      <use x="184.164062" xlink:href="#DejaVuSans-101"/>
      <use x="245.6875" xlink:href="#DejaVuSans-99"/>
      <use x="300.667969" xlink:href="#DejaVuSans-116"/>
      <use x="339.876953" xlink:href="#DejaVuSans-101"/>
      <use x="401.400391" xlink:href="#DejaVuSans-100"/>
      <use x="464.876953" xlink:href="#DejaVuSans-32"/>
      <use x="496.664062" xlink:href="#DejaVuSans-99"/>
      <use x="551.644531" xlink:href="#DejaVuSans-111"/>
      <use x="612.826172" xlink:href="#DejaVuSans-110"/>
      <use x="676.205078" xlink:href="#DejaVuSans-115"/>
      <use x="728.304688" xlink:href="#DejaVuSans-117"/>
      <use x="791.683594" xlink:href="#DejaVuSans-109"/>
      <use x="889.095703" xlink:href="#DejaVuSans-112"/>
      <use x="952.572266" xlink:href="#DejaVuSans-116"/>
      <use x="991.78125" xlink:href="#DejaVuSans-105"/>
      <use x="1019.564453" xlink:href="#DejaVuSans-111"/>
      <use x="1080.746094" xlink:href="#DejaVuSans-110"/>
     </g>
    </g>
    <g id="line2d_31">
     <path d="M 956.39775 66.579511 
L 980.39775 66.579511 
" style="fill:none;stroke:#000000;stroke-dasharray:4,6.6;stroke-dashoffset:0;stroke-width:4;"/>
    </g>
    <g id="line2d_32"/>
    <g id="text_19">
     <!-- Time of change -->
     <defs>
      <path d="M 37.109375 75.984375 
L 37.109375 68.5 
L 28.515625 68.5 
Q 23.6875 68.5 21.796875 66.546875 
Q 19.921875 64.59375 19.921875 59.515625 
L 19.921875 54.6875 
L 34.71875 54.6875 
L 34.71875 47.703125 
L 19.921875 47.703125 
L 19.921875 0 
L 10.890625 0 
L 10.890625 47.703125 
L 2.296875 47.703125 
L 2.296875 54.6875 
L 10.890625 54.6875 
L 10.890625 58.5 
Q 10.890625 67.625 15.140625 71.796875 
Q 19.390625 75.984375 28.609375 75.984375 
z
" id="DejaVuSans-102"/>
     </defs>
     <g transform="translate(989.99775 70.779511)scale(0.12 -0.12)">
      <use xlink:href="#DejaVuSans-84"/>
      <use x="61.037109" xlink:href="#DejaVuSans-105"/>
      <use x="88.820312" xlink:href="#DejaVuSans-109"/>
      <use x="186.232422" xlink:href="#DejaVuSans-101"/>
      <use x="247.755859" xlink:href="#DejaVuSans-32"/>
      <use x="279.542969" xlink:href="#DejaVuSans-111"/>
      <use x="340.724609" xlink:href="#DejaVuSans-102"/>
      <use x="375.929688" xlink:href="#DejaVuSans-32"/>
      <use x="407.716797" xlink:href="#DejaVuSans-99"/>
      <use x="462.697266" xlink:href="#DejaVuSans-104"/>
      <use x="526.076172" xlink:href="#DejaVuSans-97"/>
      <use x="587.355469" xlink:href="#DejaVuSans-110"/>
      <use x="650.734375" xlink:href="#DejaVuSans-103"/>
      <use x="714.210938" xlink:href="#DejaVuSans-101"/>
     </g>
    </g>
    <g id="patch_104">
     <path d="M 956.39775 88.393261 
L 980.39775 88.393261 
L 980.39775 79.993261 
L 956.39775 79.993261 
z
" style="fill:#ffa500;opacity:0.25;stroke:#ffa500;stroke-linejoin:miter;"/>
    </g>
    <g id="text_20">
     <!-- 90% Credible Interval -->
     <defs>
      <path d="M 72.703125 32.078125 
Q 68.453125 32.078125 66.03125 28.46875 
Q 63.625 24.859375 63.625 18.40625 
Q 63.625 12.0625 66.03125 8.421875 
Q 68.453125 4.78125 72.703125 4.78125 
Q 76.859375 4.78125 79.265625 8.421875 
Q 81.6875 12.0625 81.6875 18.40625 
Q 81.6875 24.8125 79.265625 28.4375 
Q 76.859375 32.078125 72.703125 32.078125 
z
M 72.703125 38.28125 
Q 80.421875 38.28125 84.953125 32.90625 
Q 89.5 27.546875 89.5 18.40625 
Q 89.5 9.28125 84.9375 3.921875 
Q 80.375 -1.421875 72.703125 -1.421875 
Q 64.890625 -1.421875 60.34375 3.921875 
Q 55.8125 9.28125 55.8125 18.40625 
Q 55.8125 27.59375 60.375 32.9375 
Q 64.9375 38.28125 72.703125 38.28125 
z
M 22.3125 68.015625 
Q 18.109375 68.015625 15.6875 64.375 
Q 13.28125 60.75 13.28125 54.390625 
Q 13.28125 47.953125 15.671875 44.328125 
Q 18.0625 40.71875 22.3125 40.71875 
Q 26.5625 40.71875 28.96875 44.328125 
Q 31.390625 47.953125 31.390625 54.390625 
Q 31.390625 60.6875 28.953125 64.34375 
Q 26.515625 68.015625 22.3125 68.015625 
z
M 66.40625 74.21875 
L 74.21875 74.21875 
L 28.609375 -1.421875 
L 20.796875 -1.421875 
z
M 22.3125 74.21875 
Q 30.03125 74.21875 34.609375 68.875 
Q 39.203125 63.53125 39.203125 54.390625 
Q 39.203125 45.171875 34.640625 39.84375 
Q 30.078125 34.515625 22.3125 34.515625 
Q 14.546875 34.515625 10.03125 39.859375 
Q 5.515625 45.21875 5.515625 54.390625 
Q 5.515625 63.484375 10.046875 68.84375 
Q 14.59375 74.21875 22.3125 74.21875 
z
" id="DejaVuSans-37"/>
      <path d="M 48.6875 27.296875 
Q 48.6875 37.203125 44.609375 42.84375 
Q 40.53125 48.484375 33.40625 48.484375 
Q 26.265625 48.484375 22.1875 42.84375 
Q 18.109375 37.203125 18.109375 27.296875 
Q 18.109375 17.390625 22.1875 11.75 
Q 26.265625 6.109375 33.40625 6.109375 
Q 40.53125 6.109375 44.609375 11.75 
Q 48.6875 17.390625 48.6875 27.296875 
z
M 18.109375 46.390625 
Q 20.953125 51.265625 25.265625 53.625 
Q 29.59375 56 35.59375 56 
Q 45.5625 56 51.78125 48.09375 
Q 58.015625 40.1875 58.015625 27.296875 
Q 58.015625 14.40625 51.78125 6.484375 
Q 45.5625 -1.421875 35.59375 -1.421875 
Q 29.59375 -1.421875 25.265625 0.953125 
Q 20.953125 3.328125 18.109375 8.203125 
L 18.109375 0 
L 9.078125 0 
L 9.078125 75.984375 
L 18.109375 75.984375 
z
" id="DejaVuSans-98"/>
      <path d="M 9.8125 72.90625 
L 19.671875 72.90625 
L 19.671875 0 
L 9.8125 0 
z
" id="DejaVuSans-73"/>
     </defs>
     <g transform="translate(989.99775 88.393261)scale(0.12 -0.12)">
      <use xlink:href="#DejaVuSans-57"/>
      <use x="63.623047" xlink:href="#DejaVuSans-48"/>
      <use x="127.246094" xlink:href="#DejaVuSans-37"/>
      <use x="222.265625" xlink:href="#DejaVuSans-32"/>
      <use x="254.052734" xlink:href="#DejaVuSans-67"/>
      <use x="323.876953" xlink:href="#DejaVuSans-114"/>
      <use x="364.958984" xlink:href="#DejaVuSans-101"/>
      <use x="426.482422" xlink:href="#DejaVuSans-100"/>
      <use x="489.958984" xlink:href="#DejaVuSans-105"/>
      <use x="517.742188" xlink:href="#DejaVuSans-98"/>
      <use x="581.21875" xlink:href="#DejaVuSans-108"/>
      <use x="609.001953" xlink:href="#DejaVuSans-101"/>
      <use x="670.525391" xlink:href="#DejaVuSans-32"/>
      <use x="702.3125" xlink:href="#DejaVuSans-73"/>
      <use x="731.804688" xlink:href="#DejaVuSans-110"/>
      <use x="795.183594" xlink:href="#DejaVuSans-116"/>
      <use x="834.392578" xlink:href="#DejaVuSans-101"/>
      <use x="895.916016" xlink:href="#DejaVuSans-114"/>
      <use x="937.029297" xlink:href="#DejaVuSans-118"/>
      <use x="996.208984" xlink:href="#DejaVuSans-97"/>
      <use x="1057.488281" xlink:href="#DejaVuSans-108"/>
     </g>
    </g>
    <g id="patch_105">
     <path d="M 956.39775 106.007011 
L 980.39775 106.007011 
L 980.39775 97.607011 
L 956.39775 97.607011 
z
" style="fill:#348abd;opacity:0.85;"/>
    </g>
    <g id="text_21">
     <!-- observed consumption -->
     <g transform="translate(989.99775 106.007011)scale(0.12 -0.12)">
      <use xlink:href="#DejaVuSans-111"/>
      <use x="61.181641" xlink:href="#DejaVuSans-98"/>
      <use x="124.658203" xlink:href="#DejaVuSans-115"/>
      <use x="176.757812" xlink:href="#DejaVuSans-101"/>
      <use x="238.28125" xlink:href="#DejaVuSans-114"/>
      <use x="279.394531" xlink:href="#DejaVuSans-118"/>
      <use x="338.574219" xlink:href="#DejaVuSans-101"/>
      <use x="400.097656" xlink:href="#DejaVuSans-100"/>
      <use x="463.574219" xlink:href="#DejaVuSans-32"/>
      <use x="495.361328" xlink:href="#DejaVuSans-99"/>
      <use x="550.341797" xlink:href="#DejaVuSans-111"/>
      <use x="611.523438" xlink:href="#DejaVuSans-110"/>
      <use x="674.902344" xlink:href="#DejaVuSans-115"/>
      <use x="727.001953" xlink:href="#DejaVuSans-117"/>
      <use x="790.380859" xlink:href="#DejaVuSans-109"/>
      <use x="887.792969" xlink:href="#DejaVuSans-112"/>
      <use x="951.269531" xlink:href="#DejaVuSans-116"/>
      <use x="990.478516" xlink:href="#DejaVuSans-105"/>
      <use x="1018.261719" xlink:href="#DejaVuSans-111"/>
      <use x="1079.443359" xlink:href="#DejaVuSans-110"/>
     </g>
    </g>
   </g>
  </g>
 </g>
 <defs>
  <clipPath id="pe82a1a9edb">
   <rect height="345.8768" width="1060.15" x="77.9465" y="33.247636"/>
  </clipPath>
 </defs>
</svg>
