<?xml version="1.0" encoding="utf-8" standalone="no"?>
<!DOCTYPE svg PUBLIC "-//W3C//DTD SVG 1.1//EN"
  "http://www.w3.org/Graphics/SVG/1.1/DTD/svg11.dtd">
<!-- Created with matplotlib (https://matplotlib.org/) -->
<svg height="422.874686pt" version="1.1" viewBox="0 0 1145.4215 422.874686" width="1145.4215pt" xmlns="http://www.w3.org/2000/svg" xmlns:xlink="http://www.w3.org/1999/xlink">
 <defs>
  <style type="text/css">
*{stroke-linecap:butt;stroke-linejoin:round;}
  </style>
 </defs>
 <g id="figure_1">
  <g id="patch_1">
   <path d="M 0 422.874686 
L 1145.4215 422.874686 
L 1145.4215 0 
L 0 0 
z
" style="fill:#ffffff;"/>
  </g>
  <g id="axes_1">
   <g id="patch_2">
    <path d="M 77.9465 379.124436 
L 1138.2215 379.124436 
L 1138.2215 33.247636 
L 77.9465 33.247636 
z
" style="fill:#ffffff;"/>
   </g>
   <g id="PolyCollection_1">
    <defs>
     <path d="M 77.9465 -252.995482 
L 77.9465 -252.595572 
L 88.991031 -252.595572 
L 100.035562 -252.595572 
L 111.080094 -252.595572 
L 122.124625 -252.595572 
L 133.169156 -252.595572 
L 144.213687 -252.595572 
L 155.258219 -252.595572 
L 166.30275 -252.595572 
L 177.347281 -252.595572 
L 188.391813 -252.595572 
L 199.436344 -252.595572 
L 210.480875 -252.595572 
L 221.525406 -252.595572 
L 232.569937 -252.595572 
L 243.614469 -252.595572 
L 254.659 -252.595572 
L 265.703531 -252.595572 
L 276.748063 -252.595572 
L 287.792594 -252.595572 
L 298.837125 -252.595572 
L 309.881656 -252.595572 
L 320.926188 -252.595572 
L 331.970719 -252.595572 
L 343.01525 -252.595572 
L 354.059781 -252.595572 
L 365.104313 -252.595572 
L 376.148844 -252.595572 
L 387.193375 -252.595572 
L 398.237906 -252.595572 
L 409.282438 -252.595572 
L 420.326969 -252.595572 
L 431.3715 -252.595572 
L 442.416031 -252.595572 
L 453.460563 -252.595572 
L 464.505094 -252.595572 
L 475.549625 -252.595572 
L 486.594156 -252.595572 
L 497.638688 -252.595572 
L 508.683219 -252.595572 
L 519.72775 -252.595572 
L 530.772281 -252.595572 
L 541.816812 -252.595572 
L 552.861344 -252.595572 
L 563.905875 -184.813765 
L 574.950406 -184.813765 
L 585.994937 -184.813765 
L 597.039469 -184.813765 
L 608.084 -184.813765 
L 619.128531 -184.813765 
L 630.173063 -184.813765 
L 641.217594 -184.813765 
L 652.262125 -184.813765 
L 663.306656 -184.813765 
L 674.351188 -184.813765 
L 685.395719 -184.813765 
L 696.44025 -184.813765 
L 707.484781 -184.813765 
L 718.529313 -184.813765 
L 729.573844 -184.813765 
L 740.618375 -184.813765 
L 751.662906 -184.813765 
L 762.707438 -184.813765 
L 773.751969 -184.813765 
L 784.7965 -184.813765 
L 795.841031 -184.813765 
L 806.885562 -184.813765 
L 817.930094 -184.813765 
L 828.974625 -184.813765 
L 840.019156 -184.813765 
L 851.063688 -184.813765 
L 862.108219 -184.813765 
L 873.15275 -184.813765 
L 884.197281 -184.813765 
L 895.241813 -184.813765 
L 906.286344 -184.813765 
L 917.330875 -184.813765 
L 928.375406 -184.813765 
L 939.419938 -184.813765 
L 950.464469 -184.813765 
L 961.509 -184.813765 
L 972.553531 -184.813765 
L 983.598063 -184.813765 
L 994.642594 -184.813765 
L 1005.687125 -184.813765 
L 1016.731656 -184.813765 
L 1027.776187 -184.813765 
L 1038.820719 -184.813765 
L 1049.86525 -184.813765 
L 1060.909781 -184.813765 
L 1071.954313 -184.813765 
L 1082.998844 -184.813765 
L 1094.043375 -184.813765 
L 1105.087906 -184.813765 
L 1116.132438 -184.813765 
L 1127.176969 -184.813765 
L 1127.176969 -185.115789 
L 1127.176969 -185.115789 
L 1116.132438 -185.115789 
L 1105.087906 -185.115789 
L 1094.043375 -185.115789 
L 1082.998844 -185.115789 
L 1071.954313 -185.115789 
L 1060.909781 -185.115789 
L 1049.86525 -185.115789 
L 1038.820719 -185.115789 
L 1027.776187 -185.115789 
L 1016.731656 -185.115789 
L 1005.687125 -185.115789 
L 994.642594 -185.115789 
L 983.598063 -185.115789 
L 972.553531 -185.115789 
L 961.509 -185.115789 
L 950.464469 -185.115789 
L 939.419938 -185.115789 
L 928.375406 -185.115789 
L 917.330875 -185.115789 
L 906.286344 -185.115789 
L 895.241813 -185.115789 
L 884.197281 -185.115789 
L 873.15275 -185.115789 
L 862.108219 -185.115789 
L 851.063688 -185.115789 
L 840.019156 -185.115789 
L 828.974625 -185.115789 
L 817.930094 -185.115789 
L 806.885562 -185.115789 
L 795.841031 -185.115789 
L 784.7965 -185.115789 
L 773.751969 -185.115789 
L 762.707438 -185.115789 
L 751.662906 -185.115789 
L 740.618375 -185.115789 
L 729.573844 -185.115789 
L 718.529313 -185.115789 
L 707.484781 -185.115789 
L 696.44025 -185.115789 
L 685.395719 -185.115789 
L 674.351188 -185.115789 
L 663.306656 -185.115789 
L 652.262125 -185.115789 
L 641.217594 -185.115789 
L 630.173063 -185.115789 
L 619.128531 -185.115789 
L 608.084 -185.115789 
L 597.039469 -185.115789 
L 585.994937 -185.115789 
L 574.950406 -185.115789 
L 563.905875 -185.115789 
L 552.861344 -252.995482 
L 541.816812 -252.995482 
L 530.772281 -252.995482 
L 519.72775 -252.995482 
L 508.683219 -252.995482 
L 497.638688 -252.995482 
L 486.594156 -252.995482 
L 475.549625 -252.995482 
L 464.505094 -252.995482 
L 453.460563 -252.995482 
L 442.416031 -252.995482 
L 431.3715 -252.995482 
L 420.326969 -252.995482 
L 409.282438 -252.995482 
L 398.237906 -252.995482 
L 387.193375 -252.995482 
L 376.148844 -252.995482 
L 365.104313 -252.995482 
L 354.059781 -252.995482 
L 343.01525 -252.995482 
L 331.970719 -252.995482 
L 320.926188 -252.995482 
L 309.881656 -252.995482 
L 298.837125 -252.995482 
L 287.792594 -252.995482 
L 276.748063 -252.995482 
L 265.703531 -252.995482 
L 254.659 -252.995482 
L 243.614469 -252.995482 
L 232.569937 -252.995482 
L 221.525406 -252.995482 
L 210.480875 -252.995482 
L 199.436344 -252.995482 
L 188.391813 -252.995482 
L 177.347281 -252.995482 
L 166.30275 -252.995482 
L 155.258219 -252.995482 
L 144.213687 -252.995482 
L 133.169156 -252.995482 
L 122.124625 -252.995482 
L 111.080094 -252.995482 
L 100.035562 -252.995482 
L 88.991031 -252.995482 
L 77.9465 -252.995482 
z
" id="me1dd5e15d9" style="stroke:#ffa500;stroke-opacity:0.25;"/>
    </defs>
    <g clip-path="url(#pcf95243c4f)">
     <use style="fill:#ffa500;fill-opacity:0.25;stroke:#ffa500;stroke-opacity:0.25;" x="0" xlink:href="#me1dd5e15d9" y="422.874686"/>
    </g>
   </g>
   <g id="patch_3">
    <path clip-path="url(#pcf95243c4f)" d="M 73.528688 379.124436 
L 82.364313 379.124436 
L 82.364313 337.855232 
L 73.528688 337.855232 
z
" style="fill:#348abd;opacity:0.85;"/>
   </g>
   <g id="patch_4">
    <path clip-path="url(#pcf95243c4f)" d="M 84.573219 379.124436 
L 93.408844 379.124436 
L 93.408844 179.851255 
L 84.573219 179.851255 
z
" style="fill:#348abd;opacity:0.85;"/>
   </g>
   <g id="patch_5">
    <path clip-path="url(#pcf95243c4f)" d="M 95.61775 379.124436 
L 104.453375 379.124436 
L 104.453375 232.396815 
L 95.61775 232.396815 
z
" style="fill:#348abd;opacity:0.85;"/>
   </g>
   <g id="patch_6">
    <path clip-path="url(#pcf95243c4f)" d="M 106.662281 379.124436 
L 115.497906 379.124436 
L 115.497906 337.180283 
L 106.662281 337.180283 
z
" style="fill:#348abd;opacity:0.85;"/>
   </g>
   <g id="patch_7">
    <path clip-path="url(#pcf95243c4f)" d="M 117.706813 379.124436 
L 126.542438 379.124436 
L 126.542438 101.211855 
L 117.706813 101.211855 
z
" style="fill:#348abd;opacity:0.85;"/>
   </g>
   <g id="patch_8">
    <path clip-path="url(#pcf95243c4f)" d="M 128.751344 379.124436 
L 137.586969 379.124436 
L 137.586969 99.441291 
L 128.751344 99.441291 
z
" style="fill:#348abd;opacity:0.85;"/>
   </g>
   <g id="patch_9">
    <path clip-path="url(#pcf95243c4f)" d="M 139.795875 379.124436 
L 148.6315 379.124436 
L 148.6315 135.357993 
L 139.795875 135.357993 
z
" style="fill:#348abd;opacity:0.85;"/>
   </g>
   <g id="patch_10">
    <path clip-path="url(#pcf95243c4f)" d="M 150.840406 379.124436 
L 159.676031 379.124436 
L 159.676031 173.648003 
L 150.840406 173.648003 
z
" style="fill:#348abd;opacity:0.85;"/>
   </g>
   <g id="patch_11">
    <path clip-path="url(#pcf95243c4f)" d="M 161.884937 379.124436 
L 170.720562 379.124436 
L 170.720562 116.223975 
L 161.884937 116.223975 
z
" style="fill:#348abd;opacity:0.85;"/>
   </g>
   <g id="patch_12">
    <path clip-path="url(#pcf95243c4f)" d="M 172.929469 379.124436 
L 181.765094 379.124436 
L 181.765094 77.855482 
L 172.929469 77.855482 
z
" style="fill:#348abd;opacity:0.85;"/>
   </g>
   <g id="patch_13">
    <path clip-path="url(#pcf95243c4f)" d="M 183.974 379.124436 
L 192.809625 379.124436 
L 192.809625 49.71796 
L 183.974 49.71796 
z
" style="fill:#348abd;opacity:0.85;"/>
   </g>
   <g id="patch_14">
    <path clip-path="url(#pcf95243c4f)" d="M 195.018531 379.124436 
L 203.854156 379.124436 
L 203.854156 85.003663 
L 195.018531 85.003663 
z
" style="fill:#348abd;opacity:0.85;"/>
   </g>
   <g id="patch_15">
    <path clip-path="url(#pcf95243c4f)" d="M 206.063063 379.124436 
L 214.898687 379.124436 
L 214.898687 130.90333 
L 206.063063 130.90333 
z
" style="fill:#348abd;opacity:0.85;"/>
   </g>
   <g id="patch_16">
    <path clip-path="url(#pcf95243c4f)" d="M 217.107594 379.124436 
L 225.943219 379.124436 
L 225.943219 161.06256 
L 217.107594 161.06256 
z
" style="fill:#348abd;opacity:0.85;"/>
   </g>
   <g id="patch_17">
    <path clip-path="url(#pcf95243c4f)" d="M 228.152125 379.124436 
L 236.98775 379.124436 
L 236.98775 265.073761 
L 228.152125 265.073761 
z
" style="fill:#348abd;opacity:0.85;"/>
   </g>
   <g id="patch_18">
    <path clip-path="url(#pcf95243c4f)" d="M 239.196656 379.124436 
L 248.032281 379.124436 
L 248.032281 317.550257 
L 239.196656 317.550257 
z
" style="fill:#348abd;opacity:0.85;"/>
   </g>
   <g id="patch_19">
    <path clip-path="url(#pcf95243c4f)" d="M 250.241188 379.124436 
L 259.076813 379.124436 
L 259.076813 327.928774 
L 250.241188 327.928774 
z
" style="fill:#348abd;opacity:0.85;"/>
   </g>
   <g id="patch_20">
    <path clip-path="url(#pcf95243c4f)" d="M 261.285719 379.124436 
L 270.121344 379.124436 
L 270.121344 171.469331 
L 261.285719 171.469331 
z
" style="fill:#348abd;opacity:0.85;"/>
   </g>
   <g id="patch_21">
    <path clip-path="url(#pcf95243c4f)" d="M 272.33025 379.124436 
L 281.165875 379.124436 
L 281.165875 211.724541 
L 272.33025 211.724541 
z
" style="fill:#348abd;opacity:0.85;"/>
   </g>
   <g id="patch_22">
    <path clip-path="url(#pcf95243c4f)" d="M 283.374781 379.124436 
L 292.210406 379.124436 
L 292.210406 185.753134 
L 283.374781 185.753134 
z
" style="fill:#348abd;opacity:0.85;"/>
   </g>
   <g id="patch_23">
    <path clip-path="url(#pcf95243c4f)" d="M 294.419313 379.124436 
L 303.254938 379.124436 
L 303.254938 153.182924 
L 294.419313 153.182924 
z
" style="fill:#348abd;opacity:0.85;"/>
   </g>
   <g id="patch_24">
    <path clip-path="url(#pcf95243c4f)" d="M 305.463844 379.124436 
L 314.299469 379.124436 
L 314.299469 109.885734 
L 305.463844 109.885734 
z
" style="fill:#348abd;opacity:0.85;"/>
   </g>
   <g id="patch_25">
    <path clip-path="url(#pcf95243c4f)" d="M 316.508375 379.124436 
L 325.344 379.124436 
L 325.344 115.140918 
L 316.508375 115.140918 
z
" style="fill:#348abd;opacity:0.85;"/>
   </g>
   <g id="patch_26">
    <path clip-path="url(#pcf95243c4f)" d="M 327.552906 379.124436 
L 336.388531 379.124436 
L 336.388531 170.703342 
L 327.552906 170.703342 
z
" style="fill:#348abd;opacity:0.85;"/>
   </g>
   <g id="patch_27">
    <path clip-path="url(#pcf95243c4f)" d="M 338.597438 379.124436 
L 347.433063 379.124436 
L 347.433063 115.39834 
L 338.597438 115.39834 
z
" style="fill:#348abd;opacity:0.85;"/>
   </g>
   <g id="patch_28">
    <path clip-path="url(#pcf95243c4f)" d="M 349.641969 379.124436 
L 358.477594 379.124436 
L 358.477594 82.994512 
L 349.641969 82.994512 
z
" style="fill:#348abd;opacity:0.85;"/>
   </g>
   <g id="patch_29">
    <path clip-path="url(#pcf95243c4f)" d="M 360.6865 379.124436 
L 369.522125 379.124436 
L 369.522125 64.918438 
L 360.6865 64.918438 
z
" style="fill:#348abd;opacity:0.85;"/>
   </g>
   <g id="patch_30">
    <path clip-path="url(#pcf95243c4f)" d="M 371.731031 379.124436 
L 380.566656 379.124436 
L 380.566656 56.878697 
L 371.731031 56.878697 
z
" style="fill:#348abd;opacity:0.85;"/>
   </g>
   <g id="patch_31">
    <path clip-path="url(#pcf95243c4f)" d="M 382.775563 379.124436 
L 391.611188 379.124436 
L 391.611188 128.718379 
L 382.775563 128.718379 
z
" style="fill:#348abd;opacity:0.85;"/>
   </g>
   <g id="patch_32">
    <path clip-path="url(#pcf95243c4f)" d="M 393.820094 379.124436 
L 402.655719 379.124436 
L 402.655719 173.613471 
L 393.820094 173.613471 
z
" style="fill:#348abd;opacity:0.85;"/>
   </g>
   <g id="patch_33">
    <path clip-path="url(#pcf95243c4f)" d="M 404.864625 379.124436 
L 413.70025 379.124436 
L 413.70025 246.614693 
L 404.864625 246.614693 
z
" style="fill:#348abd;opacity:0.85;"/>
   </g>
   <g id="patch_34">
    <path clip-path="url(#pcf95243c4f)" d="M 415.909156 379.124436 
L 424.744781 379.124436 
L 424.744781 297.273535 
L 415.909156 297.273535 
z
" style="fill:#348abd;opacity:0.85;"/>
   </g>
   <g id="patch_35">
    <path clip-path="url(#pcf95243c4f)" d="M 426.953688 379.124436 
L 435.789313 379.124436 
L 435.789313 318.200091 
L 426.953688 318.200091 
z
" style="fill:#348abd;opacity:0.85;"/>
   </g>
   <g id="patch_36">
    <path clip-path="url(#pcf95243c4f)" d="M 437.998219 379.124436 
L 446.833844 379.124436 
L 446.833844 187.024549 
L 437.998219 187.024549 
z
" style="fill:#348abd;opacity:0.85;"/>
   </g>
   <g id="patch_37">
    <path clip-path="url(#pcf95243c4f)" d="M 449.04275 379.124436 
L 457.878375 379.124436 
L 457.878375 228.865105 
L 449.04275 228.865105 
z
" style="fill:#348abd;opacity:0.85;"/>
   </g>
   <g id="patch_38">
    <path clip-path="url(#pcf95243c4f)" d="M 460.087281 379.124436 
L 468.922906 379.124436 
L 468.922906 202.381992 
L 460.087281 202.381992 
z
" style="fill:#348abd;opacity:0.85;"/>
   </g>
   <g id="patch_39">
    <path clip-path="url(#pcf95243c4f)" d="M 471.131813 379.124436 
L 479.967438 379.124436 
L 479.967438 149.13323 
L 471.131813 149.13323 
z
" style="fill:#348abd;opacity:0.85;"/>
   </g>
   <g id="patch_40">
    <path clip-path="url(#pcf95243c4f)" d="M 482.176344 379.124436 
L 491.011969 379.124436 
L 491.011969 150.285352 
L 482.176344 150.285352 
z
" style="fill:#348abd;opacity:0.85;"/>
   </g>
   <g id="patch_41">
    <path clip-path="url(#pcf95243c4f)" d="M 493.220875 379.124436 
L 502.0565 379.124436 
L 502.0565 168.47758 
L 493.220875 168.47758 
z
" style="fill:#348abd;opacity:0.85;"/>
   </g>
   <g id="patch_42">
    <path clip-path="url(#pcf95243c4f)" d="M 504.265406 379.124436 
L 513.101031 379.124436 
L 513.101031 171.048665 
L 504.265406 171.048665 
z
" style="fill:#348abd;opacity:0.85;"/>
   </g>
   <g id="patch_43">
    <path clip-path="url(#pcf95243c4f)" d="M 515.309938 379.124436 
L 524.145562 379.124436 
L 524.145562 113.20711 
L 515.309938 113.20711 
z
" style="fill:#348abd;opacity:0.85;"/>
   </g>
   <g id="patch_44">
    <path clip-path="url(#pcf95243c4f)" d="M 526.354469 379.124436 
L 535.190094 379.124436 
L 535.190094 114.911749 
L 526.354469 114.911749 
z
" style="fill:#348abd;opacity:0.85;"/>
   </g>
   <g id="patch_45">
    <path clip-path="url(#pcf95243c4f)" d="M 537.399 379.124436 
L 546.234625 379.124436 
L 546.234625 130.564286 
L 537.399 130.564286 
z
" style="fill:#348abd;opacity:0.85;"/>
   </g>
   <g id="patch_46">
    <path clip-path="url(#pcf95243c4f)" d="M 548.443531 379.124436 
L 557.279156 379.124436 
L 557.279156 136.871134 
L 548.443531 136.871134 
z
" style="fill:#348abd;opacity:0.85;"/>
   </g>
   <g id="patch_47">
    <path clip-path="url(#pcf95243c4f)" d="M 559.488063 379.124436 
L 568.323688 379.124436 
L 568.323688 206.811541 
L 559.488063 206.811541 
z
" style="fill:#348abd;opacity:0.85;"/>
   </g>
   <g id="patch_48">
    <path clip-path="url(#pcf95243c4f)" d="M 570.532594 379.124436 
L 579.368219 379.124436 
L 579.368219 248.583032 
L 570.532594 248.583032 
z
" style="fill:#348abd;opacity:0.85;"/>
   </g>
   <g id="patch_49">
    <path clip-path="url(#pcf95243c4f)" d="M 581.577125 379.124436 
L 590.41275 379.124436 
L 590.41275 265.962183 
L 581.577125 265.962183 
z
" style="fill:#348abd;opacity:0.85;"/>
   </g>
   <g id="patch_50">
    <path clip-path="url(#pcf95243c4f)" d="M 592.621656 379.124436 
L 601.457281 379.124436 
L 601.457281 322.94357 
L 592.621656 322.94357 
z
" style="fill:#348abd;opacity:0.85;"/>
   </g>
   <g id="patch_51">
    <path clip-path="url(#pcf95243c4f)" d="M 603.666188 379.124436 
L 612.501813 379.124436 
L 612.501813 337.792446 
L 603.666188 337.792446 
z
" style="fill:#348abd;opacity:0.85;"/>
   </g>
   <g id="patch_52">
    <path clip-path="url(#pcf95243c4f)" d="M 614.710719 379.124436 
L 623.546344 379.124436 
L 623.546344 204.058377 
L 614.710719 204.058377 
z
" style="fill:#348abd;opacity:0.85;"/>
   </g>
   <g id="patch_53">
    <path clip-path="url(#pcf95243c4f)" d="M 625.75525 379.124436 
L 634.590875 379.124436 
L 634.590875 251.003431 
L 625.75525 251.003431 
z
" style="fill:#348abd;opacity:0.85;"/>
   </g>
   <g id="patch_54">
    <path clip-path="url(#pcf95243c4f)" d="M 636.799781 379.124436 
L 645.635406 379.124436 
L 645.635406 206.353204 
L 636.799781 206.353204 
z
" style="fill:#348abd;opacity:0.85;"/>
   </g>
   <g id="patch_55">
    <path clip-path="url(#pcf95243c4f)" d="M 647.844313 379.124436 
L 656.679937 379.124436 
L 656.679937 180.406911 
L 647.844313 180.406911 
z
" style="fill:#348abd;opacity:0.85;"/>
   </g>
   <g id="patch_56">
    <path clip-path="url(#pcf95243c4f)" d="M 658.888844 379.124436 
L 667.724469 379.124436 
L 667.724469 200.011823 
L 658.888844 200.011823 
z
" style="fill:#348abd;opacity:0.85;"/>
   </g>
   <g id="patch_57">
    <path clip-path="url(#pcf95243c4f)" d="M 669.933375 379.124436 
L 678.769 379.124436 
L 678.769 228.139928 
L 669.933375 228.139928 
z
" style="fill:#348abd;opacity:0.85;"/>
   </g>
   <g id="patch_58">
    <path clip-path="url(#pcf95243c4f)" d="M 680.977906 379.124436 
L 689.813531 379.124436 
L 689.813531 210.66032 
L 680.977906 210.66032 
z
" style="fill:#348abd;opacity:0.85;"/>
   </g>
   <g id="patch_59">
    <path clip-path="url(#pcf95243c4f)" d="M 692.022438 379.124436 
L 700.858062 379.124436 
L 700.858062 204.610894 
L 692.022438 204.610894 
z
" style="fill:#348abd;opacity:0.85;"/>
   </g>
   <g id="patch_60">
    <path clip-path="url(#pcf95243c4f)" d="M 703.066969 379.124436 
L 711.902594 379.124436 
L 711.902594 191.322248 
L 703.066969 191.322248 
z
" style="fill:#348abd;opacity:0.85;"/>
   </g>
   <g id="patch_61">
    <path clip-path="url(#pcf95243c4f)" d="M 714.1115 379.124436 
L 722.947125 379.124436 
L 722.947125 165.071443 
L 714.1115 165.071443 
z
" style="fill:#348abd;opacity:0.85;"/>
   </g>
   <g id="patch_62">
    <path clip-path="url(#pcf95243c4f)" d="M 725.156031 379.124436 
L 733.991656 379.124436 
L 733.991656 161.853663 
L 725.156031 161.853663 
z
" style="fill:#348abd;opacity:0.85;"/>
   </g>
   <g id="patch_63">
    <path clip-path="url(#pcf95243c4f)" d="M 736.200563 379.124436 
L 745.036187 379.124436 
L 745.036187 219.980894 
L 736.200563 219.980894 
z
" style="fill:#348abd;opacity:0.85;"/>
   </g>
   <g id="patch_64">
    <path clip-path="url(#pcf95243c4f)" d="M 747.245094 379.124436 
L 756.080719 379.124436 
L 756.080719 241.237076 
L 747.245094 241.237076 
z
" style="fill:#348abd;opacity:0.85;"/>
   </g>
   <g id="patch_65">
    <path clip-path="url(#pcf95243c4f)" d="M 758.289625 379.124436 
L 767.12525 379.124436 
L 767.12525 265.723596 
L 758.289625 265.723596 
z
" style="fill:#348abd;opacity:0.85;"/>
   </g>
   <g id="patch_66">
    <path clip-path="url(#pcf95243c4f)" d="M 769.334156 379.124436 
L 778.169781 379.124436 
L 778.169781 317.930112 
L 769.334156 317.930112 
z
" style="fill:#348abd;opacity:0.85;"/>
   </g>
   <g id="patch_67">
    <path clip-path="url(#pcf95243c4f)" d="M 780.378688 379.124436 
L 789.214313 379.124436 
L 789.214313 337.481656 
L 780.378688 337.481656 
z
" style="fill:#348abd;opacity:0.85;"/>
   </g>
   <g id="patch_68">
    <path clip-path="url(#pcf95243c4f)" d="M 791.423219 379.124436 
L 800.258844 379.124436 
L 800.258844 212.707142 
L 791.423219 212.707142 
z
" style="fill:#348abd;opacity:0.85;"/>
   </g>
   <g id="patch_69">
    <path clip-path="url(#pcf95243c4f)" d="M 802.46775 379.124436 
L 811.303375 379.124436 
L 811.303375 243.977683 
L 802.46775 243.977683 
z
" style="fill:#348abd;opacity:0.85;"/>
   </g>
   <g id="patch_70">
    <path clip-path="url(#pcf95243c4f)" d="M 813.512281 379.124436 
L 822.347906 379.124436 
L 822.347906 230.557187 
L 813.512281 230.557187 
z
" style="fill:#348abd;opacity:0.85;"/>
   </g>
   <g id="patch_71">
    <path clip-path="url(#pcf95243c4f)" d="M 824.556812 379.124436 
L 833.392437 379.124436 
L 833.392437 194.075411 
L 824.556812 194.075411 
z
" style="fill:#348abd;opacity:0.85;"/>
   </g>
   <g id="patch_72">
    <path clip-path="url(#pcf95243c4f)" d="M 835.601344 379.124436 
L 844.436969 379.124436 
L 844.436969 227.945291 
L 835.601344 227.945291 
z
" style="fill:#348abd;opacity:0.85;"/>
   </g>
   <g id="patch_73">
    <path clip-path="url(#pcf95243c4f)" d="M 846.645875 379.124436 
L 855.4815 379.124436 
L 855.4815 235.197068 
L 846.645875 235.197068 
z
" style="fill:#348abd;opacity:0.85;"/>
   </g>
   <g id="patch_74">
    <path clip-path="url(#pcf95243c4f)" d="M 857.690406 379.124436 
L 866.526031 379.124436 
L 866.526031 222.046551 
L 857.690406 222.046551 
z
" style="fill:#348abd;opacity:0.85;"/>
   </g>
   <g id="patch_75">
    <path clip-path="url(#pcf95243c4f)" d="M 868.734938 379.124436 
L 877.570562 379.124436 
L 877.570562 215.582738 
L 868.734938 215.582738 
z
" style="fill:#348abd;opacity:0.85;"/>
   </g>
   <g id="patch_76">
    <path clip-path="url(#pcf95243c4f)" d="M 879.779469 379.124436 
L 888.615094 379.124436 
L 888.615094 194.985808 
L 879.779469 194.985808 
z
" style="fill:#348abd;opacity:0.85;"/>
   </g>
   <g id="patch_77">
    <path clip-path="url(#pcf95243c4f)" d="M 890.824 379.124436 
L 899.659625 379.124436 
L 899.659625 170.9796 
L 890.824 170.9796 
z
" style="fill:#348abd;opacity:0.85;"/>
   </g>
   <g id="patch_78">
    <path clip-path="url(#pcf95243c4f)" d="M 901.868531 379.124436 
L 910.704156 379.124436 
L 910.704156 159.85393 
L 901.868531 159.85393 
z
" style="fill:#348abd;opacity:0.85;"/>
   </g>
   <g id="patch_79">
    <path clip-path="url(#pcf95243c4f)" d="M 912.913063 379.124436 
L 921.748687 379.124436 
L 921.748687 218.678085 
L 912.913063 218.678085 
z
" style="fill:#348abd;opacity:0.85;"/>
   </g>
   <g id="patch_80">
    <path clip-path="url(#pcf95243c4f)" d="M 923.957594 379.124436 
L 932.793219 379.124436 
L 932.793219 242.957411 
L 923.957594 242.957411 
z
" style="fill:#348abd;opacity:0.85;"/>
   </g>
   <g id="patch_81">
    <path clip-path="url(#pcf95243c4f)" d="M 935.002125 379.124436 
L 943.83775 379.124436 
L 943.83775 289.510052 
L 935.002125 289.510052 
z
" style="fill:#348abd;opacity:0.85;"/>
   </g>
   <g id="patch_82">
    <path clip-path="url(#pcf95243c4f)" d="M 946.046656 379.124436 
L 954.882281 379.124436 
L 954.882281 325.269789 
L 946.046656 325.269789 
z
" style="fill:#348abd;opacity:0.85;"/>
   </g>
   <g id="patch_83">
    <path clip-path="url(#pcf95243c4f)" d="M 957.091187 379.124436 
L 965.926812 379.124436 
L 965.926812 341.93318 
L 957.091187 341.93318 
z
" style="fill:#348abd;opacity:0.85;"/>
   </g>
   <g id="patch_84">
    <path clip-path="url(#pcf95243c4f)" d="M 968.135719 379.124436 
L 976.971344 379.124436 
L 976.971344 200.602011 
L 968.135719 200.602011 
z
" style="fill:#348abd;opacity:0.85;"/>
   </g>
   <g id="patch_85">
    <path clip-path="url(#pcf95243c4f)" d="M 979.18025 379.124436 
L 988.015875 379.124436 
L 988.015875 203.383428 
L 979.18025 203.383428 
z
" style="fill:#348abd;opacity:0.85;"/>
   </g>
   <g id="patch_86">
    <path clip-path="url(#pcf95243c4f)" d="M 990.224781 379.124436 
L 999.060406 379.124436 
L 999.060406 199.236416 
L 990.224781 199.236416 
z
" style="fill:#348abd;opacity:0.85;"/>
   </g>
   <g id="patch_87">
    <path clip-path="url(#pcf95243c4f)" d="M 1001.269312 379.124436 
L 1010.104937 379.124436 
L 1010.104937 161.539733 
L 1001.269312 161.539733 
z
" style="fill:#348abd;opacity:0.85;"/>
   </g>
   <g id="patch_88">
    <path clip-path="url(#pcf95243c4f)" d="M 1012.313844 379.124436 
L 1021.149469 379.124436 
L 1021.149469 182.918348 
L 1012.313844 182.918348 
z
" style="fill:#348abd;opacity:0.85;"/>
   </g>
   <g id="patch_89">
    <path clip-path="url(#pcf95243c4f)" d="M 1023.358375 379.124436 
L 1032.194 379.124436 
L 1032.194 189.551684 
L 1023.358375 189.551684 
z
" style="fill:#348abd;opacity:0.85;"/>
   </g>
   <g id="patch_90">
    <path clip-path="url(#pcf95243c4f)" d="M 1034.402906 379.124436 
L 1043.238531 379.124436 
L 1043.238531 159.593369 
L 1034.402906 159.593369 
z
" style="fill:#348abd;opacity:0.85;"/>
   </g>
   <g id="patch_91">
    <path clip-path="url(#pcf95243c4f)" d="M 1045.447437 379.124436 
L 1054.283062 379.124436 
L 1054.283062 149.346702 
L 1045.447437 149.346702 
z
" style="fill:#348abd;opacity:0.85;"/>
   </g>
   <g id="patch_92">
    <path clip-path="url(#pcf95243c4f)" d="M 1056.491969 379.124436 
L 1065.327594 379.124436 
L 1065.327594 144.983079 
L 1056.491969 144.983079 
z
" style="fill:#348abd;opacity:0.85;"/>
   </g>
   <g id="patch_93">
    <path clip-path="url(#pcf95243c4f)" d="M 1067.5365 379.124436 
L 1076.372125 379.124436 
L 1076.372125 305.451405 
L 1067.5365 305.451405 
z
" style="fill:#348abd;opacity:0.85;"/>
   </g>
   <g id="patch_94">
    <path clip-path="url(#pcf95243c4f)" d="M 1078.581031 379.124436 
L 1087.416656 379.124436 
L 1087.416656 368.614068 
L 1078.581031 368.614068 
z
" style="fill:#348abd;opacity:0.85;"/>
   </g>
   <g id="patch_95">
    <path clip-path="url(#pcf95243c4f)" d="M 1089.625562 379.124436 
L 1098.461187 379.124436 
L 1098.461187 372.013927 
L 1089.625562 372.013927 
z
" style="fill:#348abd;opacity:0.85;"/>
   </g>
   <g id="patch_96">
    <path clip-path="url(#pcf95243c4f)" d="M 1100.670094 379.124436 
L 1109.505719 379.124436 
L 1109.505719 372.189728 
L 1100.670094 372.189728 
z
" style="fill:#348abd;opacity:0.85;"/>
   </g>
   <g id="patch_97">
    <path clip-path="url(#pcf95243c4f)" d="M 1111.714625 379.124436 
L 1120.55025 379.124436 
L 1120.55025 329.168796 
L 1111.714625 329.168796 
z
" style="fill:#348abd;opacity:0.85;"/>
   </g>
   <g id="patch_98">
    <path clip-path="url(#pcf95243c4f)" d="M 1122.759156 379.124436 
L 1131.594781 379.124436 
L 1131.594781 338.376356 
L 1122.759156 338.376356 
z
" style="fill:#348abd;opacity:0.85;"/>
   </g>
   <g id="matplotlib.axis_1">
    <g id="xtick_1">
     <g id="line2d_1">
      <path clip-path="url(#pcf95243c4f)" d="M 77.9465 379.124436 
L 77.9465 33.247636 
" style="fill:none;stroke:#808080;stroke-dasharray:0.3,0.495;stroke-dashoffset:0;stroke-width:0.3;"/>
     </g>
     <g id="line2d_2">
      <defs>
       <path d="M 0 0 
L 0 3.5 
" id="m51d653695b" style="stroke:#000000;stroke-width:0.8;"/>
      </defs>
      <g>
       <use style="stroke:#000000;stroke-width:0.8;" x="77.9465" xlink:href="#m51d653695b" y="379.124436"/>
      </g>
     </g>
     <g id="text_1">
      <!-- 0 -->
      <defs>
       <path d="M 31.78125 66.40625 
Q 24.171875 66.40625 20.328125 58.90625 
Q 16.5 51.421875 16.5 36.375 
Q 16.5 21.390625 20.328125 13.890625 
Q 24.171875 6.390625 31.78125 6.390625 
Q 39.453125 6.390625 43.28125 13.890625 
Q 47.125 21.390625 47.125 36.375 
Q 47.125 51.421875 43.28125 58.90625 
Q 39.453125 66.40625 31.78125 66.40625 
z
M 31.78125 74.21875 
Q 44.046875 74.21875 50.515625 64.515625 
Q 56.984375 54.828125 56.984375 36.375 
Q 56.984375 17.96875 50.515625 8.265625 
Q 44.046875 -1.421875 31.78125 -1.421875 
Q 19.53125 -1.421875 13.0625 8.265625 
Q 6.59375 17.96875 6.59375 36.375 
Q 6.59375 54.828125 13.0625 64.515625 
Q 19.53125 74.21875 31.78125 74.21875 
z
" id="DejaVuSans-48"/>
      </defs>
      <g transform="translate(74.129 395.242561)scale(0.12 -0.12)">
       <use xlink:href="#DejaVuSans-48"/>
      </g>
     </g>
    </g>
    <g id="xtick_2">
     <g id="line2d_3">
      <path clip-path="url(#pcf95243c4f)" d="M 298.837125 379.124436 
L 298.837125 33.247636 
" style="fill:none;stroke:#808080;stroke-dasharray:0.3,0.495;stroke-dashoffset:0;stroke-width:0.3;"/>
     </g>
     <g id="line2d_4">
      <g>
       <use style="stroke:#000000;stroke-width:0.8;" x="298.837125" xlink:href="#m51d653695b" y="379.124436"/>
      </g>
     </g>
     <g id="text_2">
      <!-- 20 -->
      <defs>
       <path d="M 19.1875 8.296875 
L 53.609375 8.296875 
L 53.609375 0 
L 7.328125 0 
L 7.328125 8.296875 
Q 12.9375 14.109375 22.625 23.890625 
Q 32.328125 33.6875 34.8125 36.53125 
Q 39.546875 41.84375 41.421875 45.53125 
Q 43.3125 49.21875 43.3125 52.78125 
Q 43.3125 58.59375 39.234375 62.25 
Q 35.15625 65.921875 28.609375 65.921875 
Q 23.96875 65.921875 18.8125 64.3125 
Q 13.671875 62.703125 7.8125 59.421875 
L 7.8125 69.390625 
Q 13.765625 71.78125 18.9375 73 
Q 24.125 74.21875 28.421875 74.21875 
Q 39.75 74.21875 46.484375 68.546875 
Q 53.21875 62.890625 53.21875 53.421875 
Q 53.21875 48.921875 51.53125 44.890625 
Q 49.859375 40.875 45.40625 35.40625 
Q 44.1875 33.984375 37.640625 27.21875 
Q 31.109375 20.453125 19.1875 8.296875 
z
" id="DejaVuSans-50"/>
      </defs>
      <g transform="translate(291.202125 395.242561)scale(0.12 -0.12)">
       <use xlink:href="#DejaVuSans-50"/>
       <use x="63.623047" xlink:href="#DejaVuSans-48"/>
      </g>
     </g>
    </g>
    <g id="xtick_3">
     <g id="line2d_5">
      <path clip-path="url(#pcf95243c4f)" d="M 519.72775 379.124436 
L 519.72775 33.247636 
" style="fill:none;stroke:#808080;stroke-dasharray:0.3,0.495;stroke-dashoffset:0;stroke-width:0.3;"/>
     </g>
     <g id="line2d_6">
      <g>
       <use style="stroke:#000000;stroke-width:0.8;" x="519.72775" xlink:href="#m51d653695b" y="379.124436"/>
      </g>
     </g>
     <g id="text_3">
      <!-- 40 -->
      <defs>
       <path d="M 37.796875 64.3125 
L 12.890625 25.390625 
L 37.796875 25.390625 
z
M 35.203125 72.90625 
L 47.609375 72.90625 
L 47.609375 25.390625 
L 58.015625 25.390625 
L 58.015625 17.1875 
L 47.609375 17.1875 
L 47.609375 0 
L 37.796875 0 
L 37.796875 17.1875 
L 4.890625 17.1875 
L 4.890625 26.703125 
z
" id="DejaVuSans-52"/>
      </defs>
      <g transform="translate(512.09275 395.242561)scale(0.12 -0.12)">
       <use xlink:href="#DejaVuSans-52"/>
       <use x="63.623047" xlink:href="#DejaVuSans-48"/>
      </g>
     </g>
    </g>
    <g id="xtick_4">
     <g id="line2d_7">
      <path clip-path="url(#pcf95243c4f)" d="M 740.618375 379.124436 
L 740.618375 33.247636 
" style="fill:none;stroke:#808080;stroke-dasharray:0.3,0.495;stroke-dashoffset:0;stroke-width:0.3;"/>
     </g>
     <g id="line2d_8">
      <g>
       <use style="stroke:#000000;stroke-width:0.8;" x="740.618375" xlink:href="#m51d653695b" y="379.124436"/>
      </g>
     </g>
     <g id="text_4">
      <!-- 60 -->
      <defs>
       <path d="M 33.015625 40.375 
Q 26.375 40.375 22.484375 35.828125 
Q 18.609375 31.296875 18.609375 23.390625 
Q 18.609375 15.53125 22.484375 10.953125 
Q 26.375 6.390625 33.015625 6.390625 
Q 39.65625 6.390625 43.53125 10.953125 
Q 47.40625 15.53125 47.40625 23.390625 
Q 47.40625 31.296875 43.53125 35.828125 
Q 39.65625 40.375 33.015625 40.375 
z
M 52.59375 71.296875 
L 52.59375 62.3125 
Q 48.875 64.0625 45.09375 64.984375 
Q 41.3125 65.921875 37.59375 65.921875 
Q 27.828125 65.921875 22.671875 59.328125 
Q 17.53125 52.734375 16.796875 39.40625 
Q 19.671875 43.65625 24.015625 45.921875 
Q 28.375 48.1875 33.59375 48.1875 
Q 44.578125 48.1875 50.953125 41.515625 
Q 57.328125 34.859375 57.328125 23.390625 
Q 57.328125 12.15625 50.6875 5.359375 
Q 44.046875 -1.421875 33.015625 -1.421875 
Q 20.359375 -1.421875 13.671875 8.265625 
Q 6.984375 17.96875 6.984375 36.375 
Q 6.984375 53.65625 15.1875 63.9375 
Q 23.390625 74.21875 37.203125 74.21875 
Q 40.921875 74.21875 44.703125 73.484375 
Q 48.484375 72.75 52.59375 71.296875 
z
" id="DejaVuSans-54"/>
      </defs>
      <g transform="translate(732.983375 395.242561)scale(0.12 -0.12)">
       <use xlink:href="#DejaVuSans-54"/>
       <use x="63.623047" xlink:href="#DejaVuSans-48"/>
      </g>
     </g>
    </g>
    <g id="xtick_5">
     <g id="line2d_9">
      <path clip-path="url(#pcf95243c4f)" d="M 961.509 379.124436 
L 961.509 33.247636 
" style="fill:none;stroke:#808080;stroke-dasharray:0.3,0.495;stroke-dashoffset:0;stroke-width:0.3;"/>
     </g>
     <g id="line2d_10">
      <g>
       <use style="stroke:#000000;stroke-width:0.8;" x="961.509" xlink:href="#m51d653695b" y="379.124436"/>
      </g>
     </g>
     <g id="text_5">
      <!-- 80 -->
      <defs>
       <path d="M 31.78125 34.625 
Q 24.75 34.625 20.71875 30.859375 
Q 16.703125 27.09375 16.703125 20.515625 
Q 16.703125 13.921875 20.71875 10.15625 
Q 24.75 6.390625 31.78125 6.390625 
Q 38.8125 6.390625 42.859375 10.171875 
Q 46.921875 13.96875 46.921875 20.515625 
Q 46.921875 27.09375 42.890625 30.859375 
Q 38.875 34.625 31.78125 34.625 
z
M 21.921875 38.8125 
Q 15.578125 40.375 12.03125 44.71875 
Q 8.5 49.078125 8.5 55.328125 
Q 8.5 64.0625 14.71875 69.140625 
Q 20.953125 74.21875 31.78125 74.21875 
Q 42.671875 74.21875 48.875 69.140625 
Q 55.078125 64.0625 55.078125 55.328125 
Q 55.078125 49.078125 51.53125 44.71875 
Q 48 40.375 41.703125 38.8125 
Q 48.828125 37.15625 52.796875 32.3125 
Q 56.78125 27.484375 56.78125 20.515625 
Q 56.78125 9.90625 50.3125 4.234375 
Q 43.84375 -1.421875 31.78125 -1.421875 
Q 19.734375 -1.421875 13.25 4.234375 
Q 6.78125 9.90625 6.78125 20.515625 
Q 6.78125 27.484375 10.78125 32.3125 
Q 14.796875 37.15625 21.921875 38.8125 
z
M 18.3125 54.390625 
Q 18.3125 48.734375 21.84375 45.5625 
Q 25.390625 42.390625 31.78125 42.390625 
Q 38.140625 42.390625 41.71875 45.5625 
Q 45.3125 48.734375 45.3125 54.390625 
Q 45.3125 60.0625 41.71875 63.234375 
Q 38.140625 66.40625 31.78125 66.40625 
Q 25.390625 66.40625 21.84375 63.234375 
Q 18.3125 60.0625 18.3125 54.390625 
z
" id="DejaVuSans-56"/>
      </defs>
      <g transform="translate(953.874 395.242561)scale(0.12 -0.12)">
       <use xlink:href="#DejaVuSans-56"/>
       <use x="63.623047" xlink:href="#DejaVuSans-48"/>
      </g>
     </g>
    </g>
    <g id="text_6">
     <!-- Time (in hours) -->
     <defs>
      <path d="M -0.296875 72.90625 
L 61.375 72.90625 
L 61.375 64.59375 
L 35.5 64.59375 
L 35.5 0 
L 25.59375 0 
L 25.59375 64.59375 
L -0.296875 64.59375 
z
" id="DejaVuSans-84"/>
      <path d="M 9.421875 54.6875 
L 18.40625 54.6875 
L 18.40625 0 
L 9.421875 0 
z
M 9.421875 75.984375 
L 18.40625 75.984375 
L 18.40625 64.59375 
L 9.421875 64.59375 
z
" id="DejaVuSans-105"/>
      <path d="M 52 44.1875 
Q 55.375 50.25 60.0625 53.125 
Q 64.75 56 71.09375 56 
Q 79.640625 56 84.28125 50.015625 
Q 88.921875 44.046875 88.921875 33.015625 
L 88.921875 0 
L 79.890625 0 
L 79.890625 32.71875 
Q 79.890625 40.578125 77.09375 44.375 
Q 74.3125 48.1875 68.609375 48.1875 
Q 61.625 48.1875 57.5625 43.546875 
Q 53.515625 38.921875 53.515625 30.90625 
L 53.515625 0 
L 44.484375 0 
L 44.484375 32.71875 
Q 44.484375 40.625 41.703125 44.40625 
Q 38.921875 48.1875 33.109375 48.1875 
Q 26.21875 48.1875 22.15625 43.53125 
Q 18.109375 38.875 18.109375 30.90625 
L 18.109375 0 
L 9.078125 0 
L 9.078125 54.6875 
L 18.109375 54.6875 
L 18.109375 46.1875 
Q 21.1875 51.21875 25.484375 53.609375 
Q 29.78125 56 35.6875 56 
Q 41.65625 56 45.828125 52.96875 
Q 50 49.953125 52 44.1875 
z
" id="DejaVuSans-109"/>
      <path d="M 56.203125 29.59375 
L 56.203125 25.203125 
L 14.890625 25.203125 
Q 15.484375 15.921875 20.484375 11.0625 
Q 25.484375 6.203125 34.421875 6.203125 
Q 39.59375 6.203125 44.453125 7.46875 
Q 49.3125 8.734375 54.109375 11.28125 
L 54.109375 2.78125 
Q 49.265625 0.734375 44.1875 -0.34375 
Q 39.109375 -1.421875 33.890625 -1.421875 
Q 20.796875 -1.421875 13.15625 6.1875 
Q 5.515625 13.8125 5.515625 26.8125 
Q 5.515625 40.234375 12.765625 48.109375 
Q 20.015625 56 32.328125 56 
Q 43.359375 56 49.78125 48.890625 
Q 56.203125 41.796875 56.203125 29.59375 
z
M 47.21875 32.234375 
Q 47.125 39.59375 43.09375 43.984375 
Q 39.0625 48.390625 32.421875 48.390625 
Q 24.90625 48.390625 20.390625 44.140625 
Q 15.875 39.890625 15.1875 32.171875 
z
" id="DejaVuSans-101"/>
      <path id="DejaVuSans-32"/>
      <path d="M 31 75.875 
Q 24.46875 64.65625 21.28125 53.65625 
Q 18.109375 42.671875 18.109375 31.390625 
Q 18.109375 20.125 21.3125 9.0625 
Q 24.515625 -2 31 -13.1875 
L 23.1875 -13.1875 
Q 15.875 -1.703125 12.234375 9.375 
Q 8.59375 20.453125 8.59375 31.390625 
Q 8.59375 42.28125 12.203125 53.3125 
Q 15.828125 64.359375 23.1875 75.875 
z
" id="DejaVuSans-40"/>
      <path d="M 54.890625 33.015625 
L 54.890625 0 
L 45.90625 0 
L 45.90625 32.71875 
Q 45.90625 40.484375 42.875 44.328125 
Q 39.84375 48.1875 33.796875 48.1875 
Q 26.515625 48.1875 22.3125 43.546875 
Q 18.109375 38.921875 18.109375 30.90625 
L 18.109375 0 
L 9.078125 0 
L 9.078125 54.6875 
L 18.109375 54.6875 
L 18.109375 46.1875 
Q 21.34375 51.125 25.703125 53.5625 
Q 30.078125 56 35.796875 56 
Q 45.21875 56 50.046875 50.171875 
Q 54.890625 44.34375 54.890625 33.015625 
z
" id="DejaVuSans-110"/>
      <path d="M 54.890625 33.015625 
L 54.890625 0 
L 45.90625 0 
L 45.90625 32.71875 
Q 45.90625 40.484375 42.875 44.328125 
Q 39.84375 48.1875 33.796875 48.1875 
Q 26.515625 48.1875 22.3125 43.546875 
Q 18.109375 38.921875 18.109375 30.90625 
L 18.109375 0 
L 9.078125 0 
L 9.078125 75.984375 
L 18.109375 75.984375 
L 18.109375 46.1875 
Q 21.34375 51.125 25.703125 53.5625 
Q 30.078125 56 35.796875 56 
Q 45.21875 56 50.046875 50.171875 
Q 54.890625 44.34375 54.890625 33.015625 
z
" id="DejaVuSans-104"/>
      <path d="M 30.609375 48.390625 
Q 23.390625 48.390625 19.1875 42.75 
Q 14.984375 37.109375 14.984375 27.296875 
Q 14.984375 17.484375 19.15625 11.84375 
Q 23.34375 6.203125 30.609375 6.203125 
Q 37.796875 6.203125 41.984375 11.859375 
Q 46.1875 17.53125 46.1875 27.296875 
Q 46.1875 37.015625 41.984375 42.703125 
Q 37.796875 48.390625 30.609375 48.390625 
z
M 30.609375 56 
Q 42.328125 56 49.015625 48.375 
Q 55.71875 40.765625 55.71875 27.296875 
Q 55.71875 13.875 49.015625 6.21875 
Q 42.328125 -1.421875 30.609375 -1.421875 
Q 18.84375 -1.421875 12.171875 6.21875 
Q 5.515625 13.875 5.515625 27.296875 
Q 5.515625 40.765625 12.171875 48.375 
Q 18.84375 56 30.609375 56 
z
" id="DejaVuSans-111"/>
      <path d="M 8.5 21.578125 
L 8.5 54.6875 
L 17.484375 54.6875 
L 17.484375 21.921875 
Q 17.484375 14.15625 20.5 10.265625 
Q 23.53125 6.390625 29.59375 6.390625 
Q 36.859375 6.390625 41.078125 11.03125 
Q 45.3125 15.671875 45.3125 23.6875 
L 45.3125 54.6875 
L 54.296875 54.6875 
L 54.296875 0 
L 45.3125 0 
L 45.3125 8.40625 
Q 42.046875 3.421875 37.71875 1 
Q 33.40625 -1.421875 27.6875 -1.421875 
Q 18.265625 -1.421875 13.375 4.4375 
Q 8.5 10.296875 8.5 21.578125 
z
M 31.109375 56 
z
" id="DejaVuSans-117"/>
      <path d="M 41.109375 46.296875 
Q 39.59375 47.171875 37.8125 47.578125 
Q 36.03125 48 33.890625 48 
Q 26.265625 48 22.1875 43.046875 
Q 18.109375 38.09375 18.109375 28.8125 
L 18.109375 0 
L 9.078125 0 
L 9.078125 54.6875 
L 18.109375 54.6875 
L 18.109375 46.1875 
Q 20.953125 51.171875 25.484375 53.578125 
Q 30.03125 56 36.53125 56 
Q 37.453125 56 38.578125 55.875 
Q 39.703125 55.765625 41.0625 55.515625 
z
" id="DejaVuSans-114"/>
      <path d="M 44.28125 53.078125 
L 44.28125 44.578125 
Q 40.484375 46.53125 36.375 47.5 
Q 32.28125 48.484375 27.875 48.484375 
Q 21.1875 48.484375 17.84375 46.4375 
Q 14.5 44.390625 14.5 40.28125 
Q 14.5 37.15625 16.890625 35.375 
Q 19.28125 33.59375 26.515625 31.984375 
L 29.59375 31.296875 
Q 39.15625 29.25 43.1875 25.515625 
Q 47.21875 21.78125 47.21875 15.09375 
Q 47.21875 7.46875 41.1875 3.015625 
Q 35.15625 -1.421875 24.609375 -1.421875 
Q 20.21875 -1.421875 15.453125 -0.5625 
Q 10.6875 0.296875 5.421875 2 
L 5.421875 11.28125 
Q 10.40625 8.6875 15.234375 7.390625 
Q 20.0625 6.109375 24.8125 6.109375 
Q 31.15625 6.109375 34.5625 8.28125 
Q 37.984375 10.453125 37.984375 14.40625 
Q 37.984375 18.0625 35.515625 20.015625 
Q 33.0625 21.96875 24.703125 23.78125 
L 21.578125 24.515625 
Q 13.234375 26.265625 9.515625 29.90625 
Q 5.8125 33.546875 5.8125 39.890625 
Q 5.8125 47.609375 11.28125 51.796875 
Q 16.75 56 26.8125 56 
Q 31.78125 56 36.171875 55.265625 
Q 40.578125 54.546875 44.28125 53.078125 
z
" id="DejaVuSans-115"/>
      <path d="M 8.015625 75.875 
L 15.828125 75.875 
Q 23.140625 64.359375 26.78125 53.3125 
Q 30.421875 42.28125 30.421875 31.390625 
Q 30.421875 20.453125 26.78125 9.375 
Q 23.140625 -1.703125 15.828125 -13.1875 
L 8.015625 -13.1875 
Q 14.5 -2 17.703125 9.0625 
Q 20.90625 20.125 20.90625 31.390625 
Q 20.90625 42.671875 17.703125 53.65625 
Q 14.5 64.65625 8.015625 75.875 
z
" id="DejaVuSans-41"/>
     </defs>
     <g transform="translate(553.245875 412.679936)scale(0.144 -0.144)">
      <use xlink:href="#DejaVuSans-84"/>
      <use x="61.037109" xlink:href="#DejaVuSans-105"/>
      <use x="88.820312" xlink:href="#DejaVuSans-109"/>
      <use x="186.232422" xlink:href="#DejaVuSans-101"/>
      <use x="247.755859" xlink:href="#DejaVuSans-32"/>
      <use x="279.542969" xlink:href="#DejaVuSans-40"/>
      <use x="318.556641" xlink:href="#DejaVuSans-105"/>
      <use x="346.339844" xlink:href="#DejaVuSans-110"/>
      <use x="409.71875" xlink:href="#DejaVuSans-32"/>
      <use x="441.505859" xlink:href="#DejaVuSans-104"/>
      <use x="504.884766" xlink:href="#DejaVuSans-111"/>
      <use x="566.066406" xlink:href="#DejaVuSans-117"/>
      <use x="629.445312" xlink:href="#DejaVuSans-114"/>
      <use x="670.558594" xlink:href="#DejaVuSans-115"/>
      <use x="722.658203" xlink:href="#DejaVuSans-41"/>
     </g>
    </g>
   </g>
   <g id="matplotlib.axis_2">
    <g id="ytick_1">
     <g id="line2d_11">
      <path clip-path="url(#pcf95243c4f)" d="M 77.9465 379.124436 
L 1138.2215 379.124436 
" style="fill:none;stroke:#808080;stroke-dasharray:0.3,0.495;stroke-dashoffset:0;stroke-width:0.3;"/>
     </g>
     <g id="line2d_12">
      <defs>
       <path d="M 0 0 
L -3.5 0 
" id="m1ab8bd3469" style="stroke:#000000;stroke-width:0.8;"/>
      </defs>
      <g>
       <use style="stroke:#000000;stroke-width:0.8;" x="77.9465" xlink:href="#m1ab8bd3469" y="379.124436"/>
      </g>
     </g>
     <g id="text_7">
      <!-- 0 -->
      <g transform="translate(63.3115 383.683498)scale(0.12 -0.12)">
       <use xlink:href="#DejaVuSans-48"/>
      </g>
     </g>
    </g>
    <g id="ytick_2">
     <g id="line2d_13">
      <path clip-path="url(#pcf95243c4f)" d="M 77.9465 316.338488 
L 1138.2215 316.338488 
" style="fill:none;stroke:#808080;stroke-dasharray:0.3,0.495;stroke-dashoffset:0;stroke-width:0.3;"/>
     </g>
     <g id="line2d_14">
      <g>
       <use style="stroke:#000000;stroke-width:0.8;" x="77.9465" xlink:href="#m1ab8bd3469" y="316.338488"/>
      </g>
     </g>
     <g id="text_8">
      <!-- 20000 -->
      <g transform="translate(32.7715 320.89755)scale(0.12 -0.12)">
       <use xlink:href="#DejaVuSans-50"/>
       <use x="63.623047" xlink:href="#DejaVuSans-48"/>
       <use x="127.246094" xlink:href="#DejaVuSans-48"/>
       <use x="190.869141" xlink:href="#DejaVuSans-48"/>
       <use x="254.492188" xlink:href="#DejaVuSans-48"/>
      </g>
     </g>
    </g>
    <g id="ytick_3">
     <g id="line2d_15">
      <path clip-path="url(#pcf95243c4f)" d="M 77.9465 253.55254 
L 1138.2215 253.55254 
" style="fill:none;stroke:#808080;stroke-dasharray:0.3,0.495;stroke-dashoffset:0;stroke-width:0.3;"/>
     </g>
     <g id="line2d_16">
      <g>
       <use style="stroke:#000000;stroke-width:0.8;" x="77.9465" xlink:href="#m1ab8bd3469" y="253.55254"/>
      </g>
     </g>
     <g id="text_9">
      <!-- 40000 -->
      <g transform="translate(32.7715 258.111602)scale(0.12 -0.12)">
       <use xlink:href="#DejaVuSans-52"/>
       <use x="63.623047" xlink:href="#DejaVuSans-48"/>
       <use x="127.246094" xlink:href="#DejaVuSans-48"/>
       <use x="190.869141" xlink:href="#DejaVuSans-48"/>
       <use x="254.492188" xlink:href="#DejaVuSans-48"/>
      </g>
     </g>
    </g>
    <g id="ytick_4">
     <g id="line2d_17">
      <path clip-path="url(#pcf95243c4f)" d="M 77.9465 190.766592 
L 1138.2215 190.766592 
" style="fill:none;stroke:#808080;stroke-dasharray:0.3,0.495;stroke-dashoffset:0;stroke-width:0.3;"/>
     </g>
     <g id="line2d_18">
      <g>
       <use style="stroke:#000000;stroke-width:0.8;" x="77.9465" xlink:href="#m1ab8bd3469" y="190.766592"/>
      </g>
     </g>
     <g id="text_10">
      <!-- 60000 -->
      <g transform="translate(32.7715 195.325654)scale(0.12 -0.12)">
       <use xlink:href="#DejaVuSans-54"/>
       <use x="63.623047" xlink:href="#DejaVuSans-48"/>
       <use x="127.246094" xlink:href="#DejaVuSans-48"/>
       <use x="190.869141" xlink:href="#DejaVuSans-48"/>
       <use x="254.492188" xlink:href="#DejaVuSans-48"/>
      </g>
     </g>
    </g>
    <g id="ytick_5">
     <g id="line2d_19">
      <path clip-path="url(#pcf95243c4f)" d="M 77.9465 127.980644 
L 1138.2215 127.980644 
" style="fill:none;stroke:#808080;stroke-dasharray:0.3,0.495;stroke-dashoffset:0;stroke-width:0.3;"/>
     </g>
     <g id="line2d_20">
      <g>
       <use style="stroke:#000000;stroke-width:0.8;" x="77.9465" xlink:href="#m1ab8bd3469" y="127.980644"/>
      </g>
     </g>
     <g id="text_11">
      <!-- 80000 -->
      <g transform="translate(32.7715 132.539706)scale(0.12 -0.12)">
       <use xlink:href="#DejaVuSans-56"/>
       <use x="63.623047" xlink:href="#DejaVuSans-48"/>
       <use x="127.246094" xlink:href="#DejaVuSans-48"/>
       <use x="190.869141" xlink:href="#DejaVuSans-48"/>
       <use x="254.492188" xlink:href="#DejaVuSans-48"/>
      </g>
     </g>
    </g>
    <g id="ytick_6">
     <g id="line2d_21">
      <path clip-path="url(#pcf95243c4f)" d="M 77.9465 65.194696 
L 1138.2215 65.194696 
" style="fill:none;stroke:#808080;stroke-dasharray:0.3,0.495;stroke-dashoffset:0;stroke-width:0.3;"/>
     </g>
     <g id="line2d_22">
      <g>
       <use style="stroke:#000000;stroke-width:0.8;" x="77.9465" xlink:href="#m1ab8bd3469" y="65.194696"/>
      </g>
     </g>
     <g id="text_12">
      <!-- 100000 -->
      <defs>
       <path d="M 12.40625 8.296875 
L 28.515625 8.296875 
L 28.515625 63.921875 
L 10.984375 60.40625 
L 10.984375 69.390625 
L 28.421875 72.90625 
L 38.28125 72.90625 
L 38.28125 8.296875 
L 54.390625 8.296875 
L 54.390625 0 
L 12.40625 0 
z
" id="DejaVuSans-49"/>
      </defs>
      <g transform="translate(25.1365 69.753758)scale(0.12 -0.12)">
       <use xlink:href="#DejaVuSans-49"/>
       <use x="63.623047" xlink:href="#DejaVuSans-48"/>
       <use x="127.246094" xlink:href="#DejaVuSans-48"/>
       <use x="190.869141" xlink:href="#DejaVuSans-48"/>
       <use x="254.492188" xlink:href="#DejaVuSans-48"/>
       <use x="318.115234" xlink:href="#DejaVuSans-48"/>
      </g>
     </g>
    </g>
    <g id="text_13">
     <!-- Energy [Wh] -->
     <defs>
      <path d="M 9.8125 72.90625 
L 55.90625 72.90625 
L 55.90625 64.59375 
L 19.671875 64.59375 
L 19.671875 43.015625 
L 54.390625 43.015625 
L 54.390625 34.71875 
L 19.671875 34.71875 
L 19.671875 8.296875 
L 56.78125 8.296875 
L 56.78125 0 
L 9.8125 0 
z
" id="DejaVuSans-69"/>
      <path d="M 45.40625 27.984375 
Q 45.40625 37.75 41.375 43.109375 
Q 37.359375 48.484375 30.078125 48.484375 
Q 22.859375 48.484375 18.828125 43.109375 
Q 14.796875 37.75 14.796875 27.984375 
Q 14.796875 18.265625 18.828125 12.890625 
Q 22.859375 7.515625 30.078125 7.515625 
Q 37.359375 7.515625 41.375 12.890625 
Q 45.40625 18.265625 45.40625 27.984375 
z
M 54.390625 6.78125 
Q 54.390625 -7.171875 48.1875 -13.984375 
Q 42 -20.796875 29.203125 -20.796875 
Q 24.46875 -20.796875 20.265625 -20.09375 
Q 16.0625 -19.390625 12.109375 -17.921875 
L 12.109375 -9.1875 
Q 16.0625 -11.328125 19.921875 -12.34375 
Q 23.78125 -13.375 27.78125 -13.375 
Q 36.625 -13.375 41.015625 -8.765625 
Q 45.40625 -4.15625 45.40625 5.171875 
L 45.40625 9.625 
Q 42.625 4.78125 38.28125 2.390625 
Q 33.9375 0 27.875 0 
Q 17.828125 0 11.671875 7.65625 
Q 5.515625 15.328125 5.515625 27.984375 
Q 5.515625 40.671875 11.671875 48.328125 
Q 17.828125 56 27.875 56 
Q 33.9375 56 38.28125 53.609375 
Q 42.625 51.21875 45.40625 46.390625 
L 45.40625 54.6875 
L 54.390625 54.6875 
z
" id="DejaVuSans-103"/>
      <path d="M 32.171875 -5.078125 
Q 28.375 -14.84375 24.75 -17.8125 
Q 21.140625 -20.796875 15.09375 -20.796875 
L 7.90625 -20.796875 
L 7.90625 -13.28125 
L 13.1875 -13.28125 
Q 16.890625 -13.28125 18.9375 -11.515625 
Q 21 -9.765625 23.484375 -3.21875 
L 25.09375 0.875 
L 2.984375 54.6875 
L 12.5 54.6875 
L 29.59375 11.921875 
L 46.6875 54.6875 
L 56.203125 54.6875 
z
" id="DejaVuSans-121"/>
      <path d="M 8.59375 75.984375 
L 29.296875 75.984375 
L 29.296875 69 
L 17.578125 69 
L 17.578125 -6.203125 
L 29.296875 -6.203125 
L 29.296875 -13.1875 
L 8.59375 -13.1875 
z
" id="DejaVuSans-91"/>
      <path d="M 3.328125 72.90625 
L 13.28125 72.90625 
L 28.609375 11.28125 
L 43.890625 72.90625 
L 54.984375 72.90625 
L 70.3125 11.28125 
L 85.59375 72.90625 
L 95.609375 72.90625 
L 77.296875 0 
L 64.890625 0 
L 49.515625 63.28125 
L 33.984375 0 
L 21.578125 0 
z
" id="DejaVuSans-87"/>
      <path d="M 30.421875 75.984375 
L 30.421875 -13.1875 
L 9.71875 -13.1875 
L 9.71875 -6.203125 
L 21.390625 -6.203125 
L 21.390625 69 
L 9.71875 69 
L 9.71875 75.984375 
z
" id="DejaVuSans-93"/>
     </defs>
     <g transform="translate(18.14175 251.108411)rotate(-90)scale(0.144 -0.144)">
      <use xlink:href="#DejaVuSans-69"/>
      <use x="63.183594" xlink:href="#DejaVuSans-110"/>
      <use x="126.5625" xlink:href="#DejaVuSans-101"/>
      <use x="188.085938" xlink:href="#DejaVuSans-114"/>
      <use x="229.183594" xlink:href="#DejaVuSans-103"/>
      <use x="292.660156" xlink:href="#DejaVuSans-121"/>
      <use x="351.839844" xlink:href="#DejaVuSans-32"/>
      <use x="383.626953" xlink:href="#DejaVuSans-91"/>
      <use x="422.640625" xlink:href="#DejaVuSans-87"/>
      <use x="521.517578" xlink:href="#DejaVuSans-104"/>
      <use x="584.896484" xlink:href="#DejaVuSans-93"/>
     </g>
    </g>
   </g>
   <g id="line2d_23">
    <path clip-path="url(#pcf95243c4f)" d="M 77.9465 170.078721 
L 88.991031 170.078721 
L 100.035562 170.078721 
L 111.080094 170.078721 
L 122.124625 170.078721 
L 133.169156 170.078721 
L 144.213687 170.078721 
L 155.258219 170.078721 
L 166.30275 170.078721 
L 177.347281 170.078721 
L 188.391813 170.078721 
L 199.436344 170.078721 
L 210.480875 170.078721 
L 221.525406 170.078721 
L 232.569937 170.078721 
L 243.614469 170.078721 
L 254.659 170.078721 
L 265.703531 170.078721 
L 276.748063 170.078721 
L 287.792594 170.078721 
L 298.837125 170.078721 
L 309.881656 170.078721 
L 320.926188 170.078721 
L 331.970719 170.078721 
L 343.01525 170.078721 
L 354.059781 170.078721 
L 365.104313 170.078721 
L 376.148844 170.078721 
L 387.193375 170.078721 
L 398.237906 170.078721 
L 409.282438 170.078721 
L 420.326969 170.078721 
L 431.3715 170.078721 
L 442.416031 170.078721 
L 453.460563 170.078721 
L 464.505094 170.078721 
L 475.549625 170.078721 
L 486.594156 170.078721 
L 497.638688 170.078721 
L 508.683219 170.078721 
L 519.72775 170.078721 
L 530.772281 170.078721 
L 541.816812 170.078721 
L 552.861344 170.078721 
L 563.905875 237.907367 
L 574.950406 237.907367 
L 585.994937 237.907367 
L 597.039469 237.907367 
L 608.084 237.907367 
L 619.128531 237.907367 
L 630.173063 237.907367 
L 641.217594 237.907367 
L 652.262125 237.907367 
L 663.306656 237.907367 
L 674.351188 237.907367 
L 685.395719 237.907367 
L 696.44025 237.907367 
L 707.484781 237.907367 
L 718.529313 237.907367 
L 729.573844 237.907367 
L 740.618375 237.907367 
L 751.662906 237.907367 
L 762.707438 237.907367 
L 773.751969 237.907367 
L 784.7965 237.907367 
L 795.841031 237.907367 
L 806.885562 237.907367 
L 817.930094 237.907367 
L 828.974625 237.907367 
L 840.019156 237.907367 
L 851.063688 237.907367 
L 862.108219 237.907367 
L 873.15275 237.907367 
L 884.197281 237.907367 
L 895.241813 237.907367 
L 906.286344 237.907367 
L 917.330875 237.907367 
L 928.375406 237.907367 
L 939.419938 237.907367 
L 950.464469 237.907367 
L 961.509 237.907367 
L 972.553531 237.907367 
L 983.598063 237.907367 
L 994.642594 237.907367 
L 1005.687125 237.907367 
L 1016.731656 237.907367 
L 1027.776187 237.907367 
L 1038.820719 237.907367 
L 1049.86525 237.907367 
L 1060.909781 237.907367 
L 1071.954313 237.907367 
L 1082.998844 237.907367 
L 1094.043375 237.907367 
L 1105.087906 237.907367 
L 1116.132438 237.907367 
L 1127.176969 237.907367 
" style="fill:none;stroke:#e24a33;stroke-linecap:square;stroke-opacity:0.95;stroke-width:4;"/>
   </g>
   <g id="line2d_24">
    <path clip-path="url(#pcf95243c4f)" d="M 563.905875 379.124436 
L 563.905875 33.247636 
" style="fill:none;stroke:#000000;stroke-dasharray:4,6.6;stroke-dashoffset:0;stroke-width:4;"/>
   </g>
   <g id="patch_99">
    <path d="M 77.9465 379.124436 
L 77.9465 33.247636 
" style="fill:none;stroke:#000000;stroke-linecap:square;stroke-linejoin:miter;stroke-width:0.8;"/>
   </g>
   <g id="patch_100">
    <path d="M 1138.2215 379.124436 
L 1138.2215 33.247636 
" style="fill:none;stroke:#000000;stroke-linecap:square;stroke-linejoin:miter;stroke-width:0.8;"/>
   </g>
   <g id="patch_101">
    <path d="M 77.9465 379.124436 
L 1138.2215 379.124436 
" style="fill:none;stroke:#000000;stroke-linecap:square;stroke-linejoin:miter;stroke-width:0.8;"/>
   </g>
   <g id="patch_102">
    <path d="M 77.9465 33.247636 
L 1138.2215 33.247636 
" style="fill:none;stroke:#000000;stroke-linecap:square;stroke-linejoin:miter;stroke-width:0.8;"/>
   </g>
   <g id="text_14">
    <!-- 03-Nov-2019, 20:00 -->
    <defs>
     <path d="M 40.578125 39.3125 
Q 47.65625 37.796875 51.625 33 
Q 55.609375 28.21875 55.609375 21.1875 
Q 55.609375 10.40625 48.1875 4.484375 
Q 40.765625 -1.421875 27.09375 -1.421875 
Q 22.515625 -1.421875 17.65625 -0.515625 
Q 12.796875 0.390625 7.625 2.203125 
L 7.625 11.71875 
Q 11.71875 9.328125 16.59375 8.109375 
Q 21.484375 6.890625 26.8125 6.890625 
Q 36.078125 6.890625 40.9375 10.546875 
Q 45.796875 14.203125 45.796875 21.1875 
Q 45.796875 27.640625 41.28125 31.265625 
Q 36.765625 34.90625 28.71875 34.90625 
L 20.21875 34.90625 
L 20.21875 43.015625 
L 29.109375 43.015625 
Q 36.375 43.015625 40.234375 45.921875 
Q 44.09375 48.828125 44.09375 54.296875 
Q 44.09375 59.90625 40.109375 62.90625 
Q 36.140625 65.921875 28.71875 65.921875 
Q 24.65625 65.921875 20.015625 65.03125 
Q 15.375 64.15625 9.8125 62.3125 
L 9.8125 71.09375 
Q 15.4375 72.65625 20.34375 73.4375 
Q 25.25 74.21875 29.59375 74.21875 
Q 40.828125 74.21875 47.359375 69.109375 
Q 53.90625 64.015625 53.90625 55.328125 
Q 53.90625 49.265625 50.4375 45.09375 
Q 46.96875 40.921875 40.578125 39.3125 
z
" id="DejaVuSans-51"/>
     <path d="M 4.890625 31.390625 
L 31.203125 31.390625 
L 31.203125 23.390625 
L 4.890625 23.390625 
z
" id="DejaVuSans-45"/>
     <path d="M 9.8125 72.90625 
L 23.09375 72.90625 
L 55.421875 11.921875 
L 55.421875 72.90625 
L 64.984375 72.90625 
L 64.984375 0 
L 51.703125 0 
L 19.390625 60.984375 
L 19.390625 0 
L 9.8125 0 
z
" id="DejaVuSans-78"/>
     <path d="M 2.984375 54.6875 
L 12.5 54.6875 
L 29.59375 8.796875 
L 46.6875 54.6875 
L 56.203125 54.6875 
L 35.6875 0 
L 23.484375 0 
z
" id="DejaVuSans-118"/>
     <path d="M 10.984375 1.515625 
L 10.984375 10.5 
Q 14.703125 8.734375 18.5 7.8125 
Q 22.3125 6.890625 25.984375 6.890625 
Q 35.75 6.890625 40.890625 13.453125 
Q 46.046875 20.015625 46.78125 33.40625 
Q 43.953125 29.203125 39.59375 26.953125 
Q 35.25 24.703125 29.984375 24.703125 
Q 19.046875 24.703125 12.671875 31.3125 
Q 6.296875 37.9375 6.296875 49.421875 
Q 6.296875 60.640625 12.9375 67.421875 
Q 19.578125 74.21875 30.609375 74.21875 
Q 43.265625 74.21875 49.921875 64.515625 
Q 56.59375 54.828125 56.59375 36.375 
Q 56.59375 19.140625 48.40625 8.859375 
Q 40.234375 -1.421875 26.421875 -1.421875 
Q 22.703125 -1.421875 18.890625 -0.6875 
Q 15.09375 0.046875 10.984375 1.515625 
z
M 30.609375 32.421875 
Q 37.25 32.421875 41.125 36.953125 
Q 45.015625 41.5 45.015625 49.421875 
Q 45.015625 57.28125 41.125 61.84375 
Q 37.25 66.40625 30.609375 66.40625 
Q 23.96875 66.40625 20.09375 61.84375 
Q 16.21875 57.28125 16.21875 49.421875 
Q 16.21875 41.5 20.09375 36.953125 
Q 23.96875 32.421875 30.609375 32.421875 
z
" id="DejaVuSans-57"/>
     <path d="M 11.71875 12.40625 
L 22.015625 12.40625 
L 22.015625 4 
L 14.015625 -11.625 
L 7.71875 -11.625 
L 11.71875 4 
z
" id="DejaVuSans-44"/>
     <path d="M 11.71875 12.40625 
L 22.015625 12.40625 
L 22.015625 0 
L 11.71875 0 
z
M 11.71875 51.703125 
L 22.015625 51.703125 
L 22.015625 39.3125 
L 11.71875 39.3125 
z
" id="DejaVuSans-58"/>
    </defs>
    <g transform="translate(574.950406 96.58767)scale(0.16 -0.16)">
     <use xlink:href="#DejaVuSans-48"/>
     <use x="63.623047" xlink:href="#DejaVuSans-51"/>
     <use x="127.246094" xlink:href="#DejaVuSans-45"/>
     <use x="163.330078" xlink:href="#DejaVuSans-78"/>
     <use x="238.134766" xlink:href="#DejaVuSans-111"/>
     <use x="299.316406" xlink:href="#DejaVuSans-118"/>
     <use x="358.464844" xlink:href="#DejaVuSans-45"/>
     <use x="394.548828" xlink:href="#DejaVuSans-50"/>
     <use x="458.171875" xlink:href="#DejaVuSans-48"/>
     <use x="521.794922" xlink:href="#DejaVuSans-49"/>
     <use x="585.417969" xlink:href="#DejaVuSans-57"/>
     <use x="649.041016" xlink:href="#DejaVuSans-44"/>
     <use x="680.828125" xlink:href="#DejaVuSans-32"/>
     <use x="712.615234" xlink:href="#DejaVuSans-50"/>
     <use x="776.238281" xlink:href="#DejaVuSans-48"/>
     <use x="839.861328" xlink:href="#DejaVuSans-58"/>
     <use x="873.552734" xlink:href="#DejaVuSans-48"/>
     <use x="937.175781" xlink:href="#DejaVuSans-48"/>
    </g>
   </g>
   <g id="text_15">
    <!-- Expected energy consumption (main incomer, KFC Bracknell) -->
    <defs>
     <path d="M 54.890625 54.6875 
L 35.109375 28.078125 
L 55.90625 0 
L 45.3125 0 
L 29.390625 21.484375 
L 13.484375 0 
L 2.875 0 
L 24.125 28.609375 
L 4.6875 54.6875 
L 15.28125 54.6875 
L 29.78125 35.203125 
L 44.28125 54.6875 
z
" id="DejaVuSans-120"/>
     <path d="M 18.109375 8.203125 
L 18.109375 -20.796875 
L 9.078125 -20.796875 
L 9.078125 54.6875 
L 18.109375 54.6875 
L 18.109375 46.390625 
Q 20.953125 51.265625 25.265625 53.625 
Q 29.59375 56 35.59375 56 
Q 45.5625 56 51.78125 48.09375 
Q 58.015625 40.1875 58.015625 27.296875 
Q 58.015625 14.40625 51.78125 6.484375 
Q 45.5625 -1.421875 35.59375 -1.421875 
Q 29.59375 -1.421875 25.265625 0.953125 
Q 20.953125 3.328125 18.109375 8.203125 
z
M 48.6875 27.296875 
Q 48.6875 37.203125 44.609375 42.84375 
Q 40.53125 48.484375 33.40625 48.484375 
Q 26.265625 48.484375 22.1875 42.84375 
Q 18.109375 37.203125 18.109375 27.296875 
Q 18.109375 17.390625 22.1875 11.75 
Q 26.265625 6.109375 33.40625 6.109375 
Q 40.53125 6.109375 44.609375 11.75 
Q 48.6875 17.390625 48.6875 27.296875 
z
" id="DejaVuSans-112"/>
     <path d="M 48.78125 52.59375 
L 48.78125 44.1875 
Q 44.96875 46.296875 41.140625 47.34375 
Q 37.3125 48.390625 33.40625 48.390625 
Q 24.65625 48.390625 19.8125 42.84375 
Q 14.984375 37.3125 14.984375 27.296875 
Q 14.984375 17.28125 19.8125 11.734375 
Q 24.65625 6.203125 33.40625 6.203125 
Q 37.3125 6.203125 41.140625 7.25 
Q 44.96875 8.296875 48.78125 10.40625 
L 48.78125 2.09375 
Q 45.015625 0.34375 40.984375 -0.53125 
Q 36.96875 -1.421875 32.421875 -1.421875 
Q 20.0625 -1.421875 12.78125 6.34375 
Q 5.515625 14.109375 5.515625 27.296875 
Q 5.515625 40.671875 12.859375 48.328125 
Q 20.21875 56 33.015625 56 
Q 37.15625 56 41.109375 55.140625 
Q 45.0625 54.296875 48.78125 52.59375 
z
" id="DejaVuSans-99"/>
     <path d="M 18.3125 70.21875 
L 18.3125 54.6875 
L 36.8125 54.6875 
L 36.8125 47.703125 
L 18.3125 47.703125 
L 18.3125 18.015625 
Q 18.3125 11.328125 20.140625 9.421875 
Q 21.96875 7.515625 27.59375 7.515625 
L 36.8125 7.515625 
L 36.8125 0 
L 27.59375 0 
Q 17.1875 0 13.234375 3.875 
Q 9.28125 7.765625 9.28125 18.015625 
L 9.28125 47.703125 
L 2.6875 47.703125 
L 2.6875 54.6875 
L 9.28125 54.6875 
L 9.28125 70.21875 
z
" id="DejaVuSans-116"/>
     <path d="M 45.40625 46.390625 
L 45.40625 75.984375 
L 54.390625 75.984375 
L 54.390625 0 
L 45.40625 0 
L 45.40625 8.203125 
Q 42.578125 3.328125 38.25 0.953125 
Q 33.9375 -1.421875 27.875 -1.421875 
Q 17.96875 -1.421875 11.734375 6.484375 
Q 5.515625 14.40625 5.515625 27.296875 
Q 5.515625 40.1875 11.734375 48.09375 
Q 17.96875 56 27.875 56 
Q 33.9375 56 38.25 53.625 
Q 42.578125 51.265625 45.40625 46.390625 
z
M 14.796875 27.296875 
Q 14.796875 17.390625 18.875 11.75 
Q 22.953125 6.109375 30.078125 6.109375 
Q 37.203125 6.109375 41.296875 11.75 
Q 45.40625 17.390625 45.40625 27.296875 
Q 45.40625 37.203125 41.296875 42.84375 
Q 37.203125 48.484375 30.078125 48.484375 
Q 22.953125 48.484375 18.875 42.84375 
Q 14.796875 37.203125 14.796875 27.296875 
z
" id="DejaVuSans-100"/>
     <path d="M 34.28125 27.484375 
Q 23.390625 27.484375 19.1875 25 
Q 14.984375 22.515625 14.984375 16.5 
Q 14.984375 11.71875 18.140625 8.90625 
Q 21.296875 6.109375 26.703125 6.109375 
Q 34.1875 6.109375 38.703125 11.40625 
Q 43.21875 16.703125 43.21875 25.484375 
L 43.21875 27.484375 
z
M 52.203125 31.203125 
L 52.203125 0 
L 43.21875 0 
L 43.21875 8.296875 
Q 40.140625 3.328125 35.546875 0.953125 
Q 30.953125 -1.421875 24.3125 -1.421875 
Q 15.921875 -1.421875 10.953125 3.296875 
Q 6 8.015625 6 15.921875 
Q 6 25.140625 12.171875 29.828125 
Q 18.359375 34.515625 30.609375 34.515625 
L 43.21875 34.515625 
L 43.21875 35.40625 
Q 43.21875 41.609375 39.140625 45 
Q 35.0625 48.390625 27.6875 48.390625 
Q 23 48.390625 18.546875 47.265625 
Q 14.109375 46.140625 10.015625 43.890625 
L 10.015625 52.203125 
Q 14.9375 54.109375 19.578125 55.046875 
Q 24.21875 56 28.609375 56 
Q 40.484375 56 46.34375 49.84375 
Q 52.203125 43.703125 52.203125 31.203125 
z
" id="DejaVuSans-97"/>
     <path d="M 9.8125 72.90625 
L 19.671875 72.90625 
L 19.671875 42.09375 
L 52.390625 72.90625 
L 65.09375 72.90625 
L 28.90625 38.921875 
L 67.671875 0 
L 54.6875 0 
L 19.671875 35.109375 
L 19.671875 0 
L 9.8125 0 
z
" id="DejaVuSans-75"/>
     <path d="M 9.8125 72.90625 
L 51.703125 72.90625 
L 51.703125 64.59375 
L 19.671875 64.59375 
L 19.671875 43.109375 
L 48.578125 43.109375 
L 48.578125 34.8125 
L 19.671875 34.8125 
L 19.671875 0 
L 9.8125 0 
z
" id="DejaVuSans-70"/>
     <path d="M 64.40625 67.28125 
L 64.40625 56.890625 
Q 59.421875 61.53125 53.78125 63.8125 
Q 48.140625 66.109375 41.796875 66.109375 
Q 29.296875 66.109375 22.65625 58.46875 
Q 16.015625 50.828125 16.015625 36.375 
Q 16.015625 21.96875 22.65625 14.328125 
Q 29.296875 6.6875 41.796875 6.6875 
Q 48.140625 6.6875 53.78125 8.984375 
Q 59.421875 11.28125 64.40625 15.921875 
L 64.40625 5.609375 
Q 59.234375 2.09375 53.4375 0.328125 
Q 47.65625 -1.421875 41.21875 -1.421875 
Q 24.65625 -1.421875 15.125 8.703125 
Q 5.609375 18.84375 5.609375 36.375 
Q 5.609375 53.953125 15.125 64.078125 
Q 24.65625 74.21875 41.21875 74.21875 
Q 47.75 74.21875 53.53125 72.484375 
Q 59.328125 70.75 64.40625 67.28125 
z
" id="DejaVuSans-67"/>
     <path d="M 19.671875 34.8125 
L 19.671875 8.109375 
L 35.5 8.109375 
Q 43.453125 8.109375 47.28125 11.40625 
Q 51.125 14.703125 51.125 21.484375 
Q 51.125 28.328125 47.28125 31.5625 
Q 43.453125 34.8125 35.5 34.8125 
z
M 19.671875 64.796875 
L 19.671875 42.828125 
L 34.28125 42.828125 
Q 41.5 42.828125 45.03125 45.53125 
Q 48.578125 48.25 48.578125 53.8125 
Q 48.578125 59.328125 45.03125 62.0625 
Q 41.5 64.796875 34.28125 64.796875 
z
M 9.8125 72.90625 
L 35.015625 72.90625 
Q 46.296875 72.90625 52.390625 68.21875 
Q 58.5 63.53125 58.5 54.890625 
Q 58.5 48.1875 55.375 44.234375 
Q 52.25 40.28125 46.1875 39.3125 
Q 53.46875 37.75 57.5 32.78125 
Q 61.53125 27.828125 61.53125 20.40625 
Q 61.53125 10.640625 54.890625 5.3125 
Q 48.25 0 35.984375 0 
L 9.8125 0 
z
" id="DejaVuSans-66"/>
     <path d="M 9.078125 75.984375 
L 18.109375 75.984375 
L 18.109375 31.109375 
L 44.921875 54.6875 
L 56.390625 54.6875 
L 27.390625 29.109375 
L 57.625 0 
L 45.90625 0 
L 18.109375 26.703125 
L 18.109375 0 
L 9.078125 0 
z
" id="DejaVuSans-107"/>
     <path d="M 9.421875 75.984375 
L 18.40625 75.984375 
L 18.40625 0 
L 9.421875 0 
z
" id="DejaVuSans-108"/>
    </defs>
    <g transform="translate(342.0368 20.3301)scale(0.1728 -0.1728)">
     <use xlink:href="#DejaVuSans-69"/>
     <use x="63.183594" xlink:href="#DejaVuSans-120"/>
     <use x="122.363281" xlink:href="#DejaVuSans-112"/>
     <use x="185.839844" xlink:href="#DejaVuSans-101"/>
     <use x="247.363281" xlink:href="#DejaVuSans-99"/>
     <use x="302.34375" xlink:href="#DejaVuSans-116"/>
     <use x="341.552734" xlink:href="#DejaVuSans-101"/>
     <use x="403.076172" xlink:href="#DejaVuSans-100"/>
     <use x="466.552734" xlink:href="#DejaVuSans-32"/>
     <use x="498.339844" xlink:href="#DejaVuSans-101"/>
     <use x="559.863281" xlink:href="#DejaVuSans-110"/>
     <use x="623.242188" xlink:href="#DejaVuSans-101"/>
     <use x="684.765625" xlink:href="#DejaVuSans-114"/>
     <use x="725.863281" xlink:href="#DejaVuSans-103"/>
     <use x="789.339844" xlink:href="#DejaVuSans-121"/>
     <use x="848.519531" xlink:href="#DejaVuSans-32"/>
     <use x="880.306641" xlink:href="#DejaVuSans-99"/>
     <use x="935.287109" xlink:href="#DejaVuSans-111"/>
     <use x="996.46875" xlink:href="#DejaVuSans-110"/>
     <use x="1059.847656" xlink:href="#DejaVuSans-115"/>
     <use x="1111.947266" xlink:href="#DejaVuSans-117"/>
     <use x="1175.326172" xlink:href="#DejaVuSans-109"/>
     <use x="1272.738281" xlink:href="#DejaVuSans-112"/>
     <use x="1336.214844" xlink:href="#DejaVuSans-116"/>
     <use x="1375.423828" xlink:href="#DejaVuSans-105"/>
     <use x="1403.207031" xlink:href="#DejaVuSans-111"/>
     <use x="1464.388672" xlink:href="#DejaVuSans-110"/>
     <use x="1527.767578" xlink:href="#DejaVuSans-32"/>
     <use x="1559.554688" xlink:href="#DejaVuSans-40"/>
     <use x="1598.568359" xlink:href="#DejaVuSans-109"/>
     <use x="1695.980469" xlink:href="#DejaVuSans-97"/>
     <use x="1757.259766" xlink:href="#DejaVuSans-105"/>
     <use x="1785.042969" xlink:href="#DejaVuSans-110"/>
     <use x="1848.421875" xlink:href="#DejaVuSans-32"/>
     <use x="1880.208984" xlink:href="#DejaVuSans-105"/>
     <use x="1907.992188" xlink:href="#DejaVuSans-110"/>
     <use x="1971.371094" xlink:href="#DejaVuSans-99"/>
     <use x="2026.351562" xlink:href="#DejaVuSans-111"/>
     <use x="2087.533203" xlink:href="#DejaVuSans-109"/>
     <use x="2184.945312" xlink:href="#DejaVuSans-101"/>
     <use x="2246.46875" xlink:href="#DejaVuSans-114"/>
     <use x="2287.582031" xlink:href="#DejaVuSans-44"/>
     <use x="2319.369141" xlink:href="#DejaVuSans-32"/>
     <use x="2351.15625" xlink:href="#DejaVuSans-75"/>
     <use x="2416.732422" xlink:href="#DejaVuSans-70"/>
     <use x="2474.251953" xlink:href="#DejaVuSans-67"/>
     <use x="2544.076172" xlink:href="#DejaVuSans-32"/>
     <use x="2575.863281" xlink:href="#DejaVuSans-66"/>
     <use x="2644.466797" xlink:href="#DejaVuSans-114"/>
     <use x="2685.580078" xlink:href="#DejaVuSans-97"/>
     <use x="2746.859375" xlink:href="#DejaVuSans-99"/>
     <use x="2801.839844" xlink:href="#DejaVuSans-107"/>
     <use x="2859.75" xlink:href="#DejaVuSans-110"/>
     <use x="2923.128906" xlink:href="#DejaVuSans-101"/>
     <use x="2984.652344" xlink:href="#DejaVuSans-108"/>
     <use x="3012.435547" xlink:href="#DejaVuSans-108"/>
     <use x="3040.21875" xlink:href="#DejaVuSans-41"/>
    </g>
   </g>
   <g id="legend_1">
    <g id="patch_103">
     <path d="M 954.12275 113.302636 
L 1129.8215 113.302636 
Q 1132.2215 113.302636 1132.2215 110.902636 
L 1132.2215 41.647636 
Q 1132.2215 39.247636 1129.8215 39.247636 
L 954.12275 39.247636 
Q 951.72275 39.247636 951.72275 41.647636 
L 951.72275 110.902636 
Q 951.72275 113.302636 954.12275 113.302636 
z
" style="fill:#ffffff;opacity:0.8;stroke:#cccccc;stroke-linejoin:miter;"/>
    </g>
    <g id="line2d_25">
     <path d="M 956.52275 48.965761 
L 980.52275 48.965761 
" style="fill:none;stroke:#e24a33;stroke-linecap:square;stroke-opacity:0.95;stroke-width:4;"/>
    </g>
    <g id="line2d_26"/>
    <g id="text_16">
     <!-- expected consumption -->
     <g transform="translate(990.12275 53.165761)scale(0.12 -0.12)">
      <use xlink:href="#DejaVuSans-101"/>
      <use x="61.507812" xlink:href="#DejaVuSans-120"/>
      <use x="120.6875" xlink:href="#DejaVuSans-112"/>
      <use x="184.164062" xlink:href="#DejaVuSans-101"/>
      <use x="245.6875" xlink:href="#DejaVuSans-99"/>
      <use x="300.667969" xlink:href="#DejaVuSans-116"/>
      <use x="339.876953" xlink:href="#DejaVuSans-101"/>
      <use x="401.400391" xlink:href="#DejaVuSans-100"/>
      <use x="464.876953" xlink:href="#DejaVuSans-32"/>
      <use x="496.664062" xlink:href="#DejaVuSans-99"/>
      <use x="551.644531" xlink:href="#DejaVuSans-111"/>
      <use x="612.826172" xlink:href="#DejaVuSans-110"/>
      <use x="676.205078" xlink:href="#DejaVuSans-115"/>
      <use x="728.304688" xlink:href="#DejaVuSans-117"/>
      <use x="791.683594" xlink:href="#DejaVuSans-109"/>
      <use x="889.095703" xlink:href="#DejaVuSans-112"/>
      <use x="952.572266" xlink:href="#DejaVuSans-116"/>
      <use x="991.78125" xlink:href="#DejaVuSans-105"/>
      <use x="1019.564453" xlink:href="#DejaVuSans-111"/>
      <use x="1080.746094" xlink:href="#DejaVuSans-110"/>
     </g>
    </g>
    <g id="line2d_27">
     <path d="M 956.52275 66.579511 
L 980.52275 66.579511 
" style="fill:none;stroke:#000000;stroke-dasharray:4,6.6;stroke-dashoffset:0;stroke-width:4;"/>
    </g>
    <g id="line2d_28"/>
    <g id="text_17">
     <!-- Time of change -->
     <defs>
      <path d="M 37.109375 75.984375 
L 37.109375 68.5 
L 28.515625 68.5 
Q 23.6875 68.5 21.796875 66.546875 
Q 19.921875 64.59375 19.921875 59.515625 
L 19.921875 54.6875 
L 34.71875 54.6875 
L 34.71875 47.703125 
L 19.921875 47.703125 
L 19.921875 0 
L 10.890625 0 
L 10.890625 47.703125 
L 2.296875 47.703125 
L 2.296875 54.6875 
L 10.890625 54.6875 
L 10.890625 58.5 
Q 10.890625 67.625 15.140625 71.796875 
Q 19.390625 75.984375 28.609375 75.984375 
z
" id="DejaVuSans-102"/>
     </defs>
     <g transform="translate(990.12275 70.779511)scale(0.12 -0.12)">
      <use xlink:href="#DejaVuSans-84"/>
      <use x="61.037109" xlink:href="#DejaVuSans-105"/>
      <use x="88.820312" xlink:href="#DejaVuSans-109"/>
      <use x="186.232422" xlink:href="#DejaVuSans-101"/>
      <use x="247.755859" xlink:href="#DejaVuSans-32"/>
      <use x="279.542969" xlink:href="#DejaVuSans-111"/>
      <use x="340.724609" xlink:href="#DejaVuSans-102"/>
      <use x="375.929688" xlink:href="#DejaVuSans-32"/>
      <use x="407.716797" xlink:href="#DejaVuSans-99"/>
      <use x="462.697266" xlink:href="#DejaVuSans-104"/>
      <use x="526.076172" xlink:href="#DejaVuSans-97"/>
      <use x="587.355469" xlink:href="#DejaVuSans-110"/>
      <use x="650.734375" xlink:href="#DejaVuSans-103"/>
      <use x="714.210938" xlink:href="#DejaVuSans-101"/>
     </g>
    </g>
    <g id="patch_104">
     <path d="M 956.52275 88.393261 
L 980.52275 88.393261 
L 980.52275 79.993261 
L 956.52275 79.993261 
z
" style="fill:#ffa500;opacity:0.25;stroke:#ffa500;stroke-linejoin:miter;"/>
    </g>
    <g id="text_18">
     <!-- 90% Credible Interval -->
     <defs>
      <path d="M 72.703125 32.078125 
Q 68.453125 32.078125 66.03125 28.46875 
Q 63.625 24.859375 63.625 18.40625 
Q 63.625 12.0625 66.03125 8.421875 
Q 68.453125 4.78125 72.703125 4.78125 
Q 76.859375 4.78125 79.265625 8.421875 
Q 81.6875 12.0625 81.6875 18.40625 
Q 81.6875 24.8125 79.265625 28.4375 
Q 76.859375 32.078125 72.703125 32.078125 
z
M 72.703125 38.28125 
Q 80.421875 38.28125 84.953125 32.90625 
Q 89.5 27.546875 89.5 18.40625 
Q 89.5 9.28125 84.9375 3.921875 
Q 80.375 -1.421875 72.703125 -1.421875 
Q 64.890625 -1.421875 60.34375 3.921875 
Q 55.8125 9.28125 55.8125 18.40625 
Q 55.8125 27.59375 60.375 32.9375 
Q 64.9375 38.28125 72.703125 38.28125 
z
M 22.3125 68.015625 
Q 18.109375 68.015625 15.6875 64.375 
Q 13.28125 60.75 13.28125 54.390625 
Q 13.28125 47.953125 15.671875 44.328125 
Q 18.0625 40.71875 22.3125 40.71875 
Q 26.5625 40.71875 28.96875 44.328125 
Q 31.390625 47.953125 31.390625 54.390625 
Q 31.390625 60.6875 28.953125 64.34375 
Q 26.515625 68.015625 22.3125 68.015625 
z
M 66.40625 74.21875 
L 74.21875 74.21875 
L 28.609375 -1.421875 
L 20.796875 -1.421875 
z
M 22.3125 74.21875 
Q 30.03125 74.21875 34.609375 68.875 
Q 39.203125 63.53125 39.203125 54.390625 
Q 39.203125 45.171875 34.640625 39.84375 
Q 30.078125 34.515625 22.3125 34.515625 
Q 14.546875 34.515625 10.03125 39.859375 
Q 5.515625 45.21875 5.515625 54.390625 
Q 5.515625 63.484375 10.046875 68.84375 
Q 14.59375 74.21875 22.3125 74.21875 
z
" id="DejaVuSans-37"/>
      <path d="M 48.6875 27.296875 
Q 48.6875 37.203125 44.609375 42.84375 
Q 40.53125 48.484375 33.40625 48.484375 
Q 26.265625 48.484375 22.1875 42.84375 
Q 18.109375 37.203125 18.109375 27.296875 
Q 18.109375 17.390625 22.1875 11.75 
Q 26.265625 6.109375 33.40625 6.109375 
Q 40.53125 6.109375 44.609375 11.75 
Q 48.6875 17.390625 48.6875 27.296875 
z
M 18.109375 46.390625 
Q 20.953125 51.265625 25.265625 53.625 
Q 29.59375 56 35.59375 56 
Q 45.5625 56 51.78125 48.09375 
Q 58.015625 40.1875 58.015625 27.296875 
Q 58.015625 14.40625 51.78125 6.484375 
Q 45.5625 -1.421875 35.59375 -1.421875 
Q 29.59375 -1.421875 25.265625 0.953125 
Q 20.953125 3.328125 18.109375 8.203125 
L 18.109375 0 
L 9.078125 0 
L 9.078125 75.984375 
L 18.109375 75.984375 
z
" id="DejaVuSans-98"/>
      <path d="M 9.8125 72.90625 
L 19.671875 72.90625 
L 19.671875 0 
L 9.8125 0 
z
" id="DejaVuSans-73"/>
     </defs>
     <g transform="translate(990.12275 88.393261)scale(0.12 -0.12)">
      <use xlink:href="#DejaVuSans-57"/>
      <use x="63.623047" xlink:href="#DejaVuSans-48"/>
      <use x="127.246094" xlink:href="#DejaVuSans-37"/>
      <use x="222.265625" xlink:href="#DejaVuSans-32"/>
      <use x="254.052734" xlink:href="#DejaVuSans-67"/>
      <use x="323.876953" xlink:href="#DejaVuSans-114"/>
      <use x="364.958984" xlink:href="#DejaVuSans-101"/>
      <use x="426.482422" xlink:href="#DejaVuSans-100"/>
      <use x="489.958984" xlink:href="#DejaVuSans-105"/>
      <use x="517.742188" xlink:href="#DejaVuSans-98"/>
      <use x="581.21875" xlink:href="#DejaVuSans-108"/>
      <use x="609.001953" xlink:href="#DejaVuSans-101"/>
      <use x="670.525391" xlink:href="#DejaVuSans-32"/>
      <use x="702.3125" xlink:href="#DejaVuSans-73"/>
      <use x="731.804688" xlink:href="#DejaVuSans-110"/>
      <use x="795.183594" xlink:href="#DejaVuSans-116"/>
      <use x="834.392578" xlink:href="#DejaVuSans-101"/>
      <use x="895.916016" xlink:href="#DejaVuSans-114"/>
      <use x="937.029297" xlink:href="#DejaVuSans-118"/>
      <use x="996.208984" xlink:href="#DejaVuSans-97"/>
      <use x="1057.488281" xlink:href="#DejaVuSans-108"/>
     </g>
    </g>
    <g id="patch_105">
     <path d="M 956.52275 106.007011 
L 980.52275 106.007011 
L 980.52275 97.607011 
L 956.52275 97.607011 
z
" style="fill:#348abd;opacity:0.85;"/>
    </g>
    <g id="text_19">
     <!-- observed consumption -->
     <g transform="translate(990.12275 106.007011)scale(0.12 -0.12)">
      <use xlink:href="#DejaVuSans-111"/>
      <use x="61.181641" xlink:href="#DejaVuSans-98"/>
      <use x="124.658203" xlink:href="#DejaVuSans-115"/>
      <use x="176.757812" xlink:href="#DejaVuSans-101"/>
      <use x="238.28125" xlink:href="#DejaVuSans-114"/>
      <use x="279.394531" xlink:href="#DejaVuSans-118"/>
      <use x="338.574219" xlink:href="#DejaVuSans-101"/>
      <use x="400.097656" xlink:href="#DejaVuSans-100"/>
      <use x="463.574219" xlink:href="#DejaVuSans-32"/>
      <use x="495.361328" xlink:href="#DejaVuSans-99"/>
      <use x="550.341797" xlink:href="#DejaVuSans-111"/>
      <use x="611.523438" xlink:href="#DejaVuSans-110"/>
      <use x="674.902344" xlink:href="#DejaVuSans-115"/>
      <use x="727.001953" xlink:href="#DejaVuSans-117"/>
      <use x="790.380859" xlink:href="#DejaVuSans-109"/>
      <use x="887.792969" xlink:href="#DejaVuSans-112"/>
      <use x="951.269531" xlink:href="#DejaVuSans-116"/>
      <use x="990.478516" xlink:href="#DejaVuSans-105"/>
      <use x="1018.261719" xlink:href="#DejaVuSans-111"/>
      <use x="1079.443359" xlink:href="#DejaVuSans-110"/>
     </g>
    </g>
   </g>
  </g>
 </g>
 <defs>
  <clipPath id="pcf95243c4f">
   <rect height="345.8768" width="1060.275" x="77.9465" y="33.247636"/>
  </clipPath>
 </defs>
</svg>
