<?xml version="1.0" encoding="utf-8" standalone="no"?>
<!DOCTYPE svg PUBLIC "-//W3C//DTD SVG 1.1//EN"
  "http://www.w3.org/Graphics/SVG/1.1/DTD/svg11.dtd">
<!-- Created with matplotlib (https://matplotlib.org/) -->
<svg height="422.874686pt" version="1.1" viewBox="0 0 1145.2865 422.874686" width="1145.2865pt" xmlns="http://www.w3.org/2000/svg" xmlns:xlink="http://www.w3.org/1999/xlink">
 <defs>
  <style type="text/css">
*{stroke-linecap:butt;stroke-linejoin:round;}
  </style>
 </defs>
 <g id="figure_1">
  <g id="patch_1">
   <path d="M 0 422.874686 
L 1145.2865 422.874686 
L 1145.2865 0 
L 0 0 
z
" style="fill:#ffffff;"/>
  </g>
  <g id="axes_1">
   <g id="patch_2">
    <path d="M 70.3115 379.124436 
L 1138.0865 379.124436 
L 1138.0865 33.247636 
L 70.3115 33.247636 
z
" style="fill:#ffffff;"/>
   </g>
   <g id="PolyCollection_1">
    <defs>
     <path d="M 70.3115 -255.425479 
L 70.3115 -254.68008 
L 79.845205 -254.68008 
L 89.378911 -254.68008 
L 98.912616 -254.68008 
L 108.446321 -254.68008 
L 117.980027 -254.68008 
L 127.513732 -254.68008 
L 137.047438 -254.68008 
L 146.581143 -254.68008 
L 156.114848 -254.68008 
L 165.648554 -254.68008 
L 175.182259 -254.68008 
L 184.715964 -254.68008 
L 194.24967 -254.68008 
L 203.783375 -254.68008 
L 213.31708 -254.68008 
L 222.850786 -254.68008 
L 232.384491 -254.68008 
L 241.918196 -254.68008 
L 251.451902 -254.68008 
L 260.985607 -254.68008 
L 270.519312 -254.68008 
L 280.053018 -254.68008 
L 289.586723 -254.68008 
L 299.120429 -254.68008 
L 308.654134 -254.68008 
L 318.187839 -254.68008 
L 327.721545 -254.68008 
L 337.25525 -254.68008 
L 346.788955 -254.68008 
L 356.322661 -254.68008 
L 365.856366 -254.68008 
L 375.390071 -254.68008 
L 384.923777 -254.68008 
L 394.457482 -254.68008 
L 403.991188 -254.68008 
L 413.524893 -254.68008 
L 423.058598 -254.68008 
L 432.592304 -254.68008 
L 442.126009 -254.68008 
L 451.659714 -254.68008 
L 461.19342 -254.68008 
L 470.727125 -254.68008 
L 480.26083 -254.68008 
L 489.794536 -254.68008 
L 499.328241 -254.68008 
L 508.861946 -254.68008 
L 518.395652 -254.68008 
L 527.929357 -254.68008 
L 537.463062 -254.68008 
L 546.996768 -254.68008 
L 556.530473 -254.68008 
L 566.064179 -254.68008 
L 575.597884 -254.68008 
L 585.131589 -254.68008 
L 594.665295 -254.68008 
L 604.199 -254.68008 
L 613.732705 -254.68008 
L 623.266411 -254.68008 
L 632.800116 -254.68008 
L 642.333821 -254.68008 
L 651.867527 -254.68008 
L 661.401232 -254.68008 
L 670.934938 -171.883418 
L 680.468643 -171.883418 
L 690.002348 -171.883418 
L 699.536054 -171.883418 
L 709.069759 -171.883418 
L 718.603464 -171.883418 
L 728.13717 -171.883418 
L 737.670875 -171.883418 
L 747.20458 -171.883418 
L 756.738286 -171.883418 
L 766.271991 -171.883418 
L 775.805696 -171.883418 
L 785.339402 -171.883418 
L 794.873107 -171.883418 
L 804.406813 -171.883418 
L 813.940518 -171.883418 
L 823.474223 -171.883418 
L 833.007929 -171.883418 
L 842.541634 -171.883418 
L 852.075339 -171.883418 
L 861.609045 -171.883418 
L 871.14275 -171.883418 
L 880.676455 -171.883418 
L 890.210161 -171.883418 
L 899.743866 -171.883418 
L 909.277571 -171.883418 
L 918.811277 -171.883418 
L 928.344982 -171.883418 
L 937.878687 -171.883418 
L 947.412393 -171.883418 
L 956.946098 -171.883418 
L 966.479804 -171.883418 
L 976.013509 -171.883418 
L 985.547214 -171.883418 
L 995.08092 -171.883418 
L 1004.614625 -171.883418 
L 1014.14833 -171.883418 
L 1023.682036 -171.883418 
L 1033.215741 -171.883418 
L 1042.749446 -171.883418 
L 1052.283152 -171.883418 
L 1061.816857 -171.883418 
L 1071.350563 -171.883418 
L 1080.884268 -171.883418 
L 1090.417973 -171.883418 
L 1099.951679 -171.883418 
L 1109.485384 -171.883418 
L 1119.019089 -171.883418 
L 1128.552795 -171.883418 
L 1128.552795 -172.532029 
L 1128.552795 -172.532029 
L 1119.019089 -172.532029 
L 1109.485384 -172.532029 
L 1099.951679 -172.532029 
L 1090.417973 -172.532029 
L 1080.884268 -172.532029 
L 1071.350563 -172.532029 
L 1061.816857 -172.532029 
L 1052.283152 -172.532029 
L 1042.749446 -172.532029 
L 1033.215741 -172.532029 
L 1023.682036 -172.532029 
L 1014.14833 -172.532029 
L 1004.614625 -172.532029 
L 995.08092 -172.532029 
L 985.547214 -172.532029 
L 976.013509 -172.532029 
L 966.479804 -172.532029 
L 956.946098 -172.532029 
L 947.412393 -172.532029 
L 937.878687 -172.532029 
L 928.344982 -172.532029 
L 918.811277 -172.532029 
L 909.277571 -172.532029 
L 899.743866 -172.532029 
L 890.210161 -172.532029 
L 880.676455 -172.532029 
L 871.14275 -172.532029 
L 861.609045 -172.532029 
L 852.075339 -172.532029 
L 842.541634 -172.532029 
L 833.007929 -172.532029 
L 823.474223 -172.532029 
L 813.940518 -172.532029 
L 804.406813 -172.532029 
L 794.873107 -172.532029 
L 785.339402 -172.532029 
L 775.805696 -172.532029 
L 766.271991 -172.532029 
L 756.738286 -172.532029 
L 747.20458 -172.532029 
L 737.670875 -172.532029 
L 728.13717 -172.532029 
L 718.603464 -172.532029 
L 709.069759 -172.532029 
L 699.536054 -172.532029 
L 690.002348 -172.532029 
L 680.468643 -172.532029 
L 670.934938 -172.532029 
L 661.401232 -255.425479 
L 651.867527 -255.425479 
L 642.333821 -255.425479 
L 632.800116 -255.425479 
L 623.266411 -255.425479 
L 613.732705 -255.425479 
L 604.199 -255.425479 
L 594.665295 -255.425479 
L 585.131589 -255.425479 
L 575.597884 -255.425479 
L 566.064179 -255.425479 
L 556.530473 -255.425479 
L 546.996768 -255.425479 
L 537.463062 -255.425479 
L 527.929357 -255.425479 
L 518.395652 -255.425479 
L 508.861946 -255.425479 
L 499.328241 -255.425479 
L 489.794536 -255.425479 
L 480.26083 -255.425479 
L 470.727125 -255.425479 
L 461.19342 -255.425479 
L 451.659714 -255.425479 
L 442.126009 -255.425479 
L 432.592304 -255.425479 
L 423.058598 -255.425479 
L 413.524893 -255.425479 
L 403.991188 -255.425479 
L 394.457482 -255.425479 
L 384.923777 -255.425479 
L 375.390071 -255.425479 
L 365.856366 -255.425479 
L 356.322661 -255.425479 
L 346.788955 -255.425479 
L 337.25525 -255.425479 
L 327.721545 -255.425479 
L 318.187839 -255.425479 
L 308.654134 -255.425479 
L 299.120429 -255.425479 
L 289.586723 -255.425479 
L 280.053018 -255.425479 
L 270.519312 -255.425479 
L 260.985607 -255.425479 
L 251.451902 -255.425479 
L 241.918196 -255.425479 
L 232.384491 -255.425479 
L 222.850786 -255.425479 
L 213.31708 -255.425479 
L 203.783375 -255.425479 
L 194.24967 -255.425479 
L 184.715964 -255.425479 
L 175.182259 -255.425479 
L 165.648554 -255.425479 
L 156.114848 -255.425479 
L 146.581143 -255.425479 
L 137.047438 -255.425479 
L 127.513732 -255.425479 
L 117.980027 -255.425479 
L 108.446321 -255.425479 
L 98.912616 -255.425479 
L 89.378911 -255.425479 
L 79.845205 -255.425479 
L 70.3115 -255.425479 
z
" id="m54a8ba8946" style="stroke:#ffa500;stroke-opacity:0.25;"/>
    </defs>
    <g clip-path="url(#p53ae1eec9d)">
     <use style="fill:#ffa500;fill-opacity:0.25;stroke:#ffa500;stroke-opacity:0.25;" x="0" xlink:href="#m54a8ba8946" y="422.874686"/>
    </g>
   </g>
   <g id="patch_3">
    <path clip-path="url(#p53ae1eec9d)" d="M 66.498018 379.124436 
L 74.124982 379.124436 
L 74.124982 174.307229 
L 66.498018 174.307229 
z
" style="fill:#348abd;opacity:0.85;"/>
   </g>
   <g id="patch_4">
    <path clip-path="url(#p53ae1eec9d)" d="M 76.031723 379.124436 
L 83.658687 379.124436 
L 83.658687 197.888699 
L 76.031723 197.888699 
z
" style="fill:#348abd;opacity:0.85;"/>
   </g>
   <g id="patch_5">
    <path clip-path="url(#p53ae1eec9d)" d="M 85.565429 379.124436 
L 93.192393 379.124436 
L 93.192393 198.248264 
L 85.565429 198.248264 
z
" style="fill:#348abd;opacity:0.85;"/>
   </g>
   <g id="patch_6">
    <path clip-path="url(#p53ae1eec9d)" d="M 95.099134 379.124436 
L 102.726098 379.124436 
L 102.726098 131.668814 
L 95.099134 131.668814 
z
" style="fill:#348abd;opacity:0.85;"/>
   </g>
   <g id="patch_7">
    <path clip-path="url(#p53ae1eec9d)" d="M 104.632839 379.124436 
L 112.259804 379.124436 
L 112.259804 78.992543 
L 104.632839 78.992543 
z
" style="fill:#348abd;opacity:0.85;"/>
   </g>
   <g id="patch_8">
    <path clip-path="url(#p53ae1eec9d)" d="M 114.166545 379.124436 
L 121.793509 379.124436 
L 121.793509 75.891295 
L 114.166545 75.891295 
z
" style="fill:#348abd;opacity:0.85;"/>
   </g>
   <g id="patch_9">
    <path clip-path="url(#p53ae1eec9d)" d="M 123.70025 379.124436 
L 131.327214 379.124436 
L 131.327214 110.963863 
L 123.70025 110.963863 
z
" style="fill:#348abd;opacity:0.85;"/>
   </g>
   <g id="patch_10">
    <path clip-path="url(#p53ae1eec9d)" d="M 133.233955 379.124436 
L 140.86092 379.124436 
L 140.86092 69.77869 
L 133.233955 69.77869 
z
" style="fill:#348abd;opacity:0.85;"/>
   </g>
   <g id="patch_11">
    <path clip-path="url(#p53ae1eec9d)" d="M 142.767661 379.124436 
L 150.394625 379.124436 
L 150.394625 109.90015 
L 142.767661 109.90015 
z
" style="fill:#348abd;opacity:0.85;"/>
   </g>
   <g id="patch_12">
    <path clip-path="url(#p53ae1eec9d)" d="M 152.301366 379.124436 
L 159.92833 379.124436 
L 159.92833 112.027576 
L 152.301366 112.027576 
z
" style="fill:#348abd;opacity:0.85;"/>
   </g>
   <g id="patch_13">
    <path clip-path="url(#p53ae1eec9d)" d="M 161.835071 379.124436 
L 169.462036 379.124436 
L 169.462036 124.52246 
L 161.835071 124.52246 
z
" style="fill:#348abd;opacity:0.85;"/>
   </g>
   <g id="patch_14">
    <path clip-path="url(#p53ae1eec9d)" d="M 171.368777 379.124436 
L 178.995741 379.124436 
L 178.995741 137.481781 
L 171.368777 137.481781 
z
" style="fill:#348abd;opacity:0.85;"/>
   </g>
   <g id="patch_15">
    <path clip-path="url(#p53ae1eec9d)" d="M 180.902482 379.124436 
L 188.529446 379.124436 
L 188.529446 174.262283 
L 180.902482 174.262283 
z
" style="fill:#348abd;opacity:0.85;"/>
   </g>
   <g id="patch_16">
    <path clip-path="url(#p53ae1eec9d)" d="M 190.436187 379.124436 
L 198.063152 379.124436 
L 198.063152 154.066716 
L 190.436187 154.066716 
z
" style="fill:#348abd;opacity:0.85;"/>
   </g>
   <g id="patch_17">
    <path clip-path="url(#p53ae1eec9d)" d="M 199.969893 379.124436 
L 207.596857 379.124436 
L 207.596857 183.236426 
L 199.969893 183.236426 
z
" style="fill:#348abd;opacity:0.85;"/>
   </g>
   <g id="patch_18">
    <path clip-path="url(#p53ae1eec9d)" d="M 209.503598 379.124436 
L 217.130562 379.124436 
L 217.130562 296.244706 
L 209.503598 296.244706 
z
" style="fill:#348abd;opacity:0.85;"/>
   </g>
   <g id="patch_19">
    <path clip-path="url(#p53ae1eec9d)" d="M 219.037304 379.124436 
L 226.664268 379.124436 
L 226.664268 86.858027 
L 219.037304 86.858027 
z
" style="fill:#348abd;opacity:0.85;"/>
   </g>
   <g id="patch_20">
    <path clip-path="url(#p53ae1eec9d)" d="M 228.571009 379.124436 
L 236.197973 379.124436 
L 236.197973 101.974738 
L 228.571009 101.974738 
z
" style="fill:#348abd;opacity:0.85;"/>
   </g>
   <g id="patch_21">
    <path clip-path="url(#p53ae1eec9d)" d="M 238.104714 379.124436 
L 245.731679 379.124436 
L 245.731679 65.898384 
L 238.104714 65.898384 
z
" style="fill:#348abd;opacity:0.85;"/>
   </g>
   <g id="patch_22">
    <path clip-path="url(#p53ae1eec9d)" d="M 247.63842 379.124436 
L 255.265384 379.124436 
L 255.265384 65.868421 
L 247.63842 65.868421 
z
" style="fill:#348abd;opacity:0.85;"/>
   </g>
   <g id="patch_23">
    <path clip-path="url(#p53ae1eec9d)" d="M 257.172125 379.124436 
L 264.799089 379.124436 
L 264.799089 53.343573 
L 257.172125 53.343573 
z
" style="fill:#348abd;opacity:0.85;"/>
   </g>
   <g id="patch_24">
    <path clip-path="url(#p53ae1eec9d)" d="M 266.70583 379.124436 
L 274.332795 379.124436 
L 274.332795 49.71796 
L 266.70583 49.71796 
z
" style="fill:#348abd;opacity:0.85;"/>
   </g>
   <g id="patch_25">
    <path clip-path="url(#p53ae1eec9d)" d="M 276.239536 379.124436 
L 283.8665 379.124436 
L 283.8665 88.970471 
L 276.239536 88.970471 
z
" style="fill:#348abd;opacity:0.85;"/>
   </g>
   <g id="patch_26">
    <path clip-path="url(#p53ae1eec9d)" d="M 285.773241 379.124436 
L 293.400205 379.124436 
L 293.400205 75.351947 
L 285.773241 75.351947 
z
" style="fill:#348abd;opacity:0.85;"/>
   </g>
   <g id="patch_27">
    <path clip-path="url(#p53ae1eec9d)" d="M 295.306946 379.124436 
L 302.933911 379.124436 
L 302.933911 60.924402 
L 295.306946 60.924402 
z
" style="fill:#348abd;opacity:0.85;"/>
   </g>
   <g id="patch_28">
    <path clip-path="url(#p53ae1eec9d)" d="M 304.840652 379.124436 
L 312.467616 379.124436 
L 312.467616 108.072361 
L 304.840652 108.072361 
z
" style="fill:#348abd;opacity:0.85;"/>
   </g>
   <g id="patch_29">
    <path clip-path="url(#p53ae1eec9d)" d="M 314.374357 379.124436 
L 322.001321 379.124436 
L 322.001321 110.918917 
L 314.374357 110.918917 
z
" style="fill:#348abd;opacity:0.85;"/>
   </g>
   <g id="patch_30">
    <path clip-path="url(#p53ae1eec9d)" d="M 323.908063 379.124436 
L 331.535027 379.124436 
L 331.535027 138.890077 
L 323.908063 138.890077 
z
" style="fill:#348abd;opacity:0.85;"/>
   </g>
   <g id="patch_31">
    <path clip-path="url(#p53ae1eec9d)" d="M 333.441768 379.124436 
L 341.068732 379.124436 
L 341.068732 127.683635 
L 333.441768 127.683635 
z
" style="fill:#348abd;opacity:0.85;"/>
   </g>
   <g id="patch_32">
    <path clip-path="url(#p53ae1eec9d)" d="M 342.975473 379.124436 
L 350.602437 379.124436 
L 350.602437 142.650528 
L 342.975473 142.650528 
z
" style="fill:#348abd;opacity:0.85;"/>
   </g>
   <g id="patch_33">
    <path clip-path="url(#p53ae1eec9d)" d="M 352.509179 379.124436 
L 360.136143 379.124436 
L 360.136143 162.381657 
L 352.509179 162.381657 
z
" style="fill:#348abd;opacity:0.85;"/>
   </g>
   <g id="patch_34">
    <path clip-path="url(#p53ae1eec9d)" d="M 362.042884 379.124436 
L 369.669848 379.124436 
L 369.669848 279.959408 
L 362.042884 279.959408 
z
" style="fill:#348abd;opacity:0.85;"/>
   </g>
   <g id="patch_35">
    <path clip-path="url(#p53ae1eec9d)" d="M 371.576589 379.124436 
L 379.203554 379.124436 
L 379.203554 314.41772 
L 371.576589 314.41772 
z
" style="fill:#348abd;opacity:0.85;"/>
   </g>
   <g id="patch_36">
    <path clip-path="url(#p53ae1eec9d)" d="M 381.110295 379.124436 
L 388.737259 379.124436 
L 388.737259 232.197192 
L 381.110295 232.197192 
z
" style="fill:#348abd;opacity:0.85;"/>
   </g>
   <g id="patch_37">
    <path clip-path="url(#p53ae1eec9d)" d="M 390.644 379.124436 
L 398.270964 379.124436 
L 398.270964 325.459361 
L 390.644 325.459361 
z
" style="fill:#348abd;opacity:0.85;"/>
   </g>
   <g id="patch_38">
    <path clip-path="url(#p53ae1eec9d)" d="M 400.177705 379.124436 
L 407.80467 379.124436 
L 407.80467 290.027228 
L 400.177705 290.027228 
z
" style="fill:#348abd;opacity:0.85;"/>
   </g>
   <g id="patch_39">
    <path clip-path="url(#p53ae1eec9d)" d="M 409.711411 379.124436 
L 417.338375 379.124436 
L 417.338375 327.736606 
L 409.711411 327.736606 
z
" style="fill:#348abd;opacity:0.85;"/>
   </g>
   <g id="patch_40">
    <path clip-path="url(#p53ae1eec9d)" d="M 419.245116 379.124436 
L 426.87208 379.124436 
L 426.87208 297.188564 
L 419.245116 297.188564 
z
" style="fill:#348abd;opacity:0.85;"/>
   </g>
   <g id="patch_41">
    <path clip-path="url(#p53ae1eec9d)" d="M 428.778821 379.124436 
L 436.405786 379.124436 
L 436.405786 72.939865 
L 428.778821 72.939865 
z
" style="fill:#348abd;opacity:0.85;"/>
   </g>
   <g id="patch_42">
    <path clip-path="url(#p53ae1eec9d)" d="M 438.312527 379.124436 
L 445.939491 379.124436 
L 445.939491 62.602372 
L 438.312527 62.602372 
z
" style="fill:#348abd;opacity:0.85;"/>
   </g>
   <g id="patch_43">
    <path clip-path="url(#p53ae1eec9d)" d="M 447.846232 379.124436 
L 455.473196 379.124436 
L 455.473196 88.086541 
L 447.846232 88.086541 
z
" style="fill:#348abd;opacity:0.85;"/>
   </g>
   <g id="patch_44">
    <path clip-path="url(#p53ae1eec9d)" d="M 457.379937 379.124436 
L 465.006902 379.124436 
L 465.006902 173.228534 
L 457.379937 173.228534 
z
" style="fill:#348abd;opacity:0.85;"/>
   </g>
   <g id="patch_45">
    <path clip-path="url(#p53ae1eec9d)" d="M 466.913643 379.124436 
L 474.540607 379.124436 
L 474.540607 187.431351 
L 466.913643 187.431351 
z
" style="fill:#348abd;opacity:0.85;"/>
   </g>
   <g id="patch_46">
    <path clip-path="url(#p53ae1eec9d)" d="M 476.447348 379.124436 
L 484.074313 379.124436 
L 484.074313 198.458011 
L 476.447348 198.458011 
z
" style="fill:#348abd;opacity:0.85;"/>
   </g>
   <g id="patch_47">
    <path clip-path="url(#p53ae1eec9d)" d="M 485.981054 379.124436 
L 493.608018 379.124436 
L 493.608018 198.443029 
L 485.981054 198.443029 
z
" style="fill:#348abd;opacity:0.85;"/>
   </g>
   <g id="patch_48">
    <path clip-path="url(#p53ae1eec9d)" d="M 495.514759 379.124436 
L 503.141723 379.124436 
L 503.141723 191.251729 
L 495.514759 191.251729 
z
" style="fill:#348abd;opacity:0.85;"/>
   </g>
   <g id="patch_49">
    <path clip-path="url(#p53ae1eec9d)" d="M 505.048464 379.124436 
L 512.675429 379.124436 
L 512.675429 196.210729 
L 505.048464 196.210729 
z
" style="fill:#348abd;opacity:0.85;"/>
   </g>
   <g id="patch_50">
    <path clip-path="url(#p53ae1eec9d)" d="M 514.58217 379.124436 
L 522.209134 379.124436 
L 522.209134 216.466224 
L 514.58217 216.466224 
z
" style="fill:#348abd;opacity:0.85;"/>
   </g>
   <g id="patch_51">
    <path clip-path="url(#p53ae1eec9d)" d="M 524.115875 379.124436 
L 531.742839 379.124436 
L 531.742839 342.179133 
L 524.115875 342.179133 
z
" style="fill:#348abd;opacity:0.85;"/>
   </g>
   <g id="patch_52">
    <path clip-path="url(#p53ae1eec9d)" d="M 533.64958 379.124436 
L 541.276545 379.124436 
L 541.276545 338.71832 
L 533.64958 338.71832 
z
" style="fill:#348abd;opacity:0.85;"/>
   </g>
   <g id="patch_53">
    <path clip-path="url(#p53ae1eec9d)" d="M 543.183286 379.124436 
L 550.81025 379.124436 
L 550.81025 339.287632 
L 543.183286 339.287632 
z
" style="fill:#348abd;opacity:0.85;"/>
   </g>
   <g id="patch_54">
    <path clip-path="url(#p53ae1eec9d)" d="M 552.716991 379.124436 
L 560.343955 379.124436 
L 560.343955 269.082567 
L 552.716991 269.082567 
z
" style="fill:#348abd;opacity:0.85;"/>
   </g>
   <g id="patch_55">
    <path clip-path="url(#p53ae1eec9d)" d="M 562.250696 379.124436 
L 569.877661 379.124436 
L 569.877661 107.233376 
L 562.250696 107.233376 
z
" style="fill:#348abd;opacity:0.85;"/>
   </g>
   <g id="patch_56">
    <path clip-path="url(#p53ae1eec9d)" d="M 571.784402 379.124436 
L 579.411366 379.124436 
L 579.411366 339.452432 
L 571.784402 339.452432 
z
" style="fill:#348abd;opacity:0.85;"/>
   </g>
   <g id="patch_57">
    <path clip-path="url(#p53ae1eec9d)" d="M 581.318107 379.124436 
L 588.945071 379.124436 
L 588.945071 149.30248 
L 581.318107 149.30248 
z
" style="fill:#348abd;opacity:0.85;"/>
   </g>
   <g id="patch_58">
    <path clip-path="url(#p53ae1eec9d)" d="M 590.851813 379.124436 
L 598.478777 379.124436 
L 598.478777 135.923666 
L 590.851813 135.923666 
z
" style="fill:#348abd;opacity:0.85;"/>
   </g>
   <g id="patch_59">
    <path clip-path="url(#p53ae1eec9d)" d="M 600.385518 379.124436 
L 608.012482 379.124436 
L 608.012482 141.137358 
L 600.385518 141.137358 
z
" style="fill:#348abd;opacity:0.85;"/>
   </g>
   <g id="patch_60">
    <path clip-path="url(#p53ae1eec9d)" d="M 609.919223 379.124436 
L 617.546187 379.124436 
L 617.546187 162.336711 
L 609.919223 162.336711 
z
" style="fill:#348abd;opacity:0.85;"/>
   </g>
   <g id="patch_61">
    <path clip-path="url(#p53ae1eec9d)" d="M 619.452929 379.124436 
L 627.079893 379.124436 
L 627.079893 134.050932 
L 619.452929 134.050932 
z
" style="fill:#348abd;opacity:0.85;"/>
   </g>
   <g id="patch_62">
    <path clip-path="url(#p53ae1eec9d)" d="M 628.986634 379.124436 
L 636.613598 379.124436 
L 636.613598 170.591724 
L 628.986634 170.591724 
z
" style="fill:#348abd;opacity:0.85;"/>
   </g>
   <g id="patch_63">
    <path clip-path="url(#p53ae1eec9d)" d="M 638.520339 379.124436 
L 646.147304 379.124436 
L 646.147304 173.872754 
L 638.520339 173.872754 
z
" style="fill:#348abd;opacity:0.85;"/>
   </g>
   <g id="patch_64">
    <path clip-path="url(#p53ae1eec9d)" d="M 648.054045 379.124436 
L 655.681009 379.124436 
L 655.681009 182.637151 
L 648.054045 182.637151 
z
" style="fill:#348abd;opacity:0.85;"/>
   </g>
   <g id="patch_65">
    <path clip-path="url(#p53ae1eec9d)" d="M 657.58775 379.124436 
L 665.214714 379.124436 
L 665.214714 165.812506 
L 657.58775 165.812506 
z
" style="fill:#348abd;opacity:0.85;"/>
   </g>
   <g id="patch_66">
    <path clip-path="url(#p53ae1eec9d)" d="M 667.121455 379.124436 
L 674.74842 379.124436 
L 674.74842 268.273546 
L 667.121455 268.273546 
z
" style="fill:#348abd;opacity:0.85;"/>
   </g>
   <g id="patch_67">
    <path clip-path="url(#p53ae1eec9d)" d="M 676.655161 379.124436 
L 684.282125 379.124436 
L 684.282125 290.806285 
L 676.655161 290.806285 
z
" style="fill:#348abd;opacity:0.85;"/>
   </g>
   <g id="patch_68">
    <path clip-path="url(#p53ae1eec9d)" d="M 686.188866 379.124436 
L 693.81583 379.124436 
L 693.81583 240.407259 
L 686.188866 240.407259 
z
" style="fill:#348abd;opacity:0.85;"/>
   </g>
   <g id="patch_69">
    <path clip-path="url(#p53ae1eec9d)" d="M 695.722571 379.124436 
L 703.349536 379.124436 
L 703.349536 235.403313 
L 695.722571 235.403313 
z
" style="fill:#348abd;opacity:0.85;"/>
   </g>
   <g id="patch_70">
    <path clip-path="url(#p53ae1eec9d)" d="M 705.256277 379.124436 
L 712.883241 379.124436 
L 712.883241 316.470237 
L 705.256277 316.470237 
z
" style="fill:#348abd;opacity:0.85;"/>
   </g>
   <g id="patch_71">
    <path clip-path="url(#p53ae1eec9d)" d="M 714.789982 379.124436 
L 722.416946 379.124436 
L 722.416946 326.268383 
L 714.789982 326.268383 
z
" style="fill:#348abd;opacity:0.85;"/>
   </g>
   <g id="patch_72">
    <path clip-path="url(#p53ae1eec9d)" d="M 724.323688 379.124436 
L 731.950652 379.124436 
L 731.950652 290.896177 
L 724.323688 290.896177 
z
" style="fill:#348abd;opacity:0.85;"/>
   </g>
   <g id="patch_73">
    <path clip-path="url(#p53ae1eec9d)" d="M 733.857393 379.124436 
L 741.484357 379.124436 
L 741.484357 105.375624 
L 733.857393 105.375624 
z
" style="fill:#348abd;opacity:0.85;"/>
   </g>
   <g id="patch_74">
    <path clip-path="url(#p53ae1eec9d)" d="M 743.391098 379.124436 
L 751.018062 379.124436 
L 751.018062 126.275339 
L 743.391098 126.275339 
z
" style="fill:#348abd;opacity:0.85;"/>
   </g>
   <g id="patch_75">
    <path clip-path="url(#p53ae1eec9d)" d="M 752.924804 379.124436 
L 760.551768 379.124436 
L 760.551768 218.743469 
L 752.924804 218.743469 
z
" style="fill:#348abd;opacity:0.85;"/>
   </g>
   <g id="patch_76">
    <path clip-path="url(#p53ae1eec9d)" d="M 762.458509 379.124436 
L 770.085473 379.124436 
L 770.085473 222.533883 
L 762.458509 222.533883 
z
" style="fill:#348abd;opacity:0.85;"/>
   </g>
   <g id="patch_77">
    <path clip-path="url(#p53ae1eec9d)" d="M 771.992214 379.124436 
L 779.619179 379.124436 
L 779.619179 219.657363 
L 771.992214 219.657363 
z
" style="fill:#348abd;opacity:0.85;"/>
   </g>
   <g id="patch_78">
    <path clip-path="url(#p53ae1eec9d)" d="M 781.52592 379.124436 
L 789.152884 379.124436 
L 789.152884 231.358207 
L 781.52592 231.358207 
z
" style="fill:#348abd;opacity:0.85;"/>
   </g>
   <g id="patch_79">
    <path clip-path="url(#p53ae1eec9d)" d="M 791.059625 379.124436 
L 798.686589 379.124436 
L 798.686589 233.126068 
L 791.059625 233.126068 
z
" style="fill:#348abd;opacity:0.85;"/>
   </g>
   <g id="patch_80">
    <path clip-path="url(#p53ae1eec9d)" d="M 800.59333 379.124436 
L 808.220295 379.124436 
L 808.220295 233.740325 
L 800.59333 233.740325 
z
" style="fill:#348abd;opacity:0.85;"/>
   </g>
   <g id="patch_81">
    <path clip-path="url(#p53ae1eec9d)" d="M 810.127036 379.124436 
L 817.754 379.124436 
L 817.754 235.328404 
L 810.127036 235.328404 
z
" style="fill:#348abd;opacity:0.85;"/>
   </g>
   <g id="patch_82">
    <path clip-path="url(#p53ae1eec9d)" d="M 819.660741 379.124436 
L 827.287705 379.124436 
L 827.287705 297.263473 
L 819.660741 297.263473 
z
" style="fill:#348abd;opacity:0.85;"/>
   </g>
   <g id="patch_83">
    <path clip-path="url(#p53ae1eec9d)" d="M 829.194446 379.124436 
L 836.821411 379.124436 
L 836.821411 347.213043 
L 829.194446 347.213043 
z
" style="fill:#348abd;opacity:0.85;"/>
   </g>
   <g id="patch_84">
    <path clip-path="url(#p53ae1eec9d)" d="M 838.728152 379.124436 
L 846.355116 379.124436 
L 846.355116 311.376399 
L 838.728152 311.376399 
z
" style="fill:#348abd;opacity:0.85;"/>
   </g>
   <g id="patch_85">
    <path clip-path="url(#p53ae1eec9d)" d="M 848.261857 379.124436 
L 855.888821 379.124436 
L 855.888821 251.568756 
L 848.261857 251.568756 
z
" style="fill:#348abd;opacity:0.85;"/>
   </g>
   <g id="patch_86">
    <path clip-path="url(#p53ae1eec9d)" d="M 857.795562 379.124436 
L 865.422527 379.124436 
L 865.422527 234.429491 
L 857.795562 234.429491 
z
" style="fill:#348abd;opacity:0.85;"/>
   </g>
   <g id="patch_87">
    <path clip-path="url(#p53ae1eec9d)" d="M 867.329268 379.124436 
L 874.956232 379.124436 
L 874.956232 219.852127 
L 867.329268 219.852127 
z
" style="fill:#348abd;opacity:0.85;"/>
   </g>
   <g id="patch_88">
    <path clip-path="url(#p53ae1eec9d)" d="M 876.862973 379.124436 
L 884.489937 379.124436 
L 884.489937 226.534043 
L 876.862973 226.534043 
z
" style="fill:#348abd;opacity:0.85;"/>
   </g>
   <g id="patch_89">
    <path clip-path="url(#p53ae1eec9d)" d="M 886.396679 379.124436 
L 894.023643 379.124436 
L 894.023643 229.680237 
L 886.396679 229.680237 
z
" style="fill:#348abd;opacity:0.85;"/>
   </g>
   <g id="patch_90">
    <path clip-path="url(#p53ae1eec9d)" d="M 895.930384 379.124436 
L 903.557348 379.124436 
L 903.557348 246.055426 
L 895.930384 246.055426 
z
" style="fill:#348abd;opacity:0.85;"/>
   </g>
   <g id="patch_91">
    <path clip-path="url(#p53ae1eec9d)" d="M 905.464089 379.124436 
L 913.091054 379.124436 
L 913.091054 239.508347 
L 905.464089 239.508347 
z
" style="fill:#348abd;opacity:0.85;"/>
   </g>
   <g id="patch_92">
    <path clip-path="url(#p53ae1eec9d)" d="M 914.997795 379.124436 
L 922.624759 379.124436 
L 922.624759 246.759574 
L 914.997795 246.759574 
z
" style="fill:#348abd;opacity:0.85;"/>
   </g>
   <g id="patch_93">
    <path clip-path="url(#p53ae1eec9d)" d="M 924.5315 379.124436 
L 932.158464 379.124436 
L 932.158464 237.515758 
L 924.5315 237.515758 
z
" style="fill:#348abd;opacity:0.85;"/>
   </g>
   <g id="patch_94">
    <path clip-path="url(#p53ae1eec9d)" d="M 934.065205 379.124436 
L 941.69217 379.124436 
L 941.69217 247.20903 
L 934.065205 247.20903 
z
" style="fill:#348abd;opacity:0.85;"/>
   </g>
   <g id="patch_95">
    <path clip-path="url(#p53ae1eec9d)" d="M 943.598911 379.124436 
L 951.225875 379.124436 
L 951.225875 246.864447 
L 943.598911 246.864447 
z
" style="fill:#348abd;opacity:0.85;"/>
   </g>
   <g id="patch_96">
    <path clip-path="url(#p53ae1eec9d)" d="M 953.132616 379.124436 
L 960.75958 379.124436 
L 960.75958 248.272743 
L 953.132616 248.272743 
z
" style="fill:#348abd;opacity:0.85;"/>
   </g>
   <g id="patch_97">
    <path clip-path="url(#p53ae1eec9d)" d="M 962.666321 379.124436 
L 970.293286 379.124436 
L 970.293286 244.587202 
L 962.666321 244.587202 
z
" style="fill:#348abd;opacity:0.85;"/>
   </g>
   <g id="patch_98">
    <path clip-path="url(#p53ae1eec9d)" d="M 972.200027 379.124436 
L 979.826991 379.124436 
L 979.826991 306.117761 
L 972.200027 306.117761 
z
" style="fill:#348abd;opacity:0.85;"/>
   </g>
   <g id="patch_99">
    <path clip-path="url(#p53ae1eec9d)" d="M 981.733732 379.124436 
L 989.360696 379.124436 
L 989.360696 266.640522 
L 981.733732 266.640522 
z
" style="fill:#348abd;opacity:0.85;"/>
   </g>
   <g id="patch_100">
    <path clip-path="url(#p53ae1eec9d)" d="M 991.267437 379.124436 
L 998.894402 379.124436 
L 998.894402 234.699165 
L 991.267437 234.699165 
z
" style="fill:#348abd;opacity:0.85;"/>
   </g>
   <g id="patch_101">
    <path clip-path="url(#p53ae1eec9d)" d="M 1000.801143 379.124436 
L 1008.428107 379.124436 
L 1008.428107 230.02482 
L 1000.801143 230.02482 
z
" style="fill:#348abd;opacity:0.85;"/>
   </g>
   <g id="patch_102">
    <path clip-path="url(#p53ae1eec9d)" d="M 1010.334848 379.124436 
L 1017.961812 379.124436 
L 1017.961812 225.814914 
L 1010.334848 225.814914 
z
" style="fill:#348abd;opacity:0.85;"/>
   </g>
   <g id="patch_103">
    <path clip-path="url(#p53ae1eec9d)" d="M 1019.868554 379.124436 
L 1027.495518 379.124436 
L 1027.495518 222.084427 
L 1019.868554 222.084427 
z
" style="fill:#348abd;opacity:0.85;"/>
   </g>
   <g id="patch_104">
    <path clip-path="url(#p53ae1eec9d)" d="M 1029.402259 379.124436 
L 1037.029223 379.124436 
L 1037.029223 227.013463 
L 1029.402259 227.013463 
z
" style="fill:#348abd;opacity:0.85;"/>
   </g>
   <g id="patch_105">
    <path clip-path="url(#p53ae1eec9d)" d="M 1038.935964 379.124436 
L 1046.562929 379.124436 
L 1046.562929 222.548865 
L 1038.935964 222.548865 
z
" style="fill:#348abd;opacity:0.85;"/>
   </g>
   <g id="patch_106">
    <path clip-path="url(#p53ae1eec9d)" d="M 1048.46967 379.124436 
L 1056.096634 379.124436 
L 1056.096634 222.998321 
L 1048.46967 222.998321 
z
" style="fill:#348abd;opacity:0.85;"/>
   </g>
   <g id="patch_107">
    <path clip-path="url(#p53ae1eec9d)" d="M 1058.003375 379.124436 
L 1065.630339 379.124436 
L 1065.630339 229.485473 
L 1058.003375 229.485473 
z
" style="fill:#348abd;opacity:0.85;"/>
   </g>
   <g id="patch_108">
    <path clip-path="url(#p53ae1eec9d)" d="M 1067.53708 379.124436 
L 1075.164045 379.124436 
L 1075.164045 224.661309 
L 1067.53708 224.661309 
z
" style="fill:#348abd;opacity:0.85;"/>
   </g>
   <g id="patch_109">
    <path clip-path="url(#p53ae1eec9d)" d="M 1077.070786 379.124436 
L 1084.69775 379.124436 
L 1084.69775 225.650113 
L 1077.070786 225.650113 
z
" style="fill:#348abd;opacity:0.85;"/>
   </g>
   <g id="patch_110">
    <path clip-path="url(#p53ae1eec9d)" d="M 1086.604491 379.124436 
L 1094.231455 379.124436 
L 1094.231455 270.910356 
L 1086.604491 270.910356 
z
" style="fill:#348abd;opacity:0.85;"/>
   </g>
   <g id="patch_111">
    <path clip-path="url(#p53ae1eec9d)" d="M 1096.138196 379.124436 
L 1103.765161 379.124436 
L 1103.765161 334.16383 
L 1096.138196 334.16383 
z
" style="fill:#348abd;opacity:0.85;"/>
   </g>
   <g id="patch_112">
    <path clip-path="url(#p53ae1eec9d)" d="M 1105.671902 379.124436 
L 1113.298866 379.124436 
L 1113.298866 336.965441 
L 1105.671902 336.965441 
z
" style="fill:#348abd;opacity:0.85;"/>
   </g>
   <g id="patch_113">
    <path clip-path="url(#p53ae1eec9d)" d="M 1115.205607 379.124436 
L 1122.832571 379.124436 
L 1122.832571 336.39613 
L 1115.205607 336.39613 
z
" style="fill:#348abd;opacity:0.85;"/>
   </g>
   <g id="patch_114">
    <path clip-path="url(#p53ae1eec9d)" d="M 1124.739312 379.124436 
L 1132.366277 379.124436 
L 1132.366277 297.518165 
L 1124.739312 297.518165 
z
" style="fill:#348abd;opacity:0.85;"/>
   </g>
   <g id="matplotlib.axis_1">
    <g id="xtick_1">
     <g id="line2d_1">
      <path clip-path="url(#p53ae1eec9d)" d="M 70.3115 379.124436 
L 70.3115 33.247636 
" style="fill:none;stroke:#808080;stroke-dasharray:0.3,0.495;stroke-dashoffset:0;stroke-width:0.3;"/>
     </g>
     <g id="line2d_2">
      <defs>
       <path d="M 0 0 
L 0 3.5 
" id="md764d5606d" style="stroke:#000000;stroke-width:0.8;"/>
      </defs>
      <g>
       <use style="stroke:#000000;stroke-width:0.8;" x="70.3115" xlink:href="#md764d5606d" y="379.124436"/>
      </g>
     </g>
     <g id="text_1">
      <!-- 0 -->
      <defs>
       <path d="M 31.78125 66.40625 
Q 24.171875 66.40625 20.328125 58.90625 
Q 16.5 51.421875 16.5 36.375 
Q 16.5 21.390625 20.328125 13.890625 
Q 24.171875 6.390625 31.78125 6.390625 
Q 39.453125 6.390625 43.28125 13.890625 
Q 47.125 21.390625 47.125 36.375 
Q 47.125 51.421875 43.28125 58.90625 
Q 39.453125 66.40625 31.78125 66.40625 
z
M 31.78125 74.21875 
Q 44.046875 74.21875 50.515625 64.515625 
Q 56.984375 54.828125 56.984375 36.375 
Q 56.984375 17.96875 50.515625 8.265625 
Q 44.046875 -1.421875 31.78125 -1.421875 
Q 19.53125 -1.421875 13.0625 8.265625 
Q 6.59375 17.96875 6.59375 36.375 
Q 6.59375 54.828125 13.0625 64.515625 
Q 19.53125 74.21875 31.78125 74.21875 
z
" id="DejaVuSans-48"/>
      </defs>
      <g transform="translate(66.494 395.242561)scale(0.12 -0.12)">
       <use xlink:href="#DejaVuSans-48"/>
      </g>
     </g>
    </g>
    <g id="xtick_2">
     <g id="line2d_3">
      <path clip-path="url(#p53ae1eec9d)" d="M 260.985607 379.124436 
L 260.985607 33.247636 
" style="fill:none;stroke:#808080;stroke-dasharray:0.3,0.495;stroke-dashoffset:0;stroke-width:0.3;"/>
     </g>
     <g id="line2d_4">
      <g>
       <use style="stroke:#000000;stroke-width:0.8;" x="260.985607" xlink:href="#md764d5606d" y="379.124436"/>
      </g>
     </g>
     <g id="text_2">
      <!-- 20 -->
      <defs>
       <path d="M 19.1875 8.296875 
L 53.609375 8.296875 
L 53.609375 0 
L 7.328125 0 
L 7.328125 8.296875 
Q 12.9375 14.109375 22.625 23.890625 
Q 32.328125 33.6875 34.8125 36.53125 
Q 39.546875 41.84375 41.421875 45.53125 
Q 43.3125 49.21875 43.3125 52.78125 
Q 43.3125 58.59375 39.234375 62.25 
Q 35.15625 65.921875 28.609375 65.921875 
Q 23.96875 65.921875 18.8125 64.3125 
Q 13.671875 62.703125 7.8125 59.421875 
L 7.8125 69.390625 
Q 13.765625 71.78125 18.9375 73 
Q 24.125 74.21875 28.421875 74.21875 
Q 39.75 74.21875 46.484375 68.546875 
Q 53.21875 62.890625 53.21875 53.421875 
Q 53.21875 48.921875 51.53125 44.890625 
Q 49.859375 40.875 45.40625 35.40625 
Q 44.1875 33.984375 37.640625 27.21875 
Q 31.109375 20.453125 19.1875 8.296875 
z
" id="DejaVuSans-50"/>
      </defs>
      <g transform="translate(253.350607 395.242561)scale(0.12 -0.12)">
       <use xlink:href="#DejaVuSans-50"/>
       <use x="63.623047" xlink:href="#DejaVuSans-48"/>
      </g>
     </g>
    </g>
    <g id="xtick_3">
     <g id="line2d_5">
      <path clip-path="url(#p53ae1eec9d)" d="M 451.659714 379.124436 
L 451.659714 33.247636 
" style="fill:none;stroke:#808080;stroke-dasharray:0.3,0.495;stroke-dashoffset:0;stroke-width:0.3;"/>
     </g>
     <g id="line2d_6">
      <g>
       <use style="stroke:#000000;stroke-width:0.8;" x="451.659714" xlink:href="#md764d5606d" y="379.124436"/>
      </g>
     </g>
     <g id="text_3">
      <!-- 40 -->
      <defs>
       <path d="M 37.796875 64.3125 
L 12.890625 25.390625 
L 37.796875 25.390625 
z
M 35.203125 72.90625 
L 47.609375 72.90625 
L 47.609375 25.390625 
L 58.015625 25.390625 
L 58.015625 17.1875 
L 47.609375 17.1875 
L 47.609375 0 
L 37.796875 0 
L 37.796875 17.1875 
L 4.890625 17.1875 
L 4.890625 26.703125 
z
" id="DejaVuSans-52"/>
      </defs>
      <g transform="translate(444.024714 395.242561)scale(0.12 -0.12)">
       <use xlink:href="#DejaVuSans-52"/>
       <use x="63.623047" xlink:href="#DejaVuSans-48"/>
      </g>
     </g>
    </g>
    <g id="xtick_4">
     <g id="line2d_7">
      <path clip-path="url(#p53ae1eec9d)" d="M 642.333821 379.124436 
L 642.333821 33.247636 
" style="fill:none;stroke:#808080;stroke-dasharray:0.3,0.495;stroke-dashoffset:0;stroke-width:0.3;"/>
     </g>
     <g id="line2d_8">
      <g>
       <use style="stroke:#000000;stroke-width:0.8;" x="642.333821" xlink:href="#md764d5606d" y="379.124436"/>
      </g>
     </g>
     <g id="text_4">
      <!-- 60 -->
      <defs>
       <path d="M 33.015625 40.375 
Q 26.375 40.375 22.484375 35.828125 
Q 18.609375 31.296875 18.609375 23.390625 
Q 18.609375 15.53125 22.484375 10.953125 
Q 26.375 6.390625 33.015625 6.390625 
Q 39.65625 6.390625 43.53125 10.953125 
Q 47.40625 15.53125 47.40625 23.390625 
Q 47.40625 31.296875 43.53125 35.828125 
Q 39.65625 40.375 33.015625 40.375 
z
M 52.59375 71.296875 
L 52.59375 62.3125 
Q 48.875 64.0625 45.09375 64.984375 
Q 41.3125 65.921875 37.59375 65.921875 
Q 27.828125 65.921875 22.671875 59.328125 
Q 17.53125 52.734375 16.796875 39.40625 
Q 19.671875 43.65625 24.015625 45.921875 
Q 28.375 48.1875 33.59375 48.1875 
Q 44.578125 48.1875 50.953125 41.515625 
Q 57.328125 34.859375 57.328125 23.390625 
Q 57.328125 12.15625 50.6875 5.359375 
Q 44.046875 -1.421875 33.015625 -1.421875 
Q 20.359375 -1.421875 13.671875 8.265625 
Q 6.984375 17.96875 6.984375 36.375 
Q 6.984375 53.65625 15.1875 63.9375 
Q 23.390625 74.21875 37.203125 74.21875 
Q 40.921875 74.21875 44.703125 73.484375 
Q 48.484375 72.75 52.59375 71.296875 
z
" id="DejaVuSans-54"/>
      </defs>
      <g transform="translate(634.698821 395.242561)scale(0.12 -0.12)">
       <use xlink:href="#DejaVuSans-54"/>
       <use x="63.623047" xlink:href="#DejaVuSans-48"/>
      </g>
     </g>
    </g>
    <g id="xtick_5">
     <g id="line2d_9">
      <path clip-path="url(#p53ae1eec9d)" d="M 833.007929 379.124436 
L 833.007929 33.247636 
" style="fill:none;stroke:#808080;stroke-dasharray:0.3,0.495;stroke-dashoffset:0;stroke-width:0.3;"/>
     </g>
     <g id="line2d_10">
      <g>
       <use style="stroke:#000000;stroke-width:0.8;" x="833.007929" xlink:href="#md764d5606d" y="379.124436"/>
      </g>
     </g>
     <g id="text_5">
      <!-- 80 -->
      <defs>
       <path d="M 31.78125 34.625 
Q 24.75 34.625 20.71875 30.859375 
Q 16.703125 27.09375 16.703125 20.515625 
Q 16.703125 13.921875 20.71875 10.15625 
Q 24.75 6.390625 31.78125 6.390625 
Q 38.8125 6.390625 42.859375 10.171875 
Q 46.921875 13.96875 46.921875 20.515625 
Q 46.921875 27.09375 42.890625 30.859375 
Q 38.875 34.625 31.78125 34.625 
z
M 21.921875 38.8125 
Q 15.578125 40.375 12.03125 44.71875 
Q 8.5 49.078125 8.5 55.328125 
Q 8.5 64.0625 14.71875 69.140625 
Q 20.953125 74.21875 31.78125 74.21875 
Q 42.671875 74.21875 48.875 69.140625 
Q 55.078125 64.0625 55.078125 55.328125 
Q 55.078125 49.078125 51.53125 44.71875 
Q 48 40.375 41.703125 38.8125 
Q 48.828125 37.15625 52.796875 32.3125 
Q 56.78125 27.484375 56.78125 20.515625 
Q 56.78125 9.90625 50.3125 4.234375 
Q 43.84375 -1.421875 31.78125 -1.421875 
Q 19.734375 -1.421875 13.25 4.234375 
Q 6.78125 9.90625 6.78125 20.515625 
Q 6.78125 27.484375 10.78125 32.3125 
Q 14.796875 37.15625 21.921875 38.8125 
z
M 18.3125 54.390625 
Q 18.3125 48.734375 21.84375 45.5625 
Q 25.390625 42.390625 31.78125 42.390625 
Q 38.140625 42.390625 41.71875 45.5625 
Q 45.3125 48.734375 45.3125 54.390625 
Q 45.3125 60.0625 41.71875 63.234375 
Q 38.140625 66.40625 31.78125 66.40625 
Q 25.390625 66.40625 21.84375 63.234375 
Q 18.3125 60.0625 18.3125 54.390625 
z
" id="DejaVuSans-56"/>
      </defs>
      <g transform="translate(825.372929 395.242561)scale(0.12 -0.12)">
       <use xlink:href="#DejaVuSans-56"/>
       <use x="63.623047" xlink:href="#DejaVuSans-48"/>
      </g>
     </g>
    </g>
    <g id="xtick_6">
     <g id="line2d_11">
      <path clip-path="url(#p53ae1eec9d)" d="M 1023.682036 379.124436 
L 1023.682036 33.247636 
" style="fill:none;stroke:#808080;stroke-dasharray:0.3,0.495;stroke-dashoffset:0;stroke-width:0.3;"/>
     </g>
     <g id="line2d_12">
      <g>
       <use style="stroke:#000000;stroke-width:0.8;" x="1023.682036" xlink:href="#md764d5606d" y="379.124436"/>
      </g>
     </g>
     <g id="text_6">
      <!-- 100 -->
      <defs>
       <path d="M 12.40625 8.296875 
L 28.515625 8.296875 
L 28.515625 63.921875 
L 10.984375 60.40625 
L 10.984375 69.390625 
L 28.421875 72.90625 
L 38.28125 72.90625 
L 38.28125 8.296875 
L 54.390625 8.296875 
L 54.390625 0 
L 12.40625 0 
z
" id="DejaVuSans-49"/>
      </defs>
      <g transform="translate(1012.229536 395.242561)scale(0.12 -0.12)">
       <use xlink:href="#DejaVuSans-49"/>
       <use x="63.623047" xlink:href="#DejaVuSans-48"/>
       <use x="127.246094" xlink:href="#DejaVuSans-48"/>
      </g>
     </g>
    </g>
    <g id="text_7">
     <!-- Time (in hours) -->
     <defs>
      <path d="M -0.296875 72.90625 
L 61.375 72.90625 
L 61.375 64.59375 
L 35.5 64.59375 
L 35.5 0 
L 25.59375 0 
L 25.59375 64.59375 
L -0.296875 64.59375 
z
" id="DejaVuSans-84"/>
      <path d="M 9.421875 54.6875 
L 18.40625 54.6875 
L 18.40625 0 
L 9.421875 0 
z
M 9.421875 75.984375 
L 18.40625 75.984375 
L 18.40625 64.59375 
L 9.421875 64.59375 
z
" id="DejaVuSans-105"/>
      <path d="M 52 44.1875 
Q 55.375 50.25 60.0625 53.125 
Q 64.75 56 71.09375 56 
Q 79.640625 56 84.28125 50.015625 
Q 88.921875 44.046875 88.921875 33.015625 
L 88.921875 0 
L 79.890625 0 
L 79.890625 32.71875 
Q 79.890625 40.578125 77.09375 44.375 
Q 74.3125 48.1875 68.609375 48.1875 
Q 61.625 48.1875 57.5625 43.546875 
Q 53.515625 38.921875 53.515625 30.90625 
L 53.515625 0 
L 44.484375 0 
L 44.484375 32.71875 
Q 44.484375 40.625 41.703125 44.40625 
Q 38.921875 48.1875 33.109375 48.1875 
Q 26.21875 48.1875 22.15625 43.53125 
Q 18.109375 38.875 18.109375 30.90625 
L 18.109375 0 
L 9.078125 0 
L 9.078125 54.6875 
L 18.109375 54.6875 
L 18.109375 46.1875 
Q 21.1875 51.21875 25.484375 53.609375 
Q 29.78125 56 35.6875 56 
Q 41.65625 56 45.828125 52.96875 
Q 50 49.953125 52 44.1875 
z
" id="DejaVuSans-109"/>
      <path d="M 56.203125 29.59375 
L 56.203125 25.203125 
L 14.890625 25.203125 
Q 15.484375 15.921875 20.484375 11.0625 
Q 25.484375 6.203125 34.421875 6.203125 
Q 39.59375 6.203125 44.453125 7.46875 
Q 49.3125 8.734375 54.109375 11.28125 
L 54.109375 2.78125 
Q 49.265625 0.734375 44.1875 -0.34375 
Q 39.109375 -1.421875 33.890625 -1.421875 
Q 20.796875 -1.421875 13.15625 6.1875 
Q 5.515625 13.8125 5.515625 26.8125 
Q 5.515625 40.234375 12.765625 48.109375 
Q 20.015625 56 32.328125 56 
Q 43.359375 56 49.78125 48.890625 
Q 56.203125 41.796875 56.203125 29.59375 
z
M 47.21875 32.234375 
Q 47.125 39.59375 43.09375 43.984375 
Q 39.0625 48.390625 32.421875 48.390625 
Q 24.90625 48.390625 20.390625 44.140625 
Q 15.875 39.890625 15.1875 32.171875 
z
" id="DejaVuSans-101"/>
      <path id="DejaVuSans-32"/>
      <path d="M 31 75.875 
Q 24.46875 64.65625 21.28125 53.65625 
Q 18.109375 42.671875 18.109375 31.390625 
Q 18.109375 20.125 21.3125 9.0625 
Q 24.515625 -2 31 -13.1875 
L 23.1875 -13.1875 
Q 15.875 -1.703125 12.234375 9.375 
Q 8.59375 20.453125 8.59375 31.390625 
Q 8.59375 42.28125 12.203125 53.3125 
Q 15.828125 64.359375 23.1875 75.875 
z
" id="DejaVuSans-40"/>
      <path d="M 54.890625 33.015625 
L 54.890625 0 
L 45.90625 0 
L 45.90625 32.71875 
Q 45.90625 40.484375 42.875 44.328125 
Q 39.84375 48.1875 33.796875 48.1875 
Q 26.515625 48.1875 22.3125 43.546875 
Q 18.109375 38.921875 18.109375 30.90625 
L 18.109375 0 
L 9.078125 0 
L 9.078125 54.6875 
L 18.109375 54.6875 
L 18.109375 46.1875 
Q 21.34375 51.125 25.703125 53.5625 
Q 30.078125 56 35.796875 56 
Q 45.21875 56 50.046875 50.171875 
Q 54.890625 44.34375 54.890625 33.015625 
z
" id="DejaVuSans-110"/>
      <path d="M 54.890625 33.015625 
L 54.890625 0 
L 45.90625 0 
L 45.90625 32.71875 
Q 45.90625 40.484375 42.875 44.328125 
Q 39.84375 48.1875 33.796875 48.1875 
Q 26.515625 48.1875 22.3125 43.546875 
Q 18.109375 38.921875 18.109375 30.90625 
L 18.109375 0 
L 9.078125 0 
L 9.078125 75.984375 
L 18.109375 75.984375 
L 18.109375 46.1875 
Q 21.34375 51.125 25.703125 53.5625 
Q 30.078125 56 35.796875 56 
Q 45.21875 56 50.046875 50.171875 
Q 54.890625 44.34375 54.890625 33.015625 
z
" id="DejaVuSans-104"/>
      <path d="M 30.609375 48.390625 
Q 23.390625 48.390625 19.1875 42.75 
Q 14.984375 37.109375 14.984375 27.296875 
Q 14.984375 17.484375 19.15625 11.84375 
Q 23.34375 6.203125 30.609375 6.203125 
Q 37.796875 6.203125 41.984375 11.859375 
Q 46.1875 17.53125 46.1875 27.296875 
Q 46.1875 37.015625 41.984375 42.703125 
Q 37.796875 48.390625 30.609375 48.390625 
z
M 30.609375 56 
Q 42.328125 56 49.015625 48.375 
Q 55.71875 40.765625 55.71875 27.296875 
Q 55.71875 13.875 49.015625 6.21875 
Q 42.328125 -1.421875 30.609375 -1.421875 
Q 18.84375 -1.421875 12.171875 6.21875 
Q 5.515625 13.875 5.515625 27.296875 
Q 5.515625 40.765625 12.171875 48.375 
Q 18.84375 56 30.609375 56 
z
" id="DejaVuSans-111"/>
      <path d="M 8.5 21.578125 
L 8.5 54.6875 
L 17.484375 54.6875 
L 17.484375 21.921875 
Q 17.484375 14.15625 20.5 10.265625 
Q 23.53125 6.390625 29.59375 6.390625 
Q 36.859375 6.390625 41.078125 11.03125 
Q 45.3125 15.671875 45.3125 23.6875 
L 45.3125 54.6875 
L 54.296875 54.6875 
L 54.296875 0 
L 45.3125 0 
L 45.3125 8.40625 
Q 42.046875 3.421875 37.71875 1 
Q 33.40625 -1.421875 27.6875 -1.421875 
Q 18.265625 -1.421875 13.375 4.4375 
Q 8.5 10.296875 8.5 21.578125 
z
M 31.109375 56 
z
" id="DejaVuSans-117"/>
      <path d="M 41.109375 46.296875 
Q 39.59375 47.171875 37.8125 47.578125 
Q 36.03125 48 33.890625 48 
Q 26.265625 48 22.1875 43.046875 
Q 18.109375 38.09375 18.109375 28.8125 
L 18.109375 0 
L 9.078125 0 
L 9.078125 54.6875 
L 18.109375 54.6875 
L 18.109375 46.1875 
Q 20.953125 51.171875 25.484375 53.578125 
Q 30.03125 56 36.53125 56 
Q 37.453125 56 38.578125 55.875 
Q 39.703125 55.765625 41.0625 55.515625 
z
" id="DejaVuSans-114"/>
      <path d="M 44.28125 53.078125 
L 44.28125 44.578125 
Q 40.484375 46.53125 36.375 47.5 
Q 32.28125 48.484375 27.875 48.484375 
Q 21.1875 48.484375 17.84375 46.4375 
Q 14.5 44.390625 14.5 40.28125 
Q 14.5 37.15625 16.890625 35.375 
Q 19.28125 33.59375 26.515625 31.984375 
L 29.59375 31.296875 
Q 39.15625 29.25 43.1875 25.515625 
Q 47.21875 21.78125 47.21875 15.09375 
Q 47.21875 7.46875 41.1875 3.015625 
Q 35.15625 -1.421875 24.609375 -1.421875 
Q 20.21875 -1.421875 15.453125 -0.5625 
Q 10.6875 0.296875 5.421875 2 
L 5.421875 11.28125 
Q 10.40625 8.6875 15.234375 7.390625 
Q 20.0625 6.109375 24.8125 6.109375 
Q 31.15625 6.109375 34.5625 8.28125 
Q 37.984375 10.453125 37.984375 14.40625 
Q 37.984375 18.0625 35.515625 20.015625 
Q 33.0625 21.96875 24.703125 23.78125 
L 21.578125 24.515625 
Q 13.234375 26.265625 9.515625 29.90625 
Q 5.8125 33.546875 5.8125 39.890625 
Q 5.8125 47.609375 11.28125 51.796875 
Q 16.75 56 26.8125 56 
Q 31.78125 56 36.171875 55.265625 
Q 40.578125 54.546875 44.28125 53.078125 
z
" id="DejaVuSans-115"/>
      <path d="M 8.015625 75.875 
L 15.828125 75.875 
Q 23.140625 64.359375 26.78125 53.3125 
Q 30.421875 42.28125 30.421875 31.390625 
Q 30.421875 20.453125 26.78125 9.375 
Q 23.140625 -1.703125 15.828125 -13.1875 
L 8.015625 -13.1875 
Q 14.5 -2 17.703125 9.0625 
Q 20.90625 20.125 20.90625 31.390625 
Q 20.90625 42.671875 17.703125 53.65625 
Q 14.5 64.65625 8.015625 75.875 
z
" id="DejaVuSans-41"/>
     </defs>
     <g transform="translate(549.360875 412.679936)scale(0.144 -0.144)">
      <use xlink:href="#DejaVuSans-84"/>
      <use x="61.037109" xlink:href="#DejaVuSans-105"/>
      <use x="88.820312" xlink:href="#DejaVuSans-109"/>
      <use x="186.232422" xlink:href="#DejaVuSans-101"/>
      <use x="247.755859" xlink:href="#DejaVuSans-32"/>
      <use x="279.542969" xlink:href="#DejaVuSans-40"/>
      <use x="318.556641" xlink:href="#DejaVuSans-105"/>
      <use x="346.339844" xlink:href="#DejaVuSans-110"/>
      <use x="409.71875" xlink:href="#DejaVuSans-32"/>
      <use x="441.505859" xlink:href="#DejaVuSans-104"/>
      <use x="504.884766" xlink:href="#DejaVuSans-111"/>
      <use x="566.066406" xlink:href="#DejaVuSans-117"/>
      <use x="629.445312" xlink:href="#DejaVuSans-114"/>
      <use x="670.558594" xlink:href="#DejaVuSans-115"/>
      <use x="722.658203" xlink:href="#DejaVuSans-41"/>
     </g>
    </g>
   </g>
   <g id="matplotlib.axis_2">
    <g id="ytick_1">
     <g id="line2d_13">
      <path clip-path="url(#p53ae1eec9d)" d="M 70.3115 379.124436 
L 1138.0865 379.124436 
" style="fill:none;stroke:#808080;stroke-dasharray:0.3,0.495;stroke-dashoffset:0;stroke-width:0.3;"/>
     </g>
     <g id="line2d_14">
      <defs>
       <path d="M 0 0 
L -3.5 0 
" id="m191a515313" style="stroke:#000000;stroke-width:0.8;"/>
      </defs>
      <g>
       <use style="stroke:#000000;stroke-width:0.8;" x="70.3115" xlink:href="#m191a515313" y="379.124436"/>
      </g>
     </g>
     <g id="text_8">
      <!-- 0 -->
      <g transform="translate(55.6765 383.683498)scale(0.12 -0.12)">
       <use xlink:href="#DejaVuSans-48"/>
      </g>
     </g>
    </g>
    <g id="ytick_2">
     <g id="line2d_15">
      <path clip-path="url(#p53ae1eec9d)" d="M 70.3115 304.215063 
L 1138.0865 304.215063 
" style="fill:none;stroke:#808080;stroke-dasharray:0.3,0.495;stroke-dashoffset:0;stroke-width:0.3;"/>
     </g>
     <g id="line2d_16">
      <g>
       <use style="stroke:#000000;stroke-width:0.8;" x="70.3115" xlink:href="#m191a515313" y="304.215063"/>
      </g>
     </g>
     <g id="text_9">
      <!-- 5000 -->
      <defs>
       <path d="M 10.796875 72.90625 
L 49.515625 72.90625 
L 49.515625 64.59375 
L 19.828125 64.59375 
L 19.828125 46.734375 
Q 21.96875 47.46875 24.109375 47.828125 
Q 26.265625 48.1875 28.421875 48.1875 
Q 40.625 48.1875 47.75 41.5 
Q 54.890625 34.8125 54.890625 23.390625 
Q 54.890625 11.625 47.5625 5.09375 
Q 40.234375 -1.421875 26.90625 -1.421875 
Q 22.3125 -1.421875 17.546875 -0.640625 
Q 12.796875 0.140625 7.71875 1.703125 
L 7.71875 11.625 
Q 12.109375 9.234375 16.796875 8.0625 
Q 21.484375 6.890625 26.703125 6.890625 
Q 35.15625 6.890625 40.078125 11.328125 
Q 45.015625 15.765625 45.015625 23.390625 
Q 45.015625 31 40.078125 35.4375 
Q 35.15625 39.890625 26.703125 39.890625 
Q 22.75 39.890625 18.8125 39.015625 
Q 14.890625 38.140625 10.796875 36.28125 
z
" id="DejaVuSans-53"/>
      </defs>
      <g transform="translate(32.7715 308.774126)scale(0.12 -0.12)">
       <use xlink:href="#DejaVuSans-53"/>
       <use x="63.623047" xlink:href="#DejaVuSans-48"/>
       <use x="127.246094" xlink:href="#DejaVuSans-48"/>
       <use x="190.869141" xlink:href="#DejaVuSans-48"/>
      </g>
     </g>
    </g>
    <g id="ytick_3">
     <g id="line2d_17">
      <path clip-path="url(#p53ae1eec9d)" d="M 70.3115 229.30569 
L 1138.0865 229.30569 
" style="fill:none;stroke:#808080;stroke-dasharray:0.3,0.495;stroke-dashoffset:0;stroke-width:0.3;"/>
     </g>
     <g id="line2d_18">
      <g>
       <use style="stroke:#000000;stroke-width:0.8;" x="70.3115" xlink:href="#m191a515313" y="229.30569"/>
      </g>
     </g>
     <g id="text_10">
      <!-- 10000 -->
      <g transform="translate(25.1365 233.864753)scale(0.12 -0.12)">
       <use xlink:href="#DejaVuSans-49"/>
       <use x="63.623047" xlink:href="#DejaVuSans-48"/>
       <use x="127.246094" xlink:href="#DejaVuSans-48"/>
       <use x="190.869141" xlink:href="#DejaVuSans-48"/>
       <use x="254.492188" xlink:href="#DejaVuSans-48"/>
      </g>
     </g>
    </g>
    <g id="ytick_4">
     <g id="line2d_19">
      <path clip-path="url(#p53ae1eec9d)" d="M 70.3115 154.396317 
L 1138.0865 154.396317 
" style="fill:none;stroke:#808080;stroke-dasharray:0.3,0.495;stroke-dashoffset:0;stroke-width:0.3;"/>
     </g>
     <g id="line2d_20">
      <g>
       <use style="stroke:#000000;stroke-width:0.8;" x="70.3115" xlink:href="#m191a515313" y="154.396317"/>
      </g>
     </g>
     <g id="text_11">
      <!-- 15000 -->
      <g transform="translate(25.1365 158.95538)scale(0.12 -0.12)">
       <use xlink:href="#DejaVuSans-49"/>
       <use x="63.623047" xlink:href="#DejaVuSans-53"/>
       <use x="127.246094" xlink:href="#DejaVuSans-48"/>
       <use x="190.869141" xlink:href="#DejaVuSans-48"/>
       <use x="254.492188" xlink:href="#DejaVuSans-48"/>
      </g>
     </g>
    </g>
    <g id="ytick_5">
     <g id="line2d_21">
      <path clip-path="url(#p53ae1eec9d)" d="M 70.3115 79.486945 
L 1138.0865 79.486945 
" style="fill:none;stroke:#808080;stroke-dasharray:0.3,0.495;stroke-dashoffset:0;stroke-width:0.3;"/>
     </g>
     <g id="line2d_22">
      <g>
       <use style="stroke:#000000;stroke-width:0.8;" x="70.3115" xlink:href="#m191a515313" y="79.486945"/>
      </g>
     </g>
     <g id="text_12">
      <!-- 20000 -->
      <g transform="translate(25.1365 84.046007)scale(0.12 -0.12)">
       <use xlink:href="#DejaVuSans-50"/>
       <use x="63.623047" xlink:href="#DejaVuSans-48"/>
       <use x="127.246094" xlink:href="#DejaVuSans-48"/>
       <use x="190.869141" xlink:href="#DejaVuSans-48"/>
       <use x="254.492188" xlink:href="#DejaVuSans-48"/>
      </g>
     </g>
    </g>
    <g id="text_13">
     <!-- Energy [Wh] -->
     <defs>
      <path d="M 9.8125 72.90625 
L 55.90625 72.90625 
L 55.90625 64.59375 
L 19.671875 64.59375 
L 19.671875 43.015625 
L 54.390625 43.015625 
L 54.390625 34.71875 
L 19.671875 34.71875 
L 19.671875 8.296875 
L 56.78125 8.296875 
L 56.78125 0 
L 9.8125 0 
z
" id="DejaVuSans-69"/>
      <path d="M 45.40625 27.984375 
Q 45.40625 37.75 41.375 43.109375 
Q 37.359375 48.484375 30.078125 48.484375 
Q 22.859375 48.484375 18.828125 43.109375 
Q 14.796875 37.75 14.796875 27.984375 
Q 14.796875 18.265625 18.828125 12.890625 
Q 22.859375 7.515625 30.078125 7.515625 
Q 37.359375 7.515625 41.375 12.890625 
Q 45.40625 18.265625 45.40625 27.984375 
z
M 54.390625 6.78125 
Q 54.390625 -7.171875 48.1875 -13.984375 
Q 42 -20.796875 29.203125 -20.796875 
Q 24.46875 -20.796875 20.265625 -20.09375 
Q 16.0625 -19.390625 12.109375 -17.921875 
L 12.109375 -9.1875 
Q 16.0625 -11.328125 19.921875 -12.34375 
Q 23.78125 -13.375 27.78125 -13.375 
Q 36.625 -13.375 41.015625 -8.765625 
Q 45.40625 -4.15625 45.40625 5.171875 
L 45.40625 9.625 
Q 42.625 4.78125 38.28125 2.390625 
Q 33.9375 0 27.875 0 
Q 17.828125 0 11.671875 7.65625 
Q 5.515625 15.328125 5.515625 27.984375 
Q 5.515625 40.671875 11.671875 48.328125 
Q 17.828125 56 27.875 56 
Q 33.9375 56 38.28125 53.609375 
Q 42.625 51.21875 45.40625 46.390625 
L 45.40625 54.6875 
L 54.390625 54.6875 
z
" id="DejaVuSans-103"/>
      <path d="M 32.171875 -5.078125 
Q 28.375 -14.84375 24.75 -17.8125 
Q 21.140625 -20.796875 15.09375 -20.796875 
L 7.90625 -20.796875 
L 7.90625 -13.28125 
L 13.1875 -13.28125 
Q 16.890625 -13.28125 18.9375 -11.515625 
Q 21 -9.765625 23.484375 -3.21875 
L 25.09375 0.875 
L 2.984375 54.6875 
L 12.5 54.6875 
L 29.59375 11.921875 
L 46.6875 54.6875 
L 56.203125 54.6875 
z
" id="DejaVuSans-121"/>
      <path d="M 8.59375 75.984375 
L 29.296875 75.984375 
L 29.296875 69 
L 17.578125 69 
L 17.578125 -6.203125 
L 29.296875 -6.203125 
L 29.296875 -13.1875 
L 8.59375 -13.1875 
z
" id="DejaVuSans-91"/>
      <path d="M 3.328125 72.90625 
L 13.28125 72.90625 
L 28.609375 11.28125 
L 43.890625 72.90625 
L 54.984375 72.90625 
L 70.3125 11.28125 
L 85.59375 72.90625 
L 95.609375 72.90625 
L 77.296875 0 
L 64.890625 0 
L 49.515625 63.28125 
L 33.984375 0 
L 21.578125 0 
z
" id="DejaVuSans-87"/>
      <path d="M 30.421875 75.984375 
L 30.421875 -13.1875 
L 9.71875 -13.1875 
L 9.71875 -6.203125 
L 21.390625 -6.203125 
L 21.390625 69 
L 9.71875 69 
L 9.71875 75.984375 
z
" id="DejaVuSans-93"/>
     </defs>
     <g transform="translate(18.14175 251.108411)rotate(-90)scale(0.144 -0.144)">
      <use xlink:href="#DejaVuSans-69"/>
      <use x="63.183594" xlink:href="#DejaVuSans-110"/>
      <use x="126.5625" xlink:href="#DejaVuSans-101"/>
      <use x="188.085938" xlink:href="#DejaVuSans-114"/>
      <use x="229.183594" xlink:href="#DejaVuSans-103"/>
      <use x="292.660156" xlink:href="#DejaVuSans-121"/>
      <use x="351.839844" xlink:href="#DejaVuSans-32"/>
      <use x="383.626953" xlink:href="#DejaVuSans-91"/>
      <use x="422.640625" xlink:href="#DejaVuSans-87"/>
      <use x="521.517578" xlink:href="#DejaVuSans-104"/>
      <use x="584.896484" xlink:href="#DejaVuSans-93"/>
     </g>
    </g>
   </g>
   <g id="line2d_23">
    <path clip-path="url(#p53ae1eec9d)" d="M 70.3115 167.824094 
L 79.845205 167.824094 
L 89.378911 167.824094 
L 98.912616 167.824094 
L 108.446321 167.824094 
L 117.980027 167.824094 
L 127.513732 167.824094 
L 137.047438 167.824094 
L 146.581143 167.824094 
L 156.114848 167.824094 
L 165.648554 167.824094 
L 175.182259 167.824094 
L 184.715964 167.824094 
L 194.24967 167.824094 
L 203.783375 167.824094 
L 213.31708 167.824094 
L 222.850786 167.824094 
L 232.384491 167.824094 
L 241.918196 167.824094 
L 251.451902 167.824094 
L 260.985607 167.824094 
L 270.519312 167.824094 
L 280.053018 167.824094 
L 289.586723 167.824094 
L 299.120429 167.824094 
L 308.654134 167.824094 
L 318.187839 167.824094 
L 327.721545 167.824094 
L 337.25525 167.824094 
L 346.788955 167.824094 
L 356.322661 167.824094 
L 365.856366 167.824094 
L 375.390071 167.824094 
L 384.923777 167.824094 
L 394.457482 167.824094 
L 403.991188 167.824094 
L 413.524893 167.824094 
L 423.058598 167.824094 
L 432.592304 167.824094 
L 442.126009 167.824094 
L 451.659714 167.824094 
L 461.19342 167.824094 
L 470.727125 167.824094 
L 480.26083 167.824094 
L 489.794536 167.824094 
L 499.328241 167.824094 
L 508.861946 167.824094 
L 518.395652 167.824094 
L 527.929357 167.824094 
L 537.463062 167.824094 
L 546.996768 167.824094 
L 556.530473 167.824094 
L 566.064179 167.824094 
L 575.597884 167.824094 
L 585.131589 167.824094 
L 594.665295 167.824094 
L 604.199 167.824094 
L 613.732705 167.824094 
L 623.266411 167.824094 
L 632.800116 167.824094 
L 642.333821 167.824094 
L 651.867527 167.824094 
L 661.401232 167.824094 
L 670.934938 250.669624 
L 680.468643 250.669624 
L 690.002348 250.669624 
L 699.536054 250.669624 
L 709.069759 250.669624 
L 718.603464 250.669624 
L 728.13717 250.669624 
L 737.670875 250.669624 
L 747.20458 250.669624 
L 756.738286 250.669624 
L 766.271991 250.669624 
L 775.805696 250.669624 
L 785.339402 250.669624 
L 794.873107 250.669624 
L 804.406813 250.669624 
L 813.940518 250.669624 
L 823.474223 250.669624 
L 833.007929 250.669624 
L 842.541634 250.669624 
L 852.075339 250.669624 
L 861.609045 250.669624 
L 871.14275 250.669624 
L 880.676455 250.669624 
L 890.210161 250.669624 
L 899.743866 250.669624 
L 909.277571 250.669624 
L 918.811277 250.669624 
L 928.344982 250.669624 
L 937.878687 250.669624 
L 947.412393 250.669624 
L 956.946098 250.669624 
L 966.479804 250.669624 
L 976.013509 250.669624 
L 985.547214 250.669624 
L 995.08092 250.669624 
L 1004.614625 250.669624 
L 1014.14833 250.669624 
L 1023.682036 250.669624 
L 1033.215741 250.669624 
L 1042.749446 250.669624 
L 1052.283152 250.669624 
L 1061.816857 250.669624 
L 1071.350563 250.669624 
L 1080.884268 250.669624 
L 1090.417973 250.669624 
L 1099.951679 250.669624 
L 1109.485384 250.669624 
L 1119.019089 250.669624 
L 1128.552795 250.669624 
" style="fill:none;stroke:#e24a33;stroke-linecap:square;stroke-opacity:0.95;stroke-width:4;"/>
   </g>
   <g id="line2d_24">
    <path clip-path="url(#p53ae1eec9d)" d="M 670.934938 379.124436 
L 670.934938 33.247636 
" style="fill:none;stroke:#000000;stroke-dasharray:4,6.6;stroke-dashoffset:0;stroke-width:4;"/>
   </g>
   <g id="patch_115">
    <path d="M 70.3115 379.124436 
L 70.3115 33.247636 
" style="fill:none;stroke:#000000;stroke-linecap:square;stroke-linejoin:miter;stroke-width:0.8;"/>
   </g>
   <g id="patch_116">
    <path d="M 1138.0865 379.124436 
L 1138.0865 33.247636 
" style="fill:none;stroke:#000000;stroke-linecap:square;stroke-linejoin:miter;stroke-width:0.8;"/>
   </g>
   <g id="patch_117">
    <path d="M 70.3115 379.124436 
L 1138.0865 379.124436 
" style="fill:none;stroke:#000000;stroke-linecap:square;stroke-linejoin:miter;stroke-width:0.8;"/>
   </g>
   <g id="patch_118">
    <path d="M 70.3115 33.247636 
L 1138.0865 33.247636 
" style="fill:none;stroke:#000000;stroke-linecap:square;stroke-linejoin:miter;stroke-width:0.8;"/>
   </g>
   <g id="text_14">
    <!-- 19-Mar-2020, 23:00 -->
    <defs>
     <path d="M 10.984375 1.515625 
L 10.984375 10.5 
Q 14.703125 8.734375 18.5 7.8125 
Q 22.3125 6.890625 25.984375 6.890625 
Q 35.75 6.890625 40.890625 13.453125 
Q 46.046875 20.015625 46.78125 33.40625 
Q 43.953125 29.203125 39.59375 26.953125 
Q 35.25 24.703125 29.984375 24.703125 
Q 19.046875 24.703125 12.671875 31.3125 
Q 6.296875 37.9375 6.296875 49.421875 
Q 6.296875 60.640625 12.9375 67.421875 
Q 19.578125 74.21875 30.609375 74.21875 
Q 43.265625 74.21875 49.921875 64.515625 
Q 56.59375 54.828125 56.59375 36.375 
Q 56.59375 19.140625 48.40625 8.859375 
Q 40.234375 -1.421875 26.421875 -1.421875 
Q 22.703125 -1.421875 18.890625 -0.6875 
Q 15.09375 0.046875 10.984375 1.515625 
z
M 30.609375 32.421875 
Q 37.25 32.421875 41.125 36.953125 
Q 45.015625 41.5 45.015625 49.421875 
Q 45.015625 57.28125 41.125 61.84375 
Q 37.25 66.40625 30.609375 66.40625 
Q 23.96875 66.40625 20.09375 61.84375 
Q 16.21875 57.28125 16.21875 49.421875 
Q 16.21875 41.5 20.09375 36.953125 
Q 23.96875 32.421875 30.609375 32.421875 
z
" id="DejaVuSans-57"/>
     <path d="M 4.890625 31.390625 
L 31.203125 31.390625 
L 31.203125 23.390625 
L 4.890625 23.390625 
z
" id="DejaVuSans-45"/>
     <path d="M 9.8125 72.90625 
L 24.515625 72.90625 
L 43.109375 23.296875 
L 61.8125 72.90625 
L 76.515625 72.90625 
L 76.515625 0 
L 66.890625 0 
L 66.890625 64.015625 
L 48.09375 14.015625 
L 38.1875 14.015625 
L 19.390625 64.015625 
L 19.390625 0 
L 9.8125 0 
z
" id="DejaVuSans-77"/>
     <path d="M 34.28125 27.484375 
Q 23.390625 27.484375 19.1875 25 
Q 14.984375 22.515625 14.984375 16.5 
Q 14.984375 11.71875 18.140625 8.90625 
Q 21.296875 6.109375 26.703125 6.109375 
Q 34.1875 6.109375 38.703125 11.40625 
Q 43.21875 16.703125 43.21875 25.484375 
L 43.21875 27.484375 
z
M 52.203125 31.203125 
L 52.203125 0 
L 43.21875 0 
L 43.21875 8.296875 
Q 40.140625 3.328125 35.546875 0.953125 
Q 30.953125 -1.421875 24.3125 -1.421875 
Q 15.921875 -1.421875 10.953125 3.296875 
Q 6 8.015625 6 15.921875 
Q 6 25.140625 12.171875 29.828125 
Q 18.359375 34.515625 30.609375 34.515625 
L 43.21875 34.515625 
L 43.21875 35.40625 
Q 43.21875 41.609375 39.140625 45 
Q 35.0625 48.390625 27.6875 48.390625 
Q 23 48.390625 18.546875 47.265625 
Q 14.109375 46.140625 10.015625 43.890625 
L 10.015625 52.203125 
Q 14.9375 54.109375 19.578125 55.046875 
Q 24.21875 56 28.609375 56 
Q 40.484375 56 46.34375 49.84375 
Q 52.203125 43.703125 52.203125 31.203125 
z
" id="DejaVuSans-97"/>
     <path d="M 11.71875 12.40625 
L 22.015625 12.40625 
L 22.015625 4 
L 14.015625 -11.625 
L 7.71875 -11.625 
L 11.71875 4 
z
" id="DejaVuSans-44"/>
     <path d="M 40.578125 39.3125 
Q 47.65625 37.796875 51.625 33 
Q 55.609375 28.21875 55.609375 21.1875 
Q 55.609375 10.40625 48.1875 4.484375 
Q 40.765625 -1.421875 27.09375 -1.421875 
Q 22.515625 -1.421875 17.65625 -0.515625 
Q 12.796875 0.390625 7.625 2.203125 
L 7.625 11.71875 
Q 11.71875 9.328125 16.59375 8.109375 
Q 21.484375 6.890625 26.8125 6.890625 
Q 36.078125 6.890625 40.9375 10.546875 
Q 45.796875 14.203125 45.796875 21.1875 
Q 45.796875 27.640625 41.28125 31.265625 
Q 36.765625 34.90625 28.71875 34.90625 
L 20.21875 34.90625 
L 20.21875 43.015625 
L 29.109375 43.015625 
Q 36.375 43.015625 40.234375 45.921875 
Q 44.09375 48.828125 44.09375 54.296875 
Q 44.09375 59.90625 40.109375 62.90625 
Q 36.140625 65.921875 28.71875 65.921875 
Q 24.65625 65.921875 20.015625 65.03125 
Q 15.375 64.15625 9.8125 62.3125 
L 9.8125 71.09375 
Q 15.4375 72.65625 20.34375 73.4375 
Q 25.25 74.21875 29.59375 74.21875 
Q 40.828125 74.21875 47.359375 69.109375 
Q 53.90625 64.015625 53.90625 55.328125 
Q 53.90625 49.265625 50.4375 45.09375 
Q 46.96875 40.921875 40.578125 39.3125 
z
" id="DejaVuSans-51"/>
     <path d="M 11.71875 12.40625 
L 22.015625 12.40625 
L 22.015625 0 
L 11.71875 0 
z
M 11.71875 51.703125 
L 22.015625 51.703125 
L 22.015625 39.3125 
L 11.71875 39.3125 
z
" id="DejaVuSans-58"/>
    </defs>
    <g transform="translate(499.328241 71.996007)scale(0.16 -0.16)">
     <use xlink:href="#DejaVuSans-49"/>
     <use x="63.623047" xlink:href="#DejaVuSans-57"/>
     <use x="127.246094" xlink:href="#DejaVuSans-45"/>
     <use x="163.330078" xlink:href="#DejaVuSans-77"/>
     <use x="249.609375" xlink:href="#DejaVuSans-97"/>
     <use x="310.888672" xlink:href="#DejaVuSans-114"/>
     <use x="351.908203" xlink:href="#DejaVuSans-45"/>
     <use x="387.992188" xlink:href="#DejaVuSans-50"/>
     <use x="451.615234" xlink:href="#DejaVuSans-48"/>
     <use x="515.238281" xlink:href="#DejaVuSans-50"/>
     <use x="578.861328" xlink:href="#DejaVuSans-48"/>
     <use x="642.484375" xlink:href="#DejaVuSans-44"/>
     <use x="674.271484" xlink:href="#DejaVuSans-32"/>
     <use x="706.058594" xlink:href="#DejaVuSans-50"/>
     <use x="769.681641" xlink:href="#DejaVuSans-51"/>
     <use x="833.304688" xlink:href="#DejaVuSans-58"/>
     <use x="866.996094" xlink:href="#DejaVuSans-48"/>
     <use x="930.619141" xlink:href="#DejaVuSans-48"/>
    </g>
   </g>
   <g id="text_15">
    <!-- Expected energy consumption (main income 1F, KFC Kota Kemuning) -->
    <defs>
     <path d="M 54.890625 54.6875 
L 35.109375 28.078125 
L 55.90625 0 
L 45.3125 0 
L 29.390625 21.484375 
L 13.484375 0 
L 2.875 0 
L 24.125 28.609375 
L 4.6875 54.6875 
L 15.28125 54.6875 
L 29.78125 35.203125 
L 44.28125 54.6875 
z
" id="DejaVuSans-120"/>
     <path d="M 18.109375 8.203125 
L 18.109375 -20.796875 
L 9.078125 -20.796875 
L 9.078125 54.6875 
L 18.109375 54.6875 
L 18.109375 46.390625 
Q 20.953125 51.265625 25.265625 53.625 
Q 29.59375 56 35.59375 56 
Q 45.5625 56 51.78125 48.09375 
Q 58.015625 40.1875 58.015625 27.296875 
Q 58.015625 14.40625 51.78125 6.484375 
Q 45.5625 -1.421875 35.59375 -1.421875 
Q 29.59375 -1.421875 25.265625 0.953125 
Q 20.953125 3.328125 18.109375 8.203125 
z
M 48.6875 27.296875 
Q 48.6875 37.203125 44.609375 42.84375 
Q 40.53125 48.484375 33.40625 48.484375 
Q 26.265625 48.484375 22.1875 42.84375 
Q 18.109375 37.203125 18.109375 27.296875 
Q 18.109375 17.390625 22.1875 11.75 
Q 26.265625 6.109375 33.40625 6.109375 
Q 40.53125 6.109375 44.609375 11.75 
Q 48.6875 17.390625 48.6875 27.296875 
z
" id="DejaVuSans-112"/>
     <path d="M 48.78125 52.59375 
L 48.78125 44.1875 
Q 44.96875 46.296875 41.140625 47.34375 
Q 37.3125 48.390625 33.40625 48.390625 
Q 24.65625 48.390625 19.8125 42.84375 
Q 14.984375 37.3125 14.984375 27.296875 
Q 14.984375 17.28125 19.8125 11.734375 
Q 24.65625 6.203125 33.40625 6.203125 
Q 37.3125 6.203125 41.140625 7.25 
Q 44.96875 8.296875 48.78125 10.40625 
L 48.78125 2.09375 
Q 45.015625 0.34375 40.984375 -0.53125 
Q 36.96875 -1.421875 32.421875 -1.421875 
Q 20.0625 -1.421875 12.78125 6.34375 
Q 5.515625 14.109375 5.515625 27.296875 
Q 5.515625 40.671875 12.859375 48.328125 
Q 20.21875 56 33.015625 56 
Q 37.15625 56 41.109375 55.140625 
Q 45.0625 54.296875 48.78125 52.59375 
z
" id="DejaVuSans-99"/>
     <path d="M 18.3125 70.21875 
L 18.3125 54.6875 
L 36.8125 54.6875 
L 36.8125 47.703125 
L 18.3125 47.703125 
L 18.3125 18.015625 
Q 18.3125 11.328125 20.140625 9.421875 
Q 21.96875 7.515625 27.59375 7.515625 
L 36.8125 7.515625 
L 36.8125 0 
L 27.59375 0 
Q 17.1875 0 13.234375 3.875 
Q 9.28125 7.765625 9.28125 18.015625 
L 9.28125 47.703125 
L 2.6875 47.703125 
L 2.6875 54.6875 
L 9.28125 54.6875 
L 9.28125 70.21875 
z
" id="DejaVuSans-116"/>
     <path d="M 45.40625 46.390625 
L 45.40625 75.984375 
L 54.390625 75.984375 
L 54.390625 0 
L 45.40625 0 
L 45.40625 8.203125 
Q 42.578125 3.328125 38.25 0.953125 
Q 33.9375 -1.421875 27.875 -1.421875 
Q 17.96875 -1.421875 11.734375 6.484375 
Q 5.515625 14.40625 5.515625 27.296875 
Q 5.515625 40.1875 11.734375 48.09375 
Q 17.96875 56 27.875 56 
Q 33.9375 56 38.25 53.625 
Q 42.578125 51.265625 45.40625 46.390625 
z
M 14.796875 27.296875 
Q 14.796875 17.390625 18.875 11.75 
Q 22.953125 6.109375 30.078125 6.109375 
Q 37.203125 6.109375 41.296875 11.75 
Q 45.40625 17.390625 45.40625 27.296875 
Q 45.40625 37.203125 41.296875 42.84375 
Q 37.203125 48.484375 30.078125 48.484375 
Q 22.953125 48.484375 18.875 42.84375 
Q 14.796875 37.203125 14.796875 27.296875 
z
" id="DejaVuSans-100"/>
     <path d="M 9.8125 72.90625 
L 51.703125 72.90625 
L 51.703125 64.59375 
L 19.671875 64.59375 
L 19.671875 43.109375 
L 48.578125 43.109375 
L 48.578125 34.8125 
L 19.671875 34.8125 
L 19.671875 0 
L 9.8125 0 
z
" id="DejaVuSans-70"/>
     <path d="M 9.8125 72.90625 
L 19.671875 72.90625 
L 19.671875 42.09375 
L 52.390625 72.90625 
L 65.09375 72.90625 
L 28.90625 38.921875 
L 67.671875 0 
L 54.6875 0 
L 19.671875 35.109375 
L 19.671875 0 
L 9.8125 0 
z
" id="DejaVuSans-75"/>
     <path d="M 64.40625 67.28125 
L 64.40625 56.890625 
Q 59.421875 61.53125 53.78125 63.8125 
Q 48.140625 66.109375 41.796875 66.109375 
Q 29.296875 66.109375 22.65625 58.46875 
Q 16.015625 50.828125 16.015625 36.375 
Q 16.015625 21.96875 22.65625 14.328125 
Q 29.296875 6.6875 41.796875 6.6875 
Q 48.140625 6.6875 53.78125 8.984375 
Q 59.421875 11.28125 64.40625 15.921875 
L 64.40625 5.609375 
Q 59.234375 2.09375 53.4375 0.328125 
Q 47.65625 -1.421875 41.21875 -1.421875 
Q 24.65625 -1.421875 15.125 8.703125 
Q 5.609375 18.84375 5.609375 36.375 
Q 5.609375 53.953125 15.125 64.078125 
Q 24.65625 74.21875 41.21875 74.21875 
Q 47.75 74.21875 53.53125 72.484375 
Q 59.328125 70.75 64.40625 67.28125 
z
" id="DejaVuSans-67"/>
    </defs>
    <g transform="translate(302.53475 20.3301)scale(0.1728 -0.1728)">
     <use xlink:href="#DejaVuSans-69"/>
     <use x="63.183594" xlink:href="#DejaVuSans-120"/>
     <use x="122.363281" xlink:href="#DejaVuSans-112"/>
     <use x="185.839844" xlink:href="#DejaVuSans-101"/>
     <use x="247.363281" xlink:href="#DejaVuSans-99"/>
     <use x="302.34375" xlink:href="#DejaVuSans-116"/>
     <use x="341.552734" xlink:href="#DejaVuSans-101"/>
     <use x="403.076172" xlink:href="#DejaVuSans-100"/>
     <use x="466.552734" xlink:href="#DejaVuSans-32"/>
     <use x="498.339844" xlink:href="#DejaVuSans-101"/>
     <use x="559.863281" xlink:href="#DejaVuSans-110"/>
     <use x="623.242188" xlink:href="#DejaVuSans-101"/>
     <use x="684.765625" xlink:href="#DejaVuSans-114"/>
     <use x="725.863281" xlink:href="#DejaVuSans-103"/>
     <use x="789.339844" xlink:href="#DejaVuSans-121"/>
     <use x="848.519531" xlink:href="#DejaVuSans-32"/>
     <use x="880.306641" xlink:href="#DejaVuSans-99"/>
     <use x="935.287109" xlink:href="#DejaVuSans-111"/>
     <use x="996.46875" xlink:href="#DejaVuSans-110"/>
     <use x="1059.847656" xlink:href="#DejaVuSans-115"/>
     <use x="1111.947266" xlink:href="#DejaVuSans-117"/>
     <use x="1175.326172" xlink:href="#DejaVuSans-109"/>
     <use x="1272.738281" xlink:href="#DejaVuSans-112"/>
     <use x="1336.214844" xlink:href="#DejaVuSans-116"/>
     <use x="1375.423828" xlink:href="#DejaVuSans-105"/>
     <use x="1403.207031" xlink:href="#DejaVuSans-111"/>
     <use x="1464.388672" xlink:href="#DejaVuSans-110"/>
     <use x="1527.767578" xlink:href="#DejaVuSans-32"/>
     <use x="1559.554688" xlink:href="#DejaVuSans-40"/>
     <use x="1598.568359" xlink:href="#DejaVuSans-109"/>
     <use x="1695.980469" xlink:href="#DejaVuSans-97"/>
     <use x="1757.259766" xlink:href="#DejaVuSans-105"/>
     <use x="1785.042969" xlink:href="#DejaVuSans-110"/>
     <use x="1848.421875" xlink:href="#DejaVuSans-32"/>
     <use x="1880.208984" xlink:href="#DejaVuSans-105"/>
     <use x="1907.992188" xlink:href="#DejaVuSans-110"/>
     <use x="1971.371094" xlink:href="#DejaVuSans-99"/>
     <use x="2026.351562" xlink:href="#DejaVuSans-111"/>
     <use x="2087.533203" xlink:href="#DejaVuSans-109"/>
     <use x="2184.945312" xlink:href="#DejaVuSans-101"/>
     <use x="2246.46875" xlink:href="#DejaVuSans-32"/>
     <use x="2278.255859" xlink:href="#DejaVuSans-49"/>
     <use x="2341.878906" xlink:href="#DejaVuSans-70"/>
     <use x="2399.398438" xlink:href="#DejaVuSans-44"/>
     <use x="2431.185547" xlink:href="#DejaVuSans-32"/>
     <use x="2462.972656" xlink:href="#DejaVuSans-75"/>
     <use x="2528.548828" xlink:href="#DejaVuSans-70"/>
     <use x="2586.068359" xlink:href="#DejaVuSans-67"/>
     <use x="2655.892578" xlink:href="#DejaVuSans-32"/>
     <use x="2687.679688" xlink:href="#DejaVuSans-75"/>
     <use x="2753.177734" xlink:href="#DejaVuSans-111"/>
     <use x="2814.359375" xlink:href="#DejaVuSans-116"/>
     <use x="2853.568359" xlink:href="#DejaVuSans-97"/>
     <use x="2914.847656" xlink:href="#DejaVuSans-32"/>
     <use x="2946.634766" xlink:href="#DejaVuSans-75"/>
     <use x="3012.132812" xlink:href="#DejaVuSans-101"/>
     <use x="3073.65625" xlink:href="#DejaVuSans-109"/>
     <use x="3171.068359" xlink:href="#DejaVuSans-117"/>
     <use x="3234.447266" xlink:href="#DejaVuSans-110"/>
     <use x="3297.826172" xlink:href="#DejaVuSans-105"/>
     <use x="3325.609375" xlink:href="#DejaVuSans-110"/>
     <use x="3388.988281" xlink:href="#DejaVuSans-103"/>
     <use x="3452.464844" xlink:href="#DejaVuSans-41"/>
    </g>
   </g>
   <g id="legend_1">
    <g id="patch_119">
     <path d="M 953.98775 113.302636 
L 1129.6865 113.302636 
Q 1132.0865 113.302636 1132.0865 110.902636 
L 1132.0865 41.647636 
Q 1132.0865 39.247636 1129.6865 39.247636 
L 953.98775 39.247636 
Q 951.58775 39.247636 951.58775 41.647636 
L 951.58775 110.902636 
Q 951.58775 113.302636 953.98775 113.302636 
z
" style="fill:#ffffff;opacity:0.8;stroke:#cccccc;stroke-linejoin:miter;"/>
    </g>
    <g id="line2d_25">
     <path d="M 956.38775 48.965761 
L 980.38775 48.965761 
" style="fill:none;stroke:#e24a33;stroke-linecap:square;stroke-opacity:0.95;stroke-width:4;"/>
    </g>
    <g id="line2d_26"/>
    <g id="text_16">
     <!-- expected consumption -->
     <g transform="translate(989.98775 53.165761)scale(0.12 -0.12)">
      <use xlink:href="#DejaVuSans-101"/>
      <use x="61.507812" xlink:href="#DejaVuSans-120"/>
      <use x="120.6875" xlink:href="#DejaVuSans-112"/>
      <use x="184.164062" xlink:href="#DejaVuSans-101"/>
      <use x="245.6875" xlink:href="#DejaVuSans-99"/>
      <use x="300.667969" xlink:href="#DejaVuSans-116"/>
      <use x="339.876953" xlink:href="#DejaVuSans-101"/>
      <use x="401.400391" xlink:href="#DejaVuSans-100"/>
      <use x="464.876953" xlink:href="#DejaVuSans-32"/>
      <use x="496.664062" xlink:href="#DejaVuSans-99"/>
      <use x="551.644531" xlink:href="#DejaVuSans-111"/>
      <use x="612.826172" xlink:href="#DejaVuSans-110"/>
      <use x="676.205078" xlink:href="#DejaVuSans-115"/>
      <use x="728.304688" xlink:href="#DejaVuSans-117"/>
      <use x="791.683594" xlink:href="#DejaVuSans-109"/>
      <use x="889.095703" xlink:href="#DejaVuSans-112"/>
      <use x="952.572266" xlink:href="#DejaVuSans-116"/>
      <use x="991.78125" xlink:href="#DejaVuSans-105"/>
      <use x="1019.564453" xlink:href="#DejaVuSans-111"/>
      <use x="1080.746094" xlink:href="#DejaVuSans-110"/>
     </g>
    </g>
    <g id="line2d_27">
     <path d="M 956.38775 66.579511 
L 980.38775 66.579511 
" style="fill:none;stroke:#000000;stroke-dasharray:4,6.6;stroke-dashoffset:0;stroke-width:4;"/>
    </g>
    <g id="line2d_28"/>
    <g id="text_17">
     <!-- Time of change -->
     <defs>
      <path d="M 37.109375 75.984375 
L 37.109375 68.5 
L 28.515625 68.5 
Q 23.6875 68.5 21.796875 66.546875 
Q 19.921875 64.59375 19.921875 59.515625 
L 19.921875 54.6875 
L 34.71875 54.6875 
L 34.71875 47.703125 
L 19.921875 47.703125 
L 19.921875 0 
L 10.890625 0 
L 10.890625 47.703125 
L 2.296875 47.703125 
L 2.296875 54.6875 
L 10.890625 54.6875 
L 10.890625 58.5 
Q 10.890625 67.625 15.140625 71.796875 
Q 19.390625 75.984375 28.609375 75.984375 
z
" id="DejaVuSans-102"/>
     </defs>
     <g transform="translate(989.98775 70.779511)scale(0.12 -0.12)">
      <use xlink:href="#DejaVuSans-84"/>
      <use x="61.037109" xlink:href="#DejaVuSans-105"/>
      <use x="88.820312" xlink:href="#DejaVuSans-109"/>
      <use x="186.232422" xlink:href="#DejaVuSans-101"/>
      <use x="247.755859" xlink:href="#DejaVuSans-32"/>
      <use x="279.542969" xlink:href="#DejaVuSans-111"/>
      <use x="340.724609" xlink:href="#DejaVuSans-102"/>
      <use x="375.929688" xlink:href="#DejaVuSans-32"/>
      <use x="407.716797" xlink:href="#DejaVuSans-99"/>
      <use x="462.697266" xlink:href="#DejaVuSans-104"/>
      <use x="526.076172" xlink:href="#DejaVuSans-97"/>
      <use x="587.355469" xlink:href="#DejaVuSans-110"/>
      <use x="650.734375" xlink:href="#DejaVuSans-103"/>
      <use x="714.210938" xlink:href="#DejaVuSans-101"/>
     </g>
    </g>
    <g id="patch_120">
     <path d="M 956.38775 88.393261 
L 980.38775 88.393261 
L 980.38775 79.993261 
L 956.38775 79.993261 
z
" style="fill:#ffa500;opacity:0.25;stroke:#ffa500;stroke-linejoin:miter;"/>
    </g>
    <g id="text_18">
     <!-- 90% Credible Interval -->
     <defs>
      <path d="M 72.703125 32.078125 
Q 68.453125 32.078125 66.03125 28.46875 
Q 63.625 24.859375 63.625 18.40625 
Q 63.625 12.0625 66.03125 8.421875 
Q 68.453125 4.78125 72.703125 4.78125 
Q 76.859375 4.78125 79.265625 8.421875 
Q 81.6875 12.0625 81.6875 18.40625 
Q 81.6875 24.8125 79.265625 28.4375 
Q 76.859375 32.078125 72.703125 32.078125 
z
M 72.703125 38.28125 
Q 80.421875 38.28125 84.953125 32.90625 
Q 89.5 27.546875 89.5 18.40625 
Q 89.5 9.28125 84.9375 3.921875 
Q 80.375 -1.421875 72.703125 -1.421875 
Q 64.890625 -1.421875 60.34375 3.921875 
Q 55.8125 9.28125 55.8125 18.40625 
Q 55.8125 27.59375 60.375 32.9375 
Q 64.9375 38.28125 72.703125 38.28125 
z
M 22.3125 68.015625 
Q 18.109375 68.015625 15.6875 64.375 
Q 13.28125 60.75 13.28125 54.390625 
Q 13.28125 47.953125 15.671875 44.328125 
Q 18.0625 40.71875 22.3125 40.71875 
Q 26.5625 40.71875 28.96875 44.328125 
Q 31.390625 47.953125 31.390625 54.390625 
Q 31.390625 60.6875 28.953125 64.34375 
Q 26.515625 68.015625 22.3125 68.015625 
z
M 66.40625 74.21875 
L 74.21875 74.21875 
L 28.609375 -1.421875 
L 20.796875 -1.421875 
z
M 22.3125 74.21875 
Q 30.03125 74.21875 34.609375 68.875 
Q 39.203125 63.53125 39.203125 54.390625 
Q 39.203125 45.171875 34.640625 39.84375 
Q 30.078125 34.515625 22.3125 34.515625 
Q 14.546875 34.515625 10.03125 39.859375 
Q 5.515625 45.21875 5.515625 54.390625 
Q 5.515625 63.484375 10.046875 68.84375 
Q 14.59375 74.21875 22.3125 74.21875 
z
" id="DejaVuSans-37"/>
      <path d="M 48.6875 27.296875 
Q 48.6875 37.203125 44.609375 42.84375 
Q 40.53125 48.484375 33.40625 48.484375 
Q 26.265625 48.484375 22.1875 42.84375 
Q 18.109375 37.203125 18.109375 27.296875 
Q 18.109375 17.390625 22.1875 11.75 
Q 26.265625 6.109375 33.40625 6.109375 
Q 40.53125 6.109375 44.609375 11.75 
Q 48.6875 17.390625 48.6875 27.296875 
z
M 18.109375 46.390625 
Q 20.953125 51.265625 25.265625 53.625 
Q 29.59375 56 35.59375 56 
Q 45.5625 56 51.78125 48.09375 
Q 58.015625 40.1875 58.015625 27.296875 
Q 58.015625 14.40625 51.78125 6.484375 
Q 45.5625 -1.421875 35.59375 -1.421875 
Q 29.59375 -1.421875 25.265625 0.953125 
Q 20.953125 3.328125 18.109375 8.203125 
L 18.109375 0 
L 9.078125 0 
L 9.078125 75.984375 
L 18.109375 75.984375 
z
" id="DejaVuSans-98"/>
      <path d="M 9.421875 75.984375 
L 18.40625 75.984375 
L 18.40625 0 
L 9.421875 0 
z
" id="DejaVuSans-108"/>
      <path d="M 9.8125 72.90625 
L 19.671875 72.90625 
L 19.671875 0 
L 9.8125 0 
z
" id="DejaVuSans-73"/>
      <path d="M 2.984375 54.6875 
L 12.5 54.6875 
L 29.59375 8.796875 
L 46.6875 54.6875 
L 56.203125 54.6875 
L 35.6875 0 
L 23.484375 0 
z
" id="DejaVuSans-118"/>
     </defs>
     <g transform="translate(989.98775 88.393261)scale(0.12 -0.12)">
      <use xlink:href="#DejaVuSans-57"/>
      <use x="63.623047" xlink:href="#DejaVuSans-48"/>
      <use x="127.246094" xlink:href="#DejaVuSans-37"/>
      <use x="222.265625" xlink:href="#DejaVuSans-32"/>
      <use x="254.052734" xlink:href="#DejaVuSans-67"/>
      <use x="323.876953" xlink:href="#DejaVuSans-114"/>
      <use x="364.958984" xlink:href="#DejaVuSans-101"/>
      <use x="426.482422" xlink:href="#DejaVuSans-100"/>
      <use x="489.958984" xlink:href="#DejaVuSans-105"/>
      <use x="517.742188" xlink:href="#DejaVuSans-98"/>
      <use x="581.21875" xlink:href="#DejaVuSans-108"/>
      <use x="609.001953" xlink:href="#DejaVuSans-101"/>
      <use x="670.525391" xlink:href="#DejaVuSans-32"/>
      <use x="702.3125" xlink:href="#DejaVuSans-73"/>
      <use x="731.804688" xlink:href="#DejaVuSans-110"/>
      <use x="795.183594" xlink:href="#DejaVuSans-116"/>
      <use x="834.392578" xlink:href="#DejaVuSans-101"/>
      <use x="895.916016" xlink:href="#DejaVuSans-114"/>
      <use x="937.029297" xlink:href="#DejaVuSans-118"/>
      <use x="996.208984" xlink:href="#DejaVuSans-97"/>
      <use x="1057.488281" xlink:href="#DejaVuSans-108"/>
     </g>
    </g>
    <g id="patch_121">
     <path d="M 956.38775 106.007011 
L 980.38775 106.007011 
L 980.38775 97.607011 
L 956.38775 97.607011 
z
" style="fill:#348abd;opacity:0.85;"/>
    </g>
    <g id="text_19">
     <!-- observed consumption -->
     <g transform="translate(989.98775 106.007011)scale(0.12 -0.12)">
      <use xlink:href="#DejaVuSans-111"/>
      <use x="61.181641" xlink:href="#DejaVuSans-98"/>
      <use x="124.658203" xlink:href="#DejaVuSans-115"/>
      <use x="176.757812" xlink:href="#DejaVuSans-101"/>
      <use x="238.28125" xlink:href="#DejaVuSans-114"/>
      <use x="279.394531" xlink:href="#DejaVuSans-118"/>
      <use x="338.574219" xlink:href="#DejaVuSans-101"/>
      <use x="400.097656" xlink:href="#DejaVuSans-100"/>
      <use x="463.574219" xlink:href="#DejaVuSans-32"/>
      <use x="495.361328" xlink:href="#DejaVuSans-99"/>
      <use x="550.341797" xlink:href="#DejaVuSans-111"/>
      <use x="611.523438" xlink:href="#DejaVuSans-110"/>
      <use x="674.902344" xlink:href="#DejaVuSans-115"/>
      <use x="727.001953" xlink:href="#DejaVuSans-117"/>
      <use x="790.380859" xlink:href="#DejaVuSans-109"/>
      <use x="887.792969" xlink:href="#DejaVuSans-112"/>
      <use x="951.269531" xlink:href="#DejaVuSans-116"/>
      <use x="990.478516" xlink:href="#DejaVuSans-105"/>
      <use x="1018.261719" xlink:href="#DejaVuSans-111"/>
      <use x="1079.443359" xlink:href="#DejaVuSans-110"/>
     </g>
    </g>
   </g>
  </g>
 </g>
 <defs>
  <clipPath id="p53ae1eec9d">
   <rect height="345.8768" width="1067.775" x="70.3115" y="33.247636"/>
  </clipPath>
 </defs>
</svg>
