<?xml version="1.0" encoding="utf-8" standalone="no"?>
<!DOCTYPE svg PUBLIC "-//W3C//DTD SVG 1.1//EN"
  "http://www.w3.org/Graphics/SVG/1.1/DTD/svg11.dtd">
<!-- Created with matplotlib (https://matplotlib.org/) -->
<svg height="422.874686pt" version="1.1" viewBox="0 0 1144.446031 422.874686" width="1144.446031pt" xmlns="http://www.w3.org/2000/svg" xmlns:xlink="http://www.w3.org/1999/xlink">
 <defs>
  <style type="text/css">
*{stroke-linecap:butt;stroke-linejoin:round;}
  </style>
 </defs>
 <g id="figure_1">
  <g id="patch_1">
   <path d="M 0 422.874686 
L 1144.446031 422.874686 
L 1144.446031 0 
L 0 0 
z
" style="fill:#ffffff;"/>
  </g>
  <g id="axes_1">
   <g id="patch_2">
    <path d="M 77.9465 379.124436 
L 1006.1215 379.124436 
L 1006.1215 33.247636 
L 77.9465 33.247636 
z
" style="fill:#ffffff;"/>
   </g>
   <g id="patch_3">
    <path clip-path="url(#pcc6cb3994a)" d="M 74.079104 379.124436 
L 81.813896 379.124436 
L 81.813896 337.855749 
L 74.079104 337.855749 
z
" style="fill:#348abd;opacity:0.85;"/>
   </g>
   <g id="patch_4">
    <path clip-path="url(#pcc6cb3994a)" d="M 83.747594 379.124436 
L 91.482385 379.124436 
L 91.482385 179.851636 
L 83.747594 179.851636 
z
" style="fill:#348abd;opacity:0.85;"/>
   </g>
   <g id="patch_5">
    <path clip-path="url(#pcc6cb3994a)" d="M 93.416083 379.124436 
L 101.150875 379.124436 
L 101.150875 232.398217 
L 93.416083 232.398217 
z
" style="fill:#348abd;opacity:0.85;"/>
   </g>
   <g id="patch_6">
    <path clip-path="url(#pcc6cb3994a)" d="M 103.084573 379.124436 
L 110.819365 379.124436 
L 110.819365 337.179857 
L 103.084573 337.179857 
z
" style="fill:#348abd;opacity:0.85;"/>
   </g>
   <g id="patch_7">
    <path clip-path="url(#pcc6cb3994a)" d="M 112.753062 379.124436 
L 120.487854 379.124436 
L 120.487854 101.21211 
L 112.753062 101.21211 
z
" style="fill:#348abd;opacity:0.85;"/>
   </g>
   <g id="patch_8">
    <path clip-path="url(#pcc6cb3994a)" d="M 122.421552 379.124436 
L 130.156344 379.124436 
L 130.156344 99.440095 
L 122.421552 99.440095 
z
" style="fill:#348abd;opacity:0.85;"/>
   </g>
   <g id="patch_9">
    <path clip-path="url(#pcc6cb3994a)" d="M 132.090042 379.124436 
L 139.824833 379.124436 
L 139.824833 135.357192 
L 132.090042 135.357192 
z
" style="fill:#348abd;opacity:0.85;"/>
   </g>
   <g id="patch_10">
    <path clip-path="url(#pcc6cb3994a)" d="M 141.758531 379.124436 
L 149.493323 379.124436 
L 149.493323 173.649381 
L 141.758531 173.649381 
z
" style="fill:#348abd;opacity:0.85;"/>
   </g>
   <g id="patch_11">
    <path clip-path="url(#pcc6cb3994a)" d="M 151.427021 379.124436 
L 159.161812 379.124436 
L 159.161812 116.225158 
L 151.427021 116.225158 
z
" style="fill:#348abd;opacity:0.85;"/>
   </g>
   <g id="patch_12">
    <path clip-path="url(#pcc6cb3994a)" d="M 161.09551 379.124436 
L 168.830302 379.124436 
L 168.830302 77.85384 
L 161.09551 77.85384 
z
" style="fill:#348abd;opacity:0.85;"/>
   </g>
   <g id="patch_13">
    <path clip-path="url(#pcc6cb3994a)" d="M 170.764 379.124436 
L 178.498792 379.124436 
L 178.498792 49.71796 
L 170.764 49.71796 
z
" style="fill:#348abd;opacity:0.85;"/>
   </g>
   <g id="patch_14">
    <path clip-path="url(#pcc6cb3994a)" d="M 180.43249 379.124436 
L 188.167281 379.124436 
L 188.167281 85.004775 
L 180.43249 85.004775 
z
" style="fill:#348abd;opacity:0.85;"/>
   </g>
   <g id="patch_15">
    <path clip-path="url(#pcc6cb3994a)" d="M 190.100979 379.124436 
L 197.835771 379.124436 
L 197.835771 130.90462 
L 190.100979 130.90462 
z
" style="fill:#348abd;opacity:0.85;"/>
   </g>
   <g id="patch_16">
    <path clip-path="url(#pcc6cb3994a)" d="M 199.769469 379.124436 
L 207.50426 379.124436 
L 207.50426 161.061248 
L 199.769469 161.061248 
z
" style="fill:#348abd;opacity:0.85;"/>
   </g>
   <g id="patch_17">
    <path clip-path="url(#pcc6cb3994a)" d="M 209.437958 379.124436 
L 217.17275 379.124436 
L 217.17275 265.073823 
L 209.437958 265.073823 
z
" style="fill:#348abd;opacity:0.85;"/>
   </g>
   <g id="patch_18">
    <path clip-path="url(#pcc6cb3994a)" d="M 219.106448 379.124436 
L 226.84124 379.124436 
L 226.84124 317.55003 
L 219.106448 317.55003 
z
" style="fill:#348abd;opacity:0.85;"/>
   </g>
   <g id="patch_19">
    <path clip-path="url(#pcc6cb3994a)" d="M 228.774937 379.124436 
L 236.509729 379.124436 
L 236.509729 327.927729 
L 228.774937 327.927729 
z
" style="fill:#348abd;opacity:0.85;"/>
   </g>
   <g id="patch_20">
    <path clip-path="url(#pcc6cb3994a)" d="M 238.443427 379.124436 
L 246.178219 379.124436 
L 246.178219 171.469282 
L 238.443427 171.469282 
z
" style="fill:#348abd;opacity:0.85;"/>
   </g>
   <g id="patch_21">
    <path clip-path="url(#pcc6cb3994a)" d="M 248.111917 379.124436 
L 255.846708 379.124436 
L 255.846708 211.722941 
L 248.111917 211.722941 
z
" style="fill:#348abd;opacity:0.85;"/>
   </g>
   <g id="patch_22">
    <path clip-path="url(#pcc6cb3994a)" d="M 257.780406 379.124436 
L 265.515198 379.124436 
L 265.515198 185.753235 
L 257.780406 185.753235 
z
" style="fill:#348abd;opacity:0.85;"/>
   </g>
   <g id="patch_23">
    <path clip-path="url(#pcc6cb3994a)" d="M 267.448896 379.124436 
L 275.183688 379.124436 
L 275.183688 153.183659 
L 267.448896 153.183659 
z
" style="fill:#348abd;opacity:0.85;"/>
   </g>
   <g id="patch_24">
    <path clip-path="url(#pcc6cb3994a)" d="M 277.117385 379.124436 
L 284.852177 379.124436 
L 284.852177 109.884023 
L 277.117385 109.884023 
z
" style="fill:#348abd;opacity:0.85;"/>
   </g>
   <g id="patch_25">
    <path clip-path="url(#pcc6cb3994a)" d="M 286.785875 379.124436 
L 294.520667 379.124436 
L 294.520667 115.13975 
L 286.785875 115.13975 
z
" style="fill:#348abd;opacity:0.85;"/>
   </g>
   <g id="patch_26">
    <path clip-path="url(#pcc6cb3994a)" d="M 296.454365 379.124436 
L 304.189156 379.124436 
L 304.189156 170.702868 
L 296.454365 170.702868 
z
" style="fill:#348abd;opacity:0.85;"/>
   </g>
   <g id="patch_27">
    <path clip-path="url(#pcc6cb3994a)" d="M 306.122854 379.124436 
L 313.857646 379.124436 
L 313.857646 115.397916 
L 306.122854 115.397916 
z
" style="fill:#348abd;opacity:0.85;"/>
   </g>
   <g id="patch_28">
    <path clip-path="url(#pcc6cb3994a)" d="M 315.791344 379.124436 
L 323.526135 379.124436 
L 323.526135 82.994277 
L 315.791344 82.994277 
z
" style="fill:#348abd;opacity:0.85;"/>
   </g>
   <g id="patch_29">
    <path clip-path="url(#pcc6cb3994a)" d="M 325.459833 379.124436 
L 333.194625 379.124436 
L 333.194625 64.917124 
L 325.459833 64.917124 
z
" style="fill:#348abd;opacity:0.85;"/>
   </g>
   <g id="patch_30">
    <path clip-path="url(#pcc6cb3994a)" d="M 335.128323 379.124436 
L 342.863115 379.124436 
L 342.863115 56.876966 
L 335.128323 56.876966 
z
" style="fill:#348abd;opacity:0.85;"/>
   </g>
   <g id="patch_31">
    <path clip-path="url(#pcc6cb3994a)" d="M 344.796812 379.124436 
L 352.531604 379.124436 
L 352.531604 128.717467 
L 344.796812 128.717467 
z
" style="fill:#348abd;opacity:0.85;"/>
   </g>
   <g id="patch_32">
    <path clip-path="url(#pcc6cb3994a)" d="M 354.465302 379.124436 
L 362.200094 379.124436 
L 362.200094 173.614075 
L 354.465302 173.614075 
z
" style="fill:#348abd;opacity:0.85;"/>
   </g>
   <g id="patch_33">
    <path clip-path="url(#pcc6cb3994a)" d="M 364.133792 379.124436 
L 371.868583 379.124436 
L 371.868583 246.614771 
L 364.133792 246.614771 
z
" style="fill:#348abd;opacity:0.85;"/>
   </g>
   <g id="patch_34">
    <path clip-path="url(#pcc6cb3994a)" d="M 373.802281 379.124436 
L 381.537073 379.124436 
L 381.537073 297.272731 
L 373.802281 297.272731 
z
" style="fill:#348abd;opacity:0.85;"/>
   </g>
   <g id="patch_35">
    <path clip-path="url(#pcc6cb3994a)" d="M 383.470771 379.124436 
L 391.205562 379.124436 
L 391.205562 318.19924 
L 383.470771 318.19924 
z
" style="fill:#348abd;opacity:0.85;"/>
   </g>
   <g id="patch_36">
    <path clip-path="url(#pcc6cb3994a)" d="M 393.13926 379.124436 
L 400.874052 379.124436 
L 400.874052 187.025163 
L 393.13926 187.025163 
z
" style="fill:#348abd;opacity:0.85;"/>
   </g>
   <g id="patch_37">
    <path clip-path="url(#pcc6cb3994a)" d="M 402.80775 379.124436 
L 410.542542 379.124436 
L 410.542542 228.866329 
L 402.80775 228.866329 
z
" style="fill:#348abd;opacity:0.85;"/>
   </g>
   <g id="patch_38">
    <path clip-path="url(#pcc6cb3994a)" d="M 412.47624 379.124436 
L 420.211031 379.124436 
L 420.211031 202.382477 
L 412.47624 202.382477 
z
" style="fill:#348abd;opacity:0.85;"/>
   </g>
   <g id="patch_39">
    <path clip-path="url(#pcc6cb3994a)" d="M 422.144729 379.124436 
L 429.879521 379.124436 
L 429.879521 149.132508 
L 422.144729 149.132508 
z
" style="fill:#348abd;opacity:0.85;"/>
   </g>
   <g id="patch_40">
    <path clip-path="url(#pcc6cb3994a)" d="M 431.813219 379.124436 
L 439.54801 379.124436 
L 439.54801 150.28551 
L 431.813219 150.28551 
z
" style="fill:#348abd;opacity:0.85;"/>
   </g>
   <g id="patch_41">
    <path clip-path="url(#pcc6cb3994a)" d="M 441.481708 379.124436 
L 449.2165 379.124436 
L 449.2165 168.478002 
L 441.481708 168.478002 
z
" style="fill:#348abd;opacity:0.85;"/>
   </g>
   <g id="patch_42">
    <path clip-path="url(#pcc6cb3994a)" d="M 451.150198 379.124436 
L 458.88499 379.124436 
L 458.88499 171.049844 
L 451.150198 171.049844 
z
" style="fill:#348abd;opacity:0.85;"/>
   </g>
   <g id="patch_43">
    <path clip-path="url(#pcc6cb3994a)" d="M 460.818688 379.124436 
L 468.553479 379.124436 
L 468.553479 113.205404 
L 460.818688 113.205404 
z
" style="fill:#348abd;opacity:0.85;"/>
   </g>
   <g id="patch_44">
    <path clip-path="url(#pcc6cb3994a)" d="M 470.487177 379.124436 
L 478.221969 379.124436 
L 478.221969 114.912263 
L 470.487177 114.912263 
z
" style="fill:#348abd;opacity:0.85;"/>
   </g>
   <g id="patch_45">
    <path clip-path="url(#pcc6cb3994a)" d="M 480.155667 379.124436 
L 487.890458 379.124436 
L 487.890458 130.56337 
L 480.155667 130.56337 
z
" style="fill:#348abd;opacity:0.85;"/>
   </g>
   <g id="patch_46">
    <path clip-path="url(#pcc6cb3994a)" d="M 489.824156 379.124436 
L 497.558948 379.124436 
L 497.558948 136.869995 
L 489.824156 136.869995 
z
" style="fill:#348abd;opacity:0.85;"/>
   </g>
   <g id="patch_47">
    <path clip-path="url(#pcc6cb3994a)" d="M 499.492646 379.124436 
L 507.227437 379.124436 
L 507.227437 206.812657 
L 499.492646 206.812657 
z
" style="fill:#348abd;opacity:0.85;"/>
   </g>
   <g id="patch_48">
    <path clip-path="url(#pcc6cb3994a)" d="M 509.161135 379.124436 
L 516.895927 379.124436 
L 516.895927 248.582049 
L 509.161135 248.582049 
z
" style="fill:#348abd;opacity:0.85;"/>
   </g>
   <g id="patch_49">
    <path clip-path="url(#pcc6cb3994a)" d="M 518.829625 379.124436 
L 526.564417 379.124436 
L 526.564417 265.963348 
L 518.829625 265.963348 
z
" style="fill:#348abd;opacity:0.85;"/>
   </g>
   <g id="patch_50">
    <path clip-path="url(#pcc6cb3994a)" d="M 528.498115 379.124436 
L 536.232906 379.124436 
L 536.232906 322.944805 
L 528.498115 322.944805 
z
" style="fill:#348abd;opacity:0.85;"/>
   </g>
   <g id="patch_51">
    <path clip-path="url(#pcc6cb3994a)" d="M 538.166604 379.124436 
L 545.901396 379.124436 
L 545.901396 337.791374 
L 538.166604 337.791374 
z
" style="fill:#348abd;opacity:0.85;"/>
   </g>
   <g id="patch_52">
    <path clip-path="url(#pcc6cb3994a)" d="M 547.835094 379.124436 
L 555.569885 379.124436 
L 555.569885 204.059446 
L 547.835094 204.059446 
z
" style="fill:#348abd;opacity:0.85;"/>
   </g>
   <g id="patch_53">
    <path clip-path="url(#pcc6cb3994a)" d="M 557.503583 379.124436 
L 565.238375 379.124436 
L 565.238375 251.003539 
L 557.503583 251.003539 
z
" style="fill:#348abd;opacity:0.85;"/>
   </g>
   <g id="patch_54">
    <path clip-path="url(#pcc6cb3994a)" d="M 567.172073 379.124436 
L 574.906865 379.124436 
L 574.906865 206.353812 
L 567.172073 206.353812 
z
" style="fill:#348abd;opacity:0.85;"/>
   </g>
   <g id="patch_55">
    <path clip-path="url(#pcc6cb3994a)" d="M 576.840562 379.124436 
L 584.575354 379.124436 
L 584.575354 180.408154 
L 576.840562 180.408154 
z
" style="fill:#348abd;opacity:0.85;"/>
   </g>
   <g id="patch_56">
    <path clip-path="url(#pcc6cb3994a)" d="M 586.509052 379.124436 
L 594.243844 379.124436 
L 594.243844 200.01099 
L 586.509052 200.01099 
z
" style="fill:#348abd;opacity:0.85;"/>
   </g>
   <g id="patch_57">
    <path clip-path="url(#pcc6cb3994a)" d="M 596.177542 379.124436 
L 603.912333 379.124436 
L 603.912333 228.140366 
L 596.177542 228.140366 
z
" style="fill:#348abd;opacity:0.85;"/>
   </g>
   <g id="patch_58">
    <path clip-path="url(#pcc6cb3994a)" d="M 605.846031 379.124436 
L 613.580823 379.124436 
L 613.580823 210.661202 
L 605.846031 210.661202 
z
" style="fill:#348abd;opacity:0.85;"/>
   </g>
   <g id="patch_59">
    <path clip-path="url(#pcc6cb3994a)" d="M 615.514521 379.124436 
L 623.249312 379.124436 
L 623.249312 204.610826 
L 615.514521 204.610826 
z
" style="fill:#348abd;opacity:0.85;"/>
   </g>
   <g id="patch_60">
    <path clip-path="url(#pcc6cb3994a)" d="M 625.18301 379.124436 
L 632.917802 379.124436 
L 632.917802 191.32083 
L 625.18301 191.32083 
z
" style="fill:#348abd;opacity:0.85;"/>
   </g>
   <g id="patch_61">
    <path clip-path="url(#pcc6cb3994a)" d="M 634.8515 379.124436 
L 642.586292 379.124436 
L 642.586292 165.071953 
L 634.8515 165.071953 
z
" style="fill:#348abd;opacity:0.85;"/>
   </g>
   <g id="patch_62">
    <path clip-path="url(#pcc6cb3994a)" d="M 644.51999 379.124436 
L 652.254781 379.124436 
L 652.254781 161.853268 
L 644.51999 161.853268 
z
" style="fill:#348abd;opacity:0.85;"/>
   </g>
   <g id="patch_63">
    <path clip-path="url(#pcc6cb3994a)" d="M 654.188479 379.124436 
L 661.923271 379.124436 
L 661.923271 219.979247 
L 654.188479 219.979247 
z
" style="fill:#348abd;opacity:0.85;"/>
   </g>
   <g id="patch_64">
    <path clip-path="url(#pcc6cb3994a)" d="M 663.856969 379.124436 
L 671.59176 379.124436 
L 671.59176 241.235935 
L 663.856969 241.235935 
z
" style="fill:#348abd;opacity:0.85;"/>
   </g>
   <g id="patch_65">
    <path clip-path="url(#pcc6cb3994a)" d="M 673.525458 379.124436 
L 681.26025 379.124436 
L 681.26025 265.724039 
L 673.525458 265.724039 
z
" style="fill:#348abd;opacity:0.85;"/>
   </g>
   <g id="patch_66">
    <path clip-path="url(#pcc6cb3994a)" d="M 683.193948 379.124436 
L 690.92874 379.124436 
L 690.92874 317.930645 
L 683.193948 317.930645 
z
" style="fill:#348abd;opacity:0.85;"/>
   </g>
   <g id="patch_67">
    <path clip-path="url(#pcc6cb3994a)" d="M 692.862437 379.124436 
L 700.597229 379.124436 
L 700.597229 337.480541 
L 692.862437 337.480541 
z
" style="fill:#348abd;opacity:0.85;"/>
   </g>
   <g id="patch_68">
    <path clip-path="url(#pcc6cb3994a)" d="M 702.530927 379.124436 
L 710.265719 379.124436 
L 710.265719 212.705885 
L 702.530927 212.705885 
z
" style="fill:#348abd;opacity:0.85;"/>
   </g>
   <g id="patch_69">
    <path clip-path="url(#pcc6cb3994a)" d="M 712.199417 379.124436 
L 719.934208 379.124436 
L 719.934208 243.976725 
L 712.199417 243.976725 
z
" style="fill:#348abd;opacity:0.85;"/>
   </g>
   <g id="patch_70">
    <path clip-path="url(#pcc6cb3994a)" d="M 721.867906 379.124436 
L 729.602698 379.124436 
L 729.602698 230.555902 
L 721.867906 230.555902 
z
" style="fill:#348abd;opacity:0.85;"/>
   </g>
   <g id="patch_71">
    <path clip-path="url(#pcc6cb3994a)" d="M 731.536396 379.124436 
L 739.271187 379.124436 
L 739.271187 194.07636 
L 731.536396 194.07636 
z
" style="fill:#348abd;opacity:0.85;"/>
   </g>
   <g id="patch_72">
    <path clip-path="url(#pcc6cb3994a)" d="M 741.204885 379.124436 
L 748.939677 379.124436 
L 748.939677 227.944469 
L 741.204885 227.944469 
z
" style="fill:#348abd;opacity:0.85;"/>
   </g>
   <g id="patch_73">
    <path clip-path="url(#pcc6cb3994a)" d="M 750.873375 379.124436 
L 758.608167 379.124436 
L 758.608167 235.198297 
L 750.873375 235.198297 
z
" style="fill:#348abd;opacity:0.85;"/>
   </g>
   <g id="patch_74">
    <path clip-path="url(#pcc6cb3994a)" d="M 760.541865 379.124436 
L 768.276656 379.124436 
L 768.276656 222.04629 
L 760.541865 222.04629 
z
" style="fill:#348abd;opacity:0.85;"/>
   </g>
   <g id="patch_75">
    <path clip-path="url(#pcc6cb3994a)" d="M 770.210354 379.124436 
L 777.945146 379.124436 
L 777.945146 215.584078 
L 770.210354 215.584078 
z
" style="fill:#348abd;opacity:0.85;"/>
   </g>
   <g id="patch_76">
    <path clip-path="url(#pcc6cb3994a)" d="M 779.878844 379.124436 
L 787.613635 379.124436 
L 787.613635 194.986455 
L 779.878844 194.986455 
z
" style="fill:#348abd;opacity:0.85;"/>
   </g>
   <g id="patch_77">
    <path clip-path="url(#pcc6cb3994a)" d="M 789.547333 379.124436 
L 797.282125 379.124436 
L 797.282125 170.980817 
L 789.547333 170.980817 
z
" style="fill:#348abd;opacity:0.85;"/>
   </g>
   <g id="patch_78">
    <path clip-path="url(#pcc6cb3994a)" d="M 799.215823 379.124436 
L 806.950615 379.124436 
L 806.950615 159.85434 
L 799.215823 159.85434 
z
" style="fill:#348abd;opacity:0.85;"/>
   </g>
   <g id="patch_79">
    <path clip-path="url(#pcc6cb3994a)" d="M 808.884312 379.124436 
L 816.619104 379.124436 
L 816.619104 218.678336 
L 808.884312 218.678336 
z
" style="fill:#348abd;opacity:0.85;"/>
   </g>
   <g id="patch_80">
    <path clip-path="url(#pcc6cb3994a)" d="M 818.552802 379.124436 
L 826.287594 379.124436 
L 826.287594 242.956411 
L 818.552802 242.956411 
z
" style="fill:#348abd;opacity:0.85;"/>
   </g>
   <g id="patch_81">
    <path clip-path="url(#pcc6cb3994a)" d="M 828.221292 379.124436 
L 835.956083 379.124436 
L 835.956083 289.509637 
L 828.221292 289.509637 
z
" style="fill:#348abd;opacity:0.85;"/>
   </g>
   <g id="patch_82">
    <path clip-path="url(#pcc6cb3994a)" d="M 837.889781 379.124436 
L 845.624573 379.124436 
L 845.624573 325.269456 
L 837.889781 325.269456 
z
" style="fill:#348abd;opacity:0.85;"/>
   </g>
   <g id="patch_83">
    <path clip-path="url(#pcc6cb3994a)" d="M 847.558271 379.124436 
L 855.293062 379.124436 
L 855.293062 341.932497 
L 847.558271 341.932497 
z
" style="fill:#348abd;opacity:0.85;"/>
   </g>
   <g id="patch_84">
    <path clip-path="url(#pcc6cb3994a)" d="M 857.22676 379.124436 
L 864.961552 379.124436 
L 864.961552 200.602273 
L 857.22676 200.602273 
z
" style="fill:#348abd;opacity:0.85;"/>
   </g>
   <g id="patch_85">
    <path clip-path="url(#pcc6cb3994a)" d="M 866.89525 379.124436 
L 874.630042 379.124436 
L 874.630042 203.384687 
L 866.89525 203.384687 
z
" style="fill:#348abd;opacity:0.85;"/>
   </g>
   <g id="patch_86">
    <path clip-path="url(#pcc6cb3994a)" d="M 876.56374 379.124436 
L 884.298531 379.124436 
L 884.298531 199.236043 
L 876.56374 199.236043 
z
" style="fill:#348abd;opacity:0.85;"/>
   </g>
   <g id="patch_87">
    <path clip-path="url(#pcc6cb3994a)" d="M 886.232229 379.124436 
L 893.967021 379.124436 
L 893.967021 161.540094 
L 886.232229 161.540094 
z
" style="fill:#348abd;opacity:0.85;"/>
   </g>
   <g id="patch_88">
    <path clip-path="url(#pcc6cb3994a)" d="M 895.900719 379.124436 
L 903.63551 379.124436 
L 903.63551 182.917221 
L 895.900719 182.917221 
z
" style="fill:#348abd;opacity:0.85;"/>
   </g>
   <g id="patch_89">
    <path clip-path="url(#pcc6cb3994a)" d="M 905.569208 379.124436 
L 913.304 379.124436 
L 913.304 189.551629 
L 905.569208 189.551629 
z
" style="fill:#348abd;opacity:0.85;"/>
   </g>
   <g id="patch_90">
    <path clip-path="url(#pcc6cb3994a)" d="M 915.237698 379.124436 
L 922.97249 379.124436 
L 922.97249 159.593216 
L 915.237698 159.593216 
z
" style="fill:#348abd;opacity:0.85;"/>
   </g>
   <g id="patch_91">
    <path clip-path="url(#pcc6cb3994a)" d="M 924.906187 379.124436 
L 932.640979 379.124436 
L 932.640979 149.346049 
L 924.906187 149.346049 
z
" style="fill:#348abd;opacity:0.85;"/>
   </g>
   <g id="patch_92">
    <path clip-path="url(#pcc6cb3994a)" d="M 934.574677 379.124436 
L 942.309469 379.124436 
L 942.309469 144.982844 
L 934.574677 144.982844 
z
" style="fill:#348abd;opacity:0.85;"/>
   </g>
   <g id="patch_93">
    <path clip-path="url(#pcc6cb3994a)" d="M 944.243167 379.124436 
L 951.977958 379.124436 
L 951.977958 305.451408 
L 944.243167 305.451408 
z
" style="fill:#348abd;opacity:0.85;"/>
   </g>
   <g id="patch_94">
    <path clip-path="url(#pcc6cb3994a)" d="M 953.911656 379.124436 
L 961.646448 379.124436 
L 961.646448 368.6149 
L 953.911656 368.6149 
z
" style="fill:#348abd;opacity:0.85;"/>
   </g>
   <g id="patch_95">
    <path clip-path="url(#pcc6cb3994a)" d="M 963.580146 379.124436 
L 971.314937 379.124436 
L 971.314937 372.015114 
L 963.580146 372.015114 
z
" style="fill:#348abd;opacity:0.85;"/>
   </g>
   <g id="patch_96">
    <path clip-path="url(#pcc6cb3994a)" d="M 973.248635 379.124436 
L 980.983427 379.124436 
L 980.983427 372.188637 
L 973.248635 372.188637 
z
" style="fill:#348abd;opacity:0.85;"/>
   </g>
   <g id="patch_97">
    <path clip-path="url(#pcc6cb3994a)" d="M 982.917125 379.124436 
L 990.651917 379.124436 
L 990.651917 329.169344 
L 982.917125 329.169344 
z
" style="fill:#348abd;opacity:0.85;"/>
   </g>
   <g id="patch_98">
    <path clip-path="url(#pcc6cb3994a)" d="M 992.585615 379.124436 
L 1000.320406 379.124436 
L 1000.320406 338.376927 
L 992.585615 338.376927 
z
" style="fill:#348abd;opacity:0.85;"/>
   </g>
   <g id="matplotlib.axis_1">
    <g id="xtick_1">
     <g id="line2d_1">
      <path clip-path="url(#pcc6cb3994a)" d="M 77.9465 379.124436 
L 77.9465 33.247636 
" style="fill:none;stroke:#808080;stroke-dasharray:0.3,0.495;stroke-dashoffset:0;stroke-width:0.3;"/>
     </g>
     <g id="line2d_2">
      <defs>
       <path d="M 0 0 
L 0 3.5 
" id="mba12df3f6f" style="stroke:#000000;stroke-width:0.8;"/>
      </defs>
      <g>
       <use style="stroke:#000000;stroke-width:0.8;" x="77.9465" xlink:href="#mba12df3f6f" y="379.124436"/>
      </g>
     </g>
     <g id="text_1">
      <!-- 0 -->
      <defs>
       <path d="M 31.78125 66.40625 
Q 24.171875 66.40625 20.328125 58.90625 
Q 16.5 51.421875 16.5 36.375 
Q 16.5 21.390625 20.328125 13.890625 
Q 24.171875 6.390625 31.78125 6.390625 
Q 39.453125 6.390625 43.28125 13.890625 
Q 47.125 21.390625 47.125 36.375 
Q 47.125 51.421875 43.28125 58.90625 
Q 39.453125 66.40625 31.78125 66.40625 
z
M 31.78125 74.21875 
Q 44.046875 74.21875 50.515625 64.515625 
Q 56.984375 54.828125 56.984375 36.375 
Q 56.984375 17.96875 50.515625 8.265625 
Q 44.046875 -1.421875 31.78125 -1.421875 
Q 19.53125 -1.421875 13.0625 8.265625 
Q 6.59375 17.96875 6.59375 36.375 
Q 6.59375 54.828125 13.0625 64.515625 
Q 19.53125 74.21875 31.78125 74.21875 
z
" id="DejaVuSans-48"/>
      </defs>
      <g transform="translate(74.129 395.242561)scale(0.12 -0.12)">
       <use xlink:href="#DejaVuSans-48"/>
      </g>
     </g>
    </g>
    <g id="xtick_2">
     <g id="line2d_3">
      <path clip-path="url(#pcc6cb3994a)" d="M 271.316292 379.124436 
L 271.316292 33.247636 
" style="fill:none;stroke:#808080;stroke-dasharray:0.3,0.495;stroke-dashoffset:0;stroke-width:0.3;"/>
     </g>
     <g id="line2d_4">
      <g>
       <use style="stroke:#000000;stroke-width:0.8;" x="271.316292" xlink:href="#mba12df3f6f" y="379.124436"/>
      </g>
     </g>
     <g id="text_2">
      <!-- 20 -->
      <defs>
       <path d="M 19.1875 8.296875 
L 53.609375 8.296875 
L 53.609375 0 
L 7.328125 0 
L 7.328125 8.296875 
Q 12.9375 14.109375 22.625 23.890625 
Q 32.328125 33.6875 34.8125 36.53125 
Q 39.546875 41.84375 41.421875 45.53125 
Q 43.3125 49.21875 43.3125 52.78125 
Q 43.3125 58.59375 39.234375 62.25 
Q 35.15625 65.921875 28.609375 65.921875 
Q 23.96875 65.921875 18.8125 64.3125 
Q 13.671875 62.703125 7.8125 59.421875 
L 7.8125 69.390625 
Q 13.765625 71.78125 18.9375 73 
Q 24.125 74.21875 28.421875 74.21875 
Q 39.75 74.21875 46.484375 68.546875 
Q 53.21875 62.890625 53.21875 53.421875 
Q 53.21875 48.921875 51.53125 44.890625 
Q 49.859375 40.875 45.40625 35.40625 
Q 44.1875 33.984375 37.640625 27.21875 
Q 31.109375 20.453125 19.1875 8.296875 
z
" id="DejaVuSans-50"/>
      </defs>
      <g transform="translate(263.681292 395.242561)scale(0.12 -0.12)">
       <use xlink:href="#DejaVuSans-50"/>
       <use x="63.623047" xlink:href="#DejaVuSans-48"/>
      </g>
     </g>
    </g>
    <g id="xtick_3">
     <g id="line2d_5">
      <path clip-path="url(#pcc6cb3994a)" d="M 464.686083 379.124436 
L 464.686083 33.247636 
" style="fill:none;stroke:#808080;stroke-dasharray:0.3,0.495;stroke-dashoffset:0;stroke-width:0.3;"/>
     </g>
     <g id="line2d_6">
      <g>
       <use style="stroke:#000000;stroke-width:0.8;" x="464.686083" xlink:href="#mba12df3f6f" y="379.124436"/>
      </g>
     </g>
     <g id="text_3">
      <!-- 40 -->
      <defs>
       <path d="M 37.796875 64.3125 
L 12.890625 25.390625 
L 37.796875 25.390625 
z
M 35.203125 72.90625 
L 47.609375 72.90625 
L 47.609375 25.390625 
L 58.015625 25.390625 
L 58.015625 17.1875 
L 47.609375 17.1875 
L 47.609375 0 
L 37.796875 0 
L 37.796875 17.1875 
L 4.890625 17.1875 
L 4.890625 26.703125 
z
" id="DejaVuSans-52"/>
      </defs>
      <g transform="translate(457.051083 395.242561)scale(0.12 -0.12)">
       <use xlink:href="#DejaVuSans-52"/>
       <use x="63.623047" xlink:href="#DejaVuSans-48"/>
      </g>
     </g>
    </g>
    <g id="xtick_4">
     <g id="line2d_7">
      <path clip-path="url(#pcc6cb3994a)" d="M 658.055875 379.124436 
L 658.055875 33.247636 
" style="fill:none;stroke:#808080;stroke-dasharray:0.3,0.495;stroke-dashoffset:0;stroke-width:0.3;"/>
     </g>
     <g id="line2d_8">
      <g>
       <use style="stroke:#000000;stroke-width:0.8;" x="658.055875" xlink:href="#mba12df3f6f" y="379.124436"/>
      </g>
     </g>
     <g id="text_4">
      <!-- 60 -->
      <defs>
       <path d="M 33.015625 40.375 
Q 26.375 40.375 22.484375 35.828125 
Q 18.609375 31.296875 18.609375 23.390625 
Q 18.609375 15.53125 22.484375 10.953125 
Q 26.375 6.390625 33.015625 6.390625 
Q 39.65625 6.390625 43.53125 10.953125 
Q 47.40625 15.53125 47.40625 23.390625 
Q 47.40625 31.296875 43.53125 35.828125 
Q 39.65625 40.375 33.015625 40.375 
z
M 52.59375 71.296875 
L 52.59375 62.3125 
Q 48.875 64.0625 45.09375 64.984375 
Q 41.3125 65.921875 37.59375 65.921875 
Q 27.828125 65.921875 22.671875 59.328125 
Q 17.53125 52.734375 16.796875 39.40625 
Q 19.671875 43.65625 24.015625 45.921875 
Q 28.375 48.1875 33.59375 48.1875 
Q 44.578125 48.1875 50.953125 41.515625 
Q 57.328125 34.859375 57.328125 23.390625 
Q 57.328125 12.15625 50.6875 5.359375 
Q 44.046875 -1.421875 33.015625 -1.421875 
Q 20.359375 -1.421875 13.671875 8.265625 
Q 6.984375 17.96875 6.984375 36.375 
Q 6.984375 53.65625 15.1875 63.9375 
Q 23.390625 74.21875 37.203125 74.21875 
Q 40.921875 74.21875 44.703125 73.484375 
Q 48.484375 72.75 52.59375 71.296875 
z
" id="DejaVuSans-54"/>
      </defs>
      <g transform="translate(650.420875 395.242561)scale(0.12 -0.12)">
       <use xlink:href="#DejaVuSans-54"/>
       <use x="63.623047" xlink:href="#DejaVuSans-48"/>
      </g>
     </g>
    </g>
    <g id="xtick_5">
     <g id="line2d_9">
      <path clip-path="url(#pcc6cb3994a)" d="M 851.425667 379.124436 
L 851.425667 33.247636 
" style="fill:none;stroke:#808080;stroke-dasharray:0.3,0.495;stroke-dashoffset:0;stroke-width:0.3;"/>
     </g>
     <g id="line2d_10">
      <g>
       <use style="stroke:#000000;stroke-width:0.8;" x="851.425667" xlink:href="#mba12df3f6f" y="379.124436"/>
      </g>
     </g>
     <g id="text_5">
      <!-- 80 -->
      <defs>
       <path d="M 31.78125 34.625 
Q 24.75 34.625 20.71875 30.859375 
Q 16.703125 27.09375 16.703125 20.515625 
Q 16.703125 13.921875 20.71875 10.15625 
Q 24.75 6.390625 31.78125 6.390625 
Q 38.8125 6.390625 42.859375 10.171875 
Q 46.921875 13.96875 46.921875 20.515625 
Q 46.921875 27.09375 42.890625 30.859375 
Q 38.875 34.625 31.78125 34.625 
z
M 21.921875 38.8125 
Q 15.578125 40.375 12.03125 44.71875 
Q 8.5 49.078125 8.5 55.328125 
Q 8.5 64.0625 14.71875 69.140625 
Q 20.953125 74.21875 31.78125 74.21875 
Q 42.671875 74.21875 48.875 69.140625 
Q 55.078125 64.0625 55.078125 55.328125 
Q 55.078125 49.078125 51.53125 44.71875 
Q 48 40.375 41.703125 38.8125 
Q 48.828125 37.15625 52.796875 32.3125 
Q 56.78125 27.484375 56.78125 20.515625 
Q 56.78125 9.90625 50.3125 4.234375 
Q 43.84375 -1.421875 31.78125 -1.421875 
Q 19.734375 -1.421875 13.25 4.234375 
Q 6.78125 9.90625 6.78125 20.515625 
Q 6.78125 27.484375 10.78125 32.3125 
Q 14.796875 37.15625 21.921875 38.8125 
z
M 18.3125 54.390625 
Q 18.3125 48.734375 21.84375 45.5625 
Q 25.390625 42.390625 31.78125 42.390625 
Q 38.140625 42.390625 41.71875 45.5625 
Q 45.3125 48.734375 45.3125 54.390625 
Q 45.3125 60.0625 41.71875 63.234375 
Q 38.140625 66.40625 31.78125 66.40625 
Q 25.390625 66.40625 21.84375 63.234375 
Q 18.3125 60.0625 18.3125 54.390625 
z
" id="DejaVuSans-56"/>
      </defs>
      <g transform="translate(843.790667 395.242561)scale(0.12 -0.12)">
       <use xlink:href="#DejaVuSans-56"/>
       <use x="63.623047" xlink:href="#DejaVuSans-48"/>
      </g>
     </g>
    </g>
    <g id="text_6">
     <!-- Time (in hours) -->
     <defs>
      <path d="M -0.296875 72.90625 
L 61.375 72.90625 
L 61.375 64.59375 
L 35.5 64.59375 
L 35.5 0 
L 25.59375 0 
L 25.59375 64.59375 
L -0.296875 64.59375 
z
" id="DejaVuSans-84"/>
      <path d="M 9.421875 54.6875 
L 18.40625 54.6875 
L 18.40625 0 
L 9.421875 0 
z
M 9.421875 75.984375 
L 18.40625 75.984375 
L 18.40625 64.59375 
L 9.421875 64.59375 
z
" id="DejaVuSans-105"/>
      <path d="M 52 44.1875 
Q 55.375 50.25 60.0625 53.125 
Q 64.75 56 71.09375 56 
Q 79.640625 56 84.28125 50.015625 
Q 88.921875 44.046875 88.921875 33.015625 
L 88.921875 0 
L 79.890625 0 
L 79.890625 32.71875 
Q 79.890625 40.578125 77.09375 44.375 
Q 74.3125 48.1875 68.609375 48.1875 
Q 61.625 48.1875 57.5625 43.546875 
Q 53.515625 38.921875 53.515625 30.90625 
L 53.515625 0 
L 44.484375 0 
L 44.484375 32.71875 
Q 44.484375 40.625 41.703125 44.40625 
Q 38.921875 48.1875 33.109375 48.1875 
Q 26.21875 48.1875 22.15625 43.53125 
Q 18.109375 38.875 18.109375 30.90625 
L 18.109375 0 
L 9.078125 0 
L 9.078125 54.6875 
L 18.109375 54.6875 
L 18.109375 46.1875 
Q 21.1875 51.21875 25.484375 53.609375 
Q 29.78125 56 35.6875 56 
Q 41.65625 56 45.828125 52.96875 
Q 50 49.953125 52 44.1875 
z
" id="DejaVuSans-109"/>
      <path d="M 56.203125 29.59375 
L 56.203125 25.203125 
L 14.890625 25.203125 
Q 15.484375 15.921875 20.484375 11.0625 
Q 25.484375 6.203125 34.421875 6.203125 
Q 39.59375 6.203125 44.453125 7.46875 
Q 49.3125 8.734375 54.109375 11.28125 
L 54.109375 2.78125 
Q 49.265625 0.734375 44.1875 -0.34375 
Q 39.109375 -1.421875 33.890625 -1.421875 
Q 20.796875 -1.421875 13.15625 6.1875 
Q 5.515625 13.8125 5.515625 26.8125 
Q 5.515625 40.234375 12.765625 48.109375 
Q 20.015625 56 32.328125 56 
Q 43.359375 56 49.78125 48.890625 
Q 56.203125 41.796875 56.203125 29.59375 
z
M 47.21875 32.234375 
Q 47.125 39.59375 43.09375 43.984375 
Q 39.0625 48.390625 32.421875 48.390625 
Q 24.90625 48.390625 20.390625 44.140625 
Q 15.875 39.890625 15.1875 32.171875 
z
" id="DejaVuSans-101"/>
      <path id="DejaVuSans-32"/>
      <path d="M 31 75.875 
Q 24.46875 64.65625 21.28125 53.65625 
Q 18.109375 42.671875 18.109375 31.390625 
Q 18.109375 20.125 21.3125 9.0625 
Q 24.515625 -2 31 -13.1875 
L 23.1875 -13.1875 
Q 15.875 -1.703125 12.234375 9.375 
Q 8.59375 20.453125 8.59375 31.390625 
Q 8.59375 42.28125 12.203125 53.3125 
Q 15.828125 64.359375 23.1875 75.875 
z
" id="DejaVuSans-40"/>
      <path d="M 54.890625 33.015625 
L 54.890625 0 
L 45.90625 0 
L 45.90625 32.71875 
Q 45.90625 40.484375 42.875 44.328125 
Q 39.84375 48.1875 33.796875 48.1875 
Q 26.515625 48.1875 22.3125 43.546875 
Q 18.109375 38.921875 18.109375 30.90625 
L 18.109375 0 
L 9.078125 0 
L 9.078125 54.6875 
L 18.109375 54.6875 
L 18.109375 46.1875 
Q 21.34375 51.125 25.703125 53.5625 
Q 30.078125 56 35.796875 56 
Q 45.21875 56 50.046875 50.171875 
Q 54.890625 44.34375 54.890625 33.015625 
z
" id="DejaVuSans-110"/>
      <path d="M 54.890625 33.015625 
L 54.890625 0 
L 45.90625 0 
L 45.90625 32.71875 
Q 45.90625 40.484375 42.875 44.328125 
Q 39.84375 48.1875 33.796875 48.1875 
Q 26.515625 48.1875 22.3125 43.546875 
Q 18.109375 38.921875 18.109375 30.90625 
L 18.109375 0 
L 9.078125 0 
L 9.078125 75.984375 
L 18.109375 75.984375 
L 18.109375 46.1875 
Q 21.34375 51.125 25.703125 53.5625 
Q 30.078125 56 35.796875 56 
Q 45.21875 56 50.046875 50.171875 
Q 54.890625 44.34375 54.890625 33.015625 
z
" id="DejaVuSans-104"/>
      <path d="M 30.609375 48.390625 
Q 23.390625 48.390625 19.1875 42.75 
Q 14.984375 37.109375 14.984375 27.296875 
Q 14.984375 17.484375 19.15625 11.84375 
Q 23.34375 6.203125 30.609375 6.203125 
Q 37.796875 6.203125 41.984375 11.859375 
Q 46.1875 17.53125 46.1875 27.296875 
Q 46.1875 37.015625 41.984375 42.703125 
Q 37.796875 48.390625 30.609375 48.390625 
z
M 30.609375 56 
Q 42.328125 56 49.015625 48.375 
Q 55.71875 40.765625 55.71875 27.296875 
Q 55.71875 13.875 49.015625 6.21875 
Q 42.328125 -1.421875 30.609375 -1.421875 
Q 18.84375 -1.421875 12.171875 6.21875 
Q 5.515625 13.875 5.515625 27.296875 
Q 5.515625 40.765625 12.171875 48.375 
Q 18.84375 56 30.609375 56 
z
" id="DejaVuSans-111"/>
      <path d="M 8.5 21.578125 
L 8.5 54.6875 
L 17.484375 54.6875 
L 17.484375 21.921875 
Q 17.484375 14.15625 20.5 10.265625 
Q 23.53125 6.390625 29.59375 6.390625 
Q 36.859375 6.390625 41.078125 11.03125 
Q 45.3125 15.671875 45.3125 23.6875 
L 45.3125 54.6875 
L 54.296875 54.6875 
L 54.296875 0 
L 45.3125 0 
L 45.3125 8.40625 
Q 42.046875 3.421875 37.71875 1 
Q 33.40625 -1.421875 27.6875 -1.421875 
Q 18.265625 -1.421875 13.375 4.4375 
Q 8.5 10.296875 8.5 21.578125 
z
M 31.109375 56 
z
" id="DejaVuSans-117"/>
      <path d="M 41.109375 46.296875 
Q 39.59375 47.171875 37.8125 47.578125 
Q 36.03125 48 33.890625 48 
Q 26.265625 48 22.1875 43.046875 
Q 18.109375 38.09375 18.109375 28.8125 
L 18.109375 0 
L 9.078125 0 
L 9.078125 54.6875 
L 18.109375 54.6875 
L 18.109375 46.1875 
Q 20.953125 51.171875 25.484375 53.578125 
Q 30.03125 56 36.53125 56 
Q 37.453125 56 38.578125 55.875 
Q 39.703125 55.765625 41.0625 55.515625 
z
" id="DejaVuSans-114"/>
      <path d="M 44.28125 53.078125 
L 44.28125 44.578125 
Q 40.484375 46.53125 36.375 47.5 
Q 32.28125 48.484375 27.875 48.484375 
Q 21.1875 48.484375 17.84375 46.4375 
Q 14.5 44.390625 14.5 40.28125 
Q 14.5 37.15625 16.890625 35.375 
Q 19.28125 33.59375 26.515625 31.984375 
L 29.59375 31.296875 
Q 39.15625 29.25 43.1875 25.515625 
Q 47.21875 21.78125 47.21875 15.09375 
Q 47.21875 7.46875 41.1875 3.015625 
Q 35.15625 -1.421875 24.609375 -1.421875 
Q 20.21875 -1.421875 15.453125 -0.5625 
Q 10.6875 0.296875 5.421875 2 
L 5.421875 11.28125 
Q 10.40625 8.6875 15.234375 7.390625 
Q 20.0625 6.109375 24.8125 6.109375 
Q 31.15625 6.109375 34.5625 8.28125 
Q 37.984375 10.453125 37.984375 14.40625 
Q 37.984375 18.0625 35.515625 20.015625 
Q 33.0625 21.96875 24.703125 23.78125 
L 21.578125 24.515625 
Q 13.234375 26.265625 9.515625 29.90625 
Q 5.8125 33.546875 5.8125 39.890625 
Q 5.8125 47.609375 11.28125 51.796875 
Q 16.75 56 26.8125 56 
Q 31.78125 56 36.171875 55.265625 
Q 40.578125 54.546875 44.28125 53.078125 
z
" id="DejaVuSans-115"/>
      <path d="M 8.015625 75.875 
L 15.828125 75.875 
Q 23.140625 64.359375 26.78125 53.3125 
Q 30.421875 42.28125 30.421875 31.390625 
Q 30.421875 20.453125 26.78125 9.375 
Q 23.140625 -1.703125 15.828125 -13.1875 
L 8.015625 -13.1875 
Q 14.5 -2 17.703125 9.0625 
Q 20.90625 20.125 20.90625 31.390625 
Q 20.90625 42.671875 17.703125 53.65625 
Q 14.5 64.65625 8.015625 75.875 
z
" id="DejaVuSans-41"/>
     </defs>
     <g transform="translate(487.195875 412.679936)scale(0.144 -0.144)">
      <use xlink:href="#DejaVuSans-84"/>
      <use x="61.037109" xlink:href="#DejaVuSans-105"/>
      <use x="88.820312" xlink:href="#DejaVuSans-109"/>
      <use x="186.232422" xlink:href="#DejaVuSans-101"/>
      <use x="247.755859" xlink:href="#DejaVuSans-32"/>
      <use x="279.542969" xlink:href="#DejaVuSans-40"/>
      <use x="318.556641" xlink:href="#DejaVuSans-105"/>
      <use x="346.339844" xlink:href="#DejaVuSans-110"/>
      <use x="409.71875" xlink:href="#DejaVuSans-32"/>
      <use x="441.505859" xlink:href="#DejaVuSans-104"/>
      <use x="504.884766" xlink:href="#DejaVuSans-111"/>
      <use x="566.066406" xlink:href="#DejaVuSans-117"/>
      <use x="629.445312" xlink:href="#DejaVuSans-114"/>
      <use x="670.558594" xlink:href="#DejaVuSans-115"/>
      <use x="722.658203" xlink:href="#DejaVuSans-41"/>
     </g>
    </g>
   </g>
   <g id="matplotlib.axis_2">
    <g id="ytick_1">
     <g id="line2d_11">
      <path clip-path="url(#pcc6cb3994a)" d="M 77.9465 379.124436 
L 1006.1215 379.124436 
" style="fill:none;stroke:#808080;stroke-dasharray:0.3,0.495;stroke-dashoffset:0;stroke-width:0.3;"/>
     </g>
     <g id="line2d_12">
      <defs>
       <path d="M 0 0 
L -3.5 0 
" id="mf0916e693c" style="stroke:#000000;stroke-width:0.8;"/>
      </defs>
      <g>
       <use style="stroke:#000000;stroke-width:0.8;" x="77.9465" xlink:href="#mf0916e693c" y="379.124436"/>
      </g>
     </g>
     <g id="text_7">
      <!-- 0 -->
      <g transform="translate(63.3115 383.683498)scale(0.12 -0.12)">
       <use xlink:href="#DejaVuSans-48"/>
      </g>
     </g>
    </g>
    <g id="ytick_2">
     <g id="line2d_13">
      <path clip-path="url(#pcc6cb3994a)" d="M 77.9465 316.338443 
L 1006.1215 316.338443 
" style="fill:none;stroke:#808080;stroke-dasharray:0.3,0.495;stroke-dashoffset:0;stroke-width:0.3;"/>
     </g>
     <g id="line2d_14">
      <g>
       <use style="stroke:#000000;stroke-width:0.8;" x="77.9465" xlink:href="#mf0916e693c" y="316.338443"/>
      </g>
     </g>
     <g id="text_8">
      <!-- 20000 -->
      <g transform="translate(32.7715 320.897506)scale(0.12 -0.12)">
       <use xlink:href="#DejaVuSans-50"/>
       <use x="63.623047" xlink:href="#DejaVuSans-48"/>
       <use x="127.246094" xlink:href="#DejaVuSans-48"/>
       <use x="190.869141" xlink:href="#DejaVuSans-48"/>
       <use x="254.492188" xlink:href="#DejaVuSans-48"/>
      </g>
     </g>
    </g>
    <g id="ytick_3">
     <g id="line2d_15">
      <path clip-path="url(#pcc6cb3994a)" d="M 77.9465 253.552451 
L 1006.1215 253.552451 
" style="fill:none;stroke:#808080;stroke-dasharray:0.3,0.495;stroke-dashoffset:0;stroke-width:0.3;"/>
     </g>
     <g id="line2d_16">
      <g>
       <use style="stroke:#000000;stroke-width:0.8;" x="77.9465" xlink:href="#mf0916e693c" y="253.552451"/>
      </g>
     </g>
     <g id="text_9">
      <!-- 40000 -->
      <g transform="translate(32.7715 258.111513)scale(0.12 -0.12)">
       <use xlink:href="#DejaVuSans-52"/>
       <use x="63.623047" xlink:href="#DejaVuSans-48"/>
       <use x="127.246094" xlink:href="#DejaVuSans-48"/>
       <use x="190.869141" xlink:href="#DejaVuSans-48"/>
       <use x="254.492188" xlink:href="#DejaVuSans-48"/>
      </g>
     </g>
    </g>
    <g id="ytick_4">
     <g id="line2d_17">
      <path clip-path="url(#pcc6cb3994a)" d="M 77.9465 190.766458 
L 1006.1215 190.766458 
" style="fill:none;stroke:#808080;stroke-dasharray:0.3,0.495;stroke-dashoffset:0;stroke-width:0.3;"/>
     </g>
     <g id="line2d_18">
      <g>
       <use style="stroke:#000000;stroke-width:0.8;" x="77.9465" xlink:href="#mf0916e693c" y="190.766458"/>
      </g>
     </g>
     <g id="text_10">
      <!-- 60000 -->
      <g transform="translate(32.7715 195.325521)scale(0.12 -0.12)">
       <use xlink:href="#DejaVuSans-54"/>
       <use x="63.623047" xlink:href="#DejaVuSans-48"/>
       <use x="127.246094" xlink:href="#DejaVuSans-48"/>
       <use x="190.869141" xlink:href="#DejaVuSans-48"/>
       <use x="254.492188" xlink:href="#DejaVuSans-48"/>
      </g>
     </g>
    </g>
    <g id="ytick_5">
     <g id="line2d_19">
      <path clip-path="url(#pcc6cb3994a)" d="M 77.9465 127.980465 
L 1006.1215 127.980465 
" style="fill:none;stroke:#808080;stroke-dasharray:0.3,0.495;stroke-dashoffset:0;stroke-width:0.3;"/>
     </g>
     <g id="line2d_20">
      <g>
       <use style="stroke:#000000;stroke-width:0.8;" x="77.9465" xlink:href="#mf0916e693c" y="127.980465"/>
      </g>
     </g>
     <g id="text_11">
      <!-- 80000 -->
      <g transform="translate(32.7715 132.539528)scale(0.12 -0.12)">
       <use xlink:href="#DejaVuSans-56"/>
       <use x="63.623047" xlink:href="#DejaVuSans-48"/>
       <use x="127.246094" xlink:href="#DejaVuSans-48"/>
       <use x="190.869141" xlink:href="#DejaVuSans-48"/>
       <use x="254.492188" xlink:href="#DejaVuSans-48"/>
      </g>
     </g>
    </g>
    <g id="ytick_6">
     <g id="line2d_21">
      <path clip-path="url(#pcc6cb3994a)" d="M 77.9465 65.194473 
L 1006.1215 65.194473 
" style="fill:none;stroke:#808080;stroke-dasharray:0.3,0.495;stroke-dashoffset:0;stroke-width:0.3;"/>
     </g>
     <g id="line2d_22">
      <g>
       <use style="stroke:#000000;stroke-width:0.8;" x="77.9465" xlink:href="#mf0916e693c" y="65.194473"/>
      </g>
     </g>
     <g id="text_12">
      <!-- 100000 -->
      <defs>
       <path d="M 12.40625 8.296875 
L 28.515625 8.296875 
L 28.515625 63.921875 
L 10.984375 60.40625 
L 10.984375 69.390625 
L 28.421875 72.90625 
L 38.28125 72.90625 
L 38.28125 8.296875 
L 54.390625 8.296875 
L 54.390625 0 
L 12.40625 0 
z
" id="DejaVuSans-49"/>
      </defs>
      <g transform="translate(25.1365 69.753535)scale(0.12 -0.12)">
       <use xlink:href="#DejaVuSans-49"/>
       <use x="63.623047" xlink:href="#DejaVuSans-48"/>
       <use x="127.246094" xlink:href="#DejaVuSans-48"/>
       <use x="190.869141" xlink:href="#DejaVuSans-48"/>
       <use x="254.492188" xlink:href="#DejaVuSans-48"/>
       <use x="318.115234" xlink:href="#DejaVuSans-48"/>
      </g>
     </g>
    </g>
    <g id="text_13">
     <!-- Energy [Wh] -->
     <defs>
      <path d="M 9.8125 72.90625 
L 55.90625 72.90625 
L 55.90625 64.59375 
L 19.671875 64.59375 
L 19.671875 43.015625 
L 54.390625 43.015625 
L 54.390625 34.71875 
L 19.671875 34.71875 
L 19.671875 8.296875 
L 56.78125 8.296875 
L 56.78125 0 
L 9.8125 0 
z
" id="DejaVuSans-69"/>
      <path d="M 45.40625 27.984375 
Q 45.40625 37.75 41.375 43.109375 
Q 37.359375 48.484375 30.078125 48.484375 
Q 22.859375 48.484375 18.828125 43.109375 
Q 14.796875 37.75 14.796875 27.984375 
Q 14.796875 18.265625 18.828125 12.890625 
Q 22.859375 7.515625 30.078125 7.515625 
Q 37.359375 7.515625 41.375 12.890625 
Q 45.40625 18.265625 45.40625 27.984375 
z
M 54.390625 6.78125 
Q 54.390625 -7.171875 48.1875 -13.984375 
Q 42 -20.796875 29.203125 -20.796875 
Q 24.46875 -20.796875 20.265625 -20.09375 
Q 16.0625 -19.390625 12.109375 -17.921875 
L 12.109375 -9.1875 
Q 16.0625 -11.328125 19.921875 -12.34375 
Q 23.78125 -13.375 27.78125 -13.375 
Q 36.625 -13.375 41.015625 -8.765625 
Q 45.40625 -4.15625 45.40625 5.171875 
L 45.40625 9.625 
Q 42.625 4.78125 38.28125 2.390625 
Q 33.9375 0 27.875 0 
Q 17.828125 0 11.671875 7.65625 
Q 5.515625 15.328125 5.515625 27.984375 
Q 5.515625 40.671875 11.671875 48.328125 
Q 17.828125 56 27.875 56 
Q 33.9375 56 38.28125 53.609375 
Q 42.625 51.21875 45.40625 46.390625 
L 45.40625 54.6875 
L 54.390625 54.6875 
z
" id="DejaVuSans-103"/>
      <path d="M 32.171875 -5.078125 
Q 28.375 -14.84375 24.75 -17.8125 
Q 21.140625 -20.796875 15.09375 -20.796875 
L 7.90625 -20.796875 
L 7.90625 -13.28125 
L 13.1875 -13.28125 
Q 16.890625 -13.28125 18.9375 -11.515625 
Q 21 -9.765625 23.484375 -3.21875 
L 25.09375 0.875 
L 2.984375 54.6875 
L 12.5 54.6875 
L 29.59375 11.921875 
L 46.6875 54.6875 
L 56.203125 54.6875 
z
" id="DejaVuSans-121"/>
      <path d="M 8.59375 75.984375 
L 29.296875 75.984375 
L 29.296875 69 
L 17.578125 69 
L 17.578125 -6.203125 
L 29.296875 -6.203125 
L 29.296875 -13.1875 
L 8.59375 -13.1875 
z
" id="DejaVuSans-91"/>
      <path d="M 3.328125 72.90625 
L 13.28125 72.90625 
L 28.609375 11.28125 
L 43.890625 72.90625 
L 54.984375 72.90625 
L 70.3125 11.28125 
L 85.59375 72.90625 
L 95.609375 72.90625 
L 77.296875 0 
L 64.890625 0 
L 49.515625 63.28125 
L 33.984375 0 
L 21.578125 0 
z
" id="DejaVuSans-87"/>
      <path d="M 30.421875 75.984375 
L 30.421875 -13.1875 
L 9.71875 -13.1875 
L 9.71875 -6.203125 
L 21.390625 -6.203125 
L 21.390625 69 
L 9.71875 69 
L 9.71875 75.984375 
z
" id="DejaVuSans-93"/>
     </defs>
     <g transform="translate(18.14175 251.108411)rotate(-90)scale(0.144 -0.144)">
      <use xlink:href="#DejaVuSans-69"/>
      <use x="63.183594" xlink:href="#DejaVuSans-110"/>
      <use x="126.5625" xlink:href="#DejaVuSans-101"/>
      <use x="188.085938" xlink:href="#DejaVuSans-114"/>
      <use x="229.183594" xlink:href="#DejaVuSans-103"/>
      <use x="292.660156" xlink:href="#DejaVuSans-121"/>
      <use x="351.839844" xlink:href="#DejaVuSans-32"/>
      <use x="383.626953" xlink:href="#DejaVuSans-91"/>
      <use x="422.640625" xlink:href="#DejaVuSans-87"/>
      <use x="521.517578" xlink:href="#DejaVuSans-104"/>
      <use x="584.896484" xlink:href="#DejaVuSans-93"/>
     </g>
    </g>
   </g>
   <g id="patch_99">
    <path d="M 77.9465 379.124436 
L 77.9465 33.247636 
" style="fill:none;stroke:#000000;stroke-linecap:square;stroke-linejoin:miter;stroke-width:0.8;"/>
   </g>
   <g id="patch_100">
    <path d="M 1006.1215 379.124436 
L 1006.1215 33.247636 
" style="fill:none;stroke:#000000;stroke-linecap:square;stroke-linejoin:miter;stroke-width:0.8;"/>
   </g>
   <g id="patch_101">
    <path d="M 77.9465 379.124436 
L 1006.1215 379.124436 
" style="fill:none;stroke:#000000;stroke-linecap:square;stroke-linejoin:miter;stroke-width:0.8;"/>
   </g>
   <g id="patch_102">
    <path d="M 77.9465 33.247636 
L 1006.1215 33.247636 
" style="fill:none;stroke:#000000;stroke-linecap:square;stroke-linejoin:miter;stroke-width:0.8;"/>
   </g>
   <g id="text_14">
    <!-- 06-Nov-2019, 19:00 -->
    <defs>
     <path d="M 4.890625 31.390625 
L 31.203125 31.390625 
L 31.203125 23.390625 
L 4.890625 23.390625 
z
" id="DejaVuSans-45"/>
     <path d="M 9.8125 72.90625 
L 23.09375 72.90625 
L 55.421875 11.921875 
L 55.421875 72.90625 
L 64.984375 72.90625 
L 64.984375 0 
L 51.703125 0 
L 19.390625 60.984375 
L 19.390625 0 
L 9.8125 0 
z
" id="DejaVuSans-78"/>
     <path d="M 2.984375 54.6875 
L 12.5 54.6875 
L 29.59375 8.796875 
L 46.6875 54.6875 
L 56.203125 54.6875 
L 35.6875 0 
L 23.484375 0 
z
" id="DejaVuSans-118"/>
     <path d="M 10.984375 1.515625 
L 10.984375 10.5 
Q 14.703125 8.734375 18.5 7.8125 
Q 22.3125 6.890625 25.984375 6.890625 
Q 35.75 6.890625 40.890625 13.453125 
Q 46.046875 20.015625 46.78125 33.40625 
Q 43.953125 29.203125 39.59375 26.953125 
Q 35.25 24.703125 29.984375 24.703125 
Q 19.046875 24.703125 12.671875 31.3125 
Q 6.296875 37.9375 6.296875 49.421875 
Q 6.296875 60.640625 12.9375 67.421875 
Q 19.578125 74.21875 30.609375 74.21875 
Q 43.265625 74.21875 49.921875 64.515625 
Q 56.59375 54.828125 56.59375 36.375 
Q 56.59375 19.140625 48.40625 8.859375 
Q 40.234375 -1.421875 26.421875 -1.421875 
Q 22.703125 -1.421875 18.890625 -0.6875 
Q 15.09375 0.046875 10.984375 1.515625 
z
M 30.609375 32.421875 
Q 37.25 32.421875 41.125 36.953125 
Q 45.015625 41.5 45.015625 49.421875 
Q 45.015625 57.28125 41.125 61.84375 
Q 37.25 66.40625 30.609375 66.40625 
Q 23.96875 66.40625 20.09375 61.84375 
Q 16.21875 57.28125 16.21875 49.421875 
Q 16.21875 41.5 20.09375 36.953125 
Q 23.96875 32.421875 30.609375 32.421875 
z
" id="DejaVuSans-57"/>
     <path d="M 11.71875 12.40625 
L 22.015625 12.40625 
L 22.015625 4 
L 14.015625 -11.625 
L 7.71875 -11.625 
L 11.71875 4 
z
" id="DejaVuSans-44"/>
     <path d="M 11.71875 12.40625 
L 22.015625 12.40625 
L 22.015625 0 
L 11.71875 0 
z
M 11.71875 51.703125 
L 22.015625 51.703125 
L 22.015625 39.3125 
L 11.71875 39.3125 
z
" id="DejaVuSans-58"/>
    </defs>
    <g transform="translate(977.116031 96.587469)scale(0.16 -0.16)">
     <use xlink:href="#DejaVuSans-48"/>
     <use x="63.623047" xlink:href="#DejaVuSans-54"/>
     <use x="127.246094" xlink:href="#DejaVuSans-45"/>
     <use x="163.330078" xlink:href="#DejaVuSans-78"/>
     <use x="238.134766" xlink:href="#DejaVuSans-111"/>
     <use x="299.316406" xlink:href="#DejaVuSans-118"/>
     <use x="358.464844" xlink:href="#DejaVuSans-45"/>
     <use x="394.548828" xlink:href="#DejaVuSans-50"/>
     <use x="458.171875" xlink:href="#DejaVuSans-48"/>
     <use x="521.794922" xlink:href="#DejaVuSans-49"/>
     <use x="585.417969" xlink:href="#DejaVuSans-57"/>
     <use x="649.041016" xlink:href="#DejaVuSans-44"/>
     <use x="680.828125" xlink:href="#DejaVuSans-32"/>
     <use x="712.615234" xlink:href="#DejaVuSans-49"/>
     <use x="776.238281" xlink:href="#DejaVuSans-57"/>
     <use x="839.861328" xlink:href="#DejaVuSans-58"/>
     <use x="873.552734" xlink:href="#DejaVuSans-48"/>
     <use x="937.175781" xlink:href="#DejaVuSans-48"/>
    </g>
   </g>
   <g id="text_15">
    <!-- Expected energy consumption - Main Incomer, KFC (Bracknell, UK) -->
    <defs>
     <path d="M 54.890625 54.6875 
L 35.109375 28.078125 
L 55.90625 0 
L 45.3125 0 
L 29.390625 21.484375 
L 13.484375 0 
L 2.875 0 
L 24.125 28.609375 
L 4.6875 54.6875 
L 15.28125 54.6875 
L 29.78125 35.203125 
L 44.28125 54.6875 
z
" id="DejaVuSans-120"/>
     <path d="M 18.109375 8.203125 
L 18.109375 -20.796875 
L 9.078125 -20.796875 
L 9.078125 54.6875 
L 18.109375 54.6875 
L 18.109375 46.390625 
Q 20.953125 51.265625 25.265625 53.625 
Q 29.59375 56 35.59375 56 
Q 45.5625 56 51.78125 48.09375 
Q 58.015625 40.1875 58.015625 27.296875 
Q 58.015625 14.40625 51.78125 6.484375 
Q 45.5625 -1.421875 35.59375 -1.421875 
Q 29.59375 -1.421875 25.265625 0.953125 
Q 20.953125 3.328125 18.109375 8.203125 
z
M 48.6875 27.296875 
Q 48.6875 37.203125 44.609375 42.84375 
Q 40.53125 48.484375 33.40625 48.484375 
Q 26.265625 48.484375 22.1875 42.84375 
Q 18.109375 37.203125 18.109375 27.296875 
Q 18.109375 17.390625 22.1875 11.75 
Q 26.265625 6.109375 33.40625 6.109375 
Q 40.53125 6.109375 44.609375 11.75 
Q 48.6875 17.390625 48.6875 27.296875 
z
" id="DejaVuSans-112"/>
     <path d="M 48.78125 52.59375 
L 48.78125 44.1875 
Q 44.96875 46.296875 41.140625 47.34375 
Q 37.3125 48.390625 33.40625 48.390625 
Q 24.65625 48.390625 19.8125 42.84375 
Q 14.984375 37.3125 14.984375 27.296875 
Q 14.984375 17.28125 19.8125 11.734375 
Q 24.65625 6.203125 33.40625 6.203125 
Q 37.3125 6.203125 41.140625 7.25 
Q 44.96875 8.296875 48.78125 10.40625 
L 48.78125 2.09375 
Q 45.015625 0.34375 40.984375 -0.53125 
Q 36.96875 -1.421875 32.421875 -1.421875 
Q 20.0625 -1.421875 12.78125 6.34375 
Q 5.515625 14.109375 5.515625 27.296875 
Q 5.515625 40.671875 12.859375 48.328125 
Q 20.21875 56 33.015625 56 
Q 37.15625 56 41.109375 55.140625 
Q 45.0625 54.296875 48.78125 52.59375 
z
" id="DejaVuSans-99"/>
     <path d="M 18.3125 70.21875 
L 18.3125 54.6875 
L 36.8125 54.6875 
L 36.8125 47.703125 
L 18.3125 47.703125 
L 18.3125 18.015625 
Q 18.3125 11.328125 20.140625 9.421875 
Q 21.96875 7.515625 27.59375 7.515625 
L 36.8125 7.515625 
L 36.8125 0 
L 27.59375 0 
Q 17.1875 0 13.234375 3.875 
Q 9.28125 7.765625 9.28125 18.015625 
L 9.28125 47.703125 
L 2.6875 47.703125 
L 2.6875 54.6875 
L 9.28125 54.6875 
L 9.28125 70.21875 
z
" id="DejaVuSans-116"/>
     <path d="M 45.40625 46.390625 
L 45.40625 75.984375 
L 54.390625 75.984375 
L 54.390625 0 
L 45.40625 0 
L 45.40625 8.203125 
Q 42.578125 3.328125 38.25 0.953125 
Q 33.9375 -1.421875 27.875 -1.421875 
Q 17.96875 -1.421875 11.734375 6.484375 
Q 5.515625 14.40625 5.515625 27.296875 
Q 5.515625 40.1875 11.734375 48.09375 
Q 17.96875 56 27.875 56 
Q 33.9375 56 38.25 53.625 
Q 42.578125 51.265625 45.40625 46.390625 
z
M 14.796875 27.296875 
Q 14.796875 17.390625 18.875 11.75 
Q 22.953125 6.109375 30.078125 6.109375 
Q 37.203125 6.109375 41.296875 11.75 
Q 45.40625 17.390625 45.40625 27.296875 
Q 45.40625 37.203125 41.296875 42.84375 
Q 37.203125 48.484375 30.078125 48.484375 
Q 22.953125 48.484375 18.875 42.84375 
Q 14.796875 37.203125 14.796875 27.296875 
z
" id="DejaVuSans-100"/>
     <path d="M 9.8125 72.90625 
L 24.515625 72.90625 
L 43.109375 23.296875 
L 61.8125 72.90625 
L 76.515625 72.90625 
L 76.515625 0 
L 66.890625 0 
L 66.890625 64.015625 
L 48.09375 14.015625 
L 38.1875 14.015625 
L 19.390625 64.015625 
L 19.390625 0 
L 9.8125 0 
z
" id="DejaVuSans-77"/>
     <path d="M 34.28125 27.484375 
Q 23.390625 27.484375 19.1875 25 
Q 14.984375 22.515625 14.984375 16.5 
Q 14.984375 11.71875 18.140625 8.90625 
Q 21.296875 6.109375 26.703125 6.109375 
Q 34.1875 6.109375 38.703125 11.40625 
Q 43.21875 16.703125 43.21875 25.484375 
L 43.21875 27.484375 
z
M 52.203125 31.203125 
L 52.203125 0 
L 43.21875 0 
L 43.21875 8.296875 
Q 40.140625 3.328125 35.546875 0.953125 
Q 30.953125 -1.421875 24.3125 -1.421875 
Q 15.921875 -1.421875 10.953125 3.296875 
Q 6 8.015625 6 15.921875 
Q 6 25.140625 12.171875 29.828125 
Q 18.359375 34.515625 30.609375 34.515625 
L 43.21875 34.515625 
L 43.21875 35.40625 
Q 43.21875 41.609375 39.140625 45 
Q 35.0625 48.390625 27.6875 48.390625 
Q 23 48.390625 18.546875 47.265625 
Q 14.109375 46.140625 10.015625 43.890625 
L 10.015625 52.203125 
Q 14.9375 54.109375 19.578125 55.046875 
Q 24.21875 56 28.609375 56 
Q 40.484375 56 46.34375 49.84375 
Q 52.203125 43.703125 52.203125 31.203125 
z
" id="DejaVuSans-97"/>
     <path d="M 9.8125 72.90625 
L 19.671875 72.90625 
L 19.671875 0 
L 9.8125 0 
z
" id="DejaVuSans-73"/>
     <path d="M 9.8125 72.90625 
L 19.671875 72.90625 
L 19.671875 42.09375 
L 52.390625 72.90625 
L 65.09375 72.90625 
L 28.90625 38.921875 
L 67.671875 0 
L 54.6875 0 
L 19.671875 35.109375 
L 19.671875 0 
L 9.8125 0 
z
" id="DejaVuSans-75"/>
     <path d="M 9.8125 72.90625 
L 51.703125 72.90625 
L 51.703125 64.59375 
L 19.671875 64.59375 
L 19.671875 43.109375 
L 48.578125 43.109375 
L 48.578125 34.8125 
L 19.671875 34.8125 
L 19.671875 0 
L 9.8125 0 
z
" id="DejaVuSans-70"/>
     <path d="M 64.40625 67.28125 
L 64.40625 56.890625 
Q 59.421875 61.53125 53.78125 63.8125 
Q 48.140625 66.109375 41.796875 66.109375 
Q 29.296875 66.109375 22.65625 58.46875 
Q 16.015625 50.828125 16.015625 36.375 
Q 16.015625 21.96875 22.65625 14.328125 
Q 29.296875 6.6875 41.796875 6.6875 
Q 48.140625 6.6875 53.78125 8.984375 
Q 59.421875 11.28125 64.40625 15.921875 
L 64.40625 5.609375 
Q 59.234375 2.09375 53.4375 0.328125 
Q 47.65625 -1.421875 41.21875 -1.421875 
Q 24.65625 -1.421875 15.125 8.703125 
Q 5.609375 18.84375 5.609375 36.375 
Q 5.609375 53.953125 15.125 64.078125 
Q 24.65625 74.21875 41.21875 74.21875 
Q 47.75 74.21875 53.53125 72.484375 
Q 59.328125 70.75 64.40625 67.28125 
z
" id="DejaVuSans-67"/>
     <path d="M 19.671875 34.8125 
L 19.671875 8.109375 
L 35.5 8.109375 
Q 43.453125 8.109375 47.28125 11.40625 
Q 51.125 14.703125 51.125 21.484375 
Q 51.125 28.328125 47.28125 31.5625 
Q 43.453125 34.8125 35.5 34.8125 
z
M 19.671875 64.796875 
L 19.671875 42.828125 
L 34.28125 42.828125 
Q 41.5 42.828125 45.03125 45.53125 
Q 48.578125 48.25 48.578125 53.8125 
Q 48.578125 59.328125 45.03125 62.0625 
Q 41.5 64.796875 34.28125 64.796875 
z
M 9.8125 72.90625 
L 35.015625 72.90625 
Q 46.296875 72.90625 52.390625 68.21875 
Q 58.5 63.53125 58.5 54.890625 
Q 58.5 48.1875 55.375 44.234375 
Q 52.25 40.28125 46.1875 39.3125 
Q 53.46875 37.75 57.5 32.78125 
Q 61.53125 27.828125 61.53125 20.40625 
Q 61.53125 10.640625 54.890625 5.3125 
Q 48.25 0 35.984375 0 
L 9.8125 0 
z
" id="DejaVuSans-66"/>
     <path d="M 9.078125 75.984375 
L 18.109375 75.984375 
L 18.109375 31.109375 
L 44.921875 54.6875 
L 56.390625 54.6875 
L 27.390625 29.109375 
L 57.625 0 
L 45.90625 0 
L 18.109375 26.703125 
L 18.109375 0 
L 9.078125 0 
z
" id="DejaVuSans-107"/>
     <path d="M 9.421875 75.984375 
L 18.40625 75.984375 
L 18.40625 0 
L 9.421875 0 
z
" id="DejaVuSans-108"/>
     <path d="M 8.6875 72.90625 
L 18.609375 72.90625 
L 18.609375 28.609375 
Q 18.609375 16.890625 22.84375 11.734375 
Q 27.09375 6.59375 36.625 6.59375 
Q 46.09375 6.59375 50.34375 11.734375 
Q 54.59375 16.890625 54.59375 28.609375 
L 54.59375 72.90625 
L 64.5 72.90625 
L 64.5 27.390625 
Q 64.5 13.140625 57.4375 5.859375 
Q 50.390625 -1.421875 36.625 -1.421875 
Q 22.796875 -1.421875 15.734375 5.859375 
Q 8.6875 13.140625 8.6875 27.390625 
z
" id="DejaVuSans-85"/>
    </defs>
    <g transform="translate(253.4553 20.3301)scale(0.1728 -0.1728)">
     <use xlink:href="#DejaVuSans-69"/>
     <use x="63.183594" xlink:href="#DejaVuSans-120"/>
     <use x="122.363281" xlink:href="#DejaVuSans-112"/>
     <use x="185.839844" xlink:href="#DejaVuSans-101"/>
     <use x="247.363281" xlink:href="#DejaVuSans-99"/>
     <use x="302.34375" xlink:href="#DejaVuSans-116"/>
     <use x="341.552734" xlink:href="#DejaVuSans-101"/>
     <use x="403.076172" xlink:href="#DejaVuSans-100"/>
     <use x="466.552734" xlink:href="#DejaVuSans-32"/>
     <use x="498.339844" xlink:href="#DejaVuSans-101"/>
     <use x="559.863281" xlink:href="#DejaVuSans-110"/>
     <use x="623.242188" xlink:href="#DejaVuSans-101"/>
     <use x="684.765625" xlink:href="#DejaVuSans-114"/>
     <use x="725.863281" xlink:href="#DejaVuSans-103"/>
     <use x="789.339844" xlink:href="#DejaVuSans-121"/>
     <use x="848.519531" xlink:href="#DejaVuSans-32"/>
     <use x="880.306641" xlink:href="#DejaVuSans-99"/>
     <use x="935.287109" xlink:href="#DejaVuSans-111"/>
     <use x="996.46875" xlink:href="#DejaVuSans-110"/>
     <use x="1059.847656" xlink:href="#DejaVuSans-115"/>
     <use x="1111.947266" xlink:href="#DejaVuSans-117"/>
     <use x="1175.326172" xlink:href="#DejaVuSans-109"/>
     <use x="1272.738281" xlink:href="#DejaVuSans-112"/>
     <use x="1336.214844" xlink:href="#DejaVuSans-116"/>
     <use x="1375.423828" xlink:href="#DejaVuSans-105"/>
     <use x="1403.207031" xlink:href="#DejaVuSans-111"/>
     <use x="1464.388672" xlink:href="#DejaVuSans-110"/>
     <use x="1527.767578" xlink:href="#DejaVuSans-32"/>
     <use x="1559.554688" xlink:href="#DejaVuSans-45"/>
     <use x="1595.638672" xlink:href="#DejaVuSans-32"/>
     <use x="1627.425781" xlink:href="#DejaVuSans-77"/>
     <use x="1713.705078" xlink:href="#DejaVuSans-97"/>
     <use x="1774.984375" xlink:href="#DejaVuSans-105"/>
     <use x="1802.767578" xlink:href="#DejaVuSans-110"/>
     <use x="1866.146484" xlink:href="#DejaVuSans-32"/>
     <use x="1897.933594" xlink:href="#DejaVuSans-73"/>
     <use x="1927.425781" xlink:href="#DejaVuSans-110"/>
     <use x="1990.804688" xlink:href="#DejaVuSans-99"/>
     <use x="2045.785156" xlink:href="#DejaVuSans-111"/>
     <use x="2106.966797" xlink:href="#DejaVuSans-109"/>
     <use x="2204.378906" xlink:href="#DejaVuSans-101"/>
     <use x="2265.902344" xlink:href="#DejaVuSans-114"/>
     <use x="2307.015625" xlink:href="#DejaVuSans-44"/>
     <use x="2338.802734" xlink:href="#DejaVuSans-32"/>
     <use x="2370.589844" xlink:href="#DejaVuSans-75"/>
     <use x="2436.166016" xlink:href="#DejaVuSans-70"/>
     <use x="2493.685547" xlink:href="#DejaVuSans-67"/>
     <use x="2563.509766" xlink:href="#DejaVuSans-32"/>
     <use x="2595.296875" xlink:href="#DejaVuSans-40"/>
     <use x="2634.310547" xlink:href="#DejaVuSans-66"/>
     <use x="2702.914062" xlink:href="#DejaVuSans-114"/>
     <use x="2744.027344" xlink:href="#DejaVuSans-97"/>
     <use x="2805.306641" xlink:href="#DejaVuSans-99"/>
     <use x="2860.287109" xlink:href="#DejaVuSans-107"/>
     <use x="2918.197266" xlink:href="#DejaVuSans-110"/>
     <use x="2981.576172" xlink:href="#DejaVuSans-101"/>
     <use x="3043.099609" xlink:href="#DejaVuSans-108"/>
     <use x="3070.882812" xlink:href="#DejaVuSans-108"/>
     <use x="3098.666016" xlink:href="#DejaVuSans-44"/>
     <use x="3130.453125" xlink:href="#DejaVuSans-32"/>
     <use x="3162.240234" xlink:href="#DejaVuSans-85"/>
     <use x="3235.433594" xlink:href="#DejaVuSans-75"/>
     <use x="3301.009766" xlink:href="#DejaVuSans-41"/>
    </g>
   </g>
   <g id="line2d_23">
    <path clip-path="url(#pcc6cb3994a)" d="M 77.9465 198.048174 
L 87.61499 198.048174 
L 97.283479 198.048174 
L 106.951969 198.048174 
L 116.620458 198.048174 
L 126.288948 198.048174 
L 135.957437 198.048174 
L 145.625927 198.048174 
L 155.294417 198.048174 
L 164.962906 198.048174 
L 174.631396 198.048174 
L 184.299885 198.048174 
L 193.968375 198.048174 
L 203.636865 198.048174 
L 213.305354 198.048174 
L 222.973844 198.048174 
L 232.642333 198.048174 
L 242.310823 198.048174 
L 251.979312 198.048174 
L 261.647802 198.048174 
L 271.316292 198.048174 
L 280.984781 198.048174 
L 290.653271 198.048174 
L 300.32176 198.048174 
L 309.99025 198.048174 
L 319.65874 198.048174 
L 329.327229 198.048174 
L 338.995719 198.048174 
L 348.664208 198.048174 
L 358.332698 198.048174 
L 368.001188 198.048174 
L 377.669677 198.048174 
L 387.338167 198.048174 
L 397.006656 198.048174 
L 406.675146 198.048174 
L 416.343635 198.048174 
L 426.012125 198.048174 
L 435.680615 198.048174 
L 445.349104 198.048174 
L 455.017594 198.048174 
L 464.686083 198.048174 
L 474.354573 198.048174 
L 484.023062 198.048174 
L 493.691552 198.048174 
L 503.360042 198.048174 
L 513.028531 198.048174 
L 522.697021 198.048174 
L 532.36551 198.048174 
L 542.034 198.048174 
L 551.70249 198.048174 
L 561.370979 198.048174 
L 571.039469 198.048174 
L 580.707958 198.048174 
L 590.376448 198.048174 
L 600.044937 198.048174 
L 609.713427 198.048174 
L 619.381917 198.048174 
L 629.050406 198.048174 
L 638.718896 198.048174 
L 648.387385 198.048174 
L 658.055875 198.048174 
L 667.724365 198.048174 
L 677.392854 198.048174 
L 687.061344 198.048174 
L 696.729833 198.048174 
L 706.398323 198.048174 
L 716.066812 198.048174 
L 725.735302 198.048174 
L 735.403792 198.048174 
L 745.072281 198.048174 
L 754.740771 198.048174 
L 764.40926 198.048174 
L 774.07775 198.048174 
L 783.74624 198.048174 
L 793.414729 198.048174 
L 803.083219 198.048174 
L 812.751708 198.048174 
L 822.420198 198.048174 
L 832.088687 198.048174 
L 841.757177 198.048174 
L 851.425667 198.048174 
L 861.094156 198.048174 
L 870.762646 198.048174 
L 880.431135 198.048174 
L 890.099625 198.048174 
L 899.768115 198.048174 
L 909.436604 198.048174 
L 919.105094 198.048174 
L 928.773583 198.048174 
L 938.442073 198.507106 
L 948.110563 249.014057 
L 957.779052 352.184946 
L 967.447542 352.184946 
L 977.116031 352.184946 
L 986.784521 352.184946 
L 996.45301 352.184946 
" style="fill:none;stroke:#e24a33;stroke-linecap:square;stroke-opacity:0.95;stroke-width:4;"/>
   </g>
   <g id="legend_1">
    <g id="patch_103">
     <path d="M 822.02275 144.353761 
L 997.7215 144.353761 
Q 1000.1215 144.353761 1000.1215 141.953761 
L 1000.1215 41.647636 
Q 1000.1215 39.247636 997.7215 39.247636 
L 822.02275 39.247636 
Q 819.62275 39.247636 819.62275 41.647636 
L 819.62275 141.953761 
Q 819.62275 144.353761 822.02275 144.353761 
z
" style="fill:#ffffff;opacity:0.8;stroke:#cccccc;stroke-linejoin:miter;"/>
    </g>
    <g id="line2d_24">
     <path d="M 824.42275 48.965761 
L 848.42275 48.965761 
" style="fill:none;stroke:#e24a33;stroke-linecap:square;stroke-opacity:0.95;stroke-width:4;"/>
    </g>
    <g id="line2d_25"/>
    <g id="text_16">
     <!-- expected consumption -->
     <g transform="translate(858.02275 53.165761)scale(0.12 -0.12)">
      <use xlink:href="#DejaVuSans-101"/>
      <use x="61.507812" xlink:href="#DejaVuSans-120"/>
      <use x="120.6875" xlink:href="#DejaVuSans-112"/>
      <use x="184.164062" xlink:href="#DejaVuSans-101"/>
      <use x="245.6875" xlink:href="#DejaVuSans-99"/>
      <use x="300.667969" xlink:href="#DejaVuSans-116"/>
      <use x="339.876953" xlink:href="#DejaVuSans-101"/>
      <use x="401.400391" xlink:href="#DejaVuSans-100"/>
      <use x="464.876953" xlink:href="#DejaVuSans-32"/>
      <use x="496.664062" xlink:href="#DejaVuSans-99"/>
      <use x="551.644531" xlink:href="#DejaVuSans-111"/>
      <use x="612.826172" xlink:href="#DejaVuSans-110"/>
      <use x="676.205078" xlink:href="#DejaVuSans-115"/>
      <use x="728.304688" xlink:href="#DejaVuSans-117"/>
      <use x="791.683594" xlink:href="#DejaVuSans-109"/>
      <use x="889.095703" xlink:href="#DejaVuSans-112"/>
      <use x="952.572266" xlink:href="#DejaVuSans-116"/>
      <use x="991.78125" xlink:href="#DejaVuSans-105"/>
      <use x="1019.564453" xlink:href="#DejaVuSans-111"/>
      <use x="1080.746094" xlink:href="#DejaVuSans-110"/>
     </g>
    </g>
    <g id="line2d_26">
     <path d="M 824.42275 66.579511 
L 848.42275 66.579511 
" style="fill:none;stroke:#000000;stroke-dasharray:4,6.6;stroke-dashoffset:0;stroke-width:4;"/>
    </g>
    <g id="line2d_27"/>
    <g id="text_17">
     <!-- Time of change -->
     <defs>
      <path d="M 37.109375 75.984375 
L 37.109375 68.5 
L 28.515625 68.5 
Q 23.6875 68.5 21.796875 66.546875 
Q 19.921875 64.59375 19.921875 59.515625 
L 19.921875 54.6875 
L 34.71875 54.6875 
L 34.71875 47.703125 
L 19.921875 47.703125 
L 19.921875 0 
L 10.890625 0 
L 10.890625 47.703125 
L 2.296875 47.703125 
L 2.296875 54.6875 
L 10.890625 54.6875 
L 10.890625 58.5 
Q 10.890625 67.625 15.140625 71.796875 
Q 19.390625 75.984375 28.609375 75.984375 
z
" id="DejaVuSans-102"/>
     </defs>
     <g transform="translate(858.02275 70.779511)scale(0.12 -0.12)">
      <use xlink:href="#DejaVuSans-84"/>
      <use x="61.037109" xlink:href="#DejaVuSans-105"/>
      <use x="88.820312" xlink:href="#DejaVuSans-109"/>
      <use x="186.232422" xlink:href="#DejaVuSans-101"/>
      <use x="247.755859" xlink:href="#DejaVuSans-32"/>
      <use x="279.542969" xlink:href="#DejaVuSans-111"/>
      <use x="340.724609" xlink:href="#DejaVuSans-102"/>
      <use x="375.929688" xlink:href="#DejaVuSans-32"/>
      <use x="407.716797" xlink:href="#DejaVuSans-99"/>
      <use x="462.697266" xlink:href="#DejaVuSans-104"/>
      <use x="526.076172" xlink:href="#DejaVuSans-97"/>
      <use x="587.355469" xlink:href="#DejaVuSans-110"/>
      <use x="650.734375" xlink:href="#DejaVuSans-103"/>
      <use x="714.210938" xlink:href="#DejaVuSans-101"/>
     </g>
    </g>
    <g id="patch_104">
     <path d="M 824.42275 88.393261 
L 848.42275 88.393261 
L 848.42275 79.993261 
L 824.42275 79.993261 
z
" style="fill:#ffa500;opacity:0.25;stroke:#ffa500;stroke-linejoin:miter;"/>
    </g>
    <g id="text_18">
     <!-- 90% Credible Interval -->
     <defs>
      <path d="M 72.703125 32.078125 
Q 68.453125 32.078125 66.03125 28.46875 
Q 63.625 24.859375 63.625 18.40625 
Q 63.625 12.0625 66.03125 8.421875 
Q 68.453125 4.78125 72.703125 4.78125 
Q 76.859375 4.78125 79.265625 8.421875 
Q 81.6875 12.0625 81.6875 18.40625 
Q 81.6875 24.8125 79.265625 28.4375 
Q 76.859375 32.078125 72.703125 32.078125 
z
M 72.703125 38.28125 
Q 80.421875 38.28125 84.953125 32.90625 
Q 89.5 27.546875 89.5 18.40625 
Q 89.5 9.28125 84.9375 3.921875 
Q 80.375 -1.421875 72.703125 -1.421875 
Q 64.890625 -1.421875 60.34375 3.921875 
Q 55.8125 9.28125 55.8125 18.40625 
Q 55.8125 27.59375 60.375 32.9375 
Q 64.9375 38.28125 72.703125 38.28125 
z
M 22.3125 68.015625 
Q 18.109375 68.015625 15.6875 64.375 
Q 13.28125 60.75 13.28125 54.390625 
Q 13.28125 47.953125 15.671875 44.328125 
Q 18.0625 40.71875 22.3125 40.71875 
Q 26.5625 40.71875 28.96875 44.328125 
Q 31.390625 47.953125 31.390625 54.390625 
Q 31.390625 60.6875 28.953125 64.34375 
Q 26.515625 68.015625 22.3125 68.015625 
z
M 66.40625 74.21875 
L 74.21875 74.21875 
L 28.609375 -1.421875 
L 20.796875 -1.421875 
z
M 22.3125 74.21875 
Q 30.03125 74.21875 34.609375 68.875 
Q 39.203125 63.53125 39.203125 54.390625 
Q 39.203125 45.171875 34.640625 39.84375 
Q 30.078125 34.515625 22.3125 34.515625 
Q 14.546875 34.515625 10.03125 39.859375 
Q 5.515625 45.21875 5.515625 54.390625 
Q 5.515625 63.484375 10.046875 68.84375 
Q 14.59375 74.21875 22.3125 74.21875 
z
" id="DejaVuSans-37"/>
      <path d="M 48.6875 27.296875 
Q 48.6875 37.203125 44.609375 42.84375 
Q 40.53125 48.484375 33.40625 48.484375 
Q 26.265625 48.484375 22.1875 42.84375 
Q 18.109375 37.203125 18.109375 27.296875 
Q 18.109375 17.390625 22.1875 11.75 
Q 26.265625 6.109375 33.40625 6.109375 
Q 40.53125 6.109375 44.609375 11.75 
Q 48.6875 17.390625 48.6875 27.296875 
z
M 18.109375 46.390625 
Q 20.953125 51.265625 25.265625 53.625 
Q 29.59375 56 35.59375 56 
Q 45.5625 56 51.78125 48.09375 
Q 58.015625 40.1875 58.015625 27.296875 
Q 58.015625 14.40625 51.78125 6.484375 
Q 45.5625 -1.421875 35.59375 -1.421875 
Q 29.59375 -1.421875 25.265625 0.953125 
Q 20.953125 3.328125 18.109375 8.203125 
L 18.109375 0 
L 9.078125 0 
L 9.078125 75.984375 
L 18.109375 75.984375 
z
" id="DejaVuSans-98"/>
     </defs>
     <g transform="translate(858.02275 88.393261)scale(0.12 -0.12)">
      <use xlink:href="#DejaVuSans-57"/>
      <use x="63.623047" xlink:href="#DejaVuSans-48"/>
      <use x="127.246094" xlink:href="#DejaVuSans-37"/>
      <use x="222.265625" xlink:href="#DejaVuSans-32"/>
      <use x="254.052734" xlink:href="#DejaVuSans-67"/>
      <use x="323.876953" xlink:href="#DejaVuSans-114"/>
      <use x="364.958984" xlink:href="#DejaVuSans-101"/>
      <use x="426.482422" xlink:href="#DejaVuSans-100"/>
      <use x="489.958984" xlink:href="#DejaVuSans-105"/>
      <use x="517.742188" xlink:href="#DejaVuSans-98"/>
      <use x="581.21875" xlink:href="#DejaVuSans-108"/>
      <use x="609.001953" xlink:href="#DejaVuSans-101"/>
      <use x="670.525391" xlink:href="#DejaVuSans-32"/>
      <use x="702.3125" xlink:href="#DejaVuSans-73"/>
      <use x="731.804688" xlink:href="#DejaVuSans-110"/>
      <use x="795.183594" xlink:href="#DejaVuSans-116"/>
      <use x="834.392578" xlink:href="#DejaVuSans-101"/>
      <use x="895.916016" xlink:href="#DejaVuSans-114"/>
      <use x="937.029297" xlink:href="#DejaVuSans-118"/>
      <use x="996.208984" xlink:href="#DejaVuSans-97"/>
      <use x="1057.488281" xlink:href="#DejaVuSans-108"/>
     </g>
    </g>
    <g id="patch_105">
     <path d="M 824.42275 113.973511 
L 848.42275 113.973511 
L 848.42275 105.573511 
L 824.42275 105.573511 
z
" style="fill:#008000;opacity:0.25;stroke:#008000;stroke-linejoin:miter;"/>
    </g>
    <g id="text_19">
     <!-- 90% Credible Interval  -->
     <g transform="translate(858.02275 106.007011)scale(0.12 -0.12)">
      <use xlink:href="#DejaVuSans-57"/>
      <use x="63.623047" xlink:href="#DejaVuSans-48"/>
      <use x="127.246094" xlink:href="#DejaVuSans-37"/>
      <use x="222.265625" xlink:href="#DejaVuSans-32"/>
      <use x="254.052734" xlink:href="#DejaVuSans-67"/>
      <use x="323.876953" xlink:href="#DejaVuSans-114"/>
      <use x="364.958984" xlink:href="#DejaVuSans-101"/>
      <use x="426.482422" xlink:href="#DejaVuSans-100"/>
      <use x="489.958984" xlink:href="#DejaVuSans-105"/>
      <use x="517.742188" xlink:href="#DejaVuSans-98"/>
      <use x="581.21875" xlink:href="#DejaVuSans-108"/>
      <use x="609.001953" xlink:href="#DejaVuSans-101"/>
      <use x="670.525391" xlink:href="#DejaVuSans-32"/>
      <use x="702.3125" xlink:href="#DejaVuSans-73"/>
      <use x="731.804688" xlink:href="#DejaVuSans-110"/>
      <use x="795.183594" xlink:href="#DejaVuSans-116"/>
      <use x="834.392578" xlink:href="#DejaVuSans-101"/>
      <use x="895.916016" xlink:href="#DejaVuSans-114"/>
      <use x="937.029297" xlink:href="#DejaVuSans-118"/>
      <use x="996.208984" xlink:href="#DejaVuSans-97"/>
      <use x="1057.488281" xlink:href="#DejaVuSans-108"/>
      <use x="1085.271484" xlink:href="#DejaVuSans-32"/>
     </g>
     <!--  for tau -->
     <g transform="translate(858.02275 119.444386)scale(0.12 -0.12)">
      <use xlink:href="#DejaVuSans-32"/>
      <use x="31.787109" xlink:href="#DejaVuSans-102"/>
      <use x="66.992188" xlink:href="#DejaVuSans-111"/>
      <use x="128.173828" xlink:href="#DejaVuSans-114"/>
      <use x="169.287109" xlink:href="#DejaVuSans-32"/>
      <use x="201.074219" xlink:href="#DejaVuSans-116"/>
      <use x="240.283203" xlink:href="#DejaVuSans-97"/>
      <use x="301.5625" xlink:href="#DejaVuSans-117"/>
     </g>
    </g>
    <g id="patch_106">
     <path d="M 824.42275 137.058136 
L 848.42275 137.058136 
L 848.42275 128.658136 
L 824.42275 128.658136 
z
" style="fill:#348abd;opacity:0.85;"/>
    </g>
    <g id="text_20">
     <!-- observed consumption -->
     <g transform="translate(858.02275 137.058136)scale(0.12 -0.12)">
      <use xlink:href="#DejaVuSans-111"/>
      <use x="61.181641" xlink:href="#DejaVuSans-98"/>
      <use x="124.658203" xlink:href="#DejaVuSans-115"/>
      <use x="176.757812" xlink:href="#DejaVuSans-101"/>
      <use x="238.28125" xlink:href="#DejaVuSans-114"/>
      <use x="279.394531" xlink:href="#DejaVuSans-118"/>
      <use x="338.574219" xlink:href="#DejaVuSans-101"/>
      <use x="400.097656" xlink:href="#DejaVuSans-100"/>
      <use x="463.574219" xlink:href="#DejaVuSans-32"/>
      <use x="495.361328" xlink:href="#DejaVuSans-99"/>
      <use x="550.341797" xlink:href="#DejaVuSans-111"/>
      <use x="611.523438" xlink:href="#DejaVuSans-110"/>
      <use x="674.902344" xlink:href="#DejaVuSans-115"/>
      <use x="727.001953" xlink:href="#DejaVuSans-117"/>
      <use x="790.380859" xlink:href="#DejaVuSans-109"/>
      <use x="887.792969" xlink:href="#DejaVuSans-112"/>
      <use x="951.269531" xlink:href="#DejaVuSans-116"/>
      <use x="990.478516" xlink:href="#DejaVuSans-105"/>
      <use x="1018.261719" xlink:href="#DejaVuSans-111"/>
      <use x="1079.443359" xlink:href="#DejaVuSans-110"/>
     </g>
    </g>
   </g>
   <g id="line2d_28">
    <path clip-path="url(#pcc6cb3994a)" d="M 957.779052 379.124436 
L 957.779052 33.247636 
" style="fill:none;stroke:#000000;stroke-dasharray:4,6.6;stroke-dashoffset:0;stroke-width:4;"/>
   </g>
   <g id="PolyCollection_1">
    <defs>
     <path d="M 77.9465 -239.943165 
L 77.9465 -210.719913 
L 87.61499 -210.719913 
L 97.283479 -210.719913 
L 106.951969 -210.719913 
L 116.620458 -210.719913 
L 126.288948 -210.719913 
L 135.957437 -210.719913 
L 145.625927 -210.719913 
L 155.294417 -210.719913 
L 164.962906 -210.719913 
L 174.631396 -210.719913 
L 184.299885 -210.719913 
L 193.968375 -210.719913 
L 203.636865 -210.719913 
L 213.305354 -210.719913 
L 222.973844 -210.719913 
L 232.642333 -210.719913 
L 242.310823 -210.719913 
L 251.979312 -210.719913 
L 261.647802 -210.719913 
L 271.316292 -210.719913 
L 280.984781 -210.719913 
L 290.653271 -210.719913 
L 300.32176 -210.719913 
L 309.99025 -210.719913 
L 319.65874 -210.719913 
L 329.327229 -210.719913 
L 338.995719 -210.719913 
L 348.664208 -210.719913 
L 358.332698 -210.719913 
L 368.001188 -210.719913 
L 377.669677 -210.719913 
L 387.338167 -210.719913 
L 397.006656 -210.719913 
L 406.675146 -210.719913 
L 416.343635 -210.719913 
L 426.012125 -210.719913 
L 435.680615 -210.719913 
L 445.349104 -210.719913 
L 455.017594 -210.719913 
L 464.686083 -210.719913 
L 474.354573 -210.719913 
L 484.023062 -210.719913 
L 493.691552 -210.719913 
L 503.360042 -210.719913 
L 513.028531 -210.719913 
L 522.697021 -210.719913 
L 532.36551 -210.719913 
L 542.034 -210.719913 
L 551.70249 -210.719913 
L 561.370979 -210.719913 
L 571.039469 -210.719913 
L 580.707958 -210.719913 
L 590.376448 -210.719913 
L 600.044937 -210.719913 
L 609.713427 -210.719913 
L 619.381917 -210.719913 
L 629.050406 -210.719913 
L 638.718896 -210.719913 
L 648.387385 -210.719913 
L 658.055875 -210.719913 
L 667.724365 -210.719913 
L 677.392854 -210.719913 
L 687.061344 -210.719913 
L 696.729833 -210.719913 
L 706.398323 -210.719913 
L 716.066812 -210.719913 
L 725.735302 -210.719913 
L 735.403792 -210.719913 
L 745.072281 -210.719913 
L 754.740771 -210.719913 
L 764.40926 -210.719913 
L 774.07775 -210.719913 
L 783.74624 -210.719913 
L 793.414729 -210.719913 
L 803.083219 -210.719913 
L 812.751708 -210.719913 
L 822.420198 -210.719913 
L 832.088687 -210.719913 
L 841.757177 -210.719913 
L 851.425667 -210.719913 
L 861.094156 -210.719913 
L 870.762646 -210.719913 
L 880.431135 -210.719913 
L 890.099625 -210.719913 
L 899.768115 -210.719913 
L 909.436604 -210.719913 
L 919.105094 -210.719913 
L 928.773583 -210.719913 
L 938.442073 -210.428642 
L 948.110563 -66.0469 
L 957.779052 -57.934338 
L 967.447542 -57.934338 
L 977.116031 -57.934338 
L 986.784521 -57.934338 
L 996.45301 -57.934338 
L 996.45301 -90.000652 
L 996.45301 -90.000652 
L 986.784521 -90.000652 
L 977.116031 -90.000652 
L 967.447542 -90.000652 
L 957.779052 -90.000652 
L 948.110563 -237.264116 
L 938.442073 -239.943165 
L 928.773583 -239.943165 
L 919.105094 -239.943165 
L 909.436604 -239.943165 
L 899.768115 -239.943165 
L 890.099625 -239.943165 
L 880.431135 -239.943165 
L 870.762646 -239.943165 
L 861.094156 -239.943165 
L 851.425667 -239.943165 
L 841.757177 -239.943165 
L 832.088687 -239.943165 
L 822.420198 -239.943165 
L 812.751708 -239.943165 
L 803.083219 -239.943165 
L 793.414729 -239.943165 
L 783.74624 -239.943165 
L 774.07775 -239.943165 
L 764.40926 -239.943165 
L 754.740771 -239.943165 
L 745.072281 -239.943165 
L 735.403792 -239.943165 
L 725.735302 -239.943165 
L 716.066812 -239.943165 
L 706.398323 -239.943165 
L 696.729833 -239.943165 
L 687.061344 -239.943165 
L 677.392854 -239.943165 
L 667.724365 -239.943165 
L 658.055875 -239.943165 
L 648.387385 -239.943165 
L 638.718896 -239.943165 
L 629.050406 -239.943165 
L 619.381917 -239.943165 
L 609.713427 -239.943165 
L 600.044937 -239.943165 
L 590.376448 -239.943165 
L 580.707958 -239.943165 
L 571.039469 -239.943165 
L 561.370979 -239.943165 
L 551.70249 -239.943165 
L 542.034 -239.943165 
L 532.36551 -239.943165 
L 522.697021 -239.943165 
L 513.028531 -239.943165 
L 503.360042 -239.943165 
L 493.691552 -239.943165 
L 484.023062 -239.943165 
L 474.354573 -239.943165 
L 464.686083 -239.943165 
L 455.017594 -239.943165 
L 445.349104 -239.943165 
L 435.680615 -239.943165 
L 426.012125 -239.943165 
L 416.343635 -239.943165 
L 406.675146 -239.943165 
L 397.006656 -239.943165 
L 387.338167 -239.943165 
L 377.669677 -239.943165 
L 368.001188 -239.943165 
L 358.332698 -239.943165 
L 348.664208 -239.943165 
L 338.995719 -239.943165 
L 329.327229 -239.943165 
L 319.65874 -239.943165 
L 309.99025 -239.943165 
L 300.32176 -239.943165 
L 290.653271 -239.943165 
L 280.984781 -239.943165 
L 271.316292 -239.943165 
L 261.647802 -239.943165 
L 251.979312 -239.943165 
L 242.310823 -239.943165 
L 232.642333 -239.943165 
L 222.973844 -239.943165 
L 213.305354 -239.943165 
L 203.636865 -239.943165 
L 193.968375 -239.943165 
L 184.299885 -239.943165 
L 174.631396 -239.943165 
L 164.962906 -239.943165 
L 155.294417 -239.943165 
L 145.625927 -239.943165 
L 135.957437 -239.943165 
L 126.288948 -239.943165 
L 116.620458 -239.943165 
L 106.951969 -239.943165 
L 97.283479 -239.943165 
L 87.61499 -239.943165 
L 77.9465 -239.943165 
z
" id="m946cbf9058" style="stroke:#ffa500;stroke-opacity:0.25;"/>
    </defs>
    <g clip-path="url(#pcc6cb3994a)">
     <use style="fill:#ffa500;fill-opacity:0.25;stroke:#ffa500;stroke-opacity:0.25;" x="0" xlink:href="#m946cbf9058" y="422.874686"/>
    </g>
   </g>
   <g id="PolyCollection_2">
    <defs>
     <path d="M 957.779052 -43.75025 
L 948.110563 -43.75025 
L 948.110563 -389.62705 
L 957.779052 -389.62705 
L 957.779052 -389.62705 
L 957.779052 -43.75025 
z
" id="md63db45738" style="stroke:#008000;stroke-opacity:0.25;"/>
    </defs>
    <g clip-path="url(#pcc6cb3994a)">
     <use style="fill:#008000;fill-opacity:0.25;stroke:#008000;stroke-opacity:0.25;" x="0" xlink:href="#md63db45738" y="422.874686"/>
    </g>
   </g>
  </g>
 </g>
 <defs>
  <clipPath id="pcc6cb3994a">
   <rect height="345.8768" width="928.175" x="77.9465" y="33.247636"/>
  </clipPath>
 </defs>
</svg>
