<?xml version="1.0" encoding="utf-8" standalone="no"?>
<!DOCTYPE svg PUBLIC "-//W3C//DTD SVG 1.1//EN"
  "http://www.w3.org/Graphics/SVG/1.1/DTD/svg11.dtd">
<!-- Created with matplotlib (https://matplotlib.org/) -->
<svg height="422.874686pt" version="1.1" viewBox="0 0 1145.1515 422.874686" width="1145.1515pt" xmlns="http://www.w3.org/2000/svg" xmlns:xlink="http://www.w3.org/1999/xlink">
 <defs>
  <style type="text/css">
*{stroke-linecap:butt;stroke-linejoin:round;}
  </style>
 </defs>
 <g id="figure_1">
  <g id="patch_1">
   <path d="M 0 422.874686 
L 1145.1515 422.874686 
L 1145.1515 0 
L 0 0 
z
" style="fill:#ffffff;"/>
  </g>
  <g id="axes_1">
   <g id="patch_2">
    <path d="M 62.6765 379.124436 
L 1137.9515 379.124436 
L 1137.9515 33.247636 
L 62.6765 33.247636 
z
" style="fill:#ffffff;"/>
   </g>
   <g id="patch_3">
    <path clip-path="url(#pdba36ec186)" d="M 58.836232 379.124436 
L 66.516768 379.124436 
L 66.516768 377.140913 
L 58.836232 377.140913 
z
" style="fill:#348abd;opacity:0.85;"/>
   </g>
   <g id="patch_4">
    <path clip-path="url(#pdba36ec186)" d="M 68.436902 379.124436 
L 76.117437 379.124436 
L 76.117437 212.508515 
L 68.436902 212.508515 
z
" style="fill:#348abd;opacity:0.85;"/>
   </g>
   <g id="patch_5">
    <path clip-path="url(#pdba36ec186)" d="M 78.037571 379.124436 
L 85.718107 379.124436 
L 85.718107 376.432512 
L 78.037571 376.432512 
z
" style="fill:#348abd;opacity:0.85;"/>
   </g>
   <g id="patch_6">
    <path clip-path="url(#pdba36ec186)" d="M 87.638241 379.124436 
L 95.318777 379.124436 
L 95.318777 376.574192 
L 87.638241 376.574192 
z
" style="fill:#348abd;opacity:0.85;"/>
   </g>
   <g id="patch_7">
    <path clip-path="url(#pdba36ec186)" d="M 97.238911 379.124436 
L 104.919446 379.124436 
L 104.919446 280.940054 
L 97.238911 280.940054 
z
" style="fill:#348abd;opacity:0.85;"/>
   </g>
   <g id="patch_8">
    <path clip-path="url(#pdba36ec186)" d="M 106.83958 379.124436 
L 114.520116 379.124436 
L 114.520116 294.399674 
L 106.83958 294.399674 
z
" style="fill:#348abd;opacity:0.85;"/>
   </g>
   <g id="patch_9">
    <path clip-path="url(#pdba36ec186)" d="M 116.44025 379.124436 
L 124.120786 379.124436 
L 124.120786 275.131166 
L 116.44025 275.131166 
z
" style="fill:#348abd;opacity:0.85;"/>
   </g>
   <g id="patch_10">
    <path clip-path="url(#pdba36ec186)" d="M 126.04092 379.124436 
L 133.721455 379.124436 
L 133.721455 285.33214 
L 126.04092 285.33214 
z
" style="fill:#348abd;opacity:0.85;"/>
   </g>
   <g id="patch_11">
    <path clip-path="url(#pdba36ec186)" d="M 135.641589 379.124436 
L 143.322125 379.124436 
L 143.322125 279.664932 
L 135.641589 279.664932 
z
" style="fill:#348abd;opacity:0.85;"/>
   </g>
   <g id="patch_12">
    <path clip-path="url(#pdba36ec186)" d="M 145.242259 379.124436 
L 152.922795 379.124436 
L 152.922795 272.014201 
L 145.242259 272.014201 
z
" style="fill:#348abd;opacity:0.85;"/>
   </g>
   <g id="patch_13">
    <path clip-path="url(#pdba36ec186)" d="M 154.842929 379.124436 
L 162.523464 379.124436 
L 162.523464 299.358481 
L 154.842929 299.358481 
z
" style="fill:#348abd;opacity:0.85;"/>
   </g>
   <g id="patch_14">
    <path clip-path="url(#pdba36ec186)" d="M 164.443598 379.124436 
L 172.124134 379.124436 
L 172.124134 300.491922 
L 164.443598 300.491922 
z
" style="fill:#348abd;opacity:0.85;"/>
   </g>
   <g id="patch_15">
    <path clip-path="url(#pdba36ec186)" d="M 174.044268 379.124436 
L 181.724804 379.124436 
L 181.724804 250.47881 
L 174.044268 250.47881 
z
" style="fill:#348abd;opacity:0.85;"/>
   </g>
   <g id="patch_16">
    <path clip-path="url(#pdba36ec186)" d="M 183.644938 379.124436 
L 191.325473 379.124436 
L 191.325473 207.549708 
L 183.644938 207.549708 
z
" style="fill:#348abd;opacity:0.85;"/>
   </g>
   <g id="patch_17">
    <path clip-path="url(#pdba36ec186)" d="M 193.245607 379.124436 
L 200.926143 379.124436 
L 200.926143 211.091713 
L 193.245607 211.091713 
z
" style="fill:#348abd;opacity:0.85;"/>
   </g>
   <g id="patch_18">
    <path clip-path="url(#pdba36ec186)" d="M 202.846277 379.124436 
L 210.526813 379.124436 
L 210.526813 377.140913 
L 202.846277 377.140913 
z
" style="fill:#348abd;opacity:0.85;"/>
   </g>
   <g id="patch_19">
    <path clip-path="url(#pdba36ec186)" d="M 212.446946 379.124436 
L 220.127482 379.124436 
L 220.127482 377.282593 
L 212.446946 377.282593 
z
" style="fill:#348abd;opacity:0.85;"/>
   </g>
   <g id="patch_20">
    <path clip-path="url(#pdba36ec186)" d="M 222.047616 379.124436 
L 229.728152 379.124436 
L 229.728152 322.735714 
L 222.047616 322.735714 
z
" style="fill:#348abd;opacity:0.85;"/>
   </g>
   <g id="patch_21">
    <path clip-path="url(#pdba36ec186)" d="M 231.648286 379.124436 
L 239.328821 379.124436 
L 239.328821 338.745578 
L 231.648286 338.745578 
z
" style="fill:#348abd;opacity:0.85;"/>
   </g>
   <g id="patch_22">
    <path clip-path="url(#pdba36ec186)" d="M 241.248955 379.124436 
L 248.929491 379.124436 
L 248.929491 338.887258 
L 241.248955 338.887258 
z
" style="fill:#348abd;opacity:0.85;"/>
   </g>
   <g id="patch_23">
    <path clip-path="url(#pdba36ec186)" d="M 250.849625 379.124436 
L 258.530161 379.124436 
L 258.530161 311.259618 
L 250.849625 311.259618 
z
" style="fill:#348abd;opacity:0.85;"/>
   </g>
   <g id="patch_24">
    <path clip-path="url(#pdba36ec186)" d="M 260.450295 379.124436 
L 268.13083 379.124436 
L 268.13083 264.930191 
L 260.450295 264.930191 
z
" style="fill:#348abd;opacity:0.85;"/>
   </g>
   <g id="patch_25">
    <path clip-path="url(#pdba36ec186)" d="M 270.050964 379.124436 
L 277.7315 379.124436 
L 277.7315 302.333765 
L 270.050964 302.333765 
z
" style="fill:#348abd;opacity:0.85;"/>
   </g>
   <g id="patch_26">
    <path clip-path="url(#pdba36ec186)" d="M 279.651634 379.124436 
L 287.33217 379.124436 
L 287.33217 325.427638 
L 279.651634 325.427638 
z
" style="fill:#348abd;opacity:0.85;"/>
   </g>
   <g id="patch_27">
    <path clip-path="url(#pdba36ec186)" d="M 289.252304 379.124436 
L 296.932839 379.124436 
L 296.932839 334.353491 
L 289.252304 334.353491 
z
" style="fill:#348abd;opacity:0.85;"/>
   </g>
   <g id="patch_28">
    <path clip-path="url(#pdba36ec186)" d="M 298.852973 379.124436 
L 306.533509 379.124436 
L 306.533509 334.920212 
L 298.852973 334.920212 
z
" style="fill:#348abd;opacity:0.85;"/>
   </g>
   <g id="patch_29">
    <path clip-path="url(#pdba36ec186)" d="M 308.453643 379.124436 
L 316.134179 379.124436 
L 316.134179 342.995984 
L 308.453643 342.995984 
z
" style="fill:#348abd;opacity:0.85;"/>
   </g>
   <g id="patch_30">
    <path clip-path="url(#pdba36ec186)" d="M 318.054313 379.124436 
L 325.734848 379.124436 
L 325.734848 342.854304 
L 318.054313 342.854304 
z
" style="fill:#348abd;opacity:0.85;"/>
   </g>
   <g id="patch_31">
    <path clip-path="url(#pdba36ec186)" d="M 327.654982 379.124436 
L 335.335518 379.124436 
L 335.335518 376.149152 
L 327.654982 376.149152 
z
" style="fill:#348abd;opacity:0.85;"/>
   </g>
   <g id="patch_32">
    <path clip-path="url(#pdba36ec186)" d="M 337.255652 379.124436 
L 344.936188 379.124436 
L 344.936188 375.865791 
L 337.255652 375.865791 
z
" style="fill:#348abd;opacity:0.85;"/>
   </g>
   <g id="patch_33">
    <path clip-path="url(#pdba36ec186)" d="M 346.856321 379.124436 
L 354.536857 379.124436 
L 354.536857 374.73235 
L 346.856321 374.73235 
z
" style="fill:#348abd;opacity:0.85;"/>
   </g>
   <g id="patch_34">
    <path clip-path="url(#pdba36ec186)" d="M 356.456991 379.124436 
L 364.137527 379.124436 
L 364.137527 377.282593 
L 356.456991 377.282593 
z
" style="fill:#348abd;opacity:0.85;"/>
   </g>
   <g id="patch_35">
    <path clip-path="url(#pdba36ec186)" d="M 366.057661 379.124436 
L 373.738196 379.124436 
L 373.738196 377.282593 
L 366.057661 377.282593 
z
" style="fill:#348abd;opacity:0.85;"/>
   </g>
   <g id="patch_36">
    <path clip-path="url(#pdba36ec186)" d="M 375.65833 379.124436 
L 383.338866 379.124436 
L 383.338866 306.300811 
L 375.65833 306.300811 
z
" style="fill:#348abd;opacity:0.85;"/>
   </g>
   <g id="patch_37">
    <path clip-path="url(#pdba36ec186)" d="M 385.259 379.124436 
L 392.939536 379.124436 
L 392.939536 352.630238 
L 385.259 352.630238 
z
" style="fill:#348abd;opacity:0.85;"/>
   </g>
   <g id="patch_38">
    <path clip-path="url(#pdba36ec186)" d="M 394.85967 379.124436 
L 402.540205 379.124436 
L 402.540205 359.714248 
L 394.85967 359.714248 
z
" style="fill:#348abd;opacity:0.85;"/>
   </g>
   <g id="patch_39">
    <path clip-path="url(#pdba36ec186)" d="M 404.460339 379.124436 
L 412.140875 379.124436 
L 412.140875 305.309049 
L 404.460339 305.309049 
z
" style="fill:#348abd;opacity:0.85;"/>
   </g>
   <g id="patch_40">
    <path clip-path="url(#pdba36ec186)" d="M 414.061009 379.124436 
L 421.741545 379.124436 
L 421.741545 263.371709 
L 414.061009 263.371709 
z
" style="fill:#348abd;opacity:0.85;"/>
   </g>
   <g id="patch_41">
    <path clip-path="url(#pdba36ec186)" d="M 423.661679 379.124436 
L 431.342214 379.124436 
L 431.342214 295.816476 
L 423.661679 295.816476 
z
" style="fill:#348abd;opacity:0.85;"/>
   </g>
   <g id="patch_42">
    <path clip-path="url(#pdba36ec186)" d="M 433.262348 379.124436 
L 440.942884 379.124436 
L 440.942884 278.10645 
L 433.262348 278.10645 
z
" style="fill:#348abd;opacity:0.85;"/>
   </g>
   <g id="patch_43">
    <path clip-path="url(#pdba36ec186)" d="M 442.863018 379.124436 
L 450.543554 379.124436 
L 450.543554 308.426014 
L 442.863018 308.426014 
z
" style="fill:#348abd;opacity:0.85;"/>
   </g>
   <g id="patch_44">
    <path clip-path="url(#pdba36ec186)" d="M 452.463687 379.124436 
L 460.144223 379.124436 
L 460.144223 332.653329 
L 452.463687 332.653329 
z
" style="fill:#348abd;opacity:0.85;"/>
   </g>
   <g id="patch_45">
    <path clip-path="url(#pdba36ec186)" d="M 462.064357 379.124436 
L 469.744893 379.124436 
L 469.744893 313.243141 
L 462.064357 313.243141 
z
" style="fill:#348abd;opacity:0.85;"/>
   </g>
   <g id="patch_46">
    <path clip-path="url(#pdba36ec186)" d="M 471.665027 379.124436 
L 479.345562 379.124436 
L 479.345562 325.710999 
L 471.665027 325.710999 
z
" style="fill:#348abd;opacity:0.85;"/>
   </g>
   <g id="patch_47">
    <path clip-path="url(#pdba36ec186)" d="M 481.265696 379.124436 
L 488.946232 379.124436 
L 488.946232 358.864167 
L 481.265696 358.864167 
z
" style="fill:#348abd;opacity:0.85;"/>
   </g>
   <g id="patch_48">
    <path clip-path="url(#pdba36ec186)" d="M 490.866366 379.124436 
L 498.546902 379.124436 
L 498.546902 287.740704 
L 490.866366 287.740704 
z
" style="fill:#348abd;opacity:0.85;"/>
   </g>
   <g id="patch_49">
    <path clip-path="url(#pdba36ec186)" d="M 500.467036 379.124436 
L 508.147571 379.124436 
L 508.147571 261.813226 
L 500.467036 261.813226 
z
" style="fill:#348abd;opacity:0.85;"/>
   </g>
   <g id="patch_50">
    <path clip-path="url(#pdba36ec186)" d="M 510.067705 379.124436 
L 517.748241 379.124436 
L 517.748241 377.140913 
L 510.067705 377.140913 
z
" style="fill:#348abd;opacity:0.85;"/>
   </g>
   <g id="patch_51">
    <path clip-path="url(#pdba36ec186)" d="M 519.668375 379.124436 
L 527.348911 379.124436 
L 527.348911 377.282593 
L 519.668375 377.282593 
z
" style="fill:#348abd;opacity:0.85;"/>
   </g>
   <g id="patch_52">
    <path clip-path="url(#pdba36ec186)" d="M 529.269045 379.124436 
L 536.94958 379.124436 
L 536.94958 319.193709 
L 529.269045 319.193709 
z
" style="fill:#348abd;opacity:0.85;"/>
   </g>
   <g id="patch_53">
    <path clip-path="url(#pdba36ec186)" d="M 538.869714 379.124436 
L 546.55025 379.124436 
L 546.55025 366.373218 
L 538.869714 366.373218 
z
" style="fill:#348abd;opacity:0.85;"/>
   </g>
   <g id="patch_54">
    <path clip-path="url(#pdba36ec186)" d="M 548.470384 379.124436 
L 556.15092 379.124436 
L 556.15092 366.373218 
L 548.470384 366.373218 
z
" style="fill:#348abd;opacity:0.85;"/>
   </g>
   <g id="patch_55">
    <path clip-path="url(#pdba36ec186)" d="M 558.071054 379.124436 
L 565.751589 379.124436 
L 565.751589 366.373218 
L 558.071054 366.373218 
z
" style="fill:#348abd;opacity:0.85;"/>
   </g>
   <g id="patch_56">
    <path clip-path="url(#pdba36ec186)" d="M 567.671723 379.124436 
L 575.352259 379.124436 
L 575.352259 366.373218 
L 567.671723 366.373218 
z
" style="fill:#348abd;opacity:0.85;"/>
   </g>
   <g id="patch_57">
    <path clip-path="url(#pdba36ec186)" d="M 577.272393 379.124436 
L 584.952929 379.124436 
L 584.952929 366.373218 
L 577.272393 366.373218 
z
" style="fill:#348abd;opacity:0.85;"/>
   </g>
   <g id="patch_58">
    <path clip-path="url(#pdba36ec186)" d="M 586.873063 379.124436 
L 594.553598 379.124436 
L 594.553598 311.684659 
L 586.873063 311.684659 
z
" style="fill:#348abd;opacity:0.85;"/>
   </g>
   <g id="patch_59">
    <path clip-path="url(#pdba36ec186)" d="M 596.473732 379.124436 
L 604.154268 379.124436 
L 604.154268 354.18872 
L 596.473732 354.18872 
z
" style="fill:#348abd;opacity:0.85;"/>
   </g>
   <g id="patch_60">
    <path clip-path="url(#pdba36ec186)" d="M 606.074402 379.124436 
L 613.754938 379.124436 
L 613.754938 313.809862 
L 606.074402 313.809862 
z
" style="fill:#348abd;opacity:0.85;"/>
   </g>
   <g id="patch_61">
    <path clip-path="url(#pdba36ec186)" d="M 615.675071 379.124436 
L 623.355607 379.124436 
L 623.355607 312.39306 
L 615.675071 312.39306 
z
" style="fill:#348abd;opacity:0.85;"/>
   </g>
   <g id="patch_62">
    <path clip-path="url(#pdba36ec186)" d="M 625.275741 379.124436 
L 632.956277 379.124436 
L 632.956277 284.9071 
L 625.275741 284.9071 
z
" style="fill:#348abd;opacity:0.85;"/>
   </g>
   <g id="patch_63">
    <path clip-path="url(#pdba36ec186)" d="M 634.876411 379.124436 
L 642.556946 379.124436 
L 642.556946 260.254744 
L 634.876411 260.254744 
z
" style="fill:#348abd;opacity:0.85;"/>
   </g>
   <g id="patch_64">
    <path clip-path="url(#pdba36ec186)" d="M 644.47708 379.124436 
L 652.157616 379.124436 
L 652.157616 215.76716 
L 644.47708 215.76716 
z
" style="fill:#348abd;opacity:0.85;"/>
   </g>
   <g id="patch_65">
    <path clip-path="url(#pdba36ec186)" d="M 654.07775 379.124436 
L 661.758286 379.124436 
L 661.758286 211.233393 
L 654.07775 211.233393 
z
" style="fill:#348abd;opacity:0.85;"/>
   </g>
   <g id="patch_66">
    <path clip-path="url(#pdba36ec186)" d="M 663.67842 379.124436 
L 671.358955 379.124436 
L 671.358955 377.140913 
L 663.67842 377.140913 
z
" style="fill:#348abd;opacity:0.85;"/>
   </g>
   <g id="patch_67">
    <path clip-path="url(#pdba36ec186)" d="M 673.279089 379.124436 
L 680.959625 379.124436 
L 680.959625 377.282593 
L 673.279089 377.282593 
z
" style="fill:#348abd;opacity:0.85;"/>
   </g>
   <g id="patch_68">
    <path clip-path="url(#pdba36ec186)" d="M 682.879759 379.124436 
L 690.560295 379.124436 
L 690.560295 301.058643 
L 682.879759 301.058643 
z
" style="fill:#348abd;opacity:0.85;"/>
   </g>
   <g id="patch_69">
    <path clip-path="url(#pdba36ec186)" d="M 692.480429 379.124436 
L 700.160964 379.124436 
L 700.160964 366.231537 
L 692.480429 366.231537 
z
" style="fill:#348abd;opacity:0.85;"/>
   </g>
   <g id="patch_70">
    <path clip-path="url(#pdba36ec186)" d="M 702.081098 379.124436 
L 709.761634 379.124436 
L 709.761634 366.231537 
L 702.081098 366.231537 
z
" style="fill:#348abd;opacity:0.85;"/>
   </g>
   <g id="patch_71">
    <path clip-path="url(#pdba36ec186)" d="M 711.681768 379.124436 
L 719.362304 379.124436 
L 719.362304 366.373218 
L 711.681768 366.373218 
z
" style="fill:#348abd;opacity:0.85;"/>
   </g>
   <g id="patch_72">
    <path clip-path="url(#pdba36ec186)" d="M 721.282438 379.124436 
L 728.962973 379.124436 
L 728.962973 366.231537 
L 721.282438 366.231537 
z
" style="fill:#348abd;opacity:0.85;"/>
   </g>
   <g id="patch_73">
    <path clip-path="url(#pdba36ec186)" d="M 730.883107 379.124436 
L 738.563643 379.124436 
L 738.563643 366.231537 
L 730.883107 366.231537 
z
" style="fill:#348abd;opacity:0.85;"/>
   </g>
   <g id="patch_74">
    <path clip-path="url(#pdba36ec186)" d="M 740.483777 379.124436 
L 748.164313 379.124436 
L 748.164313 296.808237 
L 740.483777 296.808237 
z
" style="fill:#348abd;opacity:0.85;"/>
   </g>
   <g id="patch_75">
    <path clip-path="url(#pdba36ec186)" d="M 750.084446 379.124436 
L 757.764982 379.124436 
L 757.764982 217.609003 
L 750.084446 217.609003 
z
" style="fill:#348abd;opacity:0.85;"/>
   </g>
   <g id="patch_76">
    <path clip-path="url(#pdba36ec186)" d="M 759.685116 379.124436 
L 767.365652 379.124436 
L 767.365652 292.982871 
L 759.685116 292.982871 
z
" style="fill:#348abd;opacity:0.85;"/>
   </g>
   <g id="patch_77">
    <path clip-path="url(#pdba36ec186)" d="M 769.285786 379.124436 
L 776.966321 379.124436 
L 776.966321 299.358481 
L 769.285786 299.358481 
z
" style="fill:#348abd;opacity:0.85;"/>
   </g>
   <g id="patch_78">
    <path clip-path="url(#pdba36ec186)" d="M 778.886455 379.124436 
L 786.566991 379.124436 
L 786.566991 285.473821 
L 778.886455 285.473821 
z
" style="fill:#348abd;opacity:0.85;"/>
   </g>
   <g id="patch_79">
    <path clip-path="url(#pdba36ec186)" d="M 788.487125 379.124436 
L 796.167661 379.124436 
L 796.167661 266.630353 
L 788.487125 266.630353 
z
" style="fill:#348abd;opacity:0.85;"/>
   </g>
   <g id="patch_80">
    <path clip-path="url(#pdba36ec186)" d="M 798.087795 379.124436 
L 805.76833 379.124436 
L 805.76833 213.500277 
L 798.087795 213.500277 
z
" style="fill:#348abd;opacity:0.85;"/>
   </g>
   <g id="patch_81">
    <path clip-path="url(#pdba36ec186)" d="M 807.688464 379.124436 
L 815.369 379.124436 
L 815.369 335.061892 
L 807.688464 335.061892 
z
" style="fill:#348abd;opacity:0.85;"/>
   </g>
   <g id="patch_82">
    <path clip-path="url(#pdba36ec186)" d="M 817.289134 379.124436 
L 824.96967 379.124436 
L 824.96967 377.282593 
L 817.289134 377.282593 
z
" style="fill:#348abd;opacity:0.85;"/>
   </g>
   <g id="patch_83">
    <path clip-path="url(#pdba36ec186)" d="M 826.889804 379.124436 
L 834.570339 379.124436 
L 834.570339 377.282593 
L 826.889804 377.282593 
z
" style="fill:#348abd;opacity:0.85;"/>
   </g>
   <g id="patch_84">
    <path clip-path="url(#pdba36ec186)" d="M 836.490473 379.124436 
L 844.171009 379.124436 
L 844.171009 322.877395 
L 836.490473 322.877395 
z
" style="fill:#348abd;opacity:0.85;"/>
   </g>
   <g id="patch_85">
    <path clip-path="url(#pdba36ec186)" d="M 846.091143 379.124436 
L 853.771679 379.124436 
L 853.771679 366.231537 
L 846.091143 366.231537 
z
" style="fill:#348abd;opacity:0.85;"/>
   </g>
   <g id="patch_86">
    <path clip-path="url(#pdba36ec186)" d="M 855.691812 379.124436 
L 863.372348 379.124436 
L 863.372348 320.185471 
L 855.691812 320.185471 
z
" style="fill:#348abd;opacity:0.85;"/>
   </g>
   <g id="patch_87">
    <path clip-path="url(#pdba36ec186)" d="M 865.292482 379.124436 
L 872.973018 379.124436 
L 872.973018 328.119562 
L 865.292482 328.119562 
z
" style="fill:#348abd;opacity:0.85;"/>
   </g>
   <g id="patch_88">
    <path clip-path="url(#pdba36ec186)" d="M 874.893152 379.124436 
L 882.573688 379.124436 
L 882.573688 344.979507 
L 874.893152 344.979507 
z
" style="fill:#348abd;opacity:0.85;"/>
   </g>
   <g id="patch_89">
    <path clip-path="url(#pdba36ec186)" d="M 884.493821 379.124436 
L 892.174357 379.124436 
L 892.174357 345.404547 
L 884.493821 345.404547 
z
" style="fill:#348abd;opacity:0.85;"/>
   </g>
   <g id="patch_90">
    <path clip-path="url(#pdba36ec186)" d="M 894.094491 379.124436 
L 901.775027 379.124436 
L 901.775027 362.264492 
L 894.094491 362.264492 
z
" style="fill:#348abd;opacity:0.85;"/>
   </g>
   <g id="patch_91">
    <path clip-path="url(#pdba36ec186)" d="M 903.695161 379.124436 
L 911.375696 379.124436 
L 911.375696 345.121187 
L 903.695161 345.121187 
z
" style="fill:#348abd;opacity:0.85;"/>
   </g>
   <g id="patch_92">
    <path clip-path="url(#pdba36ec186)" d="M 913.29583 379.124436 
L 920.976366 379.124436 
L 920.976366 362.264492 
L 913.29583 362.264492 
z
" style="fill:#348abd;opacity:0.85;"/>
   </g>
   <g id="patch_93">
    <path clip-path="url(#pdba36ec186)" d="M 922.8965 379.124436 
L 930.577036 379.124436 
L 930.577036 362.406172 
L 922.8965 362.406172 
z
" style="fill:#348abd;opacity:0.85;"/>
   </g>
   <g id="patch_94">
    <path clip-path="url(#pdba36ec186)" d="M 932.49717 379.124436 
L 940.177705 379.124436 
L 940.177705 362.264492 
L 932.49717 362.264492 
z
" style="fill:#348abd;opacity:0.85;"/>
   </g>
   <g id="patch_95">
    <path clip-path="url(#pdba36ec186)" d="M 942.097839 379.124436 
L 949.778375 379.124436 
L 949.778375 361.27273 
L 942.097839 361.27273 
z
" style="fill:#348abd;opacity:0.85;"/>
   </g>
   <g id="patch_96">
    <path clip-path="url(#pdba36ec186)" d="M 951.698509 379.124436 
L 959.379045 379.124436 
L 959.379045 361.839451 
L 951.698509 361.839451 
z
" style="fill:#348abd;opacity:0.85;"/>
   </g>
   <g id="patch_97">
    <path clip-path="url(#pdba36ec186)" d="M 961.299179 379.124436 
L 968.979714 379.124436 
L 968.979714 360.422649 
L 961.299179 360.422649 
z
" style="fill:#348abd;opacity:0.85;"/>
   </g>
   <g id="patch_98">
    <path clip-path="url(#pdba36ec186)" d="M 970.899848 379.124436 
L 978.580384 379.124436 
L 978.580384 376.149152 
L 970.899848 376.149152 
z
" style="fill:#348abd;opacity:0.85;"/>
   </g>
   <g id="patch_99">
    <path clip-path="url(#pdba36ec186)" d="M 980.500518 379.124436 
L 988.181054 379.124436 
L 988.181054 376.715873 
L 980.500518 376.715873 
z
" style="fill:#348abd;opacity:0.85;"/>
   </g>
   <g id="patch_100">
    <path clip-path="url(#pdba36ec186)" d="M 990.101188 379.124436 
L 997.781723 379.124436 
L 997.781723 322.168994 
L 990.101188 322.168994 
z
" style="fill:#348abd;opacity:0.85;"/>
   </g>
   <g id="patch_101">
    <path clip-path="url(#pdba36ec186)" d="M 999.701857 379.124436 
L 1007.382393 379.124436 
L 1007.382393 366.373218 
L 999.701857 366.373218 
z
" style="fill:#348abd;opacity:0.85;"/>
   </g>
   <g id="patch_102">
    <path clip-path="url(#pdba36ec186)" d="M 1009.302527 379.124436 
L 1016.983063 379.124436 
L 1016.983063 366.373218 
L 1009.302527 366.373218 
z
" style="fill:#348abd;opacity:0.85;"/>
   </g>
   <g id="patch_103">
    <path clip-path="url(#pdba36ec186)" d="M 1018.903196 379.124436 
L 1026.583732 379.124436 
L 1026.583732 366.373218 
L 1018.903196 366.373218 
z
" style="fill:#348abd;opacity:0.85;"/>
   </g>
   <g id="patch_104">
    <path clip-path="url(#pdba36ec186)" d="M 1028.503866 379.124436 
L 1036.184402 379.124436 
L 1036.184402 366.231537 
L 1028.503866 366.231537 
z
" style="fill:#348abd;opacity:0.85;"/>
   </g>
   <g id="patch_105">
    <path clip-path="url(#pdba36ec186)" d="M 1038.104536 379.124436 
L 1045.785071 379.124436 
L 1045.785071 205.141144 
L 1038.104536 205.141144 
z
" style="fill:#348abd;opacity:0.85;"/>
   </g>
   <g id="patch_106">
    <path clip-path="url(#pdba36ec186)" d="M 1047.705205 379.124436 
L 1055.385741 379.124436 
L 1055.385741 49.71796 
L 1047.705205 49.71796 
z
" style="fill:#348abd;opacity:0.85;"/>
   </g>
   <g id="patch_107">
    <path clip-path="url(#pdba36ec186)" d="M 1057.305875 379.124436 
L 1064.986411 379.124436 
L 1064.986411 177.230144 
L 1057.305875 177.230144 
z
" style="fill:#348abd;opacity:0.85;"/>
   </g>
   <g id="patch_108">
    <path clip-path="url(#pdba36ec186)" d="M 1066.906545 379.124436 
L 1074.58708 379.124436 
L 1074.58708 364.673055 
L 1066.906545 364.673055 
z
" style="fill:#348abd;opacity:0.85;"/>
   </g>
   <g id="patch_109">
    <path clip-path="url(#pdba36ec186)" d="M 1076.507214 379.124436 
L 1084.18775 379.124436 
L 1084.18775 364.531375 
L 1076.507214 364.531375 
z
" style="fill:#348abd;opacity:0.85;"/>
   </g>
   <g id="patch_110">
    <path clip-path="url(#pdba36ec186)" d="M 1086.107884 379.124436 
L 1093.78842 379.124436 
L 1093.78842 364.531375 
L 1086.107884 364.531375 
z
" style="fill:#348abd;opacity:0.85;"/>
   </g>
   <g id="patch_111">
    <path clip-path="url(#pdba36ec186)" d="M 1095.708554 379.124436 
L 1103.389089 379.124436 
L 1103.389089 364.531375 
L 1095.708554 364.531375 
z
" style="fill:#348abd;opacity:0.85;"/>
   </g>
   <g id="patch_112">
    <path clip-path="url(#pdba36ec186)" d="M 1105.309223 379.124436 
L 1112.989759 379.124436 
L 1112.989759 364.531375 
L 1105.309223 364.531375 
z
" style="fill:#348abd;opacity:0.85;"/>
   </g>
   <g id="patch_113">
    <path clip-path="url(#pdba36ec186)" d="M 1114.909893 379.124436 
L 1122.590429 379.124436 
L 1122.590429 364.673055 
L 1114.909893 364.673055 
z
" style="fill:#348abd;opacity:0.85;"/>
   </g>
   <g id="patch_114">
    <path clip-path="url(#pdba36ec186)" d="M 1124.510563 379.124436 
L 1132.191098 379.124436 
L 1132.191098 377.282593 
L 1124.510563 377.282593 
z
" style="fill:#348abd;opacity:0.85;"/>
   </g>
   <g id="matplotlib.axis_1">
    <g id="xtick_1">
     <g id="line2d_1">
      <path clip-path="url(#pdba36ec186)" d="M 62.6765 379.124436 
L 62.6765 33.247636 
" style="fill:none;stroke:#808080;stroke-dasharray:0.3,0.495;stroke-dashoffset:0;stroke-width:0.3;"/>
     </g>
     <g id="line2d_2">
      <defs>
       <path d="M 0 0 
L 0 3.5 
" id="m1d79b68b79" style="stroke:#000000;stroke-width:0.8;"/>
      </defs>
      <g>
       <use style="stroke:#000000;stroke-width:0.8;" x="62.6765" xlink:href="#m1d79b68b79" y="379.124436"/>
      </g>
     </g>
     <g id="text_1">
      <!-- 0 -->
      <defs>
       <path d="M 31.78125 66.40625 
Q 24.171875 66.40625 20.328125 58.90625 
Q 16.5 51.421875 16.5 36.375 
Q 16.5 21.390625 20.328125 13.890625 
Q 24.171875 6.390625 31.78125 6.390625 
Q 39.453125 6.390625 43.28125 13.890625 
Q 47.125 21.390625 47.125 36.375 
Q 47.125 51.421875 43.28125 58.90625 
Q 39.453125 66.40625 31.78125 66.40625 
z
M 31.78125 74.21875 
Q 44.046875 74.21875 50.515625 64.515625 
Q 56.984375 54.828125 56.984375 36.375 
Q 56.984375 17.96875 50.515625 8.265625 
Q 44.046875 -1.421875 31.78125 -1.421875 
Q 19.53125 -1.421875 13.0625 8.265625 
Q 6.59375 17.96875 6.59375 36.375 
Q 6.59375 54.828125 13.0625 64.515625 
Q 19.53125 74.21875 31.78125 74.21875 
z
" id="DejaVuSans-48"/>
      </defs>
      <g transform="translate(58.859 395.242561)scale(0.12 -0.12)">
       <use xlink:href="#DejaVuSans-48"/>
      </g>
     </g>
    </g>
    <g id="xtick_2">
     <g id="line2d_3">
      <path clip-path="url(#pdba36ec186)" d="M 254.689893 379.124436 
L 254.689893 33.247636 
" style="fill:none;stroke:#808080;stroke-dasharray:0.3,0.495;stroke-dashoffset:0;stroke-width:0.3;"/>
     </g>
     <g id="line2d_4">
      <g>
       <use style="stroke:#000000;stroke-width:0.8;" x="254.689893" xlink:href="#m1d79b68b79" y="379.124436"/>
      </g>
     </g>
     <g id="text_2">
      <!-- 20 -->
      <defs>
       <path d="M 19.1875 8.296875 
L 53.609375 8.296875 
L 53.609375 0 
L 7.328125 0 
L 7.328125 8.296875 
Q 12.9375 14.109375 22.625 23.890625 
Q 32.328125 33.6875 34.8125 36.53125 
Q 39.546875 41.84375 41.421875 45.53125 
Q 43.3125 49.21875 43.3125 52.78125 
Q 43.3125 58.59375 39.234375 62.25 
Q 35.15625 65.921875 28.609375 65.921875 
Q 23.96875 65.921875 18.8125 64.3125 
Q 13.671875 62.703125 7.8125 59.421875 
L 7.8125 69.390625 
Q 13.765625 71.78125 18.9375 73 
Q 24.125 74.21875 28.421875 74.21875 
Q 39.75 74.21875 46.484375 68.546875 
Q 53.21875 62.890625 53.21875 53.421875 
Q 53.21875 48.921875 51.53125 44.890625 
Q 49.859375 40.875 45.40625 35.40625 
Q 44.1875 33.984375 37.640625 27.21875 
Q 31.109375 20.453125 19.1875 8.296875 
z
" id="DejaVuSans-50"/>
      </defs>
      <g transform="translate(247.054893 395.242561)scale(0.12 -0.12)">
       <use xlink:href="#DejaVuSans-50"/>
       <use x="63.623047" xlink:href="#DejaVuSans-48"/>
      </g>
     </g>
    </g>
    <g id="xtick_3">
     <g id="line2d_5">
      <path clip-path="url(#pdba36ec186)" d="M 446.703286 379.124436 
L 446.703286 33.247636 
" style="fill:none;stroke:#808080;stroke-dasharray:0.3,0.495;stroke-dashoffset:0;stroke-width:0.3;"/>
     </g>
     <g id="line2d_6">
      <g>
       <use style="stroke:#000000;stroke-width:0.8;" x="446.703286" xlink:href="#m1d79b68b79" y="379.124436"/>
      </g>
     </g>
     <g id="text_3">
      <!-- 40 -->
      <defs>
       <path d="M 37.796875 64.3125 
L 12.890625 25.390625 
L 37.796875 25.390625 
z
M 35.203125 72.90625 
L 47.609375 72.90625 
L 47.609375 25.390625 
L 58.015625 25.390625 
L 58.015625 17.1875 
L 47.609375 17.1875 
L 47.609375 0 
L 37.796875 0 
L 37.796875 17.1875 
L 4.890625 17.1875 
L 4.890625 26.703125 
z
" id="DejaVuSans-52"/>
      </defs>
      <g transform="translate(439.068286 395.242561)scale(0.12 -0.12)">
       <use xlink:href="#DejaVuSans-52"/>
       <use x="63.623047" xlink:href="#DejaVuSans-48"/>
      </g>
     </g>
    </g>
    <g id="xtick_4">
     <g id="line2d_7">
      <path clip-path="url(#pdba36ec186)" d="M 638.716679 379.124436 
L 638.716679 33.247636 
" style="fill:none;stroke:#808080;stroke-dasharray:0.3,0.495;stroke-dashoffset:0;stroke-width:0.3;"/>
     </g>
     <g id="line2d_8">
      <g>
       <use style="stroke:#000000;stroke-width:0.8;" x="638.716679" xlink:href="#m1d79b68b79" y="379.124436"/>
      </g>
     </g>
     <g id="text_4">
      <!-- 60 -->
      <defs>
       <path d="M 33.015625 40.375 
Q 26.375 40.375 22.484375 35.828125 
Q 18.609375 31.296875 18.609375 23.390625 
Q 18.609375 15.53125 22.484375 10.953125 
Q 26.375 6.390625 33.015625 6.390625 
Q 39.65625 6.390625 43.53125 10.953125 
Q 47.40625 15.53125 47.40625 23.390625 
Q 47.40625 31.296875 43.53125 35.828125 
Q 39.65625 40.375 33.015625 40.375 
z
M 52.59375 71.296875 
L 52.59375 62.3125 
Q 48.875 64.0625 45.09375 64.984375 
Q 41.3125 65.921875 37.59375 65.921875 
Q 27.828125 65.921875 22.671875 59.328125 
Q 17.53125 52.734375 16.796875 39.40625 
Q 19.671875 43.65625 24.015625 45.921875 
Q 28.375 48.1875 33.59375 48.1875 
Q 44.578125 48.1875 50.953125 41.515625 
Q 57.328125 34.859375 57.328125 23.390625 
Q 57.328125 12.15625 50.6875 5.359375 
Q 44.046875 -1.421875 33.015625 -1.421875 
Q 20.359375 -1.421875 13.671875 8.265625 
Q 6.984375 17.96875 6.984375 36.375 
Q 6.984375 53.65625 15.1875 63.9375 
Q 23.390625 74.21875 37.203125 74.21875 
Q 40.921875 74.21875 44.703125 73.484375 
Q 48.484375 72.75 52.59375 71.296875 
z
" id="DejaVuSans-54"/>
      </defs>
      <g transform="translate(631.081679 395.242561)scale(0.12 -0.12)">
       <use xlink:href="#DejaVuSans-54"/>
       <use x="63.623047" xlink:href="#DejaVuSans-48"/>
      </g>
     </g>
    </g>
    <g id="xtick_5">
     <g id="line2d_9">
      <path clip-path="url(#pdba36ec186)" d="M 830.730071 379.124436 
L 830.730071 33.247636 
" style="fill:none;stroke:#808080;stroke-dasharray:0.3,0.495;stroke-dashoffset:0;stroke-width:0.3;"/>
     </g>
     <g id="line2d_10">
      <g>
       <use style="stroke:#000000;stroke-width:0.8;" x="830.730071" xlink:href="#m1d79b68b79" y="379.124436"/>
      </g>
     </g>
     <g id="text_5">
      <!-- 80 -->
      <defs>
       <path d="M 31.78125 34.625 
Q 24.75 34.625 20.71875 30.859375 
Q 16.703125 27.09375 16.703125 20.515625 
Q 16.703125 13.921875 20.71875 10.15625 
Q 24.75 6.390625 31.78125 6.390625 
Q 38.8125 6.390625 42.859375 10.171875 
Q 46.921875 13.96875 46.921875 20.515625 
Q 46.921875 27.09375 42.890625 30.859375 
Q 38.875 34.625 31.78125 34.625 
z
M 21.921875 38.8125 
Q 15.578125 40.375 12.03125 44.71875 
Q 8.5 49.078125 8.5 55.328125 
Q 8.5 64.0625 14.71875 69.140625 
Q 20.953125 74.21875 31.78125 74.21875 
Q 42.671875 74.21875 48.875 69.140625 
Q 55.078125 64.0625 55.078125 55.328125 
Q 55.078125 49.078125 51.53125 44.71875 
Q 48 40.375 41.703125 38.8125 
Q 48.828125 37.15625 52.796875 32.3125 
Q 56.78125 27.484375 56.78125 20.515625 
Q 56.78125 9.90625 50.3125 4.234375 
Q 43.84375 -1.421875 31.78125 -1.421875 
Q 19.734375 -1.421875 13.25 4.234375 
Q 6.78125 9.90625 6.78125 20.515625 
Q 6.78125 27.484375 10.78125 32.3125 
Q 14.796875 37.15625 21.921875 38.8125 
z
M 18.3125 54.390625 
Q 18.3125 48.734375 21.84375 45.5625 
Q 25.390625 42.390625 31.78125 42.390625 
Q 38.140625 42.390625 41.71875 45.5625 
Q 45.3125 48.734375 45.3125 54.390625 
Q 45.3125 60.0625 41.71875 63.234375 
Q 38.140625 66.40625 31.78125 66.40625 
Q 25.390625 66.40625 21.84375 63.234375 
Q 18.3125 60.0625 18.3125 54.390625 
z
" id="DejaVuSans-56"/>
      </defs>
      <g transform="translate(823.095071 395.242561)scale(0.12 -0.12)">
       <use xlink:href="#DejaVuSans-56"/>
       <use x="63.623047" xlink:href="#DejaVuSans-48"/>
      </g>
     </g>
    </g>
    <g id="xtick_6">
     <g id="line2d_11">
      <path clip-path="url(#pdba36ec186)" d="M 1022.743464 379.124436 
L 1022.743464 33.247636 
" style="fill:none;stroke:#808080;stroke-dasharray:0.3,0.495;stroke-dashoffset:0;stroke-width:0.3;"/>
     </g>
     <g id="line2d_12">
      <g>
       <use style="stroke:#000000;stroke-width:0.8;" x="1022.743464" xlink:href="#m1d79b68b79" y="379.124436"/>
      </g>
     </g>
     <g id="text_6">
      <!-- 100 -->
      <defs>
       <path d="M 12.40625 8.296875 
L 28.515625 8.296875 
L 28.515625 63.921875 
L 10.984375 60.40625 
L 10.984375 69.390625 
L 28.421875 72.90625 
L 38.28125 72.90625 
L 38.28125 8.296875 
L 54.390625 8.296875 
L 54.390625 0 
L 12.40625 0 
z
" id="DejaVuSans-49"/>
      </defs>
      <g transform="translate(1011.290964 395.242561)scale(0.12 -0.12)">
       <use xlink:href="#DejaVuSans-49"/>
       <use x="63.623047" xlink:href="#DejaVuSans-48"/>
       <use x="127.246094" xlink:href="#DejaVuSans-48"/>
      </g>
     </g>
    </g>
    <g id="text_7">
     <!-- Time (in hours) -->
     <defs>
      <path d="M -0.296875 72.90625 
L 61.375 72.90625 
L 61.375 64.59375 
L 35.5 64.59375 
L 35.5 0 
L 25.59375 0 
L 25.59375 64.59375 
L -0.296875 64.59375 
z
" id="DejaVuSans-84"/>
      <path d="M 9.421875 54.6875 
L 18.40625 54.6875 
L 18.40625 0 
L 9.421875 0 
z
M 9.421875 75.984375 
L 18.40625 75.984375 
L 18.40625 64.59375 
L 9.421875 64.59375 
z
" id="DejaVuSans-105"/>
      <path d="M 52 44.1875 
Q 55.375 50.25 60.0625 53.125 
Q 64.75 56 71.09375 56 
Q 79.640625 56 84.28125 50.015625 
Q 88.921875 44.046875 88.921875 33.015625 
L 88.921875 0 
L 79.890625 0 
L 79.890625 32.71875 
Q 79.890625 40.578125 77.09375 44.375 
Q 74.3125 48.1875 68.609375 48.1875 
Q 61.625 48.1875 57.5625 43.546875 
Q 53.515625 38.921875 53.515625 30.90625 
L 53.515625 0 
L 44.484375 0 
L 44.484375 32.71875 
Q 44.484375 40.625 41.703125 44.40625 
Q 38.921875 48.1875 33.109375 48.1875 
Q 26.21875 48.1875 22.15625 43.53125 
Q 18.109375 38.875 18.109375 30.90625 
L 18.109375 0 
L 9.078125 0 
L 9.078125 54.6875 
L 18.109375 54.6875 
L 18.109375 46.1875 
Q 21.1875 51.21875 25.484375 53.609375 
Q 29.78125 56 35.6875 56 
Q 41.65625 56 45.828125 52.96875 
Q 50 49.953125 52 44.1875 
z
" id="DejaVuSans-109"/>
      <path d="M 56.203125 29.59375 
L 56.203125 25.203125 
L 14.890625 25.203125 
Q 15.484375 15.921875 20.484375 11.0625 
Q 25.484375 6.203125 34.421875 6.203125 
Q 39.59375 6.203125 44.453125 7.46875 
Q 49.3125 8.734375 54.109375 11.28125 
L 54.109375 2.78125 
Q 49.265625 0.734375 44.1875 -0.34375 
Q 39.109375 -1.421875 33.890625 -1.421875 
Q 20.796875 -1.421875 13.15625 6.1875 
Q 5.515625 13.8125 5.515625 26.8125 
Q 5.515625 40.234375 12.765625 48.109375 
Q 20.015625 56 32.328125 56 
Q 43.359375 56 49.78125 48.890625 
Q 56.203125 41.796875 56.203125 29.59375 
z
M 47.21875 32.234375 
Q 47.125 39.59375 43.09375 43.984375 
Q 39.0625 48.390625 32.421875 48.390625 
Q 24.90625 48.390625 20.390625 44.140625 
Q 15.875 39.890625 15.1875 32.171875 
z
" id="DejaVuSans-101"/>
      <path id="DejaVuSans-32"/>
      <path d="M 31 75.875 
Q 24.46875 64.65625 21.28125 53.65625 
Q 18.109375 42.671875 18.109375 31.390625 
Q 18.109375 20.125 21.3125 9.0625 
Q 24.515625 -2 31 -13.1875 
L 23.1875 -13.1875 
Q 15.875 -1.703125 12.234375 9.375 
Q 8.59375 20.453125 8.59375 31.390625 
Q 8.59375 42.28125 12.203125 53.3125 
Q 15.828125 64.359375 23.1875 75.875 
z
" id="DejaVuSans-40"/>
      <path d="M 54.890625 33.015625 
L 54.890625 0 
L 45.90625 0 
L 45.90625 32.71875 
Q 45.90625 40.484375 42.875 44.328125 
Q 39.84375 48.1875 33.796875 48.1875 
Q 26.515625 48.1875 22.3125 43.546875 
Q 18.109375 38.921875 18.109375 30.90625 
L 18.109375 0 
L 9.078125 0 
L 9.078125 54.6875 
L 18.109375 54.6875 
L 18.109375 46.1875 
Q 21.34375 51.125 25.703125 53.5625 
Q 30.078125 56 35.796875 56 
Q 45.21875 56 50.046875 50.171875 
Q 54.890625 44.34375 54.890625 33.015625 
z
" id="DejaVuSans-110"/>
      <path d="M 54.890625 33.015625 
L 54.890625 0 
L 45.90625 0 
L 45.90625 32.71875 
Q 45.90625 40.484375 42.875 44.328125 
Q 39.84375 48.1875 33.796875 48.1875 
Q 26.515625 48.1875 22.3125 43.546875 
Q 18.109375 38.921875 18.109375 30.90625 
L 18.109375 0 
L 9.078125 0 
L 9.078125 75.984375 
L 18.109375 75.984375 
L 18.109375 46.1875 
Q 21.34375 51.125 25.703125 53.5625 
Q 30.078125 56 35.796875 56 
Q 45.21875 56 50.046875 50.171875 
Q 54.890625 44.34375 54.890625 33.015625 
z
" id="DejaVuSans-104"/>
      <path d="M 30.609375 48.390625 
Q 23.390625 48.390625 19.1875 42.75 
Q 14.984375 37.109375 14.984375 27.296875 
Q 14.984375 17.484375 19.15625 11.84375 
Q 23.34375 6.203125 30.609375 6.203125 
Q 37.796875 6.203125 41.984375 11.859375 
Q 46.1875 17.53125 46.1875 27.296875 
Q 46.1875 37.015625 41.984375 42.703125 
Q 37.796875 48.390625 30.609375 48.390625 
z
M 30.609375 56 
Q 42.328125 56 49.015625 48.375 
Q 55.71875 40.765625 55.71875 27.296875 
Q 55.71875 13.875 49.015625 6.21875 
Q 42.328125 -1.421875 30.609375 -1.421875 
Q 18.84375 -1.421875 12.171875 6.21875 
Q 5.515625 13.875 5.515625 27.296875 
Q 5.515625 40.765625 12.171875 48.375 
Q 18.84375 56 30.609375 56 
z
" id="DejaVuSans-111"/>
      <path d="M 8.5 21.578125 
L 8.5 54.6875 
L 17.484375 54.6875 
L 17.484375 21.921875 
Q 17.484375 14.15625 20.5 10.265625 
Q 23.53125 6.390625 29.59375 6.390625 
Q 36.859375 6.390625 41.078125 11.03125 
Q 45.3125 15.671875 45.3125 23.6875 
L 45.3125 54.6875 
L 54.296875 54.6875 
L 54.296875 0 
L 45.3125 0 
L 45.3125 8.40625 
Q 42.046875 3.421875 37.71875 1 
Q 33.40625 -1.421875 27.6875 -1.421875 
Q 18.265625 -1.421875 13.375 4.4375 
Q 8.5 10.296875 8.5 21.578125 
z
M 31.109375 56 
z
" id="DejaVuSans-117"/>
      <path d="M 41.109375 46.296875 
Q 39.59375 47.171875 37.8125 47.578125 
Q 36.03125 48 33.890625 48 
Q 26.265625 48 22.1875 43.046875 
Q 18.109375 38.09375 18.109375 28.8125 
L 18.109375 0 
L 9.078125 0 
L 9.078125 54.6875 
L 18.109375 54.6875 
L 18.109375 46.1875 
Q 20.953125 51.171875 25.484375 53.578125 
Q 30.03125 56 36.53125 56 
Q 37.453125 56 38.578125 55.875 
Q 39.703125 55.765625 41.0625 55.515625 
z
" id="DejaVuSans-114"/>
      <path d="M 44.28125 53.078125 
L 44.28125 44.578125 
Q 40.484375 46.53125 36.375 47.5 
Q 32.28125 48.484375 27.875 48.484375 
Q 21.1875 48.484375 17.84375 46.4375 
Q 14.5 44.390625 14.5 40.28125 
Q 14.5 37.15625 16.890625 35.375 
Q 19.28125 33.59375 26.515625 31.984375 
L 29.59375 31.296875 
Q 39.15625 29.25 43.1875 25.515625 
Q 47.21875 21.78125 47.21875 15.09375 
Q 47.21875 7.46875 41.1875 3.015625 
Q 35.15625 -1.421875 24.609375 -1.421875 
Q 20.21875 -1.421875 15.453125 -0.5625 
Q 10.6875 0.296875 5.421875 2 
L 5.421875 11.28125 
Q 10.40625 8.6875 15.234375 7.390625 
Q 20.0625 6.109375 24.8125 6.109375 
Q 31.15625 6.109375 34.5625 8.28125 
Q 37.984375 10.453125 37.984375 14.40625 
Q 37.984375 18.0625 35.515625 20.015625 
Q 33.0625 21.96875 24.703125 23.78125 
L 21.578125 24.515625 
Q 13.234375 26.265625 9.515625 29.90625 
Q 5.8125 33.546875 5.8125 39.890625 
Q 5.8125 47.609375 11.28125 51.796875 
Q 16.75 56 26.8125 56 
Q 31.78125 56 36.171875 55.265625 
Q 40.578125 54.546875 44.28125 53.078125 
z
" id="DejaVuSans-115"/>
      <path d="M 8.015625 75.875 
L 15.828125 75.875 
Q 23.140625 64.359375 26.78125 53.3125 
Q 30.421875 42.28125 30.421875 31.390625 
Q 30.421875 20.453125 26.78125 9.375 
Q 23.140625 -1.703125 15.828125 -13.1875 
L 8.015625 -13.1875 
Q 14.5 -2 17.703125 9.0625 
Q 20.90625 20.125 20.90625 31.390625 
Q 20.90625 42.671875 17.703125 53.65625 
Q 14.5 64.65625 8.015625 75.875 
z
" id="DejaVuSans-41"/>
     </defs>
     <g transform="translate(545.475875 412.679936)scale(0.144 -0.144)">
      <use xlink:href="#DejaVuSans-84"/>
      <use x="61.037109" xlink:href="#DejaVuSans-105"/>
      <use x="88.820312" xlink:href="#DejaVuSans-109"/>
      <use x="186.232422" xlink:href="#DejaVuSans-101"/>
      <use x="247.755859" xlink:href="#DejaVuSans-32"/>
      <use x="279.542969" xlink:href="#DejaVuSans-40"/>
      <use x="318.556641" xlink:href="#DejaVuSans-105"/>
      <use x="346.339844" xlink:href="#DejaVuSans-110"/>
      <use x="409.71875" xlink:href="#DejaVuSans-32"/>
      <use x="441.505859" xlink:href="#DejaVuSans-104"/>
      <use x="504.884766" xlink:href="#DejaVuSans-111"/>
      <use x="566.066406" xlink:href="#DejaVuSans-117"/>
      <use x="629.445312" xlink:href="#DejaVuSans-114"/>
      <use x="670.558594" xlink:href="#DejaVuSans-115"/>
      <use x="722.658203" xlink:href="#DejaVuSans-41"/>
     </g>
    </g>
   </g>
   <g id="matplotlib.axis_2">
    <g id="ytick_1">
     <g id="line2d_13">
      <path clip-path="url(#pdba36ec186)" d="M 62.6765 379.124436 
L 1137.9515 379.124436 
" style="fill:none;stroke:#808080;stroke-dasharray:0.3,0.495;stroke-dashoffset:0;stroke-width:0.3;"/>
     </g>
     <g id="line2d_14">
      <defs>
       <path d="M 0 0 
L -3.5 0 
" id="m512b3038c9" style="stroke:#000000;stroke-width:0.8;"/>
      </defs>
      <g>
       <use style="stroke:#000000;stroke-width:0.8;" x="62.6765" xlink:href="#m512b3038c9" y="379.124436"/>
      </g>
     </g>
     <g id="text_8">
      <!-- 0 -->
      <g transform="translate(48.0415 383.683498)scale(0.12 -0.12)">
       <use xlink:href="#DejaVuSans-48"/>
      </g>
     </g>
    </g>
    <g id="ytick_2">
     <g id="line2d_15">
      <path clip-path="url(#pdba36ec186)" d="M 62.6765 308.284334 
L 1137.9515 308.284334 
" style="fill:none;stroke:#808080;stroke-dasharray:0.3,0.495;stroke-dashoffset:0;stroke-width:0.3;"/>
     </g>
     <g id="line2d_16">
      <g>
       <use style="stroke:#000000;stroke-width:0.8;" x="62.6765" xlink:href="#m512b3038c9" y="308.284334"/>
      </g>
     </g>
     <g id="text_9">
      <!-- 500 -->
      <defs>
       <path d="M 10.796875 72.90625 
L 49.515625 72.90625 
L 49.515625 64.59375 
L 19.828125 64.59375 
L 19.828125 46.734375 
Q 21.96875 47.46875 24.109375 47.828125 
Q 26.265625 48.1875 28.421875 48.1875 
Q 40.625 48.1875 47.75 41.5 
Q 54.890625 34.8125 54.890625 23.390625 
Q 54.890625 11.625 47.5625 5.09375 
Q 40.234375 -1.421875 26.90625 -1.421875 
Q 22.3125 -1.421875 17.546875 -0.640625 
Q 12.796875 0.140625 7.71875 1.703125 
L 7.71875 11.625 
Q 12.109375 9.234375 16.796875 8.0625 
Q 21.484375 6.890625 26.703125 6.890625 
Q 35.15625 6.890625 40.078125 11.328125 
Q 45.015625 15.765625 45.015625 23.390625 
Q 45.015625 31 40.078125 35.4375 
Q 35.15625 39.890625 26.703125 39.890625 
Q 22.75 39.890625 18.8125 39.015625 
Q 14.890625 38.140625 10.796875 36.28125 
z
" id="DejaVuSans-53"/>
      </defs>
      <g transform="translate(32.7715 312.843396)scale(0.12 -0.12)">
       <use xlink:href="#DejaVuSans-53"/>
       <use x="63.623047" xlink:href="#DejaVuSans-48"/>
       <use x="127.246094" xlink:href="#DejaVuSans-48"/>
      </g>
     </g>
    </g>
    <g id="ytick_3">
     <g id="line2d_17">
      <path clip-path="url(#pdba36ec186)" d="M 62.6765 237.444231 
L 1137.9515 237.444231 
" style="fill:none;stroke:#808080;stroke-dasharray:0.3,0.495;stroke-dashoffset:0;stroke-width:0.3;"/>
     </g>
     <g id="line2d_18">
      <g>
       <use style="stroke:#000000;stroke-width:0.8;" x="62.6765" xlink:href="#m512b3038c9" y="237.444231"/>
      </g>
     </g>
     <g id="text_10">
      <!-- 1000 -->
      <g transform="translate(25.1365 242.003294)scale(0.12 -0.12)">
       <use xlink:href="#DejaVuSans-49"/>
       <use x="63.623047" xlink:href="#DejaVuSans-48"/>
       <use x="127.246094" xlink:href="#DejaVuSans-48"/>
       <use x="190.869141" xlink:href="#DejaVuSans-48"/>
      </g>
     </g>
    </g>
    <g id="ytick_4">
     <g id="line2d_19">
      <path clip-path="url(#pdba36ec186)" d="M 62.6765 166.604129 
L 1137.9515 166.604129 
" style="fill:none;stroke:#808080;stroke-dasharray:0.3,0.495;stroke-dashoffset:0;stroke-width:0.3;"/>
     </g>
     <g id="line2d_20">
      <g>
       <use style="stroke:#000000;stroke-width:0.8;" x="62.6765" xlink:href="#m512b3038c9" y="166.604129"/>
      </g>
     </g>
     <g id="text_11">
      <!-- 1500 -->
      <g transform="translate(25.1365 171.163191)scale(0.12 -0.12)">
       <use xlink:href="#DejaVuSans-49"/>
       <use x="63.623047" xlink:href="#DejaVuSans-53"/>
       <use x="127.246094" xlink:href="#DejaVuSans-48"/>
       <use x="190.869141" xlink:href="#DejaVuSans-48"/>
      </g>
     </g>
    </g>
    <g id="ytick_5">
     <g id="line2d_21">
      <path clip-path="url(#pdba36ec186)" d="M 62.6765 95.764026 
L 1137.9515 95.764026 
" style="fill:none;stroke:#808080;stroke-dasharray:0.3,0.495;stroke-dashoffset:0;stroke-width:0.3;"/>
     </g>
     <g id="line2d_22">
      <g>
       <use style="stroke:#000000;stroke-width:0.8;" x="62.6765" xlink:href="#m512b3038c9" y="95.764026"/>
      </g>
     </g>
     <g id="text_12">
      <!-- 2000 -->
      <g transform="translate(25.1365 100.323089)scale(0.12 -0.12)">
       <use xlink:href="#DejaVuSans-50"/>
       <use x="63.623047" xlink:href="#DejaVuSans-48"/>
       <use x="127.246094" xlink:href="#DejaVuSans-48"/>
       <use x="190.869141" xlink:href="#DejaVuSans-48"/>
      </g>
     </g>
    </g>
    <g id="text_13">
     <!-- Energy [Wh] -->
     <defs>
      <path d="M 9.8125 72.90625 
L 55.90625 72.90625 
L 55.90625 64.59375 
L 19.671875 64.59375 
L 19.671875 43.015625 
L 54.390625 43.015625 
L 54.390625 34.71875 
L 19.671875 34.71875 
L 19.671875 8.296875 
L 56.78125 8.296875 
L 56.78125 0 
L 9.8125 0 
z
" id="DejaVuSans-69"/>
      <path d="M 45.40625 27.984375 
Q 45.40625 37.75 41.375 43.109375 
Q 37.359375 48.484375 30.078125 48.484375 
Q 22.859375 48.484375 18.828125 43.109375 
Q 14.796875 37.75 14.796875 27.984375 
Q 14.796875 18.265625 18.828125 12.890625 
Q 22.859375 7.515625 30.078125 7.515625 
Q 37.359375 7.515625 41.375 12.890625 
Q 45.40625 18.265625 45.40625 27.984375 
z
M 54.390625 6.78125 
Q 54.390625 -7.171875 48.1875 -13.984375 
Q 42 -20.796875 29.203125 -20.796875 
Q 24.46875 -20.796875 20.265625 -20.09375 
Q 16.0625 -19.390625 12.109375 -17.921875 
L 12.109375 -9.1875 
Q 16.0625 -11.328125 19.921875 -12.34375 
Q 23.78125 -13.375 27.78125 -13.375 
Q 36.625 -13.375 41.015625 -8.765625 
Q 45.40625 -4.15625 45.40625 5.171875 
L 45.40625 9.625 
Q 42.625 4.78125 38.28125 2.390625 
Q 33.9375 0 27.875 0 
Q 17.828125 0 11.671875 7.65625 
Q 5.515625 15.328125 5.515625 27.984375 
Q 5.515625 40.671875 11.671875 48.328125 
Q 17.828125 56 27.875 56 
Q 33.9375 56 38.28125 53.609375 
Q 42.625 51.21875 45.40625 46.390625 
L 45.40625 54.6875 
L 54.390625 54.6875 
z
" id="DejaVuSans-103"/>
      <path d="M 32.171875 -5.078125 
Q 28.375 -14.84375 24.75 -17.8125 
Q 21.140625 -20.796875 15.09375 -20.796875 
L 7.90625 -20.796875 
L 7.90625 -13.28125 
L 13.1875 -13.28125 
Q 16.890625 -13.28125 18.9375 -11.515625 
Q 21 -9.765625 23.484375 -3.21875 
L 25.09375 0.875 
L 2.984375 54.6875 
L 12.5 54.6875 
L 29.59375 11.921875 
L 46.6875 54.6875 
L 56.203125 54.6875 
z
" id="DejaVuSans-121"/>
      <path d="M 8.59375 75.984375 
L 29.296875 75.984375 
L 29.296875 69 
L 17.578125 69 
L 17.578125 -6.203125 
L 29.296875 -6.203125 
L 29.296875 -13.1875 
L 8.59375 -13.1875 
z
" id="DejaVuSans-91"/>
      <path d="M 3.328125 72.90625 
L 13.28125 72.90625 
L 28.609375 11.28125 
L 43.890625 72.90625 
L 54.984375 72.90625 
L 70.3125 11.28125 
L 85.59375 72.90625 
L 95.609375 72.90625 
L 77.296875 0 
L 64.890625 0 
L 49.515625 63.28125 
L 33.984375 0 
L 21.578125 0 
z
" id="DejaVuSans-87"/>
      <path d="M 30.421875 75.984375 
L 30.421875 -13.1875 
L 9.71875 -13.1875 
L 9.71875 -6.203125 
L 21.390625 -6.203125 
L 21.390625 69 
L 9.71875 69 
L 9.71875 75.984375 
z
" id="DejaVuSans-93"/>
     </defs>
     <g transform="translate(18.14175 251.108411)rotate(-90)scale(0.144 -0.144)">
      <use xlink:href="#DejaVuSans-69"/>
      <use x="63.183594" xlink:href="#DejaVuSans-110"/>
      <use x="126.5625" xlink:href="#DejaVuSans-101"/>
      <use x="188.085938" xlink:href="#DejaVuSans-114"/>
      <use x="229.183594" xlink:href="#DejaVuSans-103"/>
      <use x="292.660156" xlink:href="#DejaVuSans-121"/>
      <use x="351.839844" xlink:href="#DejaVuSans-32"/>
      <use x="383.626953" xlink:href="#DejaVuSans-91"/>
      <use x="422.640625" xlink:href="#DejaVuSans-87"/>
      <use x="521.517578" xlink:href="#DejaVuSans-104"/>
      <use x="584.896484" xlink:href="#DejaVuSans-93"/>
     </g>
    </g>
   </g>
   <g id="patch_115">
    <path d="M 62.6765 379.124436 
L 62.6765 33.247636 
" style="fill:none;stroke:#000000;stroke-linecap:square;stroke-linejoin:miter;stroke-width:0.8;"/>
   </g>
   <g id="patch_116">
    <path d="M 1137.9515 379.124436 
L 1137.9515 33.247636 
" style="fill:none;stroke:#000000;stroke-linecap:square;stroke-linejoin:miter;stroke-width:0.8;"/>
   </g>
   <g id="patch_117">
    <path d="M 62.6765 379.124436 
L 1137.9515 379.124436 
" style="fill:none;stroke:#000000;stroke-linecap:square;stroke-linejoin:miter;stroke-width:0.8;"/>
   </g>
   <g id="patch_118">
    <path d="M 62.6765 33.247636 
L 1137.9515 33.247636 
" style="fill:none;stroke:#000000;stroke-linecap:square;stroke-linejoin:miter;stroke-width:0.8;"/>
   </g>
   <g id="text_14">
    <!-- 14-Mar-2020, 23:00 -->
    <defs>
     <path d="M 4.890625 31.390625 
L 31.203125 31.390625 
L 31.203125 23.390625 
L 4.890625 23.390625 
z
" id="DejaVuSans-45"/>
     <path d="M 9.8125 72.90625 
L 24.515625 72.90625 
L 43.109375 23.296875 
L 61.8125 72.90625 
L 76.515625 72.90625 
L 76.515625 0 
L 66.890625 0 
L 66.890625 64.015625 
L 48.09375 14.015625 
L 38.1875 14.015625 
L 19.390625 64.015625 
L 19.390625 0 
L 9.8125 0 
z
" id="DejaVuSans-77"/>
     <path d="M 34.28125 27.484375 
Q 23.390625 27.484375 19.1875 25 
Q 14.984375 22.515625 14.984375 16.5 
Q 14.984375 11.71875 18.140625 8.90625 
Q 21.296875 6.109375 26.703125 6.109375 
Q 34.1875 6.109375 38.703125 11.40625 
Q 43.21875 16.703125 43.21875 25.484375 
L 43.21875 27.484375 
z
M 52.203125 31.203125 
L 52.203125 0 
L 43.21875 0 
L 43.21875 8.296875 
Q 40.140625 3.328125 35.546875 0.953125 
Q 30.953125 -1.421875 24.3125 -1.421875 
Q 15.921875 -1.421875 10.953125 3.296875 
Q 6 8.015625 6 15.921875 
Q 6 25.140625 12.171875 29.828125 
Q 18.359375 34.515625 30.609375 34.515625 
L 43.21875 34.515625 
L 43.21875 35.40625 
Q 43.21875 41.609375 39.140625 45 
Q 35.0625 48.390625 27.6875 48.390625 
Q 23 48.390625 18.546875 47.265625 
Q 14.109375 46.140625 10.015625 43.890625 
L 10.015625 52.203125 
Q 14.9375 54.109375 19.578125 55.046875 
Q 24.21875 56 28.609375 56 
Q 40.484375 56 46.34375 49.84375 
Q 52.203125 43.703125 52.203125 31.203125 
z
" id="DejaVuSans-97"/>
     <path d="M 11.71875 12.40625 
L 22.015625 12.40625 
L 22.015625 4 
L 14.015625 -11.625 
L 7.71875 -11.625 
L 11.71875 4 
z
" id="DejaVuSans-44"/>
     <path d="M 40.578125 39.3125 
Q 47.65625 37.796875 51.625 33 
Q 55.609375 28.21875 55.609375 21.1875 
Q 55.609375 10.40625 48.1875 4.484375 
Q 40.765625 -1.421875 27.09375 -1.421875 
Q 22.515625 -1.421875 17.65625 -0.515625 
Q 12.796875 0.390625 7.625 2.203125 
L 7.625 11.71875 
Q 11.71875 9.328125 16.59375 8.109375 
Q 21.484375 6.890625 26.8125 6.890625 
Q 36.078125 6.890625 40.9375 10.546875 
Q 45.796875 14.203125 45.796875 21.1875 
Q 45.796875 27.640625 41.28125 31.265625 
Q 36.765625 34.90625 28.71875 34.90625 
L 20.21875 34.90625 
L 20.21875 43.015625 
L 29.109375 43.015625 
Q 36.375 43.015625 40.234375 45.921875 
Q 44.09375 48.828125 44.09375 54.296875 
Q 44.09375 59.90625 40.109375 62.90625 
Q 36.140625 65.921875 28.71875 65.921875 
Q 24.65625 65.921875 20.015625 65.03125 
Q 15.375 64.15625 9.8125 62.3125 
L 9.8125 71.09375 
Q 15.4375 72.65625 20.34375 73.4375 
Q 25.25 74.21875 29.59375 74.21875 
Q 40.828125 74.21875 47.359375 69.109375 
Q 53.90625 64.015625 53.90625 55.328125 
Q 53.90625 49.265625 50.4375 45.09375 
Q 46.96875 40.921875 40.578125 39.3125 
z
" id="DejaVuSans-51"/>
     <path d="M 11.71875 12.40625 
L 22.015625 12.40625 
L 22.015625 0 
L 11.71875 0 
z
M 11.71875 51.703125 
L 22.015625 51.703125 
L 22.015625 39.3125 
L 11.71875 39.3125 
z
" id="DejaVuSans-58"/>
    </defs>
    <g transform="translate(533.109312 166.604129)scale(0.16 -0.16)">
     <use xlink:href="#DejaVuSans-49"/>
     <use x="63.623047" xlink:href="#DejaVuSans-52"/>
     <use x="127.246094" xlink:href="#DejaVuSans-45"/>
     <use x="163.330078" xlink:href="#DejaVuSans-77"/>
     <use x="249.609375" xlink:href="#DejaVuSans-97"/>
     <use x="310.888672" xlink:href="#DejaVuSans-114"/>
     <use x="351.908203" xlink:href="#DejaVuSans-45"/>
     <use x="387.992188" xlink:href="#DejaVuSans-50"/>
     <use x="451.615234" xlink:href="#DejaVuSans-48"/>
     <use x="515.238281" xlink:href="#DejaVuSans-50"/>
     <use x="578.861328" xlink:href="#DejaVuSans-48"/>
     <use x="642.484375" xlink:href="#DejaVuSans-44"/>
     <use x="674.271484" xlink:href="#DejaVuSans-32"/>
     <use x="706.058594" xlink:href="#DejaVuSans-50"/>
     <use x="769.681641" xlink:href="#DejaVuSans-51"/>
     <use x="833.304688" xlink:href="#DejaVuSans-58"/>
     <use x="866.996094" xlink:href="#DejaVuSans-48"/>
     <use x="930.619141" xlink:href="#DejaVuSans-48"/>
    </g>
   </g>
   <g id="text_15">
    <!-- Expected energy consumption - Aircon Rest., KFC (Bracknell, UK) -->
    <defs>
     <path d="M 54.890625 54.6875 
L 35.109375 28.078125 
L 55.90625 0 
L 45.3125 0 
L 29.390625 21.484375 
L 13.484375 0 
L 2.875 0 
L 24.125 28.609375 
L 4.6875 54.6875 
L 15.28125 54.6875 
L 29.78125 35.203125 
L 44.28125 54.6875 
z
" id="DejaVuSans-120"/>
     <path d="M 18.109375 8.203125 
L 18.109375 -20.796875 
L 9.078125 -20.796875 
L 9.078125 54.6875 
L 18.109375 54.6875 
L 18.109375 46.390625 
Q 20.953125 51.265625 25.265625 53.625 
Q 29.59375 56 35.59375 56 
Q 45.5625 56 51.78125 48.09375 
Q 58.015625 40.1875 58.015625 27.296875 
Q 58.015625 14.40625 51.78125 6.484375 
Q 45.5625 -1.421875 35.59375 -1.421875 
Q 29.59375 -1.421875 25.265625 0.953125 
Q 20.953125 3.328125 18.109375 8.203125 
z
M 48.6875 27.296875 
Q 48.6875 37.203125 44.609375 42.84375 
Q 40.53125 48.484375 33.40625 48.484375 
Q 26.265625 48.484375 22.1875 42.84375 
Q 18.109375 37.203125 18.109375 27.296875 
Q 18.109375 17.390625 22.1875 11.75 
Q 26.265625 6.109375 33.40625 6.109375 
Q 40.53125 6.109375 44.609375 11.75 
Q 48.6875 17.390625 48.6875 27.296875 
z
" id="DejaVuSans-112"/>
     <path d="M 48.78125 52.59375 
L 48.78125 44.1875 
Q 44.96875 46.296875 41.140625 47.34375 
Q 37.3125 48.390625 33.40625 48.390625 
Q 24.65625 48.390625 19.8125 42.84375 
Q 14.984375 37.3125 14.984375 27.296875 
Q 14.984375 17.28125 19.8125 11.734375 
Q 24.65625 6.203125 33.40625 6.203125 
Q 37.3125 6.203125 41.140625 7.25 
Q 44.96875 8.296875 48.78125 10.40625 
L 48.78125 2.09375 
Q 45.015625 0.34375 40.984375 -0.53125 
Q 36.96875 -1.421875 32.421875 -1.421875 
Q 20.0625 -1.421875 12.78125 6.34375 
Q 5.515625 14.109375 5.515625 27.296875 
Q 5.515625 40.671875 12.859375 48.328125 
Q 20.21875 56 33.015625 56 
Q 37.15625 56 41.109375 55.140625 
Q 45.0625 54.296875 48.78125 52.59375 
z
" id="DejaVuSans-99"/>
     <path d="M 18.3125 70.21875 
L 18.3125 54.6875 
L 36.8125 54.6875 
L 36.8125 47.703125 
L 18.3125 47.703125 
L 18.3125 18.015625 
Q 18.3125 11.328125 20.140625 9.421875 
Q 21.96875 7.515625 27.59375 7.515625 
L 36.8125 7.515625 
L 36.8125 0 
L 27.59375 0 
Q 17.1875 0 13.234375 3.875 
Q 9.28125 7.765625 9.28125 18.015625 
L 9.28125 47.703125 
L 2.6875 47.703125 
L 2.6875 54.6875 
L 9.28125 54.6875 
L 9.28125 70.21875 
z
" id="DejaVuSans-116"/>
     <path d="M 45.40625 46.390625 
L 45.40625 75.984375 
L 54.390625 75.984375 
L 54.390625 0 
L 45.40625 0 
L 45.40625 8.203125 
Q 42.578125 3.328125 38.25 0.953125 
Q 33.9375 -1.421875 27.875 -1.421875 
Q 17.96875 -1.421875 11.734375 6.484375 
Q 5.515625 14.40625 5.515625 27.296875 
Q 5.515625 40.1875 11.734375 48.09375 
Q 17.96875 56 27.875 56 
Q 33.9375 56 38.25 53.625 
Q 42.578125 51.265625 45.40625 46.390625 
z
M 14.796875 27.296875 
Q 14.796875 17.390625 18.875 11.75 
Q 22.953125 6.109375 30.078125 6.109375 
Q 37.203125 6.109375 41.296875 11.75 
Q 45.40625 17.390625 45.40625 27.296875 
Q 45.40625 37.203125 41.296875 42.84375 
Q 37.203125 48.484375 30.078125 48.484375 
Q 22.953125 48.484375 18.875 42.84375 
Q 14.796875 37.203125 14.796875 27.296875 
z
" id="DejaVuSans-100"/>
     <path d="M 34.1875 63.1875 
L 20.796875 26.90625 
L 47.609375 26.90625 
z
M 28.609375 72.90625 
L 39.796875 72.90625 
L 67.578125 0 
L 57.328125 0 
L 50.6875 18.703125 
L 17.828125 18.703125 
L 11.1875 0 
L 0.78125 0 
z
" id="DejaVuSans-65"/>
     <path d="M 44.390625 34.1875 
Q 47.5625 33.109375 50.5625 29.59375 
Q 53.5625 26.078125 56.59375 19.921875 
L 66.609375 0 
L 56 0 
L 46.6875 18.703125 
Q 43.0625 26.03125 39.671875 28.421875 
Q 36.28125 30.8125 30.421875 30.8125 
L 19.671875 30.8125 
L 19.671875 0 
L 9.8125 0 
L 9.8125 72.90625 
L 32.078125 72.90625 
Q 44.578125 72.90625 50.734375 67.671875 
Q 56.890625 62.453125 56.890625 51.90625 
Q 56.890625 45.015625 53.6875 40.46875 
Q 50.484375 35.9375 44.390625 34.1875 
z
M 19.671875 64.796875 
L 19.671875 38.921875 
L 32.078125 38.921875 
Q 39.203125 38.921875 42.84375 42.21875 
Q 46.484375 45.515625 46.484375 51.90625 
Q 46.484375 58.296875 42.84375 61.546875 
Q 39.203125 64.796875 32.078125 64.796875 
z
" id="DejaVuSans-82"/>
     <path d="M 10.6875 12.40625 
L 21 12.40625 
L 21 0 
L 10.6875 0 
z
" id="DejaVuSans-46"/>
     <path d="M 9.8125 72.90625 
L 19.671875 72.90625 
L 19.671875 42.09375 
L 52.390625 72.90625 
L 65.09375 72.90625 
L 28.90625 38.921875 
L 67.671875 0 
L 54.6875 0 
L 19.671875 35.109375 
L 19.671875 0 
L 9.8125 0 
z
" id="DejaVuSans-75"/>
     <path d="M 9.8125 72.90625 
L 51.703125 72.90625 
L 51.703125 64.59375 
L 19.671875 64.59375 
L 19.671875 43.109375 
L 48.578125 43.109375 
L 48.578125 34.8125 
L 19.671875 34.8125 
L 19.671875 0 
L 9.8125 0 
z
" id="DejaVuSans-70"/>
     <path d="M 64.40625 67.28125 
L 64.40625 56.890625 
Q 59.421875 61.53125 53.78125 63.8125 
Q 48.140625 66.109375 41.796875 66.109375 
Q 29.296875 66.109375 22.65625 58.46875 
Q 16.015625 50.828125 16.015625 36.375 
Q 16.015625 21.96875 22.65625 14.328125 
Q 29.296875 6.6875 41.796875 6.6875 
Q 48.140625 6.6875 53.78125 8.984375 
Q 59.421875 11.28125 64.40625 15.921875 
L 64.40625 5.609375 
Q 59.234375 2.09375 53.4375 0.328125 
Q 47.65625 -1.421875 41.21875 -1.421875 
Q 24.65625 -1.421875 15.125 8.703125 
Q 5.609375 18.84375 5.609375 36.375 
Q 5.609375 53.953125 15.125 64.078125 
Q 24.65625 74.21875 41.21875 74.21875 
Q 47.75 74.21875 53.53125 72.484375 
Q 59.328125 70.75 64.40625 67.28125 
z
" id="DejaVuSans-67"/>
     <path d="M 19.671875 34.8125 
L 19.671875 8.109375 
L 35.5 8.109375 
Q 43.453125 8.109375 47.28125 11.40625 
Q 51.125 14.703125 51.125 21.484375 
Q 51.125 28.328125 47.28125 31.5625 
Q 43.453125 34.8125 35.5 34.8125 
z
M 19.671875 64.796875 
L 19.671875 42.828125 
L 34.28125 42.828125 
Q 41.5 42.828125 45.03125 45.53125 
Q 48.578125 48.25 48.578125 53.8125 
Q 48.578125 59.328125 45.03125 62.0625 
Q 41.5 64.796875 34.28125 64.796875 
z
M 9.8125 72.90625 
L 35.015625 72.90625 
Q 46.296875 72.90625 52.390625 68.21875 
Q 58.5 63.53125 58.5 54.890625 
Q 58.5 48.1875 55.375 44.234375 
Q 52.25 40.28125 46.1875 39.3125 
Q 53.46875 37.75 57.5 32.78125 
Q 61.53125 27.828125 61.53125 20.40625 
Q 61.53125 10.640625 54.890625 5.3125 
Q 48.25 0 35.984375 0 
L 9.8125 0 
z
" id="DejaVuSans-66"/>
     <path d="M 9.078125 75.984375 
L 18.109375 75.984375 
L 18.109375 31.109375 
L 44.921875 54.6875 
L 56.390625 54.6875 
L 27.390625 29.109375 
L 57.625 0 
L 45.90625 0 
L 18.109375 26.703125 
L 18.109375 0 
L 9.078125 0 
z
" id="DejaVuSans-107"/>
     <path d="M 9.421875 75.984375 
L 18.40625 75.984375 
L 18.40625 0 
L 9.421875 0 
z
" id="DejaVuSans-108"/>
     <path d="M 8.6875 72.90625 
L 18.609375 72.90625 
L 18.609375 28.609375 
Q 18.609375 16.890625 22.84375 11.734375 
Q 27.09375 6.59375 36.625 6.59375 
Q 46.09375 6.59375 50.34375 11.734375 
Q 54.59375 16.890625 54.59375 28.609375 
L 54.59375 72.90625 
L 64.5 72.90625 
L 64.5 27.390625 
Q 64.5 13.140625 57.4375 5.859375 
Q 50.390625 -1.421875 36.625 -1.421875 
Q 22.796875 -1.421875 15.734375 5.859375 
Q 8.6875 13.140625 8.6875 27.390625 
z
" id="DejaVuSans-85"/>
    </defs>
    <g transform="translate(318.3854 20.3301)scale(0.1728 -0.1728)">
     <use xlink:href="#DejaVuSans-69"/>
     <use x="63.183594" xlink:href="#DejaVuSans-120"/>
     <use x="122.363281" xlink:href="#DejaVuSans-112"/>
     <use x="185.839844" xlink:href="#DejaVuSans-101"/>
     <use x="247.363281" xlink:href="#DejaVuSans-99"/>
     <use x="302.34375" xlink:href="#DejaVuSans-116"/>
     <use x="341.552734" xlink:href="#DejaVuSans-101"/>
     <use x="403.076172" xlink:href="#DejaVuSans-100"/>
     <use x="466.552734" xlink:href="#DejaVuSans-32"/>
     <use x="498.339844" xlink:href="#DejaVuSans-101"/>
     <use x="559.863281" xlink:href="#DejaVuSans-110"/>
     <use x="623.242188" xlink:href="#DejaVuSans-101"/>
     <use x="684.765625" xlink:href="#DejaVuSans-114"/>
     <use x="725.863281" xlink:href="#DejaVuSans-103"/>
     <use x="789.339844" xlink:href="#DejaVuSans-121"/>
     <use x="848.519531" xlink:href="#DejaVuSans-32"/>
     <use x="880.306641" xlink:href="#DejaVuSans-99"/>
     <use x="935.287109" xlink:href="#DejaVuSans-111"/>
     <use x="996.46875" xlink:href="#DejaVuSans-110"/>
     <use x="1059.847656" xlink:href="#DejaVuSans-115"/>
     <use x="1111.947266" xlink:href="#DejaVuSans-117"/>
     <use x="1175.326172" xlink:href="#DejaVuSans-109"/>
     <use x="1272.738281" xlink:href="#DejaVuSans-112"/>
     <use x="1336.214844" xlink:href="#DejaVuSans-116"/>
     <use x="1375.423828" xlink:href="#DejaVuSans-105"/>
     <use x="1403.207031" xlink:href="#DejaVuSans-111"/>
     <use x="1464.388672" xlink:href="#DejaVuSans-110"/>
     <use x="1527.767578" xlink:href="#DejaVuSans-32"/>
     <use x="1559.554688" xlink:href="#DejaVuSans-45"/>
     <use x="1595.638672" xlink:href="#DejaVuSans-32"/>
     <use x="1627.425781" xlink:href="#DejaVuSans-65"/>
     <use x="1695.833984" xlink:href="#DejaVuSans-105"/>
     <use x="1723.617188" xlink:href="#DejaVuSans-114"/>
     <use x="1764.699219" xlink:href="#DejaVuSans-99"/>
     <use x="1819.679688" xlink:href="#DejaVuSans-111"/>
     <use x="1880.861328" xlink:href="#DejaVuSans-110"/>
     <use x="1944.240234" xlink:href="#DejaVuSans-32"/>
     <use x="1976.027344" xlink:href="#DejaVuSans-82"/>
     <use x="2045.447266" xlink:href="#DejaVuSans-101"/>
     <use x="2106.970703" xlink:href="#DejaVuSans-115"/>
     <use x="2159.070312" xlink:href="#DejaVuSans-116"/>
     <use x="2198.279297" xlink:href="#DejaVuSans-46"/>
     <use x="2230.066406" xlink:href="#DejaVuSans-44"/>
     <use x="2261.853516" xlink:href="#DejaVuSans-32"/>
     <use x="2293.640625" xlink:href="#DejaVuSans-75"/>
     <use x="2359.216797" xlink:href="#DejaVuSans-70"/>
     <use x="2416.736328" xlink:href="#DejaVuSans-67"/>
     <use x="2486.560547" xlink:href="#DejaVuSans-32"/>
     <use x="2518.347656" xlink:href="#DejaVuSans-40"/>
     <use x="2557.361328" xlink:href="#DejaVuSans-66"/>
     <use x="2625.964844" xlink:href="#DejaVuSans-114"/>
     <use x="2667.078125" xlink:href="#DejaVuSans-97"/>
     <use x="2728.357422" xlink:href="#DejaVuSans-99"/>
     <use x="2783.337891" xlink:href="#DejaVuSans-107"/>
     <use x="2841.248047" xlink:href="#DejaVuSans-110"/>
     <use x="2904.626953" xlink:href="#DejaVuSans-101"/>
     <use x="2966.150391" xlink:href="#DejaVuSans-108"/>
     <use x="2993.933594" xlink:href="#DejaVuSans-108"/>
     <use x="3021.716797" xlink:href="#DejaVuSans-44"/>
     <use x="3053.503906" xlink:href="#DejaVuSans-32"/>
     <use x="3085.291016" xlink:href="#DejaVuSans-85"/>
     <use x="3158.484375" xlink:href="#DejaVuSans-75"/>
     <use x="3224.060547" xlink:href="#DejaVuSans-41"/>
    </g>
   </g>
   <g id="line2d_23">
    <path clip-path="url(#pdba36ec186)" d="M 62.6765 315.83264 
L 72.27717 315.83264 
L 81.877839 315.83264 
L 91.478509 315.83264 
L 101.079179 315.83264 
L 110.679848 315.83264 
L 120.280518 315.83264 
L 129.881188 315.83264 
L 139.481857 315.83264 
L 149.082527 315.83264 
L 158.683196 315.83264 
L 168.283866 315.83264 
L 177.884536 315.83264 
L 187.485205 315.83264 
L 197.085875 315.83264 
L 206.686545 315.83264 
L 216.287214 315.83264 
L 225.887884 315.83264 
L 235.488554 315.83264 
L 245.089223 315.83264 
L 254.689893 315.83264 
L 264.290563 315.83264 
L 273.891232 315.83264 
L 283.491902 315.83264 
L 293.092571 315.83264 
L 302.693241 315.83264 
L 312.293911 315.83264 
L 321.89458 315.83264 
L 331.49525 315.83264 
L 341.09592 315.83264 
L 350.696589 315.83264 
L 360.297259 315.83264 
L 369.897929 315.83264 
L 379.498598 315.83264 
L 389.099268 315.83264 
L 398.699938 315.83264 
L 408.300607 315.83264 
L 417.901277 315.83264 
L 427.501946 315.83264 
L 437.102616 315.83264 
L 446.703286 315.83264 
L 456.303955 315.83264 
L 465.904625 315.83264 
L 475.505295 315.83264 
L 485.105964 315.83264 
L 494.706634 315.83264 
L 504.307304 315.83264 
L 513.907973 330.170604 
L 523.508643 330.170604 
L 533.109312 330.170604 
L 542.709982 330.170604 
L 552.310652 330.170604 
L 561.911321 330.170604 
L 571.511991 330.170604 
L 581.112661 330.170604 
L 590.71333 330.170604 
L 600.314 330.170604 
L 609.91467 330.170604 
L 619.515339 330.170604 
L 629.116009 330.170604 
L 638.716679 330.170604 
L 648.317348 330.170604 
L 657.918018 330.170604 
L 667.518688 330.170604 
L 677.119357 330.170604 
L 686.720027 330.170604 
L 696.320696 330.170604 
L 705.921366 330.170604 
L 715.522036 330.170604 
L 725.122705 330.170604 
L 734.723375 330.170604 
L 744.324045 330.170604 
L 753.924714 330.170604 
L 763.525384 330.170604 
L 773.126054 330.170604 
L 782.726723 330.170604 
L 792.327393 330.170604 
L 801.928063 330.170604 
L 811.528732 330.170604 
L 821.129402 330.170604 
L 830.730071 330.170604 
L 840.330741 330.170604 
L 849.931411 330.170604 
L 859.53208 330.170604 
L 869.13275 330.170604 
L 878.73342 330.170604 
L 888.334089 330.170604 
L 897.934759 330.170604 
L 907.535429 330.170604 
L 917.136098 330.170604 
L 926.736768 330.170604 
L 936.337438 330.170604 
L 945.938107 330.170604 
L 955.538777 330.170604 
L 965.139446 330.170604 
L 974.740116 330.170604 
L 984.340786 330.170604 
L 993.941455 330.170604 
L 1003.542125 330.170604 
L 1013.142795 330.170604 
L 1022.743464 330.170604 
L 1032.344134 330.170604 
L 1041.944804 330.170604 
L 1051.545473 330.170604 
L 1061.146143 330.170604 
L 1070.746813 330.170604 
L 1080.347482 330.170604 
L 1089.948152 330.170604 
L 1099.548821 330.170604 
L 1109.149491 330.170604 
L 1118.750161 330.170604 
L 1128.35083 330.170604 
" style="fill:none;stroke:#e24a33;stroke-linecap:square;stroke-opacity:0.95;stroke-width:4;"/>
   </g>
   <g id="legend_1">
    <g id="patch_119">
     <path d="M 953.85275 144.353761 
L 1129.5515 144.353761 
Q 1131.9515 144.353761 1131.9515 141.953761 
L 1131.9515 41.647636 
Q 1131.9515 39.247636 1129.5515 39.247636 
L 953.85275 39.247636 
Q 951.45275 39.247636 951.45275 41.647636 
L 951.45275 141.953761 
Q 951.45275 144.353761 953.85275 144.353761 
z
" style="fill:#ffffff;opacity:0.8;stroke:#cccccc;stroke-linejoin:miter;"/>
    </g>
    <g id="line2d_24">
     <path d="M 956.25275 48.965761 
L 980.25275 48.965761 
" style="fill:none;stroke:#e24a33;stroke-linecap:square;stroke-opacity:0.95;stroke-width:4;"/>
    </g>
    <g id="line2d_25"/>
    <g id="text_16">
     <!-- expected consumption -->
     <g transform="translate(989.85275 53.165761)scale(0.12 -0.12)">
      <use xlink:href="#DejaVuSans-101"/>
      <use x="61.507812" xlink:href="#DejaVuSans-120"/>
      <use x="120.6875" xlink:href="#DejaVuSans-112"/>
      <use x="184.164062" xlink:href="#DejaVuSans-101"/>
      <use x="245.6875" xlink:href="#DejaVuSans-99"/>
      <use x="300.667969" xlink:href="#DejaVuSans-116"/>
      <use x="339.876953" xlink:href="#DejaVuSans-101"/>
      <use x="401.400391" xlink:href="#DejaVuSans-100"/>
      <use x="464.876953" xlink:href="#DejaVuSans-32"/>
      <use x="496.664062" xlink:href="#DejaVuSans-99"/>
      <use x="551.644531" xlink:href="#DejaVuSans-111"/>
      <use x="612.826172" xlink:href="#DejaVuSans-110"/>
      <use x="676.205078" xlink:href="#DejaVuSans-115"/>
      <use x="728.304688" xlink:href="#DejaVuSans-117"/>
      <use x="791.683594" xlink:href="#DejaVuSans-109"/>
      <use x="889.095703" xlink:href="#DejaVuSans-112"/>
      <use x="952.572266" xlink:href="#DejaVuSans-116"/>
      <use x="991.78125" xlink:href="#DejaVuSans-105"/>
      <use x="1019.564453" xlink:href="#DejaVuSans-111"/>
      <use x="1080.746094" xlink:href="#DejaVuSans-110"/>
     </g>
    </g>
    <g id="line2d_26">
     <path d="M 956.25275 66.579511 
L 980.25275 66.579511 
" style="fill:none;stroke:#000000;stroke-dasharray:4,6.6;stroke-dashoffset:0;stroke-width:4;"/>
    </g>
    <g id="line2d_27"/>
    <g id="text_17">
     <!-- Time of change -->
     <defs>
      <path d="M 37.109375 75.984375 
L 37.109375 68.5 
L 28.515625 68.5 
Q 23.6875 68.5 21.796875 66.546875 
Q 19.921875 64.59375 19.921875 59.515625 
L 19.921875 54.6875 
L 34.71875 54.6875 
L 34.71875 47.703125 
L 19.921875 47.703125 
L 19.921875 0 
L 10.890625 0 
L 10.890625 47.703125 
L 2.296875 47.703125 
L 2.296875 54.6875 
L 10.890625 54.6875 
L 10.890625 58.5 
Q 10.890625 67.625 15.140625 71.796875 
Q 19.390625 75.984375 28.609375 75.984375 
z
" id="DejaVuSans-102"/>
     </defs>
     <g transform="translate(989.85275 70.779511)scale(0.12 -0.12)">
      <use xlink:href="#DejaVuSans-84"/>
      <use x="61.037109" xlink:href="#DejaVuSans-105"/>
      <use x="88.820312" xlink:href="#DejaVuSans-109"/>
      <use x="186.232422" xlink:href="#DejaVuSans-101"/>
      <use x="247.755859" xlink:href="#DejaVuSans-32"/>
      <use x="279.542969" xlink:href="#DejaVuSans-111"/>
      <use x="340.724609" xlink:href="#DejaVuSans-102"/>
      <use x="375.929688" xlink:href="#DejaVuSans-32"/>
      <use x="407.716797" xlink:href="#DejaVuSans-99"/>
      <use x="462.697266" xlink:href="#DejaVuSans-104"/>
      <use x="526.076172" xlink:href="#DejaVuSans-97"/>
      <use x="587.355469" xlink:href="#DejaVuSans-110"/>
      <use x="650.734375" xlink:href="#DejaVuSans-103"/>
      <use x="714.210938" xlink:href="#DejaVuSans-101"/>
     </g>
    </g>
    <g id="patch_120">
     <path d="M 956.25275 88.393261 
L 980.25275 88.393261 
L 980.25275 79.993261 
L 956.25275 79.993261 
z
" style="fill:#ffa500;opacity:0.25;stroke:#ffa500;stroke-linejoin:miter;"/>
    </g>
    <g id="text_18">
     <!-- 90% Credible Interval -->
     <defs>
      <path d="M 10.984375 1.515625 
L 10.984375 10.5 
Q 14.703125 8.734375 18.5 7.8125 
Q 22.3125 6.890625 25.984375 6.890625 
Q 35.75 6.890625 40.890625 13.453125 
Q 46.046875 20.015625 46.78125 33.40625 
Q 43.953125 29.203125 39.59375 26.953125 
Q 35.25 24.703125 29.984375 24.703125 
Q 19.046875 24.703125 12.671875 31.3125 
Q 6.296875 37.9375 6.296875 49.421875 
Q 6.296875 60.640625 12.9375 67.421875 
Q 19.578125 74.21875 30.609375 74.21875 
Q 43.265625 74.21875 49.921875 64.515625 
Q 56.59375 54.828125 56.59375 36.375 
Q 56.59375 19.140625 48.40625 8.859375 
Q 40.234375 -1.421875 26.421875 -1.421875 
Q 22.703125 -1.421875 18.890625 -0.6875 
Q 15.09375 0.046875 10.984375 1.515625 
z
M 30.609375 32.421875 
Q 37.25 32.421875 41.125 36.953125 
Q 45.015625 41.5 45.015625 49.421875 
Q 45.015625 57.28125 41.125 61.84375 
Q 37.25 66.40625 30.609375 66.40625 
Q 23.96875 66.40625 20.09375 61.84375 
Q 16.21875 57.28125 16.21875 49.421875 
Q 16.21875 41.5 20.09375 36.953125 
Q 23.96875 32.421875 30.609375 32.421875 
z
" id="DejaVuSans-57"/>
      <path d="M 72.703125 32.078125 
Q 68.453125 32.078125 66.03125 28.46875 
Q 63.625 24.859375 63.625 18.40625 
Q 63.625 12.0625 66.03125 8.421875 
Q 68.453125 4.78125 72.703125 4.78125 
Q 76.859375 4.78125 79.265625 8.421875 
Q 81.6875 12.0625 81.6875 18.40625 
Q 81.6875 24.8125 79.265625 28.4375 
Q 76.859375 32.078125 72.703125 32.078125 
z
M 72.703125 38.28125 
Q 80.421875 38.28125 84.953125 32.90625 
Q 89.5 27.546875 89.5 18.40625 
Q 89.5 9.28125 84.9375 3.921875 
Q 80.375 -1.421875 72.703125 -1.421875 
Q 64.890625 -1.421875 60.34375 3.921875 
Q 55.8125 9.28125 55.8125 18.40625 
Q 55.8125 27.59375 60.375 32.9375 
Q 64.9375 38.28125 72.703125 38.28125 
z
M 22.3125 68.015625 
Q 18.109375 68.015625 15.6875 64.375 
Q 13.28125 60.75 13.28125 54.390625 
Q 13.28125 47.953125 15.671875 44.328125 
Q 18.0625 40.71875 22.3125 40.71875 
Q 26.5625 40.71875 28.96875 44.328125 
Q 31.390625 47.953125 31.390625 54.390625 
Q 31.390625 60.6875 28.953125 64.34375 
Q 26.515625 68.015625 22.3125 68.015625 
z
M 66.40625 74.21875 
L 74.21875 74.21875 
L 28.609375 -1.421875 
L 20.796875 -1.421875 
z
M 22.3125 74.21875 
Q 30.03125 74.21875 34.609375 68.875 
Q 39.203125 63.53125 39.203125 54.390625 
Q 39.203125 45.171875 34.640625 39.84375 
Q 30.078125 34.515625 22.3125 34.515625 
Q 14.546875 34.515625 10.03125 39.859375 
Q 5.515625 45.21875 5.515625 54.390625 
Q 5.515625 63.484375 10.046875 68.84375 
Q 14.59375 74.21875 22.3125 74.21875 
z
" id="DejaVuSans-37"/>
      <path d="M 48.6875 27.296875 
Q 48.6875 37.203125 44.609375 42.84375 
Q 40.53125 48.484375 33.40625 48.484375 
Q 26.265625 48.484375 22.1875 42.84375 
Q 18.109375 37.203125 18.109375 27.296875 
Q 18.109375 17.390625 22.1875 11.75 
Q 26.265625 6.109375 33.40625 6.109375 
Q 40.53125 6.109375 44.609375 11.75 
Q 48.6875 17.390625 48.6875 27.296875 
z
M 18.109375 46.390625 
Q 20.953125 51.265625 25.265625 53.625 
Q 29.59375 56 35.59375 56 
Q 45.5625 56 51.78125 48.09375 
Q 58.015625 40.1875 58.015625 27.296875 
Q 58.015625 14.40625 51.78125 6.484375 
Q 45.5625 -1.421875 35.59375 -1.421875 
Q 29.59375 -1.421875 25.265625 0.953125 
Q 20.953125 3.328125 18.109375 8.203125 
L 18.109375 0 
L 9.078125 0 
L 9.078125 75.984375 
L 18.109375 75.984375 
z
" id="DejaVuSans-98"/>
      <path d="M 9.8125 72.90625 
L 19.671875 72.90625 
L 19.671875 0 
L 9.8125 0 
z
" id="DejaVuSans-73"/>
      <path d="M 2.984375 54.6875 
L 12.5 54.6875 
L 29.59375 8.796875 
L 46.6875 54.6875 
L 56.203125 54.6875 
L 35.6875 0 
L 23.484375 0 
z
" id="DejaVuSans-118"/>
     </defs>
     <g transform="translate(989.85275 88.393261)scale(0.12 -0.12)">
      <use xlink:href="#DejaVuSans-57"/>
      <use x="63.623047" xlink:href="#DejaVuSans-48"/>
      <use x="127.246094" xlink:href="#DejaVuSans-37"/>
      <use x="222.265625" xlink:href="#DejaVuSans-32"/>
      <use x="254.052734" xlink:href="#DejaVuSans-67"/>
      <use x="323.876953" xlink:href="#DejaVuSans-114"/>
      <use x="364.958984" xlink:href="#DejaVuSans-101"/>
      <use x="426.482422" xlink:href="#DejaVuSans-100"/>
      <use x="489.958984" xlink:href="#DejaVuSans-105"/>
      <use x="517.742188" xlink:href="#DejaVuSans-98"/>
      <use x="581.21875" xlink:href="#DejaVuSans-108"/>
      <use x="609.001953" xlink:href="#DejaVuSans-101"/>
      <use x="670.525391" xlink:href="#DejaVuSans-32"/>
      <use x="702.3125" xlink:href="#DejaVuSans-73"/>
      <use x="731.804688" xlink:href="#DejaVuSans-110"/>
      <use x="795.183594" xlink:href="#DejaVuSans-116"/>
      <use x="834.392578" xlink:href="#DejaVuSans-101"/>
      <use x="895.916016" xlink:href="#DejaVuSans-114"/>
      <use x="937.029297" xlink:href="#DejaVuSans-118"/>
      <use x="996.208984" xlink:href="#DejaVuSans-97"/>
      <use x="1057.488281" xlink:href="#DejaVuSans-108"/>
     </g>
    </g>
    <g id="patch_121">
     <path d="M 956.25275 113.973511 
L 980.25275 113.973511 
L 980.25275 105.573511 
L 956.25275 105.573511 
z
" style="fill:#008000;opacity:0.25;stroke:#008000;stroke-linejoin:miter;"/>
    </g>
    <g id="text_19">
     <!-- 90% Credible Interval  -->
     <g transform="translate(989.85275 106.007011)scale(0.12 -0.12)">
      <use xlink:href="#DejaVuSans-57"/>
      <use x="63.623047" xlink:href="#DejaVuSans-48"/>
      <use x="127.246094" xlink:href="#DejaVuSans-37"/>
      <use x="222.265625" xlink:href="#DejaVuSans-32"/>
      <use x="254.052734" xlink:href="#DejaVuSans-67"/>
      <use x="323.876953" xlink:href="#DejaVuSans-114"/>
      <use x="364.958984" xlink:href="#DejaVuSans-101"/>
      <use x="426.482422" xlink:href="#DejaVuSans-100"/>
      <use x="489.958984" xlink:href="#DejaVuSans-105"/>
      <use x="517.742188" xlink:href="#DejaVuSans-98"/>
      <use x="581.21875" xlink:href="#DejaVuSans-108"/>
      <use x="609.001953" xlink:href="#DejaVuSans-101"/>
      <use x="670.525391" xlink:href="#DejaVuSans-32"/>
      <use x="702.3125" xlink:href="#DejaVuSans-73"/>
      <use x="731.804688" xlink:href="#DejaVuSans-110"/>
      <use x="795.183594" xlink:href="#DejaVuSans-116"/>
      <use x="834.392578" xlink:href="#DejaVuSans-101"/>
      <use x="895.916016" xlink:href="#DejaVuSans-114"/>
      <use x="937.029297" xlink:href="#DejaVuSans-118"/>
      <use x="996.208984" xlink:href="#DejaVuSans-97"/>
      <use x="1057.488281" xlink:href="#DejaVuSans-108"/>
      <use x="1085.271484" xlink:href="#DejaVuSans-32"/>
     </g>
     <!--  for tau -->
     <g transform="translate(989.85275 119.444386)scale(0.12 -0.12)">
      <use xlink:href="#DejaVuSans-32"/>
      <use x="31.787109" xlink:href="#DejaVuSans-102"/>
      <use x="66.992188" xlink:href="#DejaVuSans-111"/>
      <use x="128.173828" xlink:href="#DejaVuSans-114"/>
      <use x="169.287109" xlink:href="#DejaVuSans-32"/>
      <use x="201.074219" xlink:href="#DejaVuSans-116"/>
      <use x="240.283203" xlink:href="#DejaVuSans-97"/>
      <use x="301.5625" xlink:href="#DejaVuSans-117"/>
     </g>
    </g>
    <g id="patch_122">
     <path d="M 956.25275 137.058136 
L 980.25275 137.058136 
L 980.25275 128.658136 
L 956.25275 128.658136 
z
" style="fill:#348abd;opacity:0.85;"/>
    </g>
    <g id="text_20">
     <!-- observed consumption -->
     <g transform="translate(989.85275 137.058136)scale(0.12 -0.12)">
      <use xlink:href="#DejaVuSans-111"/>
      <use x="61.181641" xlink:href="#DejaVuSans-98"/>
      <use x="124.658203" xlink:href="#DejaVuSans-115"/>
      <use x="176.757812" xlink:href="#DejaVuSans-101"/>
      <use x="238.28125" xlink:href="#DejaVuSans-114"/>
      <use x="279.394531" xlink:href="#DejaVuSans-118"/>
      <use x="338.574219" xlink:href="#DejaVuSans-101"/>
      <use x="400.097656" xlink:href="#DejaVuSans-100"/>
      <use x="463.574219" xlink:href="#DejaVuSans-32"/>
      <use x="495.361328" xlink:href="#DejaVuSans-99"/>
      <use x="550.341797" xlink:href="#DejaVuSans-111"/>
      <use x="611.523438" xlink:href="#DejaVuSans-110"/>
      <use x="674.902344" xlink:href="#DejaVuSans-115"/>
      <use x="727.001953" xlink:href="#DejaVuSans-117"/>
      <use x="790.380859" xlink:href="#DejaVuSans-109"/>
      <use x="887.792969" xlink:href="#DejaVuSans-112"/>
      <use x="951.269531" xlink:href="#DejaVuSans-116"/>
      <use x="990.478516" xlink:href="#DejaVuSans-105"/>
      <use x="1018.261719" xlink:href="#DejaVuSans-111"/>
      <use x="1079.443359" xlink:href="#DejaVuSans-110"/>
     </g>
    </g>
   </g>
   <g id="line2d_28">
    <path clip-path="url(#pdba36ec186)" d="M 513.907973 379.124436 
L 513.907973 33.247636 
" style="fill:none;stroke:#000000;stroke-dasharray:4,6.6;stroke-dashoffset:0;stroke-width:4;"/>
   </g>
   <g id="PolyCollection_1">
    <defs>
     <path d="M 62.6765 -107.762816 
L 62.6765 -106.315747 
L 72.27717 -106.315747 
L 81.877839 -106.315747 
L 91.478509 -106.315747 
L 101.079179 -106.315747 
L 110.679848 -106.315747 
L 120.280518 -106.315747 
L 129.881188 -106.315747 
L 139.481857 -106.315747 
L 149.082527 -106.315747 
L 158.683196 -106.315747 
L 168.283866 -106.315747 
L 177.884536 -106.315747 
L 187.485205 -106.315747 
L 197.085875 -106.315747 
L 206.686545 -106.315747 
L 216.287214 -106.315747 
L 225.887884 -106.315747 
L 235.488554 -106.315747 
L 245.089223 -106.315747 
L 254.689893 -106.315747 
L 264.290563 -106.315747 
L 273.891232 -106.315747 
L 283.491902 -106.315747 
L 293.092571 -106.315747 
L 302.693241 -106.315747 
L 312.293911 -106.315747 
L 321.89458 -106.315747 
L 331.49525 -106.315747 
L 341.09592 -106.315747 
L 350.696589 -106.315747 
L 360.297259 -106.315747 
L 369.897929 -106.315747 
L 379.498598 -106.315747 
L 389.099268 -106.315747 
L 398.699938 -106.315747 
L 408.300607 -106.315747 
L 417.901277 -106.315747 
L 427.501946 -106.315747 
L 437.102616 -106.315747 
L 446.703286 -106.315747 
L 456.303955 -106.315747 
L 465.904625 -106.315747 
L 475.505295 -106.315747 
L 485.105964 -106.315747 
L 494.706634 -106.315747 
L 504.307304 -106.315747 
L 513.907973 -92.154536 
L 523.508643 -92.154536 
L 533.109312 -92.154536 
L 542.709982 -92.154536 
L 552.310652 -92.154536 
L 561.911321 -92.154536 
L 571.511991 -92.154536 
L 581.112661 -92.154536 
L 590.71333 -92.154536 
L 600.314 -92.154536 
L 609.91467 -92.154536 
L 619.515339 -92.154536 
L 629.116009 -92.154536 
L 638.716679 -92.154536 
L 648.317348 -92.154536 
L 657.918018 -92.154536 
L 667.518688 -92.154536 
L 677.119357 -92.154536 
L 686.720027 -92.154536 
L 696.320696 -92.154536 
L 705.921366 -92.154536 
L 715.522036 -92.154536 
L 725.122705 -92.154536 
L 734.723375 -92.154536 
L 744.324045 -92.154536 
L 753.924714 -92.154536 
L 763.525384 -92.154536 
L 773.126054 -92.154536 
L 782.726723 -92.154536 
L 792.327393 -92.154536 
L 801.928063 -92.154536 
L 811.528732 -92.154536 
L 821.129402 -92.154536 
L 830.730071 -92.154536 
L 840.330741 -92.154536 
L 849.931411 -92.154536 
L 859.53208 -92.154536 
L 869.13275 -92.154536 
L 878.73342 -92.154536 
L 888.334089 -92.154536 
L 897.934759 -92.154536 
L 907.535429 -92.154536 
L 917.136098 -92.154536 
L 926.736768 -92.154536 
L 936.337438 -92.154536 
L 945.938107 -92.154536 
L 955.538777 -92.154536 
L 965.139446 -92.154536 
L 974.740116 -92.154536 
L 984.340786 -92.154536 
L 993.941455 -92.154536 
L 1003.542125 -92.154536 
L 1013.142795 -92.154536 
L 1022.743464 -92.154536 
L 1032.344134 -92.154536 
L 1041.944804 -92.154536 
L 1051.545473 -92.154536 
L 1061.146143 -92.154536 
L 1070.746813 -92.154536 
L 1080.347482 -92.154536 
L 1089.948152 -92.154536 
L 1099.548821 -92.154536 
L 1109.149491 -92.154536 
L 1118.750161 -92.154536 
L 1128.35083 -92.154536 
L 1128.35083 -93.249757 
L 1128.35083 -93.249757 
L 1118.750161 -93.249757 
L 1109.149491 -93.249757 
L 1099.548821 -93.249757 
L 1089.948152 -93.249757 
L 1080.347482 -93.249757 
L 1070.746813 -93.249757 
L 1061.146143 -93.249757 
L 1051.545473 -93.249757 
L 1041.944804 -93.249757 
L 1032.344134 -93.249757 
L 1022.743464 -93.249757 
L 1013.142795 -93.249757 
L 1003.542125 -93.249757 
L 993.941455 -93.249757 
L 984.340786 -93.249757 
L 974.740116 -93.249757 
L 965.139446 -93.249757 
L 955.538777 -93.249757 
L 945.938107 -93.249757 
L 936.337438 -93.249757 
L 926.736768 -93.249757 
L 917.136098 -93.249757 
L 907.535429 -93.249757 
L 897.934759 -93.249757 
L 888.334089 -93.249757 
L 878.73342 -93.249757 
L 869.13275 -93.249757 
L 859.53208 -93.249757 
L 849.931411 -93.249757 
L 840.330741 -93.249757 
L 830.730071 -93.249757 
L 821.129402 -93.249757 
L 811.528732 -93.249757 
L 801.928063 -93.249757 
L 792.327393 -93.249757 
L 782.726723 -93.249757 
L 773.126054 -93.249757 
L 763.525384 -93.249757 
L 753.924714 -93.249757 
L 744.324045 -93.249757 
L 734.723375 -93.249757 
L 725.122705 -93.249757 
L 715.522036 -93.249757 
L 705.921366 -93.249757 
L 696.320696 -93.249757 
L 686.720027 -93.249757 
L 677.119357 -93.249757 
L 667.518688 -93.249757 
L 657.918018 -93.249757 
L 648.317348 -93.249757 
L 638.716679 -93.249757 
L 629.116009 -93.249757 
L 619.515339 -93.249757 
L 609.91467 -93.249757 
L 600.314 -93.249757 
L 590.71333 -93.249757 
L 581.112661 -93.249757 
L 571.511991 -93.249757 
L 561.911321 -93.249757 
L 552.310652 -93.249757 
L 542.709982 -93.249757 
L 533.109312 -93.249757 
L 523.508643 -93.249757 
L 513.907973 -93.249757 
L 504.307304 -107.762816 
L 494.706634 -107.762816 
L 485.105964 -107.762816 
L 475.505295 -107.762816 
L 465.904625 -107.762816 
L 456.303955 -107.762816 
L 446.703286 -107.762816 
L 437.102616 -107.762816 
L 427.501946 -107.762816 
L 417.901277 -107.762816 
L 408.300607 -107.762816 
L 398.699938 -107.762816 
L 389.099268 -107.762816 
L 379.498598 -107.762816 
L 369.897929 -107.762816 
L 360.297259 -107.762816 
L 350.696589 -107.762816 
L 341.09592 -107.762816 
L 331.49525 -107.762816 
L 321.89458 -107.762816 
L 312.293911 -107.762816 
L 302.693241 -107.762816 
L 293.092571 -107.762816 
L 283.491902 -107.762816 
L 273.891232 -107.762816 
L 264.290563 -107.762816 
L 254.689893 -107.762816 
L 245.089223 -107.762816 
L 235.488554 -107.762816 
L 225.887884 -107.762816 
L 216.287214 -107.762816 
L 206.686545 -107.762816 
L 197.085875 -107.762816 
L 187.485205 -107.762816 
L 177.884536 -107.762816 
L 168.283866 -107.762816 
L 158.683196 -107.762816 
L 149.082527 -107.762816 
L 139.481857 -107.762816 
L 129.881188 -107.762816 
L 120.280518 -107.762816 
L 110.679848 -107.762816 
L 101.079179 -107.762816 
L 91.478509 -107.762816 
L 81.877839 -107.762816 
L 72.27717 -107.762816 
L 62.6765 -107.762816 
z
" id="m76f3fffc93" style="stroke:#ffa500;stroke-opacity:0.25;"/>
    </defs>
    <g clip-path="url(#pdba36ec186)">
     <use style="fill:#ffa500;fill-opacity:0.25;stroke:#ffa500;stroke-opacity:0.25;" x="0" xlink:href="#m76f3fffc93" y="422.874686"/>
    </g>
   </g>
   <g id="PolyCollection_2">
    <defs>
     <path d="M 513.907973 -43.75025 
L 513.907973 -43.75025 
L 513.907973 -389.62705 
L 513.907973 -389.62705 
L 513.907973 -389.62705 
L 513.907973 -43.75025 
z
" id="m20b74e3de4" style="stroke:#008000;stroke-opacity:0.25;"/>
    </defs>
    <g clip-path="url(#pdba36ec186)">
     <use style="fill:#008000;fill-opacity:0.25;stroke:#008000;stroke-opacity:0.25;" x="0" xlink:href="#m20b74e3de4" y="422.874686"/>
    </g>
   </g>
  </g>
 </g>
 <defs>
  <clipPath id="pdba36ec186">
   <rect height="345.8768" width="1075.275" x="62.6765" y="33.247636"/>
  </clipPath>
 </defs>
</svg>
