<?xml version="1.0" encoding="utf-8" standalone="no"?>
<!DOCTYPE svg PUBLIC "-//W3C//DTD SVG 1.1//EN"
  "http://www.w3.org/Graphics/SVG/1.1/DTD/svg11.dtd">
<!-- Created with matplotlib (https://matplotlib.org/) -->
<svg height="422.874686pt" version="1.1" viewBox="0 0 1145.2865 422.874686" width="1145.2865pt" xmlns="http://www.w3.org/2000/svg" xmlns:xlink="http://www.w3.org/1999/xlink">
 <defs>
  <style type="text/css">
*{stroke-linecap:butt;stroke-linejoin:round;}
  </style>
 </defs>
 <g id="figure_1">
  <g id="patch_1">
   <path d="M 0 422.874686 
L 1145.2865 422.874686 
L 1145.2865 0 
L 0 0 
z
" style="fill:#ffffff;"/>
  </g>
  <g id="axes_1">
   <g id="patch_2">
    <path d="M 70.3115 379.124436 
L 1138.0865 379.124436 
L 1138.0865 33.247636 
L 70.3115 33.247636 
z
" style="fill:#ffffff;"/>
   </g>
   <g id="PolyCollection_1">
    <defs>
     <path d="M 70.3115 -279.04113 
L 70.3115 -278.479832 
L 81.434156 -278.479832 
L 92.556812 -278.479832 
L 103.679469 -278.479832 
L 114.802125 -278.479832 
L 125.924781 -278.479832 
L 137.047438 -278.479832 
L 148.170094 -278.479832 
L 159.29275 -278.479832 
L 170.415406 -278.479832 
L 181.538062 -278.479832 
L 192.660719 -278.479832 
L 203.783375 -278.479832 
L 214.906031 -278.479832 
L 226.028687 -278.479832 
L 237.151344 -278.479832 
L 248.274 -278.479832 
L 259.396656 -278.479832 
L 270.519313 -278.479832 
L 281.641969 -278.479832 
L 292.764625 -278.479832 
L 303.887281 -278.479832 
L 315.009937 -278.479832 
L 326.132594 -278.479832 
L 337.25525 -278.479832 
L 348.377906 -278.479832 
L 359.500563 -278.479832 
L 370.623219 -278.479832 
L 381.745875 -278.479832 
L 392.868531 -278.479832 
L 403.991188 -278.479832 
L 415.113844 -278.479832 
L 426.2365 -278.479832 
L 437.359156 -278.479832 
L 448.481813 -278.479832 
L 459.604469 -278.479832 
L 470.727125 -278.479832 
L 481.849781 -278.479832 
L 492.972437 -278.479832 
L 504.095094 -278.479832 
L 515.21775 -278.479832 
L 526.340406 -278.479832 
L 537.463062 -278.479832 
L 548.585719 -278.479832 
L 559.708375 -278.479832 
L 570.831031 -278.479832 
L 581.953688 -278.479832 
L 593.076344 -278.479832 
L 604.199 -278.479832 
L 615.321656 -278.479832 
L 626.444313 -313.870216 
L 637.566969 -313.870216 
L 648.689625 -313.870216 
L 659.812281 -313.870216 
L 670.934938 -313.870216 
L 682.057594 -313.870216 
L 693.18025 -313.870216 
L 704.302906 -313.870216 
L 715.425563 -313.870216 
L 726.548219 -313.870216 
L 737.670875 -313.870216 
L 748.793531 -313.870216 
L 759.916188 -313.870216 
L 771.038844 -313.870216 
L 782.1615 -313.870216 
L 793.284156 -313.870216 
L 804.406813 -313.870216 
L 815.529469 -313.870216 
L 826.652125 -313.870216 
L 837.774781 -313.870216 
L 848.897438 -313.870216 
L 860.020094 -313.870216 
L 871.14275 -313.870216 
L 882.265406 -313.870216 
L 893.388063 -313.870216 
L 904.510719 -313.870216 
L 915.633375 -313.870216 
L 926.756031 -313.870216 
L 937.878688 -313.870216 
L 949.001344 -313.870216 
L 960.124 -313.870216 
L 971.246656 -313.870216 
L 982.369313 -313.870216 
L 993.491969 -313.870216 
L 1004.614625 -313.870216 
L 1015.737281 -313.870216 
L 1026.859937 -313.870216 
L 1037.982594 -313.870216 
L 1049.10525 -313.870216 
L 1060.227906 -313.870216 
L 1071.350563 -313.870216 
L 1082.473219 -313.870216 
L 1093.595875 -313.870216 
L 1104.718531 -313.870216 
L 1115.841188 -313.870216 
L 1126.963844 -313.870216 
L 1126.963844 -314.501911 
L 1126.963844 -314.501911 
L 1115.841188 -314.501911 
L 1104.718531 -314.501911 
L 1093.595875 -314.501911 
L 1082.473219 -314.501911 
L 1071.350563 -314.501911 
L 1060.227906 -314.501911 
L 1049.10525 -314.501911 
L 1037.982594 -314.501911 
L 1026.859937 -314.501911 
L 1015.737281 -314.501911 
L 1004.614625 -314.501911 
L 993.491969 -314.501911 
L 982.369313 -314.501911 
L 971.246656 -314.501911 
L 960.124 -314.501911 
L 949.001344 -314.501911 
L 937.878688 -314.501911 
L 926.756031 -314.501911 
L 915.633375 -314.501911 
L 904.510719 -314.501911 
L 893.388063 -314.501911 
L 882.265406 -314.501911 
L 871.14275 -314.501911 
L 860.020094 -314.501911 
L 848.897438 -314.501911 
L 837.774781 -314.501911 
L 826.652125 -314.501911 
L 815.529469 -314.501911 
L 804.406813 -314.501911 
L 793.284156 -314.501911 
L 782.1615 -314.501911 
L 771.038844 -314.501911 
L 759.916188 -314.501911 
L 748.793531 -314.501911 
L 737.670875 -314.501911 
L 726.548219 -314.501911 
L 715.425563 -314.501911 
L 704.302906 -314.501911 
L 693.18025 -314.501911 
L 682.057594 -314.501911 
L 670.934938 -314.501911 
L 659.812281 -314.501911 
L 648.689625 -314.501911 
L 637.566969 -314.501911 
L 626.444313 -314.501911 
L 615.321656 -279.04113 
L 604.199 -279.04113 
L 593.076344 -279.04113 
L 581.953688 -279.04113 
L 570.831031 -279.04113 
L 559.708375 -279.04113 
L 548.585719 -279.04113 
L 537.463062 -279.04113 
L 526.340406 -279.04113 
L 515.21775 -279.04113 
L 504.095094 -279.04113 
L 492.972437 -279.04113 
L 481.849781 -279.04113 
L 470.727125 -279.04113 
L 459.604469 -279.04113 
L 448.481813 -279.04113 
L 437.359156 -279.04113 
L 426.2365 -279.04113 
L 415.113844 -279.04113 
L 403.991188 -279.04113 
L 392.868531 -279.04113 
L 381.745875 -279.04113 
L 370.623219 -279.04113 
L 359.500563 -279.04113 
L 348.377906 -279.04113 
L 337.25525 -279.04113 
L 326.132594 -279.04113 
L 315.009937 -279.04113 
L 303.887281 -279.04113 
L 292.764625 -279.04113 
L 281.641969 -279.04113 
L 270.519313 -279.04113 
L 259.396656 -279.04113 
L 248.274 -279.04113 
L 237.151344 -279.04113 
L 226.028687 -279.04113 
L 214.906031 -279.04113 
L 203.783375 -279.04113 
L 192.660719 -279.04113 
L 181.538062 -279.04113 
L 170.415406 -279.04113 
L 159.29275 -279.04113 
L 148.170094 -279.04113 
L 137.047438 -279.04113 
L 125.924781 -279.04113 
L 114.802125 -279.04113 
L 103.679469 -279.04113 
L 92.556812 -279.04113 
L 81.434156 -279.04113 
L 70.3115 -279.04113 
z
" id="me19ff29f8f" style="stroke:#ffa500;stroke-opacity:0.25;"/>
    </defs>
    <g clip-path="url(#paeb363713c)">
     <use style="fill:#ffa500;fill-opacity:0.25;stroke:#ffa500;stroke-opacity:0.25;" x="0" xlink:href="#me19ff29f8f" y="422.874686"/>
    </g>
   </g>
   <g id="patch_3">
    <path clip-path="url(#paeb363713c)" d="M 65.862437 379.124436 
L 74.760562 379.124436 
L 74.760562 293.651582 
L 65.862437 293.651582 
z
" style="fill:#348abd;opacity:0.85;"/>
   </g>
   <g id="patch_4">
    <path clip-path="url(#paeb363713c)" d="M 76.985094 379.124436 
L 85.883219 379.124436 
L 85.883219 119.954321 
L 76.985094 119.954321 
z
" style="fill:#348abd;opacity:0.85;"/>
   </g>
   <g id="patch_5">
    <path clip-path="url(#paeb363713c)" d="M 88.10775 379.124436 
L 97.005875 379.124436 
L 97.005875 154.526559 
L 88.10775 154.526559 
z
" style="fill:#348abd;opacity:0.85;"/>
   </g>
   <g id="patch_6">
    <path clip-path="url(#paeb363713c)" d="M 99.230406 379.124436 
L 108.128531 379.124436 
L 108.128531 119.742183 
L 99.230406 119.742183 
z
" style="fill:#348abd;opacity:0.85;"/>
   </g>
   <g id="patch_7">
    <path clip-path="url(#paeb363713c)" d="M 110.353062 379.124436 
L 119.251188 379.124436 
L 119.251188 94.553928 
L 110.353062 94.553928 
z
" style="fill:#348abd;opacity:0.85;"/>
   </g>
   <g id="patch_8">
    <path clip-path="url(#paeb363713c)" d="M 121.475719 379.124436 
L 130.373844 379.124436 
L 130.373844 124.814775 
L 121.475719 124.814775 
z
" style="fill:#348abd;opacity:0.85;"/>
   </g>
   <g id="patch_9">
    <path clip-path="url(#paeb363713c)" d="M 132.598375 379.124436 
L 141.4965 379.124436 
L 141.4965 120.44723 
L 132.598375 120.44723 
z
" style="fill:#348abd;opacity:0.85;"/>
   </g>
   <g id="patch_10">
    <path clip-path="url(#paeb363713c)" d="M 143.721031 379.124436 
L 152.619156 379.124436 
L 152.619156 97.105822 
L 143.721031 97.105822 
z
" style="fill:#348abd;opacity:0.85;"/>
   </g>
   <g id="patch_11">
    <path clip-path="url(#paeb363713c)" d="M 154.843687 379.124436 
L 163.741812 379.124436 
L 163.741812 118.706451 
L 154.843687 118.706451 
z
" style="fill:#348abd;opacity:0.85;"/>
   </g>
   <g id="patch_12">
    <path clip-path="url(#paeb363713c)" d="M 165.966344 379.124436 
L 174.864469 379.124436 
L 174.864469 95.171624 
L 165.966344 95.171624 
z
" style="fill:#348abd;opacity:0.85;"/>
   </g>
   <g id="patch_13">
    <path clip-path="url(#paeb363713c)" d="M 177.089 379.124436 
L 185.987125 379.124436 
L 185.987125 113.009925 
L 177.089 113.009925 
z
" style="fill:#348abd;opacity:0.85;"/>
   </g>
   <g id="patch_14">
    <path clip-path="url(#paeb363713c)" d="M 188.211656 379.124436 
L 197.109781 379.124436 
L 197.109781 134.735341 
L 188.211656 134.735341 
z
" style="fill:#348abd;opacity:0.85;"/>
   </g>
   <g id="patch_15">
    <path clip-path="url(#paeb363713c)" d="M 199.334312 379.124436 
L 208.232438 379.124436 
L 208.232438 133.581061 
L 199.334312 133.581061 
z
" style="fill:#348abd;opacity:0.85;"/>
   </g>
   <g id="patch_16">
    <path clip-path="url(#paeb363713c)" d="M 210.456969 379.124436 
L 219.355094 379.124436 
L 219.355094 158.706923 
L 210.456969 158.706923 
z
" style="fill:#348abd;opacity:0.85;"/>
   </g>
   <g id="patch_17">
    <path clip-path="url(#paeb363713c)" d="M 221.579625 379.124436 
L 230.47775 379.124436 
L 230.47775 167.292269 
L 221.579625 167.292269 
z
" style="fill:#348abd;opacity:0.85;"/>
   </g>
   <g id="patch_18">
    <path clip-path="url(#paeb363713c)" d="M 232.702281 379.124436 
L 241.600406 379.124436 
L 241.600406 282.464428 
L 232.702281 282.464428 
z
" style="fill:#348abd;opacity:0.85;"/>
   </g>
   <g id="patch_19">
    <path clip-path="url(#paeb363713c)" d="M 243.824938 379.124436 
L 252.723062 379.124436 
L 252.723062 297.501261 
L 243.824938 297.501261 
z
" style="fill:#348abd;opacity:0.85;"/>
   </g>
   <g id="patch_20">
    <path clip-path="url(#paeb363713c)" d="M 254.947594 379.124436 
L 263.845719 379.124436 
L 263.845719 143.869749 
L 254.947594 143.869749 
z
" style="fill:#348abd;opacity:0.85;"/>
   </g>
   <g id="patch_21">
    <path clip-path="url(#paeb363713c)" d="M 266.07025 379.124436 
L 274.968375 379.124436 
L 274.968375 138.840833 
L 266.07025 138.840833 
z
" style="fill:#348abd;opacity:0.85;"/>
   </g>
   <g id="patch_22">
    <path clip-path="url(#paeb363713c)" d="M 277.192906 379.124436 
L 286.091031 379.124436 
L 286.091031 140.21349 
L 277.192906 140.21349 
z
" style="fill:#348abd;opacity:0.85;"/>
   </g>
   <g id="patch_23">
    <path clip-path="url(#paeb363713c)" d="M 288.315563 379.124436 
L 297.213688 379.124436 
L 297.213688 88.083722 
L 288.315563 88.083722 
z
" style="fill:#348abd;opacity:0.85;"/>
   </g>
   <g id="patch_24">
    <path clip-path="url(#paeb363713c)" d="M 299.438219 379.124436 
L 308.336344 379.124436 
L 308.336344 94.890853 
L 299.438219 94.890853 
z
" style="fill:#348abd;opacity:0.85;"/>
   </g>
   <g id="patch_25">
    <path clip-path="url(#paeb363713c)" d="M 310.560875 379.124436 
L 319.459 379.124436 
L 319.459 99.13985 
L 310.560875 99.13985 
z
" style="fill:#348abd;opacity:0.85;"/>
   </g>
   <g id="patch_26">
    <path clip-path="url(#paeb363713c)" d="M 321.683531 379.124436 
L 330.581656 379.124436 
L 330.581656 75.355448 
L 321.683531 75.355448 
z
" style="fill:#348abd;opacity:0.85;"/>
   </g>
   <g id="patch_27">
    <path clip-path="url(#paeb363713c)" d="M 332.806187 379.124436 
L 341.704312 379.124436 
L 341.704312 120.366118 
L 332.806187 120.366118 
z
" style="fill:#348abd;opacity:0.85;"/>
   </g>
   <g id="patch_28">
    <path clip-path="url(#paeb363713c)" d="M 343.928844 379.124436 
L 352.826969 379.124436 
L 352.826969 124.95204 
L 343.928844 124.95204 
z
" style="fill:#348abd;opacity:0.85;"/>
   </g>
   <g id="patch_29">
    <path clip-path="url(#paeb363713c)" d="M 355.0515 379.124436 
L 363.949625 379.124436 
L 363.949625 95.957782 
L 355.0515 95.957782 
z
" style="fill:#348abd;opacity:0.85;"/>
   </g>
   <g id="patch_30">
    <path clip-path="url(#paeb363713c)" d="M 366.174156 379.124436 
L 375.072281 379.124436 
L 375.072281 108.860757 
L 366.174156 108.860757 
z
" style="fill:#348abd;opacity:0.85;"/>
   </g>
   <g id="patch_31">
    <path clip-path="url(#paeb363713c)" d="M 377.296812 379.124436 
L 386.194937 379.124436 
L 386.194937 123.791521 
L 377.296812 123.791521 
z
" style="fill:#348abd;opacity:0.85;"/>
   </g>
   <g id="patch_32">
    <path clip-path="url(#paeb363713c)" d="M 388.419469 379.124436 
L 397.317594 379.124436 
L 397.317594 160.210607 
L 388.419469 160.210607 
z
" style="fill:#348abd;opacity:0.85;"/>
   </g>
   <g id="patch_33">
    <path clip-path="url(#paeb363713c)" d="M 399.542125 379.124436 
L 408.44025 379.124436 
L 408.44025 172.926402 
L 399.542125 172.926402 
z
" style="fill:#348abd;opacity:0.85;"/>
   </g>
   <g id="patch_34">
    <path clip-path="url(#paeb363713c)" d="M 410.664781 379.124436 
L 419.562906 379.124436 
L 419.562906 259.709519 
L 410.664781 259.709519 
z
" style="fill:#348abd;opacity:0.85;"/>
   </g>
   <g id="patch_35">
    <path clip-path="url(#paeb363713c)" d="M 421.787438 379.124436 
L 430.685563 379.124436 
L 430.685563 283.525117 
L 421.787438 283.525117 
z
" style="fill:#348abd;opacity:0.85;"/>
   </g>
   <g id="patch_36">
    <path clip-path="url(#paeb363713c)" d="M 432.910094 379.124436 
L 441.808219 379.124436 
L 441.808219 139.520922 
L 432.910094 139.520922 
z
" style="fill:#348abd;opacity:0.85;"/>
   </g>
   <g id="patch_37">
    <path clip-path="url(#paeb363713c)" d="M 444.03275 379.124436 
L 452.930875 379.124436 
L 452.930875 144.624711 
L 444.03275 144.624711 
z
" style="fill:#348abd;opacity:0.85;"/>
   </g>
   <g id="patch_38">
    <path clip-path="url(#paeb363713c)" d="M 455.155406 379.124436 
L 464.053531 379.124436 
L 464.053531 131.172672 
L 455.155406 131.172672 
z
" style="fill:#348abd;opacity:0.85;"/>
   </g>
   <g id="patch_39">
    <path clip-path="url(#paeb363713c)" d="M 466.278063 379.124436 
L 475.176188 379.124436 
L 475.176188 109.771702 
L 466.278063 109.771702 
z
" style="fill:#348abd;opacity:0.85;"/>
   </g>
   <g id="patch_40">
    <path clip-path="url(#paeb363713c)" d="M 477.400719 379.124436 
L 486.298844 379.124436 
L 486.298844 83.279423 
L 477.400719 83.279423 
z
" style="fill:#348abd;opacity:0.85;"/>
   </g>
   <g id="patch_41">
    <path clip-path="url(#paeb363713c)" d="M 488.523375 379.124436 
L 497.4215 379.124436 
L 497.4215 120.185177 
L 488.523375 120.185177 
z
" style="fill:#348abd;opacity:0.85;"/>
   </g>
   <g id="patch_42">
    <path clip-path="url(#paeb363713c)" d="M 499.646031 379.124436 
L 508.544156 379.124436 
L 508.544156 93.661701 
L 499.646031 93.661701 
z
" style="fill:#348abd;opacity:0.85;"/>
   </g>
   <g id="patch_43">
    <path clip-path="url(#paeb363713c)" d="M 510.768688 379.124436 
L 519.666812 379.124436 
L 519.666812 107.282202 
L 510.768688 107.282202 
z
" style="fill:#348abd;opacity:0.85;"/>
   </g>
   <g id="patch_44">
    <path clip-path="url(#paeb363713c)" d="M 521.891344 379.124436 
L 530.789469 379.124436 
L 530.789469 113.758647 
L 521.891344 113.758647 
z
" style="fill:#348abd;opacity:0.85;"/>
   </g>
   <g id="patch_45">
    <path clip-path="url(#paeb363713c)" d="M 533.014 379.124436 
L 541.912125 379.124436 
L 541.912125 84.633362 
L 533.014 84.633362 
z
" style="fill:#348abd;opacity:0.85;"/>
   </g>
   <g id="patch_46">
    <path clip-path="url(#paeb363713c)" d="M 544.136656 379.124436 
L 553.034781 379.124436 
L 553.034781 125.507343 
L 544.136656 125.507343 
z
" style="fill:#348abd;opacity:0.85;"/>
   </g>
   <g id="patch_47">
    <path clip-path="url(#paeb363713c)" d="M 555.259313 379.124436 
L 564.157438 379.124436 
L 564.157438 93.075202 
L 555.259313 93.075202 
z
" style="fill:#348abd;opacity:0.85;"/>
   </g>
   <g id="patch_48">
    <path clip-path="url(#paeb363713c)" d="M 566.381969 379.124436 
L 575.280094 379.124436 
L 575.280094 128.240178 
L 566.381969 128.240178 
z
" style="fill:#348abd;opacity:0.85;"/>
   </g>
   <g id="patch_49">
    <path clip-path="url(#paeb363713c)" d="M 577.504625 379.124436 
L 586.40275 379.124436 
L 586.40275 172.346142 
L 577.504625 172.346142 
z
" style="fill:#348abd;opacity:0.85;"/>
   </g>
   <g id="patch_50">
    <path clip-path="url(#paeb363713c)" d="M 588.627281 379.124436 
L 597.525406 379.124436 
L 597.525406 246.045343 
L 588.627281 246.045343 
z
" style="fill:#348abd;opacity:0.85;"/>
   </g>
   <g id="patch_51">
    <path clip-path="url(#paeb363713c)" d="M 599.749938 379.124436 
L 608.648063 379.124436 
L 608.648063 307.01627 
L 599.749938 307.01627 
z
" style="fill:#348abd;opacity:0.85;"/>
   </g>
   <g id="patch_52">
    <path clip-path="url(#paeb363713c)" d="M 610.872594 379.124436 
L 619.770719 379.124436 
L 619.770719 149.129521 
L 610.872594 149.129521 
z
" style="fill:#348abd;opacity:0.85;"/>
   </g>
   <g id="patch_53">
    <path clip-path="url(#paeb363713c)" d="M 621.99525 379.124436 
L 630.893375 379.124436 
L 630.893375 114.11429 
L 621.99525 114.11429 
z
" style="fill:#348abd;opacity:0.85;"/>
   </g>
   <g id="patch_54">
    <path clip-path="url(#paeb363713c)" d="M 633.117906 379.124436 
L 642.016031 379.124436 
L 642.016031 113.63386 
L 633.117906 113.63386 
z
" style="fill:#348abd;opacity:0.85;"/>
   </g>
   <g id="patch_55">
    <path clip-path="url(#paeb363713c)" d="M 644.240563 379.124436 
L 653.138687 379.124436 
L 653.138687 114.432497 
L 644.240563 114.432497 
z
" style="fill:#348abd;opacity:0.85;"/>
   </g>
   <g id="patch_56">
    <path clip-path="url(#paeb363713c)" d="M 655.363219 379.124436 
L 664.261344 379.124436 
L 664.261344 98.241384 
L 655.363219 98.241384 
z
" style="fill:#348abd;opacity:0.85;"/>
   </g>
   <g id="patch_57">
    <path clip-path="url(#paeb363713c)" d="M 666.485875 379.124436 
L 675.384 379.124436 
L 675.384 114.051896 
L 666.485875 114.051896 
z
" style="fill:#348abd;opacity:0.85;"/>
   </g>
   <g id="patch_58">
    <path clip-path="url(#paeb363713c)" d="M 677.608531 379.124436 
L 686.506656 379.124436 
L 686.506656 87.010554 
L 677.608531 87.010554 
z
" style="fill:#348abd;opacity:0.85;"/>
   </g>
   <g id="patch_59">
    <path clip-path="url(#paeb363713c)" d="M 688.731188 379.124436 
L 697.629312 379.124436 
L 697.629312 83.485321 
L 688.731188 83.485321 
z
" style="fill:#348abd;opacity:0.85;"/>
   </g>
   <g id="patch_60">
    <path clip-path="url(#paeb363713c)" d="M 699.853844 379.124436 
L 708.751969 379.124436 
L 708.751969 94.129652 
L 699.853844 94.129652 
z
" style="fill:#348abd;opacity:0.85;"/>
   </g>
   <g id="patch_61">
    <path clip-path="url(#paeb363713c)" d="M 710.9765 379.124436 
L 719.874625 379.124436 
L 719.874625 74.719035 
L 710.9765 74.719035 
z
" style="fill:#348abd;opacity:0.85;"/>
   </g>
   <g id="patch_62">
    <path clip-path="url(#paeb363713c)" d="M 722.099156 379.124436 
L 730.997281 379.124436 
L 730.997281 103.638421 
L 722.099156 103.638421 
z
" style="fill:#348abd;opacity:0.85;"/>
   </g>
   <g id="patch_63">
    <path clip-path="url(#paeb363713c)" d="M 733.221813 379.124436 
L 742.119937 379.124436 
L 742.119937 116.092164 
L 733.221813 116.092164 
z
" style="fill:#348abd;opacity:0.85;"/>
   </g>
   <g id="patch_64">
    <path clip-path="url(#paeb363713c)" d="M 744.344469 379.124436 
L 753.242594 379.124436 
L 753.242594 112.09898 
L 744.344469 112.09898 
z
" style="fill:#348abd;opacity:0.85;"/>
   </g>
   <g id="patch_65">
    <path clip-path="url(#paeb363713c)" d="M 755.467125 379.124436 
L 764.36525 379.124436 
L 764.36525 133.612258 
L 755.467125 133.612258 
z
" style="fill:#348abd;opacity:0.85;"/>
   </g>
   <g id="patch_66">
    <path clip-path="url(#paeb363713c)" d="M 766.589781 379.124436 
L 775.487906 379.124436 
L 775.487906 233.897329 
L 766.589781 233.897329 
z
" style="fill:#348abd;opacity:0.85;"/>
   </g>
   <g id="patch_67">
    <path clip-path="url(#paeb363713c)" d="M 777.712438 379.124436 
L 786.610563 379.124436 
L 786.610563 293.882438 
L 777.712438 293.882438 
z
" style="fill:#348abd;opacity:0.85;"/>
   </g>
   <g id="patch_68">
    <path clip-path="url(#paeb363713c)" d="M 788.835094 379.124436 
L 797.733219 379.124436 
L 797.733219 127.179488 
L 788.835094 127.179488 
z
" style="fill:#348abd;opacity:0.85;"/>
   </g>
   <g id="patch_69">
    <path clip-path="url(#paeb363713c)" d="M 799.95775 379.124436 
L 808.855875 379.124436 
L 808.855875 85.694051 
L 799.95775 85.694051 
z
" style="fill:#348abd;opacity:0.85;"/>
   </g>
   <g id="patch_70">
    <path clip-path="url(#paeb363713c)" d="M 811.080406 379.124436 
L 819.978531 379.124436 
L 819.978531 105.653731 
L 811.080406 105.653731 
z
" style="fill:#348abd;opacity:0.85;"/>
   </g>
   <g id="patch_71">
    <path clip-path="url(#paeb363713c)" d="M 822.203062 379.124436 
L 831.101187 379.124436 
L 831.101187 103.594746 
L 822.203062 103.594746 
z
" style="fill:#348abd;opacity:0.85;"/>
   </g>
   <g id="patch_72">
    <path clip-path="url(#paeb363713c)" d="M 833.325719 379.124436 
L 842.223844 379.124436 
L 842.223844 99.489254 
L 833.325719 99.489254 
z
" style="fill:#348abd;opacity:0.85;"/>
   </g>
   <g id="patch_73">
    <path clip-path="url(#paeb363713c)" d="M 844.448375 379.124436 
L 853.3465 379.124436 
L 853.3465 112.460862 
L 844.448375 112.460862 
z
" style="fill:#348abd;opacity:0.85;"/>
   </g>
   <g id="patch_74">
    <path clip-path="url(#paeb363713c)" d="M 855.571031 379.124436 
L 864.469156 379.124436 
L 864.469156 90.361085 
L 855.571031 90.361085 
z
" style="fill:#348abd;opacity:0.85;"/>
   </g>
   <g id="patch_75">
    <path clip-path="url(#paeb363713c)" d="M 866.693688 379.124436 
L 875.591812 379.124436 
L 875.591812 74.825104 
L 866.693688 74.825104 
z
" style="fill:#348abd;opacity:0.85;"/>
   </g>
   <g id="patch_76">
    <path clip-path="url(#paeb363713c)" d="M 877.816344 379.124436 
L 886.714469 379.124436 
L 886.714469 85.775163 
L 877.816344 85.775163 
z
" style="fill:#348abd;opacity:0.85;"/>
   </g>
   <g id="patch_77">
    <path clip-path="url(#paeb363713c)" d="M 888.939 379.124436 
L 897.837125 379.124436 
L 897.837125 90.31117 
L 888.939 90.31117 
z
" style="fill:#348abd;opacity:0.85;"/>
   </g>
   <g id="patch_78">
    <path clip-path="url(#paeb363713c)" d="M 900.061656 379.124436 
L 908.959781 379.124436 
L 908.959781 96.918642 
L 900.061656 96.918642 
z
" style="fill:#348abd;opacity:0.85;"/>
   </g>
   <g id="patch_79">
    <path clip-path="url(#paeb363713c)" d="M 911.184313 379.124436 
L 920.082437 379.124436 
L 920.082437 104.137569 
L 911.184313 104.137569 
z
" style="fill:#348abd;opacity:0.85;"/>
   </g>
   <g id="patch_80">
    <path clip-path="url(#paeb363713c)" d="M 922.306969 379.124436 
L 931.205094 379.124436 
L 931.205094 100.144385 
L 922.306969 100.144385 
z
" style="fill:#348abd;opacity:0.85;"/>
   </g>
   <g id="patch_81">
    <path clip-path="url(#paeb363713c)" d="M 933.429625 379.124436 
L 942.32775 379.124436 
L 942.32775 124.371781 
L 933.429625 124.371781 
z
" style="fill:#348abd;opacity:0.85;"/>
   </g>
   <g id="patch_82">
    <path clip-path="url(#paeb363713c)" d="M 944.552281 379.124436 
L 953.450406 379.124436 
L 953.450406 168.770995 
L 944.552281 168.770995 
z
" style="fill:#348abd;opacity:0.85;"/>
   </g>
   <g id="patch_83">
    <path clip-path="url(#paeb363713c)" d="M 955.674937 379.124436 
L 964.573062 379.124436 
L 964.573062 227.651739 
L 955.674937 227.651739 
z
" style="fill:#348abd;opacity:0.85;"/>
   </g>
   <g id="patch_84">
    <path clip-path="url(#paeb363713c)" d="M 966.797594 379.124436 
L 975.695719 379.124436 
L 975.695719 110.826152 
L 966.797594 110.826152 
z
" style="fill:#348abd;opacity:0.85;"/>
   </g>
   <g id="patch_85">
    <path clip-path="url(#paeb363713c)" d="M 977.92025 379.124436 
L 986.818375 379.124436 
L 986.818375 89.16313 
L 977.92025 89.16313 
z
" style="fill:#348abd;opacity:0.85;"/>
   </g>
   <g id="patch_86">
    <path clip-path="url(#paeb363713c)" d="M 989.042906 379.124436 
L 997.941031 379.124436 
L 997.941031 94.15461 
L 989.042906 94.15461 
z
" style="fill:#348abd;opacity:0.85;"/>
   </g>
   <g id="patch_87">
    <path clip-path="url(#paeb363713c)" d="M 1000.165562 379.124436 
L 1009.063687 379.124436 
L 1009.063687 51.464978 
L 1000.165562 51.464978 
z
" style="fill:#348abd;opacity:0.85;"/>
   </g>
   <g id="patch_88">
    <path clip-path="url(#paeb363713c)" d="M 1011.288219 379.124436 
L 1020.186344 379.124436 
L 1020.186344 56.038421 
L 1011.288219 56.038421 
z
" style="fill:#348abd;opacity:0.85;"/>
   </g>
   <g id="patch_89">
    <path clip-path="url(#paeb363713c)" d="M 1022.410875 379.124436 
L 1031.309 379.124436 
L 1031.309 70.15807 
L 1022.410875 70.15807 
z
" style="fill:#348abd;opacity:0.85;"/>
   </g>
   <g id="patch_90">
    <path clip-path="url(#paeb363713c)" d="M 1033.533531 379.124436 
L 1042.431656 379.124436 
L 1042.431656 49.71796 
L 1033.533531 49.71796 
z
" style="fill:#348abd;opacity:0.85;"/>
   </g>
   <g id="patch_91">
    <path clip-path="url(#paeb363713c)" d="M 1044.656187 379.124436 
L 1053.554312 379.124436 
L 1053.554312 54.884141 
L 1044.656187 54.884141 
z
" style="fill:#348abd;opacity:0.85;"/>
   </g>
   <g id="patch_92">
    <path clip-path="url(#paeb363713c)" d="M 1055.778844 379.124436 
L 1064.676969 379.124436 
L 1064.676969 68.9102 
L 1055.778844 68.9102 
z
" style="fill:#348abd;opacity:0.85;"/>
   </g>
   <g id="patch_93">
    <path clip-path="url(#paeb363713c)" d="M 1066.9015 379.124436 
L 1075.799625 379.124436 
L 1075.799625 93.886318 
L 1066.9015 93.886318 
z
" style="fill:#348abd;opacity:0.85;"/>
   </g>
   <g id="patch_94">
    <path clip-path="url(#paeb363713c)" d="M 1078.024156 379.124436 
L 1086.922281 379.124436 
L 1086.922281 56.53133 
L 1078.024156 56.53133 
z
" style="fill:#348abd;opacity:0.85;"/>
   </g>
   <g id="patch_95">
    <path clip-path="url(#paeb363713c)" d="M 1089.146812 379.124436 
L 1098.044937 379.124436 
L 1098.044937 84.882936 
L 1089.146812 84.882936 
z
" style="fill:#348abd;opacity:0.85;"/>
   </g>
   <g id="patch_96">
    <path clip-path="url(#paeb363713c)" d="M 1100.269469 379.124436 
L 1109.167594 379.124436 
L 1109.167594 130.186855 
L 1100.269469 130.186855 
z
" style="fill:#348abd;opacity:0.85;"/>
   </g>
   <g id="patch_97">
    <path clip-path="url(#paeb363713c)" d="M 1111.392125 379.124436 
L 1120.29025 379.124436 
L 1120.29025 143.046155 
L 1111.392125 143.046155 
z
" style="fill:#348abd;opacity:0.85;"/>
   </g>
   <g id="patch_98">
    <path clip-path="url(#paeb363713c)" d="M 1122.514781 379.124436 
L 1131.412906 379.124436 
L 1131.412906 161.483434 
L 1122.514781 161.483434 
z
" style="fill:#348abd;opacity:0.85;"/>
   </g>
   <g id="matplotlib.axis_1">
    <g id="xtick_1">
     <g id="line2d_1">
      <path clip-path="url(#paeb363713c)" d="M 70.3115 379.124436 
L 70.3115 33.247636 
" style="fill:none;stroke:#808080;stroke-dasharray:0.3,0.495;stroke-dashoffset:0;stroke-width:0.3;"/>
     </g>
     <g id="line2d_2">
      <defs>
       <path d="M 0 0 
L 0 3.5 
" id="m848494015b" style="stroke:#000000;stroke-width:0.8;"/>
      </defs>
      <g>
       <use style="stroke:#000000;stroke-width:0.8;" x="70.3115" xlink:href="#m848494015b" y="379.124436"/>
      </g>
     </g>
     <g id="text_1">
      <!-- 0 -->
      <defs>
       <path d="M 31.78125 66.40625 
Q 24.171875 66.40625 20.328125 58.90625 
Q 16.5 51.421875 16.5 36.375 
Q 16.5 21.390625 20.328125 13.890625 
Q 24.171875 6.390625 31.78125 6.390625 
Q 39.453125 6.390625 43.28125 13.890625 
Q 47.125 21.390625 47.125 36.375 
Q 47.125 51.421875 43.28125 58.90625 
Q 39.453125 66.40625 31.78125 66.40625 
z
M 31.78125 74.21875 
Q 44.046875 74.21875 50.515625 64.515625 
Q 56.984375 54.828125 56.984375 36.375 
Q 56.984375 17.96875 50.515625 8.265625 
Q 44.046875 -1.421875 31.78125 -1.421875 
Q 19.53125 -1.421875 13.0625 8.265625 
Q 6.59375 17.96875 6.59375 36.375 
Q 6.59375 54.828125 13.0625 64.515625 
Q 19.53125 74.21875 31.78125 74.21875 
z
" id="DejaVuSans-48"/>
      </defs>
      <g transform="translate(66.494 395.242561)scale(0.12 -0.12)">
       <use xlink:href="#DejaVuSans-48"/>
      </g>
     </g>
    </g>
    <g id="xtick_2">
     <g id="line2d_3">
      <path clip-path="url(#paeb363713c)" d="M 292.764625 379.124436 
L 292.764625 33.247636 
" style="fill:none;stroke:#808080;stroke-dasharray:0.3,0.495;stroke-dashoffset:0;stroke-width:0.3;"/>
     </g>
     <g id="line2d_4">
      <g>
       <use style="stroke:#000000;stroke-width:0.8;" x="292.764625" xlink:href="#m848494015b" y="379.124436"/>
      </g>
     </g>
     <g id="text_2">
      <!-- 20 -->
      <defs>
       <path d="M 19.1875 8.296875 
L 53.609375 8.296875 
L 53.609375 0 
L 7.328125 0 
L 7.328125 8.296875 
Q 12.9375 14.109375 22.625 23.890625 
Q 32.328125 33.6875 34.8125 36.53125 
Q 39.546875 41.84375 41.421875 45.53125 
Q 43.3125 49.21875 43.3125 52.78125 
Q 43.3125 58.59375 39.234375 62.25 
Q 35.15625 65.921875 28.609375 65.921875 
Q 23.96875 65.921875 18.8125 64.3125 
Q 13.671875 62.703125 7.8125 59.421875 
L 7.8125 69.390625 
Q 13.765625 71.78125 18.9375 73 
Q 24.125 74.21875 28.421875 74.21875 
Q 39.75 74.21875 46.484375 68.546875 
Q 53.21875 62.890625 53.21875 53.421875 
Q 53.21875 48.921875 51.53125 44.890625 
Q 49.859375 40.875 45.40625 35.40625 
Q 44.1875 33.984375 37.640625 27.21875 
Q 31.109375 20.453125 19.1875 8.296875 
z
" id="DejaVuSans-50"/>
      </defs>
      <g transform="translate(285.129625 395.242561)scale(0.12 -0.12)">
       <use xlink:href="#DejaVuSans-50"/>
       <use x="63.623047" xlink:href="#DejaVuSans-48"/>
      </g>
     </g>
    </g>
    <g id="xtick_3">
     <g id="line2d_5">
      <path clip-path="url(#paeb363713c)" d="M 515.21775 379.124436 
L 515.21775 33.247636 
" style="fill:none;stroke:#808080;stroke-dasharray:0.3,0.495;stroke-dashoffset:0;stroke-width:0.3;"/>
     </g>
     <g id="line2d_6">
      <g>
       <use style="stroke:#000000;stroke-width:0.8;" x="515.21775" xlink:href="#m848494015b" y="379.124436"/>
      </g>
     </g>
     <g id="text_3">
      <!-- 40 -->
      <defs>
       <path d="M 37.796875 64.3125 
L 12.890625 25.390625 
L 37.796875 25.390625 
z
M 35.203125 72.90625 
L 47.609375 72.90625 
L 47.609375 25.390625 
L 58.015625 25.390625 
L 58.015625 17.1875 
L 47.609375 17.1875 
L 47.609375 0 
L 37.796875 0 
L 37.796875 17.1875 
L 4.890625 17.1875 
L 4.890625 26.703125 
z
" id="DejaVuSans-52"/>
      </defs>
      <g transform="translate(507.58275 395.242561)scale(0.12 -0.12)">
       <use xlink:href="#DejaVuSans-52"/>
       <use x="63.623047" xlink:href="#DejaVuSans-48"/>
      </g>
     </g>
    </g>
    <g id="xtick_4">
     <g id="line2d_7">
      <path clip-path="url(#paeb363713c)" d="M 737.670875 379.124436 
L 737.670875 33.247636 
" style="fill:none;stroke:#808080;stroke-dasharray:0.3,0.495;stroke-dashoffset:0;stroke-width:0.3;"/>
     </g>
     <g id="line2d_8">
      <g>
       <use style="stroke:#000000;stroke-width:0.8;" x="737.670875" xlink:href="#m848494015b" y="379.124436"/>
      </g>
     </g>
     <g id="text_4">
      <!-- 60 -->
      <defs>
       <path d="M 33.015625 40.375 
Q 26.375 40.375 22.484375 35.828125 
Q 18.609375 31.296875 18.609375 23.390625 
Q 18.609375 15.53125 22.484375 10.953125 
Q 26.375 6.390625 33.015625 6.390625 
Q 39.65625 6.390625 43.53125 10.953125 
Q 47.40625 15.53125 47.40625 23.390625 
Q 47.40625 31.296875 43.53125 35.828125 
Q 39.65625 40.375 33.015625 40.375 
z
M 52.59375 71.296875 
L 52.59375 62.3125 
Q 48.875 64.0625 45.09375 64.984375 
Q 41.3125 65.921875 37.59375 65.921875 
Q 27.828125 65.921875 22.671875 59.328125 
Q 17.53125 52.734375 16.796875 39.40625 
Q 19.671875 43.65625 24.015625 45.921875 
Q 28.375 48.1875 33.59375 48.1875 
Q 44.578125 48.1875 50.953125 41.515625 
Q 57.328125 34.859375 57.328125 23.390625 
Q 57.328125 12.15625 50.6875 5.359375 
Q 44.046875 -1.421875 33.015625 -1.421875 
Q 20.359375 -1.421875 13.671875 8.265625 
Q 6.984375 17.96875 6.984375 36.375 
Q 6.984375 53.65625 15.1875 63.9375 
Q 23.390625 74.21875 37.203125 74.21875 
Q 40.921875 74.21875 44.703125 73.484375 
Q 48.484375 72.75 52.59375 71.296875 
z
" id="DejaVuSans-54"/>
      </defs>
      <g transform="translate(730.035875 395.242561)scale(0.12 -0.12)">
       <use xlink:href="#DejaVuSans-54"/>
       <use x="63.623047" xlink:href="#DejaVuSans-48"/>
      </g>
     </g>
    </g>
    <g id="xtick_5">
     <g id="line2d_9">
      <path clip-path="url(#paeb363713c)" d="M 960.124 379.124436 
L 960.124 33.247636 
" style="fill:none;stroke:#808080;stroke-dasharray:0.3,0.495;stroke-dashoffset:0;stroke-width:0.3;"/>
     </g>
     <g id="line2d_10">
      <g>
       <use style="stroke:#000000;stroke-width:0.8;" x="960.124" xlink:href="#m848494015b" y="379.124436"/>
      </g>
     </g>
     <g id="text_5">
      <!-- 80 -->
      <defs>
       <path d="M 31.78125 34.625 
Q 24.75 34.625 20.71875 30.859375 
Q 16.703125 27.09375 16.703125 20.515625 
Q 16.703125 13.921875 20.71875 10.15625 
Q 24.75 6.390625 31.78125 6.390625 
Q 38.8125 6.390625 42.859375 10.171875 
Q 46.921875 13.96875 46.921875 20.515625 
Q 46.921875 27.09375 42.890625 30.859375 
Q 38.875 34.625 31.78125 34.625 
z
M 21.921875 38.8125 
Q 15.578125 40.375 12.03125 44.71875 
Q 8.5 49.078125 8.5 55.328125 
Q 8.5 64.0625 14.71875 69.140625 
Q 20.953125 74.21875 31.78125 74.21875 
Q 42.671875 74.21875 48.875 69.140625 
Q 55.078125 64.0625 55.078125 55.328125 
Q 55.078125 49.078125 51.53125 44.71875 
Q 48 40.375 41.703125 38.8125 
Q 48.828125 37.15625 52.796875 32.3125 
Q 56.78125 27.484375 56.78125 20.515625 
Q 56.78125 9.90625 50.3125 4.234375 
Q 43.84375 -1.421875 31.78125 -1.421875 
Q 19.734375 -1.421875 13.25 4.234375 
Q 6.78125 9.90625 6.78125 20.515625 
Q 6.78125 27.484375 10.78125 32.3125 
Q 14.796875 37.15625 21.921875 38.8125 
z
M 18.3125 54.390625 
Q 18.3125 48.734375 21.84375 45.5625 
Q 25.390625 42.390625 31.78125 42.390625 
Q 38.140625 42.390625 41.71875 45.5625 
Q 45.3125 48.734375 45.3125 54.390625 
Q 45.3125 60.0625 41.71875 63.234375 
Q 38.140625 66.40625 31.78125 66.40625 
Q 25.390625 66.40625 21.84375 63.234375 
Q 18.3125 60.0625 18.3125 54.390625 
z
" id="DejaVuSans-56"/>
      </defs>
      <g transform="translate(952.489 395.242561)scale(0.12 -0.12)">
       <use xlink:href="#DejaVuSans-56"/>
       <use x="63.623047" xlink:href="#DejaVuSans-48"/>
      </g>
     </g>
    </g>
    <g id="text_6">
     <!-- Time (in hours) -->
     <defs>
      <path d="M -0.296875 72.90625 
L 61.375 72.90625 
L 61.375 64.59375 
L 35.5 64.59375 
L 35.5 0 
L 25.59375 0 
L 25.59375 64.59375 
L -0.296875 64.59375 
z
" id="DejaVuSans-84"/>
      <path d="M 9.421875 54.6875 
L 18.40625 54.6875 
L 18.40625 0 
L 9.421875 0 
z
M 9.421875 75.984375 
L 18.40625 75.984375 
L 18.40625 64.59375 
L 9.421875 64.59375 
z
" id="DejaVuSans-105"/>
      <path d="M 52 44.1875 
Q 55.375 50.25 60.0625 53.125 
Q 64.75 56 71.09375 56 
Q 79.640625 56 84.28125 50.015625 
Q 88.921875 44.046875 88.921875 33.015625 
L 88.921875 0 
L 79.890625 0 
L 79.890625 32.71875 
Q 79.890625 40.578125 77.09375 44.375 
Q 74.3125 48.1875 68.609375 48.1875 
Q 61.625 48.1875 57.5625 43.546875 
Q 53.515625 38.921875 53.515625 30.90625 
L 53.515625 0 
L 44.484375 0 
L 44.484375 32.71875 
Q 44.484375 40.625 41.703125 44.40625 
Q 38.921875 48.1875 33.109375 48.1875 
Q 26.21875 48.1875 22.15625 43.53125 
Q 18.109375 38.875 18.109375 30.90625 
L 18.109375 0 
L 9.078125 0 
L 9.078125 54.6875 
L 18.109375 54.6875 
L 18.109375 46.1875 
Q 21.1875 51.21875 25.484375 53.609375 
Q 29.78125 56 35.6875 56 
Q 41.65625 56 45.828125 52.96875 
Q 50 49.953125 52 44.1875 
z
" id="DejaVuSans-109"/>
      <path d="M 56.203125 29.59375 
L 56.203125 25.203125 
L 14.890625 25.203125 
Q 15.484375 15.921875 20.484375 11.0625 
Q 25.484375 6.203125 34.421875 6.203125 
Q 39.59375 6.203125 44.453125 7.46875 
Q 49.3125 8.734375 54.109375 11.28125 
L 54.109375 2.78125 
Q 49.265625 0.734375 44.1875 -0.34375 
Q 39.109375 -1.421875 33.890625 -1.421875 
Q 20.796875 -1.421875 13.15625 6.1875 
Q 5.515625 13.8125 5.515625 26.8125 
Q 5.515625 40.234375 12.765625 48.109375 
Q 20.015625 56 32.328125 56 
Q 43.359375 56 49.78125 48.890625 
Q 56.203125 41.796875 56.203125 29.59375 
z
M 47.21875 32.234375 
Q 47.125 39.59375 43.09375 43.984375 
Q 39.0625 48.390625 32.421875 48.390625 
Q 24.90625 48.390625 20.390625 44.140625 
Q 15.875 39.890625 15.1875 32.171875 
z
" id="DejaVuSans-101"/>
      <path id="DejaVuSans-32"/>
      <path d="M 31 75.875 
Q 24.46875 64.65625 21.28125 53.65625 
Q 18.109375 42.671875 18.109375 31.390625 
Q 18.109375 20.125 21.3125 9.0625 
Q 24.515625 -2 31 -13.1875 
L 23.1875 -13.1875 
Q 15.875 -1.703125 12.234375 9.375 
Q 8.59375 20.453125 8.59375 31.390625 
Q 8.59375 42.28125 12.203125 53.3125 
Q 15.828125 64.359375 23.1875 75.875 
z
" id="DejaVuSans-40"/>
      <path d="M 54.890625 33.015625 
L 54.890625 0 
L 45.90625 0 
L 45.90625 32.71875 
Q 45.90625 40.484375 42.875 44.328125 
Q 39.84375 48.1875 33.796875 48.1875 
Q 26.515625 48.1875 22.3125 43.546875 
Q 18.109375 38.921875 18.109375 30.90625 
L 18.109375 0 
L 9.078125 0 
L 9.078125 54.6875 
L 18.109375 54.6875 
L 18.109375 46.1875 
Q 21.34375 51.125 25.703125 53.5625 
Q 30.078125 56 35.796875 56 
Q 45.21875 56 50.046875 50.171875 
Q 54.890625 44.34375 54.890625 33.015625 
z
" id="DejaVuSans-110"/>
      <path d="M 54.890625 33.015625 
L 54.890625 0 
L 45.90625 0 
L 45.90625 32.71875 
Q 45.90625 40.484375 42.875 44.328125 
Q 39.84375 48.1875 33.796875 48.1875 
Q 26.515625 48.1875 22.3125 43.546875 
Q 18.109375 38.921875 18.109375 30.90625 
L 18.109375 0 
L 9.078125 0 
L 9.078125 75.984375 
L 18.109375 75.984375 
L 18.109375 46.1875 
Q 21.34375 51.125 25.703125 53.5625 
Q 30.078125 56 35.796875 56 
Q 45.21875 56 50.046875 50.171875 
Q 54.890625 44.34375 54.890625 33.015625 
z
" id="DejaVuSans-104"/>
      <path d="M 30.609375 48.390625 
Q 23.390625 48.390625 19.1875 42.75 
Q 14.984375 37.109375 14.984375 27.296875 
Q 14.984375 17.484375 19.15625 11.84375 
Q 23.34375 6.203125 30.609375 6.203125 
Q 37.796875 6.203125 41.984375 11.859375 
Q 46.1875 17.53125 46.1875 27.296875 
Q 46.1875 37.015625 41.984375 42.703125 
Q 37.796875 48.390625 30.609375 48.390625 
z
M 30.609375 56 
Q 42.328125 56 49.015625 48.375 
Q 55.71875 40.765625 55.71875 27.296875 
Q 55.71875 13.875 49.015625 6.21875 
Q 42.328125 -1.421875 30.609375 -1.421875 
Q 18.84375 -1.421875 12.171875 6.21875 
Q 5.515625 13.875 5.515625 27.296875 
Q 5.515625 40.765625 12.171875 48.375 
Q 18.84375 56 30.609375 56 
z
" id="DejaVuSans-111"/>
      <path d="M 8.5 21.578125 
L 8.5 54.6875 
L 17.484375 54.6875 
L 17.484375 21.921875 
Q 17.484375 14.15625 20.5 10.265625 
Q 23.53125 6.390625 29.59375 6.390625 
Q 36.859375 6.390625 41.078125 11.03125 
Q 45.3125 15.671875 45.3125 23.6875 
L 45.3125 54.6875 
L 54.296875 54.6875 
L 54.296875 0 
L 45.3125 0 
L 45.3125 8.40625 
Q 42.046875 3.421875 37.71875 1 
Q 33.40625 -1.421875 27.6875 -1.421875 
Q 18.265625 -1.421875 13.375 4.4375 
Q 8.5 10.296875 8.5 21.578125 
z
M 31.109375 56 
z
" id="DejaVuSans-117"/>
      <path d="M 41.109375 46.296875 
Q 39.59375 47.171875 37.8125 47.578125 
Q 36.03125 48 33.890625 48 
Q 26.265625 48 22.1875 43.046875 
Q 18.109375 38.09375 18.109375 28.8125 
L 18.109375 0 
L 9.078125 0 
L 9.078125 54.6875 
L 18.109375 54.6875 
L 18.109375 46.1875 
Q 20.953125 51.171875 25.484375 53.578125 
Q 30.03125 56 36.53125 56 
Q 37.453125 56 38.578125 55.875 
Q 39.703125 55.765625 41.0625 55.515625 
z
" id="DejaVuSans-114"/>
      <path d="M 44.28125 53.078125 
L 44.28125 44.578125 
Q 40.484375 46.53125 36.375 47.5 
Q 32.28125 48.484375 27.875 48.484375 
Q 21.1875 48.484375 17.84375 46.4375 
Q 14.5 44.390625 14.5 40.28125 
Q 14.5 37.15625 16.890625 35.375 
Q 19.28125 33.59375 26.515625 31.984375 
L 29.59375 31.296875 
Q 39.15625 29.25 43.1875 25.515625 
Q 47.21875 21.78125 47.21875 15.09375 
Q 47.21875 7.46875 41.1875 3.015625 
Q 35.15625 -1.421875 24.609375 -1.421875 
Q 20.21875 -1.421875 15.453125 -0.5625 
Q 10.6875 0.296875 5.421875 2 
L 5.421875 11.28125 
Q 10.40625 8.6875 15.234375 7.390625 
Q 20.0625 6.109375 24.8125 6.109375 
Q 31.15625 6.109375 34.5625 8.28125 
Q 37.984375 10.453125 37.984375 14.40625 
Q 37.984375 18.0625 35.515625 20.015625 
Q 33.0625 21.96875 24.703125 23.78125 
L 21.578125 24.515625 
Q 13.234375 26.265625 9.515625 29.90625 
Q 5.8125 33.546875 5.8125 39.890625 
Q 5.8125 47.609375 11.28125 51.796875 
Q 16.75 56 26.8125 56 
Q 31.78125 56 36.171875 55.265625 
Q 40.578125 54.546875 44.28125 53.078125 
z
" id="DejaVuSans-115"/>
      <path d="M 8.015625 75.875 
L 15.828125 75.875 
Q 23.140625 64.359375 26.78125 53.3125 
Q 30.421875 42.28125 30.421875 31.390625 
Q 30.421875 20.453125 26.78125 9.375 
Q 23.140625 -1.703125 15.828125 -13.1875 
L 8.015625 -13.1875 
Q 14.5 -2 17.703125 9.0625 
Q 20.90625 20.125 20.90625 31.390625 
Q 20.90625 42.671875 17.703125 53.65625 
Q 14.5 64.65625 8.015625 75.875 
z
" id="DejaVuSans-41"/>
     </defs>
     <g transform="translate(549.360875 412.679936)scale(0.144 -0.144)">
      <use xlink:href="#DejaVuSans-84"/>
      <use x="61.037109" xlink:href="#DejaVuSans-105"/>
      <use x="88.820312" xlink:href="#DejaVuSans-109"/>
      <use x="186.232422" xlink:href="#DejaVuSans-101"/>
      <use x="247.755859" xlink:href="#DejaVuSans-32"/>
      <use x="279.542969" xlink:href="#DejaVuSans-40"/>
      <use x="318.556641" xlink:href="#DejaVuSans-105"/>
      <use x="346.339844" xlink:href="#DejaVuSans-110"/>
      <use x="409.71875" xlink:href="#DejaVuSans-32"/>
      <use x="441.505859" xlink:href="#DejaVuSans-104"/>
      <use x="504.884766" xlink:href="#DejaVuSans-111"/>
      <use x="566.066406" xlink:href="#DejaVuSans-117"/>
      <use x="629.445312" xlink:href="#DejaVuSans-114"/>
      <use x="670.558594" xlink:href="#DejaVuSans-115"/>
      <use x="722.658203" xlink:href="#DejaVuSans-41"/>
     </g>
    </g>
   </g>
   <g id="matplotlib.axis_2">
    <g id="ytick_1">
     <g id="line2d_11">
      <path clip-path="url(#paeb363713c)" d="M 70.3115 379.124436 
L 1138.0865 379.124436 
" style="fill:none;stroke:#808080;stroke-dasharray:0.3,0.495;stroke-dashoffset:0;stroke-width:0.3;"/>
     </g>
     <g id="line2d_12">
      <defs>
       <path d="M 0 0 
L -3.5 0 
" id="m8ef7f76166" style="stroke:#000000;stroke-width:0.8;"/>
      </defs>
      <g>
       <use style="stroke:#000000;stroke-width:0.8;" x="70.3115" xlink:href="#m8ef7f76166" y="379.124436"/>
      </g>
     </g>
     <g id="text_7">
      <!-- 0 -->
      <g transform="translate(55.6765 383.683498)scale(0.12 -0.12)">
       <use xlink:href="#DejaVuSans-48"/>
      </g>
     </g>
    </g>
    <g id="ytick_2">
     <g id="line2d_13">
      <path clip-path="url(#paeb363713c)" d="M 70.3115 316.730937 
L 1138.0865 316.730937 
" style="fill:none;stroke:#808080;stroke-dasharray:0.3,0.495;stroke-dashoffset:0;stroke-width:0.3;"/>
     </g>
     <g id="line2d_14">
      <g>
       <use style="stroke:#000000;stroke-width:0.8;" x="70.3115" xlink:href="#m8ef7f76166" y="316.730937"/>
      </g>
     </g>
     <g id="text_8">
      <!-- 10000 -->
      <defs>
       <path d="M 12.40625 8.296875 
L 28.515625 8.296875 
L 28.515625 63.921875 
L 10.984375 60.40625 
L 10.984375 69.390625 
L 28.421875 72.90625 
L 38.28125 72.90625 
L 38.28125 8.296875 
L 54.390625 8.296875 
L 54.390625 0 
L 12.40625 0 
z
" id="DejaVuSans-49"/>
      </defs>
      <g transform="translate(25.1365 321.29)scale(0.12 -0.12)">
       <use xlink:href="#DejaVuSans-49"/>
       <use x="63.623047" xlink:href="#DejaVuSans-48"/>
       <use x="127.246094" xlink:href="#DejaVuSans-48"/>
       <use x="190.869141" xlink:href="#DejaVuSans-48"/>
       <use x="254.492188" xlink:href="#DejaVuSans-48"/>
      </g>
     </g>
    </g>
    <g id="ytick_3">
     <g id="line2d_15">
      <path clip-path="url(#paeb363713c)" d="M 70.3115 254.337439 
L 1138.0865 254.337439 
" style="fill:none;stroke:#808080;stroke-dasharray:0.3,0.495;stroke-dashoffset:0;stroke-width:0.3;"/>
     </g>
     <g id="line2d_16">
      <g>
       <use style="stroke:#000000;stroke-width:0.8;" x="70.3115" xlink:href="#m8ef7f76166" y="254.337439"/>
      </g>
     </g>
     <g id="text_9">
      <!-- 20000 -->
      <g transform="translate(25.1365 258.896501)scale(0.12 -0.12)">
       <use xlink:href="#DejaVuSans-50"/>
       <use x="63.623047" xlink:href="#DejaVuSans-48"/>
       <use x="127.246094" xlink:href="#DejaVuSans-48"/>
       <use x="190.869141" xlink:href="#DejaVuSans-48"/>
       <use x="254.492188" xlink:href="#DejaVuSans-48"/>
      </g>
     </g>
    </g>
    <g id="ytick_4">
     <g id="line2d_17">
      <path clip-path="url(#paeb363713c)" d="M 70.3115 191.94394 
L 1138.0865 191.94394 
" style="fill:none;stroke:#808080;stroke-dasharray:0.3,0.495;stroke-dashoffset:0;stroke-width:0.3;"/>
     </g>
     <g id="line2d_18">
      <g>
       <use style="stroke:#000000;stroke-width:0.8;" x="70.3115" xlink:href="#m8ef7f76166" y="191.94394"/>
      </g>
     </g>
     <g id="text_10">
      <!-- 30000 -->
      <defs>
       <path d="M 40.578125 39.3125 
Q 47.65625 37.796875 51.625 33 
Q 55.609375 28.21875 55.609375 21.1875 
Q 55.609375 10.40625 48.1875 4.484375 
Q 40.765625 -1.421875 27.09375 -1.421875 
Q 22.515625 -1.421875 17.65625 -0.515625 
Q 12.796875 0.390625 7.625 2.203125 
L 7.625 11.71875 
Q 11.71875 9.328125 16.59375 8.109375 
Q 21.484375 6.890625 26.8125 6.890625 
Q 36.078125 6.890625 40.9375 10.546875 
Q 45.796875 14.203125 45.796875 21.1875 
Q 45.796875 27.640625 41.28125 31.265625 
Q 36.765625 34.90625 28.71875 34.90625 
L 20.21875 34.90625 
L 20.21875 43.015625 
L 29.109375 43.015625 
Q 36.375 43.015625 40.234375 45.921875 
Q 44.09375 48.828125 44.09375 54.296875 
Q 44.09375 59.90625 40.109375 62.90625 
Q 36.140625 65.921875 28.71875 65.921875 
Q 24.65625 65.921875 20.015625 65.03125 
Q 15.375 64.15625 9.8125 62.3125 
L 9.8125 71.09375 
Q 15.4375 72.65625 20.34375 73.4375 
Q 25.25 74.21875 29.59375 74.21875 
Q 40.828125 74.21875 47.359375 69.109375 
Q 53.90625 64.015625 53.90625 55.328125 
Q 53.90625 49.265625 50.4375 45.09375 
Q 46.96875 40.921875 40.578125 39.3125 
z
" id="DejaVuSans-51"/>
      </defs>
      <g transform="translate(25.1365 196.503003)scale(0.12 -0.12)">
       <use xlink:href="#DejaVuSans-51"/>
       <use x="63.623047" xlink:href="#DejaVuSans-48"/>
       <use x="127.246094" xlink:href="#DejaVuSans-48"/>
       <use x="190.869141" xlink:href="#DejaVuSans-48"/>
       <use x="254.492188" xlink:href="#DejaVuSans-48"/>
      </g>
     </g>
    </g>
    <g id="ytick_5">
     <g id="line2d_19">
      <path clip-path="url(#paeb363713c)" d="M 70.3115 129.550441 
L 1138.0865 129.550441 
" style="fill:none;stroke:#808080;stroke-dasharray:0.3,0.495;stroke-dashoffset:0;stroke-width:0.3;"/>
     </g>
     <g id="line2d_20">
      <g>
       <use style="stroke:#000000;stroke-width:0.8;" x="70.3115" xlink:href="#m8ef7f76166" y="129.550441"/>
      </g>
     </g>
     <g id="text_11">
      <!-- 40000 -->
      <g transform="translate(25.1365 134.109504)scale(0.12 -0.12)">
       <use xlink:href="#DejaVuSans-52"/>
       <use x="63.623047" xlink:href="#DejaVuSans-48"/>
       <use x="127.246094" xlink:href="#DejaVuSans-48"/>
       <use x="190.869141" xlink:href="#DejaVuSans-48"/>
       <use x="254.492188" xlink:href="#DejaVuSans-48"/>
      </g>
     </g>
    </g>
    <g id="ytick_6">
     <g id="line2d_21">
      <path clip-path="url(#paeb363713c)" d="M 70.3115 67.156943 
L 1138.0865 67.156943 
" style="fill:none;stroke:#808080;stroke-dasharray:0.3,0.495;stroke-dashoffset:0;stroke-width:0.3;"/>
     </g>
     <g id="line2d_22">
      <g>
       <use style="stroke:#000000;stroke-width:0.8;" x="70.3115" xlink:href="#m8ef7f76166" y="67.156943"/>
      </g>
     </g>
     <g id="text_12">
      <!-- 50000 -->
      <defs>
       <path d="M 10.796875 72.90625 
L 49.515625 72.90625 
L 49.515625 64.59375 
L 19.828125 64.59375 
L 19.828125 46.734375 
Q 21.96875 47.46875 24.109375 47.828125 
Q 26.265625 48.1875 28.421875 48.1875 
Q 40.625 48.1875 47.75 41.5 
Q 54.890625 34.8125 54.890625 23.390625 
Q 54.890625 11.625 47.5625 5.09375 
Q 40.234375 -1.421875 26.90625 -1.421875 
Q 22.3125 -1.421875 17.546875 -0.640625 
Q 12.796875 0.140625 7.71875 1.703125 
L 7.71875 11.625 
Q 12.109375 9.234375 16.796875 8.0625 
Q 21.484375 6.890625 26.703125 6.890625 
Q 35.15625 6.890625 40.078125 11.328125 
Q 45.015625 15.765625 45.015625 23.390625 
Q 45.015625 31 40.078125 35.4375 
Q 35.15625 39.890625 26.703125 39.890625 
Q 22.75 39.890625 18.8125 39.015625 
Q 14.890625 38.140625 10.796875 36.28125 
z
" id="DejaVuSans-53"/>
      </defs>
      <g transform="translate(25.1365 71.716005)scale(0.12 -0.12)">
       <use xlink:href="#DejaVuSans-53"/>
       <use x="63.623047" xlink:href="#DejaVuSans-48"/>
       <use x="127.246094" xlink:href="#DejaVuSans-48"/>
       <use x="190.869141" xlink:href="#DejaVuSans-48"/>
       <use x="254.492188" xlink:href="#DejaVuSans-48"/>
      </g>
     </g>
    </g>
    <g id="text_13">
     <!-- Energy [Wh] -->
     <defs>
      <path d="M 9.8125 72.90625 
L 55.90625 72.90625 
L 55.90625 64.59375 
L 19.671875 64.59375 
L 19.671875 43.015625 
L 54.390625 43.015625 
L 54.390625 34.71875 
L 19.671875 34.71875 
L 19.671875 8.296875 
L 56.78125 8.296875 
L 56.78125 0 
L 9.8125 0 
z
" id="DejaVuSans-69"/>
      <path d="M 45.40625 27.984375 
Q 45.40625 37.75 41.375 43.109375 
Q 37.359375 48.484375 30.078125 48.484375 
Q 22.859375 48.484375 18.828125 43.109375 
Q 14.796875 37.75 14.796875 27.984375 
Q 14.796875 18.265625 18.828125 12.890625 
Q 22.859375 7.515625 30.078125 7.515625 
Q 37.359375 7.515625 41.375 12.890625 
Q 45.40625 18.265625 45.40625 27.984375 
z
M 54.390625 6.78125 
Q 54.390625 -7.171875 48.1875 -13.984375 
Q 42 -20.796875 29.203125 -20.796875 
Q 24.46875 -20.796875 20.265625 -20.09375 
Q 16.0625 -19.390625 12.109375 -17.921875 
L 12.109375 -9.1875 
Q 16.0625 -11.328125 19.921875 -12.34375 
Q 23.78125 -13.375 27.78125 -13.375 
Q 36.625 -13.375 41.015625 -8.765625 
Q 45.40625 -4.15625 45.40625 5.171875 
L 45.40625 9.625 
Q 42.625 4.78125 38.28125 2.390625 
Q 33.9375 0 27.875 0 
Q 17.828125 0 11.671875 7.65625 
Q 5.515625 15.328125 5.515625 27.984375 
Q 5.515625 40.671875 11.671875 48.328125 
Q 17.828125 56 27.875 56 
Q 33.9375 56 38.28125 53.609375 
Q 42.625 51.21875 45.40625 46.390625 
L 45.40625 54.6875 
L 54.390625 54.6875 
z
" id="DejaVuSans-103"/>
      <path d="M 32.171875 -5.078125 
Q 28.375 -14.84375 24.75 -17.8125 
Q 21.140625 -20.796875 15.09375 -20.796875 
L 7.90625 -20.796875 
L 7.90625 -13.28125 
L 13.1875 -13.28125 
Q 16.890625 -13.28125 18.9375 -11.515625 
Q 21 -9.765625 23.484375 -3.21875 
L 25.09375 0.875 
L 2.984375 54.6875 
L 12.5 54.6875 
L 29.59375 11.921875 
L 46.6875 54.6875 
L 56.203125 54.6875 
z
" id="DejaVuSans-121"/>
      <path d="M 8.59375 75.984375 
L 29.296875 75.984375 
L 29.296875 69 
L 17.578125 69 
L 17.578125 -6.203125 
L 29.296875 -6.203125 
L 29.296875 -13.1875 
L 8.59375 -13.1875 
z
" id="DejaVuSans-91"/>
      <path d="M 3.328125 72.90625 
L 13.28125 72.90625 
L 28.609375 11.28125 
L 43.890625 72.90625 
L 54.984375 72.90625 
L 70.3125 11.28125 
L 85.59375 72.90625 
L 95.609375 72.90625 
L 77.296875 0 
L 64.890625 0 
L 49.515625 63.28125 
L 33.984375 0 
L 21.578125 0 
z
" id="DejaVuSans-87"/>
      <path d="M 30.421875 75.984375 
L 30.421875 -13.1875 
L 9.71875 -13.1875 
L 9.71875 -6.203125 
L 21.390625 -6.203125 
L 21.390625 69 
L 9.71875 69 
L 9.71875 75.984375 
z
" id="DejaVuSans-93"/>
     </defs>
     <g transform="translate(18.14175 251.108411)rotate(-90)scale(0.144 -0.144)">
      <use xlink:href="#DejaVuSans-69"/>
      <use x="63.183594" xlink:href="#DejaVuSans-110"/>
      <use x="126.5625" xlink:href="#DejaVuSans-101"/>
      <use x="188.085938" xlink:href="#DejaVuSans-114"/>
      <use x="229.183594" xlink:href="#DejaVuSans-103"/>
      <use x="292.660156" xlink:href="#DejaVuSans-121"/>
      <use x="351.839844" xlink:href="#DejaVuSans-32"/>
      <use x="383.626953" xlink:href="#DejaVuSans-91"/>
      <use x="422.640625" xlink:href="#DejaVuSans-87"/>
      <use x="521.517578" xlink:href="#DejaVuSans-104"/>
      <use x="584.896484" xlink:href="#DejaVuSans-93"/>
     </g>
    </g>
   </g>
   <g id="line2d_23">
    <path clip-path="url(#paeb363713c)" d="M 70.3115 144.113685 
L 81.434156 144.113685 
L 92.556812 144.113685 
L 103.679469 144.113685 
L 114.802125 144.113685 
L 125.924781 144.113685 
L 137.047438 144.113685 
L 148.170094 144.113685 
L 159.29275 144.113685 
L 170.415406 144.113685 
L 181.538062 144.113685 
L 192.660719 144.113685 
L 203.783375 144.113685 
L 214.906031 144.113685 
L 226.028687 144.113685 
L 237.151344 144.113685 
L 248.274 144.113685 
L 259.396656 144.113685 
L 270.519313 144.113685 
L 281.641969 144.113685 
L 292.764625 144.113685 
L 303.887281 144.113685 
L 315.009937 144.113685 
L 326.132594 144.113685 
L 337.25525 144.113685 
L 348.377906 144.113685 
L 359.500563 144.113685 
L 370.623219 144.113685 
L 381.745875 144.113685 
L 392.868531 144.113685 
L 403.991188 144.113685 
L 415.113844 144.113685 
L 426.2365 144.113685 
L 437.359156 144.113685 
L 448.481813 144.113685 
L 459.604469 144.113685 
L 470.727125 144.113685 
L 481.849781 144.113685 
L 492.972437 144.113685 
L 504.095094 144.113685 
L 515.21775 144.113685 
L 526.340406 144.113685 
L 537.463062 144.113685 
L 548.585719 144.113685 
L 559.708375 144.113685 
L 570.831031 144.113685 
L 581.953688 144.113685 
L 593.076344 144.113685 
L 604.199 144.113685 
L 615.321656 144.113685 
L 626.444313 108.690884 
L 637.566969 108.690884 
L 648.689625 108.690884 
L 659.812281 108.690884 
L 670.934938 108.690884 
L 682.057594 108.690884 
L 693.18025 108.690884 
L 704.302906 108.690884 
L 715.425563 108.690884 
L 726.548219 108.690884 
L 737.670875 108.690884 
L 748.793531 108.690884 
L 759.916188 108.690884 
L 771.038844 108.690884 
L 782.1615 108.690884 
L 793.284156 108.690884 
L 804.406813 108.690884 
L 815.529469 108.690884 
L 826.652125 108.690884 
L 837.774781 108.690884 
L 848.897438 108.690884 
L 860.020094 108.690884 
L 871.14275 108.690884 
L 882.265406 108.690884 
L 893.388063 108.690884 
L 904.510719 108.690884 
L 915.633375 108.690884 
L 926.756031 108.690884 
L 937.878688 108.690884 
L 949.001344 108.690884 
L 960.124 108.690884 
L 971.246656 108.690884 
L 982.369313 108.690884 
L 993.491969 108.690884 
L 1004.614625 108.690884 
L 1015.737281 108.690884 
L 1026.859937 108.690884 
L 1037.982594 108.690884 
L 1049.10525 108.690884 
L 1060.227906 108.690884 
L 1071.350563 108.690884 
L 1082.473219 108.690884 
L 1093.595875 108.690884 
L 1104.718531 108.690884 
L 1115.841188 108.690884 
L 1126.963844 108.690884 
" style="fill:none;stroke:#e24a33;stroke-linecap:square;stroke-opacity:0.95;stroke-width:4;"/>
   </g>
   <g id="line2d_24">
    <path clip-path="url(#paeb363713c)" d="M 626.444313 379.124436 
L 626.444313 33.247636 
" style="fill:none;stroke:#000000;stroke-dasharray:4,6.6;stroke-dashoffset:0;stroke-width:4;"/>
   </g>
   <g id="patch_99">
    <path d="M 70.3115 379.124436 
L 70.3115 33.247636 
" style="fill:none;stroke:#000000;stroke-linecap:square;stroke-linejoin:miter;stroke-width:0.8;"/>
   </g>
   <g id="patch_100">
    <path d="M 1138.0865 379.124436 
L 1138.0865 33.247636 
" style="fill:none;stroke:#000000;stroke-linecap:square;stroke-linejoin:miter;stroke-width:0.8;"/>
   </g>
   <g id="patch_101">
    <path d="M 70.3115 379.124436 
L 1138.0865 379.124436 
" style="fill:none;stroke:#000000;stroke-linecap:square;stroke-linejoin:miter;stroke-width:0.8;"/>
   </g>
   <g id="patch_102">
    <path d="M 70.3115 33.247636 
L 1138.0865 33.247636 
" style="fill:none;stroke:#000000;stroke-linecap:square;stroke-linejoin:miter;stroke-width:0.8;"/>
   </g>
   <g id="text_14">
    <!-- 07-Nov-2019, 10:00 -->
    <defs>
     <path d="M 8.203125 72.90625 
L 55.078125 72.90625 
L 55.078125 68.703125 
L 28.609375 0 
L 18.3125 0 
L 43.21875 64.59375 
L 8.203125 64.59375 
z
" id="DejaVuSans-55"/>
     <path d="M 4.890625 31.390625 
L 31.203125 31.390625 
L 31.203125 23.390625 
L 4.890625 23.390625 
z
" id="DejaVuSans-45"/>
     <path d="M 9.8125 72.90625 
L 23.09375 72.90625 
L 55.421875 11.921875 
L 55.421875 72.90625 
L 64.984375 72.90625 
L 64.984375 0 
L 51.703125 0 
L 19.390625 60.984375 
L 19.390625 0 
L 9.8125 0 
z
" id="DejaVuSans-78"/>
     <path d="M 2.984375 54.6875 
L 12.5 54.6875 
L 29.59375 8.796875 
L 46.6875 54.6875 
L 56.203125 54.6875 
L 35.6875 0 
L 23.484375 0 
z
" id="DejaVuSans-118"/>
     <path d="M 10.984375 1.515625 
L 10.984375 10.5 
Q 14.703125 8.734375 18.5 7.8125 
Q 22.3125 6.890625 25.984375 6.890625 
Q 35.75 6.890625 40.890625 13.453125 
Q 46.046875 20.015625 46.78125 33.40625 
Q 43.953125 29.203125 39.59375 26.953125 
Q 35.25 24.703125 29.984375 24.703125 
Q 19.046875 24.703125 12.671875 31.3125 
Q 6.296875 37.9375 6.296875 49.421875 
Q 6.296875 60.640625 12.9375 67.421875 
Q 19.578125 74.21875 30.609375 74.21875 
Q 43.265625 74.21875 49.921875 64.515625 
Q 56.59375 54.828125 56.59375 36.375 
Q 56.59375 19.140625 48.40625 8.859375 
Q 40.234375 -1.421875 26.421875 -1.421875 
Q 22.703125 -1.421875 18.890625 -0.6875 
Q 15.09375 0.046875 10.984375 1.515625 
z
M 30.609375 32.421875 
Q 37.25 32.421875 41.125 36.953125 
Q 45.015625 41.5 45.015625 49.421875 
Q 45.015625 57.28125 41.125 61.84375 
Q 37.25 66.40625 30.609375 66.40625 
Q 23.96875 66.40625 20.09375 61.84375 
Q 16.21875 57.28125 16.21875 49.421875 
Q 16.21875 41.5 20.09375 36.953125 
Q 23.96875 32.421875 30.609375 32.421875 
z
" id="DejaVuSans-57"/>
     <path d="M 11.71875 12.40625 
L 22.015625 12.40625 
L 22.015625 4 
L 14.015625 -11.625 
L 7.71875 -11.625 
L 11.71875 4 
z
" id="DejaVuSans-44"/>
     <path d="M 11.71875 12.40625 
L 22.015625 12.40625 
L 22.015625 0 
L 11.71875 0 
z
M 11.71875 51.703125 
L 22.015625 51.703125 
L 22.015625 39.3125 
L 11.71875 39.3125 
z
" id="DejaVuSans-58"/>
    </defs>
    <g transform="translate(648.689625 76.515967)scale(0.16 -0.16)">
     <use xlink:href="#DejaVuSans-48"/>
     <use x="63.623047" xlink:href="#DejaVuSans-55"/>
     <use x="127.246094" xlink:href="#DejaVuSans-45"/>
     <use x="163.330078" xlink:href="#DejaVuSans-78"/>
     <use x="238.134766" xlink:href="#DejaVuSans-111"/>
     <use x="299.316406" xlink:href="#DejaVuSans-118"/>
     <use x="358.464844" xlink:href="#DejaVuSans-45"/>
     <use x="394.548828" xlink:href="#DejaVuSans-50"/>
     <use x="458.171875" xlink:href="#DejaVuSans-48"/>
     <use x="521.794922" xlink:href="#DejaVuSans-49"/>
     <use x="585.417969" xlink:href="#DejaVuSans-57"/>
     <use x="649.041016" xlink:href="#DejaVuSans-44"/>
     <use x="680.828125" xlink:href="#DejaVuSans-32"/>
     <use x="712.615234" xlink:href="#DejaVuSans-49"/>
     <use x="776.238281" xlink:href="#DejaVuSans-48"/>
     <use x="839.861328" xlink:href="#DejaVuSans-58"/>
     <use x="873.552734" xlink:href="#DejaVuSans-48"/>
     <use x="937.175781" xlink:href="#DejaVuSans-48"/>
    </g>
   </g>
   <g id="text_15">
    <!-- Expected energy consumption (main incomer, KFC Brighton) -->
    <defs>
     <path d="M 54.890625 54.6875 
L 35.109375 28.078125 
L 55.90625 0 
L 45.3125 0 
L 29.390625 21.484375 
L 13.484375 0 
L 2.875 0 
L 24.125 28.609375 
L 4.6875 54.6875 
L 15.28125 54.6875 
L 29.78125 35.203125 
L 44.28125 54.6875 
z
" id="DejaVuSans-120"/>
     <path d="M 18.109375 8.203125 
L 18.109375 -20.796875 
L 9.078125 -20.796875 
L 9.078125 54.6875 
L 18.109375 54.6875 
L 18.109375 46.390625 
Q 20.953125 51.265625 25.265625 53.625 
Q 29.59375 56 35.59375 56 
Q 45.5625 56 51.78125 48.09375 
Q 58.015625 40.1875 58.015625 27.296875 
Q 58.015625 14.40625 51.78125 6.484375 
Q 45.5625 -1.421875 35.59375 -1.421875 
Q 29.59375 -1.421875 25.265625 0.953125 
Q 20.953125 3.328125 18.109375 8.203125 
z
M 48.6875 27.296875 
Q 48.6875 37.203125 44.609375 42.84375 
Q 40.53125 48.484375 33.40625 48.484375 
Q 26.265625 48.484375 22.1875 42.84375 
Q 18.109375 37.203125 18.109375 27.296875 
Q 18.109375 17.390625 22.1875 11.75 
Q 26.265625 6.109375 33.40625 6.109375 
Q 40.53125 6.109375 44.609375 11.75 
Q 48.6875 17.390625 48.6875 27.296875 
z
" id="DejaVuSans-112"/>
     <path d="M 48.78125 52.59375 
L 48.78125 44.1875 
Q 44.96875 46.296875 41.140625 47.34375 
Q 37.3125 48.390625 33.40625 48.390625 
Q 24.65625 48.390625 19.8125 42.84375 
Q 14.984375 37.3125 14.984375 27.296875 
Q 14.984375 17.28125 19.8125 11.734375 
Q 24.65625 6.203125 33.40625 6.203125 
Q 37.3125 6.203125 41.140625 7.25 
Q 44.96875 8.296875 48.78125 10.40625 
L 48.78125 2.09375 
Q 45.015625 0.34375 40.984375 -0.53125 
Q 36.96875 -1.421875 32.421875 -1.421875 
Q 20.0625 -1.421875 12.78125 6.34375 
Q 5.515625 14.109375 5.515625 27.296875 
Q 5.515625 40.671875 12.859375 48.328125 
Q 20.21875 56 33.015625 56 
Q 37.15625 56 41.109375 55.140625 
Q 45.0625 54.296875 48.78125 52.59375 
z
" id="DejaVuSans-99"/>
     <path d="M 18.3125 70.21875 
L 18.3125 54.6875 
L 36.8125 54.6875 
L 36.8125 47.703125 
L 18.3125 47.703125 
L 18.3125 18.015625 
Q 18.3125 11.328125 20.140625 9.421875 
Q 21.96875 7.515625 27.59375 7.515625 
L 36.8125 7.515625 
L 36.8125 0 
L 27.59375 0 
Q 17.1875 0 13.234375 3.875 
Q 9.28125 7.765625 9.28125 18.015625 
L 9.28125 47.703125 
L 2.6875 47.703125 
L 2.6875 54.6875 
L 9.28125 54.6875 
L 9.28125 70.21875 
z
" id="DejaVuSans-116"/>
     <path d="M 45.40625 46.390625 
L 45.40625 75.984375 
L 54.390625 75.984375 
L 54.390625 0 
L 45.40625 0 
L 45.40625 8.203125 
Q 42.578125 3.328125 38.25 0.953125 
Q 33.9375 -1.421875 27.875 -1.421875 
Q 17.96875 -1.421875 11.734375 6.484375 
Q 5.515625 14.40625 5.515625 27.296875 
Q 5.515625 40.1875 11.734375 48.09375 
Q 17.96875 56 27.875 56 
Q 33.9375 56 38.25 53.625 
Q 42.578125 51.265625 45.40625 46.390625 
z
M 14.796875 27.296875 
Q 14.796875 17.390625 18.875 11.75 
Q 22.953125 6.109375 30.078125 6.109375 
Q 37.203125 6.109375 41.296875 11.75 
Q 45.40625 17.390625 45.40625 27.296875 
Q 45.40625 37.203125 41.296875 42.84375 
Q 37.203125 48.484375 30.078125 48.484375 
Q 22.953125 48.484375 18.875 42.84375 
Q 14.796875 37.203125 14.796875 27.296875 
z
" id="DejaVuSans-100"/>
     <path d="M 34.28125 27.484375 
Q 23.390625 27.484375 19.1875 25 
Q 14.984375 22.515625 14.984375 16.5 
Q 14.984375 11.71875 18.140625 8.90625 
Q 21.296875 6.109375 26.703125 6.109375 
Q 34.1875 6.109375 38.703125 11.40625 
Q 43.21875 16.703125 43.21875 25.484375 
L 43.21875 27.484375 
z
M 52.203125 31.203125 
L 52.203125 0 
L 43.21875 0 
L 43.21875 8.296875 
Q 40.140625 3.328125 35.546875 0.953125 
Q 30.953125 -1.421875 24.3125 -1.421875 
Q 15.921875 -1.421875 10.953125 3.296875 
Q 6 8.015625 6 15.921875 
Q 6 25.140625 12.171875 29.828125 
Q 18.359375 34.515625 30.609375 34.515625 
L 43.21875 34.515625 
L 43.21875 35.40625 
Q 43.21875 41.609375 39.140625 45 
Q 35.0625 48.390625 27.6875 48.390625 
Q 23 48.390625 18.546875 47.265625 
Q 14.109375 46.140625 10.015625 43.890625 
L 10.015625 52.203125 
Q 14.9375 54.109375 19.578125 55.046875 
Q 24.21875 56 28.609375 56 
Q 40.484375 56 46.34375 49.84375 
Q 52.203125 43.703125 52.203125 31.203125 
z
" id="DejaVuSans-97"/>
     <path d="M 9.8125 72.90625 
L 19.671875 72.90625 
L 19.671875 42.09375 
L 52.390625 72.90625 
L 65.09375 72.90625 
L 28.90625 38.921875 
L 67.671875 0 
L 54.6875 0 
L 19.671875 35.109375 
L 19.671875 0 
L 9.8125 0 
z
" id="DejaVuSans-75"/>
     <path d="M 9.8125 72.90625 
L 51.703125 72.90625 
L 51.703125 64.59375 
L 19.671875 64.59375 
L 19.671875 43.109375 
L 48.578125 43.109375 
L 48.578125 34.8125 
L 19.671875 34.8125 
L 19.671875 0 
L 9.8125 0 
z
" id="DejaVuSans-70"/>
     <path d="M 64.40625 67.28125 
L 64.40625 56.890625 
Q 59.421875 61.53125 53.78125 63.8125 
Q 48.140625 66.109375 41.796875 66.109375 
Q 29.296875 66.109375 22.65625 58.46875 
Q 16.015625 50.828125 16.015625 36.375 
Q 16.015625 21.96875 22.65625 14.328125 
Q 29.296875 6.6875 41.796875 6.6875 
Q 48.140625 6.6875 53.78125 8.984375 
Q 59.421875 11.28125 64.40625 15.921875 
L 64.40625 5.609375 
Q 59.234375 2.09375 53.4375 0.328125 
Q 47.65625 -1.421875 41.21875 -1.421875 
Q 24.65625 -1.421875 15.125 8.703125 
Q 5.609375 18.84375 5.609375 36.375 
Q 5.609375 53.953125 15.125 64.078125 
Q 24.65625 74.21875 41.21875 74.21875 
Q 47.75 74.21875 53.53125 72.484375 
Q 59.328125 70.75 64.40625 67.28125 
z
" id="DejaVuSans-67"/>
     <path d="M 19.671875 34.8125 
L 19.671875 8.109375 
L 35.5 8.109375 
Q 43.453125 8.109375 47.28125 11.40625 
Q 51.125 14.703125 51.125 21.484375 
Q 51.125 28.328125 47.28125 31.5625 
Q 43.453125 34.8125 35.5 34.8125 
z
M 19.671875 64.796875 
L 19.671875 42.828125 
L 34.28125 42.828125 
Q 41.5 42.828125 45.03125 45.53125 
Q 48.578125 48.25 48.578125 53.8125 
Q 48.578125 59.328125 45.03125 62.0625 
Q 41.5 64.796875 34.28125 64.796875 
z
M 9.8125 72.90625 
L 35.015625 72.90625 
Q 46.296875 72.90625 52.390625 68.21875 
Q 58.5 63.53125 58.5 54.890625 
Q 58.5 48.1875 55.375 44.234375 
Q 52.25 40.28125 46.1875 39.3125 
Q 53.46875 37.75 57.5 32.78125 
Q 61.53125 27.828125 61.53125 20.40625 
Q 61.53125 10.640625 54.890625 5.3125 
Q 48.25 0 35.984375 0 
L 9.8125 0 
z
" id="DejaVuSans-66"/>
    </defs>
    <g transform="translate(341.28245 20.3301)scale(0.1728 -0.1728)">
     <use xlink:href="#DejaVuSans-69"/>
     <use x="63.183594" xlink:href="#DejaVuSans-120"/>
     <use x="122.363281" xlink:href="#DejaVuSans-112"/>
     <use x="185.839844" xlink:href="#DejaVuSans-101"/>
     <use x="247.363281" xlink:href="#DejaVuSans-99"/>
     <use x="302.34375" xlink:href="#DejaVuSans-116"/>
     <use x="341.552734" xlink:href="#DejaVuSans-101"/>
     <use x="403.076172" xlink:href="#DejaVuSans-100"/>
     <use x="466.552734" xlink:href="#DejaVuSans-32"/>
     <use x="498.339844" xlink:href="#DejaVuSans-101"/>
     <use x="559.863281" xlink:href="#DejaVuSans-110"/>
     <use x="623.242188" xlink:href="#DejaVuSans-101"/>
     <use x="684.765625" xlink:href="#DejaVuSans-114"/>
     <use x="725.863281" xlink:href="#DejaVuSans-103"/>
     <use x="789.339844" xlink:href="#DejaVuSans-121"/>
     <use x="848.519531" xlink:href="#DejaVuSans-32"/>
     <use x="880.306641" xlink:href="#DejaVuSans-99"/>
     <use x="935.287109" xlink:href="#DejaVuSans-111"/>
     <use x="996.46875" xlink:href="#DejaVuSans-110"/>
     <use x="1059.847656" xlink:href="#DejaVuSans-115"/>
     <use x="1111.947266" xlink:href="#DejaVuSans-117"/>
     <use x="1175.326172" xlink:href="#DejaVuSans-109"/>
     <use x="1272.738281" xlink:href="#DejaVuSans-112"/>
     <use x="1336.214844" xlink:href="#DejaVuSans-116"/>
     <use x="1375.423828" xlink:href="#DejaVuSans-105"/>
     <use x="1403.207031" xlink:href="#DejaVuSans-111"/>
     <use x="1464.388672" xlink:href="#DejaVuSans-110"/>
     <use x="1527.767578" xlink:href="#DejaVuSans-32"/>
     <use x="1559.554688" xlink:href="#DejaVuSans-40"/>
     <use x="1598.568359" xlink:href="#DejaVuSans-109"/>
     <use x="1695.980469" xlink:href="#DejaVuSans-97"/>
     <use x="1757.259766" xlink:href="#DejaVuSans-105"/>
     <use x="1785.042969" xlink:href="#DejaVuSans-110"/>
     <use x="1848.421875" xlink:href="#DejaVuSans-32"/>
     <use x="1880.208984" xlink:href="#DejaVuSans-105"/>
     <use x="1907.992188" xlink:href="#DejaVuSans-110"/>
     <use x="1971.371094" xlink:href="#DejaVuSans-99"/>
     <use x="2026.351562" xlink:href="#DejaVuSans-111"/>
     <use x="2087.533203" xlink:href="#DejaVuSans-109"/>
     <use x="2184.945312" xlink:href="#DejaVuSans-101"/>
     <use x="2246.46875" xlink:href="#DejaVuSans-114"/>
     <use x="2287.582031" xlink:href="#DejaVuSans-44"/>
     <use x="2319.369141" xlink:href="#DejaVuSans-32"/>
     <use x="2351.15625" xlink:href="#DejaVuSans-75"/>
     <use x="2416.732422" xlink:href="#DejaVuSans-70"/>
     <use x="2474.251953" xlink:href="#DejaVuSans-67"/>
     <use x="2544.076172" xlink:href="#DejaVuSans-32"/>
     <use x="2575.863281" xlink:href="#DejaVuSans-66"/>
     <use x="2644.466797" xlink:href="#DejaVuSans-114"/>
     <use x="2685.580078" xlink:href="#DejaVuSans-105"/>
     <use x="2713.363281" xlink:href="#DejaVuSans-103"/>
     <use x="2776.839844" xlink:href="#DejaVuSans-104"/>
     <use x="2840.21875" xlink:href="#DejaVuSans-116"/>
     <use x="2879.427734" xlink:href="#DejaVuSans-111"/>
     <use x="2940.609375" xlink:href="#DejaVuSans-110"/>
     <use x="3003.988281" xlink:href="#DejaVuSans-41"/>
    </g>
   </g>
   <g id="legend_1">
    <g id="patch_103">
     <path d="M 78.7115 113.302636 
L 254.41025 113.302636 
Q 256.81025 113.302636 256.81025 110.902636 
L 256.81025 41.647636 
Q 256.81025 39.247636 254.41025 39.247636 
L 78.7115 39.247636 
Q 76.3115 39.247636 76.3115 41.647636 
L 76.3115 110.902636 
Q 76.3115 113.302636 78.7115 113.302636 
z
" style="fill:#ffffff;opacity:0.8;stroke:#cccccc;stroke-linejoin:miter;"/>
    </g>
    <g id="line2d_25">
     <path d="M 81.1115 48.965761 
L 105.1115 48.965761 
" style="fill:none;stroke:#e24a33;stroke-linecap:square;stroke-opacity:0.95;stroke-width:4;"/>
    </g>
    <g id="line2d_26"/>
    <g id="text_16">
     <!-- expected consumption -->
     <g transform="translate(114.7115 53.165761)scale(0.12 -0.12)">
      <use xlink:href="#DejaVuSans-101"/>
      <use x="61.507812" xlink:href="#DejaVuSans-120"/>
      <use x="120.6875" xlink:href="#DejaVuSans-112"/>
      <use x="184.164062" xlink:href="#DejaVuSans-101"/>
      <use x="245.6875" xlink:href="#DejaVuSans-99"/>
      <use x="300.667969" xlink:href="#DejaVuSans-116"/>
      <use x="339.876953" xlink:href="#DejaVuSans-101"/>
      <use x="401.400391" xlink:href="#DejaVuSans-100"/>
      <use x="464.876953" xlink:href="#DejaVuSans-32"/>
      <use x="496.664062" xlink:href="#DejaVuSans-99"/>
      <use x="551.644531" xlink:href="#DejaVuSans-111"/>
      <use x="612.826172" xlink:href="#DejaVuSans-110"/>
      <use x="676.205078" xlink:href="#DejaVuSans-115"/>
      <use x="728.304688" xlink:href="#DejaVuSans-117"/>
      <use x="791.683594" xlink:href="#DejaVuSans-109"/>
      <use x="889.095703" xlink:href="#DejaVuSans-112"/>
      <use x="952.572266" xlink:href="#DejaVuSans-116"/>
      <use x="991.78125" xlink:href="#DejaVuSans-105"/>
      <use x="1019.564453" xlink:href="#DejaVuSans-111"/>
      <use x="1080.746094" xlink:href="#DejaVuSans-110"/>
     </g>
    </g>
    <g id="line2d_27">
     <path d="M 81.1115 66.579511 
L 105.1115 66.579511 
" style="fill:none;stroke:#000000;stroke-dasharray:4,6.6;stroke-dashoffset:0;stroke-width:4;"/>
    </g>
    <g id="line2d_28"/>
    <g id="text_17">
     <!-- Time of change -->
     <defs>
      <path d="M 37.109375 75.984375 
L 37.109375 68.5 
L 28.515625 68.5 
Q 23.6875 68.5 21.796875 66.546875 
Q 19.921875 64.59375 19.921875 59.515625 
L 19.921875 54.6875 
L 34.71875 54.6875 
L 34.71875 47.703125 
L 19.921875 47.703125 
L 19.921875 0 
L 10.890625 0 
L 10.890625 47.703125 
L 2.296875 47.703125 
L 2.296875 54.6875 
L 10.890625 54.6875 
L 10.890625 58.5 
Q 10.890625 67.625 15.140625 71.796875 
Q 19.390625 75.984375 28.609375 75.984375 
z
" id="DejaVuSans-102"/>
     </defs>
     <g transform="translate(114.7115 70.779511)scale(0.12 -0.12)">
      <use xlink:href="#DejaVuSans-84"/>
      <use x="61.037109" xlink:href="#DejaVuSans-105"/>
      <use x="88.820312" xlink:href="#DejaVuSans-109"/>
      <use x="186.232422" xlink:href="#DejaVuSans-101"/>
      <use x="247.755859" xlink:href="#DejaVuSans-32"/>
      <use x="279.542969" xlink:href="#DejaVuSans-111"/>
      <use x="340.724609" xlink:href="#DejaVuSans-102"/>
      <use x="375.929688" xlink:href="#DejaVuSans-32"/>
      <use x="407.716797" xlink:href="#DejaVuSans-99"/>
      <use x="462.697266" xlink:href="#DejaVuSans-104"/>
      <use x="526.076172" xlink:href="#DejaVuSans-97"/>
      <use x="587.355469" xlink:href="#DejaVuSans-110"/>
      <use x="650.734375" xlink:href="#DejaVuSans-103"/>
      <use x="714.210938" xlink:href="#DejaVuSans-101"/>
     </g>
    </g>
    <g id="patch_104">
     <path d="M 81.1115 88.393261 
L 105.1115 88.393261 
L 105.1115 79.993261 
L 81.1115 79.993261 
z
" style="fill:#ffa500;opacity:0.25;stroke:#ffa500;stroke-linejoin:miter;"/>
    </g>
    <g id="text_18">
     <!-- 90% Credible Interval -->
     <defs>
      <path d="M 72.703125 32.078125 
Q 68.453125 32.078125 66.03125 28.46875 
Q 63.625 24.859375 63.625 18.40625 
Q 63.625 12.0625 66.03125 8.421875 
Q 68.453125 4.78125 72.703125 4.78125 
Q 76.859375 4.78125 79.265625 8.421875 
Q 81.6875 12.0625 81.6875 18.40625 
Q 81.6875 24.8125 79.265625 28.4375 
Q 76.859375 32.078125 72.703125 32.078125 
z
M 72.703125 38.28125 
Q 80.421875 38.28125 84.953125 32.90625 
Q 89.5 27.546875 89.5 18.40625 
Q 89.5 9.28125 84.9375 3.921875 
Q 80.375 -1.421875 72.703125 -1.421875 
Q 64.890625 -1.421875 60.34375 3.921875 
Q 55.8125 9.28125 55.8125 18.40625 
Q 55.8125 27.59375 60.375 32.9375 
Q 64.9375 38.28125 72.703125 38.28125 
z
M 22.3125 68.015625 
Q 18.109375 68.015625 15.6875 64.375 
Q 13.28125 60.75 13.28125 54.390625 
Q 13.28125 47.953125 15.671875 44.328125 
Q 18.0625 40.71875 22.3125 40.71875 
Q 26.5625 40.71875 28.96875 44.328125 
Q 31.390625 47.953125 31.390625 54.390625 
Q 31.390625 60.6875 28.953125 64.34375 
Q 26.515625 68.015625 22.3125 68.015625 
z
M 66.40625 74.21875 
L 74.21875 74.21875 
L 28.609375 -1.421875 
L 20.796875 -1.421875 
z
M 22.3125 74.21875 
Q 30.03125 74.21875 34.609375 68.875 
Q 39.203125 63.53125 39.203125 54.390625 
Q 39.203125 45.171875 34.640625 39.84375 
Q 30.078125 34.515625 22.3125 34.515625 
Q 14.546875 34.515625 10.03125 39.859375 
Q 5.515625 45.21875 5.515625 54.390625 
Q 5.515625 63.484375 10.046875 68.84375 
Q 14.59375 74.21875 22.3125 74.21875 
z
" id="DejaVuSans-37"/>
      <path d="M 48.6875 27.296875 
Q 48.6875 37.203125 44.609375 42.84375 
Q 40.53125 48.484375 33.40625 48.484375 
Q 26.265625 48.484375 22.1875 42.84375 
Q 18.109375 37.203125 18.109375 27.296875 
Q 18.109375 17.390625 22.1875 11.75 
Q 26.265625 6.109375 33.40625 6.109375 
Q 40.53125 6.109375 44.609375 11.75 
Q 48.6875 17.390625 48.6875 27.296875 
z
M 18.109375 46.390625 
Q 20.953125 51.265625 25.265625 53.625 
Q 29.59375 56 35.59375 56 
Q 45.5625 56 51.78125 48.09375 
Q 58.015625 40.1875 58.015625 27.296875 
Q 58.015625 14.40625 51.78125 6.484375 
Q 45.5625 -1.421875 35.59375 -1.421875 
Q 29.59375 -1.421875 25.265625 0.953125 
Q 20.953125 3.328125 18.109375 8.203125 
L 18.109375 0 
L 9.078125 0 
L 9.078125 75.984375 
L 18.109375 75.984375 
z
" id="DejaVuSans-98"/>
      <path d="M 9.421875 75.984375 
L 18.40625 75.984375 
L 18.40625 0 
L 9.421875 0 
z
" id="DejaVuSans-108"/>
      <path d="M 9.8125 72.90625 
L 19.671875 72.90625 
L 19.671875 0 
L 9.8125 0 
z
" id="DejaVuSans-73"/>
     </defs>
     <g transform="translate(114.7115 88.393261)scale(0.12 -0.12)">
      <use xlink:href="#DejaVuSans-57"/>
      <use x="63.623047" xlink:href="#DejaVuSans-48"/>
      <use x="127.246094" xlink:href="#DejaVuSans-37"/>
      <use x="222.265625" xlink:href="#DejaVuSans-32"/>
      <use x="254.052734" xlink:href="#DejaVuSans-67"/>
      <use x="323.876953" xlink:href="#DejaVuSans-114"/>
      <use x="364.958984" xlink:href="#DejaVuSans-101"/>
      <use x="426.482422" xlink:href="#DejaVuSans-100"/>
      <use x="489.958984" xlink:href="#DejaVuSans-105"/>
      <use x="517.742188" xlink:href="#DejaVuSans-98"/>
      <use x="581.21875" xlink:href="#DejaVuSans-108"/>
      <use x="609.001953" xlink:href="#DejaVuSans-101"/>
      <use x="670.525391" xlink:href="#DejaVuSans-32"/>
      <use x="702.3125" xlink:href="#DejaVuSans-73"/>
      <use x="731.804688" xlink:href="#DejaVuSans-110"/>
      <use x="795.183594" xlink:href="#DejaVuSans-116"/>
      <use x="834.392578" xlink:href="#DejaVuSans-101"/>
      <use x="895.916016" xlink:href="#DejaVuSans-114"/>
      <use x="937.029297" xlink:href="#DejaVuSans-118"/>
      <use x="996.208984" xlink:href="#DejaVuSans-97"/>
      <use x="1057.488281" xlink:href="#DejaVuSans-108"/>
     </g>
    </g>
    <g id="patch_105">
     <path d="M 81.1115 106.007011 
L 105.1115 106.007011 
L 105.1115 97.607011 
L 81.1115 97.607011 
z
" style="fill:#348abd;opacity:0.85;"/>
    </g>
    <g id="text_19">
     <!-- observed consumption -->
     <g transform="translate(114.7115 106.007011)scale(0.12 -0.12)">
      <use xlink:href="#DejaVuSans-111"/>
      <use x="61.181641" xlink:href="#DejaVuSans-98"/>
      <use x="124.658203" xlink:href="#DejaVuSans-115"/>
      <use x="176.757812" xlink:href="#DejaVuSans-101"/>
      <use x="238.28125" xlink:href="#DejaVuSans-114"/>
      <use x="279.394531" xlink:href="#DejaVuSans-118"/>
      <use x="338.574219" xlink:href="#DejaVuSans-101"/>
      <use x="400.097656" xlink:href="#DejaVuSans-100"/>
      <use x="463.574219" xlink:href="#DejaVuSans-32"/>
      <use x="495.361328" xlink:href="#DejaVuSans-99"/>
      <use x="550.341797" xlink:href="#DejaVuSans-111"/>
      <use x="611.523438" xlink:href="#DejaVuSans-110"/>
      <use x="674.902344" xlink:href="#DejaVuSans-115"/>
      <use x="727.001953" xlink:href="#DejaVuSans-117"/>
      <use x="790.380859" xlink:href="#DejaVuSans-109"/>
      <use x="887.792969" xlink:href="#DejaVuSans-112"/>
      <use x="951.269531" xlink:href="#DejaVuSans-116"/>
      <use x="990.478516" xlink:href="#DejaVuSans-105"/>
      <use x="1018.261719" xlink:href="#DejaVuSans-111"/>
      <use x="1079.443359" xlink:href="#DejaVuSans-110"/>
     </g>
    </g>
   </g>
  </g>
 </g>
 <defs>
  <clipPath id="paeb363713c">
   <rect height="345.8768" width="1067.775" x="70.3115" y="33.247636"/>
  </clipPath>
 </defs>
</svg>
