<?xml version="1.0" encoding="utf-8" standalone="no"?>
<!DOCTYPE svg PUBLIC "-//W3C//DTD SVG 1.1//EN"
  "http://www.w3.org/Graphics/SVG/1.1/DTD/svg11.dtd">
<!-- Created with matplotlib (https://matplotlib.org/) -->
<svg height="422.874686pt" version="1.1" viewBox="0 0 1145.1615 422.874686" width="1145.1615pt" xmlns="http://www.w3.org/2000/svg" xmlns:xlink="http://www.w3.org/1999/xlink">
 <defs>
  <style type="text/css">
*{stroke-linecap:butt;stroke-linejoin:round;}
  </style>
 </defs>
 <g id="figure_1">
  <g id="patch_1">
   <path d="M 0 422.874686 
L 1145.1615 422.874686 
L 1145.1615 0 
L 0 0 
z
" style="fill:#ffffff;"/>
  </g>
  <g id="axes_1">
   <g id="patch_2">
    <path d="M 70.3115 379.124436 
L 1137.9615 379.124436 
L 1137.9615 33.247636 
L 70.3115 33.247636 
z
" style="fill:#ffffff;"/>
   </g>
   <g id="PolyCollection_1">
    <defs>
     <path d="M 70.3115 -307.276518 
L 70.3115 -305.887233 
L 79.844089 -305.887233 
L 89.376679 -305.887233 
L 98.909268 -305.887233 
L 108.441857 -305.887233 
L 117.974446 -305.887233 
L 127.507036 -305.887233 
L 137.039625 -305.887233 
L 146.572214 -305.887233 
L 156.104804 -305.887233 
L 165.637393 -305.887233 
L 175.169982 -305.887233 
L 184.702571 -305.887233 
L 194.235161 -305.887233 
L 203.76775 -305.887233 
L 213.300339 -305.887233 
L 222.832929 -305.887233 
L 232.365518 -305.887233 
L 241.898107 -305.887233 
L 251.430696 -305.887233 
L 260.963286 -305.887233 
L 270.495875 -305.887233 
L 280.028464 -305.887233 
L 289.561054 -305.887233 
L 299.093643 -305.887233 
L 308.626232 -305.887233 
L 318.158821 -305.887233 
L 327.691411 -305.887233 
L 337.224 -305.887233 
L 346.756589 -305.887233 
L 356.289179 -305.887233 
L 365.821768 -305.887233 
L 375.354357 -136.136692 
L 384.886946 -136.136692 
L 394.419536 -136.136692 
L 403.952125 -136.136692 
L 413.484714 -136.136692 
L 423.017304 -136.136692 
L 432.549893 -136.136692 
L 442.082482 -136.136692 
L 451.615071 -136.136692 
L 461.147661 -136.136692 
L 470.68025 -136.136692 
L 480.212839 -136.136692 
L 489.745429 -136.136692 
L 499.278018 -136.136692 
L 508.810607 -136.136692 
L 518.343196 -136.136692 
L 527.875786 -136.136692 
L 537.408375 -136.136692 
L 546.940964 -136.136692 
L 556.473554 -136.136692 
L 566.006143 -136.136692 
L 575.538732 -136.136692 
L 585.071321 -136.136692 
L 594.603911 -136.136692 
L 604.1365 -136.136692 
L 613.669089 -136.136692 
L 623.201679 -136.136692 
L 632.734268 -136.136692 
L 642.266857 -136.136692 
L 651.799446 -136.136692 
L 661.332036 -136.136692 
L 670.864625 -136.136692 
L 680.397214 -136.136692 
L 689.929804 -136.136692 
L 699.462393 -136.136692 
L 708.994982 -136.136692 
L 718.527571 -136.136692 
L 728.060161 -136.136692 
L 737.59275 -136.136692 
L 747.125339 -136.136692 
L 756.657929 -136.136692 
L 766.190518 -136.136692 
L 775.723107 -136.136692 
L 785.255696 -136.136692 
L 794.788286 -136.136692 
L 804.320875 -136.136692 
L 813.853464 -136.136692 
L 823.386054 -136.136692 
L 832.918643 -136.136692 
L 842.451232 -136.136692 
L 851.983821 -136.136692 
L 861.516411 -136.136692 
L 871.049 -136.136692 
L 880.581589 -136.136692 
L 890.114179 -136.136692 
L 899.646768 -136.136692 
L 909.179357 -136.136692 
L 918.711946 -136.136692 
L 928.244536 -136.136692 
L 937.777125 -136.136692 
L 947.309714 -136.136692 
L 956.842304 -136.136692 
L 966.374893 -136.136692 
L 975.907482 -136.136692 
L 985.440071 -136.136692 
L 994.972661 -136.136692 
L 1004.50525 -136.136692 
L 1014.037839 -136.136692 
L 1023.570429 -136.136692 
L 1033.103018 -136.136692 
L 1042.635607 -136.136692 
L 1052.168196 -136.136692 
L 1061.700786 -136.136692 
L 1071.233375 -136.136692 
L 1080.765964 -136.136692 
L 1090.298554 -136.136692 
L 1099.831143 -136.136692 
L 1109.363732 -136.136692 
L 1118.896321 -136.136692 
L 1128.428911 -136.136692 
L 1128.428911 -136.658471 
L 1128.428911 -136.658471 
L 1118.896321 -136.658471 
L 1109.363732 -136.658471 
L 1099.831143 -136.658471 
L 1090.298554 -136.658471 
L 1080.765964 -136.658471 
L 1071.233375 -136.658471 
L 1061.700786 -136.658471 
L 1052.168196 -136.658471 
L 1042.635607 -136.658471 
L 1033.103018 -136.658471 
L 1023.570429 -136.658471 
L 1014.037839 -136.658471 
L 1004.50525 -136.658471 
L 994.972661 -136.658471 
L 985.440071 -136.658471 
L 975.907482 -136.658471 
L 966.374893 -136.658471 
L 956.842304 -136.658471 
L 947.309714 -136.658471 
L 937.777125 -136.658471 
L 928.244536 -136.658471 
L 918.711946 -136.658471 
L 909.179357 -136.658471 
L 899.646768 -136.658471 
L 890.114179 -136.658471 
L 880.581589 -136.658471 
L 871.049 -136.658471 
L 861.516411 -136.658471 
L 851.983821 -136.658471 
L 842.451232 -136.658471 
L 832.918643 -136.658471 
L 823.386054 -136.658471 
L 813.853464 -136.658471 
L 804.320875 -136.658471 
L 794.788286 -136.658471 
L 785.255696 -136.658471 
L 775.723107 -136.658471 
L 766.190518 -136.658471 
L 756.657929 -136.658471 
L 747.125339 -136.658471 
L 737.59275 -136.658471 
L 728.060161 -136.658471 
L 718.527571 -136.658471 
L 708.994982 -136.658471 
L 699.462393 -136.658471 
L 689.929804 -136.658471 
L 680.397214 -136.658471 
L 670.864625 -136.658471 
L 661.332036 -136.658471 
L 651.799446 -136.658471 
L 642.266857 -136.658471 
L 632.734268 -136.658471 
L 623.201679 -136.658471 
L 613.669089 -136.658471 
L 604.1365 -136.658471 
L 594.603911 -136.658471 
L 585.071321 -136.658471 
L 575.538732 -136.658471 
L 566.006143 -136.658471 
L 556.473554 -136.658471 
L 546.940964 -136.658471 
L 537.408375 -136.658471 
L 527.875786 -136.658471 
L 518.343196 -136.658471 
L 508.810607 -136.658471 
L 499.278018 -136.658471 
L 489.745429 -136.658471 
L 480.212839 -136.658471 
L 470.68025 -136.658471 
L 461.147661 -136.658471 
L 451.615071 -136.658471 
L 442.082482 -136.658471 
L 432.549893 -136.658471 
L 423.017304 -136.658471 
L 413.484714 -136.658471 
L 403.952125 -136.658471 
L 394.419536 -136.658471 
L 384.886946 -136.658471 
L 375.354357 -136.658471 
L 365.821768 -307.276518 
L 356.289179 -307.276518 
L 346.756589 -307.276518 
L 337.224 -307.276518 
L 327.691411 -307.276518 
L 318.158821 -307.276518 
L 308.626232 -307.276518 
L 299.093643 -307.276518 
L 289.561054 -307.276518 
L 280.028464 -307.276518 
L 270.495875 -307.276518 
L 260.963286 -307.276518 
L 251.430696 -307.276518 
L 241.898107 -307.276518 
L 232.365518 -307.276518 
L 222.832929 -307.276518 
L 213.300339 -307.276518 
L 203.76775 -307.276518 
L 194.235161 -307.276518 
L 184.702571 -307.276518 
L 175.169982 -307.276518 
L 165.637393 -307.276518 
L 156.104804 -307.276518 
L 146.572214 -307.276518 
L 137.039625 -307.276518 
L 127.507036 -307.276518 
L 117.974446 -307.276518 
L 108.441857 -307.276518 
L 98.909268 -307.276518 
L 89.376679 -307.276518 
L 79.844089 -307.276518 
L 70.3115 -307.276518 
z
" id="ma8f6962aaa" style="stroke:#ffa500;stroke-opacity:0.25;"/>
    </defs>
    <g clip-path="url(#pa2d883da36)">
     <use style="fill:#ffa500;fill-opacity:0.25;stroke:#ffa500;stroke-opacity:0.25;" x="0" xlink:href="#ma8f6962aaa" y="422.874686"/>
    </g>
   </g>
   <g id="patch_3">
    <path clip-path="url(#pa2d883da36)" d="M 66.498464 379.124436 
L 74.124536 379.124436 
L 74.124536 155.942442 
L 66.498464 155.942442 
z
" style="fill:#348abd;opacity:0.85;"/>
   </g>
   <g id="patch_4">
    <path clip-path="url(#pa2d883da36)" d="M 76.031054 379.124436 
L 83.657125 379.124436 
L 83.657125 135.994182 
L 76.031054 135.994182 
z
" style="fill:#348abd;opacity:0.85;"/>
   </g>
   <g id="patch_5">
    <path clip-path="url(#pa2d883da36)" d="M 85.563643 379.124436 
L 93.189714 379.124436 
L 93.189714 131.766018 
L 85.563643 131.766018 
z
" style="fill:#348abd;opacity:0.85;"/>
   </g>
   <g id="patch_6">
    <path clip-path="url(#pa2d883da36)" d="M 95.096232 379.124436 
L 102.722304 379.124436 
L 102.722304 126.9741 
L 95.096232 126.9741 
z
" style="fill:#348abd;opacity:0.85;"/>
   </g>
   <g id="patch_7">
    <path clip-path="url(#pa2d883da36)" d="M 104.628821 379.124436 
L 112.254893 379.124436 
L 112.254893 122.962765 
L 104.628821 122.962765 
z
" style="fill:#348abd;opacity:0.85;"/>
   </g>
   <g id="patch_8">
    <path clip-path="url(#pa2d883da36)" d="M 114.161411 379.124436 
L 121.787482 379.124436 
L 121.787482 125.781541 
L 114.161411 125.781541 
z
" style="fill:#348abd;opacity:0.85;"/>
   </g>
   <g id="patch_9">
    <path clip-path="url(#pa2d883da36)" d="M 123.694 379.124436 
L 131.320071 379.124436 
L 131.320071 129.988021 
L 123.694 129.988021 
z
" style="fill:#348abd;opacity:0.85;"/>
   </g>
   <g id="patch_10">
    <path clip-path="url(#pa2d883da36)" d="M 133.226589 379.124436 
L 140.852661 379.124436 
L 140.852661 174.763191 
L 133.226589 174.763191 
z
" style="fill:#348abd;opacity:0.85;"/>
   </g>
   <g id="patch_11">
    <path clip-path="url(#pa2d883da36)" d="M 142.759179 379.124436 
L 150.38525 379.124436 
L 150.38525 181.224692 
L 142.759179 181.224692 
z
" style="fill:#348abd;opacity:0.85;"/>
   </g>
   <g id="patch_12">
    <path clip-path="url(#pa2d883da36)" d="M 152.291768 379.124436 
L 159.917839 379.124436 
L 159.917839 82.19893 
L 152.291768 82.19893 
z
" style="fill:#348abd;opacity:0.85;"/>
   </g>
   <g id="patch_13">
    <path clip-path="url(#pa2d883da36)" d="M 161.824357 379.124436 
L 169.450429 379.124436 
L 169.450429 91.674353 
L 161.824357 91.674353 
z
" style="fill:#348abd;opacity:0.85;"/>
   </g>
   <g id="patch_14">
    <path clip-path="url(#pa2d883da36)" d="M 171.356946 379.124436 
L 178.983018 379.124436 
L 178.983018 52.49337 
L 171.356946 52.49337 
z
" style="fill:#348abd;opacity:0.85;"/>
   </g>
   <g id="patch_15">
    <path clip-path="url(#pa2d883da36)" d="M 180.889536 379.124436 
L 188.515607 379.124436 
L 188.515607 49.71796 
L 180.889536 49.71796 
z
" style="fill:#348abd;opacity:0.85;"/>
   </g>
   <g id="patch_16">
    <path clip-path="url(#pa2d883da36)" d="M 190.422125 379.124436 
L 198.048196 379.124436 
L 198.048196 54.770073 
L 190.422125 54.770073 
z
" style="fill:#348abd;opacity:0.85;"/>
   </g>
   <g id="patch_17">
    <path clip-path="url(#pa2d883da36)" d="M 199.954714 379.124436 
L 207.580786 379.124436 
L 207.580786 51.235762 
L 199.954714 51.235762 
z
" style="fill:#348abd;opacity:0.85;"/>
   </g>
   <g id="patch_18">
    <path clip-path="url(#pa2d883da36)" d="M 209.487304 379.124436 
L 217.113375 379.124436 
L 217.113375 230.271391 
L 209.487304 230.271391 
z
" style="fill:#348abd;opacity:0.85;"/>
   </g>
   <g id="patch_19">
    <path clip-path="url(#pa2d883da36)" d="M 219.019893 379.124436 
L 226.645964 379.124436 
L 226.645964 235.06331 
L 219.019893 235.06331 
z
" style="fill:#348abd;opacity:0.85;"/>
   </g>
   <g id="patch_20">
    <path clip-path="url(#pa2d883da36)" d="M 228.552482 379.124436 
L 236.178554 379.124436 
L 236.178554 114.202877 
L 228.552482 114.202877 
z
" style="fill:#348abd;opacity:0.85;"/>
   </g>
   <g id="patch_21">
    <path clip-path="url(#pa2d883da36)" d="M 238.085071 379.124436 
L 245.711143 379.124436 
L 245.711143 108.738788 
L 238.085071 108.738788 
z
" style="fill:#348abd;opacity:0.85;"/>
   </g>
   <g id="patch_22">
    <path clip-path="url(#pa2d883da36)" d="M 247.617661 379.124436 
L 255.243732 379.124436 
L 255.243732 106.895743 
L 247.617661 106.895743 
z
" style="fill:#348abd;opacity:0.85;"/>
   </g>
   <g id="patch_23">
    <path clip-path="url(#pa2d883da36)" d="M 257.15025 379.124436 
L 264.776321 379.124436 
L 264.776321 103.94687 
L 257.15025 103.94687 
z
" style="fill:#348abd;opacity:0.85;"/>
   </g>
   <g id="patch_24">
    <path clip-path="url(#pa2d883da36)" d="M 266.682839 379.124436 
L 274.308911 379.124436 
L 274.308911 96.704784 
L 266.682839 96.704784 
z
" style="fill:#348abd;opacity:0.85;"/>
   </g>
   <g id="patch_25">
    <path clip-path="url(#pa2d883da36)" d="M 276.215429 379.124436 
L 283.8415 379.124436 
L 283.8415 80.681128 
L 276.215429 80.681128 
z
" style="fill:#348abd;opacity:0.85;"/>
   </g>
   <g id="patch_26">
    <path clip-path="url(#pa2d883da36)" d="M 285.748018 379.124436 
L 293.374089 379.124436 
L 293.374089 94.688275 
L 285.748018 94.688275 
z
" style="fill:#348abd;opacity:0.85;"/>
   </g>
   <g id="patch_27">
    <path clip-path="url(#pa2d883da36)" d="M 295.280607 379.124436 
L 302.906679 379.124436 
L 302.906679 101.301557 
L 295.280607 101.301557 
z
" style="fill:#348abd;opacity:0.85;"/>
   </g>
   <g id="patch_28">
    <path clip-path="url(#pa2d883da36)" d="M 304.813196 379.124436 
L 312.439268 379.124436 
L 312.439268 74.241309 
L 304.813196 74.241309 
z
" style="fill:#348abd;opacity:0.85;"/>
   </g>
   <g id="patch_29">
    <path clip-path="url(#pa2d883da36)" d="M 314.345786 379.124436 
L 321.971857 379.124436 
L 321.971857 70.468486 
L 314.345786 70.468486 
z
" style="fill:#348abd;opacity:0.85;"/>
   </g>
   <g id="patch_30">
    <path clip-path="url(#pa2d883da36)" d="M 323.878375 379.124436 
L 331.504446 379.124436 
L 331.504446 101.344923 
L 323.878375 101.344923 
z
" style="fill:#348abd;opacity:0.85;"/>
   </g>
   <g id="patch_31">
    <path clip-path="url(#pa2d883da36)" d="M 333.410964 379.124436 
L 341.037036 379.124436 
L 341.037036 104.770819 
L 333.410964 104.770819 
z
" style="fill:#348abd;opacity:0.85;"/>
   </g>
   <g id="patch_32">
    <path clip-path="url(#pa2d883da36)" d="M 342.943554 379.124436 
L 350.569625 379.124436 
L 350.569625 114.289608 
L 342.943554 114.289608 
z
" style="fill:#348abd;opacity:0.85;"/>
   </g>
   <g id="patch_33">
    <path clip-path="url(#pa2d883da36)" d="M 352.476143 379.124436 
L 360.102214 379.124436 
L 360.102214 113.378927 
L 352.476143 113.378927 
z
" style="fill:#348abd;opacity:0.85;"/>
   </g>
   <g id="patch_34">
    <path clip-path="url(#pa2d883da36)" d="M 362.008732 379.124436 
L 369.634804 379.124436 
L 369.634804 202.950949 
L 362.008732 202.950949 
z
" style="fill:#348abd;opacity:0.85;"/>
   </g>
   <g id="patch_35">
    <path clip-path="url(#pa2d883da36)" d="M 371.541321 379.124436 
L 379.167393 379.124436 
L 379.167393 369.518915 
L 371.541321 369.518915 
z
" style="fill:#348abd;opacity:0.85;"/>
   </g>
   <g id="patch_36">
    <path clip-path="url(#pa2d883da36)" d="M 381.073911 379.124436 
L 388.699982 379.124436 
L 388.699982 367.068749 
L 381.073911 367.068749 
z
" style="fill:#348abd;opacity:0.85;"/>
   </g>
   <g id="patch_37">
    <path clip-path="url(#pa2d883da36)" d="M 390.6065 379.124436 
L 398.232571 379.124436 
L 398.232571 366.873603 
L 390.6065 366.873603 
z
" style="fill:#348abd;opacity:0.85;"/>
   </g>
   <g id="patch_38">
    <path clip-path="url(#pa2d883da36)" d="M 400.139089 379.124436 
L 407.765161 379.124436 
L 407.765161 366.938651 
L 400.139089 366.938651 
z
" style="fill:#348abd;opacity:0.85;"/>
   </g>
   <g id="patch_39">
    <path clip-path="url(#pa2d883da36)" d="M 409.671679 379.124436 
L 417.29775 379.124436 
L 417.29775 369.323769 
L 409.671679 369.323769 
z
" style="fill:#348abd;opacity:0.85;"/>
   </g>
   <g id="patch_40">
    <path clip-path="url(#pa2d883da36)" d="M 419.204268 379.124436 
L 426.830339 379.124436 
L 426.830339 368.629917 
L 419.204268 368.629917 
z
" style="fill:#348abd;opacity:0.85;"/>
   </g>
   <g id="patch_41">
    <path clip-path="url(#pa2d883da36)" d="M 428.736857 379.124436 
L 436.362929 379.124436 
L 436.362929 365.811141 
L 428.736857 365.811141 
z
" style="fill:#348abd;opacity:0.85;"/>
   </g>
   <g id="patch_42">
    <path clip-path="url(#pa2d883da36)" d="M 438.269446 379.124436 
L 445.895518 379.124436 
L 445.895518 342.979057 
L 438.269446 342.979057 
z
" style="fill:#348abd;opacity:0.85;"/>
   </g>
   <g id="patch_43">
    <path clip-path="url(#pa2d883da36)" d="M 447.802036 379.124436 
L 455.428107 379.124436 
L 455.428107 255.033252 
L 447.802036 255.033252 
z
" style="fill:#348abd;opacity:0.85;"/>
   </g>
   <g id="patch_44">
    <path clip-path="url(#pa2d883da36)" d="M 457.334625 379.124436 
L 464.960696 379.124436 
L 464.960696 268.888619 
L 457.334625 268.888619 
z
" style="fill:#348abd;opacity:0.85;"/>
   </g>
   <g id="patch_45">
    <path clip-path="url(#pa2d883da36)" d="M 466.867214 379.124436 
L 474.493286 379.124436 
L 474.493286 269.842667 
L 466.867214 269.842667 
z
" style="fill:#348abd;opacity:0.85;"/>
   </g>
   <g id="patch_46">
    <path clip-path="url(#pa2d883da36)" d="M 476.399804 379.124436 
L 484.025875 379.124436 
L 484.025875 240.440667 
L 476.399804 240.440667 
z
" style="fill:#348abd;opacity:0.85;"/>
   </g>
   <g id="patch_47">
    <path clip-path="url(#pa2d883da36)" d="M 485.932393 379.124436 
L 493.558464 379.124436 
L 493.558464 240.76591 
L 485.932393 240.76591 
z
" style="fill:#348abd;opacity:0.85;"/>
   </g>
   <g id="patch_48">
    <path clip-path="url(#pa2d883da36)" d="M 495.464982 379.124436 
L 503.091054 379.124436 
L 503.091054 287.275711 
L 495.464982 287.275711 
z
" style="fill:#348abd;opacity:0.85;"/>
   </g>
   <g id="patch_49">
    <path clip-path="url(#pa2d883da36)" d="M 504.997571 379.124436 
L 512.623643 379.124436 
L 512.623643 353.712088 
L 504.997571 353.712088 
z
" style="fill:#348abd;opacity:0.85;"/>
   </g>
   <g id="patch_50">
    <path clip-path="url(#pa2d883da36)" d="M 514.530161 379.124436 
L 522.156232 379.124436 
L 522.156232 359.588151 
L 514.530161 359.588151 
z
" style="fill:#348abd;opacity:0.85;"/>
   </g>
   <g id="patch_51">
    <path clip-path="url(#pa2d883da36)" d="M 524.06275 379.124436 
L 531.688821 379.124436 
L 531.688821 366.266482 
L 524.06275 366.266482 
z
" style="fill:#348abd;opacity:0.85;"/>
   </g>
   <g id="patch_52">
    <path clip-path="url(#pa2d883da36)" d="M 533.595339 379.124436 
L 541.221411 379.124436 
L 541.221411 351.630531 
L 533.595339 351.630531 
z
" style="fill:#348abd;opacity:0.85;"/>
   </g>
   <g id="patch_53">
    <path clip-path="url(#pa2d883da36)" d="M 543.127929 379.124436 
L 550.754 379.124436 
L 550.754 351.32697 
L 543.127929 351.32697 
z
" style="fill:#348abd;opacity:0.85;"/>
   </g>
   <g id="patch_54">
    <path clip-path="url(#pa2d883da36)" d="M 552.660518 379.124436 
L 560.286589 379.124436 
L 560.286589 349.982631 
L 552.660518 349.982631 
z
" style="fill:#348abd;opacity:0.85;"/>
   </g>
   <g id="patch_55">
    <path clip-path="url(#pa2d883da36)" d="M 562.193107 379.124436 
L 569.819179 379.124436 
L 569.819179 350.871629 
L 562.193107 350.871629 
z
" style="fill:#348abd;opacity:0.85;"/>
   </g>
   <g id="patch_56">
    <path clip-path="url(#pa2d883da36)" d="M 571.725696 379.124436 
L 579.351768 379.124436 
L 579.351768 349.874216 
L 571.725696 349.874216 
z
" style="fill:#348abd;opacity:0.85;"/>
   </g>
   <g id="patch_57">
    <path clip-path="url(#pa2d883da36)" d="M 581.258286 379.124436 
L 588.884357 379.124436 
L 588.884357 284.695447 
L 581.258286 284.695447 
z
" style="fill:#348abd;opacity:0.85;"/>
   </g>
   <g id="patch_58">
    <path clip-path="url(#pa2d883da36)" d="M 590.790875 379.124436 
L 598.416946 379.124436 
L 598.416946 262.383752 
L 590.790875 262.383752 
z
" style="fill:#348abd;opacity:0.85;"/>
   </g>
   <g id="patch_59">
    <path clip-path="url(#pa2d883da36)" d="M 600.323464 379.124436 
L 607.949536 379.124436 
L 607.949536 261.147827 
L 600.323464 261.147827 
z
" style="fill:#348abd;opacity:0.85;"/>
   </g>
   <g id="patch_60">
    <path clip-path="url(#pa2d883da36)" d="M 609.856054 379.124436 
L 617.482125 379.124436 
L 617.482125 262.015143 
L 609.856054 262.015143 
z
" style="fill:#348abd;opacity:0.85;"/>
   </g>
   <g id="patch_61">
    <path clip-path="url(#pa2d883da36)" d="M 619.388643 379.124436 
L 627.014714 379.124436 
L 627.014714 257.743614 
L 619.388643 257.743614 
z
" style="fill:#348abd;opacity:0.85;"/>
   </g>
   <g id="patch_62">
    <path clip-path="url(#pa2d883da36)" d="M 628.921232 379.124436 
L 636.547304 379.124436 
L 636.547304 260.388926 
L 628.921232 260.388926 
z
" style="fill:#348abd;opacity:0.85;"/>
   </g>
   <g id="patch_63">
    <path clip-path="url(#pa2d883da36)" d="M 638.453821 379.124436 
L 646.079893 379.124436 
L 646.079893 259.998634 
L 638.453821 259.998634 
z
" style="fill:#348abd;opacity:0.85;"/>
   </g>
   <g id="patch_64">
    <path clip-path="url(#pa2d883da36)" d="M 647.986411 379.124436 
L 655.612482 379.124436 
L 655.612482 263.858189 
L 647.986411 263.858189 
z
" style="fill:#348abd;opacity:0.85;"/>
   </g>
   <g id="patch_65">
    <path clip-path="url(#pa2d883da36)" d="M 657.519 379.124436 
L 665.145071 379.124436 
L 665.145071 265.115796 
L 657.519 265.115796 
z
" style="fill:#348abd;opacity:0.85;"/>
   </g>
   <g id="patch_66">
    <path clip-path="url(#pa2d883da36)" d="M 667.051589 379.124436 
L 674.677661 379.124436 
L 674.677661 313.512009 
L 667.051589 313.512009 
z
" style="fill:#348abd;opacity:0.85;"/>
   </g>
   <g id="patch_67">
    <path clip-path="url(#pa2d883da36)" d="M 676.584179 379.124436 
L 684.21025 379.124436 
L 684.21025 343.282618 
L 676.584179 343.282618 
z
" style="fill:#348abd;opacity:0.85;"/>
   </g>
   <g id="patch_68">
    <path clip-path="url(#pa2d883da36)" d="M 686.116768 379.124436 
L 693.742839 379.124436 
L 693.742839 349.700753 
L 686.116768 349.700753 
z
" style="fill:#348abd;opacity:0.85;"/>
   </g>
   <g id="patch_69">
    <path clip-path="url(#pa2d883da36)" d="M 695.649357 379.124436 
L 703.275429 379.124436 
L 703.275429 351.565482 
L 695.649357 351.565482 
z
" style="fill:#348abd;opacity:0.85;"/>
   </g>
   <g id="patch_70">
    <path clip-path="url(#pa2d883da36)" d="M 705.181946 379.124436 
L 712.808018 379.124436 
L 712.808018 350.437972 
L 705.181946 350.437972 
z
" style="fill:#348abd;opacity:0.85;"/>
   </g>
   <g id="patch_71">
    <path clip-path="url(#pa2d883da36)" d="M 714.714536 379.124436 
L 722.340607 379.124436 
L 722.340607 351.717262 
L 714.714536 351.717262 
z
" style="fill:#348abd;opacity:0.85;"/>
   </g>
   <g id="patch_72">
    <path clip-path="url(#pa2d883da36)" d="M 724.247125 379.124436 
L 731.873196 379.124436 
L 731.873196 330.012688 
L 724.247125 330.012688 
z
" style="fill:#348abd;opacity:0.85;"/>
   </g>
   <g id="patch_73">
    <path clip-path="url(#pa2d883da36)" d="M 733.779714 379.124436 
L 741.405786 379.124436 
L 741.405786 261.234559 
L 733.779714 261.234559 
z
" style="fill:#348abd;opacity:0.85;"/>
   </g>
   <g id="patch_74">
    <path clip-path="url(#pa2d883da36)" d="M 743.312304 379.124436 
L 750.938375 379.124436 
L 750.938375 308.308115 
L 743.312304 308.308115 
z
" style="fill:#348abd;opacity:0.85;"/>
   </g>
   <g id="patch_75">
    <path clip-path="url(#pa2d883da36)" d="M 752.844893 379.124436 
L 760.470964 379.124436 
L 760.470964 345.47259 
L 752.844893 345.47259 
z
" style="fill:#348abd;opacity:0.85;"/>
   </g>
   <g id="patch_76">
    <path clip-path="url(#pa2d883da36)" d="M 762.377482 379.124436 
L 770.003554 379.124436 
L 770.003554 308.1997 
L 762.377482 308.1997 
z
" style="fill:#348abd;opacity:0.85;"/>
   </g>
   <g id="patch_77">
    <path clip-path="url(#pa2d883da36)" d="M 771.910071 379.124436 
L 779.536143 379.124436 
L 779.536143 119.363405 
L 771.910071 119.363405 
z
" style="fill:#348abd;opacity:0.85;"/>
   </g>
   <g id="patch_78">
    <path clip-path="url(#pa2d883da36)" d="M 781.442661 379.124436 
L 789.068732 379.124436 
L 789.068732 123.179594 
L 781.442661 123.179594 
z
" style="fill:#348abd;opacity:0.85;"/>
   </g>
   <g id="patch_79">
    <path clip-path="url(#pa2d883da36)" d="M 790.97525 379.124436 
L 798.601321 379.124436 
L 798.601321 168.952176 
L 790.97525 168.952176 
z
" style="fill:#348abd;opacity:0.85;"/>
   </g>
   <g id="patch_80">
    <path clip-path="url(#pa2d883da36)" d="M 800.507839 379.124436 
L 808.133911 379.124436 
L 808.133911 125.239468 
L 800.507839 125.239468 
z
" style="fill:#348abd;opacity:0.85;"/>
   </g>
   <g id="patch_81">
    <path clip-path="url(#pa2d883da36)" d="M 810.040429 379.124436 
L 817.6665 379.124436 
L 817.6665 128.687048 
L 810.040429 128.687048 
z
" style="fill:#348abd;opacity:0.85;"/>
   </g>
   <g id="patch_82">
    <path clip-path="url(#pa2d883da36)" d="M 819.573018 379.124436 
L 827.199089 379.124436 
L 827.199089 130.378313 
L 819.573018 130.378313 
z
" style="fill:#348abd;opacity:0.85;"/>
   </g>
   <g id="patch_83">
    <path clip-path="url(#pa2d883da36)" d="M 829.105607 379.124436 
L 836.731679 379.124436 
L 836.731679 371.253547 
L 829.105607 371.253547 
z
" style="fill:#348abd;opacity:0.85;"/>
   </g>
   <g id="patch_84">
    <path clip-path="url(#pa2d883da36)" d="M 838.638196 379.124436 
L 846.264268 379.124436 
L 846.264268 354.92633 
L 838.638196 354.92633 
z
" style="fill:#348abd;opacity:0.85;"/>
   </g>
   <g id="patch_85">
    <path clip-path="url(#pa2d883da36)" d="M 848.170786 379.124436 
L 855.796857 379.124436 
L 855.796857 355.858694 
L 848.170786 355.858694 
z
" style="fill:#348abd;opacity:0.85;"/>
   </g>
   <g id="patch_86">
    <path clip-path="url(#pa2d883da36)" d="M 857.703375 379.124436 
L 865.329446 379.124436 
L 865.329446 350.784898 
L 857.703375 350.784898 
z
" style="fill:#348abd;opacity:0.85;"/>
   </g>
   <g id="patch_87">
    <path clip-path="url(#pa2d883da36)" d="M 867.235964 379.124436 
L 874.862036 379.124436 
L 874.862036 349.809168 
L 867.235964 349.809168 
z
" style="fill:#348abd;opacity:0.85;"/>
   </g>
   <g id="patch_88">
    <path clip-path="url(#pa2d883da36)" d="M 876.768554 379.124436 
L 884.394625 379.124436 
L 884.394625 353.690405 
L 876.768554 353.690405 
z
" style="fill:#348abd;opacity:0.85;"/>
   </g>
   <g id="patch_89">
    <path clip-path="url(#pa2d883da36)" d="M 886.301143 379.124436 
L 893.927214 379.124436 
L 893.927214 345.732784 
L 886.301143 345.732784 
z
" style="fill:#348abd;opacity:0.85;"/>
   </g>
   <g id="patch_90">
    <path clip-path="url(#pa2d883da36)" d="M 895.833732 379.124436 
L 903.459804 379.124436 
L 903.459804 342.827277 
L 895.833732 342.827277 
z
" style="fill:#348abd;opacity:0.85;"/>
   </g>
   <g id="patch_91">
    <path clip-path="url(#pa2d883da36)" d="M 905.366321 379.124436 
L 912.992393 379.124436 
L 912.992393 260.215463 
L 905.366321 260.215463 
z
" style="fill:#348abd;opacity:0.85;"/>
   </g>
   <g id="patch_92">
    <path clip-path="url(#pa2d883da36)" d="M 914.898911 379.124436 
L 922.524982 379.124436 
L 922.524982 134.77994 
L 914.898911 134.77994 
z
" style="fill:#348abd;opacity:0.85;"/>
   </g>
   <g id="patch_93">
    <path clip-path="url(#pa2d883da36)" d="M 924.4315 379.124436 
L 932.057571 379.124436 
L 932.057571 139.159884 
L 924.4315 139.159884 
z
" style="fill:#348abd;opacity:0.85;"/>
   </g>
   <g id="patch_94">
    <path clip-path="url(#pa2d883da36)" d="M 933.964089 379.124436 
L 941.590161 379.124436 
L 941.590161 204.165191 
L 933.964089 204.165191 
z
" style="fill:#348abd;opacity:0.85;"/>
   </g>
   <g id="patch_95">
    <path clip-path="url(#pa2d883da36)" d="M 943.496679 379.124436 
L 951.12275 379.124436 
L 951.12275 274.244293 
L 943.496679 274.244293 
z
" style="fill:#348abd;opacity:0.85;"/>
   </g>
   <g id="patch_96">
    <path clip-path="url(#pa2d883da36)" d="M 953.029268 379.124436 
L 960.655339 379.124436 
L 960.655339 275.220024 
L 953.029268 275.220024 
z
" style="fill:#348abd;opacity:0.85;"/>
   </g>
   <g id="patch_97">
    <path clip-path="url(#pa2d883da36)" d="M 962.561857 379.124436 
L 970.187929 379.124436 
L 970.187929 271.642347 
L 962.561857 271.642347 
z
" style="fill:#348abd;opacity:0.85;"/>
   </g>
   <g id="patch_98">
    <path clip-path="url(#pa2d883da36)" d="M 972.094446 379.124436 
L 979.720518 379.124436 
L 979.720518 280.944307 
L 972.094446 280.944307 
z
" style="fill:#348abd;opacity:0.85;"/>
   </g>
   <g id="patch_99">
    <path clip-path="url(#pa2d883da36)" d="M 981.627036 379.124436 
L 989.253107 379.124436 
L 989.253107 359.6532 
L 981.627036 359.6532 
z
" style="fill:#348abd;opacity:0.85;"/>
   </g>
   <g id="patch_100">
    <path clip-path="url(#pa2d883da36)" d="M 991.159625 379.124436 
L 998.785696 379.124436 
L 998.785696 346.209808 
L 991.159625 346.209808 
z
" style="fill:#348abd;opacity:0.85;"/>
   </g>
   <g id="patch_101">
    <path clip-path="url(#pa2d883da36)" d="M 1000.692214 379.124436 
L 1008.318286 379.124436 
L 1008.318286 353.863868 
L 1000.692214 353.863868 
z
" style="fill:#348abd;opacity:0.85;"/>
   </g>
   <g id="patch_102">
    <path clip-path="url(#pa2d883da36)" d="M 1010.224804 379.124436 
L 1017.850875 379.124436 
L 1017.850875 357.398179 
L 1010.224804 357.398179 
z
" style="fill:#348abd;opacity:0.85;"/>
   </g>
   <g id="patch_103">
    <path clip-path="url(#pa2d883da36)" d="M 1019.757393 379.124436 
L 1027.383464 379.124436 
L 1027.383464 353.907234 
L 1019.757393 353.907234 
z
" style="fill:#348abd;opacity:0.85;"/>
   </g>
   <g id="patch_104">
    <path clip-path="url(#pa2d883da36)" d="M 1029.289982 379.124436 
L 1036.916054 379.124436 
L 1036.916054 357.224716 
L 1029.289982 357.224716 
z
" style="fill:#348abd;opacity:0.85;"/>
   </g>
   <g id="patch_105">
    <path clip-path="url(#pa2d883da36)" d="M 1038.822571 379.124436 
L 1046.448643 379.124436 
L 1046.448643 350.025997 
L 1038.822571 350.025997 
z
" style="fill:#348abd;opacity:0.85;"/>
   </g>
   <g id="patch_106">
    <path clip-path="url(#pa2d883da36)" d="M 1048.355161 379.124436 
L 1055.981232 379.124436 
L 1055.981232 335.541826 
L 1048.355161 335.541826 
z
" style="fill:#348abd;opacity:0.85;"/>
   </g>
   <g id="patch_107">
    <path clip-path="url(#pa2d883da36)" d="M 1057.88775 379.124436 
L 1065.513821 379.124436 
L 1065.513821 163.249576 
L 1057.88775 163.249576 
z
" style="fill:#348abd;opacity:0.85;"/>
   </g>
   <g id="patch_108">
    <path clip-path="url(#pa2d883da36)" d="M 1067.420339 379.124436 
L 1075.046411 379.124436 
L 1075.046411 122.247229 
L 1067.420339 122.247229 
z
" style="fill:#348abd;opacity:0.85;"/>
   </g>
   <g id="patch_109">
    <path clip-path="url(#pa2d883da36)" d="M 1076.952929 379.124436 
L 1084.579 379.124436 
L 1084.579 128.25339 
L 1076.952929 128.25339 
z
" style="fill:#348abd;opacity:0.85;"/>
   </g>
   <g id="patch_110">
    <path clip-path="url(#pa2d883da36)" d="M 1086.485518 379.124436 
L 1094.111589 379.124436 
L 1094.111589 137.013278 
L 1086.485518 137.013278 
z
" style="fill:#348abd;opacity:0.85;"/>
   </g>
   <g id="patch_111">
    <path clip-path="url(#pa2d883da36)" d="M 1096.018107 379.124436 
L 1103.644179 379.124436 
L 1103.644179 138.509397 
L 1096.018107 138.509397 
z
" style="fill:#348abd;opacity:0.85;"/>
   </g>
   <g id="patch_112">
    <path clip-path="url(#pa2d883da36)" d="M 1105.550696 379.124436 
L 1113.176768 379.124436 
L 1113.176768 141.588368 
L 1105.550696 141.588368 
z
" style="fill:#348abd;opacity:0.85;"/>
   </g>
   <g id="patch_113">
    <path clip-path="url(#pa2d883da36)" d="M 1115.083286 379.124436 
L 1122.709357 379.124436 
L 1122.709357 211.602422 
L 1115.083286 211.602422 
z
" style="fill:#348abd;opacity:0.85;"/>
   </g>
   <g id="patch_114">
    <path clip-path="url(#pa2d883da36)" d="M 1124.615875 379.124436 
L 1132.241946 379.124436 
L 1132.241946 297.119743 
L 1124.615875 297.119743 
z
" style="fill:#348abd;opacity:0.85;"/>
   </g>
   <g id="matplotlib.axis_1">
    <g id="xtick_1">
     <g id="line2d_1">
      <path clip-path="url(#pa2d883da36)" d="M 70.3115 379.124436 
L 70.3115 33.247636 
" style="fill:none;stroke:#808080;stroke-dasharray:0.3,0.495;stroke-dashoffset:0;stroke-width:0.3;"/>
     </g>
     <g id="line2d_2">
      <defs>
       <path d="M 0 0 
L 0 3.5 
" id="mf3cf47f6f2" style="stroke:#000000;stroke-width:0.8;"/>
      </defs>
      <g>
       <use style="stroke:#000000;stroke-width:0.8;" x="70.3115" xlink:href="#mf3cf47f6f2" y="379.124436"/>
      </g>
     </g>
     <g id="text_1">
      <!-- 0 -->
      <defs>
       <path d="M 31.78125 66.40625 
Q 24.171875 66.40625 20.328125 58.90625 
Q 16.5 51.421875 16.5 36.375 
Q 16.5 21.390625 20.328125 13.890625 
Q 24.171875 6.390625 31.78125 6.390625 
Q 39.453125 6.390625 43.28125 13.890625 
Q 47.125 21.390625 47.125 36.375 
Q 47.125 51.421875 43.28125 58.90625 
Q 39.453125 66.40625 31.78125 66.40625 
z
M 31.78125 74.21875 
Q 44.046875 74.21875 50.515625 64.515625 
Q 56.984375 54.828125 56.984375 36.375 
Q 56.984375 17.96875 50.515625 8.265625 
Q 44.046875 -1.421875 31.78125 -1.421875 
Q 19.53125 -1.421875 13.0625 8.265625 
Q 6.59375 17.96875 6.59375 36.375 
Q 6.59375 54.828125 13.0625 64.515625 
Q 19.53125 74.21875 31.78125 74.21875 
z
" id="DejaVuSans-48"/>
      </defs>
      <g transform="translate(66.494 395.242561)scale(0.12 -0.12)">
       <use xlink:href="#DejaVuSans-48"/>
      </g>
     </g>
    </g>
    <g id="xtick_2">
     <g id="line2d_3">
      <path clip-path="url(#pa2d883da36)" d="M 260.963286 379.124436 
L 260.963286 33.247636 
" style="fill:none;stroke:#808080;stroke-dasharray:0.3,0.495;stroke-dashoffset:0;stroke-width:0.3;"/>
     </g>
     <g id="line2d_4">
      <g>
       <use style="stroke:#000000;stroke-width:0.8;" x="260.963286" xlink:href="#mf3cf47f6f2" y="379.124436"/>
      </g>
     </g>
     <g id="text_2">
      <!-- 20 -->
      <defs>
       <path d="M 19.1875 8.296875 
L 53.609375 8.296875 
L 53.609375 0 
L 7.328125 0 
L 7.328125 8.296875 
Q 12.9375 14.109375 22.625 23.890625 
Q 32.328125 33.6875 34.8125 36.53125 
Q 39.546875 41.84375 41.421875 45.53125 
Q 43.3125 49.21875 43.3125 52.78125 
Q 43.3125 58.59375 39.234375 62.25 
Q 35.15625 65.921875 28.609375 65.921875 
Q 23.96875 65.921875 18.8125 64.3125 
Q 13.671875 62.703125 7.8125 59.421875 
L 7.8125 69.390625 
Q 13.765625 71.78125 18.9375 73 
Q 24.125 74.21875 28.421875 74.21875 
Q 39.75 74.21875 46.484375 68.546875 
Q 53.21875 62.890625 53.21875 53.421875 
Q 53.21875 48.921875 51.53125 44.890625 
Q 49.859375 40.875 45.40625 35.40625 
Q 44.1875 33.984375 37.640625 27.21875 
Q 31.109375 20.453125 19.1875 8.296875 
z
" id="DejaVuSans-50"/>
      </defs>
      <g transform="translate(253.328286 395.242561)scale(0.12 -0.12)">
       <use xlink:href="#DejaVuSans-50"/>
       <use x="63.623047" xlink:href="#DejaVuSans-48"/>
      </g>
     </g>
    </g>
    <g id="xtick_3">
     <g id="line2d_5">
      <path clip-path="url(#pa2d883da36)" d="M 451.615071 379.124436 
L 451.615071 33.247636 
" style="fill:none;stroke:#808080;stroke-dasharray:0.3,0.495;stroke-dashoffset:0;stroke-width:0.3;"/>
     </g>
     <g id="line2d_6">
      <g>
       <use style="stroke:#000000;stroke-width:0.8;" x="451.615071" xlink:href="#mf3cf47f6f2" y="379.124436"/>
      </g>
     </g>
     <g id="text_3">
      <!-- 40 -->
      <defs>
       <path d="M 37.796875 64.3125 
L 12.890625 25.390625 
L 37.796875 25.390625 
z
M 35.203125 72.90625 
L 47.609375 72.90625 
L 47.609375 25.390625 
L 58.015625 25.390625 
L 58.015625 17.1875 
L 47.609375 17.1875 
L 47.609375 0 
L 37.796875 0 
L 37.796875 17.1875 
L 4.890625 17.1875 
L 4.890625 26.703125 
z
" id="DejaVuSans-52"/>
      </defs>
      <g transform="translate(443.980071 395.242561)scale(0.12 -0.12)">
       <use xlink:href="#DejaVuSans-52"/>
       <use x="63.623047" xlink:href="#DejaVuSans-48"/>
      </g>
     </g>
    </g>
    <g id="xtick_4">
     <g id="line2d_7">
      <path clip-path="url(#pa2d883da36)" d="M 642.266857 379.124436 
L 642.266857 33.247636 
" style="fill:none;stroke:#808080;stroke-dasharray:0.3,0.495;stroke-dashoffset:0;stroke-width:0.3;"/>
     </g>
     <g id="line2d_8">
      <g>
       <use style="stroke:#000000;stroke-width:0.8;" x="642.266857" xlink:href="#mf3cf47f6f2" y="379.124436"/>
      </g>
     </g>
     <g id="text_4">
      <!-- 60 -->
      <defs>
       <path d="M 33.015625 40.375 
Q 26.375 40.375 22.484375 35.828125 
Q 18.609375 31.296875 18.609375 23.390625 
Q 18.609375 15.53125 22.484375 10.953125 
Q 26.375 6.390625 33.015625 6.390625 
Q 39.65625 6.390625 43.53125 10.953125 
Q 47.40625 15.53125 47.40625 23.390625 
Q 47.40625 31.296875 43.53125 35.828125 
Q 39.65625 40.375 33.015625 40.375 
z
M 52.59375 71.296875 
L 52.59375 62.3125 
Q 48.875 64.0625 45.09375 64.984375 
Q 41.3125 65.921875 37.59375 65.921875 
Q 27.828125 65.921875 22.671875 59.328125 
Q 17.53125 52.734375 16.796875 39.40625 
Q 19.671875 43.65625 24.015625 45.921875 
Q 28.375 48.1875 33.59375 48.1875 
Q 44.578125 48.1875 50.953125 41.515625 
Q 57.328125 34.859375 57.328125 23.390625 
Q 57.328125 12.15625 50.6875 5.359375 
Q 44.046875 -1.421875 33.015625 -1.421875 
Q 20.359375 -1.421875 13.671875 8.265625 
Q 6.984375 17.96875 6.984375 36.375 
Q 6.984375 53.65625 15.1875 63.9375 
Q 23.390625 74.21875 37.203125 74.21875 
Q 40.921875 74.21875 44.703125 73.484375 
Q 48.484375 72.75 52.59375 71.296875 
z
" id="DejaVuSans-54"/>
      </defs>
      <g transform="translate(634.631857 395.242561)scale(0.12 -0.12)">
       <use xlink:href="#DejaVuSans-54"/>
       <use x="63.623047" xlink:href="#DejaVuSans-48"/>
      </g>
     </g>
    </g>
    <g id="xtick_5">
     <g id="line2d_9">
      <path clip-path="url(#pa2d883da36)" d="M 832.918643 379.124436 
L 832.918643 33.247636 
" style="fill:none;stroke:#808080;stroke-dasharray:0.3,0.495;stroke-dashoffset:0;stroke-width:0.3;"/>
     </g>
     <g id="line2d_10">
      <g>
       <use style="stroke:#000000;stroke-width:0.8;" x="832.918643" xlink:href="#mf3cf47f6f2" y="379.124436"/>
      </g>
     </g>
     <g id="text_5">
      <!-- 80 -->
      <defs>
       <path d="M 31.78125 34.625 
Q 24.75 34.625 20.71875 30.859375 
Q 16.703125 27.09375 16.703125 20.515625 
Q 16.703125 13.921875 20.71875 10.15625 
Q 24.75 6.390625 31.78125 6.390625 
Q 38.8125 6.390625 42.859375 10.171875 
Q 46.921875 13.96875 46.921875 20.515625 
Q 46.921875 27.09375 42.890625 30.859375 
Q 38.875 34.625 31.78125 34.625 
z
M 21.921875 38.8125 
Q 15.578125 40.375 12.03125 44.71875 
Q 8.5 49.078125 8.5 55.328125 
Q 8.5 64.0625 14.71875 69.140625 
Q 20.953125 74.21875 31.78125 74.21875 
Q 42.671875 74.21875 48.875 69.140625 
Q 55.078125 64.0625 55.078125 55.328125 
Q 55.078125 49.078125 51.53125 44.71875 
Q 48 40.375 41.703125 38.8125 
Q 48.828125 37.15625 52.796875 32.3125 
Q 56.78125 27.484375 56.78125 20.515625 
Q 56.78125 9.90625 50.3125 4.234375 
Q 43.84375 -1.421875 31.78125 -1.421875 
Q 19.734375 -1.421875 13.25 4.234375 
Q 6.78125 9.90625 6.78125 20.515625 
Q 6.78125 27.484375 10.78125 32.3125 
Q 14.796875 37.15625 21.921875 38.8125 
z
M 18.3125 54.390625 
Q 18.3125 48.734375 21.84375 45.5625 
Q 25.390625 42.390625 31.78125 42.390625 
Q 38.140625 42.390625 41.71875 45.5625 
Q 45.3125 48.734375 45.3125 54.390625 
Q 45.3125 60.0625 41.71875 63.234375 
Q 38.140625 66.40625 31.78125 66.40625 
Q 25.390625 66.40625 21.84375 63.234375 
Q 18.3125 60.0625 18.3125 54.390625 
z
" id="DejaVuSans-56"/>
      </defs>
      <g transform="translate(825.283643 395.242561)scale(0.12 -0.12)">
       <use xlink:href="#DejaVuSans-56"/>
       <use x="63.623047" xlink:href="#DejaVuSans-48"/>
      </g>
     </g>
    </g>
    <g id="xtick_6">
     <g id="line2d_11">
      <path clip-path="url(#pa2d883da36)" d="M 1023.570429 379.124436 
L 1023.570429 33.247636 
" style="fill:none;stroke:#808080;stroke-dasharray:0.3,0.495;stroke-dashoffset:0;stroke-width:0.3;"/>
     </g>
     <g id="line2d_12">
      <g>
       <use style="stroke:#000000;stroke-width:0.8;" x="1023.570429" xlink:href="#mf3cf47f6f2" y="379.124436"/>
      </g>
     </g>
     <g id="text_6">
      <!-- 100 -->
      <defs>
       <path d="M 12.40625 8.296875 
L 28.515625 8.296875 
L 28.515625 63.921875 
L 10.984375 60.40625 
L 10.984375 69.390625 
L 28.421875 72.90625 
L 38.28125 72.90625 
L 38.28125 8.296875 
L 54.390625 8.296875 
L 54.390625 0 
L 12.40625 0 
z
" id="DejaVuSans-49"/>
      </defs>
      <g transform="translate(1012.117929 395.242561)scale(0.12 -0.12)">
       <use xlink:href="#DejaVuSans-49"/>
       <use x="63.623047" xlink:href="#DejaVuSans-48"/>
       <use x="127.246094" xlink:href="#DejaVuSans-48"/>
      </g>
     </g>
    </g>
    <g id="text_7">
     <!-- Time (in hours) -->
     <defs>
      <path d="M -0.296875 72.90625 
L 61.375 72.90625 
L 61.375 64.59375 
L 35.5 64.59375 
L 35.5 0 
L 25.59375 0 
L 25.59375 64.59375 
L -0.296875 64.59375 
z
" id="DejaVuSans-84"/>
      <path d="M 9.421875 54.6875 
L 18.40625 54.6875 
L 18.40625 0 
L 9.421875 0 
z
M 9.421875 75.984375 
L 18.40625 75.984375 
L 18.40625 64.59375 
L 9.421875 64.59375 
z
" id="DejaVuSans-105"/>
      <path d="M 52 44.1875 
Q 55.375 50.25 60.0625 53.125 
Q 64.75 56 71.09375 56 
Q 79.640625 56 84.28125 50.015625 
Q 88.921875 44.046875 88.921875 33.015625 
L 88.921875 0 
L 79.890625 0 
L 79.890625 32.71875 
Q 79.890625 40.578125 77.09375 44.375 
Q 74.3125 48.1875 68.609375 48.1875 
Q 61.625 48.1875 57.5625 43.546875 
Q 53.515625 38.921875 53.515625 30.90625 
L 53.515625 0 
L 44.484375 0 
L 44.484375 32.71875 
Q 44.484375 40.625 41.703125 44.40625 
Q 38.921875 48.1875 33.109375 48.1875 
Q 26.21875 48.1875 22.15625 43.53125 
Q 18.109375 38.875 18.109375 30.90625 
L 18.109375 0 
L 9.078125 0 
L 9.078125 54.6875 
L 18.109375 54.6875 
L 18.109375 46.1875 
Q 21.1875 51.21875 25.484375 53.609375 
Q 29.78125 56 35.6875 56 
Q 41.65625 56 45.828125 52.96875 
Q 50 49.953125 52 44.1875 
z
" id="DejaVuSans-109"/>
      <path d="M 56.203125 29.59375 
L 56.203125 25.203125 
L 14.890625 25.203125 
Q 15.484375 15.921875 20.484375 11.0625 
Q 25.484375 6.203125 34.421875 6.203125 
Q 39.59375 6.203125 44.453125 7.46875 
Q 49.3125 8.734375 54.109375 11.28125 
L 54.109375 2.78125 
Q 49.265625 0.734375 44.1875 -0.34375 
Q 39.109375 -1.421875 33.890625 -1.421875 
Q 20.796875 -1.421875 13.15625 6.1875 
Q 5.515625 13.8125 5.515625 26.8125 
Q 5.515625 40.234375 12.765625 48.109375 
Q 20.015625 56 32.328125 56 
Q 43.359375 56 49.78125 48.890625 
Q 56.203125 41.796875 56.203125 29.59375 
z
M 47.21875 32.234375 
Q 47.125 39.59375 43.09375 43.984375 
Q 39.0625 48.390625 32.421875 48.390625 
Q 24.90625 48.390625 20.390625 44.140625 
Q 15.875 39.890625 15.1875 32.171875 
z
" id="DejaVuSans-101"/>
      <path id="DejaVuSans-32"/>
      <path d="M 31 75.875 
Q 24.46875 64.65625 21.28125 53.65625 
Q 18.109375 42.671875 18.109375 31.390625 
Q 18.109375 20.125 21.3125 9.0625 
Q 24.515625 -2 31 -13.1875 
L 23.1875 -13.1875 
Q 15.875 -1.703125 12.234375 9.375 
Q 8.59375 20.453125 8.59375 31.390625 
Q 8.59375 42.28125 12.203125 53.3125 
Q 15.828125 64.359375 23.1875 75.875 
z
" id="DejaVuSans-40"/>
      <path d="M 54.890625 33.015625 
L 54.890625 0 
L 45.90625 0 
L 45.90625 32.71875 
Q 45.90625 40.484375 42.875 44.328125 
Q 39.84375 48.1875 33.796875 48.1875 
Q 26.515625 48.1875 22.3125 43.546875 
Q 18.109375 38.921875 18.109375 30.90625 
L 18.109375 0 
L 9.078125 0 
L 9.078125 54.6875 
L 18.109375 54.6875 
L 18.109375 46.1875 
Q 21.34375 51.125 25.703125 53.5625 
Q 30.078125 56 35.796875 56 
Q 45.21875 56 50.046875 50.171875 
Q 54.890625 44.34375 54.890625 33.015625 
z
" id="DejaVuSans-110"/>
      <path d="M 54.890625 33.015625 
L 54.890625 0 
L 45.90625 0 
L 45.90625 32.71875 
Q 45.90625 40.484375 42.875 44.328125 
Q 39.84375 48.1875 33.796875 48.1875 
Q 26.515625 48.1875 22.3125 43.546875 
Q 18.109375 38.921875 18.109375 30.90625 
L 18.109375 0 
L 9.078125 0 
L 9.078125 75.984375 
L 18.109375 75.984375 
L 18.109375 46.1875 
Q 21.34375 51.125 25.703125 53.5625 
Q 30.078125 56 35.796875 56 
Q 45.21875 56 50.046875 50.171875 
Q 54.890625 44.34375 54.890625 33.015625 
z
" id="DejaVuSans-104"/>
      <path d="M 30.609375 48.390625 
Q 23.390625 48.390625 19.1875 42.75 
Q 14.984375 37.109375 14.984375 27.296875 
Q 14.984375 17.484375 19.15625 11.84375 
Q 23.34375 6.203125 30.609375 6.203125 
Q 37.796875 6.203125 41.984375 11.859375 
Q 46.1875 17.53125 46.1875 27.296875 
Q 46.1875 37.015625 41.984375 42.703125 
Q 37.796875 48.390625 30.609375 48.390625 
z
M 30.609375 56 
Q 42.328125 56 49.015625 48.375 
Q 55.71875 40.765625 55.71875 27.296875 
Q 55.71875 13.875 49.015625 6.21875 
Q 42.328125 -1.421875 30.609375 -1.421875 
Q 18.84375 -1.421875 12.171875 6.21875 
Q 5.515625 13.875 5.515625 27.296875 
Q 5.515625 40.765625 12.171875 48.375 
Q 18.84375 56 30.609375 56 
z
" id="DejaVuSans-111"/>
      <path d="M 8.5 21.578125 
L 8.5 54.6875 
L 17.484375 54.6875 
L 17.484375 21.921875 
Q 17.484375 14.15625 20.5 10.265625 
Q 23.53125 6.390625 29.59375 6.390625 
Q 36.859375 6.390625 41.078125 11.03125 
Q 45.3125 15.671875 45.3125 23.6875 
L 45.3125 54.6875 
L 54.296875 54.6875 
L 54.296875 0 
L 45.3125 0 
L 45.3125 8.40625 
Q 42.046875 3.421875 37.71875 1 
Q 33.40625 -1.421875 27.6875 -1.421875 
Q 18.265625 -1.421875 13.375 4.4375 
Q 8.5 10.296875 8.5 21.578125 
z
M 31.109375 56 
z
" id="DejaVuSans-117"/>
      <path d="M 41.109375 46.296875 
Q 39.59375 47.171875 37.8125 47.578125 
Q 36.03125 48 33.890625 48 
Q 26.265625 48 22.1875 43.046875 
Q 18.109375 38.09375 18.109375 28.8125 
L 18.109375 0 
L 9.078125 0 
L 9.078125 54.6875 
L 18.109375 54.6875 
L 18.109375 46.1875 
Q 20.953125 51.171875 25.484375 53.578125 
Q 30.03125 56 36.53125 56 
Q 37.453125 56 38.578125 55.875 
Q 39.703125 55.765625 41.0625 55.515625 
z
" id="DejaVuSans-114"/>
      <path d="M 44.28125 53.078125 
L 44.28125 44.578125 
Q 40.484375 46.53125 36.375 47.5 
Q 32.28125 48.484375 27.875 48.484375 
Q 21.1875 48.484375 17.84375 46.4375 
Q 14.5 44.390625 14.5 40.28125 
Q 14.5 37.15625 16.890625 35.375 
Q 19.28125 33.59375 26.515625 31.984375 
L 29.59375 31.296875 
Q 39.15625 29.25 43.1875 25.515625 
Q 47.21875 21.78125 47.21875 15.09375 
Q 47.21875 7.46875 41.1875 3.015625 
Q 35.15625 -1.421875 24.609375 -1.421875 
Q 20.21875 -1.421875 15.453125 -0.5625 
Q 10.6875 0.296875 5.421875 2 
L 5.421875 11.28125 
Q 10.40625 8.6875 15.234375 7.390625 
Q 20.0625 6.109375 24.8125 6.109375 
Q 31.15625 6.109375 34.5625 8.28125 
Q 37.984375 10.453125 37.984375 14.40625 
Q 37.984375 18.0625 35.515625 20.015625 
Q 33.0625 21.96875 24.703125 23.78125 
L 21.578125 24.515625 
Q 13.234375 26.265625 9.515625 29.90625 
Q 5.8125 33.546875 5.8125 39.890625 
Q 5.8125 47.609375 11.28125 51.796875 
Q 16.75 56 26.8125 56 
Q 31.78125 56 36.171875 55.265625 
Q 40.578125 54.546875 44.28125 53.078125 
z
" id="DejaVuSans-115"/>
      <path d="M 8.015625 75.875 
L 15.828125 75.875 
Q 23.140625 64.359375 26.78125 53.3125 
Q 30.421875 42.28125 30.421875 31.390625 
Q 30.421875 20.453125 26.78125 9.375 
Q 23.140625 -1.703125 15.828125 -13.1875 
L 8.015625 -13.1875 
Q 14.5 -2 17.703125 9.0625 
Q 20.90625 20.125 20.90625 31.390625 
Q 20.90625 42.671875 17.703125 53.65625 
Q 14.5 64.65625 8.015625 75.875 
z
" id="DejaVuSans-41"/>
     </defs>
     <g transform="translate(549.298375 412.679936)scale(0.144 -0.144)">
      <use xlink:href="#DejaVuSans-84"/>
      <use x="61.037109" xlink:href="#DejaVuSans-105"/>
      <use x="88.820312" xlink:href="#DejaVuSans-109"/>
      <use x="186.232422" xlink:href="#DejaVuSans-101"/>
      <use x="247.755859" xlink:href="#DejaVuSans-32"/>
      <use x="279.542969" xlink:href="#DejaVuSans-40"/>
      <use x="318.556641" xlink:href="#DejaVuSans-105"/>
      <use x="346.339844" xlink:href="#DejaVuSans-110"/>
      <use x="409.71875" xlink:href="#DejaVuSans-32"/>
      <use x="441.505859" xlink:href="#DejaVuSans-104"/>
      <use x="504.884766" xlink:href="#DejaVuSans-111"/>
      <use x="566.066406" xlink:href="#DejaVuSans-117"/>
      <use x="629.445312" xlink:href="#DejaVuSans-114"/>
      <use x="670.558594" xlink:href="#DejaVuSans-115"/>
      <use x="722.658203" xlink:href="#DejaVuSans-41"/>
     </g>
    </g>
   </g>
   <g id="matplotlib.axis_2">
    <g id="ytick_1">
     <g id="line2d_13">
      <path clip-path="url(#pa2d883da36)" d="M 70.3115 379.124436 
L 1137.9615 379.124436 
" style="fill:none;stroke:#808080;stroke-dasharray:0.3,0.495;stroke-dashoffset:0;stroke-width:0.3;"/>
     </g>
     <g id="line2d_14">
      <defs>
       <path d="M 0 0 
L -3.5 0 
" id="m7303514295" style="stroke:#000000;stroke-width:0.8;"/>
      </defs>
      <g>
       <use style="stroke:#000000;stroke-width:0.8;" x="70.3115" xlink:href="#m7303514295" y="379.124436"/>
      </g>
     </g>
     <g id="text_8">
      <!-- 0 -->
      <g transform="translate(55.6765 383.683498)scale(0.12 -0.12)">
       <use xlink:href="#DejaVuSans-48"/>
      </g>
     </g>
    </g>
    <g id="ytick_2">
     <g id="line2d_15">
      <path clip-path="url(#pa2d883da36)" d="M 70.3115 335.758655 
L 1137.9615 335.758655 
" style="fill:none;stroke:#808080;stroke-dasharray:0.3,0.495;stroke-dashoffset:0;stroke-width:0.3;"/>
     </g>
     <g id="line2d_16">
      <g>
       <use style="stroke:#000000;stroke-width:0.8;" x="70.3115" xlink:href="#m7303514295" y="335.758655"/>
      </g>
     </g>
     <g id="text_9">
      <!-- 2000 -->
      <g transform="translate(32.7715 340.317717)scale(0.12 -0.12)">
       <use xlink:href="#DejaVuSans-50"/>
       <use x="63.623047" xlink:href="#DejaVuSans-48"/>
       <use x="127.246094" xlink:href="#DejaVuSans-48"/>
       <use x="190.869141" xlink:href="#DejaVuSans-48"/>
      </g>
     </g>
    </g>
    <g id="ytick_3">
     <g id="line2d_17">
      <path clip-path="url(#pa2d883da36)" d="M 70.3115 292.392873 
L 1137.9615 292.392873 
" style="fill:none;stroke:#808080;stroke-dasharray:0.3,0.495;stroke-dashoffset:0;stroke-width:0.3;"/>
     </g>
     <g id="line2d_18">
      <g>
       <use style="stroke:#000000;stroke-width:0.8;" x="70.3115" xlink:href="#m7303514295" y="292.392873"/>
      </g>
     </g>
     <g id="text_10">
      <!-- 4000 -->
      <g transform="translate(32.7715 296.951936)scale(0.12 -0.12)">
       <use xlink:href="#DejaVuSans-52"/>
       <use x="63.623047" xlink:href="#DejaVuSans-48"/>
       <use x="127.246094" xlink:href="#DejaVuSans-48"/>
       <use x="190.869141" xlink:href="#DejaVuSans-48"/>
      </g>
     </g>
    </g>
    <g id="ytick_4">
     <g id="line2d_19">
      <path clip-path="url(#pa2d883da36)" d="M 70.3115 249.027092 
L 1137.9615 249.027092 
" style="fill:none;stroke:#808080;stroke-dasharray:0.3,0.495;stroke-dashoffset:0;stroke-width:0.3;"/>
     </g>
     <g id="line2d_20">
      <g>
       <use style="stroke:#000000;stroke-width:0.8;" x="70.3115" xlink:href="#m7303514295" y="249.027092"/>
      </g>
     </g>
     <g id="text_11">
      <!-- 6000 -->
      <g transform="translate(32.7715 253.586154)scale(0.12 -0.12)">
       <use xlink:href="#DejaVuSans-54"/>
       <use x="63.623047" xlink:href="#DejaVuSans-48"/>
       <use x="127.246094" xlink:href="#DejaVuSans-48"/>
       <use x="190.869141" xlink:href="#DejaVuSans-48"/>
      </g>
     </g>
    </g>
    <g id="ytick_5">
     <g id="line2d_21">
      <path clip-path="url(#pa2d883da36)" d="M 70.3115 205.66131 
L 1137.9615 205.66131 
" style="fill:none;stroke:#808080;stroke-dasharray:0.3,0.495;stroke-dashoffset:0;stroke-width:0.3;"/>
     </g>
     <g id="line2d_22">
      <g>
       <use style="stroke:#000000;stroke-width:0.8;" x="70.3115" xlink:href="#m7303514295" y="205.66131"/>
      </g>
     </g>
     <g id="text_12">
      <!-- 8000 -->
      <g transform="translate(32.7715 210.220373)scale(0.12 -0.12)">
       <use xlink:href="#DejaVuSans-56"/>
       <use x="63.623047" xlink:href="#DejaVuSans-48"/>
       <use x="127.246094" xlink:href="#DejaVuSans-48"/>
       <use x="190.869141" xlink:href="#DejaVuSans-48"/>
      </g>
     </g>
    </g>
    <g id="ytick_6">
     <g id="line2d_23">
      <path clip-path="url(#pa2d883da36)" d="M 70.3115 162.295529 
L 1137.9615 162.295529 
" style="fill:none;stroke:#808080;stroke-dasharray:0.3,0.495;stroke-dashoffset:0;stroke-width:0.3;"/>
     </g>
     <g id="line2d_24">
      <g>
       <use style="stroke:#000000;stroke-width:0.8;" x="70.3115" xlink:href="#m7303514295" y="162.295529"/>
      </g>
     </g>
     <g id="text_13">
      <!-- 10000 -->
      <g transform="translate(25.1365 166.854591)scale(0.12 -0.12)">
       <use xlink:href="#DejaVuSans-49"/>
       <use x="63.623047" xlink:href="#DejaVuSans-48"/>
       <use x="127.246094" xlink:href="#DejaVuSans-48"/>
       <use x="190.869141" xlink:href="#DejaVuSans-48"/>
       <use x="254.492188" xlink:href="#DejaVuSans-48"/>
      </g>
     </g>
    </g>
    <g id="ytick_7">
     <g id="line2d_25">
      <path clip-path="url(#pa2d883da36)" d="M 70.3115 118.929747 
L 1137.9615 118.929747 
" style="fill:none;stroke:#808080;stroke-dasharray:0.3,0.495;stroke-dashoffset:0;stroke-width:0.3;"/>
     </g>
     <g id="line2d_26">
      <g>
       <use style="stroke:#000000;stroke-width:0.8;" x="70.3115" xlink:href="#m7303514295" y="118.929747"/>
      </g>
     </g>
     <g id="text_14">
      <!-- 12000 -->
      <g transform="translate(25.1365 123.48881)scale(0.12 -0.12)">
       <use xlink:href="#DejaVuSans-49"/>
       <use x="63.623047" xlink:href="#DejaVuSans-50"/>
       <use x="127.246094" xlink:href="#DejaVuSans-48"/>
       <use x="190.869141" xlink:href="#DejaVuSans-48"/>
       <use x="254.492188" xlink:href="#DejaVuSans-48"/>
      </g>
     </g>
    </g>
    <g id="ytick_8">
     <g id="line2d_27">
      <path clip-path="url(#pa2d883da36)" d="M 70.3115 75.563966 
L 1137.9615 75.563966 
" style="fill:none;stroke:#808080;stroke-dasharray:0.3,0.495;stroke-dashoffset:0;stroke-width:0.3;"/>
     </g>
     <g id="line2d_28">
      <g>
       <use style="stroke:#000000;stroke-width:0.8;" x="70.3115" xlink:href="#m7303514295" y="75.563966"/>
      </g>
     </g>
     <g id="text_15">
      <!-- 14000 -->
      <g transform="translate(25.1365 80.123028)scale(0.12 -0.12)">
       <use xlink:href="#DejaVuSans-49"/>
       <use x="63.623047" xlink:href="#DejaVuSans-52"/>
       <use x="127.246094" xlink:href="#DejaVuSans-48"/>
       <use x="190.869141" xlink:href="#DejaVuSans-48"/>
       <use x="254.492188" xlink:href="#DejaVuSans-48"/>
      </g>
     </g>
    </g>
    <g id="text_16">
     <!-- Energy [Wh] -->
     <defs>
      <path d="M 9.8125 72.90625 
L 55.90625 72.90625 
L 55.90625 64.59375 
L 19.671875 64.59375 
L 19.671875 43.015625 
L 54.390625 43.015625 
L 54.390625 34.71875 
L 19.671875 34.71875 
L 19.671875 8.296875 
L 56.78125 8.296875 
L 56.78125 0 
L 9.8125 0 
z
" id="DejaVuSans-69"/>
      <path d="M 45.40625 27.984375 
Q 45.40625 37.75 41.375 43.109375 
Q 37.359375 48.484375 30.078125 48.484375 
Q 22.859375 48.484375 18.828125 43.109375 
Q 14.796875 37.75 14.796875 27.984375 
Q 14.796875 18.265625 18.828125 12.890625 
Q 22.859375 7.515625 30.078125 7.515625 
Q 37.359375 7.515625 41.375 12.890625 
Q 45.40625 18.265625 45.40625 27.984375 
z
M 54.390625 6.78125 
Q 54.390625 -7.171875 48.1875 -13.984375 
Q 42 -20.796875 29.203125 -20.796875 
Q 24.46875 -20.796875 20.265625 -20.09375 
Q 16.0625 -19.390625 12.109375 -17.921875 
L 12.109375 -9.1875 
Q 16.0625 -11.328125 19.921875 -12.34375 
Q 23.78125 -13.375 27.78125 -13.375 
Q 36.625 -13.375 41.015625 -8.765625 
Q 45.40625 -4.15625 45.40625 5.171875 
L 45.40625 9.625 
Q 42.625 4.78125 38.28125 2.390625 
Q 33.9375 0 27.875 0 
Q 17.828125 0 11.671875 7.65625 
Q 5.515625 15.328125 5.515625 27.984375 
Q 5.515625 40.671875 11.671875 48.328125 
Q 17.828125 56 27.875 56 
Q 33.9375 56 38.28125 53.609375 
Q 42.625 51.21875 45.40625 46.390625 
L 45.40625 54.6875 
L 54.390625 54.6875 
z
" id="DejaVuSans-103"/>
      <path d="M 32.171875 -5.078125 
Q 28.375 -14.84375 24.75 -17.8125 
Q 21.140625 -20.796875 15.09375 -20.796875 
L 7.90625 -20.796875 
L 7.90625 -13.28125 
L 13.1875 -13.28125 
Q 16.890625 -13.28125 18.9375 -11.515625 
Q 21 -9.765625 23.484375 -3.21875 
L 25.09375 0.875 
L 2.984375 54.6875 
L 12.5 54.6875 
L 29.59375 11.921875 
L 46.6875 54.6875 
L 56.203125 54.6875 
z
" id="DejaVuSans-121"/>
      <path d="M 8.59375 75.984375 
L 29.296875 75.984375 
L 29.296875 69 
L 17.578125 69 
L 17.578125 -6.203125 
L 29.296875 -6.203125 
L 29.296875 -13.1875 
L 8.59375 -13.1875 
z
" id="DejaVuSans-91"/>
      <path d="M 3.328125 72.90625 
L 13.28125 72.90625 
L 28.609375 11.28125 
L 43.890625 72.90625 
L 54.984375 72.90625 
L 70.3125 11.28125 
L 85.59375 72.90625 
L 95.609375 72.90625 
L 77.296875 0 
L 64.890625 0 
L 49.515625 63.28125 
L 33.984375 0 
L 21.578125 0 
z
" id="DejaVuSans-87"/>
      <path d="M 30.421875 75.984375 
L 30.421875 -13.1875 
L 9.71875 -13.1875 
L 9.71875 -6.203125 
L 21.390625 -6.203125 
L 21.390625 69 
L 9.71875 69 
L 9.71875 75.984375 
z
" id="DejaVuSans-93"/>
     </defs>
     <g transform="translate(18.14175 251.108411)rotate(-90)scale(0.144 -0.144)">
      <use xlink:href="#DejaVuSans-69"/>
      <use x="63.183594" xlink:href="#DejaVuSans-110"/>
      <use x="126.5625" xlink:href="#DejaVuSans-101"/>
      <use x="188.085938" xlink:href="#DejaVuSans-114"/>
      <use x="229.183594" xlink:href="#DejaVuSans-103"/>
      <use x="292.660156" xlink:href="#DejaVuSans-121"/>
      <use x="351.839844" xlink:href="#DejaVuSans-32"/>
      <use x="383.626953" xlink:href="#DejaVuSans-91"/>
      <use x="422.640625" xlink:href="#DejaVuSans-87"/>
      <use x="521.517578" xlink:href="#DejaVuSans-104"/>
      <use x="584.896484" xlink:href="#DejaVuSans-93"/>
     </g>
    </g>
   </g>
   <g id="line2d_29">
    <path clip-path="url(#pa2d883da36)" d="M 70.3115 116.297828 
L 79.844089 116.297828 
L 89.376679 116.297828 
L 98.909268 116.297828 
L 108.441857 116.297828 
L 117.974446 116.297828 
L 127.507036 116.297828 
L 137.039625 116.297828 
L 146.572214 116.297828 
L 156.104804 116.297828 
L 165.637393 116.297828 
L 175.169982 116.297828 
L 184.702571 116.297828 
L 194.235161 116.297828 
L 203.76775 116.297828 
L 213.300339 116.297828 
L 222.832929 116.297828 
L 232.365518 116.297828 
L 241.898107 116.297828 
L 251.430696 116.297828 
L 260.963286 116.297828 
L 270.495875 116.297828 
L 280.028464 116.297828 
L 289.561054 116.297828 
L 299.093643 116.297828 
L 308.626232 116.297828 
L 318.158821 116.297828 
L 327.691411 116.297828 
L 337.224 116.297828 
L 346.756589 116.297828 
L 356.289179 116.297828 
L 365.821768 116.297828 
L 375.354357 286.476745 
L 384.886946 286.476745 
L 394.419536 286.476745 
L 403.952125 286.476745 
L 413.484714 286.476745 
L 423.017304 286.476745 
L 432.549893 286.476745 
L 442.082482 286.476745 
L 451.615071 286.476745 
L 461.147661 286.476745 
L 470.68025 286.476745 
L 480.212839 286.476745 
L 489.745429 286.476745 
L 499.278018 286.476745 
L 508.810607 286.476745 
L 518.343196 286.476745 
L 527.875786 286.476745 
L 537.408375 286.476745 
L 546.940964 286.476745 
L 556.473554 286.476745 
L 566.006143 286.476745 
L 575.538732 286.476745 
L 585.071321 286.476745 
L 594.603911 286.476745 
L 604.1365 286.476745 
L 613.669089 286.476745 
L 623.201679 286.476745 
L 632.734268 286.476745 
L 642.266857 286.476745 
L 651.799446 286.476745 
L 661.332036 286.476745 
L 670.864625 286.476745 
L 680.397214 286.476745 
L 689.929804 286.476745 
L 699.462393 286.476745 
L 708.994982 286.476745 
L 718.527571 286.476745 
L 728.060161 286.476745 
L 737.59275 286.476745 
L 747.125339 286.476745 
L 756.657929 286.476745 
L 766.190518 286.476745 
L 775.723107 286.476745 
L 785.255696 286.476745 
L 794.788286 286.476745 
L 804.320875 286.476745 
L 813.853464 286.476745 
L 823.386054 286.476745 
L 832.918643 286.476745 
L 842.451232 286.476745 
L 851.983821 286.476745 
L 861.516411 286.476745 
L 871.049 286.476745 
L 880.581589 286.476745 
L 890.114179 286.476745 
L 899.646768 286.476745 
L 909.179357 286.476745 
L 918.711946 286.476745 
L 928.244536 286.476745 
L 937.777125 286.476745 
L 947.309714 286.476745 
L 956.842304 286.476745 
L 966.374893 286.476745 
L 975.907482 286.476745 
L 985.440071 286.476745 
L 994.972661 286.476745 
L 1004.50525 286.476745 
L 1014.037839 286.476745 
L 1023.570429 286.476745 
L 1033.103018 286.476745 
L 1042.635607 286.476745 
L 1052.168196 286.476745 
L 1061.700786 286.476745 
L 1071.233375 286.476745 
L 1080.765964 286.476745 
L 1090.298554 286.476745 
L 1099.831143 286.476745 
L 1109.363732 286.476745 
L 1118.896321 286.476745 
L 1128.428911 286.476745 
" style="fill:none;stroke:#e24a33;stroke-linecap:square;stroke-opacity:0.95;stroke-width:4;"/>
   </g>
   <g id="line2d_30">
    <path clip-path="url(#pa2d883da36)" d="M 375.354357 379.124436 
L 375.354357 33.247636 
" style="fill:none;stroke:#000000;stroke-dasharray:4,6.6;stroke-dashoffset:0;stroke-width:4;"/>
   </g>
   <g id="patch_115">
    <path d="M 70.3115 379.124436 
L 70.3115 33.247636 
" style="fill:none;stroke:#000000;stroke-linecap:square;stroke-linejoin:miter;stroke-width:0.8;"/>
   </g>
   <g id="patch_116">
    <path d="M 1137.9615 379.124436 
L 1137.9615 33.247636 
" style="fill:none;stroke:#000000;stroke-linecap:square;stroke-linejoin:miter;stroke-width:0.8;"/>
   </g>
   <g id="patch_117">
    <path d="M 70.3115 379.124436 
L 1137.9615 379.124436 
" style="fill:none;stroke:#000000;stroke-linecap:square;stroke-linejoin:miter;stroke-width:0.8;"/>
   </g>
   <g id="patch_118">
    <path d="M 70.3115 33.247636 
L 1137.9615 33.247636 
" style="fill:none;stroke:#000000;stroke-linecap:square;stroke-linejoin:miter;stroke-width:0.8;"/>
   </g>
   <g id="text_17">
    <!-- 18-Mar-2020, 08:00 -->
    <defs>
     <path d="M 4.890625 31.390625 
L 31.203125 31.390625 
L 31.203125 23.390625 
L 4.890625 23.390625 
z
" id="DejaVuSans-45"/>
     <path d="M 9.8125 72.90625 
L 24.515625 72.90625 
L 43.109375 23.296875 
L 61.8125 72.90625 
L 76.515625 72.90625 
L 76.515625 0 
L 66.890625 0 
L 66.890625 64.015625 
L 48.09375 14.015625 
L 38.1875 14.015625 
L 19.390625 64.015625 
L 19.390625 0 
L 9.8125 0 
z
" id="DejaVuSans-77"/>
     <path d="M 34.28125 27.484375 
Q 23.390625 27.484375 19.1875 25 
Q 14.984375 22.515625 14.984375 16.5 
Q 14.984375 11.71875 18.140625 8.90625 
Q 21.296875 6.109375 26.703125 6.109375 
Q 34.1875 6.109375 38.703125 11.40625 
Q 43.21875 16.703125 43.21875 25.484375 
L 43.21875 27.484375 
z
M 52.203125 31.203125 
L 52.203125 0 
L 43.21875 0 
L 43.21875 8.296875 
Q 40.140625 3.328125 35.546875 0.953125 
Q 30.953125 -1.421875 24.3125 -1.421875 
Q 15.921875 -1.421875 10.953125 3.296875 
Q 6 8.015625 6 15.921875 
Q 6 25.140625 12.171875 29.828125 
Q 18.359375 34.515625 30.609375 34.515625 
L 43.21875 34.515625 
L 43.21875 35.40625 
Q 43.21875 41.609375 39.140625 45 
Q 35.0625 48.390625 27.6875 48.390625 
Q 23 48.390625 18.546875 47.265625 
Q 14.109375 46.140625 10.015625 43.890625 
L 10.015625 52.203125 
Q 14.9375 54.109375 19.578125 55.046875 
Q 24.21875 56 28.609375 56 
Q 40.484375 56 46.34375 49.84375 
Q 52.203125 43.703125 52.203125 31.203125 
z
" id="DejaVuSans-97"/>
     <path d="M 11.71875 12.40625 
L 22.015625 12.40625 
L 22.015625 4 
L 14.015625 -11.625 
L 7.71875 -11.625 
L 11.71875 4 
z
" id="DejaVuSans-44"/>
     <path d="M 11.71875 12.40625 
L 22.015625 12.40625 
L 22.015625 0 
L 11.71875 0 
z
M 11.71875 51.703125 
L 22.015625 51.703125 
L 22.015625 39.3125 
L 11.71875 39.3125 
z
" id="DejaVuSans-58"/>
    </defs>
    <g transform="translate(384.886946 108.088302)scale(0.16 -0.16)">
     <use xlink:href="#DejaVuSans-49"/>
     <use x="63.623047" xlink:href="#DejaVuSans-56"/>
     <use x="127.246094" xlink:href="#DejaVuSans-45"/>
     <use x="163.330078" xlink:href="#DejaVuSans-77"/>
     <use x="249.609375" xlink:href="#DejaVuSans-97"/>
     <use x="310.888672" xlink:href="#DejaVuSans-114"/>
     <use x="351.908203" xlink:href="#DejaVuSans-45"/>
     <use x="387.992188" xlink:href="#DejaVuSans-50"/>
     <use x="451.615234" xlink:href="#DejaVuSans-48"/>
     <use x="515.238281" xlink:href="#DejaVuSans-50"/>
     <use x="578.861328" xlink:href="#DejaVuSans-48"/>
     <use x="642.484375" xlink:href="#DejaVuSans-44"/>
     <use x="674.271484" xlink:href="#DejaVuSans-32"/>
     <use x="706.058594" xlink:href="#DejaVuSans-48"/>
     <use x="769.681641" xlink:href="#DejaVuSans-56"/>
     <use x="833.304688" xlink:href="#DejaVuSans-58"/>
     <use x="866.996094" xlink:href="#DejaVuSans-48"/>
     <use x="930.619141" xlink:href="#DejaVuSans-48"/>
    </g>
   </g>
   <g id="text_18">
    <!-- Expected energy consumption (Incoming 1F, KFC Kelana Jaya) -->
    <defs>
     <path d="M 54.890625 54.6875 
L 35.109375 28.078125 
L 55.90625 0 
L 45.3125 0 
L 29.390625 21.484375 
L 13.484375 0 
L 2.875 0 
L 24.125 28.609375 
L 4.6875 54.6875 
L 15.28125 54.6875 
L 29.78125 35.203125 
L 44.28125 54.6875 
z
" id="DejaVuSans-120"/>
     <path d="M 18.109375 8.203125 
L 18.109375 -20.796875 
L 9.078125 -20.796875 
L 9.078125 54.6875 
L 18.109375 54.6875 
L 18.109375 46.390625 
Q 20.953125 51.265625 25.265625 53.625 
Q 29.59375 56 35.59375 56 
Q 45.5625 56 51.78125 48.09375 
Q 58.015625 40.1875 58.015625 27.296875 
Q 58.015625 14.40625 51.78125 6.484375 
Q 45.5625 -1.421875 35.59375 -1.421875 
Q 29.59375 -1.421875 25.265625 0.953125 
Q 20.953125 3.328125 18.109375 8.203125 
z
M 48.6875 27.296875 
Q 48.6875 37.203125 44.609375 42.84375 
Q 40.53125 48.484375 33.40625 48.484375 
Q 26.265625 48.484375 22.1875 42.84375 
Q 18.109375 37.203125 18.109375 27.296875 
Q 18.109375 17.390625 22.1875 11.75 
Q 26.265625 6.109375 33.40625 6.109375 
Q 40.53125 6.109375 44.609375 11.75 
Q 48.6875 17.390625 48.6875 27.296875 
z
" id="DejaVuSans-112"/>
     <path d="M 48.78125 52.59375 
L 48.78125 44.1875 
Q 44.96875 46.296875 41.140625 47.34375 
Q 37.3125 48.390625 33.40625 48.390625 
Q 24.65625 48.390625 19.8125 42.84375 
Q 14.984375 37.3125 14.984375 27.296875 
Q 14.984375 17.28125 19.8125 11.734375 
Q 24.65625 6.203125 33.40625 6.203125 
Q 37.3125 6.203125 41.140625 7.25 
Q 44.96875 8.296875 48.78125 10.40625 
L 48.78125 2.09375 
Q 45.015625 0.34375 40.984375 -0.53125 
Q 36.96875 -1.421875 32.421875 -1.421875 
Q 20.0625 -1.421875 12.78125 6.34375 
Q 5.515625 14.109375 5.515625 27.296875 
Q 5.515625 40.671875 12.859375 48.328125 
Q 20.21875 56 33.015625 56 
Q 37.15625 56 41.109375 55.140625 
Q 45.0625 54.296875 48.78125 52.59375 
z
" id="DejaVuSans-99"/>
     <path d="M 18.3125 70.21875 
L 18.3125 54.6875 
L 36.8125 54.6875 
L 36.8125 47.703125 
L 18.3125 47.703125 
L 18.3125 18.015625 
Q 18.3125 11.328125 20.140625 9.421875 
Q 21.96875 7.515625 27.59375 7.515625 
L 36.8125 7.515625 
L 36.8125 0 
L 27.59375 0 
Q 17.1875 0 13.234375 3.875 
Q 9.28125 7.765625 9.28125 18.015625 
L 9.28125 47.703125 
L 2.6875 47.703125 
L 2.6875 54.6875 
L 9.28125 54.6875 
L 9.28125 70.21875 
z
" id="DejaVuSans-116"/>
     <path d="M 45.40625 46.390625 
L 45.40625 75.984375 
L 54.390625 75.984375 
L 54.390625 0 
L 45.40625 0 
L 45.40625 8.203125 
Q 42.578125 3.328125 38.25 0.953125 
Q 33.9375 -1.421875 27.875 -1.421875 
Q 17.96875 -1.421875 11.734375 6.484375 
Q 5.515625 14.40625 5.515625 27.296875 
Q 5.515625 40.1875 11.734375 48.09375 
Q 17.96875 56 27.875 56 
Q 33.9375 56 38.25 53.625 
Q 42.578125 51.265625 45.40625 46.390625 
z
M 14.796875 27.296875 
Q 14.796875 17.390625 18.875 11.75 
Q 22.953125 6.109375 30.078125 6.109375 
Q 37.203125 6.109375 41.296875 11.75 
Q 45.40625 17.390625 45.40625 27.296875 
Q 45.40625 37.203125 41.296875 42.84375 
Q 37.203125 48.484375 30.078125 48.484375 
Q 22.953125 48.484375 18.875 42.84375 
Q 14.796875 37.203125 14.796875 27.296875 
z
" id="DejaVuSans-100"/>
     <path d="M 9.8125 72.90625 
L 19.671875 72.90625 
L 19.671875 0 
L 9.8125 0 
z
" id="DejaVuSans-73"/>
     <path d="M 9.8125 72.90625 
L 51.703125 72.90625 
L 51.703125 64.59375 
L 19.671875 64.59375 
L 19.671875 43.109375 
L 48.578125 43.109375 
L 48.578125 34.8125 
L 19.671875 34.8125 
L 19.671875 0 
L 9.8125 0 
z
" id="DejaVuSans-70"/>
     <path d="M 9.8125 72.90625 
L 19.671875 72.90625 
L 19.671875 42.09375 
L 52.390625 72.90625 
L 65.09375 72.90625 
L 28.90625 38.921875 
L 67.671875 0 
L 54.6875 0 
L 19.671875 35.109375 
L 19.671875 0 
L 9.8125 0 
z
" id="DejaVuSans-75"/>
     <path d="M 64.40625 67.28125 
L 64.40625 56.890625 
Q 59.421875 61.53125 53.78125 63.8125 
Q 48.140625 66.109375 41.796875 66.109375 
Q 29.296875 66.109375 22.65625 58.46875 
Q 16.015625 50.828125 16.015625 36.375 
Q 16.015625 21.96875 22.65625 14.328125 
Q 29.296875 6.6875 41.796875 6.6875 
Q 48.140625 6.6875 53.78125 8.984375 
Q 59.421875 11.28125 64.40625 15.921875 
L 64.40625 5.609375 
Q 59.234375 2.09375 53.4375 0.328125 
Q 47.65625 -1.421875 41.21875 -1.421875 
Q 24.65625 -1.421875 15.125 8.703125 
Q 5.609375 18.84375 5.609375 36.375 
Q 5.609375 53.953125 15.125 64.078125 
Q 24.65625 74.21875 41.21875 74.21875 
Q 47.75 74.21875 53.53125 72.484375 
Q 59.328125 70.75 64.40625 67.28125 
z
" id="DejaVuSans-67"/>
     <path d="M 9.421875 75.984375 
L 18.40625 75.984375 
L 18.40625 0 
L 9.421875 0 
z
" id="DejaVuSans-108"/>
     <path d="M 9.8125 72.90625 
L 19.671875 72.90625 
L 19.671875 5.078125 
Q 19.671875 -8.109375 14.671875 -14.0625 
Q 9.671875 -20.015625 -1.421875 -20.015625 
L -5.171875 -20.015625 
L -5.171875 -11.71875 
L -2.09375 -11.71875 
Q 4.4375 -11.71875 7.125 -8.046875 
Q 9.8125 -4.390625 9.8125 5.078125 
z
" id="DejaVuSans-74"/>
    </defs>
    <g transform="translate(334.2499 20.3301)scale(0.1728 -0.1728)">
     <use xlink:href="#DejaVuSans-69"/>
     <use x="63.183594" xlink:href="#DejaVuSans-120"/>
     <use x="122.363281" xlink:href="#DejaVuSans-112"/>
     <use x="185.839844" xlink:href="#DejaVuSans-101"/>
     <use x="247.363281" xlink:href="#DejaVuSans-99"/>
     <use x="302.34375" xlink:href="#DejaVuSans-116"/>
     <use x="341.552734" xlink:href="#DejaVuSans-101"/>
     <use x="403.076172" xlink:href="#DejaVuSans-100"/>
     <use x="466.552734" xlink:href="#DejaVuSans-32"/>
     <use x="498.339844" xlink:href="#DejaVuSans-101"/>
     <use x="559.863281" xlink:href="#DejaVuSans-110"/>
     <use x="623.242188" xlink:href="#DejaVuSans-101"/>
     <use x="684.765625" xlink:href="#DejaVuSans-114"/>
     <use x="725.863281" xlink:href="#DejaVuSans-103"/>
     <use x="789.339844" xlink:href="#DejaVuSans-121"/>
     <use x="848.519531" xlink:href="#DejaVuSans-32"/>
     <use x="880.306641" xlink:href="#DejaVuSans-99"/>
     <use x="935.287109" xlink:href="#DejaVuSans-111"/>
     <use x="996.46875" xlink:href="#DejaVuSans-110"/>
     <use x="1059.847656" xlink:href="#DejaVuSans-115"/>
     <use x="1111.947266" xlink:href="#DejaVuSans-117"/>
     <use x="1175.326172" xlink:href="#DejaVuSans-109"/>
     <use x="1272.738281" xlink:href="#DejaVuSans-112"/>
     <use x="1336.214844" xlink:href="#DejaVuSans-116"/>
     <use x="1375.423828" xlink:href="#DejaVuSans-105"/>
     <use x="1403.207031" xlink:href="#DejaVuSans-111"/>
     <use x="1464.388672" xlink:href="#DejaVuSans-110"/>
     <use x="1527.767578" xlink:href="#DejaVuSans-32"/>
     <use x="1559.554688" xlink:href="#DejaVuSans-40"/>
     <use x="1598.568359" xlink:href="#DejaVuSans-73"/>
     <use x="1628.060547" xlink:href="#DejaVuSans-110"/>
     <use x="1691.439453" xlink:href="#DejaVuSans-99"/>
     <use x="1746.419922" xlink:href="#DejaVuSans-111"/>
     <use x="1807.601562" xlink:href="#DejaVuSans-109"/>
     <use x="1905.013672" xlink:href="#DejaVuSans-105"/>
     <use x="1932.796875" xlink:href="#DejaVuSans-110"/>
     <use x="1996.175781" xlink:href="#DejaVuSans-103"/>
     <use x="2059.652344" xlink:href="#DejaVuSans-32"/>
     <use x="2091.439453" xlink:href="#DejaVuSans-49"/>
     <use x="2155.0625" xlink:href="#DejaVuSans-70"/>
     <use x="2212.582031" xlink:href="#DejaVuSans-44"/>
     <use x="2244.369141" xlink:href="#DejaVuSans-32"/>
     <use x="2276.15625" xlink:href="#DejaVuSans-75"/>
     <use x="2341.732422" xlink:href="#DejaVuSans-70"/>
     <use x="2399.251953" xlink:href="#DejaVuSans-67"/>
     <use x="2469.076172" xlink:href="#DejaVuSans-32"/>
     <use x="2500.863281" xlink:href="#DejaVuSans-75"/>
     <use x="2566.361328" xlink:href="#DejaVuSans-101"/>
     <use x="2627.884766" xlink:href="#DejaVuSans-108"/>
     <use x="2655.667969" xlink:href="#DejaVuSans-97"/>
     <use x="2716.947266" xlink:href="#DejaVuSans-110"/>
     <use x="2780.326172" xlink:href="#DejaVuSans-97"/>
     <use x="2841.605469" xlink:href="#DejaVuSans-32"/>
     <use x="2873.392578" xlink:href="#DejaVuSans-74"/>
     <use x="2902.884766" xlink:href="#DejaVuSans-97"/>
     <use x="2964.164062" xlink:href="#DejaVuSans-121"/>
     <use x="3023.34375" xlink:href="#DejaVuSans-97"/>
     <use x="3084.623047" xlink:href="#DejaVuSans-41"/>
    </g>
   </g>
   <g id="legend_1">
    <g id="patch_119">
     <path d="M 953.86275 113.302636 
L 1129.5615 113.302636 
Q 1131.9615 113.302636 1131.9615 110.902636 
L 1131.9615 41.647636 
Q 1131.9615 39.247636 1129.5615 39.247636 
L 953.86275 39.247636 
Q 951.46275 39.247636 951.46275 41.647636 
L 951.46275 110.902636 
Q 951.46275 113.302636 953.86275 113.302636 
z
" style="fill:#ffffff;opacity:0.8;stroke:#cccccc;stroke-linejoin:miter;"/>
    </g>
    <g id="line2d_31">
     <path d="M 956.26275 48.965761 
L 980.26275 48.965761 
" style="fill:none;stroke:#e24a33;stroke-linecap:square;stroke-opacity:0.95;stroke-width:4;"/>
    </g>
    <g id="line2d_32"/>
    <g id="text_19">
     <!-- expected consumption -->
     <g transform="translate(989.86275 53.165761)scale(0.12 -0.12)">
      <use xlink:href="#DejaVuSans-101"/>
      <use x="61.507812" xlink:href="#DejaVuSans-120"/>
      <use x="120.6875" xlink:href="#DejaVuSans-112"/>
      <use x="184.164062" xlink:href="#DejaVuSans-101"/>
      <use x="245.6875" xlink:href="#DejaVuSans-99"/>
      <use x="300.667969" xlink:href="#DejaVuSans-116"/>
      <use x="339.876953" xlink:href="#DejaVuSans-101"/>
      <use x="401.400391" xlink:href="#DejaVuSans-100"/>
      <use x="464.876953" xlink:href="#DejaVuSans-32"/>
      <use x="496.664062" xlink:href="#DejaVuSans-99"/>
      <use x="551.644531" xlink:href="#DejaVuSans-111"/>
      <use x="612.826172" xlink:href="#DejaVuSans-110"/>
      <use x="676.205078" xlink:href="#DejaVuSans-115"/>
      <use x="728.304688" xlink:href="#DejaVuSans-117"/>
      <use x="791.683594" xlink:href="#DejaVuSans-109"/>
      <use x="889.095703" xlink:href="#DejaVuSans-112"/>
      <use x="952.572266" xlink:href="#DejaVuSans-116"/>
      <use x="991.78125" xlink:href="#DejaVuSans-105"/>
      <use x="1019.564453" xlink:href="#DejaVuSans-111"/>
      <use x="1080.746094" xlink:href="#DejaVuSans-110"/>
     </g>
    </g>
    <g id="line2d_33">
     <path d="M 956.26275 66.579511 
L 980.26275 66.579511 
" style="fill:none;stroke:#000000;stroke-dasharray:4,6.6;stroke-dashoffset:0;stroke-width:4;"/>
    </g>
    <g id="line2d_34"/>
    <g id="text_20">
     <!-- Time of change -->
     <defs>
      <path d="M 37.109375 75.984375 
L 37.109375 68.5 
L 28.515625 68.5 
Q 23.6875 68.5 21.796875 66.546875 
Q 19.921875 64.59375 19.921875 59.515625 
L 19.921875 54.6875 
L 34.71875 54.6875 
L 34.71875 47.703125 
L 19.921875 47.703125 
L 19.921875 0 
L 10.890625 0 
L 10.890625 47.703125 
L 2.296875 47.703125 
L 2.296875 54.6875 
L 10.890625 54.6875 
L 10.890625 58.5 
Q 10.890625 67.625 15.140625 71.796875 
Q 19.390625 75.984375 28.609375 75.984375 
z
" id="DejaVuSans-102"/>
     </defs>
     <g transform="translate(989.86275 70.779511)scale(0.12 -0.12)">
      <use xlink:href="#DejaVuSans-84"/>
      <use x="61.037109" xlink:href="#DejaVuSans-105"/>
      <use x="88.820312" xlink:href="#DejaVuSans-109"/>
      <use x="186.232422" xlink:href="#DejaVuSans-101"/>
      <use x="247.755859" xlink:href="#DejaVuSans-32"/>
      <use x="279.542969" xlink:href="#DejaVuSans-111"/>
      <use x="340.724609" xlink:href="#DejaVuSans-102"/>
      <use x="375.929688" xlink:href="#DejaVuSans-32"/>
      <use x="407.716797" xlink:href="#DejaVuSans-99"/>
      <use x="462.697266" xlink:href="#DejaVuSans-104"/>
      <use x="526.076172" xlink:href="#DejaVuSans-97"/>
      <use x="587.355469" xlink:href="#DejaVuSans-110"/>
      <use x="650.734375" xlink:href="#DejaVuSans-103"/>
      <use x="714.210938" xlink:href="#DejaVuSans-101"/>
     </g>
    </g>
    <g id="patch_120">
     <path d="M 956.26275 88.393261 
L 980.26275 88.393261 
L 980.26275 79.993261 
L 956.26275 79.993261 
z
" style="fill:#ffa500;opacity:0.25;stroke:#ffa500;stroke-linejoin:miter;"/>
    </g>
    <g id="text_21">
     <!-- 90% Credible Interval -->
     <defs>
      <path d="M 10.984375 1.515625 
L 10.984375 10.5 
Q 14.703125 8.734375 18.5 7.8125 
Q 22.3125 6.890625 25.984375 6.890625 
Q 35.75 6.890625 40.890625 13.453125 
Q 46.046875 20.015625 46.78125 33.40625 
Q 43.953125 29.203125 39.59375 26.953125 
Q 35.25 24.703125 29.984375 24.703125 
Q 19.046875 24.703125 12.671875 31.3125 
Q 6.296875 37.9375 6.296875 49.421875 
Q 6.296875 60.640625 12.9375 67.421875 
Q 19.578125 74.21875 30.609375 74.21875 
Q 43.265625 74.21875 49.921875 64.515625 
Q 56.59375 54.828125 56.59375 36.375 
Q 56.59375 19.140625 48.40625 8.859375 
Q 40.234375 -1.421875 26.421875 -1.421875 
Q 22.703125 -1.421875 18.890625 -0.6875 
Q 15.09375 0.046875 10.984375 1.515625 
z
M 30.609375 32.421875 
Q 37.25 32.421875 41.125 36.953125 
Q 45.015625 41.5 45.015625 49.421875 
Q 45.015625 57.28125 41.125 61.84375 
Q 37.25 66.40625 30.609375 66.40625 
Q 23.96875 66.40625 20.09375 61.84375 
Q 16.21875 57.28125 16.21875 49.421875 
Q 16.21875 41.5 20.09375 36.953125 
Q 23.96875 32.421875 30.609375 32.421875 
z
" id="DejaVuSans-57"/>
      <path d="M 72.703125 32.078125 
Q 68.453125 32.078125 66.03125 28.46875 
Q 63.625 24.859375 63.625 18.40625 
Q 63.625 12.0625 66.03125 8.421875 
Q 68.453125 4.78125 72.703125 4.78125 
Q 76.859375 4.78125 79.265625 8.421875 
Q 81.6875 12.0625 81.6875 18.40625 
Q 81.6875 24.8125 79.265625 28.4375 
Q 76.859375 32.078125 72.703125 32.078125 
z
M 72.703125 38.28125 
Q 80.421875 38.28125 84.953125 32.90625 
Q 89.5 27.546875 89.5 18.40625 
Q 89.5 9.28125 84.9375 3.921875 
Q 80.375 -1.421875 72.703125 -1.421875 
Q 64.890625 -1.421875 60.34375 3.921875 
Q 55.8125 9.28125 55.8125 18.40625 
Q 55.8125 27.59375 60.375 32.9375 
Q 64.9375 38.28125 72.703125 38.28125 
z
M 22.3125 68.015625 
Q 18.109375 68.015625 15.6875 64.375 
Q 13.28125 60.75 13.28125 54.390625 
Q 13.28125 47.953125 15.671875 44.328125 
Q 18.0625 40.71875 22.3125 40.71875 
Q 26.5625 40.71875 28.96875 44.328125 
Q 31.390625 47.953125 31.390625 54.390625 
Q 31.390625 60.6875 28.953125 64.34375 
Q 26.515625 68.015625 22.3125 68.015625 
z
M 66.40625 74.21875 
L 74.21875 74.21875 
L 28.609375 -1.421875 
L 20.796875 -1.421875 
z
M 22.3125 74.21875 
Q 30.03125 74.21875 34.609375 68.875 
Q 39.203125 63.53125 39.203125 54.390625 
Q 39.203125 45.171875 34.640625 39.84375 
Q 30.078125 34.515625 22.3125 34.515625 
Q 14.546875 34.515625 10.03125 39.859375 
Q 5.515625 45.21875 5.515625 54.390625 
Q 5.515625 63.484375 10.046875 68.84375 
Q 14.59375 74.21875 22.3125 74.21875 
z
" id="DejaVuSans-37"/>
      <path d="M 48.6875 27.296875 
Q 48.6875 37.203125 44.609375 42.84375 
Q 40.53125 48.484375 33.40625 48.484375 
Q 26.265625 48.484375 22.1875 42.84375 
Q 18.109375 37.203125 18.109375 27.296875 
Q 18.109375 17.390625 22.1875 11.75 
Q 26.265625 6.109375 33.40625 6.109375 
Q 40.53125 6.109375 44.609375 11.75 
Q 48.6875 17.390625 48.6875 27.296875 
z
M 18.109375 46.390625 
Q 20.953125 51.265625 25.265625 53.625 
Q 29.59375 56 35.59375 56 
Q 45.5625 56 51.78125 48.09375 
Q 58.015625 40.1875 58.015625 27.296875 
Q 58.015625 14.40625 51.78125 6.484375 
Q 45.5625 -1.421875 35.59375 -1.421875 
Q 29.59375 -1.421875 25.265625 0.953125 
Q 20.953125 3.328125 18.109375 8.203125 
L 18.109375 0 
L 9.078125 0 
L 9.078125 75.984375 
L 18.109375 75.984375 
z
" id="DejaVuSans-98"/>
      <path d="M 2.984375 54.6875 
L 12.5 54.6875 
L 29.59375 8.796875 
L 46.6875 54.6875 
L 56.203125 54.6875 
L 35.6875 0 
L 23.484375 0 
z
" id="DejaVuSans-118"/>
     </defs>
     <g transform="translate(989.86275 88.393261)scale(0.12 -0.12)">
      <use xlink:href="#DejaVuSans-57"/>
      <use x="63.623047" xlink:href="#DejaVuSans-48"/>
      <use x="127.246094" xlink:href="#DejaVuSans-37"/>
      <use x="222.265625" xlink:href="#DejaVuSans-32"/>
      <use x="254.052734" xlink:href="#DejaVuSans-67"/>
      <use x="323.876953" xlink:href="#DejaVuSans-114"/>
      <use x="364.958984" xlink:href="#DejaVuSans-101"/>
      <use x="426.482422" xlink:href="#DejaVuSans-100"/>
      <use x="489.958984" xlink:href="#DejaVuSans-105"/>
      <use x="517.742188" xlink:href="#DejaVuSans-98"/>
      <use x="581.21875" xlink:href="#DejaVuSans-108"/>
      <use x="609.001953" xlink:href="#DejaVuSans-101"/>
      <use x="670.525391" xlink:href="#DejaVuSans-32"/>
      <use x="702.3125" xlink:href="#DejaVuSans-73"/>
      <use x="731.804688" xlink:href="#DejaVuSans-110"/>
      <use x="795.183594" xlink:href="#DejaVuSans-116"/>
      <use x="834.392578" xlink:href="#DejaVuSans-101"/>
      <use x="895.916016" xlink:href="#DejaVuSans-114"/>
      <use x="937.029297" xlink:href="#DejaVuSans-118"/>
      <use x="996.208984" xlink:href="#DejaVuSans-97"/>
      <use x="1057.488281" xlink:href="#DejaVuSans-108"/>
     </g>
    </g>
    <g id="patch_121">
     <path d="M 956.26275 106.007011 
L 980.26275 106.007011 
L 980.26275 97.607011 
L 956.26275 97.607011 
z
" style="fill:#348abd;opacity:0.85;"/>
    </g>
    <g id="text_22">
     <!-- observed consumption -->
     <g transform="translate(989.86275 106.007011)scale(0.12 -0.12)">
      <use xlink:href="#DejaVuSans-111"/>
      <use x="61.181641" xlink:href="#DejaVuSans-98"/>
      <use x="124.658203" xlink:href="#DejaVuSans-115"/>
      <use x="176.757812" xlink:href="#DejaVuSans-101"/>
      <use x="238.28125" xlink:href="#DejaVuSans-114"/>
      <use x="279.394531" xlink:href="#DejaVuSans-118"/>
      <use x="338.574219" xlink:href="#DejaVuSans-101"/>
      <use x="400.097656" xlink:href="#DejaVuSans-100"/>
      <use x="463.574219" xlink:href="#DejaVuSans-32"/>
      <use x="495.361328" xlink:href="#DejaVuSans-99"/>
      <use x="550.341797" xlink:href="#DejaVuSans-111"/>
      <use x="611.523438" xlink:href="#DejaVuSans-110"/>
      <use x="674.902344" xlink:href="#DejaVuSans-115"/>
      <use x="727.001953" xlink:href="#DejaVuSans-117"/>
      <use x="790.380859" xlink:href="#DejaVuSans-109"/>
      <use x="887.792969" xlink:href="#DejaVuSans-112"/>
      <use x="951.269531" xlink:href="#DejaVuSans-116"/>
      <use x="990.478516" xlink:href="#DejaVuSans-105"/>
      <use x="1018.261719" xlink:href="#DejaVuSans-111"/>
      <use x="1079.443359" xlink:href="#DejaVuSans-110"/>
     </g>
    </g>
   </g>
  </g>
 </g>
 <defs>
  <clipPath id="pa2d883da36">
   <rect height="345.8768" width="1067.65" x="70.3115" y="33.247636"/>
  </clipPath>
 </defs>
</svg>
