<?xml version="1.0" encoding="utf-8" standalone="no"?>
<!DOCTYPE svg PUBLIC "-//W3C//DTD SVG 1.1//EN"
  "http://www.w3.org/Graphics/SVG/1.1/DTD/svg11.dtd">
<!-- Created with matplotlib (https://matplotlib.org/) -->
<svg height="414.143631pt" version="1.1" viewBox="0 0 1135.225 414.143631" width="1135.225pt" xmlns="http://www.w3.org/2000/svg" xmlns:xlink="http://www.w3.org/1999/xlink">
 <defs>
  <style type="text/css">
*{stroke-linecap:butt;stroke-linejoin:round;}
  </style>
 </defs>
 <g id="figure_1">
  <g id="patch_1">
   <path d="M 0 414.143631 
L 1135.225 414.143631 
L 1135.225 0 
L 0 0 
z
" style="fill:#ffffff;"/>
  </g>
  <g id="axes_1">
   <g id="patch_2">
    <path d="M 76.629 366.732006 
L 1128.025 366.732006 
L 1128.025 30.859206 
L 76.629 30.859206 
z
" style="fill:#ffffff;"/>
   </g>
   <g id="matplotlib.axis_1">
    <g id="xtick_1">
     <g id="line2d_1">
      <path clip-path="url(#p075b8bbb72)" d="M 76.629 366.732006 
L 76.629 30.859206 
" style="fill:none;stroke:#808080;stroke-dasharray:0.3,0.495;stroke-dashoffset:0;stroke-width:0.3;"/>
     </g>
     <g id="text_1">
      <!-- 0 -->
      <defs>
       <path d="M 31.78125 66.40625 
Q 24.171875 66.40625 20.328125 58.90625 
Q 16.5 51.421875 16.5 36.375 
Q 16.5 21.390625 20.328125 13.890625 
Q 24.171875 6.390625 31.78125 6.390625 
Q 39.453125 6.390625 43.28125 13.890625 
Q 47.125 21.390625 47.125 36.375 
Q 47.125 51.421875 43.28125 58.90625 
Q 39.453125 66.40625 31.78125 66.40625 
z
M 31.78125 74.21875 
Q 44.046875 74.21875 50.515625 64.515625 
Q 56.984375 54.828125 56.984375 36.375 
Q 56.984375 17.96875 50.515625 8.265625 
Q 44.046875 -1.421875 31.78125 -1.421875 
Q 19.53125 -1.421875 13.0625 8.265625 
Q 6.59375 17.96875 6.59375 36.375 
Q 6.59375 54.828125 13.0625 64.515625 
Q 19.53125 74.21875 31.78125 74.21875 
z
" id="DejaVuSans-48"/>
      </defs>
      <g style="fill:#262626;" transform="translate(72.42975 386.261943)scale(0.132 -0.132)">
       <use xlink:href="#DejaVuSans-48"/>
      </g>
     </g>
    </g>
    <g id="xtick_2">
     <g id="line2d_2">
      <path clip-path="url(#p075b8bbb72)" d="M 264.378286 366.732006 
L 264.378286 30.859206 
" style="fill:none;stroke:#808080;stroke-dasharray:0.3,0.495;stroke-dashoffset:0;stroke-width:0.3;"/>
     </g>
     <g id="text_2">
      <!-- 20 -->
      <defs>
       <path d="M 19.1875 8.296875 
L 53.609375 8.296875 
L 53.609375 0 
L 7.328125 0 
L 7.328125 8.296875 
Q 12.9375 14.109375 22.625 23.890625 
Q 32.328125 33.6875 34.8125 36.53125 
Q 39.546875 41.84375 41.421875 45.53125 
Q 43.3125 49.21875 43.3125 52.78125 
Q 43.3125 58.59375 39.234375 62.25 
Q 35.15625 65.921875 28.609375 65.921875 
Q 23.96875 65.921875 18.8125 64.3125 
Q 13.671875 62.703125 7.8125 59.421875 
L 7.8125 69.390625 
Q 13.765625 71.78125 18.9375 73 
Q 24.125 74.21875 28.421875 74.21875 
Q 39.75 74.21875 46.484375 68.546875 
Q 53.21875 62.890625 53.21875 53.421875 
Q 53.21875 48.921875 51.53125 44.890625 
Q 49.859375 40.875 45.40625 35.40625 
Q 44.1875 33.984375 37.640625 27.21875 
Q 31.109375 20.453125 19.1875 8.296875 
z
" id="DejaVuSans-50"/>
      </defs>
      <g style="fill:#262626;" transform="translate(255.979786 386.261943)scale(0.132 -0.132)">
       <use xlink:href="#DejaVuSans-50"/>
       <use x="63.623047" xlink:href="#DejaVuSans-48"/>
      </g>
     </g>
    </g>
    <g id="xtick_3">
     <g id="line2d_3">
      <path clip-path="url(#p075b8bbb72)" d="M 452.127571 366.732006 
L 452.127571 30.859206 
" style="fill:none;stroke:#808080;stroke-dasharray:0.3,0.495;stroke-dashoffset:0;stroke-width:0.3;"/>
     </g>
     <g id="text_3">
      <!-- 40 -->
      <defs>
       <path d="M 37.796875 64.3125 
L 12.890625 25.390625 
L 37.796875 25.390625 
z
M 35.203125 72.90625 
L 47.609375 72.90625 
L 47.609375 25.390625 
L 58.015625 25.390625 
L 58.015625 17.1875 
L 47.609375 17.1875 
L 47.609375 0 
L 37.796875 0 
L 37.796875 17.1875 
L 4.890625 17.1875 
L 4.890625 26.703125 
z
" id="DejaVuSans-52"/>
      </defs>
      <g style="fill:#262626;" transform="translate(443.729071 386.261943)scale(0.132 -0.132)">
       <use xlink:href="#DejaVuSans-52"/>
       <use x="63.623047" xlink:href="#DejaVuSans-48"/>
      </g>
     </g>
    </g>
    <g id="xtick_4">
     <g id="line2d_4">
      <path clip-path="url(#p075b8bbb72)" d="M 639.876857 366.732006 
L 639.876857 30.859206 
" style="fill:none;stroke:#808080;stroke-dasharray:0.3,0.495;stroke-dashoffset:0;stroke-width:0.3;"/>
     </g>
     <g id="text_4">
      <!-- 60 -->
      <defs>
       <path d="M 33.015625 40.375 
Q 26.375 40.375 22.484375 35.828125 
Q 18.609375 31.296875 18.609375 23.390625 
Q 18.609375 15.53125 22.484375 10.953125 
Q 26.375 6.390625 33.015625 6.390625 
Q 39.65625 6.390625 43.53125 10.953125 
Q 47.40625 15.53125 47.40625 23.390625 
Q 47.40625 31.296875 43.53125 35.828125 
Q 39.65625 40.375 33.015625 40.375 
z
M 52.59375 71.296875 
L 52.59375 62.3125 
Q 48.875 64.0625 45.09375 64.984375 
Q 41.3125 65.921875 37.59375 65.921875 
Q 27.828125 65.921875 22.671875 59.328125 
Q 17.53125 52.734375 16.796875 39.40625 
Q 19.671875 43.65625 24.015625 45.921875 
Q 28.375 48.1875 33.59375 48.1875 
Q 44.578125 48.1875 50.953125 41.515625 
Q 57.328125 34.859375 57.328125 23.390625 
Q 57.328125 12.15625 50.6875 5.359375 
Q 44.046875 -1.421875 33.015625 -1.421875 
Q 20.359375 -1.421875 13.671875 8.265625 
Q 6.984375 17.96875 6.984375 36.375 
Q 6.984375 53.65625 15.1875 63.9375 
Q 23.390625 74.21875 37.203125 74.21875 
Q 40.921875 74.21875 44.703125 73.484375 
Q 48.484375 72.75 52.59375 71.296875 
z
" id="DejaVuSans-54"/>
      </defs>
      <g style="fill:#262626;" transform="translate(631.478357 386.261943)scale(0.132 -0.132)">
       <use xlink:href="#DejaVuSans-54"/>
       <use x="63.623047" xlink:href="#DejaVuSans-48"/>
      </g>
     </g>
    </g>
    <g id="xtick_5">
     <g id="line2d_5">
      <path clip-path="url(#p075b8bbb72)" d="M 827.626143 366.732006 
L 827.626143 30.859206 
" style="fill:none;stroke:#808080;stroke-dasharray:0.3,0.495;stroke-dashoffset:0;stroke-width:0.3;"/>
     </g>
     <g id="text_5">
      <!-- 80 -->
      <defs>
       <path d="M 31.78125 34.625 
Q 24.75 34.625 20.71875 30.859375 
Q 16.703125 27.09375 16.703125 20.515625 
Q 16.703125 13.921875 20.71875 10.15625 
Q 24.75 6.390625 31.78125 6.390625 
Q 38.8125 6.390625 42.859375 10.171875 
Q 46.921875 13.96875 46.921875 20.515625 
Q 46.921875 27.09375 42.890625 30.859375 
Q 38.875 34.625 31.78125 34.625 
z
M 21.921875 38.8125 
Q 15.578125 40.375 12.03125 44.71875 
Q 8.5 49.078125 8.5 55.328125 
Q 8.5 64.0625 14.71875 69.140625 
Q 20.953125 74.21875 31.78125 74.21875 
Q 42.671875 74.21875 48.875 69.140625 
Q 55.078125 64.0625 55.078125 55.328125 
Q 55.078125 49.078125 51.53125 44.71875 
Q 48 40.375 41.703125 38.8125 
Q 48.828125 37.15625 52.796875 32.3125 
Q 56.78125 27.484375 56.78125 20.515625 
Q 56.78125 9.90625 50.3125 4.234375 
Q 43.84375 -1.421875 31.78125 -1.421875 
Q 19.734375 -1.421875 13.25 4.234375 
Q 6.78125 9.90625 6.78125 20.515625 
Q 6.78125 27.484375 10.78125 32.3125 
Q 14.796875 37.15625 21.921875 38.8125 
z
M 18.3125 54.390625 
Q 18.3125 48.734375 21.84375 45.5625 
Q 25.390625 42.390625 31.78125 42.390625 
Q 38.140625 42.390625 41.71875 45.5625 
Q 45.3125 48.734375 45.3125 54.390625 
Q 45.3125 60.0625 41.71875 63.234375 
Q 38.140625 66.40625 31.78125 66.40625 
Q 25.390625 66.40625 21.84375 63.234375 
Q 18.3125 60.0625 18.3125 54.390625 
z
" id="DejaVuSans-56"/>
      </defs>
      <g style="fill:#262626;" transform="translate(819.227643 386.261943)scale(0.132 -0.132)">
       <use xlink:href="#DejaVuSans-56"/>
       <use x="63.623047" xlink:href="#DejaVuSans-48"/>
      </g>
     </g>
    </g>
    <g id="xtick_6">
     <g id="line2d_6">
      <path clip-path="url(#p075b8bbb72)" d="M 1015.375429 366.732006 
L 1015.375429 30.859206 
" style="fill:none;stroke:#808080;stroke-dasharray:0.3,0.495;stroke-dashoffset:0;stroke-width:0.3;"/>
     </g>
     <g id="text_6">
      <!-- 100 -->
      <defs>
       <path d="M 12.40625 8.296875 
L 28.515625 8.296875 
L 28.515625 63.921875 
L 10.984375 60.40625 
L 10.984375 69.390625 
L 28.421875 72.90625 
L 38.28125 72.90625 
L 38.28125 8.296875 
L 54.390625 8.296875 
L 54.390625 0 
L 12.40625 0 
z
" id="DejaVuSans-49"/>
      </defs>
      <g style="fill:#262626;" transform="translate(1002.777679 386.261943)scale(0.132 -0.132)">
       <use xlink:href="#DejaVuSans-49"/>
       <use x="63.623047" xlink:href="#DejaVuSans-48"/>
       <use x="127.246094" xlink:href="#DejaVuSans-48"/>
      </g>
     </g>
    </g>
    <g id="text_7">
     <!-- Time (in hours) -->
     <defs>
      <path d="M -0.296875 72.90625 
L 61.375 72.90625 
L 61.375 64.59375 
L 35.5 64.59375 
L 35.5 0 
L 25.59375 0 
L 25.59375 64.59375 
L -0.296875 64.59375 
z
" id="DejaVuSans-84"/>
      <path d="M 9.421875 54.6875 
L 18.40625 54.6875 
L 18.40625 0 
L 9.421875 0 
z
M 9.421875 75.984375 
L 18.40625 75.984375 
L 18.40625 64.59375 
L 9.421875 64.59375 
z
" id="DejaVuSans-105"/>
      <path d="M 52 44.1875 
Q 55.375 50.25 60.0625 53.125 
Q 64.75 56 71.09375 56 
Q 79.640625 56 84.28125 50.015625 
Q 88.921875 44.046875 88.921875 33.015625 
L 88.921875 0 
L 79.890625 0 
L 79.890625 32.71875 
Q 79.890625 40.578125 77.09375 44.375 
Q 74.3125 48.1875 68.609375 48.1875 
Q 61.625 48.1875 57.5625 43.546875 
Q 53.515625 38.921875 53.515625 30.90625 
L 53.515625 0 
L 44.484375 0 
L 44.484375 32.71875 
Q 44.484375 40.625 41.703125 44.40625 
Q 38.921875 48.1875 33.109375 48.1875 
Q 26.21875 48.1875 22.15625 43.53125 
Q 18.109375 38.875 18.109375 30.90625 
L 18.109375 0 
L 9.078125 0 
L 9.078125 54.6875 
L 18.109375 54.6875 
L 18.109375 46.1875 
Q 21.1875 51.21875 25.484375 53.609375 
Q 29.78125 56 35.6875 56 
Q 41.65625 56 45.828125 52.96875 
Q 50 49.953125 52 44.1875 
z
" id="DejaVuSans-109"/>
      <path d="M 56.203125 29.59375 
L 56.203125 25.203125 
L 14.890625 25.203125 
Q 15.484375 15.921875 20.484375 11.0625 
Q 25.484375 6.203125 34.421875 6.203125 
Q 39.59375 6.203125 44.453125 7.46875 
Q 49.3125 8.734375 54.109375 11.28125 
L 54.109375 2.78125 
Q 49.265625 0.734375 44.1875 -0.34375 
Q 39.109375 -1.421875 33.890625 -1.421875 
Q 20.796875 -1.421875 13.15625 6.1875 
Q 5.515625 13.8125 5.515625 26.8125 
Q 5.515625 40.234375 12.765625 48.109375 
Q 20.015625 56 32.328125 56 
Q 43.359375 56 49.78125 48.890625 
Q 56.203125 41.796875 56.203125 29.59375 
z
M 47.21875 32.234375 
Q 47.125 39.59375 43.09375 43.984375 
Q 39.0625 48.390625 32.421875 48.390625 
Q 24.90625 48.390625 20.390625 44.140625 
Q 15.875 39.890625 15.1875 32.171875 
z
" id="DejaVuSans-101"/>
      <path id="DejaVuSans-32"/>
      <path d="M 31 75.875 
Q 24.46875 64.65625 21.28125 53.65625 
Q 18.109375 42.671875 18.109375 31.390625 
Q 18.109375 20.125 21.3125 9.0625 
Q 24.515625 -2 31 -13.1875 
L 23.1875 -13.1875 
Q 15.875 -1.703125 12.234375 9.375 
Q 8.59375 20.453125 8.59375 31.390625 
Q 8.59375 42.28125 12.203125 53.3125 
Q 15.828125 64.359375 23.1875 75.875 
z
" id="DejaVuSans-40"/>
      <path d="M 54.890625 33.015625 
L 54.890625 0 
L 45.90625 0 
L 45.90625 32.71875 
Q 45.90625 40.484375 42.875 44.328125 
Q 39.84375 48.1875 33.796875 48.1875 
Q 26.515625 48.1875 22.3125 43.546875 
Q 18.109375 38.921875 18.109375 30.90625 
L 18.109375 0 
L 9.078125 0 
L 9.078125 54.6875 
L 18.109375 54.6875 
L 18.109375 46.1875 
Q 21.34375 51.125 25.703125 53.5625 
Q 30.078125 56 35.796875 56 
Q 45.21875 56 50.046875 50.171875 
Q 54.890625 44.34375 54.890625 33.015625 
z
" id="DejaVuSans-110"/>
      <path d="M 54.890625 33.015625 
L 54.890625 0 
L 45.90625 0 
L 45.90625 32.71875 
Q 45.90625 40.484375 42.875 44.328125 
Q 39.84375 48.1875 33.796875 48.1875 
Q 26.515625 48.1875 22.3125 43.546875 
Q 18.109375 38.921875 18.109375 30.90625 
L 18.109375 0 
L 9.078125 0 
L 9.078125 75.984375 
L 18.109375 75.984375 
L 18.109375 46.1875 
Q 21.34375 51.125 25.703125 53.5625 
Q 30.078125 56 35.796875 56 
Q 45.21875 56 50.046875 50.171875 
Q 54.890625 44.34375 54.890625 33.015625 
z
" id="DejaVuSans-104"/>
      <path d="M 30.609375 48.390625 
Q 23.390625 48.390625 19.1875 42.75 
Q 14.984375 37.109375 14.984375 27.296875 
Q 14.984375 17.484375 19.15625 11.84375 
Q 23.34375 6.203125 30.609375 6.203125 
Q 37.796875 6.203125 41.984375 11.859375 
Q 46.1875 17.53125 46.1875 27.296875 
Q 46.1875 37.015625 41.984375 42.703125 
Q 37.796875 48.390625 30.609375 48.390625 
z
M 30.609375 56 
Q 42.328125 56 49.015625 48.375 
Q 55.71875 40.765625 55.71875 27.296875 
Q 55.71875 13.875 49.015625 6.21875 
Q 42.328125 -1.421875 30.609375 -1.421875 
Q 18.84375 -1.421875 12.171875 6.21875 
Q 5.515625 13.875 5.515625 27.296875 
Q 5.515625 40.765625 12.171875 48.375 
Q 18.84375 56 30.609375 56 
z
" id="DejaVuSans-111"/>
      <path d="M 8.5 21.578125 
L 8.5 54.6875 
L 17.484375 54.6875 
L 17.484375 21.921875 
Q 17.484375 14.15625 20.5 10.265625 
Q 23.53125 6.390625 29.59375 6.390625 
Q 36.859375 6.390625 41.078125 11.03125 
Q 45.3125 15.671875 45.3125 23.6875 
L 45.3125 54.6875 
L 54.296875 54.6875 
L 54.296875 0 
L 45.3125 0 
L 45.3125 8.40625 
Q 42.046875 3.421875 37.71875 1 
Q 33.40625 -1.421875 27.6875 -1.421875 
Q 18.265625 -1.421875 13.375 4.4375 
Q 8.5 10.296875 8.5 21.578125 
z
M 31.109375 56 
z
" id="DejaVuSans-117"/>
      <path d="M 41.109375 46.296875 
Q 39.59375 47.171875 37.8125 47.578125 
Q 36.03125 48 33.890625 48 
Q 26.265625 48 22.1875 43.046875 
Q 18.109375 38.09375 18.109375 28.8125 
L 18.109375 0 
L 9.078125 0 
L 9.078125 54.6875 
L 18.109375 54.6875 
L 18.109375 46.1875 
Q 20.953125 51.171875 25.484375 53.578125 
Q 30.03125 56 36.53125 56 
Q 37.453125 56 38.578125 55.875 
Q 39.703125 55.765625 41.0625 55.515625 
z
" id="DejaVuSans-114"/>
      <path d="M 44.28125 53.078125 
L 44.28125 44.578125 
Q 40.484375 46.53125 36.375 47.5 
Q 32.28125 48.484375 27.875 48.484375 
Q 21.1875 48.484375 17.84375 46.4375 
Q 14.5 44.390625 14.5 40.28125 
Q 14.5 37.15625 16.890625 35.375 
Q 19.28125 33.59375 26.515625 31.984375 
L 29.59375 31.296875 
Q 39.15625 29.25 43.1875 25.515625 
Q 47.21875 21.78125 47.21875 15.09375 
Q 47.21875 7.46875 41.1875 3.015625 
Q 35.15625 -1.421875 24.609375 -1.421875 
Q 20.21875 -1.421875 15.453125 -0.5625 
Q 10.6875 0.296875 5.421875 2 
L 5.421875 11.28125 
Q 10.40625 8.6875 15.234375 7.390625 
Q 20.0625 6.109375 24.8125 6.109375 
Q 31.15625 6.109375 34.5625 8.28125 
Q 37.984375 10.453125 37.984375 14.40625 
Q 37.984375 18.0625 35.515625 20.015625 
Q 33.0625 21.96875 24.703125 23.78125 
L 21.578125 24.515625 
Q 13.234375 26.265625 9.515625 29.90625 
Q 5.8125 33.546875 5.8125 39.890625 
Q 5.8125 47.609375 11.28125 51.796875 
Q 16.75 56 26.8125 56 
Q 31.78125 56 36.171875 55.265625 
Q 40.578125 54.546875 44.28125 53.078125 
z
" id="DejaVuSans-115"/>
      <path d="M 8.015625 75.875 
L 15.828125 75.875 
Q 23.140625 64.359375 26.78125 53.3125 
Q 30.421875 42.28125 30.421875 31.390625 
Q 30.421875 20.453125 26.78125 9.375 
Q 23.140625 -1.703125 15.828125 -13.1875 
L 8.015625 -13.1875 
Q 14.5 -2 17.703125 9.0625 
Q 20.90625 20.125 20.90625 31.390625 
Q 20.90625 42.671875 17.703125 53.65625 
Q 14.5 64.65625 8.015625 75.875 
z
" id="DejaVuSans-41"/>
     </defs>
     <g style="fill:#262626;" transform="translate(547.488875 403.948881)scale(0.144 -0.144)">
      <use xlink:href="#DejaVuSans-84"/>
      <use x="61.037109" xlink:href="#DejaVuSans-105"/>
      <use x="88.820312" xlink:href="#DejaVuSans-109"/>
      <use x="186.232422" xlink:href="#DejaVuSans-101"/>
      <use x="247.755859" xlink:href="#DejaVuSans-32"/>
      <use x="279.542969" xlink:href="#DejaVuSans-40"/>
      <use x="318.556641" xlink:href="#DejaVuSans-105"/>
      <use x="346.339844" xlink:href="#DejaVuSans-110"/>
      <use x="409.71875" xlink:href="#DejaVuSans-32"/>
      <use x="441.505859" xlink:href="#DejaVuSans-104"/>
      <use x="504.884766" xlink:href="#DejaVuSans-111"/>
      <use x="566.066406" xlink:href="#DejaVuSans-117"/>
      <use x="629.445312" xlink:href="#DejaVuSans-114"/>
      <use x="670.558594" xlink:href="#DejaVuSans-115"/>
      <use x="722.658203" xlink:href="#DejaVuSans-41"/>
     </g>
    </g>
   </g>
   <g id="matplotlib.axis_2">
    <g id="ytick_1">
     <g id="line2d_7">
      <path clip-path="url(#p075b8bbb72)" d="M 76.629 366.732006 
L 1128.025 366.732006 
" style="fill:none;stroke:#808080;stroke-dasharray:0.3,0.495;stroke-dashoffset:0;stroke-width:0.3;"/>
     </g>
     <g id="text_8">
      <!-- 0 -->
      <g style="fill:#262626;" transform="translate(58.7305 371.746975)scale(0.132 -0.132)">
       <use xlink:href="#DejaVuSans-48"/>
      </g>
     </g>
    </g>
    <g id="ytick_2">
     <g id="line2d_8">
      <path clip-path="url(#p075b8bbb72)" d="M 76.629 293.988812 
L 1128.025 293.988812 
" style="fill:none;stroke:#808080;stroke-dasharray:0.3,0.495;stroke-dashoffset:0;stroke-width:0.3;"/>
     </g>
     <g id="text_9">
      <!-- 5000 -->
      <defs>
       <path d="M 10.796875 72.90625 
L 49.515625 72.90625 
L 49.515625 64.59375 
L 19.828125 64.59375 
L 19.828125 46.734375 
Q 21.96875 47.46875 24.109375 47.828125 
Q 26.265625 48.1875 28.421875 48.1875 
Q 40.625 48.1875 47.75 41.5 
Q 54.890625 34.8125 54.890625 23.390625 
Q 54.890625 11.625 47.5625 5.09375 
Q 40.234375 -1.421875 26.90625 -1.421875 
Q 22.3125 -1.421875 17.546875 -0.640625 
Q 12.796875 0.140625 7.71875 1.703125 
L 7.71875 11.625 
Q 12.109375 9.234375 16.796875 8.0625 
Q 21.484375 6.890625 26.703125 6.890625 
Q 35.15625 6.890625 40.078125 11.328125 
Q 45.015625 15.765625 45.015625 23.390625 
Q 45.015625 31 40.078125 35.4375 
Q 35.15625 39.890625 26.703125 39.890625 
Q 22.75 39.890625 18.8125 39.015625 
Q 14.890625 38.140625 10.796875 36.28125 
z
" id="DejaVuSans-53"/>
      </defs>
      <g style="fill:#262626;" transform="translate(33.535 299.003781)scale(0.132 -0.132)">
       <use xlink:href="#DejaVuSans-53"/>
       <use x="63.623047" xlink:href="#DejaVuSans-48"/>
       <use x="127.246094" xlink:href="#DejaVuSans-48"/>
       <use x="190.869141" xlink:href="#DejaVuSans-48"/>
      </g>
     </g>
    </g>
    <g id="ytick_3">
     <g id="line2d_9">
      <path clip-path="url(#p075b8bbb72)" d="M 76.629 221.245618 
L 1128.025 221.245618 
" style="fill:none;stroke:#808080;stroke-dasharray:0.3,0.495;stroke-dashoffset:0;stroke-width:0.3;"/>
     </g>
     <g id="text_10">
      <!-- 10000 -->
      <g style="fill:#262626;" transform="translate(25.1365 226.260587)scale(0.132 -0.132)">
       <use xlink:href="#DejaVuSans-49"/>
       <use x="63.623047" xlink:href="#DejaVuSans-48"/>
       <use x="127.246094" xlink:href="#DejaVuSans-48"/>
       <use x="190.869141" xlink:href="#DejaVuSans-48"/>
       <use x="254.492188" xlink:href="#DejaVuSans-48"/>
      </g>
     </g>
    </g>
    <g id="ytick_4">
     <g id="line2d_10">
      <path clip-path="url(#p075b8bbb72)" d="M 76.629 148.502425 
L 1128.025 148.502425 
" style="fill:none;stroke:#808080;stroke-dasharray:0.3,0.495;stroke-dashoffset:0;stroke-width:0.3;"/>
     </g>
     <g id="text_11">
      <!-- 15000 -->
      <g style="fill:#262626;" transform="translate(25.1365 153.517393)scale(0.132 -0.132)">
       <use xlink:href="#DejaVuSans-49"/>
       <use x="63.623047" xlink:href="#DejaVuSans-53"/>
       <use x="127.246094" xlink:href="#DejaVuSans-48"/>
       <use x="190.869141" xlink:href="#DejaVuSans-48"/>
       <use x="254.492188" xlink:href="#DejaVuSans-48"/>
      </g>
     </g>
    </g>
    <g id="ytick_5">
     <g id="line2d_11">
      <path clip-path="url(#p075b8bbb72)" d="M 76.629 75.759231 
L 1128.025 75.759231 
" style="fill:none;stroke:#808080;stroke-dasharray:0.3,0.495;stroke-dashoffset:0;stroke-width:0.3;"/>
     </g>
     <g id="text_12">
      <!-- 20000 -->
      <g style="fill:#262626;" transform="translate(25.1365 80.774199)scale(0.132 -0.132)">
       <use xlink:href="#DejaVuSans-50"/>
       <use x="63.623047" xlink:href="#DejaVuSans-48"/>
       <use x="127.246094" xlink:href="#DejaVuSans-48"/>
       <use x="190.869141" xlink:href="#DejaVuSans-48"/>
       <use x="254.492188" xlink:href="#DejaVuSans-48"/>
      </g>
     </g>
    </g>
    <g id="text_13">
     <!-- Energy [Wh] -->
     <defs>
      <path d="M 9.8125 72.90625 
L 55.90625 72.90625 
L 55.90625 64.59375 
L 19.671875 64.59375 
L 19.671875 43.015625 
L 54.390625 43.015625 
L 54.390625 34.71875 
L 19.671875 34.71875 
L 19.671875 8.296875 
L 56.78125 8.296875 
L 56.78125 0 
L 9.8125 0 
z
" id="DejaVuSans-69"/>
      <path d="M 45.40625 27.984375 
Q 45.40625 37.75 41.375 43.109375 
Q 37.359375 48.484375 30.078125 48.484375 
Q 22.859375 48.484375 18.828125 43.109375 
Q 14.796875 37.75 14.796875 27.984375 
Q 14.796875 18.265625 18.828125 12.890625 
Q 22.859375 7.515625 30.078125 7.515625 
Q 37.359375 7.515625 41.375 12.890625 
Q 45.40625 18.265625 45.40625 27.984375 
z
M 54.390625 6.78125 
Q 54.390625 -7.171875 48.1875 -13.984375 
Q 42 -20.796875 29.203125 -20.796875 
Q 24.46875 -20.796875 20.265625 -20.09375 
Q 16.0625 -19.390625 12.109375 -17.921875 
L 12.109375 -9.1875 
Q 16.0625 -11.328125 19.921875 -12.34375 
Q 23.78125 -13.375 27.78125 -13.375 
Q 36.625 -13.375 41.015625 -8.765625 
Q 45.40625 -4.15625 45.40625 5.171875 
L 45.40625 9.625 
Q 42.625 4.78125 38.28125 2.390625 
Q 33.9375 0 27.875 0 
Q 17.828125 0 11.671875 7.65625 
Q 5.515625 15.328125 5.515625 27.984375 
Q 5.515625 40.671875 11.671875 48.328125 
Q 17.828125 56 27.875 56 
Q 33.9375 56 38.28125 53.609375 
Q 42.625 51.21875 45.40625 46.390625 
L 45.40625 54.6875 
L 54.390625 54.6875 
z
" id="DejaVuSans-103"/>
      <path d="M 32.171875 -5.078125 
Q 28.375 -14.84375 24.75 -17.8125 
Q 21.140625 -20.796875 15.09375 -20.796875 
L 7.90625 -20.796875 
L 7.90625 -13.28125 
L 13.1875 -13.28125 
Q 16.890625 -13.28125 18.9375 -11.515625 
Q 21 -9.765625 23.484375 -3.21875 
L 25.09375 0.875 
L 2.984375 54.6875 
L 12.5 54.6875 
L 29.59375 11.921875 
L 46.6875 54.6875 
L 56.203125 54.6875 
z
" id="DejaVuSans-121"/>
      <path d="M 8.59375 75.984375 
L 29.296875 75.984375 
L 29.296875 69 
L 17.578125 69 
L 17.578125 -6.203125 
L 29.296875 -6.203125 
L 29.296875 -13.1875 
L 8.59375 -13.1875 
z
" id="DejaVuSans-91"/>
      <path d="M 3.328125 72.90625 
L 13.28125 72.90625 
L 28.609375 11.28125 
L 43.890625 72.90625 
L 54.984375 72.90625 
L 70.3125 11.28125 
L 85.59375 72.90625 
L 95.609375 72.90625 
L 77.296875 0 
L 64.890625 0 
L 49.515625 63.28125 
L 33.984375 0 
L 21.578125 0 
z
" id="DejaVuSans-87"/>
      <path d="M 30.421875 75.984375 
L 30.421875 -13.1875 
L 9.71875 -13.1875 
L 9.71875 -6.203125 
L 21.390625 -6.203125 
L 21.390625 69 
L 9.71875 69 
L 9.71875 75.984375 
z
" id="DejaVuSans-93"/>
     </defs>
     <g style="fill:#262626;" transform="translate(18.14175 243.717981)rotate(-90)scale(0.144 -0.144)">
      <use xlink:href="#DejaVuSans-69"/>
      <use x="63.183594" xlink:href="#DejaVuSans-110"/>
      <use x="126.5625" xlink:href="#DejaVuSans-101"/>
      <use x="188.085938" xlink:href="#DejaVuSans-114"/>
      <use x="229.183594" xlink:href="#DejaVuSans-103"/>
      <use x="292.660156" xlink:href="#DejaVuSans-121"/>
      <use x="351.839844" xlink:href="#DejaVuSans-32"/>
      <use x="383.626953" xlink:href="#DejaVuSans-91"/>
      <use x="422.640625" xlink:href="#DejaVuSans-87"/>
      <use x="521.517578" xlink:href="#DejaVuSans-104"/>
      <use x="584.896484" xlink:href="#DejaVuSans-93"/>
     </g>
    </g>
   </g>
   <g id="PolyCollection_1">
    <defs>
     <path d="M 76.629 -316.643069 
L 76.629 -281.081709 
L 86.016464 -281.081709 
L 95.403929 -281.081709 
L 104.791393 -281.081709 
L 114.178857 -281.081709 
L 123.566321 -281.081709 
L 132.953786 -281.081709 
L 142.34125 -281.081709 
L 151.728714 -281.081709 
L 161.116179 -281.081709 
L 170.503643 -281.081709 
L 179.891107 -281.081709 
L 189.278571 -281.081709 
L 198.666036 -281.081709 
L 208.0535 -281.081709 
L 217.440964 -281.081709 
L 226.828429 -281.081709 
L 236.215893 -281.081709 
L 245.603357 -281.081709 
L 254.990821 -281.081709 
L 264.378286 -281.081709 
L 273.76575 -281.081709 
L 283.153214 -281.081709 
L 292.540679 -281.081709 
L 301.928143 -281.081709 
L 311.315607 -281.081709 
L 320.703071 -281.015325 
L 330.090536 -280.634367 
L 339.478 -277.890224 
L 348.865464 -188.745996 
L 358.252929 -179.801624 
L 367.640393 -175.025352 
L 377.027857 -175.012956 
L 386.415321 -175.012956 
L 395.802786 -175.012956 
L 405.19025 -175.012956 
L 414.577714 -175.012956 
L 423.965179 -175.012956 
L 433.352643 -175.012956 
L 442.740107 -175.012956 
L 452.127571 -175.012956 
L 461.515036 -175.012956 
L 470.9025 -175.012956 
L 480.289964 -175.012956 
L 489.677429 -175.012956 
L 499.064893 -175.012956 
L 508.452357 -175.012956 
L 517.839821 -175.012956 
L 527.227286 -175.012956 
L 536.61475 -175.012956 
L 546.002214 -175.012956 
L 555.389679 -175.012956 
L 564.777143 -175.012956 
L 574.164607 -175.012956 
L 583.552071 -175.012956 
L 592.939536 -175.012956 
L 602.327 -175.012956 
L 611.714464 -175.012956 
L 621.101929 -175.012956 
L 630.489393 -175.012956 
L 639.876857 -175.012956 
L 649.264321 -175.012956 
L 658.651786 -175.012956 
L 668.03925 -175.012956 
L 677.426714 -175.012956 
L 686.814179 -175.012956 
L 696.201643 -175.012956 
L 705.589107 -175.012956 
L 714.976571 -175.012956 
L 724.364036 -175.012956 
L 733.7515 -175.012956 
L 743.138964 -175.012956 
L 752.526429 -175.012956 
L 761.913893 -175.012956 
L 771.301357 -175.012956 
L 780.688821 -175.012956 
L 790.076286 -175.012956 
L 799.46375 -175.012956 
L 808.851214 -175.012956 
L 818.238679 -175.012956 
L 827.626143 -175.012956 
L 837.013607 -175.012956 
L 846.401071 -175.012956 
L 855.788536 -175.012956 
L 865.176 -175.012956 
L 874.563464 -175.012956 
L 883.950929 -175.012956 
L 893.338393 -175.012956 
L 902.725857 -175.012956 
L 912.113321 -175.012956 
L 921.500786 -175.012956 
L 930.88825 -175.012956 
L 940.275714 -175.012956 
L 949.663179 -175.012956 
L 959.050643 -175.012956 
L 968.438107 -175.012956 
L 977.825571 -175.012956 
L 987.213036 -175.012956 
L 996.6005 -175.012956 
L 1005.987964 -175.012956 
L 1015.375429 -175.012956 
L 1024.762893 -175.012956 
L 1034.150357 -175.012956 
L 1043.537821 -175.012956 
L 1052.925286 -175.012956 
L 1062.31275 -175.012956 
L 1071.700214 -175.012956 
L 1081.087679 -175.012956 
L 1090.475143 -175.012956 
L 1099.862607 -175.012956 
L 1109.250071 -175.012956 
L 1118.637536 -175.012956 
L 1118.637536 -200.527317 
L 1118.637536 -200.527317 
L 1109.250071 -200.527317 
L 1099.862607 -200.527317 
L 1090.475143 -200.527317 
L 1081.087679 -200.527317 
L 1071.700214 -200.527317 
L 1062.31275 -200.527317 
L 1052.925286 -200.527317 
L 1043.537821 -200.527317 
L 1034.150357 -200.527317 
L 1024.762893 -200.527317 
L 1015.375429 -200.527317 
L 1005.987964 -200.527317 
L 996.6005 -200.527317 
L 987.213036 -200.527317 
L 977.825571 -200.527317 
L 968.438107 -200.527317 
L 959.050643 -200.527317 
L 949.663179 -200.527317 
L 940.275714 -200.527317 
L 930.88825 -200.527317 
L 921.500786 -200.527317 
L 912.113321 -200.527317 
L 902.725857 -200.527317 
L 893.338393 -200.527317 
L 883.950929 -200.527317 
L 874.563464 -200.527317 
L 865.176 -200.527317 
L 855.788536 -200.527317 
L 846.401071 -200.527317 
L 837.013607 -200.527317 
L 827.626143 -200.527317 
L 818.238679 -200.527317 
L 808.851214 -200.527317 
L 799.46375 -200.527317 
L 790.076286 -200.527317 
L 780.688821 -200.527317 
L 771.301357 -200.527317 
L 761.913893 -200.527317 
L 752.526429 -200.527317 
L 743.138964 -200.527317 
L 733.7515 -200.527317 
L 724.364036 -200.527317 
L 714.976571 -200.527317 
L 705.589107 -200.527317 
L 696.201643 -200.527317 
L 686.814179 -200.527317 
L 677.426714 -200.527317 
L 668.03925 -200.527317 
L 658.651786 -200.527317 
L 649.264321 -200.527317 
L 639.876857 -200.527317 
L 630.489393 -200.527317 
L 621.101929 -200.527317 
L 611.714464 -200.527317 
L 602.327 -200.527317 
L 592.939536 -200.527317 
L 583.552071 -200.527317 
L 574.164607 -200.527317 
L 564.777143 -200.527317 
L 555.389679 -200.527317 
L 546.002214 -200.527317 
L 536.61475 -200.527317 
L 527.227286 -200.527317 
L 517.839821 -200.527317 
L 508.452357 -200.527317 
L 499.064893 -200.527317 
L 489.677429 -200.527317 
L 480.289964 -200.527317 
L 470.9025 -200.527317 
L 461.515036 -200.527317 
L 452.127571 -200.527317 
L 442.740107 -200.527317 
L 433.352643 -200.527317 
L 423.965179 -200.527317 
L 414.577714 -200.527317 
L 405.19025 -200.527317 
L 395.802786 -200.527317 
L 386.415321 -200.527317 
L 377.027857 -200.527317 
L 367.640393 -201.064377 
L 358.252929 -313.136836 
L 348.865464 -315.778749 
L 339.478 -316.361059 
L 330.090536 -316.597282 
L 320.703071 -316.63049 
L 311.315607 -316.643069 
L 301.928143 -316.643069 
L 292.540679 -316.643069 
L 283.153214 -316.643069 
L 273.76575 -316.643069 
L 264.378286 -316.643069 
L 254.990821 -316.643069 
L 245.603357 -316.643069 
L 236.215893 -316.643069 
L 226.828429 -316.643069 
L 217.440964 -316.643069 
L 208.0535 -316.643069 
L 198.666036 -316.643069 
L 189.278571 -316.643069 
L 179.891107 -316.643069 
L 170.503643 -316.643069 
L 161.116179 -316.643069 
L 151.728714 -316.643069 
L 142.34125 -316.643069 
L 132.953786 -316.643069 
L 123.566321 -316.643069 
L 114.178857 -316.643069 
L 104.791393 -316.643069 
L 95.403929 -316.643069 
L 86.016464 -316.643069 
L 76.629 -316.643069 
z
" id="m160f5fd76e" style="stroke:#ffa500;stroke-opacity:0.25;"/>
    </defs>
    <g clip-path="url(#p075b8bbb72)">
     <use style="fill:#ffa500;fill-opacity:0.25;stroke:#ffa500;stroke-opacity:0.25;" x="0" xlink:href="#m160f5fd76e" y="414.143631"/>
    </g>
   </g>
   <g id="PolyCollection_2">
    <defs>
     <path d="M 367.640393 -47.411625 
L 348.865464 -47.411625 
L 348.865464 -383.284425 
L 367.640393 -383.284425 
L 367.640393 -383.284425 
L 367.640393 -47.411625 
z
" id="mac00280f9a" style="stroke:#008080;stroke-opacity:0.25;"/>
    </defs>
    <g clip-path="url(#p075b8bbb72)">
     <use style="fill:#008080;fill-opacity:0.25;stroke:#008080;stroke-opacity:0.25;" x="0" xlink:href="#mac00280f9a" y="414.143631"/>
    </g>
   </g>
   <g id="patch_3">
    <path clip-path="url(#p075b8bbb72)" d="M 72.874014 366.732006 
L 80.383986 366.732006 
L 80.383986 167.84237 
L 72.874014 167.84237 
z
" style="fill:#348abd;opacity:0.85;stroke:#ffffff;stroke-linejoin:miter;"/>
   </g>
   <g id="patch_4">
    <path clip-path="url(#p075b8bbb72)" d="M 82.261479 366.732006 
L 89.77145 366.732006 
L 89.77145 190.738377 
L 82.261479 190.738377 
z
" style="fill:#348abd;opacity:0.85;stroke:#ffffff;stroke-linejoin:miter;"/>
   </g>
   <g id="patch_5">
    <path clip-path="url(#p075b8bbb72)" d="M 91.648943 366.732006 
L 99.158914 366.732006 
L 99.158914 191.090326 
L 91.648943 191.090326 
z
" style="fill:#348abd;opacity:0.85;stroke:#ffffff;stroke-linejoin:miter;"/>
   </g>
   <g id="patch_6">
    <path clip-path="url(#p075b8bbb72)" d="M 101.036407 366.732006 
L 108.546379 366.732006 
L 108.546379 126.432626 
L 101.036407 126.432626 
z
" style="fill:#348abd;opacity:0.85;stroke:#ffffff;stroke-linejoin:miter;"/>
   </g>
   <g id="patch_7">
    <path clip-path="url(#p075b8bbb72)" d="M 110.423871 366.732006 
L 117.933843 366.732006 
L 117.933843 75.28174 
L 110.423871 75.28174 
z
" style="fill:#348abd;opacity:0.85;stroke:#ffffff;stroke-linejoin:miter;"/>
   </g>
   <g id="patch_8">
    <path clip-path="url(#p075b8bbb72)" d="M 119.811336 366.732006 
L 127.321307 366.732006 
L 127.321307 72.265526 
L 119.811336 72.265526 
z
" style="fill:#348abd;opacity:0.85;stroke:#ffffff;stroke-linejoin:miter;"/>
   </g>
   <g id="patch_9">
    <path clip-path="url(#p075b8bbb72)" d="M 129.1988 366.732006 
L 136.708771 366.732006 
L 136.708771 106.320349 
L 129.1988 106.320349 
z
" style="fill:#348abd;opacity:0.85;stroke:#ffffff;stroke-linejoin:miter;"/>
   </g>
   <g id="patch_10">
    <path clip-path="url(#p075b8bbb72)" d="M 138.586264 366.732006 
L 146.096236 366.732006 
L 146.096236 66.326632 
L 138.586264 66.326632 
z
" style="fill:#348abd;opacity:0.85;stroke:#ffffff;stroke-linejoin:miter;"/>
   </g>
   <g id="patch_11">
    <path clip-path="url(#p075b8bbb72)" d="M 147.973729 366.732006 
L 155.4837 366.732006 
L 155.4837 105.294786 
L 147.973729 105.294786 
z
" style="fill:#348abd;opacity:0.85;stroke:#ffffff;stroke-linejoin:miter;"/>
   </g>
   <g id="patch_12">
    <path clip-path="url(#p075b8bbb72)" d="M 157.361193 366.732006 
L 164.871164 366.732006 
L 164.871164 107.353261 
L 157.361193 107.353261 
z
" style="fill:#348abd;opacity:0.85;stroke:#ffffff;stroke-linejoin:miter;"/>
   </g>
   <g id="patch_13">
    <path clip-path="url(#p075b8bbb72)" d="M 166.748657 366.732006 
L 174.258629 366.732006 
L 174.258629 119.486004 
L 166.748657 119.486004 
z
" style="fill:#348abd;opacity:0.85;stroke:#ffffff;stroke-linejoin:miter;"/>
   </g>
   <g id="patch_14">
    <path clip-path="url(#p075b8bbb72)" d="M 176.136121 366.732006 
L 183.646093 366.732006 
L 183.646093 132.079786 
L 176.136121 132.079786 
z
" style="fill:#348abd;opacity:0.85;stroke:#ffffff;stroke-linejoin:miter;"/>
   </g>
   <g id="patch_15">
    <path clip-path="url(#p075b8bbb72)" d="M 185.523586 366.732006 
L 193.033557 366.732006 
L 193.033557 167.794247 
L 185.523586 167.794247 
z
" style="fill:#348abd;opacity:0.85;stroke:#ffffff;stroke-linejoin:miter;"/>
   </g>
   <g id="patch_16">
    <path clip-path="url(#p075b8bbb72)" d="M 194.91105 366.732006 
L 202.421021 366.732006 
L 202.421021 148.183005 
L 194.91105 148.183005 
z
" style="fill:#348abd;opacity:0.85;stroke:#ffffff;stroke-linejoin:miter;"/>
   </g>
   <g id="patch_17">
    <path clip-path="url(#p075b8bbb72)" d="M 204.298514 366.732006 
L 211.808486 366.732006 
L 211.808486 176.513681 
L 204.298514 176.513681 
z
" style="fill:#348abd;opacity:0.85;stroke:#ffffff;stroke-linejoin:miter;"/>
   </g>
   <g id="patch_18">
    <path clip-path="url(#p075b8bbb72)" d="M 213.685979 366.732006 
L 221.19595 366.732006 
L 221.19595 286.254685 
L 213.685979 286.254685 
z
" style="fill:#348abd;opacity:0.85;stroke:#ffffff;stroke-linejoin:miter;"/>
   </g>
   <g id="patch_19">
    <path clip-path="url(#p075b8bbb72)" d="M 223.073443 366.732006 
L 230.583414 366.732006 
L 230.583414 82.921835 
L 223.073443 82.921835 
z
" style="fill:#348abd;opacity:0.85;stroke:#ffffff;stroke-linejoin:miter;"/>
   </g>
   <g id="patch_20">
    <path clip-path="url(#p075b8bbb72)" d="M 232.460907 366.732006 
L 239.970879 366.732006 
L 239.970879 97.602921 
L 232.460907 97.602921 
z
" style="fill:#348abd;opacity:0.85;stroke:#ffffff;stroke-linejoin:miter;"/>
   </g>
   <g id="patch_21">
    <path clip-path="url(#p075b8bbb72)" d="M 241.848371 366.732006 
L 249.358343 366.732006 
L 249.358343 62.570077 
L 241.848371 62.570077 
z
" style="fill:#348abd;opacity:0.85;stroke:#ffffff;stroke-linejoin:miter;"/>
   </g>
   <g id="patch_22">
    <path clip-path="url(#p075b8bbb72)" d="M 251.235836 366.732006 
L 258.745807 366.732006 
L 258.745807 62.532526 
L 251.235836 62.532526 
z
" style="fill:#348abd;opacity:0.85;stroke:#ffffff;stroke-linejoin:miter;"/>
   </g>
   <g id="patch_23">
    <path clip-path="url(#p075b8bbb72)" d="M 260.6233 366.732006 
L 268.133271 366.732006 
L 268.133271 50.366916 
L 260.6233 50.366916 
z
" style="fill:#348abd;opacity:0.85;stroke:#ffffff;stroke-linejoin:miter;"/>
   </g>
   <g id="patch_24">
    <path clip-path="url(#p075b8bbb72)" d="M 270.010764 366.732006 
L 277.520736 366.732006 
L 277.520736 46.853149 
L 270.010764 46.853149 
z
" style="fill:#348abd;opacity:0.85;stroke:#ffffff;stroke-linejoin:miter;"/>
   </g>
   <g id="patch_25">
    <path clip-path="url(#p075b8bbb72)" d="M 279.398229 366.732006 
L 286.9082 366.732006 
L 286.9082 84.974606 
L 279.398229 84.974606 
z
" style="fill:#348abd;opacity:0.85;stroke:#ffffff;stroke-linejoin:miter;"/>
   </g>
   <g id="patch_26">
    <path clip-path="url(#p075b8bbb72)" d="M 288.785693 366.732006 
L 296.295664 366.732006 
L 296.295664 71.740522 
L 288.785693 71.740522 
z
" style="fill:#348abd;opacity:0.85;stroke:#ffffff;stroke-linejoin:miter;"/>
   </g>
   <g id="patch_27">
    <path clip-path="url(#p075b8bbb72)" d="M 298.173157 366.732006 
L 305.683129 366.732006 
L 305.683129 57.734959 
L 298.173157 57.734959 
z
" style="fill:#348abd;opacity:0.85;stroke:#ffffff;stroke-linejoin:miter;"/>
   </g>
   <g id="patch_28">
    <path clip-path="url(#p075b8bbb72)" d="M 307.560621 366.732006 
L 315.070593 366.732006 
L 315.070593 103.520966 
L 307.560621 103.520966 
z
" style="fill:#348abd;opacity:0.85;stroke:#ffffff;stroke-linejoin:miter;"/>
   </g>
   <g id="patch_29">
    <path clip-path="url(#p075b8bbb72)" d="M 316.948086 366.732006 
L 324.458057 366.732006 
L 324.458057 106.278518 
L 316.948086 106.278518 
z
" style="fill:#348abd;opacity:0.85;stroke:#ffffff;stroke-linejoin:miter;"/>
   </g>
   <g id="patch_30">
    <path clip-path="url(#p075b8bbb72)" d="M 326.33555 366.732006 
L 333.845521 366.732006 
L 333.845521 133.447835 
L 326.33555 133.447835 
z
" style="fill:#348abd;opacity:0.85;stroke:#ffffff;stroke-linejoin:miter;"/>
   </g>
   <g id="patch_31">
    <path clip-path="url(#p075b8bbb72)" d="M 335.723014 366.732006 
L 343.232986 366.732006 
L 343.232986 122.56449 
L 335.723014 122.56449 
z
" style="fill:#348abd;opacity:0.85;stroke:#ffffff;stroke-linejoin:miter;"/>
   </g>
   <g id="patch_32">
    <path clip-path="url(#p075b8bbb72)" d="M 345.110479 366.732006 
L 352.62045 366.732006 
L 352.62045 137.091737 
L 345.110479 137.091737 
z
" style="fill:#348abd;opacity:0.85;stroke:#ffffff;stroke-linejoin:miter;"/>
   </g>
   <g id="patch_33">
    <path clip-path="url(#p075b8bbb72)" d="M 354.497943 366.732006 
L 362.007914 366.732006 
L 362.007914 156.250714 
L 354.497943 156.250714 
z
" style="fill:#348abd;opacity:0.85;stroke:#ffffff;stroke-linejoin:miter;"/>
   </g>
   <g id="patch_34">
    <path clip-path="url(#p075b8bbb72)" d="M 363.885407 366.732006 
L 371.395379 366.732006 
L 371.395379 270.430274 
L 363.885407 270.430274 
z
" style="fill:#348abd;opacity:0.85;stroke:#ffffff;stroke-linejoin:miter;"/>
   </g>
   <g id="patch_35">
    <path clip-path="url(#p075b8bbb72)" d="M 373.272871 366.732006 
L 380.782843 366.732006 
L 380.782843 303.893662 
L 373.272871 303.893662 
z
" style="fill:#348abd;opacity:0.85;stroke:#ffffff;stroke-linejoin:miter;"/>
   </g>
   <g id="patch_36">
    <path clip-path="url(#p075b8bbb72)" d="M 382.660336 366.732006 
L 390.170307 366.732006 
L 390.170307 224.052951 
L 382.660336 224.052951 
z
" style="fill:#348abd;opacity:0.85;stroke:#ffffff;stroke-linejoin:miter;"/>
   </g>
   <g id="patch_37">
    <path clip-path="url(#p075b8bbb72)" d="M 392.0478 366.732006 
L 399.557771 366.732006 
L 399.557771 314.616875 
L 392.0478 314.616875 
z
" style="fill:#348abd;opacity:0.85;stroke:#ffffff;stroke-linejoin:miter;"/>
   </g>
   <g id="patch_38">
    <path clip-path="url(#p075b8bbb72)" d="M 401.435264 366.732006 
L 408.945236 366.732006 
L 408.945236 280.211173 
L 401.435264 280.211173 
z
" style="fill:#348abd;opacity:0.85;stroke:#ffffff;stroke-linejoin:miter;"/>
   </g>
   <g id="patch_39">
    <path clip-path="url(#p075b8bbb72)" d="M 410.822729 366.732006 
L 418.3327 366.732006 
L 418.3327 316.823474 
L 410.822729 316.823474 
z
" style="fill:#348abd;opacity:0.85;stroke:#ffffff;stroke-linejoin:miter;"/>
   </g>
   <g id="patch_40">
    <path clip-path="url(#p075b8bbb72)" d="M 420.210193 366.732006 
L 427.720164 366.732006 
L 427.720164 287.163236 
L 420.210193 287.163236 
z
" style="fill:#348abd;opacity:0.85;stroke:#ffffff;stroke-linejoin:miter;"/>
   </g>
   <g id="patch_41">
    <path clip-path="url(#p075b8bbb72)" d="M 429.597657 366.732006 
L 437.107629 366.732006 
L 437.107629 69.406595 
L 429.597657 69.406595 
z
" style="fill:#348abd;opacity:0.85;stroke:#ffffff;stroke-linejoin:miter;"/>
   </g>
   <g id="patch_42">
    <path clip-path="url(#p075b8bbb72)" d="M 438.985121 366.732006 
L 446.495093 366.732006 
L 446.495093 59.357745 
L 438.985121 59.357745 
z
" style="fill:#348abd;opacity:0.85;stroke:#ffffff;stroke-linejoin:miter;"/>
   </g>
   <g id="patch_43">
    <path clip-path="url(#p075b8bbb72)" d="M 448.372586 366.732006 
L 455.882557 366.732006 
L 455.882557 84.108967 
L 448.372586 84.108967 
z
" style="fill:#348abd;opacity:0.85;stroke:#ffffff;stroke-linejoin:miter;"/>
   </g>
   <g id="patch_44">
    <path clip-path="url(#p075b8bbb72)" d="M 457.76005 366.732006 
L 465.270021 366.732006 
L 465.270021 166.785805 
L 457.76005 166.785805 
z
" style="fill:#348abd;opacity:0.85;stroke:#ffffff;stroke-linejoin:miter;"/>
   </g>
   <g id="patch_45">
    <path clip-path="url(#p075b8bbb72)" d="M 467.147514 366.732006 
L 474.657486 366.732006 
L 474.657486 180.576363 
L 467.147514 180.576363 
z
" style="fill:#348abd;opacity:0.85;stroke:#ffffff;stroke-linejoin:miter;"/>
   </g>
   <g id="patch_46">
    <path clip-path="url(#p075b8bbb72)" d="M 476.534979 366.732006 
L 484.04495 366.732006 
L 484.04495 191.295607 
L 476.534979 191.295607 
z
" style="fill:#348abd;opacity:0.85;stroke:#ffffff;stroke-linejoin:miter;"/>
   </g>
   <g id="patch_47">
    <path clip-path="url(#p075b8bbb72)" d="M 485.922443 366.732006 
L 493.432414 366.732006 
L 493.432414 191.270675 
L 485.922443 191.270675 
z
" style="fill:#348abd;opacity:0.85;stroke:#ffffff;stroke-linejoin:miter;"/>
   </g>
   <g id="patch_48">
    <path clip-path="url(#p075b8bbb72)" d="M 495.309907 366.732006 
L 502.819879 366.732006 
L 502.819879 184.289451 
L 495.309907 184.289451 
z
" style="fill:#348abd;opacity:0.85;stroke:#ffffff;stroke-linejoin:miter;"/>
   </g>
   <g id="patch_49">
    <path clip-path="url(#p075b8bbb72)" d="M 504.697371 366.732006 
L 512.207343 366.732006 
L 512.207343 189.104667 
L 504.697371 189.104667 
z
" style="fill:#348abd;opacity:0.85;stroke:#ffffff;stroke-linejoin:miter;"/>
   </g>
   <g id="patch_50">
    <path clip-path="url(#p075b8bbb72)" d="M 514.084836 366.732006 
L 521.594807 366.732006 
L 521.594807 208.775596 
L 514.084836 208.775596 
z
" style="fill:#348abd;opacity:0.85;stroke:#ffffff;stroke-linejoin:miter;"/>
   </g>
   <g id="patch_51">
    <path clip-path="url(#p075b8bbb72)" d="M 523.4723 366.732006 
L 530.982271 366.732006 
L 530.982271 330.862188 
L 523.4723 330.862188 
z
" style="fill:#348abd;opacity:0.85;stroke:#ffffff;stroke-linejoin:miter;"/>
   </g>
   <g id="patch_52">
    <path clip-path="url(#p075b8bbb72)" d="M 532.859764 366.732006 
L 540.369736 366.732006 
L 540.369736 327.493031 
L 532.859764 327.493031 
z
" style="fill:#348abd;opacity:0.85;stroke:#ffffff;stroke-linejoin:miter;"/>
   </g>
   <g id="patch_53">
    <path clip-path="url(#p075b8bbb72)" d="M 542.247229 366.732006 
L 549.7572 366.732006 
L 549.7572 328.040025 
L 542.247229 328.040025 
z
" style="fill:#348abd;opacity:0.85;stroke:#ffffff;stroke-linejoin:miter;"/>
   </g>
   <g id="patch_54">
    <path clip-path="url(#p075b8bbb72)" d="M 551.634693 366.732006 
L 559.144664 366.732006 
L 559.144664 259.869692 
L 551.634693 259.869692 
z
" style="fill:#348abd;opacity:0.85;stroke:#ffffff;stroke-linejoin:miter;"/>
   </g>
   <g id="patch_55">
    <path clip-path="url(#p075b8bbb72)" d="M 561.022157 366.732006 
L 568.532129 366.732006 
L 568.532129 102.700719 
L 561.022157 102.700719 
z
" style="fill:#348abd;opacity:0.85;stroke:#ffffff;stroke-linejoin:miter;"/>
   </g>
   <g id="patch_56">
    <path clip-path="url(#p075b8bbb72)" d="M 570.409621 366.732006 
L 577.919593 366.732006 
L 577.919593 328.209375 
L 570.409621 328.209375 
z
" style="fill:#348abd;opacity:0.85;stroke:#ffffff;stroke-linejoin:miter;"/>
   </g>
   <g id="patch_57">
    <path clip-path="url(#p075b8bbb72)" d="M 579.797086 366.732006 
L 587.307057 366.732006 
L 587.307057 143.562029 
L 579.797086 143.562029 
z
" style="fill:#348abd;opacity:0.85;stroke:#ffffff;stroke-linejoin:miter;"/>
   </g>
   <g id="patch_58">
    <path clip-path="url(#p075b8bbb72)" d="M 589.18455 366.732006 
L 596.694521 366.732006 
L 596.694521 130.568114 
L 589.18455 130.568114 
z
" style="fill:#348abd;opacity:0.85;stroke:#ffffff;stroke-linejoin:miter;"/>
   </g>
   <g id="patch_59">
    <path clip-path="url(#p075b8bbb72)" d="M 598.572014 366.732006 
L 606.081986 366.732006 
L 606.081986 135.629025 
L 598.572014 135.629025 
z
" style="fill:#348abd;opacity:0.85;stroke:#ffffff;stroke-linejoin:miter;"/>
   </g>
   <g id="patch_60">
    <path clip-path="url(#p075b8bbb72)" d="M 607.959479 366.732006 
L 615.46945 366.732006 
L 615.46945 156.209786 
L 607.959479 156.209786 
z
" style="fill:#348abd;opacity:0.85;stroke:#ffffff;stroke-linejoin:miter;"/>
   </g>
   <g id="patch_61">
    <path clip-path="url(#p075b8bbb72)" d="M 617.346943 366.732006 
L 624.856914 366.732006 
L 624.856914 128.743524 
L 617.346943 128.743524 
z
" style="fill:#348abd;opacity:0.85;stroke:#ffffff;stroke-linejoin:miter;"/>
   </g>
   <g id="patch_62">
    <path clip-path="url(#p075b8bbb72)" d="M 626.734407 366.732006 
L 634.244379 366.732006 
L 634.244379 164.232123 
L 626.734407 164.232123 
z
" style="fill:#348abd;opacity:0.85;stroke:#ffffff;stroke-linejoin:miter;"/>
   </g>
   <g id="patch_63">
    <path clip-path="url(#p075b8bbb72)" d="M 636.121871 366.732006 
L 643.631843 366.732006 
L 643.631843 167.415034 
L 636.121871 167.415034 
z
" style="fill:#348abd;opacity:0.85;stroke:#ffffff;stroke-linejoin:miter;"/>
   </g>
   <g id="patch_64">
    <path clip-path="url(#p075b8bbb72)" d="M 645.509336 366.732006 
L 653.019307 366.732006 
L 653.019307 175.922474 
L 645.509336 175.922474 
z
" style="fill:#348abd;opacity:0.85;stroke:#ffffff;stroke-linejoin:miter;"/>
   </g>
   <g id="patch_65">
    <path clip-path="url(#p075b8bbb72)" d="M 654.8968 366.732006 
L 662.406771 366.732006 
L 662.406771 159.590648 
L 654.8968 159.590648 
z
" style="fill:#348abd;opacity:0.85;stroke:#ffffff;stroke-linejoin:miter;"/>
   </g>
   <g id="patch_66">
    <path clip-path="url(#p075b8bbb72)" d="M 664.284264 366.732006 
L 671.794236 366.732006 
L 671.794236 259.093895 
L 664.284264 259.093895 
z
" style="fill:#348abd;opacity:0.85;stroke:#ffffff;stroke-linejoin:miter;"/>
   </g>
   <g id="patch_67">
    <path clip-path="url(#p075b8bbb72)" d="M 673.671729 366.732006 
L 681.1817 366.732006 
L 681.1817 280.974101 
L 673.671729 280.974101 
z
" style="fill:#348abd;opacity:0.85;stroke:#ffffff;stroke-linejoin:miter;"/>
   </g>
   <g id="patch_68">
    <path clip-path="url(#p075b8bbb72)" d="M 683.059193 366.732006 
L 690.569164 366.732006 
L 690.569164 232.020682 
L 683.059193 232.020682 
z
" style="fill:#348abd;opacity:0.85;stroke:#ffffff;stroke-linejoin:miter;"/>
   </g>
   <g id="patch_69">
    <path clip-path="url(#p075b8bbb72)" d="M 692.446657 366.732006 
L 699.956629 366.732006 
L 699.956629 227.166983 
L 692.446657 227.166983 
z
" style="fill:#348abd;opacity:0.85;stroke:#ffffff;stroke-linejoin:miter;"/>
   </g>
   <g id="patch_70">
    <path clip-path="url(#p075b8bbb72)" d="M 701.834121 366.732006 
L 709.344093 366.732006 
L 709.344093 305.893917 
L 701.834121 305.893917 
z
" style="fill:#348abd;opacity:0.85;stroke:#ffffff;stroke-linejoin:miter;"/>
   </g>
   <g id="patch_71">
    <path clip-path="url(#p075b8bbb72)" d="M 711.221586 366.732006 
L 718.731557 366.732006 
L 718.731557 315.398438 
L 711.221586 315.398438 
z
" style="fill:#348abd;opacity:0.85;stroke:#ffffff;stroke-linejoin:miter;"/>
   </g>
   <g id="patch_72">
    <path clip-path="url(#p075b8bbb72)" d="M 720.60905 366.732006 
L 728.119021 366.732006 
L 728.119021 281.048067 
L 720.60905 281.048067 
z
" style="fill:#348abd;opacity:0.85;stroke:#ffffff;stroke-linejoin:miter;"/>
   </g>
   <g id="patch_73">
    <path clip-path="url(#p075b8bbb72)" d="M 729.996514 366.732006 
L 737.506486 366.732006 
L 737.506486 100.895225 
L 729.996514 100.895225 
z
" style="fill:#348abd;opacity:0.85;stroke:#ffffff;stroke-linejoin:miter;"/>
   </g>
   <g id="patch_74">
    <path clip-path="url(#p075b8bbb72)" d="M 739.383979 366.732006 
L 746.89395 366.732006 
L 746.89395 121.199525 
L 739.383979 121.199525 
z
" style="fill:#348abd;opacity:0.85;stroke:#ffffff;stroke-linejoin:miter;"/>
   </g>
   <g id="patch_75">
    <path clip-path="url(#p075b8bbb72)" d="M 748.771443 366.732006 
L 756.281414 366.732006 
L 756.281414 210.983314 
L 748.771443 210.983314 
z
" style="fill:#348abd;opacity:0.85;stroke:#ffffff;stroke-linejoin:miter;"/>
   </g>
   <g id="patch_76">
    <path clip-path="url(#p075b8bbb72)" d="M 758.158907 366.732006 
L 765.668879 366.732006 
L 765.668879 214.663293 
L 758.158907 214.663293 
z
" style="fill:#348abd;opacity:0.85;stroke:#ffffff;stroke-linejoin:miter;"/>
   </g>
   <g id="patch_77">
    <path clip-path="url(#p075b8bbb72)" d="M 767.546371 366.732006 
L 775.056343 366.732006 
L 775.056343 211.874329 
L 767.546371 211.874329 
z
" style="fill:#348abd;opacity:0.85;stroke:#ffffff;stroke-linejoin:miter;"/>
   </g>
   <g id="patch_78">
    <path clip-path="url(#p075b8bbb72)" d="M 776.933836 366.732006 
L 784.443807 366.732006 
L 784.443807 223.24316 
L 776.933836 223.24316 
z
" style="fill:#348abd;opacity:0.85;stroke:#ffffff;stroke-linejoin:miter;"/>
   </g>
   <g id="patch_79">
    <path clip-path="url(#p075b8bbb72)" d="M 786.3213 366.732006 
L 793.831271 366.732006 
L 793.831271 224.949695 
L 786.3213 224.949695 
z
" style="fill:#348abd;opacity:0.85;stroke:#ffffff;stroke-linejoin:miter;"/>
   </g>
   <g id="patch_80">
    <path clip-path="url(#p075b8bbb72)" d="M 795.708764 366.732006 
L 803.218736 366.732006 
L 803.218736 225.552583 
L 795.708764 225.552583 
z
" style="fill:#348abd;opacity:0.85;stroke:#ffffff;stroke-linejoin:miter;"/>
   </g>
   <g id="patch_81">
    <path clip-path="url(#p075b8bbb72)" d="M 805.096229 366.732006 
L 812.6062 366.732006 
L 812.6062 227.09264 
L 805.096229 227.09264 
z
" style="fill:#348abd;opacity:0.85;stroke:#ffffff;stroke-linejoin:miter;"/>
   </g>
   <g id="patch_82">
    <path clip-path="url(#p075b8bbb72)" d="M 814.483693 366.732006 
L 821.993664 366.732006 
L 821.993664 287.232991 
L 814.483693 287.232991 
z
" style="fill:#348abd;opacity:0.85;stroke:#ffffff;stroke-linejoin:miter;"/>
   </g>
   <g id="patch_83">
    <path clip-path="url(#p075b8bbb72)" d="M 823.871157 366.732006 
L 831.381129 366.732006 
L 831.381129 335.741914 
L 823.871157 335.741914 
z
" style="fill:#348abd;opacity:0.85;stroke:#ffffff;stroke-linejoin:miter;"/>
   </g>
   <g id="patch_84">
    <path clip-path="url(#p075b8bbb72)" d="M 833.258621 366.732006 
L 840.768593 366.732006 
L 840.768593 300.949417 
L 833.258621 300.949417 
z
" style="fill:#348abd;opacity:0.85;stroke:#ffffff;stroke-linejoin:miter;"/>
   </g>
   <g id="patch_85">
    <path clip-path="url(#p075b8bbb72)" d="M 842.646086 366.732006 
L 850.156057 366.732006 
L 850.156057 242.869598 
L 842.646086 242.869598 
z
" style="fill:#348abd;opacity:0.85;stroke:#ffffff;stroke-linejoin:miter;"/>
   </g>
   <g id="patch_86">
    <path clip-path="url(#p075b8bbb72)" d="M 852.03355 366.732006 
L 859.543521 366.732006 
L 859.543521 226.227286 
L 852.03355 226.227286 
z
" style="fill:#348abd;opacity:0.85;stroke:#ffffff;stroke-linejoin:miter;"/>
   </g>
   <g id="patch_87">
    <path clip-path="url(#p075b8bbb72)" d="M 861.421014 366.732006 
L 868.930986 366.732006 
L 868.930986 212.062106 
L 861.421014 212.062106 
z
" style="fill:#348abd;opacity:0.85;stroke:#ffffff;stroke-linejoin:miter;"/>
   </g>
   <g id="patch_88">
    <path clip-path="url(#p075b8bbb72)" d="M 870.808479 366.732006 
L 878.31845 366.732006 
L 878.31845 218.558293 
L 870.808479 218.558293 
z
" style="fill:#348abd;opacity:0.85;stroke:#ffffff;stroke-linejoin:miter;"/>
   </g>
   <g id="patch_89">
    <path clip-path="url(#p075b8bbb72)" d="M 880.195943 366.732006 
L 887.705914 366.732006 
L 887.705914 221.614521 
L 880.195943 221.614521 
z
" style="fill:#348abd;opacity:0.85;stroke:#ffffff;stroke-linejoin:miter;"/>
   </g>
   <g id="patch_90">
    <path clip-path="url(#p075b8bbb72)" d="M 889.583407 366.732006 
L 897.093379 366.732006 
L 897.093379 237.517263 
L 889.583407 237.517263 
z
" style="fill:#348abd;opacity:0.85;stroke:#ffffff;stroke-linejoin:miter;"/>
   </g>
   <g id="patch_91">
    <path clip-path="url(#p075b8bbb72)" d="M 898.970871 366.732006 
L 906.480843 366.732006 
L 906.480843 231.160507 
L 898.970871 231.160507 
z
" style="fill:#348abd;opacity:0.85;stroke:#ffffff;stroke-linejoin:miter;"/>
   </g>
   <g id="patch_92">
    <path clip-path="url(#p075b8bbb72)" d="M 908.358336 366.732006 
L 915.868307 366.732006 
L 915.868307 238.200185 
L 908.358336 238.200185 
z
" style="fill:#348abd;opacity:0.85;stroke:#ffffff;stroke-linejoin:miter;"/>
   </g>
   <g id="patch_93">
    <path clip-path="url(#p075b8bbb72)" d="M 917.7458 366.732006 
L 925.255771 366.732006 
L 925.255771 229.224925 
L 917.7458 229.224925 
z
" style="fill:#348abd;opacity:0.85;stroke:#ffffff;stroke-linejoin:miter;"/>
   </g>
   <g id="patch_94">
    <path clip-path="url(#p075b8bbb72)" d="M 927.133264 366.732006 
L 934.643236 366.732006 
L 934.643236 238.628936 
L 927.133264 238.628936 
z
" style="fill:#348abd;opacity:0.85;stroke:#ffffff;stroke-linejoin:miter;"/>
   </g>
   <g id="patch_95">
    <path clip-path="url(#p075b8bbb72)" d="M 936.520729 366.732006 
L 944.0307 366.732006 
L 944.0307 238.294729 
L 936.520729 238.294729 
z
" style="fill:#348abd;opacity:0.85;stroke:#ffffff;stroke-linejoin:miter;"/>
   </g>
   <g id="patch_96">
    <path clip-path="url(#p075b8bbb72)" d="M 945.908193 366.732006 
L 953.418164 366.732006 
L 953.418164 239.662795 
L 945.908193 239.662795 
z
" style="fill:#348abd;opacity:0.85;stroke:#ffffff;stroke-linejoin:miter;"/>
   </g>
   <g id="patch_97">
    <path clip-path="url(#p075b8bbb72)" d="M 955.295657 366.732006 
L 962.805629 366.732006 
L 962.805629 236.08338 
L 955.295657 236.08338 
z
" style="fill:#348abd;opacity:0.85;stroke:#ffffff;stroke-linejoin:miter;"/>
   </g>
   <g id="patch_98">
    <path clip-path="url(#p075b8bbb72)" d="M 964.683121 366.732006 
L 972.193093 366.732006 
L 972.193093 295.833164 
L 964.683121 295.833164 
z
" style="fill:#348abd;opacity:0.85;stroke:#ffffff;stroke-linejoin:miter;"/>
   </g>
   <g id="patch_99">
    <path clip-path="url(#p075b8bbb72)" d="M 974.070586 366.732006 
L 981.580557 366.732006 
L 981.580557 257.498004 
L 974.070586 257.498004 
z
" style="fill:#348abd;opacity:0.85;stroke:#ffffff;stroke-linejoin:miter;"/>
   </g>
   <g id="patch_100">
    <path clip-path="url(#p075b8bbb72)" d="M 983.45805 366.732006 
L 990.968021 366.732006 
L 990.968021 226.483419 
L 983.45805 226.483419 
z
" style="fill:#348abd;opacity:0.85;stroke:#ffffff;stroke-linejoin:miter;"/>
   </g>
   <g id="patch_101">
    <path clip-path="url(#p075b8bbb72)" d="M 992.845514 366.732006 
L 1000.355486 366.732006 
L 1000.355486 221.948573 
L 992.845514 221.948573 
z
" style="fill:#348abd;opacity:0.85;stroke:#ffffff;stroke-linejoin:miter;"/>
   </g>
   <g id="patch_102">
    <path clip-path="url(#p075b8bbb72)" d="M 1002.232979 366.732006 
L 1009.74295 366.732006 
L 1009.74295 217.85366 
L 1002.232979 217.85366 
z
" style="fill:#348abd;opacity:0.85;stroke:#ffffff;stroke-linejoin:miter;"/>
   </g>
   <g id="patch_103">
    <path clip-path="url(#p075b8bbb72)" d="M 1011.620443 366.732006 
L 1019.130414 366.732006 
L 1019.130414 214.239451 
L 1011.620443 214.239451 
z
" style="fill:#348abd;opacity:0.85;stroke:#ffffff;stroke-linejoin:miter;"/>
   </g>
   <g id="patch_104">
    <path clip-path="url(#p075b8bbb72)" d="M 1021.007907 366.732006 
L 1028.517879 366.732006 
L 1028.517879 219.015901 
L 1021.007907 219.015901 
z
" style="fill:#348abd;opacity:0.85;stroke:#ffffff;stroke-linejoin:miter;"/>
   </g>
   <g id="patch_105">
    <path clip-path="url(#p075b8bbb72)" d="M 1030.395371 366.732006 
L 1037.905343 366.732006 
L 1037.905343 214.676934 
L 1030.395371 214.676934 
z
" style="fill:#348abd;opacity:0.85;stroke:#ffffff;stroke-linejoin:miter;"/>
   </g>
   <g id="patch_106">
    <path clip-path="url(#p075b8bbb72)" d="M 1039.782836 366.732006 
L 1047.292807 366.732006 
L 1047.292807 215.125194 
L 1039.782836 215.125194 
z
" style="fill:#348abd;opacity:0.85;stroke:#ffffff;stroke-linejoin:miter;"/>
   </g>
   <g id="patch_107">
    <path clip-path="url(#p075b8bbb72)" d="M 1049.1703 366.732006 
L 1056.680271 366.732006 
L 1056.680271 221.419484 
L 1049.1703 221.419484 
z
" style="fill:#348abd;opacity:0.85;stroke:#ffffff;stroke-linejoin:miter;"/>
   </g>
   <g id="patch_108">
    <path clip-path="url(#p075b8bbb72)" d="M 1058.557764 366.732006 
L 1066.067736 366.732006 
L 1066.067736 216.7388 
L 1058.557764 216.7388 
z
" style="fill:#348abd;opacity:0.85;stroke:#ffffff;stroke-linejoin:miter;"/>
   </g>
   <g id="patch_109">
    <path clip-path="url(#p075b8bbb72)" d="M 1067.945229 366.732006 
L 1075.4552 366.732006 
L 1075.4552 217.690659 
L 1067.945229 217.690659 
z
" style="fill:#348abd;opacity:0.85;stroke:#ffffff;stroke-linejoin:miter;"/>
   </g>
   <g id="patch_110">
    <path clip-path="url(#p075b8bbb72)" d="M 1077.332693 366.732006 
L 1084.842664 366.732006 
L 1084.842664 261.648717 
L 1077.332693 261.648717 
z
" style="fill:#348abd;opacity:0.85;stroke:#ffffff;stroke-linejoin:miter;"/>
   </g>
   <g id="patch_111">
    <path clip-path="url(#p075b8bbb72)" d="M 1086.720157 366.732006 
L 1094.230129 366.732006 
L 1094.230129 323.072332 
L 1086.720157 323.072332 
z
" style="fill:#348abd;opacity:0.85;stroke:#ffffff;stroke-linejoin:miter;"/>
   </g>
   <g id="patch_112">
    <path clip-path="url(#p075b8bbb72)" d="M 1096.107621 366.732006 
L 1103.617593 366.732006 
L 1103.617593 325.786612 
L 1096.107621 325.786612 
z
" style="fill:#348abd;opacity:0.85;stroke:#ffffff;stroke-linejoin:miter;"/>
   </g>
   <g id="patch_113">
    <path clip-path="url(#p075b8bbb72)" d="M 1105.495086 366.732006 
L 1113.005057 366.732006 
L 1113.005057 325.24024 
L 1105.495086 325.24024 
z
" style="fill:#348abd;opacity:0.85;stroke:#ffffff;stroke-linejoin:miter;"/>
   </g>
   <g id="patch_114">
    <path clip-path="url(#p075b8bbb72)" d="M 1114.88255 366.732006 
L 1122.392521 366.732006 
L 1122.392521 287.492413 
L 1114.88255 287.492413 
z
" style="fill:#348abd;opacity:0.85;stroke:#ffffff;stroke-linejoin:miter;"/>
   </g>
   <g id="line2d_12">
    <path clip-path="url(#p075b8bbb72)" d="M 76.629 115.811767 
L 86.016464 115.811767 
L 95.403929 115.811767 
L 104.791393 115.811767 
L 114.178857 115.811767 
L 123.566321 115.811767 
L 132.953786 115.811767 
L 142.34125 115.811767 
L 151.728714 115.811767 
L 161.116179 115.811767 
L 170.503643 115.811767 
L 179.891107 115.811767 
L 189.278571 115.811767 
L 198.666036 115.811767 
L 208.0535 115.811767 
L 217.440964 115.811767 
L 226.828429 115.811767 
L 236.215893 115.811767 
L 245.603357 115.811767 
L 254.990821 115.811767 
L 264.378286 115.811767 
L 273.76575 115.811767 
L 283.153214 115.811767 
L 292.540679 115.811767 
L 301.928143 115.811767 
L 311.315607 115.811767 
L 320.703071 115.896798 
L 330.090536 116.384651 
L 339.478 118.560906 
L 348.865464 126.80826 
L 358.252929 154.787767 
L 367.640393 226.223507 
L 377.027857 226.929202 
L 386.415321 226.929202 
L 395.802786 226.929202 
L 405.19025 226.929202 
L 414.577714 226.929202 
L 423.965179 226.929202 
L 433.352643 226.929202 
L 442.740107 226.929202 
L 452.127571 226.929202 
L 461.515036 226.929202 
L 470.9025 226.929202 
L 480.289964 226.929202 
L 489.677429 226.929202 
L 499.064893 226.929202 
L 508.452357 226.929202 
L 517.839821 226.929202 
L 527.227286 226.929202 
L 536.61475 226.929202 
L 546.002214 226.929202 
L 555.389679 226.929202 
L 564.777143 226.929202 
L 574.164607 226.929202 
L 583.552071 226.929202 
L 592.939536 226.929202 
L 602.327 226.929202 
L 611.714464 226.929202 
L 621.101929 226.929202 
L 630.489393 226.929202 
L 639.876857 226.929202 
L 649.264321 226.929202 
L 658.651786 226.929202 
L 668.03925 226.929202 
L 677.426714 226.929202 
L 686.814179 226.929202 
L 696.201643 226.929202 
L 705.589107 226.929202 
L 714.976571 226.929202 
L 724.364036 226.929202 
L 733.7515 226.929202 
L 743.138964 226.929202 
L 752.526429 226.929202 
L 761.913893 226.929202 
L 771.301357 226.929202 
L 780.688821 226.929202 
L 790.076286 226.929202 
L 799.46375 226.929202 
L 808.851214 226.929202 
L 818.238679 226.929202 
L 827.626143 226.929202 
L 837.013607 226.929202 
L 846.401071 226.929202 
L 855.788536 226.929202 
L 865.176 226.929202 
L 874.563464 226.929202 
L 883.950929 226.929202 
L 893.338393 226.929202 
L 902.725857 226.929202 
L 912.113321 226.929202 
L 921.500786 226.929202 
L 930.88825 226.929202 
L 940.275714 226.929202 
L 949.663179 226.929202 
L 959.050643 226.929202 
L 968.438107 226.929202 
L 977.825571 226.929202 
L 987.213036 226.929202 
L 996.6005 226.929202 
L 1005.987964 226.929202 
L 1015.375429 226.929202 
L 1024.762893 226.929202 
L 1034.150357 226.929202 
L 1043.537821 226.929202 
L 1052.925286 226.929202 
L 1062.31275 226.929202 
L 1071.700214 226.929202 
L 1081.087679 226.929202 
L 1090.475143 226.929202 
L 1099.862607 226.929202 
L 1109.250071 226.929202 
L 1118.637536 226.929202 
" style="fill:none;stroke:#e24a33;stroke-linecap:round;stroke-opacity:0.95;stroke-width:4;"/>
   </g>
   <g id="line2d_13">
    <path clip-path="url(#p075b8bbb72)" d="M 367.640393 366.732006 
L 367.640393 30.859206 
" style="fill:none;stroke:#000000;stroke-dasharray:4,6.6;stroke-dashoffset:0;stroke-width:4;"/>
   </g>
   <g id="patch_115">
    <path d="M 76.629 366.732006 
L 76.629 30.859206 
" style="fill:none;stroke:#262626;stroke-linecap:square;stroke-linejoin:miter;stroke-width:1.25;"/>
   </g>
   <g id="patch_116">
    <path d="M 1128.025 366.732006 
L 1128.025 30.859206 
" style="fill:none;stroke:#262626;stroke-linecap:square;stroke-linejoin:miter;stroke-width:1.25;"/>
   </g>
   <g id="patch_117">
    <path d="M 76.629 366.732006 
L 1128.025 366.732006 
" style="fill:none;stroke:#262626;stroke-linecap:square;stroke-linejoin:miter;stroke-width:1.25;"/>
   </g>
   <g id="patch_118">
    <path d="M 76.629 30.859206 
L 1128.025 30.859206 
" style="fill:none;stroke:#262626;stroke-linecap:square;stroke-linejoin:miter;stroke-width:1.25;"/>
   </g>
   <g id="text_14">
    <!-- 17-Mar-2020, 23:00 -->
    <defs>
     <path d="M 8.203125 72.90625 
L 55.078125 72.90625 
L 55.078125 68.703125 
L 28.609375 0 
L 18.3125 0 
L 43.21875 64.59375 
L 8.203125 64.59375 
z
" id="DejaVuSans-55"/>
     <path d="M 4.890625 31.390625 
L 31.203125 31.390625 
L 31.203125 23.390625 
L 4.890625 23.390625 
z
" id="DejaVuSans-45"/>
     <path d="M 9.8125 72.90625 
L 24.515625 72.90625 
L 43.109375 23.296875 
L 61.8125 72.90625 
L 76.515625 72.90625 
L 76.515625 0 
L 66.890625 0 
L 66.890625 64.015625 
L 48.09375 14.015625 
L 38.1875 14.015625 
L 19.390625 64.015625 
L 19.390625 0 
L 9.8125 0 
z
" id="DejaVuSans-77"/>
     <path d="M 34.28125 27.484375 
Q 23.390625 27.484375 19.1875 25 
Q 14.984375 22.515625 14.984375 16.5 
Q 14.984375 11.71875 18.140625 8.90625 
Q 21.296875 6.109375 26.703125 6.109375 
Q 34.1875 6.109375 38.703125 11.40625 
Q 43.21875 16.703125 43.21875 25.484375 
L 43.21875 27.484375 
z
M 52.203125 31.203125 
L 52.203125 0 
L 43.21875 0 
L 43.21875 8.296875 
Q 40.140625 3.328125 35.546875 0.953125 
Q 30.953125 -1.421875 24.3125 -1.421875 
Q 15.921875 -1.421875 10.953125 3.296875 
Q 6 8.015625 6 15.921875 
Q 6 25.140625 12.171875 29.828125 
Q 18.359375 34.515625 30.609375 34.515625 
L 43.21875 34.515625 
L 43.21875 35.40625 
Q 43.21875 41.609375 39.140625 45 
Q 35.0625 48.390625 27.6875 48.390625 
Q 23 48.390625 18.546875 47.265625 
Q 14.109375 46.140625 10.015625 43.890625 
L 10.015625 52.203125 
Q 14.9375 54.109375 19.578125 55.046875 
Q 24.21875 56 28.609375 56 
Q 40.484375 56 46.34375 49.84375 
Q 52.203125 43.703125 52.203125 31.203125 
z
" id="DejaVuSans-97"/>
     <path d="M 11.71875 12.40625 
L 22.015625 12.40625 
L 22.015625 4 
L 14.015625 -11.625 
L 7.71875 -11.625 
L 11.71875 4 
z
" id="DejaVuSans-44"/>
     <path d="M 40.578125 39.3125 
Q 47.65625 37.796875 51.625 33 
Q 55.609375 28.21875 55.609375 21.1875 
Q 55.609375 10.40625 48.1875 4.484375 
Q 40.765625 -1.421875 27.09375 -1.421875 
Q 22.515625 -1.421875 17.65625 -0.515625 
Q 12.796875 0.390625 7.625 2.203125 
L 7.625 11.71875 
Q 11.71875 9.328125 16.59375 8.109375 
Q 21.484375 6.890625 26.8125 6.890625 
Q 36.078125 6.890625 40.9375 10.546875 
Q 45.796875 14.203125 45.796875 21.1875 
Q 45.796875 27.640625 41.28125 31.265625 
Q 36.765625 34.90625 28.71875 34.90625 
L 20.21875 34.90625 
L 20.21875 43.015625 
L 29.109375 43.015625 
Q 36.375 43.015625 40.234375 45.921875 
Q 44.09375 48.828125 44.09375 54.296875 
Q 44.09375 59.90625 40.109375 62.90625 
Q 36.140625 65.921875 28.71875 65.921875 
Q 24.65625 65.921875 20.015625 65.03125 
Q 15.375 64.15625 9.8125 62.3125 
L 9.8125 71.09375 
Q 15.4375 72.65625 20.34375 73.4375 
Q 25.25 74.21875 29.59375 74.21875 
Q 40.828125 74.21875 47.359375 69.109375 
Q 53.90625 64.015625 53.90625 55.328125 
Q 53.90625 49.265625 50.4375 45.09375 
Q 46.96875 40.921875 40.578125 39.3125 
z
" id="DejaVuSans-51"/>
     <path d="M 11.71875 12.40625 
L 22.015625 12.40625 
L 22.015625 0 
L 11.71875 0 
z
M 11.71875 51.703125 
L 22.015625 51.703125 
L 22.015625 39.3125 
L 11.71875 39.3125 
z
" id="DejaVuSans-58"/>
    </defs>
    <g transform="translate(377.027857 104.856508)scale(0.16 -0.16)">
     <use xlink:href="#DejaVuSans-49"/>
     <use x="63.623047" xlink:href="#DejaVuSans-55"/>
     <use x="127.246094" xlink:href="#DejaVuSans-45"/>
     <use x="163.330078" xlink:href="#DejaVuSans-77"/>
     <use x="249.609375" xlink:href="#DejaVuSans-97"/>
     <use x="310.888672" xlink:href="#DejaVuSans-114"/>
     <use x="351.908203" xlink:href="#DejaVuSans-45"/>
     <use x="387.992188" xlink:href="#DejaVuSans-50"/>
     <use x="451.615234" xlink:href="#DejaVuSans-48"/>
     <use x="515.238281" xlink:href="#DejaVuSans-50"/>
     <use x="578.861328" xlink:href="#DejaVuSans-48"/>
     <use x="642.484375" xlink:href="#DejaVuSans-44"/>
     <use x="674.271484" xlink:href="#DejaVuSans-32"/>
     <use x="706.058594" xlink:href="#DejaVuSans-50"/>
     <use x="769.681641" xlink:href="#DejaVuSans-51"/>
     <use x="833.304688" xlink:href="#DejaVuSans-58"/>
     <use x="866.996094" xlink:href="#DejaVuSans-48"/>
     <use x="930.619141" xlink:href="#DejaVuSans-48"/>
    </g>
   </g>
   <g id="text_15">
    <!-- Expected energy consumption - Main Incomer-1F, KFC (Kota Kemuning, Malaysia) -->
    <defs>
     <path d="M 54.890625 54.6875 
L 35.109375 28.078125 
L 55.90625 0 
L 45.3125 0 
L 29.390625 21.484375 
L 13.484375 0 
L 2.875 0 
L 24.125 28.609375 
L 4.6875 54.6875 
L 15.28125 54.6875 
L 29.78125 35.203125 
L 44.28125 54.6875 
z
" id="DejaVuSans-120"/>
     <path d="M 18.109375 8.203125 
L 18.109375 -20.796875 
L 9.078125 -20.796875 
L 9.078125 54.6875 
L 18.109375 54.6875 
L 18.109375 46.390625 
Q 20.953125 51.265625 25.265625 53.625 
Q 29.59375 56 35.59375 56 
Q 45.5625 56 51.78125 48.09375 
Q 58.015625 40.1875 58.015625 27.296875 
Q 58.015625 14.40625 51.78125 6.484375 
Q 45.5625 -1.421875 35.59375 -1.421875 
Q 29.59375 -1.421875 25.265625 0.953125 
Q 20.953125 3.328125 18.109375 8.203125 
z
M 48.6875 27.296875 
Q 48.6875 37.203125 44.609375 42.84375 
Q 40.53125 48.484375 33.40625 48.484375 
Q 26.265625 48.484375 22.1875 42.84375 
Q 18.109375 37.203125 18.109375 27.296875 
Q 18.109375 17.390625 22.1875 11.75 
Q 26.265625 6.109375 33.40625 6.109375 
Q 40.53125 6.109375 44.609375 11.75 
Q 48.6875 17.390625 48.6875 27.296875 
z
" id="DejaVuSans-112"/>
     <path d="M 48.78125 52.59375 
L 48.78125 44.1875 
Q 44.96875 46.296875 41.140625 47.34375 
Q 37.3125 48.390625 33.40625 48.390625 
Q 24.65625 48.390625 19.8125 42.84375 
Q 14.984375 37.3125 14.984375 27.296875 
Q 14.984375 17.28125 19.8125 11.734375 
Q 24.65625 6.203125 33.40625 6.203125 
Q 37.3125 6.203125 41.140625 7.25 
Q 44.96875 8.296875 48.78125 10.40625 
L 48.78125 2.09375 
Q 45.015625 0.34375 40.984375 -0.53125 
Q 36.96875 -1.421875 32.421875 -1.421875 
Q 20.0625 -1.421875 12.78125 6.34375 
Q 5.515625 14.109375 5.515625 27.296875 
Q 5.515625 40.671875 12.859375 48.328125 
Q 20.21875 56 33.015625 56 
Q 37.15625 56 41.109375 55.140625 
Q 45.0625 54.296875 48.78125 52.59375 
z
" id="DejaVuSans-99"/>
     <path d="M 18.3125 70.21875 
L 18.3125 54.6875 
L 36.8125 54.6875 
L 36.8125 47.703125 
L 18.3125 47.703125 
L 18.3125 18.015625 
Q 18.3125 11.328125 20.140625 9.421875 
Q 21.96875 7.515625 27.59375 7.515625 
L 36.8125 7.515625 
L 36.8125 0 
L 27.59375 0 
Q 17.1875 0 13.234375 3.875 
Q 9.28125 7.765625 9.28125 18.015625 
L 9.28125 47.703125 
L 2.6875 47.703125 
L 2.6875 54.6875 
L 9.28125 54.6875 
L 9.28125 70.21875 
z
" id="DejaVuSans-116"/>
     <path d="M 45.40625 46.390625 
L 45.40625 75.984375 
L 54.390625 75.984375 
L 54.390625 0 
L 45.40625 0 
L 45.40625 8.203125 
Q 42.578125 3.328125 38.25 0.953125 
Q 33.9375 -1.421875 27.875 -1.421875 
Q 17.96875 -1.421875 11.734375 6.484375 
Q 5.515625 14.40625 5.515625 27.296875 
Q 5.515625 40.1875 11.734375 48.09375 
Q 17.96875 56 27.875 56 
Q 33.9375 56 38.25 53.625 
Q 42.578125 51.265625 45.40625 46.390625 
z
M 14.796875 27.296875 
Q 14.796875 17.390625 18.875 11.75 
Q 22.953125 6.109375 30.078125 6.109375 
Q 37.203125 6.109375 41.296875 11.75 
Q 45.40625 17.390625 45.40625 27.296875 
Q 45.40625 37.203125 41.296875 42.84375 
Q 37.203125 48.484375 30.078125 48.484375 
Q 22.953125 48.484375 18.875 42.84375 
Q 14.796875 37.203125 14.796875 27.296875 
z
" id="DejaVuSans-100"/>
     <path d="M 9.8125 72.90625 
L 19.671875 72.90625 
L 19.671875 0 
L 9.8125 0 
z
" id="DejaVuSans-73"/>
     <path d="M 9.8125 72.90625 
L 51.703125 72.90625 
L 51.703125 64.59375 
L 19.671875 64.59375 
L 19.671875 43.109375 
L 48.578125 43.109375 
L 48.578125 34.8125 
L 19.671875 34.8125 
L 19.671875 0 
L 9.8125 0 
z
" id="DejaVuSans-70"/>
     <path d="M 9.8125 72.90625 
L 19.671875 72.90625 
L 19.671875 42.09375 
L 52.390625 72.90625 
L 65.09375 72.90625 
L 28.90625 38.921875 
L 67.671875 0 
L 54.6875 0 
L 19.671875 35.109375 
L 19.671875 0 
L 9.8125 0 
z
" id="DejaVuSans-75"/>
     <path d="M 64.40625 67.28125 
L 64.40625 56.890625 
Q 59.421875 61.53125 53.78125 63.8125 
Q 48.140625 66.109375 41.796875 66.109375 
Q 29.296875 66.109375 22.65625 58.46875 
Q 16.015625 50.828125 16.015625 36.375 
Q 16.015625 21.96875 22.65625 14.328125 
Q 29.296875 6.6875 41.796875 6.6875 
Q 48.140625 6.6875 53.78125 8.984375 
Q 59.421875 11.28125 64.40625 15.921875 
L 64.40625 5.609375 
Q 59.234375 2.09375 53.4375 0.328125 
Q 47.65625 -1.421875 41.21875 -1.421875 
Q 24.65625 -1.421875 15.125 8.703125 
Q 5.609375 18.84375 5.609375 36.375 
Q 5.609375 53.953125 15.125 64.078125 
Q 24.65625 74.21875 41.21875 74.21875 
Q 47.75 74.21875 53.53125 72.484375 
Q 59.328125 70.75 64.40625 67.28125 
z
" id="DejaVuSans-67"/>
     <path d="M 9.421875 75.984375 
L 18.40625 75.984375 
L 18.40625 0 
L 9.421875 0 
z
" id="DejaVuSans-108"/>
    </defs>
    <g style="fill:#262626;" transform="translate(307.43075 18.14175)scale(0.144 -0.144)">
     <use xlink:href="#DejaVuSans-69"/>
     <use x="63.183594" xlink:href="#DejaVuSans-120"/>
     <use x="122.363281" xlink:href="#DejaVuSans-112"/>
     <use x="185.839844" xlink:href="#DejaVuSans-101"/>
     <use x="247.363281" xlink:href="#DejaVuSans-99"/>
     <use x="302.34375" xlink:href="#DejaVuSans-116"/>
     <use x="341.552734" xlink:href="#DejaVuSans-101"/>
     <use x="403.076172" xlink:href="#DejaVuSans-100"/>
     <use x="466.552734" xlink:href="#DejaVuSans-32"/>
     <use x="498.339844" xlink:href="#DejaVuSans-101"/>
     <use x="559.863281" xlink:href="#DejaVuSans-110"/>
     <use x="623.242188" xlink:href="#DejaVuSans-101"/>
     <use x="684.765625" xlink:href="#DejaVuSans-114"/>
     <use x="725.863281" xlink:href="#DejaVuSans-103"/>
     <use x="789.339844" xlink:href="#DejaVuSans-121"/>
     <use x="848.519531" xlink:href="#DejaVuSans-32"/>
     <use x="880.306641" xlink:href="#DejaVuSans-99"/>
     <use x="935.287109" xlink:href="#DejaVuSans-111"/>
     <use x="996.46875" xlink:href="#DejaVuSans-110"/>
     <use x="1059.847656" xlink:href="#DejaVuSans-115"/>
     <use x="1111.947266" xlink:href="#DejaVuSans-117"/>
     <use x="1175.326172" xlink:href="#DejaVuSans-109"/>
     <use x="1272.738281" xlink:href="#DejaVuSans-112"/>
     <use x="1336.214844" xlink:href="#DejaVuSans-116"/>
     <use x="1375.423828" xlink:href="#DejaVuSans-105"/>
     <use x="1403.207031" xlink:href="#DejaVuSans-111"/>
     <use x="1464.388672" xlink:href="#DejaVuSans-110"/>
     <use x="1527.767578" xlink:href="#DejaVuSans-32"/>
     <use x="1559.554688" xlink:href="#DejaVuSans-45"/>
     <use x="1595.638672" xlink:href="#DejaVuSans-32"/>
     <use x="1627.425781" xlink:href="#DejaVuSans-77"/>
     <use x="1713.705078" xlink:href="#DejaVuSans-97"/>
     <use x="1774.984375" xlink:href="#DejaVuSans-105"/>
     <use x="1802.767578" xlink:href="#DejaVuSans-110"/>
     <use x="1866.146484" xlink:href="#DejaVuSans-32"/>
     <use x="1897.933594" xlink:href="#DejaVuSans-73"/>
     <use x="1927.425781" xlink:href="#DejaVuSans-110"/>
     <use x="1990.804688" xlink:href="#DejaVuSans-99"/>
     <use x="2045.785156" xlink:href="#DejaVuSans-111"/>
     <use x="2106.966797" xlink:href="#DejaVuSans-109"/>
     <use x="2204.378906" xlink:href="#DejaVuSans-101"/>
     <use x="2265.902344" xlink:href="#DejaVuSans-114"/>
     <use x="2306.921875" xlink:href="#DejaVuSans-45"/>
     <use x="2343.005859" xlink:href="#DejaVuSans-49"/>
     <use x="2406.628906" xlink:href="#DejaVuSans-70"/>
     <use x="2464.148438" xlink:href="#DejaVuSans-44"/>
     <use x="2495.935547" xlink:href="#DejaVuSans-32"/>
     <use x="2527.722656" xlink:href="#DejaVuSans-75"/>
     <use x="2593.298828" xlink:href="#DejaVuSans-70"/>
     <use x="2650.818359" xlink:href="#DejaVuSans-67"/>
     <use x="2720.642578" xlink:href="#DejaVuSans-32"/>
     <use x="2752.429688" xlink:href="#DejaVuSans-40"/>
     <use x="2791.443359" xlink:href="#DejaVuSans-75"/>
     <use x="2856.941406" xlink:href="#DejaVuSans-111"/>
     <use x="2918.123047" xlink:href="#DejaVuSans-116"/>
     <use x="2957.332031" xlink:href="#DejaVuSans-97"/>
     <use x="3018.611328" xlink:href="#DejaVuSans-32"/>
     <use x="3050.398438" xlink:href="#DejaVuSans-75"/>
     <use x="3115.896484" xlink:href="#DejaVuSans-101"/>
     <use x="3177.419922" xlink:href="#DejaVuSans-109"/>
     <use x="3274.832031" xlink:href="#DejaVuSans-117"/>
     <use x="3338.210938" xlink:href="#DejaVuSans-110"/>
     <use x="3401.589844" xlink:href="#DejaVuSans-105"/>
     <use x="3429.373047" xlink:href="#DejaVuSans-110"/>
     <use x="3492.751953" xlink:href="#DejaVuSans-103"/>
     <use x="3556.228516" xlink:href="#DejaVuSans-44"/>
     <use x="3588.015625" xlink:href="#DejaVuSans-32"/>
     <use x="3619.802734" xlink:href="#DejaVuSans-77"/>
     <use x="3706.082031" xlink:href="#DejaVuSans-97"/>
     <use x="3767.361328" xlink:href="#DejaVuSans-108"/>
     <use x="3795.144531" xlink:href="#DejaVuSans-97"/>
     <use x="3856.423828" xlink:href="#DejaVuSans-121"/>
     <use x="3915.603516" xlink:href="#DejaVuSans-115"/>
     <use x="3967.703125" xlink:href="#DejaVuSans-105"/>
     <use x="3995.486328" xlink:href="#DejaVuSans-97"/>
     <use x="4056.765625" xlink:href="#DejaVuSans-41"/>
    </g>
   </g>
   <g id="legend_1">
    <g id="patch_119">
     <path d="M 925.516375 153.075944 
L 1118.785 153.075944 
Q 1121.425 153.075944 1121.425 150.435944 
L 1121.425 40.099206 
Q 1121.425 37.459206 1118.785 37.459206 
L 925.516375 37.459206 
Q 922.876375 37.459206 922.876375 40.099206 
L 922.876375 150.435944 
Q 922.876375 153.075944 925.516375 153.075944 
z
" style="fill:#ffffff;opacity:0.8;stroke:#cccccc;stroke-linejoin:miter;"/>
    </g>
    <g id="line2d_14">
     <path d="M 928.156375 48.149144 
L 954.556375 48.149144 
" style="fill:none;stroke:#e24a33;stroke-linecap:round;stroke-opacity:0.95;stroke-width:4;"/>
    </g>
    <g id="line2d_15"/>
    <g id="text_16">
     <!-- expected consumption -->
     <g style="fill:#262626;" transform="translate(965.116375 52.769144)scale(0.132 -0.132)">
      <use xlink:href="#DejaVuSans-101"/>
      <use x="61.507812" xlink:href="#DejaVuSans-120"/>
      <use x="120.6875" xlink:href="#DejaVuSans-112"/>
      <use x="184.164062" xlink:href="#DejaVuSans-101"/>
      <use x="245.6875" xlink:href="#DejaVuSans-99"/>
      <use x="300.667969" xlink:href="#DejaVuSans-116"/>
      <use x="339.876953" xlink:href="#DejaVuSans-101"/>
      <use x="401.400391" xlink:href="#DejaVuSans-100"/>
      <use x="464.876953" xlink:href="#DejaVuSans-32"/>
      <use x="496.664062" xlink:href="#DejaVuSans-99"/>
      <use x="551.644531" xlink:href="#DejaVuSans-111"/>
      <use x="612.826172" xlink:href="#DejaVuSans-110"/>
      <use x="676.205078" xlink:href="#DejaVuSans-115"/>
      <use x="728.304688" xlink:href="#DejaVuSans-117"/>
      <use x="791.683594" xlink:href="#DejaVuSans-109"/>
      <use x="889.095703" xlink:href="#DejaVuSans-112"/>
      <use x="952.572266" xlink:href="#DejaVuSans-116"/>
      <use x="991.78125" xlink:href="#DejaVuSans-105"/>
      <use x="1019.564453" xlink:href="#DejaVuSans-111"/>
      <use x="1080.746094" xlink:href="#DejaVuSans-110"/>
     </g>
    </g>
    <g id="line2d_16">
     <path d="M 928.156375 67.524269 
L 954.556375 67.524269 
" style="fill:none;stroke:#000000;stroke-dasharray:4,6.6;stroke-dashoffset:0;stroke-width:4;"/>
    </g>
    <g id="line2d_17"/>
    <g id="text_17">
     <!-- Time of change -->
     <defs>
      <path d="M 37.109375 75.984375 
L 37.109375 68.5 
L 28.515625 68.5 
Q 23.6875 68.5 21.796875 66.546875 
Q 19.921875 64.59375 19.921875 59.515625 
L 19.921875 54.6875 
L 34.71875 54.6875 
L 34.71875 47.703125 
L 19.921875 47.703125 
L 19.921875 0 
L 10.890625 0 
L 10.890625 47.703125 
L 2.296875 47.703125 
L 2.296875 54.6875 
L 10.890625 54.6875 
L 10.890625 58.5 
Q 10.890625 67.625 15.140625 71.796875 
Q 19.390625 75.984375 28.609375 75.984375 
z
" id="DejaVuSans-102"/>
     </defs>
     <g style="fill:#262626;" transform="translate(965.116375 72.144269)scale(0.132 -0.132)">
      <use xlink:href="#DejaVuSans-84"/>
      <use x="61.037109" xlink:href="#DejaVuSans-105"/>
      <use x="88.820312" xlink:href="#DejaVuSans-109"/>
      <use x="186.232422" xlink:href="#DejaVuSans-101"/>
      <use x="247.755859" xlink:href="#DejaVuSans-32"/>
      <use x="279.542969" xlink:href="#DejaVuSans-111"/>
      <use x="340.724609" xlink:href="#DejaVuSans-102"/>
      <use x="375.929688" xlink:href="#DejaVuSans-32"/>
      <use x="407.716797" xlink:href="#DejaVuSans-99"/>
      <use x="462.697266" xlink:href="#DejaVuSans-104"/>
      <use x="526.076172" xlink:href="#DejaVuSans-97"/>
      <use x="587.355469" xlink:href="#DejaVuSans-110"/>
      <use x="650.734375" xlink:href="#DejaVuSans-103"/>
      <use x="714.210938" xlink:href="#DejaVuSans-101"/>
     </g>
    </g>
    <g id="patch_120">
     <path d="M 928.156375 91.519394 
L 954.556375 91.519394 
L 954.556375 82.279394 
L 928.156375 82.279394 
z
" style="fill:#ffa500;opacity:0.25;stroke:#ffa500;stroke-linejoin:miter;"/>
    </g>
    <g id="text_18">
     <!-- 90% Credible Interval -->
     <defs>
      <path d="M 10.984375 1.515625 
L 10.984375 10.5 
Q 14.703125 8.734375 18.5 7.8125 
Q 22.3125 6.890625 25.984375 6.890625 
Q 35.75 6.890625 40.890625 13.453125 
Q 46.046875 20.015625 46.78125 33.40625 
Q 43.953125 29.203125 39.59375 26.953125 
Q 35.25 24.703125 29.984375 24.703125 
Q 19.046875 24.703125 12.671875 31.3125 
Q 6.296875 37.9375 6.296875 49.421875 
Q 6.296875 60.640625 12.9375 67.421875 
Q 19.578125 74.21875 30.609375 74.21875 
Q 43.265625 74.21875 49.921875 64.515625 
Q 56.59375 54.828125 56.59375 36.375 
Q 56.59375 19.140625 48.40625 8.859375 
Q 40.234375 -1.421875 26.421875 -1.421875 
Q 22.703125 -1.421875 18.890625 -0.6875 
Q 15.09375 0.046875 10.984375 1.515625 
z
M 30.609375 32.421875 
Q 37.25 32.421875 41.125 36.953125 
Q 45.015625 41.5 45.015625 49.421875 
Q 45.015625 57.28125 41.125 61.84375 
Q 37.25 66.40625 30.609375 66.40625 
Q 23.96875 66.40625 20.09375 61.84375 
Q 16.21875 57.28125 16.21875 49.421875 
Q 16.21875 41.5 20.09375 36.953125 
Q 23.96875 32.421875 30.609375 32.421875 
z
" id="DejaVuSans-57"/>
      <path d="M 72.703125 32.078125 
Q 68.453125 32.078125 66.03125 28.46875 
Q 63.625 24.859375 63.625 18.40625 
Q 63.625 12.0625 66.03125 8.421875 
Q 68.453125 4.78125 72.703125 4.78125 
Q 76.859375 4.78125 79.265625 8.421875 
Q 81.6875 12.0625 81.6875 18.40625 
Q 81.6875 24.8125 79.265625 28.4375 
Q 76.859375 32.078125 72.703125 32.078125 
z
M 72.703125 38.28125 
Q 80.421875 38.28125 84.953125 32.90625 
Q 89.5 27.546875 89.5 18.40625 
Q 89.5 9.28125 84.9375 3.921875 
Q 80.375 -1.421875 72.703125 -1.421875 
Q 64.890625 -1.421875 60.34375 3.921875 
Q 55.8125 9.28125 55.8125 18.40625 
Q 55.8125 27.59375 60.375 32.9375 
Q 64.9375 38.28125 72.703125 38.28125 
z
M 22.3125 68.015625 
Q 18.109375 68.015625 15.6875 64.375 
Q 13.28125 60.75 13.28125 54.390625 
Q 13.28125 47.953125 15.671875 44.328125 
Q 18.0625 40.71875 22.3125 40.71875 
Q 26.5625 40.71875 28.96875 44.328125 
Q 31.390625 47.953125 31.390625 54.390625 
Q 31.390625 60.6875 28.953125 64.34375 
Q 26.515625 68.015625 22.3125 68.015625 
z
M 66.40625 74.21875 
L 74.21875 74.21875 
L 28.609375 -1.421875 
L 20.796875 -1.421875 
z
M 22.3125 74.21875 
Q 30.03125 74.21875 34.609375 68.875 
Q 39.203125 63.53125 39.203125 54.390625 
Q 39.203125 45.171875 34.640625 39.84375 
Q 30.078125 34.515625 22.3125 34.515625 
Q 14.546875 34.515625 10.03125 39.859375 
Q 5.515625 45.21875 5.515625 54.390625 
Q 5.515625 63.484375 10.046875 68.84375 
Q 14.59375 74.21875 22.3125 74.21875 
z
" id="DejaVuSans-37"/>
      <path d="M 48.6875 27.296875 
Q 48.6875 37.203125 44.609375 42.84375 
Q 40.53125 48.484375 33.40625 48.484375 
Q 26.265625 48.484375 22.1875 42.84375 
Q 18.109375 37.203125 18.109375 27.296875 
Q 18.109375 17.390625 22.1875 11.75 
Q 26.265625 6.109375 33.40625 6.109375 
Q 40.53125 6.109375 44.609375 11.75 
Q 48.6875 17.390625 48.6875 27.296875 
z
M 18.109375 46.390625 
Q 20.953125 51.265625 25.265625 53.625 
Q 29.59375 56 35.59375 56 
Q 45.5625 56 51.78125 48.09375 
Q 58.015625 40.1875 58.015625 27.296875 
Q 58.015625 14.40625 51.78125 6.484375 
Q 45.5625 -1.421875 35.59375 -1.421875 
Q 29.59375 -1.421875 25.265625 0.953125 
Q 20.953125 3.328125 18.109375 8.203125 
L 18.109375 0 
L 9.078125 0 
L 9.078125 75.984375 
L 18.109375 75.984375 
z
" id="DejaVuSans-98"/>
      <path d="M 2.984375 54.6875 
L 12.5 54.6875 
L 29.59375 8.796875 
L 46.6875 54.6875 
L 56.203125 54.6875 
L 35.6875 0 
L 23.484375 0 
z
" id="DejaVuSans-118"/>
     </defs>
     <g style="fill:#262626;" transform="translate(965.116375 91.519394)scale(0.132 -0.132)">
      <use xlink:href="#DejaVuSans-57"/>
      <use x="63.623047" xlink:href="#DejaVuSans-48"/>
      <use x="127.246094" xlink:href="#DejaVuSans-37"/>
      <use x="222.265625" xlink:href="#DejaVuSans-32"/>
      <use x="254.052734" xlink:href="#DejaVuSans-67"/>
      <use x="323.876953" xlink:href="#DejaVuSans-114"/>
      <use x="364.958984" xlink:href="#DejaVuSans-101"/>
      <use x="426.482422" xlink:href="#DejaVuSans-100"/>
      <use x="489.958984" xlink:href="#DejaVuSans-105"/>
      <use x="517.742188" xlink:href="#DejaVuSans-98"/>
      <use x="581.21875" xlink:href="#DejaVuSans-108"/>
      <use x="609.001953" xlink:href="#DejaVuSans-101"/>
      <use x="670.525391" xlink:href="#DejaVuSans-32"/>
      <use x="702.3125" xlink:href="#DejaVuSans-73"/>
      <use x="731.804688" xlink:href="#DejaVuSans-110"/>
      <use x="795.183594" xlink:href="#DejaVuSans-116"/>
      <use x="834.392578" xlink:href="#DejaVuSans-101"/>
      <use x="895.916016" xlink:href="#DejaVuSans-114"/>
      <use x="937.029297" xlink:href="#DejaVuSans-118"/>
      <use x="996.208984" xlink:href="#DejaVuSans-97"/>
      <use x="1057.488281" xlink:href="#DejaVuSans-108"/>
     </g>
    </g>
    <g id="patch_121">
     <path d="M 928.156375 119.657669 
L 954.556375 119.657669 
L 954.556375 110.417669 
L 928.156375 110.417669 
z
" style="fill:#008080;opacity:0.25;stroke:#008080;stroke-linejoin:miter;"/>
    </g>
    <g id="text_19">
     <!-- 90% Credible Interval  -->
     <g style="fill:#262626;" transform="translate(965.116375 110.894519)scale(0.132 -0.132)">
      <use xlink:href="#DejaVuSans-57"/>
      <use x="63.623047" xlink:href="#DejaVuSans-48"/>
      <use x="127.246094" xlink:href="#DejaVuSans-37"/>
      <use x="222.265625" xlink:href="#DejaVuSans-32"/>
      <use x="254.052734" xlink:href="#DejaVuSans-67"/>
      <use x="323.876953" xlink:href="#DejaVuSans-114"/>
      <use x="364.958984" xlink:href="#DejaVuSans-101"/>
      <use x="426.482422" xlink:href="#DejaVuSans-100"/>
      <use x="489.958984" xlink:href="#DejaVuSans-105"/>
      <use x="517.742188" xlink:href="#DejaVuSans-98"/>
      <use x="581.21875" xlink:href="#DejaVuSans-108"/>
      <use x="609.001953" xlink:href="#DejaVuSans-101"/>
      <use x="670.525391" xlink:href="#DejaVuSans-32"/>
      <use x="702.3125" xlink:href="#DejaVuSans-73"/>
      <use x="731.804688" xlink:href="#DejaVuSans-110"/>
      <use x="795.183594" xlink:href="#DejaVuSans-116"/>
      <use x="834.392578" xlink:href="#DejaVuSans-101"/>
      <use x="895.916016" xlink:href="#DejaVuSans-114"/>
      <use x="937.029297" xlink:href="#DejaVuSans-118"/>
      <use x="996.208984" xlink:href="#DejaVuSans-97"/>
      <use x="1057.488281" xlink:href="#DejaVuSans-108"/>
      <use x="1085.271484" xlink:href="#DejaVuSans-32"/>
     </g>
     <!--  for tau -->
     <g style="fill:#262626;" transform="translate(965.116375 125.675631)scale(0.132 -0.132)">
      <use xlink:href="#DejaVuSans-32"/>
      <use x="31.787109" xlink:href="#DejaVuSans-102"/>
      <use x="66.992188" xlink:href="#DejaVuSans-111"/>
      <use x="128.173828" xlink:href="#DejaVuSans-114"/>
      <use x="169.287109" xlink:href="#DejaVuSans-32"/>
      <use x="201.074219" xlink:href="#DejaVuSans-116"/>
      <use x="240.283203" xlink:href="#DejaVuSans-97"/>
      <use x="301.5625" xlink:href="#DejaVuSans-117"/>
     </g>
    </g>
    <g id="patch_122">
     <path d="M 928.156375 145.050756 
L 954.556375 145.050756 
L 954.556375 135.810756 
L 928.156375 135.810756 
z
" style="fill:#348abd;opacity:0.85;stroke:#ffffff;stroke-linejoin:miter;"/>
    </g>
    <g id="text_20">
     <!-- observed consumption -->
     <g style="fill:#262626;" transform="translate(965.116375 145.050756)scale(0.132 -0.132)">
      <use xlink:href="#DejaVuSans-111"/>
      <use x="61.181641" xlink:href="#DejaVuSans-98"/>
      <use x="124.658203" xlink:href="#DejaVuSans-115"/>
      <use x="176.757812" xlink:href="#DejaVuSans-101"/>
      <use x="238.28125" xlink:href="#DejaVuSans-114"/>
      <use x="279.394531" xlink:href="#DejaVuSans-118"/>
      <use x="338.574219" xlink:href="#DejaVuSans-101"/>
      <use x="400.097656" xlink:href="#DejaVuSans-100"/>
      <use x="463.574219" xlink:href="#DejaVuSans-32"/>
      <use x="495.361328" xlink:href="#DejaVuSans-99"/>
      <use x="550.341797" xlink:href="#DejaVuSans-111"/>
      <use x="611.523438" xlink:href="#DejaVuSans-110"/>
      <use x="674.902344" xlink:href="#DejaVuSans-115"/>
      <use x="727.001953" xlink:href="#DejaVuSans-117"/>
      <use x="790.380859" xlink:href="#DejaVuSans-109"/>
      <use x="887.792969" xlink:href="#DejaVuSans-112"/>
      <use x="951.269531" xlink:href="#DejaVuSans-116"/>
      <use x="990.478516" xlink:href="#DejaVuSans-105"/>
      <use x="1018.261719" xlink:href="#DejaVuSans-111"/>
      <use x="1079.443359" xlink:href="#DejaVuSans-110"/>
     </g>
    </g>
   </g>
  </g>
 </g>
 <defs>
  <clipPath id="p075b8bbb72">
   <rect height="335.8728" width="1051.396" x="76.629" y="30.859206"/>
  </clipPath>
 </defs>
</svg>
