<?xml version="1.0" encoding="utf-8" standalone="no"?>
<!DOCTYPE svg PUBLIC "-//W3C//DTD SVG 1.1//EN"
  "http://www.w3.org/Graphics/SVG/1.1/DTD/svg11.dtd">
<!-- Created with matplotlib (https://matplotlib.org/) -->
<svg height="422.874686pt" version="1.1" viewBox="0 0 1145.2865 422.874686" width="1145.2865pt" xmlns="http://www.w3.org/2000/svg" xmlns:xlink="http://www.w3.org/1999/xlink">
 <defs>
  <style type="text/css">
*{stroke-linecap:butt;stroke-linejoin:round;}
  </style>
 </defs>
 <g id="figure_1">
  <g id="patch_1">
   <path d="M 0 422.874686 
L 1145.2865 422.874686 
L 1145.2865 0 
L 0 0 
z
" style="fill:#ffffff;"/>
  </g>
  <g id="axes_1">
   <g id="patch_2">
    <path d="M 70.3115 379.124436 
L 1138.0865 379.124436 
L 1138.0865 33.247636 
L 70.3115 33.247636 
z
" style="fill:#ffffff;"/>
   </g>
   <g id="patch_3">
    <path clip-path="url(#pfa035f3485)" d="M 67.769179 379.124436 
L 72.853821 379.124436 
L 72.853821 75.553762 
L 67.769179 75.553762 
z
" style="fill:#348abd;opacity:0.85;"/>
   </g>
   <g id="patch_4">
    <path clip-path="url(#pfa035f3485)" d="M 74.124982 379.124436 
L 79.209625 379.124436 
L 79.209625 127.584197 
L 74.124982 127.584197 
z
" style="fill:#348abd;opacity:0.85;"/>
   </g>
   <g id="patch_5">
    <path clip-path="url(#pfa035f3485)" d="M 80.480786 379.124436 
L 85.565429 379.124436 
L 85.565429 87.754002 
L 80.480786 87.754002 
z
" style="fill:#348abd;opacity:0.85;"/>
   </g>
   <g id="patch_6">
    <path clip-path="url(#pfa035f3485)" d="M 86.836589 379.124436 
L 91.921232 379.124436 
L 91.921232 101.389564 
L 86.836589 101.389564 
z
" style="fill:#348abd;opacity:0.85;"/>
   </g>
   <g id="patch_7">
    <path clip-path="url(#pfa035f3485)" d="M 93.192393 379.124436 
L 98.277036 379.124436 
L 98.277036 129.198934 
L 93.192393 129.198934 
z
" style="fill:#348abd;opacity:0.85;"/>
   </g>
   <g id="patch_8">
    <path clip-path="url(#pfa035f3485)" d="M 99.548196 379.124436 
L 104.632839 379.124436 
L 104.632839 106.951438 
L 99.548196 106.951438 
z
" style="fill:#348abd;opacity:0.85;"/>
   </g>
   <g id="patch_9">
    <path clip-path="url(#pfa035f3485)" d="M 105.904 379.124436 
L 110.988643 379.124436 
L 110.988643 128.840104 
L 105.904 128.840104 
z
" style="fill:#348abd;opacity:0.85;"/>
   </g>
   <g id="patch_10">
    <path clip-path="url(#pfa035f3485)" d="M 112.259804 379.124436 
L 117.344446 379.124436 
L 117.344446 101.568979 
L 112.259804 101.568979 
z
" style="fill:#348abd;opacity:0.85;"/>
   </g>
   <g id="patch_11">
    <path clip-path="url(#pfa035f3485)" d="M 118.615607 379.124436 
L 123.70025 379.124436 
L 123.70025 74.297855 
L 118.615607 74.297855 
z
" style="fill:#348abd;opacity:0.85;"/>
   </g>
   <g id="patch_12">
    <path clip-path="url(#pfa035f3485)" d="M 124.971411 379.124436 
L 130.056054 379.124436 
L 130.056054 78.603822 
L 124.971411 78.603822 
z
" style="fill:#348abd;opacity:0.85;"/>
   </g>
   <g id="patch_13">
    <path clip-path="url(#pfa035f3485)" d="M 131.327214 379.124436 
L 136.411857 379.124436 
L 136.411857 64.250598 
L 131.327214 64.250598 
z
" style="fill:#348abd;opacity:0.85;"/>
   </g>
   <g id="patch_14">
    <path clip-path="url(#pfa035f3485)" d="M 137.683018 379.124436 
L 142.767661 379.124436 
L 142.767661 73.400778 
L 137.683018 73.400778 
z
" style="fill:#348abd;opacity:0.85;"/>
   </g>
   <g id="patch_15">
    <path clip-path="url(#pfa035f3485)" d="M 144.038821 379.124436 
L 149.123464 379.124436 
L 149.123464 87.754002 
L 144.038821 87.754002 
z
" style="fill:#348abd;opacity:0.85;"/>
   </g>
   <g id="patch_16">
    <path clip-path="url(#pfa035f3485)" d="M 150.394625 379.124436 
L 155.479268 379.124436 
L 155.479268 93.315876 
L 150.394625 93.315876 
z
" style="fill:#348abd;opacity:0.85;"/>
   </g>
   <g id="patch_17">
    <path clip-path="url(#pfa035f3485)" d="M 156.750429 379.124436 
L 161.835071 379.124436 
L 161.835071 114.48688 
L 156.750429 114.48688 
z
" style="fill:#348abd;opacity:0.85;"/>
   </g>
   <g id="patch_18">
    <path clip-path="url(#pfa035f3485)" d="M 163.106232 379.124436 
L 168.190875 379.124436 
L 168.190875 108.566176 
L 163.106232 108.566176 
z
" style="fill:#348abd;opacity:0.85;"/>
   </g>
   <g id="patch_19">
    <path clip-path="url(#pfa035f3485)" d="M 169.462036 379.124436 
L 174.546679 379.124436 
L 174.546679 106.054362 
L 169.462036 106.054362 
z
" style="fill:#348abd;opacity:0.85;"/>
   </g>
   <g id="patch_20">
    <path clip-path="url(#pfa035f3485)" d="M 175.817839 379.124436 
L 180.902482 379.124436 
L 180.902482 99.415996 
L 175.817839 99.415996 
z
" style="fill:#348abd;opacity:0.85;"/>
   </g>
   <g id="patch_21">
    <path clip-path="url(#pfa035f3485)" d="M 182.173643 379.124436 
L 187.258286 379.124436 
L 187.258286 49.71796 
L 182.173643 49.71796 
z
" style="fill:#348abd;opacity:0.85;"/>
   </g>
   <g id="patch_22">
    <path clip-path="url(#pfa035f3485)" d="M 188.529446 379.124436 
L 193.614089 379.124436 
L 193.614089 98.698335 
L 188.529446 98.698335 
z
" style="fill:#348abd;opacity:0.85;"/>
   </g>
   <g id="patch_23">
    <path clip-path="url(#pfa035f3485)" d="M 194.88525 379.124436 
L 199.969893 379.124436 
L 199.969893 83.806865 
L 194.88525 83.806865 
z
" style="fill:#348abd;opacity:0.85;"/>
   </g>
   <g id="patch_24">
    <path clip-path="url(#pfa035f3485)" d="M 201.241054 379.124436 
L 206.325696 379.124436 
L 206.325696 85.062772 
L 201.241054 85.062772 
z
" style="fill:#348abd;opacity:0.85;"/>
   </g>
   <g id="patch_25">
    <path clip-path="url(#pfa035f3485)" d="M 207.596857 379.124436 
L 212.6815 379.124436 
L 212.6815 93.854122 
L 207.596857 93.854122 
z
" style="fill:#348abd;opacity:0.85;"/>
   </g>
   <g id="patch_26">
    <path clip-path="url(#pfa035f3485)" d="M 213.952661 379.124436 
L 219.037304 379.124436 
L 219.037304 118.792847 
L 213.952661 118.792847 
z
" style="fill:#348abd;opacity:0.85;"/>
   </g>
   <g id="patch_27">
    <path clip-path="url(#pfa035f3485)" d="M 220.308464 379.124436 
L 225.393107 379.124436 
L 225.393107 98.87775 
L 220.308464 98.87775 
z
" style="fill:#348abd;opacity:0.85;"/>
   </g>
   <g id="patch_28">
    <path clip-path="url(#pfa035f3485)" d="M 226.664268 379.124436 
L 231.748911 379.124436 
L 231.748911 78.962652 
L 226.664268 78.962652 
z
" style="fill:#348abd;opacity:0.85;"/>
   </g>
   <g id="patch_29">
    <path clip-path="url(#pfa035f3485)" d="M 233.020071 379.124436 
L 238.104714 379.124436 
L 238.104714 104.439624 
L 233.020071 104.439624 
z
" style="fill:#348abd;opacity:0.85;"/>
   </g>
   <g id="patch_30">
    <path clip-path="url(#pfa035f3485)" d="M 239.375875 379.124436 
L 244.460518 379.124436 
L 244.460518 101.92781 
L 239.375875 101.92781 
z
" style="fill:#348abd;opacity:0.85;"/>
   </g>
   <g id="patch_31">
    <path clip-path="url(#pfa035f3485)" d="M 245.731679 379.124436 
L 250.816321 379.124436 
L 250.816321 88.830493 
L 245.731679 88.830493 
z
" style="fill:#348abd;opacity:0.85;"/>
   </g>
   <g id="patch_32">
    <path clip-path="url(#pfa035f3485)" d="M 252.087482 379.124436 
L 257.172125 379.124436 
L 257.172125 110.719159 
L 252.087482 110.719159 
z
" style="fill:#348abd;opacity:0.85;"/>
   </g>
   <g id="patch_33">
    <path clip-path="url(#pfa035f3485)" d="M 258.443286 379.124436 
L 263.527929 379.124436 
L 263.527929 96.007105 
L 258.443286 96.007105 
z
" style="fill:#348abd;opacity:0.85;"/>
   </g>
   <g id="patch_34">
    <path clip-path="url(#pfa035f3485)" d="M 264.799089 379.124436 
L 269.883732 379.124436 
L 269.883732 108.02793 
L 264.799089 108.02793 
z
" style="fill:#348abd;opacity:0.85;"/>
   </g>
   <g id="patch_35">
    <path clip-path="url(#pfa035f3485)" d="M 271.154893 379.124436 
L 276.239536 379.124436 
L 276.239536 81.115636 
L 271.154893 81.115636 
z
" style="fill:#348abd;opacity:0.85;"/>
   </g>
   <g id="patch_36">
    <path clip-path="url(#pfa035f3485)" d="M 277.510696 379.124436 
L 282.595339 379.124436 
L 282.595339 115.025126 
L 277.510696 115.025126 
z
" style="fill:#348abd;opacity:0.85;"/>
   </g>
   <g id="patch_37">
    <path clip-path="url(#pfa035f3485)" d="M 283.8665 379.124436 
L 288.951143 379.124436 
L 288.951143 100.313072 
L 283.8665 100.313072 
z
" style="fill:#348abd;opacity:0.85;"/>
   </g>
   <g id="patch_38">
    <path clip-path="url(#pfa035f3485)" d="M 290.222304 379.124436 
L 295.306946 379.124436 
L 295.306946 110.539744 
L 290.222304 110.539744 
z
" style="fill:#348abd;opacity:0.85;"/>
   </g>
   <g id="patch_39">
    <path clip-path="url(#pfa035f3485)" d="M 296.578107 379.124436 
L 301.66275 379.124436 
L 301.66275 105.3367 
L 296.578107 105.3367 
z
" style="fill:#348abd;opacity:0.85;"/>
   </g>
   <g id="patch_40">
    <path clip-path="url(#pfa035f3485)" d="M 302.933911 379.124436 
L 308.018554 379.124436 
L 308.018554 81.474466 
L 302.933911 81.474466 
z
" style="fill:#348abd;opacity:0.85;"/>
   </g>
   <g id="patch_41">
    <path clip-path="url(#pfa035f3485)" d="M 309.289714 379.124436 
L 314.374357 379.124436 
L 314.374357 97.442427 
L 309.289714 97.442427 
z
" style="fill:#348abd;opacity:0.85;"/>
   </g>
   <g id="patch_42">
    <path clip-path="url(#pfa035f3485)" d="M 315.645518 379.124436 
L 320.730161 379.124436 
L 320.730161 54.741588 
L 315.645518 54.741588 
z
" style="fill:#348abd;opacity:0.85;"/>
   </g>
   <g id="patch_43">
    <path clip-path="url(#pfa035f3485)" d="M 322.001321 379.124436 
L 327.085964 379.124436 
L 327.085964 91.701138 
L 322.001321 91.701138 
z
" style="fill:#348abd;opacity:0.85;"/>
   </g>
   <g id="patch_44">
    <path clip-path="url(#pfa035f3485)" d="M 328.357125 379.124436 
L 333.441768 379.124436 
L 333.441768 114.48688 
L 328.357125 114.48688 
z
" style="fill:#348abd;opacity:0.85;"/>
   </g>
   <g id="patch_45">
    <path clip-path="url(#pfa035f3485)" d="M 334.712929 379.124436 
L 339.797571 379.124436 
L 339.797571 80.218559 
L 334.712929 80.218559 
z
" style="fill:#348abd;opacity:0.85;"/>
   </g>
   <g id="patch_46">
    <path clip-path="url(#pfa035f3485)" d="M 341.068732 379.124436 
L 346.153375 379.124436 
L 346.153375 97.801258 
L 341.068732 97.801258 
z
" style="fill:#348abd;opacity:0.85;"/>
   </g>
   <g id="patch_47">
    <path clip-path="url(#pfa035f3485)" d="M 347.424536 379.124436 
L 352.509179 379.124436 
L 352.509179 111.795651 
L 347.424536 111.795651 
z
" style="fill:#348abd;opacity:0.85;"/>
   </g>
   <g id="patch_48">
    <path clip-path="url(#pfa035f3485)" d="M 353.780339 379.124436 
L 358.864982 379.124436 
L 358.864982 107.130853 
L 353.780339 107.130853 
z
" style="fill:#348abd;opacity:0.85;"/>
   </g>
   <g id="patch_49">
    <path clip-path="url(#pfa035f3485)" d="M 360.136143 379.124436 
L 365.220786 379.124436 
L 365.220786 129.557765 
L 360.136143 129.557765 
z
" style="fill:#348abd;opacity:0.85;"/>
   </g>
   <g id="patch_50">
    <path clip-path="url(#pfa035f3485)" d="M 366.491946 379.124436 
L 371.576589 379.124436 
L 371.576589 106.233777 
L 366.491946 106.233777 
z
" style="fill:#348abd;opacity:0.85;"/>
   </g>
   <g id="patch_51">
    <path clip-path="url(#pfa035f3485)" d="M 372.84775 379.124436 
L 377.932393 379.124436 
L 377.932393 97.263012 
L 372.84775 97.263012 
z
" style="fill:#348abd;opacity:0.85;"/>
   </g>
   <g id="patch_52">
    <path clip-path="url(#pfa035f3485)" d="M 379.203554 379.124436 
L 384.288196 379.124436 
L 384.288196 97.801258 
L 379.203554 97.801258 
z
" style="fill:#348abd;opacity:0.85;"/>
   </g>
   <g id="patch_53">
    <path clip-path="url(#pfa035f3485)" d="M 385.559357 379.124436 
L 390.644 379.124436 
L 390.644 108.207345 
L 385.559357 108.207345 
z
" style="fill:#348abd;opacity:0.85;"/>
   </g>
   <g id="patch_54">
    <path clip-path="url(#pfa035f3485)" d="M 391.915161 379.124436 
L 396.999804 379.124436 
L 396.999804 85.780434 
L 391.915161 85.780434 
z
" style="fill:#348abd;opacity:0.85;"/>
   </g>
   <g id="patch_55">
    <path clip-path="url(#pfa035f3485)" d="M 398.270964 379.124436 
L 403.355607 379.124436 
L 403.355607 110.180913 
L 398.270964 110.180913 
z
" style="fill:#348abd;opacity:0.85;"/>
   </g>
   <g id="patch_56">
    <path clip-path="url(#pfa035f3485)" d="M 404.626768 379.124436 
L 409.711411 379.124436 
L 409.711411 76.092008 
L 404.626768 76.092008 
z
" style="fill:#348abd;opacity:0.85;"/>
   </g>
   <g id="patch_57">
    <path clip-path="url(#pfa035f3485)" d="M 410.982571 379.124436 
L 416.067214 379.124436 
L 416.067214 78.065576 
L 410.982571 78.065576 
z
" style="fill:#348abd;opacity:0.85;"/>
   </g>
   <g id="patch_58">
    <path clip-path="url(#pfa035f3485)" d="M 417.338375 379.124436 
L 422.423018 379.124436 
L 422.423018 90.624646 
L 417.338375 90.624646 
z
" style="fill:#348abd;opacity:0.85;"/>
   </g>
   <g id="patch_59">
    <path clip-path="url(#pfa035f3485)" d="M 423.694179 379.124436 
L 428.778821 379.124436 
L 428.778821 78.603822 
L 423.694179 78.603822 
z
" style="fill:#348abd;opacity:0.85;"/>
   </g>
   <g id="patch_60">
    <path clip-path="url(#pfa035f3485)" d="M 430.049982 379.124436 
L 435.134625 379.124436 
L 435.134625 67.480074 
L 430.049982 67.480074 
z
" style="fill:#348abd;opacity:0.85;"/>
   </g>
   <g id="patch_61">
    <path clip-path="url(#pfa035f3485)" d="M 436.405786 379.124436 
L 441.490429 379.124436 
L 441.490429 112.513312 
L 436.405786 112.513312 
z
" style="fill:#348abd;opacity:0.85;"/>
   </g>
   <g id="patch_62">
    <path clip-path="url(#pfa035f3485)" d="M 442.761589 379.124436 
L 447.846232 379.124436 
L 447.846232 120.407585 
L 442.761589 120.407585 
z
" style="fill:#348abd;opacity:0.85;"/>
   </g>
   <g id="patch_63">
    <path clip-path="url(#pfa035f3485)" d="M 449.117393 379.124436 
L 454.202036 379.124436 
L 454.202036 111.07799 
L 449.117393 111.07799 
z
" style="fill:#348abd;opacity:0.85;"/>
   </g>
   <g id="patch_64">
    <path clip-path="url(#pfa035f3485)" d="M 455.473196 379.124436 
L 460.557839 379.124436 
L 460.557839 113.230973 
L 455.473196 113.230973 
z
" style="fill:#348abd;opacity:0.85;"/>
   </g>
   <g id="patch_65">
    <path clip-path="url(#pfa035f3485)" d="M 461.829 379.124436 
L 466.913643 379.124436 
L 466.913643 137.272622 
L 461.829 137.272622 
z
" style="fill:#348abd;opacity:0.85;"/>
   </g>
   <g id="patch_66">
    <path clip-path="url(#pfa035f3485)" d="M 468.184804 379.124436 
L 473.269446 379.124436 
L 473.269446 111.975066 
L 468.184804 111.975066 
z
" style="fill:#348abd;opacity:0.85;"/>
   </g>
   <g id="patch_67">
    <path clip-path="url(#pfa035f3485)" d="M 474.540607 379.124436 
L 479.62525 379.124436 
L 479.62525 136.913792 
L 474.540607 136.913792 
z
" style="fill:#348abd;opacity:0.85;"/>
   </g>
   <g id="patch_68">
    <path clip-path="url(#pfa035f3485)" d="M 480.896411 379.124436 
L 485.981054 379.124436 
L 485.981054 130.813672 
L 480.896411 130.813672 
z
" style="fill:#348abd;opacity:0.85;"/>
   </g>
   <g id="patch_69">
    <path clip-path="url(#pfa035f3485)" d="M 487.252214 379.124436 
L 492.336857 379.124436 
L 492.336857 142.116835 
L 487.252214 142.116835 
z
" style="fill:#348abd;opacity:0.85;"/>
   </g>
   <g id="patch_70">
    <path clip-path="url(#pfa035f3485)" d="M 493.608018 379.124436 
L 498.692661 379.124436 
L 498.692661 131.710748 
L 493.608018 131.710748 
z
" style="fill:#348abd;opacity:0.85;"/>
   </g>
   <g id="patch_71">
    <path clip-path="url(#pfa035f3485)" d="M 499.963821 379.124436 
L 505.048464 379.124436 
L 505.048464 142.296251 
L 499.963821 142.296251 
z
" style="fill:#348abd;opacity:0.85;"/>
   </g>
   <g id="patch_72">
    <path clip-path="url(#pfa035f3485)" d="M 506.319625 379.124436 
L 511.404268 379.124436 
L 511.404268 126.507705 
L 506.319625 126.507705 
z
" style="fill:#348abd;opacity:0.85;"/>
   </g>
   <g id="patch_73">
    <path clip-path="url(#pfa035f3485)" d="M 512.675429 379.124436 
L 517.760071 379.124436 
L 517.760071 128.840104 
L 512.675429 128.840104 
z
" style="fill:#348abd;opacity:0.85;"/>
   </g>
   <g id="patch_74">
    <path clip-path="url(#pfa035f3485)" d="M 519.031232 379.124436 
L 524.115875 379.124436 
L 524.115875 126.148874 
L 519.031232 126.148874 
z
" style="fill:#348abd;opacity:0.85;"/>
   </g>
   <g id="patch_75">
    <path clip-path="url(#pfa035f3485)" d="M 525.387036 379.124436 
L 530.471679 379.124436 
L 530.471679 133.504901 
L 525.387036 133.504901 
z
" style="fill:#348abd;opacity:0.85;"/>
   </g>
   <g id="patch_76">
    <path clip-path="url(#pfa035f3485)" d="M 531.742839 379.124436 
L 536.827482 379.124436 
L 536.827482 119.869339 
L 531.742839 119.869339 
z
" style="fill:#348abd;opacity:0.85;"/>
   </g>
   <g id="patch_77">
    <path clip-path="url(#pfa035f3485)" d="M 538.098643 379.124436 
L 543.183286 379.124436 
L 543.183286 151.805261 
L 538.098643 151.805261 
z
" style="fill:#348abd;opacity:0.85;"/>
   </g>
   <g id="patch_78">
    <path clip-path="url(#pfa035f3485)" d="M 544.454446 379.124436 
L 549.539089 379.124436 
L 549.539089 103.004302 
L 544.454446 103.004302 
z
" style="fill:#348abd;opacity:0.85;"/>
   </g>
   <g id="patch_79">
    <path clip-path="url(#pfa035f3485)" d="M 550.81025 379.124436 
L 555.894893 379.124436 
L 555.894893 125.610628 
L 550.81025 125.610628 
z
" style="fill:#348abd;opacity:0.85;"/>
   </g>
   <g id="patch_80">
    <path clip-path="url(#pfa035f3485)" d="M 557.166054 379.124436 
L 562.250696 379.124436 
L 562.250696 151.267015 
L 557.166054 151.267015 
z
" style="fill:#348abd;opacity:0.85;"/>
   </g>
   <g id="patch_81">
    <path clip-path="url(#pfa035f3485)" d="M 563.521857 379.124436 
L 568.6065 379.124436 
L 568.6065 109.463252 
L 563.521857 109.463252 
z
" style="fill:#348abd;opacity:0.85;"/>
   </g>
   <g id="patch_82">
    <path clip-path="url(#pfa035f3485)" d="M 569.877661 379.124436 
L 574.962304 379.124436 
L 574.962304 94.751198 
L 569.877661 94.751198 
z
" style="fill:#348abd;opacity:0.85;"/>
   </g>
   <g id="patch_83">
    <path clip-path="url(#pfa035f3485)" d="M 576.233464 379.124436 
L 581.318107 379.124436 
L 581.318107 122.919399 
L 576.233464 122.919399 
z
" style="fill:#348abd;opacity:0.85;"/>
   </g>
   <g id="patch_84">
    <path clip-path="url(#pfa035f3485)" d="M 582.589268 379.124436 
L 587.673911 379.124436 
L 587.673911 122.381153 
L 582.589268 122.381153 
z
" style="fill:#348abd;opacity:0.85;"/>
   </g>
   <g id="patch_85">
    <path clip-path="url(#pfa035f3485)" d="M 588.945071 379.124436 
L 594.029714 379.124436 
L 594.029714 82.012712 
L 588.945071 82.012712 
z
" style="fill:#348abd;opacity:0.85;"/>
   </g>
   <g id="patch_86">
    <path clip-path="url(#pfa035f3485)" d="M 595.300875 379.124436 
L 600.385518 379.124436 
L 600.385518 96.18652 
L 595.300875 96.18652 
z
" style="fill:#348abd;opacity:0.85;"/>
   </g>
   <g id="patch_87">
    <path clip-path="url(#pfa035f3485)" d="M 601.656679 379.124436 
L 606.741321 379.124436 
L 606.741321 90.624646 
L 601.656679 90.624646 
z
" style="fill:#348abd;opacity:0.85;"/>
   </g>
   <g id="patch_88">
    <path clip-path="url(#pfa035f3485)" d="M 608.012482 379.124436 
L 613.097125 379.124436 
L 613.097125 112.154481 
L 608.012482 112.154481 
z
" style="fill:#348abd;opacity:0.85;"/>
   </g>
   <g id="patch_89">
    <path clip-path="url(#pfa035f3485)" d="M 614.368286 379.124436 
L 619.452929 379.124436 
L 619.452929 113.230973 
L 614.368286 113.230973 
z
" style="fill:#348abd;opacity:0.85;"/>
   </g>
   <g id="patch_90">
    <path clip-path="url(#pfa035f3485)" d="M 620.724089 379.124436 
L 625.808732 379.124436 
L 625.808732 123.457645 
L 620.724089 123.457645 
z
" style="fill:#348abd;opacity:0.85;"/>
   </g>
   <g id="patch_91">
    <path clip-path="url(#pfa035f3485)" d="M 627.079893 379.124436 
L 632.164536 379.124436 
L 632.164536 133.146071 
L 627.079893 133.146071 
z
" style="fill:#348abd;opacity:0.85;"/>
   </g>
   <g id="patch_92">
    <path clip-path="url(#pfa035f3485)" d="M 633.435696 379.124436 
L 638.520339 379.124436 
L 638.520339 131.890164 
L 633.435696 131.890164 
z
" style="fill:#348abd;opacity:0.85;"/>
   </g>
   <g id="patch_93">
    <path clip-path="url(#pfa035f3485)" d="M 639.7915 379.124436 
L 644.876143 379.124436 
L 644.876143 135.299054 
L 639.7915 135.299054 
z
" style="fill:#348abd;opacity:0.85;"/>
   </g>
   <g id="patch_94">
    <path clip-path="url(#pfa035f3485)" d="M 646.147304 379.124436 
L 651.231946 379.124436 
L 651.231946 150.190523 
L 646.147304 150.190523 
z
" style="fill:#348abd;opacity:0.85;"/>
   </g>
   <g id="patch_95">
    <path clip-path="url(#pfa035f3485)" d="M 652.503107 379.124436 
L 657.58775 379.124436 
L 657.58775 139.963852 
L 652.503107 139.963852 
z
" style="fill:#348abd;opacity:0.85;"/>
   </g>
   <g id="patch_96">
    <path clip-path="url(#pfa035f3485)" d="M 658.858911 379.124436 
L 663.943554 379.124436 
L 663.943554 139.066775 
L 658.858911 139.066775 
z
" style="fill:#348abd;opacity:0.85;"/>
   </g>
   <g id="patch_97">
    <path clip-path="url(#pfa035f3485)" d="M 665.214714 379.124436 
L 670.299357 379.124436 
L 670.299357 146.781633 
L 665.214714 146.781633 
z
" style="fill:#348abd;opacity:0.85;"/>
   </g>
   <g id="patch_98">
    <path clip-path="url(#pfa035f3485)" d="M 671.570518 379.124436 
L 676.655161 379.124436 
L 676.655161 113.769219 
L 671.570518 113.769219 
z
" style="fill:#348abd;opacity:0.85;"/>
   </g>
   <g id="patch_99">
    <path clip-path="url(#pfa035f3485)" d="M 677.926321 379.124436 
L 683.010964 379.124436 
L 683.010964 123.098814 
L 677.926321 123.098814 
z
" style="fill:#348abd;opacity:0.85;"/>
   </g>
   <g id="patch_100">
    <path clip-path="url(#pfa035f3485)" d="M 684.282125 379.124436 
L 689.366768 379.124436 
L 689.366768 117.895771 
L 684.282125 117.895771 
z
" style="fill:#348abd;opacity:0.85;"/>
   </g>
   <g id="patch_101">
    <path clip-path="url(#pfa035f3485)" d="M 690.637929 379.124436 
L 695.722571 379.124436 
L 695.722571 137.990283 
L 690.637929 137.990283 
z
" style="fill:#348abd;opacity:0.85;"/>
   </g>
   <g id="patch_102">
    <path clip-path="url(#pfa035f3485)" d="M 696.993732 379.124436 
L 702.078375 379.124436 
L 702.078375 105.516116 
L 696.993732 105.516116 
z
" style="fill:#348abd;opacity:0.85;"/>
   </g>
   <g id="patch_103">
    <path clip-path="url(#pfa035f3485)" d="M 703.349536 379.124436 
L 708.434179 379.124436 
L 708.434179 143.552158 
L 703.349536 143.552158 
z
" style="fill:#348abd;opacity:0.85;"/>
   </g>
   <g id="patch_104">
    <path clip-path="url(#pfa035f3485)" d="M 709.705339 379.124436 
L 714.789982 379.124436 
L 714.789982 124.175306 
L 709.705339 124.175306 
z
" style="fill:#348abd;opacity:0.85;"/>
   </g>
   <g id="patch_105">
    <path clip-path="url(#pfa035f3485)" d="M 716.061143 379.124436 
L 721.145786 379.124436 
L 721.145786 125.969459 
L 716.061143 125.969459 
z
" style="fill:#348abd;opacity:0.85;"/>
   </g>
   <g id="patch_106">
    <path clip-path="url(#pfa035f3485)" d="M 722.416946 379.124436 
L 727.501589 379.124436 
L 727.501589 104.439624 
L 722.416946 104.439624 
z
" style="fill:#348abd;opacity:0.85;"/>
   </g>
   <g id="patch_107">
    <path clip-path="url(#pfa035f3485)" d="M 728.77275 379.124436 
L 733.857393 379.124436 
L 733.857393 149.114032 
L 728.77275 149.114032 
z
" style="fill:#348abd;opacity:0.85;"/>
   </g>
   <g id="patch_108">
    <path clip-path="url(#pfa035f3485)" d="M 735.128554 379.124436 
L 740.213196 379.124436 
L 740.213196 125.431213 
L 735.128554 125.431213 
z
" style="fill:#348abd;opacity:0.85;"/>
   </g>
   <g id="patch_109">
    <path clip-path="url(#pfa035f3485)" d="M 741.484357 379.124436 
L 746.569 379.124436 
L 746.569 149.293447 
L 741.484357 149.293447 
z
" style="fill:#348abd;opacity:0.85;"/>
   </g>
   <g id="patch_110">
    <path clip-path="url(#pfa035f3485)" d="M 747.840161 379.124436 
L 752.924804 379.124436 
L 752.924804 115.025126 
L 747.840161 115.025126 
z
" style="fill:#348abd;opacity:0.85;"/>
   </g>
   <g id="patch_111">
    <path clip-path="url(#pfa035f3485)" d="M 754.195964 379.124436 
L 759.280607 379.124436 
L 759.280607 94.571783 
L 754.195964 94.571783 
z
" style="fill:#348abd;opacity:0.85;"/>
   </g>
   <g id="patch_112">
    <path clip-path="url(#pfa035f3485)" d="M 760.551768 379.124436 
L 765.636411 379.124436 
L 765.636411 109.822083 
L 760.551768 109.822083 
z
" style="fill:#348abd;opacity:0.85;"/>
   </g>
   <g id="patch_113">
    <path clip-path="url(#pfa035f3485)" d="M 766.907571 379.124436 
L 771.992214 379.124436 
L 771.992214 129.916595 
L 766.907571 129.916595 
z
" style="fill:#348abd;opacity:0.85;"/>
   </g>
   <g id="patch_114">
    <path clip-path="url(#pfa035f3485)" d="M 773.263375 379.124436 
L 778.348018 379.124436 
L 778.348018 116.998694 
L 773.263375 116.998694 
z
" style="fill:#348abd;opacity:0.85;"/>
   </g>
   <g id="patch_115">
    <path clip-path="url(#pfa035f3485)" d="M 779.619179 379.124436 
L 784.703821 379.124436 
L 784.703821 105.874946 
L 779.619179 105.874946 
z
" style="fill:#348abd;opacity:0.85;"/>
   </g>
   <g id="patch_116">
    <path clip-path="url(#pfa035f3485)" d="M 785.974982 379.124436 
L 791.059625 379.124436 
L 791.059625 105.157285 
L 785.974982 105.157285 
z
" style="fill:#348abd;opacity:0.85;"/>
   </g>
   <g id="patch_117">
    <path clip-path="url(#pfa035f3485)" d="M 792.330786 379.124436 
L 797.415429 379.124436 
L 797.415429 120.587 
L 792.330786 120.587 
z
" style="fill:#348abd;opacity:0.85;"/>
   </g>
   <g id="patch_118">
    <path clip-path="url(#pfa035f3485)" d="M 798.686589 379.124436 
L 803.771232 379.124436 
L 803.771232 121.125246 
L 798.686589 121.125246 
z
" style="fill:#348abd;opacity:0.85;"/>
   </g>
   <g id="patch_119">
    <path clip-path="url(#pfa035f3485)" d="M 805.042393 379.124436 
L 810.127036 379.124436 
L 810.127036 97.263012 
L 805.042393 97.263012 
z
" style="fill:#348abd;opacity:0.85;"/>
   </g>
   <g id="patch_120">
    <path clip-path="url(#pfa035f3485)" d="M 811.398196 379.124436 
L 816.482839 379.124436 
L 816.482839 117.895771 
L 811.398196 117.895771 
z
" style="fill:#348abd;opacity:0.85;"/>
   </g>
   <g id="patch_121">
    <path clip-path="url(#pfa035f3485)" d="M 817.754 379.124436 
L 822.838643 379.124436 
L 822.838643 110.001498 
L 817.754 110.001498 
z
" style="fill:#348abd;opacity:0.85;"/>
   </g>
   <g id="patch_122">
    <path clip-path="url(#pfa035f3485)" d="M 824.109804 379.124436 
L 829.194446 379.124436 
L 829.194446 114.12805 
L 824.109804 114.12805 
z
" style="fill:#348abd;opacity:0.85;"/>
   </g>
   <g id="patch_123">
    <path clip-path="url(#pfa035f3485)" d="M 830.465607 379.124436 
L 835.55025 379.124436 
L 835.55025 115.742787 
L 830.465607 115.742787 
z
" style="fill:#348abd;opacity:0.85;"/>
   </g>
   <g id="patch_124">
    <path clip-path="url(#pfa035f3485)" d="M 836.821411 379.124436 
L 841.906054 379.124436 
L 841.906054 132.607825 
L 836.821411 132.607825 
z
" style="fill:#348abd;opacity:0.85;"/>
   </g>
   <g id="patch_125">
    <path clip-path="url(#pfa035f3485)" d="M 843.177214 379.124436 
L 848.261857 379.124436 
L 848.261857 149.652277 
L 843.177214 149.652277 
z
" style="fill:#348abd;opacity:0.85;"/>
   </g>
   <g id="patch_126">
    <path clip-path="url(#pfa035f3485)" d="M 849.533018 379.124436 
L 854.617661 379.124436 
L 854.617661 130.993087 
L 849.533018 130.993087 
z
" style="fill:#348abd;opacity:0.85;"/>
   </g>
   <g id="patch_127">
    <path clip-path="url(#pfa035f3485)" d="M 855.888821 379.124436 
L 860.973464 379.124436 
L 860.973464 103.721963 
L 855.888821 103.721963 
z
" style="fill:#348abd;opacity:0.85;"/>
   </g>
   <g id="patch_128">
    <path clip-path="url(#pfa035f3485)" d="M 862.244625 379.124436 
L 867.329268 379.124436 
L 867.329268 144.98748 
L 862.244625 144.98748 
z
" style="fill:#348abd;opacity:0.85;"/>
   </g>
   <g id="patch_129">
    <path clip-path="url(#pfa035f3485)" d="M 868.600429 379.124436 
L 873.685071 379.124436 
L 873.685071 129.916595 
L 868.600429 129.916595 
z
" style="fill:#348abd;opacity:0.85;"/>
   </g>
   <g id="patch_130">
    <path clip-path="url(#pfa035f3485)" d="M 874.956232 379.124436 
L 880.040875 379.124436 
L 880.040875 96.007105 
L 874.956232 96.007105 
z
" style="fill:#348abd;opacity:0.85;"/>
   </g>
   <g id="patch_131">
    <path clip-path="url(#pfa035f3485)" d="M 881.312036 379.124436 
L 886.396679 379.124436 
L 886.396679 140.143267 
L 881.312036 140.143267 
z
" style="fill:#348abd;opacity:0.85;"/>
   </g>
   <g id="patch_132">
    <path clip-path="url(#pfa035f3485)" d="M 887.667839 379.124436 
L 892.752482 379.124436 
L 892.752482 100.313072 
L 887.667839 100.313072 
z
" style="fill:#348abd;opacity:0.85;"/>
   </g>
   <g id="patch_133">
    <path clip-path="url(#pfa035f3485)" d="M 894.023643 379.124436 
L 899.108286 379.124436 
L 899.108286 135.657885 
L 894.023643 135.657885 
z
" style="fill:#348abd;opacity:0.85;"/>
   </g>
   <g id="patch_134">
    <path clip-path="url(#pfa035f3485)" d="M 900.379446 379.124436 
L 905.464089 379.124436 
L 905.464089 130.275426 
L 900.379446 130.275426 
z
" style="fill:#348abd;opacity:0.85;"/>
   </g>
   <g id="patch_135">
    <path clip-path="url(#pfa035f3485)" d="M 906.73525 379.124436 
L 911.819893 379.124436 
L 911.819893 119.869339 
L 906.73525 119.869339 
z
" style="fill:#348abd;opacity:0.85;"/>
   </g>
   <g id="patch_136">
    <path clip-path="url(#pfa035f3485)" d="M 913.091054 379.124436 
L 918.175696 379.124436 
L 918.175696 112.692727 
L 913.091054 112.692727 
z
" style="fill:#348abd;opacity:0.85;"/>
   </g>
   <g id="patch_137">
    <path clip-path="url(#pfa035f3485)" d="M 919.446857 379.124436 
L 924.5315 379.124436 
L 924.5315 132.428409 
L 919.446857 132.428409 
z
" style="fill:#348abd;opacity:0.85;"/>
   </g>
   <g id="patch_138">
    <path clip-path="url(#pfa035f3485)" d="M 925.802661 379.124436 
L 930.887304 379.124436 
L 930.887304 109.283837 
L 925.802661 109.283837 
z
" style="fill:#348abd;opacity:0.85;"/>
   </g>
   <g id="patch_139">
    <path clip-path="url(#pfa035f3485)" d="M 932.158464 379.124436 
L 937.243107 379.124436 
L 937.243107 104.260209 
L 932.158464 104.260209 
z
" style="fill:#348abd;opacity:0.85;"/>
   </g>
   <g id="patch_140">
    <path clip-path="url(#pfa035f3485)" d="M 938.514268 379.124436 
L 943.598911 379.124436 
L 943.598911 88.471663 
L 938.514268 88.471663 
z
" style="fill:#348abd;opacity:0.85;"/>
   </g>
   <g id="patch_141">
    <path clip-path="url(#pfa035f3485)" d="M 944.870071 379.124436 
L 949.954714 379.124436 
L 949.954714 125.790044 
L 944.870071 125.790044 
z
" style="fill:#348abd;opacity:0.85;"/>
   </g>
   <g id="patch_142">
    <path clip-path="url(#pfa035f3485)" d="M 951.225875 379.124436 
L 956.310518 379.124436 
L 956.310518 119.689924 
L 951.225875 119.689924 
z
" style="fill:#348abd;opacity:0.85;"/>
   </g>
   <g id="patch_143">
    <path clip-path="url(#pfa035f3485)" d="M 957.581679 379.124436 
L 962.666321 379.124436 
L 962.666321 80.397975 
L 957.581679 80.397975 
z
" style="fill:#348abd;opacity:0.85;"/>
   </g>
   <g id="patch_144">
    <path clip-path="url(#pfa035f3485)" d="M 963.937482 379.124436 
L 969.022125 379.124436 
L 969.022125 100.492487 
L 963.937482 100.492487 
z
" style="fill:#348abd;opacity:0.85;"/>
   </g>
   <g id="patch_145">
    <path clip-path="url(#pfa035f3485)" d="M 970.293286 379.124436 
L 975.377929 379.124436 
L 975.377929 97.083597 
L 970.293286 97.083597 
z
" style="fill:#348abd;opacity:0.85;"/>
   </g>
   <g id="patch_146">
    <path clip-path="url(#pfa035f3485)" d="M 976.649089 379.124436 
L 981.733732 379.124436 
L 981.733732 87.395171 
L 976.649089 87.395171 
z
" style="fill:#348abd;opacity:0.85;"/>
   </g>
   <g id="patch_147">
    <path clip-path="url(#pfa035f3485)" d="M 983.004893 379.124436 
L 988.089536 379.124436 
L 988.089536 117.53694 
L 983.004893 117.53694 
z
" style="fill:#348abd;opacity:0.85;"/>
   </g>
   <g id="patch_148">
    <path clip-path="url(#pfa035f3485)" d="M 989.360696 379.124436 
L 994.445339 379.124436 
L 994.445339 128.481273 
L 989.360696 128.481273 
z
" style="fill:#348abd;opacity:0.85;"/>
   </g>
   <g id="patch_149">
    <path clip-path="url(#pfa035f3485)" d="M 995.7165 379.124436 
L 1000.801143 379.124436 
L 1000.801143 101.389564 
L 995.7165 101.389564 
z
" style="fill:#348abd;opacity:0.85;"/>
   </g>
   <g id="patch_150">
    <path clip-path="url(#pfa035f3485)" d="M 1002.072304 379.124436 
L 1007.156946 379.124436 
L 1007.156946 93.854122 
L 1002.072304 93.854122 
z
" style="fill:#348abd;opacity:0.85;"/>
   </g>
   <g id="patch_151">
    <path clip-path="url(#pfa035f3485)" d="M 1008.428107 379.124436 
L 1013.51275 379.124436 
L 1013.51275 95.289444 
L 1008.428107 95.289444 
z
" style="fill:#348abd;opacity:0.85;"/>
   </g>
   <g id="patch_152">
    <path clip-path="url(#pfa035f3485)" d="M 1014.783911 379.124436 
L 1019.868554 379.124436 
L 1019.868554 116.998694 
L 1014.783911 116.998694 
z
" style="fill:#348abd;opacity:0.85;"/>
   </g>
   <g id="patch_153">
    <path clip-path="url(#pfa035f3485)" d="M 1021.139714 379.124436 
L 1026.224357 379.124436 
L 1026.224357 116.639864 
L 1021.139714 116.639864 
z
" style="fill:#348abd;opacity:0.85;"/>
   </g>
   <g id="patch_154">
    <path clip-path="url(#pfa035f3485)" d="M 1027.495518 379.124436 
L 1032.580161 379.124436 
L 1032.580161 121.304661 
L 1027.495518 121.304661 
z
" style="fill:#348abd;opacity:0.85;"/>
   </g>
   <g id="patch_155">
    <path clip-path="url(#pfa035f3485)" d="M 1033.851321 379.124436 
L 1038.935964 379.124436 
L 1038.935964 96.365936 
L 1033.851321 96.365936 
z
" style="fill:#348abd;opacity:0.85;"/>
   </g>
   <g id="patch_156">
    <path clip-path="url(#pfa035f3485)" d="M 1040.207125 379.124436 
L 1045.291768 379.124436 
L 1045.291768 95.289444 
L 1040.207125 95.289444 
z
" style="fill:#348abd;opacity:0.85;"/>
   </g>
   <g id="patch_157">
    <path clip-path="url(#pfa035f3485)" d="M 1046.562929 379.124436 
L 1051.647571 379.124436 
L 1051.647571 76.989084 
L 1046.562929 76.989084 
z
" style="fill:#348abd;opacity:0.85;"/>
   </g>
   <g id="patch_158">
    <path clip-path="url(#pfa035f3485)" d="M 1052.918732 379.124436 
L 1058.003375 379.124436 
L 1058.003375 113.051558 
L 1052.918732 113.051558 
z
" style="fill:#348abd;opacity:0.85;"/>
   </g>
   <g id="patch_159">
    <path clip-path="url(#pfa035f3485)" d="M 1059.274536 379.124436 
L 1064.359179 379.124436 
L 1064.359179 111.975066 
L 1059.274536 111.975066 
z
" style="fill:#348abd;opacity:0.85;"/>
   </g>
   <g id="patch_160">
    <path clip-path="url(#pfa035f3485)" d="M 1065.630339 379.124436 
L 1070.714982 379.124436 
L 1070.714982 94.571783 
L 1065.630339 94.571783 
z
" style="fill:#348abd;opacity:0.85;"/>
   </g>
   <g id="patch_161">
    <path clip-path="url(#pfa035f3485)" d="M 1071.986143 379.124436 
L 1077.070786 379.124436 
L 1077.070786 103.004302 
L 1071.986143 103.004302 
z
" style="fill:#348abd;opacity:0.85;"/>
   </g>
   <g id="patch_162">
    <path clip-path="url(#pfa035f3485)" d="M 1078.341946 379.124436 
L 1083.426589 379.124436 
L 1083.426589 89.009909 
L 1078.341946 89.009909 
z
" style="fill:#348abd;opacity:0.85;"/>
   </g>
   <g id="patch_163">
    <path clip-path="url(#pfa035f3485)" d="M 1084.69775 379.124436 
L 1089.782393 379.124436 
L 1089.782393 102.824886 
L 1084.69775 102.824886 
z
" style="fill:#348abd;opacity:0.85;"/>
   </g>
   <g id="patch_164">
    <path clip-path="url(#pfa035f3485)" d="M 1091.053554 379.124436 
L 1096.138196 379.124436 
L 1096.138196 78.603822 
L 1091.053554 78.603822 
z
" style="fill:#348abd;opacity:0.85;"/>
   </g>
   <g id="patch_165">
    <path clip-path="url(#pfa035f3485)" d="M 1097.409357 379.124436 
L 1102.494 379.124436 
L 1102.494 100.492487 
L 1097.409357 100.492487 
z
" style="fill:#348abd;opacity:0.85;"/>
   </g>
   <g id="patch_166">
    <path clip-path="url(#pfa035f3485)" d="M 1103.765161 379.124436 
L 1108.849804 379.124436 
L 1108.849804 106.233777 
L 1103.765161 106.233777 
z
" style="fill:#348abd;opacity:0.85;"/>
   </g>
   <g id="patch_167">
    <path clip-path="url(#pfa035f3485)" d="M 1110.120964 379.124436 
L 1115.205607 379.124436 
L 1115.205607 122.739984 
L 1110.120964 122.739984 
z
" style="fill:#348abd;opacity:0.85;"/>
   </g>
   <g id="patch_168">
    <path clip-path="url(#pfa035f3485)" d="M 1116.476768 379.124436 
L 1121.561411 379.124436 
L 1121.561411 106.772023 
L 1116.476768 106.772023 
z
" style="fill:#348abd;opacity:0.85;"/>
   </g>
   <g id="patch_169">
    <path clip-path="url(#pfa035f3485)" d="M 1122.832571 379.124436 
L 1127.917214 379.124436 
L 1127.917214 99.415996 
L 1122.832571 99.415996 
z
" style="fill:#348abd;opacity:0.85;"/>
   </g>
   <g id="patch_170">
    <path clip-path="url(#pfa035f3485)" d="M 1129.188375 379.124436 
L 1134.273018 379.124436 
L 1134.273018 106.233777 
L 1129.188375 106.233777 
z
" style="fill:#348abd;opacity:0.85;"/>
   </g>
   <g id="matplotlib.axis_1">
    <g id="xtick_1">
     <g id="line2d_1">
      <path clip-path="url(#pfa035f3485)" d="M 70.3115 379.124436 
L 70.3115 33.247636 
" style="fill:none;stroke:#808080;stroke-dasharray:0.3,0.495;stroke-dashoffset:0;stroke-width:0.3;"/>
     </g>
     <g id="line2d_2">
      <defs>
       <path d="M 0 0 
L 0 3.5 
" id="ma50a8576db" style="stroke:#000000;stroke-width:0.8;"/>
      </defs>
      <g>
       <use style="stroke:#000000;stroke-width:0.8;" x="70.3115" xlink:href="#ma50a8576db" y="379.124436"/>
      </g>
     </g>
     <g id="text_1">
      <!-- 0 -->
      <defs>
       <path d="M 31.78125 66.40625 
Q 24.171875 66.40625 20.328125 58.90625 
Q 16.5 51.421875 16.5 36.375 
Q 16.5 21.390625 20.328125 13.890625 
Q 24.171875 6.390625 31.78125 6.390625 
Q 39.453125 6.390625 43.28125 13.890625 
Q 47.125 21.390625 47.125 36.375 
Q 47.125 51.421875 43.28125 58.90625 
Q 39.453125 66.40625 31.78125 66.40625 
z
M 31.78125 74.21875 
Q 44.046875 74.21875 50.515625 64.515625 
Q 56.984375 54.828125 56.984375 36.375 
Q 56.984375 17.96875 50.515625 8.265625 
Q 44.046875 -1.421875 31.78125 -1.421875 
Q 19.53125 -1.421875 13.0625 8.265625 
Q 6.59375 17.96875 6.59375 36.375 
Q 6.59375 54.828125 13.0625 64.515625 
Q 19.53125 74.21875 31.78125 74.21875 
z
" id="DejaVuSans-48"/>
      </defs>
      <g transform="translate(66.494 395.242561)scale(0.12 -0.12)">
       <use xlink:href="#DejaVuSans-48"/>
      </g>
     </g>
    </g>
    <g id="xtick_2">
     <g id="line2d_3">
      <path clip-path="url(#pfa035f3485)" d="M 197.427571 379.124436 
L 197.427571 33.247636 
" style="fill:none;stroke:#808080;stroke-dasharray:0.3,0.495;stroke-dashoffset:0;stroke-width:0.3;"/>
     </g>
     <g id="line2d_4">
      <g>
       <use style="stroke:#000000;stroke-width:0.8;" x="197.427571" xlink:href="#ma50a8576db" y="379.124436"/>
      </g>
     </g>
     <g id="text_2">
      <!-- 20 -->
      <defs>
       <path d="M 19.1875 8.296875 
L 53.609375 8.296875 
L 53.609375 0 
L 7.328125 0 
L 7.328125 8.296875 
Q 12.9375 14.109375 22.625 23.890625 
Q 32.328125 33.6875 34.8125 36.53125 
Q 39.546875 41.84375 41.421875 45.53125 
Q 43.3125 49.21875 43.3125 52.78125 
Q 43.3125 58.59375 39.234375 62.25 
Q 35.15625 65.921875 28.609375 65.921875 
Q 23.96875 65.921875 18.8125 64.3125 
Q 13.671875 62.703125 7.8125 59.421875 
L 7.8125 69.390625 
Q 13.765625 71.78125 18.9375 73 
Q 24.125 74.21875 28.421875 74.21875 
Q 39.75 74.21875 46.484375 68.546875 
Q 53.21875 62.890625 53.21875 53.421875 
Q 53.21875 48.921875 51.53125 44.890625 
Q 49.859375 40.875 45.40625 35.40625 
Q 44.1875 33.984375 37.640625 27.21875 
Q 31.109375 20.453125 19.1875 8.296875 
z
" id="DejaVuSans-50"/>
      </defs>
      <g transform="translate(189.792571 395.242561)scale(0.12 -0.12)">
       <use xlink:href="#DejaVuSans-50"/>
       <use x="63.623047" xlink:href="#DejaVuSans-48"/>
      </g>
     </g>
    </g>
    <g id="xtick_3">
     <g id="line2d_5">
      <path clip-path="url(#pfa035f3485)" d="M 324.543643 379.124436 
L 324.543643 33.247636 
" style="fill:none;stroke:#808080;stroke-dasharray:0.3,0.495;stroke-dashoffset:0;stroke-width:0.3;"/>
     </g>
     <g id="line2d_6">
      <g>
       <use style="stroke:#000000;stroke-width:0.8;" x="324.543643" xlink:href="#ma50a8576db" y="379.124436"/>
      </g>
     </g>
     <g id="text_3">
      <!-- 40 -->
      <defs>
       <path d="M 37.796875 64.3125 
L 12.890625 25.390625 
L 37.796875 25.390625 
z
M 35.203125 72.90625 
L 47.609375 72.90625 
L 47.609375 25.390625 
L 58.015625 25.390625 
L 58.015625 17.1875 
L 47.609375 17.1875 
L 47.609375 0 
L 37.796875 0 
L 37.796875 17.1875 
L 4.890625 17.1875 
L 4.890625 26.703125 
z
" id="DejaVuSans-52"/>
      </defs>
      <g transform="translate(316.908643 395.242561)scale(0.12 -0.12)">
       <use xlink:href="#DejaVuSans-52"/>
       <use x="63.623047" xlink:href="#DejaVuSans-48"/>
      </g>
     </g>
    </g>
    <g id="xtick_4">
     <g id="line2d_7">
      <path clip-path="url(#pfa035f3485)" d="M 451.659714 379.124436 
L 451.659714 33.247636 
" style="fill:none;stroke:#808080;stroke-dasharray:0.3,0.495;stroke-dashoffset:0;stroke-width:0.3;"/>
     </g>
     <g id="line2d_8">
      <g>
       <use style="stroke:#000000;stroke-width:0.8;" x="451.659714" xlink:href="#ma50a8576db" y="379.124436"/>
      </g>
     </g>
     <g id="text_4">
      <!-- 60 -->
      <defs>
       <path d="M 33.015625 40.375 
Q 26.375 40.375 22.484375 35.828125 
Q 18.609375 31.296875 18.609375 23.390625 
Q 18.609375 15.53125 22.484375 10.953125 
Q 26.375 6.390625 33.015625 6.390625 
Q 39.65625 6.390625 43.53125 10.953125 
Q 47.40625 15.53125 47.40625 23.390625 
Q 47.40625 31.296875 43.53125 35.828125 
Q 39.65625 40.375 33.015625 40.375 
z
M 52.59375 71.296875 
L 52.59375 62.3125 
Q 48.875 64.0625 45.09375 64.984375 
Q 41.3125 65.921875 37.59375 65.921875 
Q 27.828125 65.921875 22.671875 59.328125 
Q 17.53125 52.734375 16.796875 39.40625 
Q 19.671875 43.65625 24.015625 45.921875 
Q 28.375 48.1875 33.59375 48.1875 
Q 44.578125 48.1875 50.953125 41.515625 
Q 57.328125 34.859375 57.328125 23.390625 
Q 57.328125 12.15625 50.6875 5.359375 
Q 44.046875 -1.421875 33.015625 -1.421875 
Q 20.359375 -1.421875 13.671875 8.265625 
Q 6.984375 17.96875 6.984375 36.375 
Q 6.984375 53.65625 15.1875 63.9375 
Q 23.390625 74.21875 37.203125 74.21875 
Q 40.921875 74.21875 44.703125 73.484375 
Q 48.484375 72.75 52.59375 71.296875 
z
" id="DejaVuSans-54"/>
      </defs>
      <g transform="translate(444.024714 395.242561)scale(0.12 -0.12)">
       <use xlink:href="#DejaVuSans-54"/>
       <use x="63.623047" xlink:href="#DejaVuSans-48"/>
      </g>
     </g>
    </g>
    <g id="xtick_5">
     <g id="line2d_9">
      <path clip-path="url(#pfa035f3485)" d="M 578.775786 379.124436 
L 578.775786 33.247636 
" style="fill:none;stroke:#808080;stroke-dasharray:0.3,0.495;stroke-dashoffset:0;stroke-width:0.3;"/>
     </g>
     <g id="line2d_10">
      <g>
       <use style="stroke:#000000;stroke-width:0.8;" x="578.775786" xlink:href="#ma50a8576db" y="379.124436"/>
      </g>
     </g>
     <g id="text_5">
      <!-- 80 -->
      <defs>
       <path d="M 31.78125 34.625 
Q 24.75 34.625 20.71875 30.859375 
Q 16.703125 27.09375 16.703125 20.515625 
Q 16.703125 13.921875 20.71875 10.15625 
Q 24.75 6.390625 31.78125 6.390625 
Q 38.8125 6.390625 42.859375 10.171875 
Q 46.921875 13.96875 46.921875 20.515625 
Q 46.921875 27.09375 42.890625 30.859375 
Q 38.875 34.625 31.78125 34.625 
z
M 21.921875 38.8125 
Q 15.578125 40.375 12.03125 44.71875 
Q 8.5 49.078125 8.5 55.328125 
Q 8.5 64.0625 14.71875 69.140625 
Q 20.953125 74.21875 31.78125 74.21875 
Q 42.671875 74.21875 48.875 69.140625 
Q 55.078125 64.0625 55.078125 55.328125 
Q 55.078125 49.078125 51.53125 44.71875 
Q 48 40.375 41.703125 38.8125 
Q 48.828125 37.15625 52.796875 32.3125 
Q 56.78125 27.484375 56.78125 20.515625 
Q 56.78125 9.90625 50.3125 4.234375 
Q 43.84375 -1.421875 31.78125 -1.421875 
Q 19.734375 -1.421875 13.25 4.234375 
Q 6.78125 9.90625 6.78125 20.515625 
Q 6.78125 27.484375 10.78125 32.3125 
Q 14.796875 37.15625 21.921875 38.8125 
z
M 18.3125 54.390625 
Q 18.3125 48.734375 21.84375 45.5625 
Q 25.390625 42.390625 31.78125 42.390625 
Q 38.140625 42.390625 41.71875 45.5625 
Q 45.3125 48.734375 45.3125 54.390625 
Q 45.3125 60.0625 41.71875 63.234375 
Q 38.140625 66.40625 31.78125 66.40625 
Q 25.390625 66.40625 21.84375 63.234375 
Q 18.3125 60.0625 18.3125 54.390625 
z
" id="DejaVuSans-56"/>
      </defs>
      <g transform="translate(571.140786 395.242561)scale(0.12 -0.12)">
       <use xlink:href="#DejaVuSans-56"/>
       <use x="63.623047" xlink:href="#DejaVuSans-48"/>
      </g>
     </g>
    </g>
    <g id="xtick_6">
     <g id="line2d_11">
      <path clip-path="url(#pfa035f3485)" d="M 705.891857 379.124436 
L 705.891857 33.247636 
" style="fill:none;stroke:#808080;stroke-dasharray:0.3,0.495;stroke-dashoffset:0;stroke-width:0.3;"/>
     </g>
     <g id="line2d_12">
      <g>
       <use style="stroke:#000000;stroke-width:0.8;" x="705.891857" xlink:href="#ma50a8576db" y="379.124436"/>
      </g>
     </g>
     <g id="text_6">
      <!-- 100 -->
      <defs>
       <path d="M 12.40625 8.296875 
L 28.515625 8.296875 
L 28.515625 63.921875 
L 10.984375 60.40625 
L 10.984375 69.390625 
L 28.421875 72.90625 
L 38.28125 72.90625 
L 38.28125 8.296875 
L 54.390625 8.296875 
L 54.390625 0 
L 12.40625 0 
z
" id="DejaVuSans-49"/>
      </defs>
      <g transform="translate(694.439357 395.242561)scale(0.12 -0.12)">
       <use xlink:href="#DejaVuSans-49"/>
       <use x="63.623047" xlink:href="#DejaVuSans-48"/>
       <use x="127.246094" xlink:href="#DejaVuSans-48"/>
      </g>
     </g>
    </g>
    <g id="xtick_7">
     <g id="line2d_13">
      <path clip-path="url(#pfa035f3485)" d="M 833.007929 379.124436 
L 833.007929 33.247636 
" style="fill:none;stroke:#808080;stroke-dasharray:0.3,0.495;stroke-dashoffset:0;stroke-width:0.3;"/>
     </g>
     <g id="line2d_14">
      <g>
       <use style="stroke:#000000;stroke-width:0.8;" x="833.007929" xlink:href="#ma50a8576db" y="379.124436"/>
      </g>
     </g>
     <g id="text_7">
      <!-- 120 -->
      <g transform="translate(821.555429 395.242561)scale(0.12 -0.12)">
       <use xlink:href="#DejaVuSans-49"/>
       <use x="63.623047" xlink:href="#DejaVuSans-50"/>
       <use x="127.246094" xlink:href="#DejaVuSans-48"/>
      </g>
     </g>
    </g>
    <g id="xtick_8">
     <g id="line2d_15">
      <path clip-path="url(#pfa035f3485)" d="M 960.124 379.124436 
L 960.124 33.247636 
" style="fill:none;stroke:#808080;stroke-dasharray:0.3,0.495;stroke-dashoffset:0;stroke-width:0.3;"/>
     </g>
     <g id="line2d_16">
      <g>
       <use style="stroke:#000000;stroke-width:0.8;" x="960.124" xlink:href="#ma50a8576db" y="379.124436"/>
      </g>
     </g>
     <g id="text_8">
      <!-- 140 -->
      <g transform="translate(948.6715 395.242561)scale(0.12 -0.12)">
       <use xlink:href="#DejaVuSans-49"/>
       <use x="63.623047" xlink:href="#DejaVuSans-52"/>
       <use x="127.246094" xlink:href="#DejaVuSans-48"/>
      </g>
     </g>
    </g>
    <g id="xtick_9">
     <g id="line2d_17">
      <path clip-path="url(#pfa035f3485)" d="M 1087.240071 379.124436 
L 1087.240071 33.247636 
" style="fill:none;stroke:#808080;stroke-dasharray:0.3,0.495;stroke-dashoffset:0;stroke-width:0.3;"/>
     </g>
     <g id="line2d_18">
      <g>
       <use style="stroke:#000000;stroke-width:0.8;" x="1087.240071" xlink:href="#ma50a8576db" y="379.124436"/>
      </g>
     </g>
     <g id="text_9">
      <!-- 160 -->
      <g transform="translate(1075.787571 395.242561)scale(0.12 -0.12)">
       <use xlink:href="#DejaVuSans-49"/>
       <use x="63.623047" xlink:href="#DejaVuSans-54"/>
       <use x="127.246094" xlink:href="#DejaVuSans-48"/>
      </g>
     </g>
    </g>
    <g id="text_10">
     <!-- Time (in hours) -->
     <defs>
      <path d="M -0.296875 72.90625 
L 61.375 72.90625 
L 61.375 64.59375 
L 35.5 64.59375 
L 35.5 0 
L 25.59375 0 
L 25.59375 64.59375 
L -0.296875 64.59375 
z
" id="DejaVuSans-84"/>
      <path d="M 9.421875 54.6875 
L 18.40625 54.6875 
L 18.40625 0 
L 9.421875 0 
z
M 9.421875 75.984375 
L 18.40625 75.984375 
L 18.40625 64.59375 
L 9.421875 64.59375 
z
" id="DejaVuSans-105"/>
      <path d="M 52 44.1875 
Q 55.375 50.25 60.0625 53.125 
Q 64.75 56 71.09375 56 
Q 79.640625 56 84.28125 50.015625 
Q 88.921875 44.046875 88.921875 33.015625 
L 88.921875 0 
L 79.890625 0 
L 79.890625 32.71875 
Q 79.890625 40.578125 77.09375 44.375 
Q 74.3125 48.1875 68.609375 48.1875 
Q 61.625 48.1875 57.5625 43.546875 
Q 53.515625 38.921875 53.515625 30.90625 
L 53.515625 0 
L 44.484375 0 
L 44.484375 32.71875 
Q 44.484375 40.625 41.703125 44.40625 
Q 38.921875 48.1875 33.109375 48.1875 
Q 26.21875 48.1875 22.15625 43.53125 
Q 18.109375 38.875 18.109375 30.90625 
L 18.109375 0 
L 9.078125 0 
L 9.078125 54.6875 
L 18.109375 54.6875 
L 18.109375 46.1875 
Q 21.1875 51.21875 25.484375 53.609375 
Q 29.78125 56 35.6875 56 
Q 41.65625 56 45.828125 52.96875 
Q 50 49.953125 52 44.1875 
z
" id="DejaVuSans-109"/>
      <path d="M 56.203125 29.59375 
L 56.203125 25.203125 
L 14.890625 25.203125 
Q 15.484375 15.921875 20.484375 11.0625 
Q 25.484375 6.203125 34.421875 6.203125 
Q 39.59375 6.203125 44.453125 7.46875 
Q 49.3125 8.734375 54.109375 11.28125 
L 54.109375 2.78125 
Q 49.265625 0.734375 44.1875 -0.34375 
Q 39.109375 -1.421875 33.890625 -1.421875 
Q 20.796875 -1.421875 13.15625 6.1875 
Q 5.515625 13.8125 5.515625 26.8125 
Q 5.515625 40.234375 12.765625 48.109375 
Q 20.015625 56 32.328125 56 
Q 43.359375 56 49.78125 48.890625 
Q 56.203125 41.796875 56.203125 29.59375 
z
M 47.21875 32.234375 
Q 47.125 39.59375 43.09375 43.984375 
Q 39.0625 48.390625 32.421875 48.390625 
Q 24.90625 48.390625 20.390625 44.140625 
Q 15.875 39.890625 15.1875 32.171875 
z
" id="DejaVuSans-101"/>
      <path id="DejaVuSans-32"/>
      <path d="M 31 75.875 
Q 24.46875 64.65625 21.28125 53.65625 
Q 18.109375 42.671875 18.109375 31.390625 
Q 18.109375 20.125 21.3125 9.0625 
Q 24.515625 -2 31 -13.1875 
L 23.1875 -13.1875 
Q 15.875 -1.703125 12.234375 9.375 
Q 8.59375 20.453125 8.59375 31.390625 
Q 8.59375 42.28125 12.203125 53.3125 
Q 15.828125 64.359375 23.1875 75.875 
z
" id="DejaVuSans-40"/>
      <path d="M 54.890625 33.015625 
L 54.890625 0 
L 45.90625 0 
L 45.90625 32.71875 
Q 45.90625 40.484375 42.875 44.328125 
Q 39.84375 48.1875 33.796875 48.1875 
Q 26.515625 48.1875 22.3125 43.546875 
Q 18.109375 38.921875 18.109375 30.90625 
L 18.109375 0 
L 9.078125 0 
L 9.078125 54.6875 
L 18.109375 54.6875 
L 18.109375 46.1875 
Q 21.34375 51.125 25.703125 53.5625 
Q 30.078125 56 35.796875 56 
Q 45.21875 56 50.046875 50.171875 
Q 54.890625 44.34375 54.890625 33.015625 
z
" id="DejaVuSans-110"/>
      <path d="M 54.890625 33.015625 
L 54.890625 0 
L 45.90625 0 
L 45.90625 32.71875 
Q 45.90625 40.484375 42.875 44.328125 
Q 39.84375 48.1875 33.796875 48.1875 
Q 26.515625 48.1875 22.3125 43.546875 
Q 18.109375 38.921875 18.109375 30.90625 
L 18.109375 0 
L 9.078125 0 
L 9.078125 75.984375 
L 18.109375 75.984375 
L 18.109375 46.1875 
Q 21.34375 51.125 25.703125 53.5625 
Q 30.078125 56 35.796875 56 
Q 45.21875 56 50.046875 50.171875 
Q 54.890625 44.34375 54.890625 33.015625 
z
" id="DejaVuSans-104"/>
      <path d="M 30.609375 48.390625 
Q 23.390625 48.390625 19.1875 42.75 
Q 14.984375 37.109375 14.984375 27.296875 
Q 14.984375 17.484375 19.15625 11.84375 
Q 23.34375 6.203125 30.609375 6.203125 
Q 37.796875 6.203125 41.984375 11.859375 
Q 46.1875 17.53125 46.1875 27.296875 
Q 46.1875 37.015625 41.984375 42.703125 
Q 37.796875 48.390625 30.609375 48.390625 
z
M 30.609375 56 
Q 42.328125 56 49.015625 48.375 
Q 55.71875 40.765625 55.71875 27.296875 
Q 55.71875 13.875 49.015625 6.21875 
Q 42.328125 -1.421875 30.609375 -1.421875 
Q 18.84375 -1.421875 12.171875 6.21875 
Q 5.515625 13.875 5.515625 27.296875 
Q 5.515625 40.765625 12.171875 48.375 
Q 18.84375 56 30.609375 56 
z
" id="DejaVuSans-111"/>
      <path d="M 8.5 21.578125 
L 8.5 54.6875 
L 17.484375 54.6875 
L 17.484375 21.921875 
Q 17.484375 14.15625 20.5 10.265625 
Q 23.53125 6.390625 29.59375 6.390625 
Q 36.859375 6.390625 41.078125 11.03125 
Q 45.3125 15.671875 45.3125 23.6875 
L 45.3125 54.6875 
L 54.296875 54.6875 
L 54.296875 0 
L 45.3125 0 
L 45.3125 8.40625 
Q 42.046875 3.421875 37.71875 1 
Q 33.40625 -1.421875 27.6875 -1.421875 
Q 18.265625 -1.421875 13.375 4.4375 
Q 8.5 10.296875 8.5 21.578125 
z
M 31.109375 56 
z
" id="DejaVuSans-117"/>
      <path d="M 41.109375 46.296875 
Q 39.59375 47.171875 37.8125 47.578125 
Q 36.03125 48 33.890625 48 
Q 26.265625 48 22.1875 43.046875 
Q 18.109375 38.09375 18.109375 28.8125 
L 18.109375 0 
L 9.078125 0 
L 9.078125 54.6875 
L 18.109375 54.6875 
L 18.109375 46.1875 
Q 20.953125 51.171875 25.484375 53.578125 
Q 30.03125 56 36.53125 56 
Q 37.453125 56 38.578125 55.875 
Q 39.703125 55.765625 41.0625 55.515625 
z
" id="DejaVuSans-114"/>
      <path d="M 44.28125 53.078125 
L 44.28125 44.578125 
Q 40.484375 46.53125 36.375 47.5 
Q 32.28125 48.484375 27.875 48.484375 
Q 21.1875 48.484375 17.84375 46.4375 
Q 14.5 44.390625 14.5 40.28125 
Q 14.5 37.15625 16.890625 35.375 
Q 19.28125 33.59375 26.515625 31.984375 
L 29.59375 31.296875 
Q 39.15625 29.25 43.1875 25.515625 
Q 47.21875 21.78125 47.21875 15.09375 
Q 47.21875 7.46875 41.1875 3.015625 
Q 35.15625 -1.421875 24.609375 -1.421875 
Q 20.21875 -1.421875 15.453125 -0.5625 
Q 10.6875 0.296875 5.421875 2 
L 5.421875 11.28125 
Q 10.40625 8.6875 15.234375 7.390625 
Q 20.0625 6.109375 24.8125 6.109375 
Q 31.15625 6.109375 34.5625 8.28125 
Q 37.984375 10.453125 37.984375 14.40625 
Q 37.984375 18.0625 35.515625 20.015625 
Q 33.0625 21.96875 24.703125 23.78125 
L 21.578125 24.515625 
Q 13.234375 26.265625 9.515625 29.90625 
Q 5.8125 33.546875 5.8125 39.890625 
Q 5.8125 47.609375 11.28125 51.796875 
Q 16.75 56 26.8125 56 
Q 31.78125 56 36.171875 55.265625 
Q 40.578125 54.546875 44.28125 53.078125 
z
" id="DejaVuSans-115"/>
      <path d="M 8.015625 75.875 
L 15.828125 75.875 
Q 23.140625 64.359375 26.78125 53.3125 
Q 30.421875 42.28125 30.421875 31.390625 
Q 30.421875 20.453125 26.78125 9.375 
Q 23.140625 -1.703125 15.828125 -13.1875 
L 8.015625 -13.1875 
Q 14.5 -2 17.703125 9.0625 
Q 20.90625 20.125 20.90625 31.390625 
Q 20.90625 42.671875 17.703125 53.65625 
Q 14.5 64.65625 8.015625 75.875 
z
" id="DejaVuSans-41"/>
     </defs>
     <g transform="translate(549.360875 412.679936)scale(0.144 -0.144)">
      <use xlink:href="#DejaVuSans-84"/>
      <use x="61.037109" xlink:href="#DejaVuSans-105"/>
      <use x="88.820312" xlink:href="#DejaVuSans-109"/>
      <use x="186.232422" xlink:href="#DejaVuSans-101"/>
      <use x="247.755859" xlink:href="#DejaVuSans-32"/>
      <use x="279.542969" xlink:href="#DejaVuSans-40"/>
      <use x="318.556641" xlink:href="#DejaVuSans-105"/>
      <use x="346.339844" xlink:href="#DejaVuSans-110"/>
      <use x="409.71875" xlink:href="#DejaVuSans-32"/>
      <use x="441.505859" xlink:href="#DejaVuSans-104"/>
      <use x="504.884766" xlink:href="#DejaVuSans-111"/>
      <use x="566.066406" xlink:href="#DejaVuSans-117"/>
      <use x="629.445312" xlink:href="#DejaVuSans-114"/>
      <use x="670.558594" xlink:href="#DejaVuSans-115"/>
      <use x="722.658203" xlink:href="#DejaVuSans-41"/>
     </g>
    </g>
   </g>
   <g id="matplotlib.axis_2">
    <g id="ytick_1">
     <g id="line2d_19">
      <path clip-path="url(#pfa035f3485)" d="M 70.3115 379.124436 
L 1138.0865 379.124436 
" style="fill:none;stroke:#808080;stroke-dasharray:0.3,0.495;stroke-dashoffset:0;stroke-width:0.3;"/>
     </g>
     <g id="line2d_20">
      <defs>
       <path d="M 0 0 
L -3.5 0 
" id="m6a75b4b58c" style="stroke:#000000;stroke-width:0.8;"/>
      </defs>
      <g>
       <use style="stroke:#000000;stroke-width:0.8;" x="70.3115" xlink:href="#m6a75b4b58c" y="379.124436"/>
      </g>
     </g>
     <g id="text_11">
      <!-- 0 -->
      <g transform="translate(55.6765 383.683498)scale(0.12 -0.12)">
       <use xlink:href="#DejaVuSans-48"/>
      </g>
     </g>
    </g>
    <g id="ytick_2">
     <g id="line2d_21">
      <path clip-path="url(#pfa035f3485)" d="M 70.3115 307.716952 
L 1138.0865 307.716952 
" style="fill:none;stroke:#808080;stroke-dasharray:0.3,0.495;stroke-dashoffset:0;stroke-width:0.3;"/>
     </g>
     <g id="line2d_22">
      <g>
       <use style="stroke:#000000;stroke-width:0.8;" x="70.3115" xlink:href="#m6a75b4b58c" y="307.716952"/>
      </g>
     </g>
     <g id="text_12">
      <!-- 5000 -->
      <defs>
       <path d="M 10.796875 72.90625 
L 49.515625 72.90625 
L 49.515625 64.59375 
L 19.828125 64.59375 
L 19.828125 46.734375 
Q 21.96875 47.46875 24.109375 47.828125 
Q 26.265625 48.1875 28.421875 48.1875 
Q 40.625 48.1875 47.75 41.5 
Q 54.890625 34.8125 54.890625 23.390625 
Q 54.890625 11.625 47.5625 5.09375 
Q 40.234375 -1.421875 26.90625 -1.421875 
Q 22.3125 -1.421875 17.546875 -0.640625 
Q 12.796875 0.140625 7.71875 1.703125 
L 7.71875 11.625 
Q 12.109375 9.234375 16.796875 8.0625 
Q 21.484375 6.890625 26.703125 6.890625 
Q 35.15625 6.890625 40.078125 11.328125 
Q 45.015625 15.765625 45.015625 23.390625 
Q 45.015625 31 40.078125 35.4375 
Q 35.15625 39.890625 26.703125 39.890625 
Q 22.75 39.890625 18.8125 39.015625 
Q 14.890625 38.140625 10.796875 36.28125 
z
" id="DejaVuSans-53"/>
      </defs>
      <g transform="translate(32.7715 312.276015)scale(0.12 -0.12)">
       <use xlink:href="#DejaVuSans-53"/>
       <use x="63.623047" xlink:href="#DejaVuSans-48"/>
       <use x="127.246094" xlink:href="#DejaVuSans-48"/>
       <use x="190.869141" xlink:href="#DejaVuSans-48"/>
      </g>
     </g>
    </g>
    <g id="ytick_3">
     <g id="line2d_23">
      <path clip-path="url(#pfa035f3485)" d="M 70.3115 236.309469 
L 1138.0865 236.309469 
" style="fill:none;stroke:#808080;stroke-dasharray:0.3,0.495;stroke-dashoffset:0;stroke-width:0.3;"/>
     </g>
     <g id="line2d_24">
      <g>
       <use style="stroke:#000000;stroke-width:0.8;" x="70.3115" xlink:href="#m6a75b4b58c" y="236.309469"/>
      </g>
     </g>
     <g id="text_13">
      <!-- 10000 -->
      <g transform="translate(25.1365 240.868531)scale(0.12 -0.12)">
       <use xlink:href="#DejaVuSans-49"/>
       <use x="63.623047" xlink:href="#DejaVuSans-48"/>
       <use x="127.246094" xlink:href="#DejaVuSans-48"/>
       <use x="190.869141" xlink:href="#DejaVuSans-48"/>
       <use x="254.492188" xlink:href="#DejaVuSans-48"/>
      </g>
     </g>
    </g>
    <g id="ytick_4">
     <g id="line2d_25">
      <path clip-path="url(#pfa035f3485)" d="M 70.3115 164.901985 
L 1138.0865 164.901985 
" style="fill:none;stroke:#808080;stroke-dasharray:0.3,0.495;stroke-dashoffset:0;stroke-width:0.3;"/>
     </g>
     <g id="line2d_26">
      <g>
       <use style="stroke:#000000;stroke-width:0.8;" x="70.3115" xlink:href="#m6a75b4b58c" y="164.901985"/>
      </g>
     </g>
     <g id="text_14">
      <!-- 15000 -->
      <g transform="translate(25.1365 169.461048)scale(0.12 -0.12)">
       <use xlink:href="#DejaVuSans-49"/>
       <use x="63.623047" xlink:href="#DejaVuSans-53"/>
       <use x="127.246094" xlink:href="#DejaVuSans-48"/>
       <use x="190.869141" xlink:href="#DejaVuSans-48"/>
       <use x="254.492188" xlink:href="#DejaVuSans-48"/>
      </g>
     </g>
    </g>
    <g id="ytick_5">
     <g id="line2d_27">
      <path clip-path="url(#pfa035f3485)" d="M 70.3115 93.494501 
L 1138.0865 93.494501 
" style="fill:none;stroke:#808080;stroke-dasharray:0.3,0.495;stroke-dashoffset:0;stroke-width:0.3;"/>
     </g>
     <g id="line2d_28">
      <g>
       <use style="stroke:#000000;stroke-width:0.8;" x="70.3115" xlink:href="#m6a75b4b58c" y="93.494501"/>
      </g>
     </g>
     <g id="text_15">
      <!-- 20000 -->
      <g transform="translate(25.1365 98.053564)scale(0.12 -0.12)">
       <use xlink:href="#DejaVuSans-50"/>
       <use x="63.623047" xlink:href="#DejaVuSans-48"/>
       <use x="127.246094" xlink:href="#DejaVuSans-48"/>
       <use x="190.869141" xlink:href="#DejaVuSans-48"/>
       <use x="254.492188" xlink:href="#DejaVuSans-48"/>
      </g>
     </g>
    </g>
    <g id="text_16">
     <!-- Energy [Wh] -->
     <defs>
      <path d="M 9.8125 72.90625 
L 55.90625 72.90625 
L 55.90625 64.59375 
L 19.671875 64.59375 
L 19.671875 43.015625 
L 54.390625 43.015625 
L 54.390625 34.71875 
L 19.671875 34.71875 
L 19.671875 8.296875 
L 56.78125 8.296875 
L 56.78125 0 
L 9.8125 0 
z
" id="DejaVuSans-69"/>
      <path d="M 45.40625 27.984375 
Q 45.40625 37.75 41.375 43.109375 
Q 37.359375 48.484375 30.078125 48.484375 
Q 22.859375 48.484375 18.828125 43.109375 
Q 14.796875 37.75 14.796875 27.984375 
Q 14.796875 18.265625 18.828125 12.890625 
Q 22.859375 7.515625 30.078125 7.515625 
Q 37.359375 7.515625 41.375 12.890625 
Q 45.40625 18.265625 45.40625 27.984375 
z
M 54.390625 6.78125 
Q 54.390625 -7.171875 48.1875 -13.984375 
Q 42 -20.796875 29.203125 -20.796875 
Q 24.46875 -20.796875 20.265625 -20.09375 
Q 16.0625 -19.390625 12.109375 -17.921875 
L 12.109375 -9.1875 
Q 16.0625 -11.328125 19.921875 -12.34375 
Q 23.78125 -13.375 27.78125 -13.375 
Q 36.625 -13.375 41.015625 -8.765625 
Q 45.40625 -4.15625 45.40625 5.171875 
L 45.40625 9.625 
Q 42.625 4.78125 38.28125 2.390625 
Q 33.9375 0 27.875 0 
Q 17.828125 0 11.671875 7.65625 
Q 5.515625 15.328125 5.515625 27.984375 
Q 5.515625 40.671875 11.671875 48.328125 
Q 17.828125 56 27.875 56 
Q 33.9375 56 38.28125 53.609375 
Q 42.625 51.21875 45.40625 46.390625 
L 45.40625 54.6875 
L 54.390625 54.6875 
z
" id="DejaVuSans-103"/>
      <path d="M 32.171875 -5.078125 
Q 28.375 -14.84375 24.75 -17.8125 
Q 21.140625 -20.796875 15.09375 -20.796875 
L 7.90625 -20.796875 
L 7.90625 -13.28125 
L 13.1875 -13.28125 
Q 16.890625 -13.28125 18.9375 -11.515625 
Q 21 -9.765625 23.484375 -3.21875 
L 25.09375 0.875 
L 2.984375 54.6875 
L 12.5 54.6875 
L 29.59375 11.921875 
L 46.6875 54.6875 
L 56.203125 54.6875 
z
" id="DejaVuSans-121"/>
      <path d="M 8.59375 75.984375 
L 29.296875 75.984375 
L 29.296875 69 
L 17.578125 69 
L 17.578125 -6.203125 
L 29.296875 -6.203125 
L 29.296875 -13.1875 
L 8.59375 -13.1875 
z
" id="DejaVuSans-91"/>
      <path d="M 3.328125 72.90625 
L 13.28125 72.90625 
L 28.609375 11.28125 
L 43.890625 72.90625 
L 54.984375 72.90625 
L 70.3125 11.28125 
L 85.59375 72.90625 
L 95.609375 72.90625 
L 77.296875 0 
L 64.890625 0 
L 49.515625 63.28125 
L 33.984375 0 
L 21.578125 0 
z
" id="DejaVuSans-87"/>
      <path d="M 30.421875 75.984375 
L 30.421875 -13.1875 
L 9.71875 -13.1875 
L 9.71875 -6.203125 
L 21.390625 -6.203125 
L 21.390625 69 
L 9.71875 69 
L 9.71875 75.984375 
z
" id="DejaVuSans-93"/>
     </defs>
     <g transform="translate(18.14175 251.108411)rotate(-90)scale(0.144 -0.144)">
      <use xlink:href="#DejaVuSans-69"/>
      <use x="63.183594" xlink:href="#DejaVuSans-110"/>
      <use x="126.5625" xlink:href="#DejaVuSans-101"/>
      <use x="188.085938" xlink:href="#DejaVuSans-114"/>
      <use x="229.183594" xlink:href="#DejaVuSans-103"/>
      <use x="292.660156" xlink:href="#DejaVuSans-121"/>
      <use x="351.839844" xlink:href="#DejaVuSans-32"/>
      <use x="383.626953" xlink:href="#DejaVuSans-91"/>
      <use x="422.640625" xlink:href="#DejaVuSans-87"/>
      <use x="521.517578" xlink:href="#DejaVuSans-104"/>
      <use x="584.896484" xlink:href="#DejaVuSans-93"/>
     </g>
    </g>
   </g>
   <g id="patch_171">
    <path d="M 70.3115 379.124436 
L 70.3115 33.247636 
" style="fill:none;stroke:#000000;stroke-linecap:square;stroke-linejoin:miter;stroke-width:0.8;"/>
   </g>
   <g id="patch_172">
    <path d="M 1138.0865 379.124436 
L 1138.0865 33.247636 
" style="fill:none;stroke:#000000;stroke-linecap:square;stroke-linejoin:miter;stroke-width:0.8;"/>
   </g>
   <g id="patch_173">
    <path d="M 70.3115 379.124436 
L 1138.0865 379.124436 
" style="fill:none;stroke:#000000;stroke-linecap:square;stroke-linejoin:miter;stroke-width:0.8;"/>
   </g>
   <g id="patch_174">
    <path d="M 70.3115 33.247636 
L 1138.0865 33.247636 
" style="fill:none;stroke:#000000;stroke-linecap:square;stroke-linejoin:miter;stroke-width:0.8;"/>
   </g>
   <g id="text_17">
    <!-- 12-Mar-2020, 12:00 -->
    <defs>
     <path d="M 4.890625 31.390625 
L 31.203125 31.390625 
L 31.203125 23.390625 
L 4.890625 23.390625 
z
" id="DejaVuSans-45"/>
     <path d="M 9.8125 72.90625 
L 24.515625 72.90625 
L 43.109375 23.296875 
L 61.8125 72.90625 
L 76.515625 72.90625 
L 76.515625 0 
L 66.890625 0 
L 66.890625 64.015625 
L 48.09375 14.015625 
L 38.1875 14.015625 
L 19.390625 64.015625 
L 19.390625 0 
L 9.8125 0 
z
" id="DejaVuSans-77"/>
     <path d="M 34.28125 27.484375 
Q 23.390625 27.484375 19.1875 25 
Q 14.984375 22.515625 14.984375 16.5 
Q 14.984375 11.71875 18.140625 8.90625 
Q 21.296875 6.109375 26.703125 6.109375 
Q 34.1875 6.109375 38.703125 11.40625 
Q 43.21875 16.703125 43.21875 25.484375 
L 43.21875 27.484375 
z
M 52.203125 31.203125 
L 52.203125 0 
L 43.21875 0 
L 43.21875 8.296875 
Q 40.140625 3.328125 35.546875 0.953125 
Q 30.953125 -1.421875 24.3125 -1.421875 
Q 15.921875 -1.421875 10.953125 3.296875 
Q 6 8.015625 6 15.921875 
Q 6 25.140625 12.171875 29.828125 
Q 18.359375 34.515625 30.609375 34.515625 
L 43.21875 34.515625 
L 43.21875 35.40625 
Q 43.21875 41.609375 39.140625 45 
Q 35.0625 48.390625 27.6875 48.390625 
Q 23 48.390625 18.546875 47.265625 
Q 14.109375 46.140625 10.015625 43.890625 
L 10.015625 52.203125 
Q 14.9375 54.109375 19.578125 55.046875 
Q 24.21875 56 28.609375 56 
Q 40.484375 56 46.34375 49.84375 
Q 52.203125 43.703125 52.203125 31.203125 
z
" id="DejaVuSans-97"/>
     <path d="M 11.71875 12.40625 
L 22.015625 12.40625 
L 22.015625 4 
L 14.015625 -11.625 
L 7.71875 -11.625 
L 11.71875 4 
z
" id="DejaVuSans-44"/>
     <path d="M 11.71875 12.40625 
L 22.015625 12.40625 
L 22.015625 0 
L 11.71875 0 
z
M 11.71875 51.703125 
L 22.015625 51.703125 
L 22.015625 39.3125 
L 11.71875 39.3125 
z
" id="DejaVuSans-58"/>
    </defs>
    <g transform="translate(464.371321 79.213005)scale(0.16 -0.16)">
     <use xlink:href="#DejaVuSans-49"/>
     <use x="63.623047" xlink:href="#DejaVuSans-50"/>
     <use x="127.246094" xlink:href="#DejaVuSans-45"/>
     <use x="163.330078" xlink:href="#DejaVuSans-77"/>
     <use x="249.609375" xlink:href="#DejaVuSans-97"/>
     <use x="310.888672" xlink:href="#DejaVuSans-114"/>
     <use x="351.908203" xlink:href="#DejaVuSans-45"/>
     <use x="387.992188" xlink:href="#DejaVuSans-50"/>
     <use x="451.615234" xlink:href="#DejaVuSans-48"/>
     <use x="515.238281" xlink:href="#DejaVuSans-50"/>
     <use x="578.861328" xlink:href="#DejaVuSans-48"/>
     <use x="642.484375" xlink:href="#DejaVuSans-44"/>
     <use x="674.271484" xlink:href="#DejaVuSans-32"/>
     <use x="706.058594" xlink:href="#DejaVuSans-49"/>
     <use x="769.681641" xlink:href="#DejaVuSans-50"/>
     <use x="833.304688" xlink:href="#DejaVuSans-58"/>
     <use x="866.996094" xlink:href="#DejaVuSans-48"/>
     <use x="930.619141" xlink:href="#DejaVuSans-48"/>
    </g>
   </g>
   <g id="text_18">
    <!-- Expected energy consumption - Main Incomer, 7-Eleven (049 - Vesterbrogade, Denmark) -->
    <defs>
     <path d="M 54.890625 54.6875 
L 35.109375 28.078125 
L 55.90625 0 
L 45.3125 0 
L 29.390625 21.484375 
L 13.484375 0 
L 2.875 0 
L 24.125 28.609375 
L 4.6875 54.6875 
L 15.28125 54.6875 
L 29.78125 35.203125 
L 44.28125 54.6875 
z
" id="DejaVuSans-120"/>
     <path d="M 18.109375 8.203125 
L 18.109375 -20.796875 
L 9.078125 -20.796875 
L 9.078125 54.6875 
L 18.109375 54.6875 
L 18.109375 46.390625 
Q 20.953125 51.265625 25.265625 53.625 
Q 29.59375 56 35.59375 56 
Q 45.5625 56 51.78125 48.09375 
Q 58.015625 40.1875 58.015625 27.296875 
Q 58.015625 14.40625 51.78125 6.484375 
Q 45.5625 -1.421875 35.59375 -1.421875 
Q 29.59375 -1.421875 25.265625 0.953125 
Q 20.953125 3.328125 18.109375 8.203125 
z
M 48.6875 27.296875 
Q 48.6875 37.203125 44.609375 42.84375 
Q 40.53125 48.484375 33.40625 48.484375 
Q 26.265625 48.484375 22.1875 42.84375 
Q 18.109375 37.203125 18.109375 27.296875 
Q 18.109375 17.390625 22.1875 11.75 
Q 26.265625 6.109375 33.40625 6.109375 
Q 40.53125 6.109375 44.609375 11.75 
Q 48.6875 17.390625 48.6875 27.296875 
z
" id="DejaVuSans-112"/>
     <path d="M 48.78125 52.59375 
L 48.78125 44.1875 
Q 44.96875 46.296875 41.140625 47.34375 
Q 37.3125 48.390625 33.40625 48.390625 
Q 24.65625 48.390625 19.8125 42.84375 
Q 14.984375 37.3125 14.984375 27.296875 
Q 14.984375 17.28125 19.8125 11.734375 
Q 24.65625 6.203125 33.40625 6.203125 
Q 37.3125 6.203125 41.140625 7.25 
Q 44.96875 8.296875 48.78125 10.40625 
L 48.78125 2.09375 
Q 45.015625 0.34375 40.984375 -0.53125 
Q 36.96875 -1.421875 32.421875 -1.421875 
Q 20.0625 -1.421875 12.78125 6.34375 
Q 5.515625 14.109375 5.515625 27.296875 
Q 5.515625 40.671875 12.859375 48.328125 
Q 20.21875 56 33.015625 56 
Q 37.15625 56 41.109375 55.140625 
Q 45.0625 54.296875 48.78125 52.59375 
z
" id="DejaVuSans-99"/>
     <path d="M 18.3125 70.21875 
L 18.3125 54.6875 
L 36.8125 54.6875 
L 36.8125 47.703125 
L 18.3125 47.703125 
L 18.3125 18.015625 
Q 18.3125 11.328125 20.140625 9.421875 
Q 21.96875 7.515625 27.59375 7.515625 
L 36.8125 7.515625 
L 36.8125 0 
L 27.59375 0 
Q 17.1875 0 13.234375 3.875 
Q 9.28125 7.765625 9.28125 18.015625 
L 9.28125 47.703125 
L 2.6875 47.703125 
L 2.6875 54.6875 
L 9.28125 54.6875 
L 9.28125 70.21875 
z
" id="DejaVuSans-116"/>
     <path d="M 45.40625 46.390625 
L 45.40625 75.984375 
L 54.390625 75.984375 
L 54.390625 0 
L 45.40625 0 
L 45.40625 8.203125 
Q 42.578125 3.328125 38.25 0.953125 
Q 33.9375 -1.421875 27.875 -1.421875 
Q 17.96875 -1.421875 11.734375 6.484375 
Q 5.515625 14.40625 5.515625 27.296875 
Q 5.515625 40.1875 11.734375 48.09375 
Q 17.96875 56 27.875 56 
Q 33.9375 56 38.25 53.625 
Q 42.578125 51.265625 45.40625 46.390625 
z
M 14.796875 27.296875 
Q 14.796875 17.390625 18.875 11.75 
Q 22.953125 6.109375 30.078125 6.109375 
Q 37.203125 6.109375 41.296875 11.75 
Q 45.40625 17.390625 45.40625 27.296875 
Q 45.40625 37.203125 41.296875 42.84375 
Q 37.203125 48.484375 30.078125 48.484375 
Q 22.953125 48.484375 18.875 42.84375 
Q 14.796875 37.203125 14.796875 27.296875 
z
" id="DejaVuSans-100"/>
     <path d="M 9.8125 72.90625 
L 19.671875 72.90625 
L 19.671875 0 
L 9.8125 0 
z
" id="DejaVuSans-73"/>
     <path d="M 8.203125 72.90625 
L 55.078125 72.90625 
L 55.078125 68.703125 
L 28.609375 0 
L 18.3125 0 
L 43.21875 64.59375 
L 8.203125 64.59375 
z
" id="DejaVuSans-55"/>
     <path d="M 9.421875 75.984375 
L 18.40625 75.984375 
L 18.40625 0 
L 9.421875 0 
z
" id="DejaVuSans-108"/>
     <path d="M 2.984375 54.6875 
L 12.5 54.6875 
L 29.59375 8.796875 
L 46.6875 54.6875 
L 56.203125 54.6875 
L 35.6875 0 
L 23.484375 0 
z
" id="DejaVuSans-118"/>
     <path d="M 10.984375 1.515625 
L 10.984375 10.5 
Q 14.703125 8.734375 18.5 7.8125 
Q 22.3125 6.890625 25.984375 6.890625 
Q 35.75 6.890625 40.890625 13.453125 
Q 46.046875 20.015625 46.78125 33.40625 
Q 43.953125 29.203125 39.59375 26.953125 
Q 35.25 24.703125 29.984375 24.703125 
Q 19.046875 24.703125 12.671875 31.3125 
Q 6.296875 37.9375 6.296875 49.421875 
Q 6.296875 60.640625 12.9375 67.421875 
Q 19.578125 74.21875 30.609375 74.21875 
Q 43.265625 74.21875 49.921875 64.515625 
Q 56.59375 54.828125 56.59375 36.375 
Q 56.59375 19.140625 48.40625 8.859375 
Q 40.234375 -1.421875 26.421875 -1.421875 
Q 22.703125 -1.421875 18.890625 -0.6875 
Q 15.09375 0.046875 10.984375 1.515625 
z
M 30.609375 32.421875 
Q 37.25 32.421875 41.125 36.953125 
Q 45.015625 41.5 45.015625 49.421875 
Q 45.015625 57.28125 41.125 61.84375 
Q 37.25 66.40625 30.609375 66.40625 
Q 23.96875 66.40625 20.09375 61.84375 
Q 16.21875 57.28125 16.21875 49.421875 
Q 16.21875 41.5 20.09375 36.953125 
Q 23.96875 32.421875 30.609375 32.421875 
z
" id="DejaVuSans-57"/>
     <path d="M 28.609375 0 
L 0.78125 72.90625 
L 11.078125 72.90625 
L 34.1875 11.53125 
L 57.328125 72.90625 
L 67.578125 72.90625 
L 39.796875 0 
z
" id="DejaVuSans-86"/>
     <path d="M 48.6875 27.296875 
Q 48.6875 37.203125 44.609375 42.84375 
Q 40.53125 48.484375 33.40625 48.484375 
Q 26.265625 48.484375 22.1875 42.84375 
Q 18.109375 37.203125 18.109375 27.296875 
Q 18.109375 17.390625 22.1875 11.75 
Q 26.265625 6.109375 33.40625 6.109375 
Q 40.53125 6.109375 44.609375 11.75 
Q 48.6875 17.390625 48.6875 27.296875 
z
M 18.109375 46.390625 
Q 20.953125 51.265625 25.265625 53.625 
Q 29.59375 56 35.59375 56 
Q 45.5625 56 51.78125 48.09375 
Q 58.015625 40.1875 58.015625 27.296875 
Q 58.015625 14.40625 51.78125 6.484375 
Q 45.5625 -1.421875 35.59375 -1.421875 
Q 29.59375 -1.421875 25.265625 0.953125 
Q 20.953125 3.328125 18.109375 8.203125 
L 18.109375 0 
L 9.078125 0 
L 9.078125 75.984375 
L 18.109375 75.984375 
z
" id="DejaVuSans-98"/>
     <path d="M 19.671875 64.796875 
L 19.671875 8.109375 
L 31.59375 8.109375 
Q 46.6875 8.109375 53.6875 14.9375 
Q 60.6875 21.78125 60.6875 36.53125 
Q 60.6875 51.171875 53.6875 57.984375 
Q 46.6875 64.796875 31.59375 64.796875 
z
M 9.8125 72.90625 
L 30.078125 72.90625 
Q 51.265625 72.90625 61.171875 64.09375 
Q 71.09375 55.28125 71.09375 36.53125 
Q 71.09375 17.671875 61.125 8.828125 
Q 51.171875 0 30.078125 0 
L 9.8125 0 
z
" id="DejaVuSans-68"/>
     <path d="M 9.078125 75.984375 
L 18.109375 75.984375 
L 18.109375 31.109375 
L 44.921875 54.6875 
L 56.390625 54.6875 
L 27.390625 29.109375 
L 57.625 0 
L 45.90625 0 
L 18.109375 26.703125 
L 18.109375 0 
L 9.078125 0 
z
" id="DejaVuSans-107"/>
    </defs>
    <g transform="translate(218.01665 20.3301)scale(0.1728 -0.1728)">
     <use xlink:href="#DejaVuSans-69"/>
     <use x="63.183594" xlink:href="#DejaVuSans-120"/>
     <use x="122.363281" xlink:href="#DejaVuSans-112"/>
     <use x="185.839844" xlink:href="#DejaVuSans-101"/>
     <use x="247.363281" xlink:href="#DejaVuSans-99"/>
     <use x="302.34375" xlink:href="#DejaVuSans-116"/>
     <use x="341.552734" xlink:href="#DejaVuSans-101"/>
     <use x="403.076172" xlink:href="#DejaVuSans-100"/>
     <use x="466.552734" xlink:href="#DejaVuSans-32"/>
     <use x="498.339844" xlink:href="#DejaVuSans-101"/>
     <use x="559.863281" xlink:href="#DejaVuSans-110"/>
     <use x="623.242188" xlink:href="#DejaVuSans-101"/>
     <use x="684.765625" xlink:href="#DejaVuSans-114"/>
     <use x="725.863281" xlink:href="#DejaVuSans-103"/>
     <use x="789.339844" xlink:href="#DejaVuSans-121"/>
     <use x="848.519531" xlink:href="#DejaVuSans-32"/>
     <use x="880.306641" xlink:href="#DejaVuSans-99"/>
     <use x="935.287109" xlink:href="#DejaVuSans-111"/>
     <use x="996.46875" xlink:href="#DejaVuSans-110"/>
     <use x="1059.847656" xlink:href="#DejaVuSans-115"/>
     <use x="1111.947266" xlink:href="#DejaVuSans-117"/>
     <use x="1175.326172" xlink:href="#DejaVuSans-109"/>
     <use x="1272.738281" xlink:href="#DejaVuSans-112"/>
     <use x="1336.214844" xlink:href="#DejaVuSans-116"/>
     <use x="1375.423828" xlink:href="#DejaVuSans-105"/>
     <use x="1403.207031" xlink:href="#DejaVuSans-111"/>
     <use x="1464.388672" xlink:href="#DejaVuSans-110"/>
     <use x="1527.767578" xlink:href="#DejaVuSans-32"/>
     <use x="1559.554688" xlink:href="#DejaVuSans-45"/>
     <use x="1595.638672" xlink:href="#DejaVuSans-32"/>
     <use x="1627.425781" xlink:href="#DejaVuSans-77"/>
     <use x="1713.705078" xlink:href="#DejaVuSans-97"/>
     <use x="1774.984375" xlink:href="#DejaVuSans-105"/>
     <use x="1802.767578" xlink:href="#DejaVuSans-110"/>
     <use x="1866.146484" xlink:href="#DejaVuSans-32"/>
     <use x="1897.933594" xlink:href="#DejaVuSans-73"/>
     <use x="1927.425781" xlink:href="#DejaVuSans-110"/>
     <use x="1990.804688" xlink:href="#DejaVuSans-99"/>
     <use x="2045.785156" xlink:href="#DejaVuSans-111"/>
     <use x="2106.966797" xlink:href="#DejaVuSans-109"/>
     <use x="2204.378906" xlink:href="#DejaVuSans-101"/>
     <use x="2265.902344" xlink:href="#DejaVuSans-114"/>
     <use x="2307.015625" xlink:href="#DejaVuSans-44"/>
     <use x="2338.802734" xlink:href="#DejaVuSans-32"/>
     <use x="2370.589844" xlink:href="#DejaVuSans-55"/>
     <use x="2434.212891" xlink:href="#DejaVuSans-45"/>
     <use x="2470.296875" xlink:href="#DejaVuSans-69"/>
     <use x="2533.480469" xlink:href="#DejaVuSans-108"/>
     <use x="2561.263672" xlink:href="#DejaVuSans-101"/>
     <use x="2622.787109" xlink:href="#DejaVuSans-118"/>
     <use x="2681.966797" xlink:href="#DejaVuSans-101"/>
     <use x="2743.490234" xlink:href="#DejaVuSans-110"/>
     <use x="2806.869141" xlink:href="#DejaVuSans-32"/>
     <use x="2838.65625" xlink:href="#DejaVuSans-40"/>
     <use x="2877.669922" xlink:href="#DejaVuSans-48"/>
     <use x="2941.292969" xlink:href="#DejaVuSans-52"/>
     <use x="3004.916016" xlink:href="#DejaVuSans-57"/>
     <use x="3068.539062" xlink:href="#DejaVuSans-32"/>
     <use x="3100.326172" xlink:href="#DejaVuSans-45"/>
     <use x="3136.410156" xlink:href="#DejaVuSans-32"/>
     <use x="3168.197266" xlink:href="#DejaVuSans-86"/>
     <use x="3236.496094" xlink:href="#DejaVuSans-101"/>
     <use x="3298.019531" xlink:href="#DejaVuSans-115"/>
     <use x="3350.119141" xlink:href="#DejaVuSans-116"/>
     <use x="3389.328125" xlink:href="#DejaVuSans-101"/>
     <use x="3450.851562" xlink:href="#DejaVuSans-114"/>
     <use x="3491.964844" xlink:href="#DejaVuSans-98"/>
     <use x="3555.441406" xlink:href="#DejaVuSans-114"/>
     <use x="3596.523438" xlink:href="#DejaVuSans-111"/>
     <use x="3657.705078" xlink:href="#DejaVuSans-103"/>
     <use x="3721.181641" xlink:href="#DejaVuSans-97"/>
     <use x="3782.460938" xlink:href="#DejaVuSans-100"/>
     <use x="3845.9375" xlink:href="#DejaVuSans-101"/>
     <use x="3907.460938" xlink:href="#DejaVuSans-44"/>
     <use x="3939.248047" xlink:href="#DejaVuSans-32"/>
     <use x="3971.035156" xlink:href="#DejaVuSans-68"/>
     <use x="4048.037109" xlink:href="#DejaVuSans-101"/>
     <use x="4109.560547" xlink:href="#DejaVuSans-110"/>
     <use x="4172.939453" xlink:href="#DejaVuSans-109"/>
     <use x="4270.351562" xlink:href="#DejaVuSans-97"/>
     <use x="4331.630859" xlink:href="#DejaVuSans-114"/>
     <use x="4372.744141" xlink:href="#DejaVuSans-107"/>
     <use x="4430.654297" xlink:href="#DejaVuSans-41"/>
    </g>
   </g>
   <g id="line2d_29">
    <path clip-path="url(#pfa035f3485)" d="M 70.3115 96.08863 
L 413.524893 96.142207 
L 426.2365 96.391818 
L 432.592304 97.35848 
L 438.948107 105.306496 
L 445.303911 111.001998 
L 451.659714 113.203812 
L 458.015518 115.067596 
L 464.371321 116.521704 
L 477.082929 116.873964 
L 502.506143 116.912285 
L 1131.730696 116.912285 
L 1131.730696 116.912285 
" style="fill:none;stroke:#e24a33;stroke-linecap:square;stroke-opacity:0.95;stroke-width:4;"/>
   </g>
   <g id="legend_1">
    <g id="patch_175">
     <path d="M 953.98775 144.353761 
L 1129.6865 144.353761 
Q 1132.0865 144.353761 1132.0865 141.953761 
L 1132.0865 41.647636 
Q 1132.0865 39.247636 1129.6865 39.247636 
L 953.98775 39.247636 
Q 951.58775 39.247636 951.58775 41.647636 
L 951.58775 141.953761 
Q 951.58775 144.353761 953.98775 144.353761 
z
" style="fill:#ffffff;opacity:0.8;stroke:#cccccc;stroke-linejoin:miter;"/>
    </g>
    <g id="line2d_30">
     <path d="M 956.38775 48.965761 
L 980.38775 48.965761 
" style="fill:none;stroke:#e24a33;stroke-linecap:square;stroke-opacity:0.95;stroke-width:4;"/>
    </g>
    <g id="line2d_31"/>
    <g id="text_19">
     <!-- expected consumption -->
     <g transform="translate(989.98775 53.165761)scale(0.12 -0.12)">
      <use xlink:href="#DejaVuSans-101"/>
      <use x="61.507812" xlink:href="#DejaVuSans-120"/>
      <use x="120.6875" xlink:href="#DejaVuSans-112"/>
      <use x="184.164062" xlink:href="#DejaVuSans-101"/>
      <use x="245.6875" xlink:href="#DejaVuSans-99"/>
      <use x="300.667969" xlink:href="#DejaVuSans-116"/>
      <use x="339.876953" xlink:href="#DejaVuSans-101"/>
      <use x="401.400391" xlink:href="#DejaVuSans-100"/>
      <use x="464.876953" xlink:href="#DejaVuSans-32"/>
      <use x="496.664062" xlink:href="#DejaVuSans-99"/>
      <use x="551.644531" xlink:href="#DejaVuSans-111"/>
      <use x="612.826172" xlink:href="#DejaVuSans-110"/>
      <use x="676.205078" xlink:href="#DejaVuSans-115"/>
      <use x="728.304688" xlink:href="#DejaVuSans-117"/>
      <use x="791.683594" xlink:href="#DejaVuSans-109"/>
      <use x="889.095703" xlink:href="#DejaVuSans-112"/>
      <use x="952.572266" xlink:href="#DejaVuSans-116"/>
      <use x="991.78125" xlink:href="#DejaVuSans-105"/>
      <use x="1019.564453" xlink:href="#DejaVuSans-111"/>
      <use x="1080.746094" xlink:href="#DejaVuSans-110"/>
     </g>
    </g>
    <g id="line2d_32">
     <path d="M 956.38775 66.579511 
L 980.38775 66.579511 
" style="fill:none;stroke:#000000;stroke-dasharray:4,6.6;stroke-dashoffset:0;stroke-width:4;"/>
    </g>
    <g id="line2d_33"/>
    <g id="text_20">
     <!-- Time of change -->
     <defs>
      <path d="M 37.109375 75.984375 
L 37.109375 68.5 
L 28.515625 68.5 
Q 23.6875 68.5 21.796875 66.546875 
Q 19.921875 64.59375 19.921875 59.515625 
L 19.921875 54.6875 
L 34.71875 54.6875 
L 34.71875 47.703125 
L 19.921875 47.703125 
L 19.921875 0 
L 10.890625 0 
L 10.890625 47.703125 
L 2.296875 47.703125 
L 2.296875 54.6875 
L 10.890625 54.6875 
L 10.890625 58.5 
Q 10.890625 67.625 15.140625 71.796875 
Q 19.390625 75.984375 28.609375 75.984375 
z
" id="DejaVuSans-102"/>
     </defs>
     <g transform="translate(989.98775 70.779511)scale(0.12 -0.12)">
      <use xlink:href="#DejaVuSans-84"/>
      <use x="61.037109" xlink:href="#DejaVuSans-105"/>
      <use x="88.820312" xlink:href="#DejaVuSans-109"/>
      <use x="186.232422" xlink:href="#DejaVuSans-101"/>
      <use x="247.755859" xlink:href="#DejaVuSans-32"/>
      <use x="279.542969" xlink:href="#DejaVuSans-111"/>
      <use x="340.724609" xlink:href="#DejaVuSans-102"/>
      <use x="375.929688" xlink:href="#DejaVuSans-32"/>
      <use x="407.716797" xlink:href="#DejaVuSans-99"/>
      <use x="462.697266" xlink:href="#DejaVuSans-104"/>
      <use x="526.076172" xlink:href="#DejaVuSans-97"/>
      <use x="587.355469" xlink:href="#DejaVuSans-110"/>
      <use x="650.734375" xlink:href="#DejaVuSans-103"/>
      <use x="714.210938" xlink:href="#DejaVuSans-101"/>
     </g>
    </g>
    <g id="patch_176">
     <path d="M 956.38775 88.393261 
L 980.38775 88.393261 
L 980.38775 79.993261 
L 956.38775 79.993261 
z
" style="fill:#ffa500;opacity:0.25;stroke:#ffa500;stroke-linejoin:miter;"/>
    </g>
    <g id="text_21">
     <!-- 90% Credible Interval -->
     <defs>
      <path d="M 72.703125 32.078125 
Q 68.453125 32.078125 66.03125 28.46875 
Q 63.625 24.859375 63.625 18.40625 
Q 63.625 12.0625 66.03125 8.421875 
Q 68.453125 4.78125 72.703125 4.78125 
Q 76.859375 4.78125 79.265625 8.421875 
Q 81.6875 12.0625 81.6875 18.40625 
Q 81.6875 24.8125 79.265625 28.4375 
Q 76.859375 32.078125 72.703125 32.078125 
z
M 72.703125 38.28125 
Q 80.421875 38.28125 84.953125 32.90625 
Q 89.5 27.546875 89.5 18.40625 
Q 89.5 9.28125 84.9375 3.921875 
Q 80.375 -1.421875 72.703125 -1.421875 
Q 64.890625 -1.421875 60.34375 3.921875 
Q 55.8125 9.28125 55.8125 18.40625 
Q 55.8125 27.59375 60.375 32.9375 
Q 64.9375 38.28125 72.703125 38.28125 
z
M 22.3125 68.015625 
Q 18.109375 68.015625 15.6875 64.375 
Q 13.28125 60.75 13.28125 54.390625 
Q 13.28125 47.953125 15.671875 44.328125 
Q 18.0625 40.71875 22.3125 40.71875 
Q 26.5625 40.71875 28.96875 44.328125 
Q 31.390625 47.953125 31.390625 54.390625 
Q 31.390625 60.6875 28.953125 64.34375 
Q 26.515625 68.015625 22.3125 68.015625 
z
M 66.40625 74.21875 
L 74.21875 74.21875 
L 28.609375 -1.421875 
L 20.796875 -1.421875 
z
M 22.3125 74.21875 
Q 30.03125 74.21875 34.609375 68.875 
Q 39.203125 63.53125 39.203125 54.390625 
Q 39.203125 45.171875 34.640625 39.84375 
Q 30.078125 34.515625 22.3125 34.515625 
Q 14.546875 34.515625 10.03125 39.859375 
Q 5.515625 45.21875 5.515625 54.390625 
Q 5.515625 63.484375 10.046875 68.84375 
Q 14.59375 74.21875 22.3125 74.21875 
z
" id="DejaVuSans-37"/>
      <path d="M 64.40625 67.28125 
L 64.40625 56.890625 
Q 59.421875 61.53125 53.78125 63.8125 
Q 48.140625 66.109375 41.796875 66.109375 
Q 29.296875 66.109375 22.65625 58.46875 
Q 16.015625 50.828125 16.015625 36.375 
Q 16.015625 21.96875 22.65625 14.328125 
Q 29.296875 6.6875 41.796875 6.6875 
Q 48.140625 6.6875 53.78125 8.984375 
Q 59.421875 11.28125 64.40625 15.921875 
L 64.40625 5.609375 
Q 59.234375 2.09375 53.4375 0.328125 
Q 47.65625 -1.421875 41.21875 -1.421875 
Q 24.65625 -1.421875 15.125 8.703125 
Q 5.609375 18.84375 5.609375 36.375 
Q 5.609375 53.953125 15.125 64.078125 
Q 24.65625 74.21875 41.21875 74.21875 
Q 47.75 74.21875 53.53125 72.484375 
Q 59.328125 70.75 64.40625 67.28125 
z
" id="DejaVuSans-67"/>
     </defs>
     <g transform="translate(989.98775 88.393261)scale(0.12 -0.12)">
      <use xlink:href="#DejaVuSans-57"/>
      <use x="63.623047" xlink:href="#DejaVuSans-48"/>
      <use x="127.246094" xlink:href="#DejaVuSans-37"/>
      <use x="222.265625" xlink:href="#DejaVuSans-32"/>
      <use x="254.052734" xlink:href="#DejaVuSans-67"/>
      <use x="323.876953" xlink:href="#DejaVuSans-114"/>
      <use x="364.958984" xlink:href="#DejaVuSans-101"/>
      <use x="426.482422" xlink:href="#DejaVuSans-100"/>
      <use x="489.958984" xlink:href="#DejaVuSans-105"/>
      <use x="517.742188" xlink:href="#DejaVuSans-98"/>
      <use x="581.21875" xlink:href="#DejaVuSans-108"/>
      <use x="609.001953" xlink:href="#DejaVuSans-101"/>
      <use x="670.525391" xlink:href="#DejaVuSans-32"/>
      <use x="702.3125" xlink:href="#DejaVuSans-73"/>
      <use x="731.804688" xlink:href="#DejaVuSans-110"/>
      <use x="795.183594" xlink:href="#DejaVuSans-116"/>
      <use x="834.392578" xlink:href="#DejaVuSans-101"/>
      <use x="895.916016" xlink:href="#DejaVuSans-114"/>
      <use x="937.029297" xlink:href="#DejaVuSans-118"/>
      <use x="996.208984" xlink:href="#DejaVuSans-97"/>
      <use x="1057.488281" xlink:href="#DejaVuSans-108"/>
     </g>
    </g>
    <g id="patch_177">
     <path d="M 956.38775 113.973511 
L 980.38775 113.973511 
L 980.38775 105.573511 
L 956.38775 105.573511 
z
" style="fill:#008000;opacity:0.25;stroke:#008000;stroke-linejoin:miter;"/>
    </g>
    <g id="text_22">
     <!-- 90% Credible Interval  -->
     <g transform="translate(989.98775 106.007011)scale(0.12 -0.12)">
      <use xlink:href="#DejaVuSans-57"/>
      <use x="63.623047" xlink:href="#DejaVuSans-48"/>
      <use x="127.246094" xlink:href="#DejaVuSans-37"/>
      <use x="222.265625" xlink:href="#DejaVuSans-32"/>
      <use x="254.052734" xlink:href="#DejaVuSans-67"/>
      <use x="323.876953" xlink:href="#DejaVuSans-114"/>
      <use x="364.958984" xlink:href="#DejaVuSans-101"/>
      <use x="426.482422" xlink:href="#DejaVuSans-100"/>
      <use x="489.958984" xlink:href="#DejaVuSans-105"/>
      <use x="517.742188" xlink:href="#DejaVuSans-98"/>
      <use x="581.21875" xlink:href="#DejaVuSans-108"/>
      <use x="609.001953" xlink:href="#DejaVuSans-101"/>
      <use x="670.525391" xlink:href="#DejaVuSans-32"/>
      <use x="702.3125" xlink:href="#DejaVuSans-73"/>
      <use x="731.804688" xlink:href="#DejaVuSans-110"/>
      <use x="795.183594" xlink:href="#DejaVuSans-116"/>
      <use x="834.392578" xlink:href="#DejaVuSans-101"/>
      <use x="895.916016" xlink:href="#DejaVuSans-114"/>
      <use x="937.029297" xlink:href="#DejaVuSans-118"/>
      <use x="996.208984" xlink:href="#DejaVuSans-97"/>
      <use x="1057.488281" xlink:href="#DejaVuSans-108"/>
      <use x="1085.271484" xlink:href="#DejaVuSans-32"/>
     </g>
     <!--  for tau -->
     <g transform="translate(989.98775 119.444386)scale(0.12 -0.12)">
      <use xlink:href="#DejaVuSans-32"/>
      <use x="31.787109" xlink:href="#DejaVuSans-102"/>
      <use x="66.992188" xlink:href="#DejaVuSans-111"/>
      <use x="128.173828" xlink:href="#DejaVuSans-114"/>
      <use x="169.287109" xlink:href="#DejaVuSans-32"/>
      <use x="201.074219" xlink:href="#DejaVuSans-116"/>
      <use x="240.283203" xlink:href="#DejaVuSans-97"/>
      <use x="301.5625" xlink:href="#DejaVuSans-117"/>
     </g>
    </g>
    <g id="patch_178">
     <path d="M 956.38775 137.058136 
L 980.38775 137.058136 
L 980.38775 128.658136 
L 956.38775 128.658136 
z
" style="fill:#348abd;opacity:0.85;"/>
    </g>
    <g id="text_23">
     <!-- observed consumption -->
     <g transform="translate(989.98775 137.058136)scale(0.12 -0.12)">
      <use xlink:href="#DejaVuSans-111"/>
      <use x="61.181641" xlink:href="#DejaVuSans-98"/>
      <use x="124.658203" xlink:href="#DejaVuSans-115"/>
      <use x="176.757812" xlink:href="#DejaVuSans-101"/>
      <use x="238.28125" xlink:href="#DejaVuSans-114"/>
      <use x="279.394531" xlink:href="#DejaVuSans-118"/>
      <use x="338.574219" xlink:href="#DejaVuSans-101"/>
      <use x="400.097656" xlink:href="#DejaVuSans-100"/>
      <use x="463.574219" xlink:href="#DejaVuSans-32"/>
      <use x="495.361328" xlink:href="#DejaVuSans-99"/>
      <use x="550.341797" xlink:href="#DejaVuSans-111"/>
      <use x="611.523438" xlink:href="#DejaVuSans-110"/>
      <use x="674.902344" xlink:href="#DejaVuSans-115"/>
      <use x="727.001953" xlink:href="#DejaVuSans-117"/>
      <use x="790.380859" xlink:href="#DejaVuSans-109"/>
      <use x="887.792969" xlink:href="#DejaVuSans-112"/>
      <use x="951.269531" xlink:href="#DejaVuSans-116"/>
      <use x="990.478516" xlink:href="#DejaVuSans-105"/>
      <use x="1018.261719" xlink:href="#DejaVuSans-111"/>
      <use x="1079.443359" xlink:href="#DejaVuSans-110"/>
     </g>
    </g>
   </g>
   <g id="line2d_34">
    <path clip-path="url(#pfa035f3485)" d="M 451.659714 379.124436 
L 451.659714 33.247636 
" style="fill:none;stroke:#000000;stroke-dasharray:4,6.6;stroke-dashoffset:0;stroke-width:4;"/>
   </g>
   <g id="PolyCollection_1">
    <defs>
     <path d="M 70.3115 -330.799559 
L 70.3115 -322.81284 
L 76.667304 -322.81284 
L 83.023107 -322.81284 
L 89.378911 -322.81284 
L 95.734714 -322.81284 
L 102.090518 -322.81284 
L 108.446321 -322.81284 
L 114.802125 -322.81284 
L 121.157929 -322.81284 
L 127.513732 -322.81284 
L 133.869536 -322.81284 
L 140.225339 -322.81284 
L 146.581143 -322.81284 
L 152.936946 -322.81284 
L 159.29275 -322.81284 
L 165.648554 -322.81284 
L 172.004357 -322.81284 
L 178.360161 -322.81284 
L 184.715964 -322.81284 
L 191.071768 -322.81284 
L 197.427571 -322.81284 
L 203.783375 -322.81284 
L 210.139179 -322.81284 
L 216.494982 -322.81284 
L 222.850786 -322.81284 
L 229.206589 -322.81284 
L 235.562393 -322.81284 
L 241.918196 -322.81284 
L 248.274 -322.81284 
L 254.629804 -322.81284 
L 260.985607 -322.81284 
L 267.341411 -322.81284 
L 273.697214 -322.81284 
L 280.053018 -322.81284 
L 286.408821 -322.81284 
L 292.764625 -322.81284 
L 299.120429 -322.81284 
L 305.476232 -322.81284 
L 311.832036 -322.81284 
L 318.187839 -322.81284 
L 324.543643 -322.81284 
L 330.899446 -322.81284 
L 337.25525 -322.810832 
L 343.611054 -322.803941 
L 349.966857 -322.800246 
L 356.322661 -322.790084 
L 362.678464 -322.787815 
L 369.034268 -322.787815 
L 375.390071 -322.787124 
L 381.745875 -322.786805 
L 388.101679 -322.786805 
L 394.457482 -322.786788 
L 400.813286 -322.777388 
L 407.169089 -322.776105 
L 413.524893 -322.758917 
L 419.880696 -322.694161 
L 426.2365 -322.441531 
L 432.592304 -307.979073 
L 438.948107 -303.954453 
L 445.303911 -303.483218 
L 451.659714 -303.338962 
L 458.015518 -303.228768 
L 464.371321 -303.120282 
L 470.727125 -303.112318 
L 477.082929 -303.107186 
L 483.438732 -303.105842 
L 489.794536 -303.105842 
L 496.150339 -303.105842 
L 502.506143 -303.105842 
L 508.861946 -303.105842 
L 515.21775 -303.105842 
L 521.573554 -303.105842 
L 527.929357 -303.105842 
L 534.285161 -303.105842 
L 540.640964 -303.105842 
L 546.996768 -303.105842 
L 553.352571 -303.105842 
L 559.708375 -303.105842 
L 566.064179 -303.105842 
L 572.419982 -303.105842 
L 578.775786 -303.105842 
L 585.131589 -303.105842 
L 591.487393 -303.105842 
L 597.843196 -303.105842 
L 604.199 -303.105842 
L 610.554804 -303.105842 
L 616.910607 -303.105842 
L 623.266411 -303.105842 
L 629.622214 -303.105842 
L 635.978018 -303.105842 
L 642.333821 -303.105842 
L 648.689625 -303.105842 
L 655.045429 -303.105842 
L 661.401232 -303.105842 
L 667.757036 -303.105842 
L 674.112839 -303.105842 
L 680.468643 -303.105842 
L 686.824446 -303.105842 
L 693.18025 -303.105842 
L 699.536054 -303.105842 
L 705.891857 -303.105842 
L 712.247661 -303.105842 
L 718.603464 -303.105842 
L 724.959268 -303.105842 
L 731.315071 -303.105842 
L 737.670875 -303.105842 
L 744.026679 -303.105842 
L 750.382482 -303.105842 
L 756.738286 -303.105842 
L 763.094089 -303.105842 
L 769.449893 -303.105842 
L 775.805696 -303.105842 
L 782.1615 -303.105842 
L 788.517304 -303.105842 
L 794.873107 -303.105842 
L 801.228911 -303.105842 
L 807.584714 -303.105842 
L 813.940518 -303.105842 
L 820.296321 -303.105842 
L 826.652125 -303.105842 
L 833.007929 -303.105842 
L 839.363732 -303.105842 
L 845.719536 -303.105842 
L 852.075339 -303.105842 
L 858.431143 -303.105842 
L 864.786946 -303.105842 
L 871.14275 -303.105842 
L 877.498554 -303.105842 
L 883.854357 -303.105842 
L 890.210161 -303.105842 
L 896.565964 -303.105842 
L 902.921768 -303.105842 
L 909.277571 -303.105842 
L 915.633375 -303.105842 
L 921.989179 -303.105842 
L 928.344982 -303.105842 
L 934.700786 -303.105842 
L 941.056589 -303.105842 
L 947.412393 -303.105842 
L 953.768196 -303.105842 
L 960.124 -303.105842 
L 966.479804 -303.105842 
L 972.835607 -303.105842 
L 979.191411 -303.105842 
L 985.547214 -303.105842 
L 991.903018 -303.105842 
L 998.258821 -303.105842 
L 1004.614625 -303.105842 
L 1010.970429 -303.105842 
L 1017.326232 -303.105842 
L 1023.682036 -303.105842 
L 1030.037839 -303.105842 
L 1036.393643 -303.105842 
L 1042.749446 -303.105842 
L 1049.10525 -303.105842 
L 1055.461054 -303.105842 
L 1061.816857 -303.105842 
L 1068.172661 -303.105842 
L 1074.528464 -303.105842 
L 1080.884268 -303.105842 
L 1087.240071 -303.105842 
L 1093.595875 -303.105842 
L 1099.951679 -303.105842 
L 1106.307482 -303.105842 
L 1112.663286 -303.105842 
L 1119.019089 -303.105842 
L 1125.374893 -303.105842 
L 1131.730696 -303.105842 
L 1131.730696 -308.86782 
L 1131.730696 -308.86782 
L 1125.374893 -308.86782 
L 1119.019089 -308.86782 
L 1112.663286 -308.86782 
L 1106.307482 -308.86782 
L 1099.951679 -308.86782 
L 1093.595875 -308.86782 
L 1087.240071 -308.86782 
L 1080.884268 -308.86782 
L 1074.528464 -308.86782 
L 1068.172661 -308.86782 
L 1061.816857 -308.86782 
L 1055.461054 -308.86782 
L 1049.10525 -308.86782 
L 1042.749446 -308.86782 
L 1036.393643 -308.86782 
L 1030.037839 -308.86782 
L 1023.682036 -308.86782 
L 1017.326232 -308.86782 
L 1010.970429 -308.86782 
L 1004.614625 -308.86782 
L 998.258821 -308.86782 
L 991.903018 -308.86782 
L 985.547214 -308.86782 
L 979.191411 -308.86782 
L 972.835607 -308.86782 
L 966.479804 -308.86782 
L 960.124 -308.86782 
L 953.768196 -308.86782 
L 947.412393 -308.86782 
L 941.056589 -308.86782 
L 934.700786 -308.86782 
L 928.344982 -308.86782 
L 921.989179 -308.86782 
L 915.633375 -308.86782 
L 909.277571 -308.86782 
L 902.921768 -308.86782 
L 896.565964 -308.86782 
L 890.210161 -308.86782 
L 883.854357 -308.86782 
L 877.498554 -308.86782 
L 871.14275 -308.86782 
L 864.786946 -308.86782 
L 858.431143 -308.86782 
L 852.075339 -308.86782 
L 845.719536 -308.86782 
L 839.363732 -308.86782 
L 833.007929 -308.86782 
L 826.652125 -308.86782 
L 820.296321 -308.86782 
L 813.940518 -308.86782 
L 807.584714 -308.86782 
L 801.228911 -308.86782 
L 794.873107 -308.86782 
L 788.517304 -308.86782 
L 782.1615 -308.86782 
L 775.805696 -308.86782 
L 769.449893 -308.86782 
L 763.094089 -308.86782 
L 756.738286 -308.86782 
L 750.382482 -308.86782 
L 744.026679 -308.86782 
L 737.670875 -308.86782 
L 731.315071 -308.86782 
L 724.959268 -308.86782 
L 718.603464 -308.86782 
L 712.247661 -308.86782 
L 705.891857 -308.86782 
L 699.536054 -308.86782 
L 693.18025 -308.86782 
L 686.824446 -308.86782 
L 680.468643 -308.86782 
L 674.112839 -308.86782 
L 667.757036 -308.86782 
L 661.401232 -308.86782 
L 655.045429 -308.86782 
L 648.689625 -308.86782 
L 642.333821 -308.86782 
L 635.978018 -308.86782 
L 629.622214 -308.86782 
L 623.266411 -308.86782 
L 616.910607 -308.86782 
L 610.554804 -308.86782 
L 604.199 -308.86782 
L 597.843196 -308.86782 
L 591.487393 -308.86782 
L 585.131589 -308.86782 
L 578.775786 -308.86782 
L 572.419982 -308.86782 
L 566.064179 -308.86782 
L 559.708375 -308.86782 
L 553.352571 -308.86782 
L 546.996768 -308.86782 
L 540.640964 -308.86782 
L 534.285161 -308.86782 
L 527.929357 -308.86782 
L 521.573554 -308.86782 
L 515.21775 -308.86782 
L 508.861946 -308.86782 
L 502.506143 -308.86782 
L 496.150339 -308.86782 
L 489.794536 -308.871066 
L 483.438732 -308.880693 
L 477.082929 -308.907178 
L 470.727125 -309.081995 
L 464.371321 -309.324152 
L 458.015518 -325.504759 
L 451.659714 -327.509452 
L 445.303911 -328.471186 
L 438.948107 -329.850303 
L 432.592304 -330.732661 
L 426.2365 -330.790239 
L 419.880696 -330.795702 
L 413.524893 -330.795702 
L 407.169089 -330.796672 
L 400.813286 -330.796672 
L 394.457482 -330.796672 
L 388.101679 -330.796672 
L 381.745875 -330.796672 
L 375.390071 -330.796672 
L 369.034268 -330.796672 
L 362.678464 -330.796672 
L 356.322661 -330.796672 
L 349.966857 -330.796672 
L 343.611054 -330.799559 
L 337.25525 -330.799559 
L 330.899446 -330.799559 
L 324.543643 -330.799559 
L 318.187839 -330.799559 
L 311.832036 -330.799559 
L 305.476232 -330.799559 
L 299.120429 -330.799559 
L 292.764625 -330.799559 
L 286.408821 -330.799559 
L 280.053018 -330.799559 
L 273.697214 -330.799559 
L 267.341411 -330.799559 
L 260.985607 -330.799559 
L 254.629804 -330.799559 
L 248.274 -330.799559 
L 241.918196 -330.799559 
L 235.562393 -330.799559 
L 229.206589 -330.799559 
L 222.850786 -330.799559 
L 216.494982 -330.799559 
L 210.139179 -330.799559 
L 203.783375 -330.799559 
L 197.427571 -330.799559 
L 191.071768 -330.799559 
L 184.715964 -330.799559 
L 178.360161 -330.799559 
L 172.004357 -330.799559 
L 165.648554 -330.799559 
L 159.29275 -330.799559 
L 152.936946 -330.799559 
L 146.581143 -330.799559 
L 140.225339 -330.799559 
L 133.869536 -330.799559 
L 127.513732 -330.799559 
L 121.157929 -330.799559 
L 114.802125 -330.799559 
L 108.446321 -330.799559 
L 102.090518 -330.799559 
L 95.734714 -330.799559 
L 89.378911 -330.799559 
L 83.023107 -330.799559 
L 76.667304 -330.799559 
L 70.3115 -330.799559 
z
" id="m134f65bc42" style="stroke:#ffa500;stroke-opacity:0.25;"/>
    </defs>
    <g clip-path="url(#pfa035f3485)">
     <use style="fill:#ffa500;fill-opacity:0.25;stroke:#ffa500;stroke-opacity:0.25;" x="0" xlink:href="#m134f65bc42" y="422.874686"/>
    </g>
   </g>
   <g id="PolyCollection_2">
    <defs>
     <path d="M 464.371321 -43.75025 
L 432.592304 -43.75025 
L 432.592304 -389.62705 
L 464.371321 -389.62705 
L 464.371321 -389.62705 
L 464.371321 -43.75025 
z
" id="m46321bf185" style="stroke:#008000;stroke-opacity:0.25;"/>
    </defs>
    <g clip-path="url(#pfa035f3485)">
     <use style="fill:#008000;fill-opacity:0.25;stroke:#008000;stroke-opacity:0.25;" x="0" xlink:href="#m46321bf185" y="422.874686"/>
    </g>
   </g>
  </g>
 </g>
 <defs>
  <clipPath id="pfa035f3485">
   <rect height="345.8768" width="1067.775" x="70.3115" y="33.247636"/>
  </clipPath>
 </defs>
</svg>
