<?xml version="1.0" encoding="utf-8" standalone="no"?>
<!DOCTYPE svg PUBLIC "-//W3C//DTD SVG 1.1//EN"
  "http://www.w3.org/Graphics/SVG/1.1/DTD/svg11.dtd">
<!-- Created with matplotlib (https://matplotlib.org/) -->
<svg height="422.874686pt" version="1.1" viewBox="0 0 1145.4215 422.874686" width="1145.4215pt" xmlns="http://www.w3.org/2000/svg" xmlns:xlink="http://www.w3.org/1999/xlink">
 <defs>
  <style type="text/css">
*{stroke-linecap:butt;stroke-linejoin:round;}
  </style>
 </defs>
 <g id="figure_1">
  <g id="patch_1">
   <path d="M 0 422.874686 
L 1145.4215 422.874686 
L 1145.4215 0 
L 0 0 
z
" style="fill:#ffffff;"/>
  </g>
  <g id="axes_1">
   <g id="patch_2">
    <path d="M 77.9465 379.124436 
L 1138.2215 379.124436 
L 1138.2215 33.247636 
L 77.9465 33.247636 
z
" style="fill:#ffffff;"/>
   </g>
   <g id="patch_3">
    <path clip-path="url(#p2b6c28730f)" d="M 74.159804 379.124436 
L 81.733196 379.124436 
L 81.733196 337.382286 
L 74.159804 337.382286 
z
" style="fill:#348abd;opacity:0.85;"/>
   </g>
   <g id="patch_4">
    <path clip-path="url(#p2b6c28730f)" d="M 83.626545 379.124436 
L 91.199938 379.124436 
L 91.199938 190.926698 
L 83.626545 190.926698 
z
" style="fill:#348abd;opacity:0.85;"/>
   </g>
   <g id="patch_5">
    <path clip-path="url(#p2b6c28730f)" d="M 93.093286 379.124436 
L 100.666679 379.124436 
L 100.666679 244.996678 
L 93.093286 244.996678 
z
" style="fill:#348abd;opacity:0.85;"/>
   </g>
   <g id="patch_6">
    <path clip-path="url(#p2b6c28730f)" d="M 102.560027 379.124436 
L 110.13342 379.124436 
L 110.13342 209.358238 
L 102.560027 209.358238 
z
" style="fill:#348abd;opacity:0.85;"/>
   </g>
   <g id="patch_7">
    <path clip-path="url(#p2b6c28730f)" d="M 112.026768 379.124436 
L 119.600161 379.124436 
L 119.600161 156.767718 
L 112.026768 156.767718 
z
" style="fill:#348abd;opacity:0.85;"/>
   </g>
   <g id="patch_8">
    <path clip-path="url(#p2b6c28730f)" d="M 121.493509 379.124436 
L 129.066902 379.124436 
L 129.066902 194.486619 
L 121.493509 194.486619 
z
" style="fill:#348abd;opacity:0.85;"/>
   </g>
   <g id="patch_9">
    <path clip-path="url(#p2b6c28730f)" d="M 130.96025 379.124436 
L 138.533643 379.124436 
L 138.533643 212.343158 
L 130.96025 212.343158 
z
" style="fill:#348abd;opacity:0.85;"/>
   </g>
   <g id="patch_10">
    <path clip-path="url(#p2b6c28730f)" d="M 140.426991 379.124436 
L 148.000384 379.124436 
L 148.000384 176.640592 
L 140.426991 176.640592 
z
" style="fill:#348abd;opacity:0.85;"/>
   </g>
   <g id="patch_11">
    <path clip-path="url(#p2b6c28730f)" d="M 149.893732 379.124436 
L 157.467125 379.124436 
L 157.467125 159.256196 
L 149.893732 159.256196 
z
" style="fill:#348abd;opacity:0.85;"/>
   </g>
   <g id="patch_12">
    <path clip-path="url(#p2b6c28730f)" d="M 159.360473 379.124436 
L 166.933866 379.124436 
L 166.933866 151.354226 
L 159.360473 151.354226 
z
" style="fill:#348abd;opacity:0.85;"/>
   </g>
   <g id="patch_13">
    <path clip-path="url(#p2b6c28730f)" d="M 168.827214 379.124436 
L 176.400607 379.124436 
L 176.400607 110.486045 
L 168.827214 110.486045 
z
" style="fill:#348abd;opacity:0.85;"/>
   </g>
   <g id="patch_14">
    <path clip-path="url(#p2b6c28730f)" d="M 178.293955 379.124436 
L 185.867348 379.124436 
L 185.867348 126.319194 
L 178.293955 126.319194 
z
" style="fill:#348abd;opacity:0.85;"/>
   </g>
   <g id="patch_15">
    <path clip-path="url(#p2b6c28730f)" d="M 187.760696 379.124436 
L 195.334089 379.124436 
L 195.334089 158.432917 
L 187.760696 158.432917 
z
" style="fill:#348abd;opacity:0.85;"/>
   </g>
   <g id="patch_16">
    <path clip-path="url(#p2b6c28730f)" d="M 197.227438 379.124436 
L 204.80083 379.124436 
L 204.80083 182.801831 
L 197.227438 182.801831 
z
" style="fill:#348abd;opacity:0.85;"/>
   </g>
   <g id="patch_17">
    <path clip-path="url(#p2b6c28730f)" d="M 206.694179 379.124436 
L 214.267571 379.124436 
L 214.267571 254.212675 
L 206.694179 254.212675 
z
" style="fill:#348abd;opacity:0.85;"/>
   </g>
   <g id="patch_18">
    <path clip-path="url(#p2b6c28730f)" d="M 216.16092 379.124436 
L 223.734313 379.124436 
L 223.734313 324.774716 
L 216.16092 324.774716 
z
" style="fill:#348abd;opacity:0.85;"/>
   </g>
   <g id="patch_19">
    <path clip-path="url(#p2b6c28730f)" d="M 225.627661 379.124436 
L 233.201054 379.124436 
L 233.201054 335.19251 
L 225.627661 335.19251 
z
" style="fill:#348abd;opacity:0.85;"/>
   </g>
   <g id="patch_20">
    <path clip-path="url(#p2b6c28730f)" d="M 235.094402 379.124436 
L 242.667795 379.124436 
L 242.667795 208.920741 
L 235.094402 208.920741 
z
" style="fill:#348abd;opacity:0.85;"/>
   </g>
   <g id="patch_21">
    <path clip-path="url(#p2b6c28730f)" d="M 244.561143 379.124436 
L 252.134536 379.124436 
L 252.134536 219.836266 
L 244.561143 219.836266 
z
" style="fill:#348abd;opacity:0.85;"/>
   </g>
   <g id="patch_22">
    <path clip-path="url(#p2b6c28730f)" d="M 254.027884 379.124436 
L 261.601277 379.124436 
L 261.601277 184.852441 
L 254.027884 184.852441 
z
" style="fill:#348abd;opacity:0.85;"/>
   </g>
   <g id="patch_23">
    <path clip-path="url(#p2b6c28730f)" d="M 263.494625 379.124436 
L 271.068018 379.124436 
L 271.068018 151.162367 
L 263.494625 151.162367 
z
" style="fill:#348abd;opacity:0.85;"/>
   </g>
   <g id="patch_24">
    <path clip-path="url(#p2b6c28730f)" d="M 272.961366 379.124436 
L 280.534759 379.124436 
L 280.534759 190.141293 
L 272.961366 190.141293 
z
" style="fill:#348abd;opacity:0.85;"/>
   </g>
   <g id="patch_25">
    <path clip-path="url(#p2b6c28730f)" d="M 282.428107 379.124436 
L 290.0015 379.124436 
L 290.0015 195.203434 
L 282.428107 195.203434 
z
" style="fill:#348abd;opacity:0.85;"/>
   </g>
   <g id="patch_26">
    <path clip-path="url(#p2b6c28730f)" d="M 291.894848 379.124436 
L 299.468241 379.124436 
L 299.468241 180.401188 
L 291.894848 180.401188 
z
" style="fill:#348abd;opacity:0.85;"/>
   </g>
   <g id="patch_27">
    <path clip-path="url(#p2b6c28730f)" d="M 301.361589 379.124436 
L 308.934982 379.124436 
L 308.934982 172.475108 
L 301.361589 172.475108 
z
" style="fill:#348abd;opacity:0.85;"/>
   </g>
   <g id="patch_28">
    <path clip-path="url(#p2b6c28730f)" d="M 310.82833 379.124436 
L 318.401723 379.124436 
L 318.401723 98.569073 
L 310.82833 98.569073 
z
" style="fill:#348abd;opacity:0.85;"/>
   </g>
   <g id="patch_29">
    <path clip-path="url(#p2b6c28730f)" d="M 320.295071 379.124436 
L 327.868464 379.124436 
L 327.868464 71.249744 
L 320.295071 71.249744 
z
" style="fill:#348abd;opacity:0.85;"/>
   </g>
   <g id="patch_30">
    <path clip-path="url(#p2b6c28730f)" d="M 329.761813 379.124436 
L 337.335205 379.124436 
L 337.335205 76.823102 
L 329.761813 76.823102 
z
" style="fill:#348abd;opacity:0.85;"/>
   </g>
   <g id="patch_31">
    <path clip-path="url(#p2b6c28730f)" d="M 339.228554 379.124436 
L 346.801946 379.124436 
L 346.801946 102.707394 
L 339.228554 102.707394 
z
" style="fill:#348abd;opacity:0.85;"/>
   </g>
   <g id="patch_32">
    <path clip-path="url(#p2b6c28730f)" d="M 348.695295 379.124436 
L 356.268688 379.124436 
L 356.268688 223.822008 
L 348.695295 223.822008 
z
" style="fill:#348abd;opacity:0.85;"/>
   </g>
   <g id="patch_33">
    <path clip-path="url(#p2b6c28730f)" d="M 358.162036 379.124436 
L 365.735429 379.124436 
L 365.735429 249.900904 
L 358.162036 249.900904 
z
" style="fill:#348abd;opacity:0.85;"/>
   </g>
   <g id="patch_34">
    <path clip-path="url(#p2b6c28730f)" d="M 367.628777 379.124436 
L 375.20217 379.124436 
L 375.20217 316.979375 
L 367.628777 316.979375 
z
" style="fill:#348abd;opacity:0.85;"/>
   </g>
   <g id="patch_35">
    <path clip-path="url(#p2b6c28730f)" d="M 377.095518 379.124436 
L 384.668911 379.124436 
L 384.668911 332.440648 
L 377.095518 332.440648 
z
" style="fill:#348abd;opacity:0.85;"/>
   </g>
   <g id="patch_36">
    <path clip-path="url(#p2b6c28730f)" d="M 386.562259 379.124436 
L 394.135652 379.124436 
L 394.135652 175.576419 
L 386.562259 175.576419 
z
" style="fill:#348abd;opacity:0.85;"/>
   </g>
   <g id="patch_37">
    <path clip-path="url(#p2b6c28730f)" d="M 396.029 379.124436 
L 403.602393 379.124436 
L 403.602393 224.697135 
L 396.029 224.697135 
z
" style="fill:#348abd;opacity:0.85;"/>
   </g>
   <g id="patch_38">
    <path clip-path="url(#p2b6c28730f)" d="M 405.495741 379.124436 
L 413.069134 379.124436 
L 413.069134 185.468038 
L 405.495741 185.468038 
z
" style="fill:#348abd;opacity:0.85;"/>
   </g>
   <g id="patch_39">
    <path clip-path="url(#p2b6c28730f)" d="M 414.962482 379.124436 
L 422.535875 379.124436 
L 422.535875 123.327677 
L 414.962482 123.327677 
z
" style="fill:#348abd;opacity:0.85;"/>
   </g>
   <g id="patch_40">
    <path clip-path="url(#p2b6c28730f)" d="M 424.429223 379.124436 
L 432.002616 379.124436 
L 432.002616 110.091479 
L 424.429223 110.091479 
z
" style="fill:#348abd;opacity:0.85;"/>
   </g>
   <g id="patch_41">
    <path clip-path="url(#p2b6c28730f)" d="M 433.895964 379.124436 
L 441.469357 379.124436 
L 441.469357 171.181 
L 433.895964 171.181 
z
" style="fill:#348abd;opacity:0.85;"/>
   </g>
   <g id="patch_42">
    <path clip-path="url(#p2b6c28730f)" d="M 443.362705 379.124436 
L 450.936098 379.124436 
L 450.936098 174.817465 
L 443.362705 174.817465 
z
" style="fill:#348abd;opacity:0.85;"/>
   </g>
   <g id="patch_43">
    <path clip-path="url(#p2b6c28730f)" d="M 452.829446 379.124436 
L 460.402839 379.124436 
L 460.402839 123.418501 
L 452.829446 123.418501 
z
" style="fill:#348abd;opacity:0.85;"/>
   </g>
   <g id="patch_44">
    <path clip-path="url(#p2b6c28730f)" d="M 462.296188 379.124436 
L 469.86958 379.124436 
L 469.86958 68.633069 
L 462.296188 68.633069 
z
" style="fill:#348abd;opacity:0.85;"/>
   </g>
   <g id="patch_45">
    <path clip-path="url(#p2b6c28730f)" d="M 471.762929 379.124436 
L 479.336321 379.124436 
L 479.336321 49.71796 
L 471.762929 49.71796 
z
" style="fill:#348abd;opacity:0.85;"/>
   </g>
   <g id="patch_46">
    <path clip-path="url(#p2b6c28730f)" d="M 481.22967 379.124436 
L 488.803063 379.124436 
L 488.803063 78.254384 
L 481.22967 78.254384 
z
" style="fill:#348abd;opacity:0.85;"/>
   </g>
   <g id="patch_47">
    <path clip-path="url(#p2b6c28730f)" d="M 490.696411 379.124436 
L 498.269804 379.124436 
L 498.269804 170.233036 
L 490.696411 170.233036 
z
" style="fill:#348abd;opacity:0.85;"/>
   </g>
   <g id="patch_48">
    <path clip-path="url(#p2b6c28730f)" d="M 500.163152 379.124436 
L 507.736545 379.124436 
L 507.736545 181.135535 
L 500.163152 181.135535 
z
" style="fill:#348abd;opacity:0.85;"/>
   </g>
   <g id="patch_49">
    <path clip-path="url(#p2b6c28730f)" d="M 509.629893 379.124436 
L 517.203286 379.124436 
L 517.203286 260.395815 
L 509.629893 260.395815 
z
" style="fill:#348abd;opacity:0.85;"/>
   </g>
   <g id="patch_50">
    <path clip-path="url(#p2b6c28730f)" d="M 519.096634 379.124436 
L 526.670027 379.124436 
L 526.670027 328.076026 
L 519.096634 328.076026 
z
" style="fill:#348abd;opacity:0.85;"/>
   </g>
   <g id="patch_51">
    <path clip-path="url(#p2b6c28730f)" d="M 528.563375 379.124436 
L 536.136768 379.124436 
L 536.136768 337.715927 
L 528.563375 337.715927 
z
" style="fill:#348abd;opacity:0.85;"/>
   </g>
   <g id="patch_52">
    <path clip-path="url(#p2b6c28730f)" d="M 538.030116 379.124436 
L 545.603509 379.124436 
L 545.603509 172.990082 
L 538.030116 172.990082 
z
" style="fill:#348abd;opacity:0.85;"/>
   </g>
   <g id="patch_53">
    <path clip-path="url(#p2b6c28730f)" d="M 547.496857 379.124436 
L 555.07025 379.124436 
L 555.07025 216.30436 
L 547.496857 216.30436 
z
" style="fill:#348abd;opacity:0.85;"/>
   </g>
   <g id="patch_54">
    <path clip-path="url(#p2b6c28730f)" d="M 556.963598 379.124436 
L 564.536991 379.124436 
L 564.536991 171.098837 
L 556.963598 171.098837 
z
" style="fill:#348abd;opacity:0.85;"/>
   </g>
   <g id="patch_55">
    <path clip-path="url(#p2b6c28730f)" d="M 566.430339 379.124436 
L 574.003732 379.124436 
L 574.003732 104.829173 
L 566.430339 104.829173 
z
" style="fill:#348abd;opacity:0.85;"/>
   </g>
   <g id="patch_56">
    <path clip-path="url(#p2b6c28730f)" d="M 575.89708 379.124436 
L 583.470473 379.124436 
L 583.470473 117.617828 
L 575.89708 117.617828 
z
" style="fill:#348abd;opacity:0.85;"/>
   </g>
   <g id="patch_57">
    <path clip-path="url(#p2b6c28730f)" d="M 585.363821 379.124436 
L 592.937214 379.124436 
L 592.937214 154.761146 
L 585.363821 154.761146 
z
" style="fill:#348abd;opacity:0.85;"/>
   </g>
   <g id="patch_58">
    <path clip-path="url(#p2b6c28730f)" d="M 594.830563 379.124436 
L 602.403955 379.124436 
L 602.403955 148.127867 
L 594.830563 148.127867 
z
" style="fill:#348abd;opacity:0.85;"/>
   </g>
   <g id="patch_59">
    <path clip-path="url(#p2b6c28730f)" d="M 604.297304 379.124436 
L 611.870696 379.124436 
L 611.870696 141.482005 
L 604.297304 141.482005 
z
" style="fill:#348abd;opacity:0.85;"/>
   </g>
   <g id="patch_60">
    <path clip-path="url(#p2b6c28730f)" d="M 613.764045 379.124436 
L 621.337438 379.124436 
L 621.337438 131.225509 
L 613.764045 131.225509 
z
" style="fill:#348abd;opacity:0.85;"/>
   </g>
   <g id="patch_61">
    <path clip-path="url(#p2b6c28730f)" d="M 623.230786 379.124436 
L 630.804179 379.124436 
L 630.804179 122.963299 
L 623.230786 122.963299 
z
" style="fill:#348abd;opacity:0.85;"/>
   </g>
   <g id="patch_62">
    <path clip-path="url(#p2b6c28730f)" d="M 632.697527 379.124436 
L 640.27092 379.124436 
L 640.27092 174.497976 
L 632.697527 174.497976 
z
" style="fill:#348abd;opacity:0.85;"/>
   </g>
   <g id="patch_63">
    <path clip-path="url(#p2b6c28730f)" d="M 642.164268 379.124436 
L 649.737661 379.124436 
L 649.737661 221.339499 
L 642.164268 221.339499 
z
" style="fill:#348abd;opacity:0.85;"/>
   </g>
   <g id="patch_64">
    <path clip-path="url(#p2b6c28730f)" d="M 651.631009 379.124436 
L 659.204402 379.124436 
L 659.204402 237.091014 
L 651.631009 237.091014 
z
" style="fill:#348abd;opacity:0.85;"/>
   </g>
   <g id="patch_65">
    <path clip-path="url(#p2b6c28730f)" d="M 661.09775 379.124436 
L 668.671143 379.124436 
L 668.671143 265.049081 
L 661.09775 265.049081 
z
" style="fill:#348abd;opacity:0.85;"/>
   </g>
   <g id="patch_66">
    <path clip-path="url(#p2b6c28730f)" d="M 670.564491 379.124436 
L 678.137884 379.124436 
L 678.137884 321.896707 
L 670.564491 321.896707 
z
" style="fill:#348abd;opacity:0.85;"/>
   </g>
   <g id="patch_67">
    <path clip-path="url(#p2b6c28730f)" d="M 680.031232 379.124436 
L 687.604625 379.124436 
L 687.604625 346.43993 
L 680.031232 346.43993 
z
" style="fill:#348abd;opacity:0.85;"/>
   </g>
   <g id="patch_68">
    <path clip-path="url(#p2b6c28730f)" d="M 689.497973 379.124436 
L 697.071366 379.124436 
L 697.071366 196.048573 
L 689.497973 196.048573 
z
" style="fill:#348abd;opacity:0.85;"/>
   </g>
   <g id="patch_69">
    <path clip-path="url(#p2b6c28730f)" d="M 698.964714 379.124436 
L 706.538107 379.124436 
L 706.538107 230.48299 
L 698.964714 230.48299 
z
" style="fill:#348abd;opacity:0.85;"/>
   </g>
   <g id="patch_70">
    <path clip-path="url(#p2b6c28730f)" d="M 708.431455 379.124436 
L 716.004848 379.124436 
L 716.004848 211.57377 
L 708.431455 211.57377 
z
" style="fill:#348abd;opacity:0.85;"/>
   </g>
   <g id="patch_71">
    <path clip-path="url(#p2b6c28730f)" d="M 717.898196 379.124436 
L 725.471589 379.124436 
L 725.471589 177.71259 
L 717.898196 177.71259 
z
" style="fill:#348abd;opacity:0.85;"/>
   </g>
   <g id="patch_72">
    <path clip-path="url(#p2b6c28730f)" d="M 727.364937 379.124436 
L 734.93833 379.124436 
L 734.93833 185.519283 
L 727.364937 185.519283 
z
" style="fill:#348abd;opacity:0.85;"/>
   </g>
   <g id="patch_73">
    <path clip-path="url(#p2b6c28730f)" d="M 736.831679 379.124436 
L 744.405071 379.124436 
L 744.405071 215.181493 
L 736.831679 215.181493 
z
" style="fill:#348abd;opacity:0.85;"/>
   </g>
   <g id="patch_74">
    <path clip-path="url(#p2b6c28730f)" d="M 746.29842 379.124436 
L 753.871813 379.124436 
L 753.871813 183.807566 
L 746.29842 183.807566 
z
" style="fill:#348abd;opacity:0.85;"/>
   </g>
   <g id="patch_75">
    <path clip-path="url(#p2b6c28730f)" d="M 755.765161 379.124436 
L 763.338554 379.124436 
L 763.338554 199.548084 
L 755.765161 199.548084 
z
" style="fill:#348abd;opacity:0.85;"/>
   </g>
   <g id="patch_76">
    <path clip-path="url(#p2b6c28730f)" d="M 765.231902 379.124436 
L 772.805295 379.124436 
L 772.805295 187.846789 
L 765.231902 187.846789 
z
" style="fill:#348abd;opacity:0.85;"/>
   </g>
   <g id="patch_77">
    <path clip-path="url(#p2b6c28730f)" d="M 774.698643 379.124436 
L 782.272036 379.124436 
L 782.272036 204.552467 
L 774.698643 204.552467 
z
" style="fill:#348abd;opacity:0.85;"/>
   </g>
   <g id="patch_78">
    <path clip-path="url(#p2b6c28730f)" d="M 784.165384 379.124436 
L 791.738777 379.124436 
L 791.738777 159.112024 
L 784.165384 159.112024 
z
" style="fill:#348abd;opacity:0.85;"/>
   </g>
   <g id="patch_79">
    <path clip-path="url(#p2b6c28730f)" d="M 793.632125 379.124436 
L 801.205518 379.124436 
L 801.205518 257.822825 
L 793.632125 257.822825 
z
" style="fill:#348abd;opacity:0.85;"/>
   </g>
   <g id="patch_80">
    <path clip-path="url(#p2b6c28730f)" d="M 803.098866 379.124436 
L 810.672259 379.124436 
L 810.672259 291.357185 
L 803.098866 291.357185 
z
" style="fill:#348abd;opacity:0.85;"/>
   </g>
   <g id="patch_81">
    <path clip-path="url(#p2b6c28730f)" d="M 812.565607 379.124436 
L 820.139 379.124436 
L 820.139 332.119548 
L 812.565607 332.119548 
z
" style="fill:#348abd;opacity:0.85;"/>
   </g>
   <g id="patch_82">
    <path clip-path="url(#p2b6c28730f)" d="M 822.032348 379.124436 
L 829.605741 379.124436 
L 829.605741 352.865241 
L 822.032348 352.865241 
z
" style="fill:#348abd;opacity:0.85;"/>
   </g>
   <g id="patch_83">
    <path clip-path="url(#p2b6c28730f)" d="M 831.499089 379.124436 
L 839.072482 379.124436 
L 839.072482 355.145691 
L 831.499089 355.145691 
z
" style="fill:#348abd;opacity:0.85;"/>
   </g>
   <g id="patch_84">
    <path clip-path="url(#p2b6c28730f)" d="M 840.96583 379.124436 
L 848.539223 379.124436 
L 848.539223 178.442289 
L 840.96583 178.442289 
z
" style="fill:#348abd;opacity:0.85;"/>
   </g>
   <g id="patch_85">
    <path clip-path="url(#p2b6c28730f)" d="M 850.432571 379.124436 
L 858.005964 379.124436 
L 858.005964 233.523292 
L 850.432571 233.523292 
z
" style="fill:#348abd;opacity:0.85;"/>
   </g>
   <g id="patch_86">
    <path clip-path="url(#p2b6c28730f)" d="M 859.899313 379.124436 
L 867.472705 379.124436 
L 867.472705 221.41808 
L 859.899313 221.41808 
z
" style="fill:#348abd;opacity:0.85;"/>
   </g>
   <g id="patch_87">
    <path clip-path="url(#p2b6c28730f)" d="M 869.366054 379.124436 
L 876.939446 379.124436 
L 876.939446 194.795826 
L 869.366054 194.795826 
z
" style="fill:#348abd;opacity:0.85;"/>
   </g>
   <g id="patch_88">
    <path clip-path="url(#p2b6c28730f)" d="M 878.832795 379.124436 
L 886.406187 379.124436 
L 886.406187 209.232577 
L 878.832795 209.232577 
z
" style="fill:#348abd;opacity:0.85;"/>
   </g>
   <g id="patch_89">
    <path clip-path="url(#p2b6c28730f)" d="M 888.299536 379.124436 
L 895.872929 379.124436 
L 895.872929 221.699288 
L 888.299536 221.699288 
z
" style="fill:#348abd;opacity:0.85;"/>
   </g>
   <g id="patch_90">
    <path clip-path="url(#p2b6c28730f)" d="M 897.766277 379.124436 
L 905.33967 379.124436 
L 905.33967 231.037463 
L 897.766277 231.037463 
z
" style="fill:#348abd;opacity:0.85;"/>
   </g>
   <g id="patch_91">
    <path clip-path="url(#p2b6c28730f)" d="M 907.233018 379.124436 
L 914.806411 379.124436 
L 914.806411 211.269227 
L 907.233018 211.269227 
z
" style="fill:#348abd;opacity:0.85;"/>
   </g>
   <g id="patch_92">
    <path clip-path="url(#p2b6c28730f)" d="M 916.699759 379.124436 
L 924.273152 379.124436 
L 924.273152 161.208157 
L 916.699759 161.208157 
z
" style="fill:#348abd;opacity:0.85;"/>
   </g>
   <g id="patch_93">
    <path clip-path="url(#p2b6c28730f)" d="M 926.1665 379.124436 
L 933.739893 379.124436 
L 933.739893 171.108474 
L 926.1665 171.108474 
z
" style="fill:#348abd;opacity:0.85;"/>
   </g>
   <g id="patch_94">
    <path clip-path="url(#p2b6c28730f)" d="M 935.633241 379.124436 
L 943.206634 379.124436 
L 943.206634 168.619862 
L 935.633241 168.619862 
z
" style="fill:#348abd;opacity:0.85;"/>
   </g>
   <g id="patch_95">
    <path clip-path="url(#p2b6c28730f)" d="M 945.099982 379.124436 
L 952.673375 379.124436 
L 952.673375 246.079564 
L 945.099982 246.079564 
z
" style="fill:#348abd;opacity:0.85;"/>
   </g>
   <g id="patch_96">
    <path clip-path="url(#p2b6c28730f)" d="M 954.566723 379.124436 
L 962.140116 379.124436 
L 962.140116 310.378331 
L 954.566723 310.378331 
z
" style="fill:#348abd;opacity:0.85;"/>
   </g>
   <g id="patch_97">
    <path clip-path="url(#p2b6c28730f)" d="M 964.033464 379.124436 
L 971.606857 379.124436 
L 971.606857 324.648109 
L 964.033464 324.648109 
z
" style="fill:#348abd;opacity:0.85;"/>
   </g>
   <g id="patch_98">
    <path clip-path="url(#p2b6c28730f)" d="M 973.500205 379.124436 
L 981.073598 379.124436 
L 981.073598 348.266621 
L 973.500205 348.266621 
z
" style="fill:#348abd;opacity:0.85;"/>
   </g>
   <g id="patch_99">
    <path clip-path="url(#p2b6c28730f)" d="M 982.966946 379.124436 
L 990.540339 379.124436 
L 990.540339 343.699119 
L 982.966946 343.699119 
z
" style="fill:#348abd;opacity:0.85;"/>
   </g>
   <g id="patch_100">
    <path clip-path="url(#p2b6c28730f)" d="M 992.433688 379.124436 
L 1000.00708 379.124436 
L 1000.00708 197.576886 
L 992.433688 197.576886 
z
" style="fill:#348abd;opacity:0.85;"/>
   </g>
   <g id="patch_101">
    <path clip-path="url(#p2b6c28730f)" d="M 1001.900429 379.124436 
L 1009.473821 379.124436 
L 1009.473821 223.248864 
L 1001.900429 223.248864 
z
" style="fill:#348abd;opacity:0.85;"/>
   </g>
   <g id="patch_102">
    <path clip-path="url(#p2b6c28730f)" d="M 1011.36717 379.124436 
L 1018.940563 379.124436 
L 1018.940563 180.901734 
L 1011.36717 180.901734 
z
" style="fill:#348abd;opacity:0.85;"/>
   </g>
   <g id="patch_103">
    <path clip-path="url(#p2b6c28730f)" d="M 1020.833911 379.124436 
L 1028.407304 379.124436 
L 1028.407304 154.327223 
L 1020.833911 154.327223 
z
" style="fill:#348abd;opacity:0.85;"/>
   </g>
   <g id="patch_104">
    <path clip-path="url(#p2b6c28730f)" d="M 1030.300652 379.124436 
L 1037.874045 379.124436 
L 1037.874045 166.412527 
L 1030.300652 166.412527 
z
" style="fill:#348abd;opacity:0.85;"/>
   </g>
   <g id="patch_105">
    <path clip-path="url(#p2b6c28730f)" d="M 1039.767393 379.124436 
L 1047.340786 379.124436 
L 1047.340786 210.524496 
L 1039.767393 210.524496 
z
" style="fill:#348abd;opacity:0.85;"/>
   </g>
   <g id="patch_106">
    <path clip-path="url(#p2b6c28730f)" d="M 1049.234134 379.124436 
L 1056.807527 379.124436 
L 1056.807527 199.923322 
L 1049.234134 199.923322 
z
" style="fill:#348abd;opacity:0.85;"/>
   </g>
   <g id="patch_107">
    <path clip-path="url(#p2b6c28730f)" d="M 1058.700875 379.124436 
L 1066.274268 379.124436 
L 1066.274268 187.612103 
L 1058.700875 187.612103 
z
" style="fill:#348abd;opacity:0.85;"/>
   </g>
   <g id="patch_108">
    <path clip-path="url(#p2b6c28730f)" d="M 1068.167616 379.124436 
L 1075.741009 379.124436 
L 1075.741009 167.978536 
L 1068.167616 167.978536 
z
" style="fill:#348abd;opacity:0.85;"/>
   </g>
   <g id="patch_109">
    <path clip-path="url(#p2b6c28730f)" d="M 1077.634357 379.124436 
L 1085.20775 379.124436 
L 1085.20775 184.991924 
L 1077.634357 184.991924 
z
" style="fill:#348abd;opacity:0.85;"/>
   </g>
   <g id="patch_110">
    <path clip-path="url(#p2b6c28730f)" d="M 1087.101098 379.124436 
L 1094.674491 379.124436 
L 1094.674491 184.290249 
L 1087.101098 184.290249 
z
" style="fill:#348abd;opacity:0.85;"/>
   </g>
   <g id="patch_111">
    <path clip-path="url(#p2b6c28730f)" d="M 1096.567839 379.124436 
L 1104.141232 379.124436 
L 1104.141232 276.021088 
L 1096.567839 276.021088 
z
" style="fill:#348abd;opacity:0.85;"/>
   </g>
   <g id="patch_112">
    <path clip-path="url(#p2b6c28730f)" d="M 1106.03458 379.124436 
L 1113.607973 379.124436 
L 1113.607973 318.980278 
L 1106.03458 318.980278 
z
" style="fill:#348abd;opacity:0.85;"/>
   </g>
   <g id="patch_113">
    <path clip-path="url(#p2b6c28730f)" d="M 1115.501321 379.124436 
L 1123.074714 379.124436 
L 1123.074714 338.93983 
L 1115.501321 338.93983 
z
" style="fill:#348abd;opacity:0.85;"/>
   </g>
   <g id="patch_114">
    <path clip-path="url(#p2b6c28730f)" d="M 1124.968063 379.124436 
L 1132.541455 379.124436 
L 1132.541455 347.523295 
L 1124.968063 347.523295 
z
" style="fill:#348abd;opacity:0.85;"/>
   </g>
   <g id="matplotlib.axis_1">
    <g id="xtick_1">
     <g id="line2d_1">
      <path clip-path="url(#p2b6c28730f)" d="M 77.9465 379.124436 
L 77.9465 33.247636 
" style="fill:none;stroke:#808080;stroke-dasharray:0.3,0.495;stroke-dashoffset:0;stroke-width:0.3;"/>
     </g>
     <g id="line2d_2">
      <defs>
       <path d="M 0 0 
L 0 3.5 
" id="mfac1c195be" style="stroke:#000000;stroke-width:0.8;"/>
      </defs>
      <g>
       <use style="stroke:#000000;stroke-width:0.8;" x="77.9465" xlink:href="#mfac1c195be" y="379.124436"/>
      </g>
     </g>
     <g id="text_1">
      <!-- 0 -->
      <defs>
       <path d="M 31.78125 66.40625 
Q 24.171875 66.40625 20.328125 58.90625 
Q 16.5 51.421875 16.5 36.375 
Q 16.5 21.390625 20.328125 13.890625 
Q 24.171875 6.390625 31.78125 6.390625 
Q 39.453125 6.390625 43.28125 13.890625 
Q 47.125 21.390625 47.125 36.375 
Q 47.125 51.421875 43.28125 58.90625 
Q 39.453125 66.40625 31.78125 66.40625 
z
M 31.78125 74.21875 
Q 44.046875 74.21875 50.515625 64.515625 
Q 56.984375 54.828125 56.984375 36.375 
Q 56.984375 17.96875 50.515625 8.265625 
Q 44.046875 -1.421875 31.78125 -1.421875 
Q 19.53125 -1.421875 13.0625 8.265625 
Q 6.59375 17.96875 6.59375 36.375 
Q 6.59375 54.828125 13.0625 64.515625 
Q 19.53125 74.21875 31.78125 74.21875 
z
" id="DejaVuSans-48"/>
      </defs>
      <g transform="translate(74.129 395.242561)scale(0.12 -0.12)">
       <use xlink:href="#DejaVuSans-48"/>
      </g>
     </g>
    </g>
    <g id="xtick_2">
     <g id="line2d_3">
      <path clip-path="url(#p2b6c28730f)" d="M 267.281321 379.124436 
L 267.281321 33.247636 
" style="fill:none;stroke:#808080;stroke-dasharray:0.3,0.495;stroke-dashoffset:0;stroke-width:0.3;"/>
     </g>
     <g id="line2d_4">
      <g>
       <use style="stroke:#000000;stroke-width:0.8;" x="267.281321" xlink:href="#mfac1c195be" y="379.124436"/>
      </g>
     </g>
     <g id="text_2">
      <!-- 20 -->
      <defs>
       <path d="M 19.1875 8.296875 
L 53.609375 8.296875 
L 53.609375 0 
L 7.328125 0 
L 7.328125 8.296875 
Q 12.9375 14.109375 22.625 23.890625 
Q 32.328125 33.6875 34.8125 36.53125 
Q 39.546875 41.84375 41.421875 45.53125 
Q 43.3125 49.21875 43.3125 52.78125 
Q 43.3125 58.59375 39.234375 62.25 
Q 35.15625 65.921875 28.609375 65.921875 
Q 23.96875 65.921875 18.8125 64.3125 
Q 13.671875 62.703125 7.8125 59.421875 
L 7.8125 69.390625 
Q 13.765625 71.78125 18.9375 73 
Q 24.125 74.21875 28.421875 74.21875 
Q 39.75 74.21875 46.484375 68.546875 
Q 53.21875 62.890625 53.21875 53.421875 
Q 53.21875 48.921875 51.53125 44.890625 
Q 49.859375 40.875 45.40625 35.40625 
Q 44.1875 33.984375 37.640625 27.21875 
Q 31.109375 20.453125 19.1875 8.296875 
z
" id="DejaVuSans-50"/>
      </defs>
      <g transform="translate(259.646321 395.242561)scale(0.12 -0.12)">
       <use xlink:href="#DejaVuSans-50"/>
       <use x="63.623047" xlink:href="#DejaVuSans-48"/>
      </g>
     </g>
    </g>
    <g id="xtick_3">
     <g id="line2d_5">
      <path clip-path="url(#p2b6c28730f)" d="M 456.616143 379.124436 
L 456.616143 33.247636 
" style="fill:none;stroke:#808080;stroke-dasharray:0.3,0.495;stroke-dashoffset:0;stroke-width:0.3;"/>
     </g>
     <g id="line2d_6">
      <g>
       <use style="stroke:#000000;stroke-width:0.8;" x="456.616143" xlink:href="#mfac1c195be" y="379.124436"/>
      </g>
     </g>
     <g id="text_3">
      <!-- 40 -->
      <defs>
       <path d="M 37.796875 64.3125 
L 12.890625 25.390625 
L 37.796875 25.390625 
z
M 35.203125 72.90625 
L 47.609375 72.90625 
L 47.609375 25.390625 
L 58.015625 25.390625 
L 58.015625 17.1875 
L 47.609375 17.1875 
L 47.609375 0 
L 37.796875 0 
L 37.796875 17.1875 
L 4.890625 17.1875 
L 4.890625 26.703125 
z
" id="DejaVuSans-52"/>
      </defs>
      <g transform="translate(448.981143 395.242561)scale(0.12 -0.12)">
       <use xlink:href="#DejaVuSans-52"/>
       <use x="63.623047" xlink:href="#DejaVuSans-48"/>
      </g>
     </g>
    </g>
    <g id="xtick_4">
     <g id="line2d_7">
      <path clip-path="url(#p2b6c28730f)" d="M 645.950964 379.124436 
L 645.950964 33.247636 
" style="fill:none;stroke:#808080;stroke-dasharray:0.3,0.495;stroke-dashoffset:0;stroke-width:0.3;"/>
     </g>
     <g id="line2d_8">
      <g>
       <use style="stroke:#000000;stroke-width:0.8;" x="645.950964" xlink:href="#mfac1c195be" y="379.124436"/>
      </g>
     </g>
     <g id="text_4">
      <!-- 60 -->
      <defs>
       <path d="M 33.015625 40.375 
Q 26.375 40.375 22.484375 35.828125 
Q 18.609375 31.296875 18.609375 23.390625 
Q 18.609375 15.53125 22.484375 10.953125 
Q 26.375 6.390625 33.015625 6.390625 
Q 39.65625 6.390625 43.53125 10.953125 
Q 47.40625 15.53125 47.40625 23.390625 
Q 47.40625 31.296875 43.53125 35.828125 
Q 39.65625 40.375 33.015625 40.375 
z
M 52.59375 71.296875 
L 52.59375 62.3125 
Q 48.875 64.0625 45.09375 64.984375 
Q 41.3125 65.921875 37.59375 65.921875 
Q 27.828125 65.921875 22.671875 59.328125 
Q 17.53125 52.734375 16.796875 39.40625 
Q 19.671875 43.65625 24.015625 45.921875 
Q 28.375 48.1875 33.59375 48.1875 
Q 44.578125 48.1875 50.953125 41.515625 
Q 57.328125 34.859375 57.328125 23.390625 
Q 57.328125 12.15625 50.6875 5.359375 
Q 44.046875 -1.421875 33.015625 -1.421875 
Q 20.359375 -1.421875 13.671875 8.265625 
Q 6.984375 17.96875 6.984375 36.375 
Q 6.984375 53.65625 15.1875 63.9375 
Q 23.390625 74.21875 37.203125 74.21875 
Q 40.921875 74.21875 44.703125 73.484375 
Q 48.484375 72.75 52.59375 71.296875 
z
" id="DejaVuSans-54"/>
      </defs>
      <g transform="translate(638.315964 395.242561)scale(0.12 -0.12)">
       <use xlink:href="#DejaVuSans-54"/>
       <use x="63.623047" xlink:href="#DejaVuSans-48"/>
      </g>
     </g>
    </g>
    <g id="xtick_5">
     <g id="line2d_9">
      <path clip-path="url(#p2b6c28730f)" d="M 835.285786 379.124436 
L 835.285786 33.247636 
" style="fill:none;stroke:#808080;stroke-dasharray:0.3,0.495;stroke-dashoffset:0;stroke-width:0.3;"/>
     </g>
     <g id="line2d_10">
      <g>
       <use style="stroke:#000000;stroke-width:0.8;" x="835.285786" xlink:href="#mfac1c195be" y="379.124436"/>
      </g>
     </g>
     <g id="text_5">
      <!-- 80 -->
      <defs>
       <path d="M 31.78125 34.625 
Q 24.75 34.625 20.71875 30.859375 
Q 16.703125 27.09375 16.703125 20.515625 
Q 16.703125 13.921875 20.71875 10.15625 
Q 24.75 6.390625 31.78125 6.390625 
Q 38.8125 6.390625 42.859375 10.171875 
Q 46.921875 13.96875 46.921875 20.515625 
Q 46.921875 27.09375 42.890625 30.859375 
Q 38.875 34.625 31.78125 34.625 
z
M 21.921875 38.8125 
Q 15.578125 40.375 12.03125 44.71875 
Q 8.5 49.078125 8.5 55.328125 
Q 8.5 64.0625 14.71875 69.140625 
Q 20.953125 74.21875 31.78125 74.21875 
Q 42.671875 74.21875 48.875 69.140625 
Q 55.078125 64.0625 55.078125 55.328125 
Q 55.078125 49.078125 51.53125 44.71875 
Q 48 40.375 41.703125 38.8125 
Q 48.828125 37.15625 52.796875 32.3125 
Q 56.78125 27.484375 56.78125 20.515625 
Q 56.78125 9.90625 50.3125 4.234375 
Q 43.84375 -1.421875 31.78125 -1.421875 
Q 19.734375 -1.421875 13.25 4.234375 
Q 6.78125 9.90625 6.78125 20.515625 
Q 6.78125 27.484375 10.78125 32.3125 
Q 14.796875 37.15625 21.921875 38.8125 
z
M 18.3125 54.390625 
Q 18.3125 48.734375 21.84375 45.5625 
Q 25.390625 42.390625 31.78125 42.390625 
Q 38.140625 42.390625 41.71875 45.5625 
Q 45.3125 48.734375 45.3125 54.390625 
Q 45.3125 60.0625 41.71875 63.234375 
Q 38.140625 66.40625 31.78125 66.40625 
Q 25.390625 66.40625 21.84375 63.234375 
Q 18.3125 60.0625 18.3125 54.390625 
z
" id="DejaVuSans-56"/>
      </defs>
      <g transform="translate(827.650786 395.242561)scale(0.12 -0.12)">
       <use xlink:href="#DejaVuSans-56"/>
       <use x="63.623047" xlink:href="#DejaVuSans-48"/>
      </g>
     </g>
    </g>
    <g id="xtick_6">
     <g id="line2d_11">
      <path clip-path="url(#p2b6c28730f)" d="M 1024.620607 379.124436 
L 1024.620607 33.247636 
" style="fill:none;stroke:#808080;stroke-dasharray:0.3,0.495;stroke-dashoffset:0;stroke-width:0.3;"/>
     </g>
     <g id="line2d_12">
      <g>
       <use style="stroke:#000000;stroke-width:0.8;" x="1024.620607" xlink:href="#mfac1c195be" y="379.124436"/>
      </g>
     </g>
     <g id="text_6">
      <!-- 100 -->
      <defs>
       <path d="M 12.40625 8.296875 
L 28.515625 8.296875 
L 28.515625 63.921875 
L 10.984375 60.40625 
L 10.984375 69.390625 
L 28.421875 72.90625 
L 38.28125 72.90625 
L 38.28125 8.296875 
L 54.390625 8.296875 
L 54.390625 0 
L 12.40625 0 
z
" id="DejaVuSans-49"/>
      </defs>
      <g transform="translate(1013.168107 395.242561)scale(0.12 -0.12)">
       <use xlink:href="#DejaVuSans-49"/>
       <use x="63.623047" xlink:href="#DejaVuSans-48"/>
       <use x="127.246094" xlink:href="#DejaVuSans-48"/>
      </g>
     </g>
    </g>
    <g id="text_7">
     <!-- Time (in hours) -->
     <defs>
      <path d="M -0.296875 72.90625 
L 61.375 72.90625 
L 61.375 64.59375 
L 35.5 64.59375 
L 35.5 0 
L 25.59375 0 
L 25.59375 64.59375 
L -0.296875 64.59375 
z
" id="DejaVuSans-84"/>
      <path d="M 9.421875 54.6875 
L 18.40625 54.6875 
L 18.40625 0 
L 9.421875 0 
z
M 9.421875 75.984375 
L 18.40625 75.984375 
L 18.40625 64.59375 
L 9.421875 64.59375 
z
" id="DejaVuSans-105"/>
      <path d="M 52 44.1875 
Q 55.375 50.25 60.0625 53.125 
Q 64.75 56 71.09375 56 
Q 79.640625 56 84.28125 50.015625 
Q 88.921875 44.046875 88.921875 33.015625 
L 88.921875 0 
L 79.890625 0 
L 79.890625 32.71875 
Q 79.890625 40.578125 77.09375 44.375 
Q 74.3125 48.1875 68.609375 48.1875 
Q 61.625 48.1875 57.5625 43.546875 
Q 53.515625 38.921875 53.515625 30.90625 
L 53.515625 0 
L 44.484375 0 
L 44.484375 32.71875 
Q 44.484375 40.625 41.703125 44.40625 
Q 38.921875 48.1875 33.109375 48.1875 
Q 26.21875 48.1875 22.15625 43.53125 
Q 18.109375 38.875 18.109375 30.90625 
L 18.109375 0 
L 9.078125 0 
L 9.078125 54.6875 
L 18.109375 54.6875 
L 18.109375 46.1875 
Q 21.1875 51.21875 25.484375 53.609375 
Q 29.78125 56 35.6875 56 
Q 41.65625 56 45.828125 52.96875 
Q 50 49.953125 52 44.1875 
z
" id="DejaVuSans-109"/>
      <path d="M 56.203125 29.59375 
L 56.203125 25.203125 
L 14.890625 25.203125 
Q 15.484375 15.921875 20.484375 11.0625 
Q 25.484375 6.203125 34.421875 6.203125 
Q 39.59375 6.203125 44.453125 7.46875 
Q 49.3125 8.734375 54.109375 11.28125 
L 54.109375 2.78125 
Q 49.265625 0.734375 44.1875 -0.34375 
Q 39.109375 -1.421875 33.890625 -1.421875 
Q 20.796875 -1.421875 13.15625 6.1875 
Q 5.515625 13.8125 5.515625 26.8125 
Q 5.515625 40.234375 12.765625 48.109375 
Q 20.015625 56 32.328125 56 
Q 43.359375 56 49.78125 48.890625 
Q 56.203125 41.796875 56.203125 29.59375 
z
M 47.21875 32.234375 
Q 47.125 39.59375 43.09375 43.984375 
Q 39.0625 48.390625 32.421875 48.390625 
Q 24.90625 48.390625 20.390625 44.140625 
Q 15.875 39.890625 15.1875 32.171875 
z
" id="DejaVuSans-101"/>
      <path id="DejaVuSans-32"/>
      <path d="M 31 75.875 
Q 24.46875 64.65625 21.28125 53.65625 
Q 18.109375 42.671875 18.109375 31.390625 
Q 18.109375 20.125 21.3125 9.0625 
Q 24.515625 -2 31 -13.1875 
L 23.1875 -13.1875 
Q 15.875 -1.703125 12.234375 9.375 
Q 8.59375 20.453125 8.59375 31.390625 
Q 8.59375 42.28125 12.203125 53.3125 
Q 15.828125 64.359375 23.1875 75.875 
z
" id="DejaVuSans-40"/>
      <path d="M 54.890625 33.015625 
L 54.890625 0 
L 45.90625 0 
L 45.90625 32.71875 
Q 45.90625 40.484375 42.875 44.328125 
Q 39.84375 48.1875 33.796875 48.1875 
Q 26.515625 48.1875 22.3125 43.546875 
Q 18.109375 38.921875 18.109375 30.90625 
L 18.109375 0 
L 9.078125 0 
L 9.078125 54.6875 
L 18.109375 54.6875 
L 18.109375 46.1875 
Q 21.34375 51.125 25.703125 53.5625 
Q 30.078125 56 35.796875 56 
Q 45.21875 56 50.046875 50.171875 
Q 54.890625 44.34375 54.890625 33.015625 
z
" id="DejaVuSans-110"/>
      <path d="M 54.890625 33.015625 
L 54.890625 0 
L 45.90625 0 
L 45.90625 32.71875 
Q 45.90625 40.484375 42.875 44.328125 
Q 39.84375 48.1875 33.796875 48.1875 
Q 26.515625 48.1875 22.3125 43.546875 
Q 18.109375 38.921875 18.109375 30.90625 
L 18.109375 0 
L 9.078125 0 
L 9.078125 75.984375 
L 18.109375 75.984375 
L 18.109375 46.1875 
Q 21.34375 51.125 25.703125 53.5625 
Q 30.078125 56 35.796875 56 
Q 45.21875 56 50.046875 50.171875 
Q 54.890625 44.34375 54.890625 33.015625 
z
" id="DejaVuSans-104"/>
      <path d="M 30.609375 48.390625 
Q 23.390625 48.390625 19.1875 42.75 
Q 14.984375 37.109375 14.984375 27.296875 
Q 14.984375 17.484375 19.15625 11.84375 
Q 23.34375 6.203125 30.609375 6.203125 
Q 37.796875 6.203125 41.984375 11.859375 
Q 46.1875 17.53125 46.1875 27.296875 
Q 46.1875 37.015625 41.984375 42.703125 
Q 37.796875 48.390625 30.609375 48.390625 
z
M 30.609375 56 
Q 42.328125 56 49.015625 48.375 
Q 55.71875 40.765625 55.71875 27.296875 
Q 55.71875 13.875 49.015625 6.21875 
Q 42.328125 -1.421875 30.609375 -1.421875 
Q 18.84375 -1.421875 12.171875 6.21875 
Q 5.515625 13.875 5.515625 27.296875 
Q 5.515625 40.765625 12.171875 48.375 
Q 18.84375 56 30.609375 56 
z
" id="DejaVuSans-111"/>
      <path d="M 8.5 21.578125 
L 8.5 54.6875 
L 17.484375 54.6875 
L 17.484375 21.921875 
Q 17.484375 14.15625 20.5 10.265625 
Q 23.53125 6.390625 29.59375 6.390625 
Q 36.859375 6.390625 41.078125 11.03125 
Q 45.3125 15.671875 45.3125 23.6875 
L 45.3125 54.6875 
L 54.296875 54.6875 
L 54.296875 0 
L 45.3125 0 
L 45.3125 8.40625 
Q 42.046875 3.421875 37.71875 1 
Q 33.40625 -1.421875 27.6875 -1.421875 
Q 18.265625 -1.421875 13.375 4.4375 
Q 8.5 10.296875 8.5 21.578125 
z
M 31.109375 56 
z
" id="DejaVuSans-117"/>
      <path d="M 41.109375 46.296875 
Q 39.59375 47.171875 37.8125 47.578125 
Q 36.03125 48 33.890625 48 
Q 26.265625 48 22.1875 43.046875 
Q 18.109375 38.09375 18.109375 28.8125 
L 18.109375 0 
L 9.078125 0 
L 9.078125 54.6875 
L 18.109375 54.6875 
L 18.109375 46.1875 
Q 20.953125 51.171875 25.484375 53.578125 
Q 30.03125 56 36.53125 56 
Q 37.453125 56 38.578125 55.875 
Q 39.703125 55.765625 41.0625 55.515625 
z
" id="DejaVuSans-114"/>
      <path d="M 44.28125 53.078125 
L 44.28125 44.578125 
Q 40.484375 46.53125 36.375 47.5 
Q 32.28125 48.484375 27.875 48.484375 
Q 21.1875 48.484375 17.84375 46.4375 
Q 14.5 44.390625 14.5 40.28125 
Q 14.5 37.15625 16.890625 35.375 
Q 19.28125 33.59375 26.515625 31.984375 
L 29.59375 31.296875 
Q 39.15625 29.25 43.1875 25.515625 
Q 47.21875 21.78125 47.21875 15.09375 
Q 47.21875 7.46875 41.1875 3.015625 
Q 35.15625 -1.421875 24.609375 -1.421875 
Q 20.21875 -1.421875 15.453125 -0.5625 
Q 10.6875 0.296875 5.421875 2 
L 5.421875 11.28125 
Q 10.40625 8.6875 15.234375 7.390625 
Q 20.0625 6.109375 24.8125 6.109375 
Q 31.15625 6.109375 34.5625 8.28125 
Q 37.984375 10.453125 37.984375 14.40625 
Q 37.984375 18.0625 35.515625 20.015625 
Q 33.0625 21.96875 24.703125 23.78125 
L 21.578125 24.515625 
Q 13.234375 26.265625 9.515625 29.90625 
Q 5.8125 33.546875 5.8125 39.890625 
Q 5.8125 47.609375 11.28125 51.796875 
Q 16.75 56 26.8125 56 
Q 31.78125 56 36.171875 55.265625 
Q 40.578125 54.546875 44.28125 53.078125 
z
" id="DejaVuSans-115"/>
      <path d="M 8.015625 75.875 
L 15.828125 75.875 
Q 23.140625 64.359375 26.78125 53.3125 
Q 30.421875 42.28125 30.421875 31.390625 
Q 30.421875 20.453125 26.78125 9.375 
Q 23.140625 -1.703125 15.828125 -13.1875 
L 8.015625 -13.1875 
Q 14.5 -2 17.703125 9.0625 
Q 20.90625 20.125 20.90625 31.390625 
Q 20.90625 42.671875 17.703125 53.65625 
Q 14.5 64.65625 8.015625 75.875 
z
" id="DejaVuSans-41"/>
     </defs>
     <g transform="translate(553.245875 412.679936)scale(0.144 -0.144)">
      <use xlink:href="#DejaVuSans-84"/>
      <use x="61.037109" xlink:href="#DejaVuSans-105"/>
      <use x="88.820312" xlink:href="#DejaVuSans-109"/>
      <use x="186.232422" xlink:href="#DejaVuSans-101"/>
      <use x="247.755859" xlink:href="#DejaVuSans-32"/>
      <use x="279.542969" xlink:href="#DejaVuSans-40"/>
      <use x="318.556641" xlink:href="#DejaVuSans-105"/>
      <use x="346.339844" xlink:href="#DejaVuSans-110"/>
      <use x="409.71875" xlink:href="#DejaVuSans-32"/>
      <use x="441.505859" xlink:href="#DejaVuSans-104"/>
      <use x="504.884766" xlink:href="#DejaVuSans-111"/>
      <use x="566.066406" xlink:href="#DejaVuSans-117"/>
      <use x="629.445312" xlink:href="#DejaVuSans-114"/>
      <use x="670.558594" xlink:href="#DejaVuSans-115"/>
      <use x="722.658203" xlink:href="#DejaVuSans-41"/>
     </g>
    </g>
   </g>
   <g id="matplotlib.axis_2">
    <g id="ytick_1">
     <g id="line2d_13">
      <path clip-path="url(#p2b6c28730f)" d="M 77.9465 379.124436 
L 1138.2215 379.124436 
" style="fill:none;stroke:#808080;stroke-dasharray:0.3,0.495;stroke-dashoffset:0;stroke-width:0.3;"/>
     </g>
     <g id="line2d_14">
      <defs>
       <path d="M 0 0 
L -3.5 0 
" id="md670469c2f" style="stroke:#000000;stroke-width:0.8;"/>
      </defs>
      <g>
       <use style="stroke:#000000;stroke-width:0.8;" x="77.9465" xlink:href="#md670469c2f" y="379.124436"/>
      </g>
     </g>
     <g id="text_8">
      <!-- 0 -->
      <g transform="translate(63.3115 383.683498)scale(0.12 -0.12)">
       <use xlink:href="#DejaVuSans-48"/>
      </g>
     </g>
    </g>
    <g id="ytick_2">
     <g id="line2d_15">
      <path clip-path="url(#p2b6c28730f)" d="M 77.9465 315.091784 
L 1138.2215 315.091784 
" style="fill:none;stroke:#808080;stroke-dasharray:0.3,0.495;stroke-dashoffset:0;stroke-width:0.3;"/>
     </g>
     <g id="line2d_16">
      <g>
       <use style="stroke:#000000;stroke-width:0.8;" x="77.9465" xlink:href="#md670469c2f" y="315.091784"/>
      </g>
     </g>
     <g id="text_9">
      <!-- 20000 -->
      <g transform="translate(32.7715 319.650846)scale(0.12 -0.12)">
       <use xlink:href="#DejaVuSans-50"/>
       <use x="63.623047" xlink:href="#DejaVuSans-48"/>
       <use x="127.246094" xlink:href="#DejaVuSans-48"/>
       <use x="190.869141" xlink:href="#DejaVuSans-48"/>
       <use x="254.492188" xlink:href="#DejaVuSans-48"/>
      </g>
     </g>
    </g>
    <g id="ytick_3">
     <g id="line2d_17">
      <path clip-path="url(#p2b6c28730f)" d="M 77.9465 251.059131 
L 1138.2215 251.059131 
" style="fill:none;stroke:#808080;stroke-dasharray:0.3,0.495;stroke-dashoffset:0;stroke-width:0.3;"/>
     </g>
     <g id="line2d_18">
      <g>
       <use style="stroke:#000000;stroke-width:0.8;" x="77.9465" xlink:href="#md670469c2f" y="251.059131"/>
      </g>
     </g>
     <g id="text_10">
      <!-- 40000 -->
      <g transform="translate(32.7715 255.618194)scale(0.12 -0.12)">
       <use xlink:href="#DejaVuSans-52"/>
       <use x="63.623047" xlink:href="#DejaVuSans-48"/>
       <use x="127.246094" xlink:href="#DejaVuSans-48"/>
       <use x="190.869141" xlink:href="#DejaVuSans-48"/>
       <use x="254.492188" xlink:href="#DejaVuSans-48"/>
      </g>
     </g>
    </g>
    <g id="ytick_4">
     <g id="line2d_19">
      <path clip-path="url(#p2b6c28730f)" d="M 77.9465 187.026479 
L 1138.2215 187.026479 
" style="fill:none;stroke:#808080;stroke-dasharray:0.3,0.495;stroke-dashoffset:0;stroke-width:0.3;"/>
     </g>
     <g id="line2d_20">
      <g>
       <use style="stroke:#000000;stroke-width:0.8;" x="77.9465" xlink:href="#md670469c2f" y="187.026479"/>
      </g>
     </g>
     <g id="text_11">
      <!-- 60000 -->
      <g transform="translate(32.7715 191.585541)scale(0.12 -0.12)">
       <use xlink:href="#DejaVuSans-54"/>
       <use x="63.623047" xlink:href="#DejaVuSans-48"/>
       <use x="127.246094" xlink:href="#DejaVuSans-48"/>
       <use x="190.869141" xlink:href="#DejaVuSans-48"/>
       <use x="254.492188" xlink:href="#DejaVuSans-48"/>
      </g>
     </g>
    </g>
    <g id="ytick_5">
     <g id="line2d_21">
      <path clip-path="url(#p2b6c28730f)" d="M 77.9465 122.993826 
L 1138.2215 122.993826 
" style="fill:none;stroke:#808080;stroke-dasharray:0.3,0.495;stroke-dashoffset:0;stroke-width:0.3;"/>
     </g>
     <g id="line2d_22">
      <g>
       <use style="stroke:#000000;stroke-width:0.8;" x="77.9465" xlink:href="#md670469c2f" y="122.993826"/>
      </g>
     </g>
     <g id="text_12">
      <!-- 80000 -->
      <g transform="translate(32.7715 127.552889)scale(0.12 -0.12)">
       <use xlink:href="#DejaVuSans-56"/>
       <use x="63.623047" xlink:href="#DejaVuSans-48"/>
       <use x="127.246094" xlink:href="#DejaVuSans-48"/>
       <use x="190.869141" xlink:href="#DejaVuSans-48"/>
       <use x="254.492188" xlink:href="#DejaVuSans-48"/>
      </g>
     </g>
    </g>
    <g id="ytick_6">
     <g id="line2d_23">
      <path clip-path="url(#p2b6c28730f)" d="M 77.9465 58.961174 
L 1138.2215 58.961174 
" style="fill:none;stroke:#808080;stroke-dasharray:0.3,0.495;stroke-dashoffset:0;stroke-width:0.3;"/>
     </g>
     <g id="line2d_24">
      <g>
       <use style="stroke:#000000;stroke-width:0.8;" x="77.9465" xlink:href="#md670469c2f" y="58.961174"/>
      </g>
     </g>
     <g id="text_13">
      <!-- 100000 -->
      <g transform="translate(25.1365 63.520236)scale(0.12 -0.12)">
       <use xlink:href="#DejaVuSans-49"/>
       <use x="63.623047" xlink:href="#DejaVuSans-48"/>
       <use x="127.246094" xlink:href="#DejaVuSans-48"/>
       <use x="190.869141" xlink:href="#DejaVuSans-48"/>
       <use x="254.492188" xlink:href="#DejaVuSans-48"/>
       <use x="318.115234" xlink:href="#DejaVuSans-48"/>
      </g>
     </g>
    </g>
    <g id="text_14">
     <!-- Energy [Wh] -->
     <defs>
      <path d="M 9.8125 72.90625 
L 55.90625 72.90625 
L 55.90625 64.59375 
L 19.671875 64.59375 
L 19.671875 43.015625 
L 54.390625 43.015625 
L 54.390625 34.71875 
L 19.671875 34.71875 
L 19.671875 8.296875 
L 56.78125 8.296875 
L 56.78125 0 
L 9.8125 0 
z
" id="DejaVuSans-69"/>
      <path d="M 45.40625 27.984375 
Q 45.40625 37.75 41.375 43.109375 
Q 37.359375 48.484375 30.078125 48.484375 
Q 22.859375 48.484375 18.828125 43.109375 
Q 14.796875 37.75 14.796875 27.984375 
Q 14.796875 18.265625 18.828125 12.890625 
Q 22.859375 7.515625 30.078125 7.515625 
Q 37.359375 7.515625 41.375 12.890625 
Q 45.40625 18.265625 45.40625 27.984375 
z
M 54.390625 6.78125 
Q 54.390625 -7.171875 48.1875 -13.984375 
Q 42 -20.796875 29.203125 -20.796875 
Q 24.46875 -20.796875 20.265625 -20.09375 
Q 16.0625 -19.390625 12.109375 -17.921875 
L 12.109375 -9.1875 
Q 16.0625 -11.328125 19.921875 -12.34375 
Q 23.78125 -13.375 27.78125 -13.375 
Q 36.625 -13.375 41.015625 -8.765625 
Q 45.40625 -4.15625 45.40625 5.171875 
L 45.40625 9.625 
Q 42.625 4.78125 38.28125 2.390625 
Q 33.9375 0 27.875 0 
Q 17.828125 0 11.671875 7.65625 
Q 5.515625 15.328125 5.515625 27.984375 
Q 5.515625 40.671875 11.671875 48.328125 
Q 17.828125 56 27.875 56 
Q 33.9375 56 38.28125 53.609375 
Q 42.625 51.21875 45.40625 46.390625 
L 45.40625 54.6875 
L 54.390625 54.6875 
z
" id="DejaVuSans-103"/>
      <path d="M 32.171875 -5.078125 
Q 28.375 -14.84375 24.75 -17.8125 
Q 21.140625 -20.796875 15.09375 -20.796875 
L 7.90625 -20.796875 
L 7.90625 -13.28125 
L 13.1875 -13.28125 
Q 16.890625 -13.28125 18.9375 -11.515625 
Q 21 -9.765625 23.484375 -3.21875 
L 25.09375 0.875 
L 2.984375 54.6875 
L 12.5 54.6875 
L 29.59375 11.921875 
L 46.6875 54.6875 
L 56.203125 54.6875 
z
" id="DejaVuSans-121"/>
      <path d="M 8.59375 75.984375 
L 29.296875 75.984375 
L 29.296875 69 
L 17.578125 69 
L 17.578125 -6.203125 
L 29.296875 -6.203125 
L 29.296875 -13.1875 
L 8.59375 -13.1875 
z
" id="DejaVuSans-91"/>
      <path d="M 3.328125 72.90625 
L 13.28125 72.90625 
L 28.609375 11.28125 
L 43.890625 72.90625 
L 54.984375 72.90625 
L 70.3125 11.28125 
L 85.59375 72.90625 
L 95.609375 72.90625 
L 77.296875 0 
L 64.890625 0 
L 49.515625 63.28125 
L 33.984375 0 
L 21.578125 0 
z
" id="DejaVuSans-87"/>
      <path d="M 30.421875 75.984375 
L 30.421875 -13.1875 
L 9.71875 -13.1875 
L 9.71875 -6.203125 
L 21.390625 -6.203125 
L 21.390625 69 
L 9.71875 69 
L 9.71875 75.984375 
z
" id="DejaVuSans-93"/>
     </defs>
     <g transform="translate(18.14175 251.108411)rotate(-90)scale(0.144 -0.144)">
      <use xlink:href="#DejaVuSans-69"/>
      <use x="63.183594" xlink:href="#DejaVuSans-110"/>
      <use x="126.5625" xlink:href="#DejaVuSans-101"/>
      <use x="188.085938" xlink:href="#DejaVuSans-114"/>
      <use x="229.183594" xlink:href="#DejaVuSans-103"/>
      <use x="292.660156" xlink:href="#DejaVuSans-121"/>
      <use x="351.839844" xlink:href="#DejaVuSans-32"/>
      <use x="383.626953" xlink:href="#DejaVuSans-91"/>
      <use x="422.640625" xlink:href="#DejaVuSans-87"/>
      <use x="521.517578" xlink:href="#DejaVuSans-104"/>
      <use x="584.896484" xlink:href="#DejaVuSans-93"/>
     </g>
    </g>
   </g>
   <g id="patch_115">
    <path d="M 77.9465 379.124436 
L 77.9465 33.247636 
" style="fill:none;stroke:#000000;stroke-linecap:square;stroke-linejoin:miter;stroke-width:0.8;"/>
   </g>
   <g id="patch_116">
    <path d="M 1138.2215 379.124436 
L 1138.2215 33.247636 
" style="fill:none;stroke:#000000;stroke-linecap:square;stroke-linejoin:miter;stroke-width:0.8;"/>
   </g>
   <g id="patch_117">
    <path d="M 77.9465 379.124436 
L 1138.2215 379.124436 
" style="fill:none;stroke:#000000;stroke-linecap:square;stroke-linejoin:miter;stroke-width:0.8;"/>
   </g>
   <g id="patch_118">
    <path d="M 77.9465 33.247636 
L 1138.2215 33.247636 
" style="fill:none;stroke:#000000;stroke-linecap:square;stroke-linejoin:miter;stroke-width:0.8;"/>
   </g>
   <g id="text_15">
    <!-- 15-Mar-2020, 15:00 -->
    <defs>
     <path d="M 10.796875 72.90625 
L 49.515625 72.90625 
L 49.515625 64.59375 
L 19.828125 64.59375 
L 19.828125 46.734375 
Q 21.96875 47.46875 24.109375 47.828125 
Q 26.265625 48.1875 28.421875 48.1875 
Q 40.625 48.1875 47.75 41.5 
Q 54.890625 34.8125 54.890625 23.390625 
Q 54.890625 11.625 47.5625 5.09375 
Q 40.234375 -1.421875 26.90625 -1.421875 
Q 22.3125 -1.421875 17.546875 -0.640625 
Q 12.796875 0.140625 7.71875 1.703125 
L 7.71875 11.625 
Q 12.109375 9.234375 16.796875 8.0625 
Q 21.484375 6.890625 26.703125 6.890625 
Q 35.15625 6.890625 40.078125 11.328125 
Q 45.015625 15.765625 45.015625 23.390625 
Q 45.015625 31 40.078125 35.4375 
Q 35.15625 39.890625 26.703125 39.890625 
Q 22.75 39.890625 18.8125 39.015625 
Q 14.890625 38.140625 10.796875 36.28125 
z
" id="DejaVuSans-53"/>
     <path d="M 4.890625 31.390625 
L 31.203125 31.390625 
L 31.203125 23.390625 
L 4.890625 23.390625 
z
" id="DejaVuSans-45"/>
     <path d="M 9.8125 72.90625 
L 24.515625 72.90625 
L 43.109375 23.296875 
L 61.8125 72.90625 
L 76.515625 72.90625 
L 76.515625 0 
L 66.890625 0 
L 66.890625 64.015625 
L 48.09375 14.015625 
L 38.1875 14.015625 
L 19.390625 64.015625 
L 19.390625 0 
L 9.8125 0 
z
" id="DejaVuSans-77"/>
     <path d="M 34.28125 27.484375 
Q 23.390625 27.484375 19.1875 25 
Q 14.984375 22.515625 14.984375 16.5 
Q 14.984375 11.71875 18.140625 8.90625 
Q 21.296875 6.109375 26.703125 6.109375 
Q 34.1875 6.109375 38.703125 11.40625 
Q 43.21875 16.703125 43.21875 25.484375 
L 43.21875 27.484375 
z
M 52.203125 31.203125 
L 52.203125 0 
L 43.21875 0 
L 43.21875 8.296875 
Q 40.140625 3.328125 35.546875 0.953125 
Q 30.953125 -1.421875 24.3125 -1.421875 
Q 15.921875 -1.421875 10.953125 3.296875 
Q 6 8.015625 6 15.921875 
Q 6 25.140625 12.171875 29.828125 
Q 18.359375 34.515625 30.609375 34.515625 
L 43.21875 34.515625 
L 43.21875 35.40625 
Q 43.21875 41.609375 39.140625 45 
Q 35.0625 48.390625 27.6875 48.390625 
Q 23 48.390625 18.546875 47.265625 
Q 14.109375 46.140625 10.015625 43.890625 
L 10.015625 52.203125 
Q 14.9375 54.109375 19.578125 55.046875 
Q 24.21875 56 28.609375 56 
Q 40.484375 56 46.34375 49.84375 
Q 52.203125 43.703125 52.203125 31.203125 
z
" id="DejaVuSans-97"/>
     <path d="M 11.71875 12.40625 
L 22.015625 12.40625 
L 22.015625 4 
L 14.015625 -11.625 
L 7.71875 -11.625 
L 11.71875 4 
z
" id="DejaVuSans-44"/>
     <path d="M 11.71875 12.40625 
L 22.015625 12.40625 
L 22.015625 0 
L 11.71875 0 
z
M 11.71875 51.703125 
L 22.015625 51.703125 
L 22.015625 39.3125 
L 11.71875 39.3125 
z
" id="DejaVuSans-58"/>
    </defs>
    <g transform="translate(617.550741 90.9775)scale(0.16 -0.16)">
     <use xlink:href="#DejaVuSans-49"/>
     <use x="63.623047" xlink:href="#DejaVuSans-53"/>
     <use x="127.246094" xlink:href="#DejaVuSans-45"/>
     <use x="163.330078" xlink:href="#DejaVuSans-77"/>
     <use x="249.609375" xlink:href="#DejaVuSans-97"/>
     <use x="310.888672" xlink:href="#DejaVuSans-114"/>
     <use x="351.908203" xlink:href="#DejaVuSans-45"/>
     <use x="387.992188" xlink:href="#DejaVuSans-50"/>
     <use x="451.615234" xlink:href="#DejaVuSans-48"/>
     <use x="515.238281" xlink:href="#DejaVuSans-50"/>
     <use x="578.861328" xlink:href="#DejaVuSans-48"/>
     <use x="642.484375" xlink:href="#DejaVuSans-44"/>
     <use x="674.271484" xlink:href="#DejaVuSans-32"/>
     <use x="706.058594" xlink:href="#DejaVuSans-49"/>
     <use x="769.681641" xlink:href="#DejaVuSans-53"/>
     <use x="833.304688" xlink:href="#DejaVuSans-58"/>
     <use x="866.996094" xlink:href="#DejaVuSans-48"/>
     <use x="930.619141" xlink:href="#DejaVuSans-48"/>
    </g>
   </g>
   <g id="text_16">
    <!-- Expected energy consumption - Main Incomer, KFC (Bracknell, UK) -->
    <defs>
     <path d="M 54.890625 54.6875 
L 35.109375 28.078125 
L 55.90625 0 
L 45.3125 0 
L 29.390625 21.484375 
L 13.484375 0 
L 2.875 0 
L 24.125 28.609375 
L 4.6875 54.6875 
L 15.28125 54.6875 
L 29.78125 35.203125 
L 44.28125 54.6875 
z
" id="DejaVuSans-120"/>
     <path d="M 18.109375 8.203125 
L 18.109375 -20.796875 
L 9.078125 -20.796875 
L 9.078125 54.6875 
L 18.109375 54.6875 
L 18.109375 46.390625 
Q 20.953125 51.265625 25.265625 53.625 
Q 29.59375 56 35.59375 56 
Q 45.5625 56 51.78125 48.09375 
Q 58.015625 40.1875 58.015625 27.296875 
Q 58.015625 14.40625 51.78125 6.484375 
Q 45.5625 -1.421875 35.59375 -1.421875 
Q 29.59375 -1.421875 25.265625 0.953125 
Q 20.953125 3.328125 18.109375 8.203125 
z
M 48.6875 27.296875 
Q 48.6875 37.203125 44.609375 42.84375 
Q 40.53125 48.484375 33.40625 48.484375 
Q 26.265625 48.484375 22.1875 42.84375 
Q 18.109375 37.203125 18.109375 27.296875 
Q 18.109375 17.390625 22.1875 11.75 
Q 26.265625 6.109375 33.40625 6.109375 
Q 40.53125 6.109375 44.609375 11.75 
Q 48.6875 17.390625 48.6875 27.296875 
z
" id="DejaVuSans-112"/>
     <path d="M 48.78125 52.59375 
L 48.78125 44.1875 
Q 44.96875 46.296875 41.140625 47.34375 
Q 37.3125 48.390625 33.40625 48.390625 
Q 24.65625 48.390625 19.8125 42.84375 
Q 14.984375 37.3125 14.984375 27.296875 
Q 14.984375 17.28125 19.8125 11.734375 
Q 24.65625 6.203125 33.40625 6.203125 
Q 37.3125 6.203125 41.140625 7.25 
Q 44.96875 8.296875 48.78125 10.40625 
L 48.78125 2.09375 
Q 45.015625 0.34375 40.984375 -0.53125 
Q 36.96875 -1.421875 32.421875 -1.421875 
Q 20.0625 -1.421875 12.78125 6.34375 
Q 5.515625 14.109375 5.515625 27.296875 
Q 5.515625 40.671875 12.859375 48.328125 
Q 20.21875 56 33.015625 56 
Q 37.15625 56 41.109375 55.140625 
Q 45.0625 54.296875 48.78125 52.59375 
z
" id="DejaVuSans-99"/>
     <path d="M 18.3125 70.21875 
L 18.3125 54.6875 
L 36.8125 54.6875 
L 36.8125 47.703125 
L 18.3125 47.703125 
L 18.3125 18.015625 
Q 18.3125 11.328125 20.140625 9.421875 
Q 21.96875 7.515625 27.59375 7.515625 
L 36.8125 7.515625 
L 36.8125 0 
L 27.59375 0 
Q 17.1875 0 13.234375 3.875 
Q 9.28125 7.765625 9.28125 18.015625 
L 9.28125 47.703125 
L 2.6875 47.703125 
L 2.6875 54.6875 
L 9.28125 54.6875 
L 9.28125 70.21875 
z
" id="DejaVuSans-116"/>
     <path d="M 45.40625 46.390625 
L 45.40625 75.984375 
L 54.390625 75.984375 
L 54.390625 0 
L 45.40625 0 
L 45.40625 8.203125 
Q 42.578125 3.328125 38.25 0.953125 
Q 33.9375 -1.421875 27.875 -1.421875 
Q 17.96875 -1.421875 11.734375 6.484375 
Q 5.515625 14.40625 5.515625 27.296875 
Q 5.515625 40.1875 11.734375 48.09375 
Q 17.96875 56 27.875 56 
Q 33.9375 56 38.25 53.625 
Q 42.578125 51.265625 45.40625 46.390625 
z
M 14.796875 27.296875 
Q 14.796875 17.390625 18.875 11.75 
Q 22.953125 6.109375 30.078125 6.109375 
Q 37.203125 6.109375 41.296875 11.75 
Q 45.40625 17.390625 45.40625 27.296875 
Q 45.40625 37.203125 41.296875 42.84375 
Q 37.203125 48.484375 30.078125 48.484375 
Q 22.953125 48.484375 18.875 42.84375 
Q 14.796875 37.203125 14.796875 27.296875 
z
" id="DejaVuSans-100"/>
     <path d="M 9.8125 72.90625 
L 19.671875 72.90625 
L 19.671875 0 
L 9.8125 0 
z
" id="DejaVuSans-73"/>
     <path d="M 9.8125 72.90625 
L 19.671875 72.90625 
L 19.671875 42.09375 
L 52.390625 72.90625 
L 65.09375 72.90625 
L 28.90625 38.921875 
L 67.671875 0 
L 54.6875 0 
L 19.671875 35.109375 
L 19.671875 0 
L 9.8125 0 
z
" id="DejaVuSans-75"/>
     <path d="M 9.8125 72.90625 
L 51.703125 72.90625 
L 51.703125 64.59375 
L 19.671875 64.59375 
L 19.671875 43.109375 
L 48.578125 43.109375 
L 48.578125 34.8125 
L 19.671875 34.8125 
L 19.671875 0 
L 9.8125 0 
z
" id="DejaVuSans-70"/>
     <path d="M 64.40625 67.28125 
L 64.40625 56.890625 
Q 59.421875 61.53125 53.78125 63.8125 
Q 48.140625 66.109375 41.796875 66.109375 
Q 29.296875 66.109375 22.65625 58.46875 
Q 16.015625 50.828125 16.015625 36.375 
Q 16.015625 21.96875 22.65625 14.328125 
Q 29.296875 6.6875 41.796875 6.6875 
Q 48.140625 6.6875 53.78125 8.984375 
Q 59.421875 11.28125 64.40625 15.921875 
L 64.40625 5.609375 
Q 59.234375 2.09375 53.4375 0.328125 
Q 47.65625 -1.421875 41.21875 -1.421875 
Q 24.65625 -1.421875 15.125 8.703125 
Q 5.609375 18.84375 5.609375 36.375 
Q 5.609375 53.953125 15.125 64.078125 
Q 24.65625 74.21875 41.21875 74.21875 
Q 47.75 74.21875 53.53125 72.484375 
Q 59.328125 70.75 64.40625 67.28125 
z
" id="DejaVuSans-67"/>
     <path d="M 19.671875 34.8125 
L 19.671875 8.109375 
L 35.5 8.109375 
Q 43.453125 8.109375 47.28125 11.40625 
Q 51.125 14.703125 51.125 21.484375 
Q 51.125 28.328125 47.28125 31.5625 
Q 43.453125 34.8125 35.5 34.8125 
z
M 19.671875 64.796875 
L 19.671875 42.828125 
L 34.28125 42.828125 
Q 41.5 42.828125 45.03125 45.53125 
Q 48.578125 48.25 48.578125 53.8125 
Q 48.578125 59.328125 45.03125 62.0625 
Q 41.5 64.796875 34.28125 64.796875 
z
M 9.8125 72.90625 
L 35.015625 72.90625 
Q 46.296875 72.90625 52.390625 68.21875 
Q 58.5 63.53125 58.5 54.890625 
Q 58.5 48.1875 55.375 44.234375 
Q 52.25 40.28125 46.1875 39.3125 
Q 53.46875 37.75 57.5 32.78125 
Q 61.53125 27.828125 61.53125 20.40625 
Q 61.53125 10.640625 54.890625 5.3125 
Q 48.25 0 35.984375 0 
L 9.8125 0 
z
" id="DejaVuSans-66"/>
     <path d="M 9.078125 75.984375 
L 18.109375 75.984375 
L 18.109375 31.109375 
L 44.921875 54.6875 
L 56.390625 54.6875 
L 27.390625 29.109375 
L 57.625 0 
L 45.90625 0 
L 18.109375 26.703125 
L 18.109375 0 
L 9.078125 0 
z
" id="DejaVuSans-107"/>
     <path d="M 9.421875 75.984375 
L 18.40625 75.984375 
L 18.40625 0 
L 9.421875 0 
z
" id="DejaVuSans-108"/>
     <path d="M 8.6875 72.90625 
L 18.609375 72.90625 
L 18.609375 28.609375 
Q 18.609375 16.890625 22.84375 11.734375 
Q 27.09375 6.59375 36.625 6.59375 
Q 46.09375 6.59375 50.34375 11.734375 
Q 54.59375 16.890625 54.59375 28.609375 
L 54.59375 72.90625 
L 64.5 72.90625 
L 64.5 27.390625 
Q 64.5 13.140625 57.4375 5.859375 
Q 50.390625 -1.421875 36.625 -1.421875 
Q 22.796875 -1.421875 15.734375 5.859375 
Q 8.6875 13.140625 8.6875 27.390625 
z
" id="DejaVuSans-85"/>
    </defs>
    <g transform="translate(319.5053 20.3301)scale(0.1728 -0.1728)">
     <use xlink:href="#DejaVuSans-69"/>
     <use x="63.183594" xlink:href="#DejaVuSans-120"/>
     <use x="122.363281" xlink:href="#DejaVuSans-112"/>
     <use x="185.839844" xlink:href="#DejaVuSans-101"/>
     <use x="247.363281" xlink:href="#DejaVuSans-99"/>
     <use x="302.34375" xlink:href="#DejaVuSans-116"/>
     <use x="341.552734" xlink:href="#DejaVuSans-101"/>
     <use x="403.076172" xlink:href="#DejaVuSans-100"/>
     <use x="466.552734" xlink:href="#DejaVuSans-32"/>
     <use x="498.339844" xlink:href="#DejaVuSans-101"/>
     <use x="559.863281" xlink:href="#DejaVuSans-110"/>
     <use x="623.242188" xlink:href="#DejaVuSans-101"/>
     <use x="684.765625" xlink:href="#DejaVuSans-114"/>
     <use x="725.863281" xlink:href="#DejaVuSans-103"/>
     <use x="789.339844" xlink:href="#DejaVuSans-121"/>
     <use x="848.519531" xlink:href="#DejaVuSans-32"/>
     <use x="880.306641" xlink:href="#DejaVuSans-99"/>
     <use x="935.287109" xlink:href="#DejaVuSans-111"/>
     <use x="996.46875" xlink:href="#DejaVuSans-110"/>
     <use x="1059.847656" xlink:href="#DejaVuSans-115"/>
     <use x="1111.947266" xlink:href="#DejaVuSans-117"/>
     <use x="1175.326172" xlink:href="#DejaVuSans-109"/>
     <use x="1272.738281" xlink:href="#DejaVuSans-112"/>
     <use x="1336.214844" xlink:href="#DejaVuSans-116"/>
     <use x="1375.423828" xlink:href="#DejaVuSans-105"/>
     <use x="1403.207031" xlink:href="#DejaVuSans-111"/>
     <use x="1464.388672" xlink:href="#DejaVuSans-110"/>
     <use x="1527.767578" xlink:href="#DejaVuSans-32"/>
     <use x="1559.554688" xlink:href="#DejaVuSans-45"/>
     <use x="1595.638672" xlink:href="#DejaVuSans-32"/>
     <use x="1627.425781" xlink:href="#DejaVuSans-77"/>
     <use x="1713.705078" xlink:href="#DejaVuSans-97"/>
     <use x="1774.984375" xlink:href="#DejaVuSans-105"/>
     <use x="1802.767578" xlink:href="#DejaVuSans-110"/>
     <use x="1866.146484" xlink:href="#DejaVuSans-32"/>
     <use x="1897.933594" xlink:href="#DejaVuSans-73"/>
     <use x="1927.425781" xlink:href="#DejaVuSans-110"/>
     <use x="1990.804688" xlink:href="#DejaVuSans-99"/>
     <use x="2045.785156" xlink:href="#DejaVuSans-111"/>
     <use x="2106.966797" xlink:href="#DejaVuSans-109"/>
     <use x="2204.378906" xlink:href="#DejaVuSans-101"/>
     <use x="2265.902344" xlink:href="#DejaVuSans-114"/>
     <use x="2307.015625" xlink:href="#DejaVuSans-44"/>
     <use x="2338.802734" xlink:href="#DejaVuSans-32"/>
     <use x="2370.589844" xlink:href="#DejaVuSans-75"/>
     <use x="2436.166016" xlink:href="#DejaVuSans-70"/>
     <use x="2493.685547" xlink:href="#DejaVuSans-67"/>
     <use x="2563.509766" xlink:href="#DejaVuSans-32"/>
     <use x="2595.296875" xlink:href="#DejaVuSans-40"/>
     <use x="2634.310547" xlink:href="#DejaVuSans-66"/>
     <use x="2702.914062" xlink:href="#DejaVuSans-114"/>
     <use x="2744.027344" xlink:href="#DejaVuSans-97"/>
     <use x="2805.306641" xlink:href="#DejaVuSans-99"/>
     <use x="2860.287109" xlink:href="#DejaVuSans-107"/>
     <use x="2918.197266" xlink:href="#DejaVuSans-110"/>
     <use x="2981.576172" xlink:href="#DejaVuSans-101"/>
     <use x="3043.099609" xlink:href="#DejaVuSans-108"/>
     <use x="3070.882812" xlink:href="#DejaVuSans-108"/>
     <use x="3098.666016" xlink:href="#DejaVuSans-44"/>
     <use x="3130.453125" xlink:href="#DejaVuSans-32"/>
     <use x="3162.240234" xlink:href="#DejaVuSans-85"/>
     <use x="3235.433594" xlink:href="#DejaVuSans-75"/>
     <use x="3301.009766" xlink:href="#DejaVuSans-41"/>
    </g>
   </g>
   <g id="line2d_25">
    <path clip-path="url(#p2b6c28730f)" d="M 77.9465 229.214823 
L 87.413241 205.308797 
L 96.879982 205.187019 
L 106.346723 205.128546 
L 115.813464 205.110327 
L 125.280205 205.081425 
L 134.746946 205.081718 
L 144.213687 205.08077 
L 153.680429 205.080275 
L 163.14717 205.079285 
L 172.613911 205.079285 
L 182.080652 205.079285 
L 191.547393 205.079285 
L 201.014134 205.079285 
L 210.480875 205.079285 
L 219.947616 205.079285 
L 229.414357 205.079285 
L 238.881098 205.079285 
L 248.347839 205.079285 
L 257.81458 205.079285 
L 267.281321 205.079285 
L 276.748063 205.079285 
L 286.214804 205.079285 
L 295.681545 205.079285 
L 305.148286 205.079285 
L 314.615027 205.079285 
L 324.081768 205.079285 
L 333.548509 205.079285 
L 343.01525 205.079285 
L 352.481991 205.079285 
L 361.948732 205.079285 
L 371.415473 205.079285 
L 380.882214 205.079285 
L 390.348955 205.079285 
L 399.815696 205.079285 
L 409.282438 205.079285 
L 418.749179 205.079285 
L 428.21592 205.079285 
L 437.682661 205.079285 
L 447.149402 205.079285 
L 456.616143 205.079285 
L 466.082884 205.079285 
L 475.549625 205.079285 
L 485.016366 205.079285 
L 494.483107 205.079285 
L 503.949848 205.079285 
L 513.416589 205.079285 
L 522.88333 205.079285 
L 532.350071 205.079285 
L 541.816813 205.079285 
L 551.283554 205.079285 
L 560.750295 205.079285 
L 570.217036 205.079285 
L 579.683777 205.079285 
L 589.150518 205.079285 
L 598.617259 205.079285 
L 608.084 205.079285 
L 617.550741 205.079285 
L 627.017482 205.079285 
L 636.484223 205.079285 
L 645.950964 205.079285 
L 655.417705 205.079285 
L 664.884446 205.079285 
L 674.351188 205.079285 
L 683.817929 205.079285 
L 693.28467 205.079285 
L 702.751411 205.079285 
L 712.218152 205.079285 
L 721.684893 205.079285 
L 731.151634 205.079285 
L 740.618375 205.079285 
L 750.085116 205.079285 
L 759.551857 205.079285 
L 769.018598 205.079285 
L 778.485339 205.079285 
L 787.95208 205.079285 
L 797.418821 205.079285 
L 806.885563 205.079285 
L 816.352304 205.079285 
L 825.819045 205.079285 
L 835.285786 205.079285 
L 844.752527 205.079285 
L 854.219268 205.079285 
L 863.686009 205.079285 
L 873.15275 205.079285 
L 882.619491 205.079285 
L 892.086232 205.079285 
L 901.552973 205.079285 
L 911.019714 205.079285 
L 920.486455 205.079285 
L 929.953196 205.079285 
L 939.419938 205.079285 
L 948.886679 205.079285 
L 958.35342 205.079285 
L 967.820161 205.079285 
L 977.286902 205.079285 
L 986.753643 205.079285 
L 996.220384 205.079285 
L 1005.687125 205.079285 
L 1015.153866 205.079285 
L 1024.620607 205.079285 
L 1034.087348 205.079285 
L 1043.554089 205.079285 
L 1053.02083 205.079285 
L 1062.487571 205.079285 
L 1071.954313 205.079285 
L 1081.421054 205.098765 
L 1090.887795 205.192361 
L 1100.354536 208.214652 
L 1109.821277 249.315608 
L 1119.288018 269.860869 
L 1128.754759 270.868415 
" style="fill:none;stroke:#e24a33;stroke-linecap:square;stroke-opacity:0.95;stroke-width:4;"/>
   </g>
   <g id="legend_1">
    <g id="patch_119">
     <path d="M 954.12275 144.353761 
L 1129.8215 144.353761 
Q 1132.2215 144.353761 1132.2215 141.953761 
L 1132.2215 41.647636 
Q 1132.2215 39.247636 1129.8215 39.247636 
L 954.12275 39.247636 
Q 951.72275 39.247636 951.72275 41.647636 
L 951.72275 141.953761 
Q 951.72275 144.353761 954.12275 144.353761 
z
" style="fill:#ffffff;opacity:0.8;stroke:#cccccc;stroke-linejoin:miter;"/>
    </g>
    <g id="line2d_26">
     <path d="M 956.52275 48.965761 
L 980.52275 48.965761 
" style="fill:none;stroke:#e24a33;stroke-linecap:square;stroke-opacity:0.95;stroke-width:4;"/>
    </g>
    <g id="line2d_27"/>
    <g id="text_17">
     <!-- expected consumption -->
     <g transform="translate(990.12275 53.165761)scale(0.12 -0.12)">
      <use xlink:href="#DejaVuSans-101"/>
      <use x="61.507812" xlink:href="#DejaVuSans-120"/>
      <use x="120.6875" xlink:href="#DejaVuSans-112"/>
      <use x="184.164062" xlink:href="#DejaVuSans-101"/>
      <use x="245.6875" xlink:href="#DejaVuSans-99"/>
      <use x="300.667969" xlink:href="#DejaVuSans-116"/>
      <use x="339.876953" xlink:href="#DejaVuSans-101"/>
      <use x="401.400391" xlink:href="#DejaVuSans-100"/>
      <use x="464.876953" xlink:href="#DejaVuSans-32"/>
      <use x="496.664062" xlink:href="#DejaVuSans-99"/>
      <use x="551.644531" xlink:href="#DejaVuSans-111"/>
      <use x="612.826172" xlink:href="#DejaVuSans-110"/>
      <use x="676.205078" xlink:href="#DejaVuSans-115"/>
      <use x="728.304688" xlink:href="#DejaVuSans-117"/>
      <use x="791.683594" xlink:href="#DejaVuSans-109"/>
      <use x="889.095703" xlink:href="#DejaVuSans-112"/>
      <use x="952.572266" xlink:href="#DejaVuSans-116"/>
      <use x="991.78125" xlink:href="#DejaVuSans-105"/>
      <use x="1019.564453" xlink:href="#DejaVuSans-111"/>
      <use x="1080.746094" xlink:href="#DejaVuSans-110"/>
     </g>
    </g>
    <g id="line2d_28">
     <path d="M 956.52275 66.579511 
L 980.52275 66.579511 
" style="fill:none;stroke:#000000;stroke-dasharray:4,6.6;stroke-dashoffset:0;stroke-width:4;"/>
    </g>
    <g id="line2d_29"/>
    <g id="text_18">
     <!-- Time of change -->
     <defs>
      <path d="M 37.109375 75.984375 
L 37.109375 68.5 
L 28.515625 68.5 
Q 23.6875 68.5 21.796875 66.546875 
Q 19.921875 64.59375 19.921875 59.515625 
L 19.921875 54.6875 
L 34.71875 54.6875 
L 34.71875 47.703125 
L 19.921875 47.703125 
L 19.921875 0 
L 10.890625 0 
L 10.890625 47.703125 
L 2.296875 47.703125 
L 2.296875 54.6875 
L 10.890625 54.6875 
L 10.890625 58.5 
Q 10.890625 67.625 15.140625 71.796875 
Q 19.390625 75.984375 28.609375 75.984375 
z
" id="DejaVuSans-102"/>
     </defs>
     <g transform="translate(990.12275 70.779511)scale(0.12 -0.12)">
      <use xlink:href="#DejaVuSans-84"/>
      <use x="61.037109" xlink:href="#DejaVuSans-105"/>
      <use x="88.820312" xlink:href="#DejaVuSans-109"/>
      <use x="186.232422" xlink:href="#DejaVuSans-101"/>
      <use x="247.755859" xlink:href="#DejaVuSans-32"/>
      <use x="279.542969" xlink:href="#DejaVuSans-111"/>
      <use x="340.724609" xlink:href="#DejaVuSans-102"/>
      <use x="375.929688" xlink:href="#DejaVuSans-32"/>
      <use x="407.716797" xlink:href="#DejaVuSans-99"/>
      <use x="462.697266" xlink:href="#DejaVuSans-104"/>
      <use x="526.076172" xlink:href="#DejaVuSans-97"/>
      <use x="587.355469" xlink:href="#DejaVuSans-110"/>
      <use x="650.734375" xlink:href="#DejaVuSans-103"/>
      <use x="714.210938" xlink:href="#DejaVuSans-101"/>
     </g>
    </g>
    <g id="patch_120">
     <path d="M 956.52275 88.393261 
L 980.52275 88.393261 
L 980.52275 79.993261 
L 956.52275 79.993261 
z
" style="fill:#ffa500;opacity:0.25;stroke:#ffa500;stroke-linejoin:miter;"/>
    </g>
    <g id="text_19">
     <!-- 90% Credible Interval -->
     <defs>
      <path d="M 10.984375 1.515625 
L 10.984375 10.5 
Q 14.703125 8.734375 18.5 7.8125 
Q 22.3125 6.890625 25.984375 6.890625 
Q 35.75 6.890625 40.890625 13.453125 
Q 46.046875 20.015625 46.78125 33.40625 
Q 43.953125 29.203125 39.59375 26.953125 
Q 35.25 24.703125 29.984375 24.703125 
Q 19.046875 24.703125 12.671875 31.3125 
Q 6.296875 37.9375 6.296875 49.421875 
Q 6.296875 60.640625 12.9375 67.421875 
Q 19.578125 74.21875 30.609375 74.21875 
Q 43.265625 74.21875 49.921875 64.515625 
Q 56.59375 54.828125 56.59375 36.375 
Q 56.59375 19.140625 48.40625 8.859375 
Q 40.234375 -1.421875 26.421875 -1.421875 
Q 22.703125 -1.421875 18.890625 -0.6875 
Q 15.09375 0.046875 10.984375 1.515625 
z
M 30.609375 32.421875 
Q 37.25 32.421875 41.125 36.953125 
Q 45.015625 41.5 45.015625 49.421875 
Q 45.015625 57.28125 41.125 61.84375 
Q 37.25 66.40625 30.609375 66.40625 
Q 23.96875 66.40625 20.09375 61.84375 
Q 16.21875 57.28125 16.21875 49.421875 
Q 16.21875 41.5 20.09375 36.953125 
Q 23.96875 32.421875 30.609375 32.421875 
z
" id="DejaVuSans-57"/>
      <path d="M 72.703125 32.078125 
Q 68.453125 32.078125 66.03125 28.46875 
Q 63.625 24.859375 63.625 18.40625 
Q 63.625 12.0625 66.03125 8.421875 
Q 68.453125 4.78125 72.703125 4.78125 
Q 76.859375 4.78125 79.265625 8.421875 
Q 81.6875 12.0625 81.6875 18.40625 
Q 81.6875 24.8125 79.265625 28.4375 
Q 76.859375 32.078125 72.703125 32.078125 
z
M 72.703125 38.28125 
Q 80.421875 38.28125 84.953125 32.90625 
Q 89.5 27.546875 89.5 18.40625 
Q 89.5 9.28125 84.9375 3.921875 
Q 80.375 -1.421875 72.703125 -1.421875 
Q 64.890625 -1.421875 60.34375 3.921875 
Q 55.8125 9.28125 55.8125 18.40625 
Q 55.8125 27.59375 60.375 32.9375 
Q 64.9375 38.28125 72.703125 38.28125 
z
M 22.3125 68.015625 
Q 18.109375 68.015625 15.6875 64.375 
Q 13.28125 60.75 13.28125 54.390625 
Q 13.28125 47.953125 15.671875 44.328125 
Q 18.0625 40.71875 22.3125 40.71875 
Q 26.5625 40.71875 28.96875 44.328125 
Q 31.390625 47.953125 31.390625 54.390625 
Q 31.390625 60.6875 28.953125 64.34375 
Q 26.515625 68.015625 22.3125 68.015625 
z
M 66.40625 74.21875 
L 74.21875 74.21875 
L 28.609375 -1.421875 
L 20.796875 -1.421875 
z
M 22.3125 74.21875 
Q 30.03125 74.21875 34.609375 68.875 
Q 39.203125 63.53125 39.203125 54.390625 
Q 39.203125 45.171875 34.640625 39.84375 
Q 30.078125 34.515625 22.3125 34.515625 
Q 14.546875 34.515625 10.03125 39.859375 
Q 5.515625 45.21875 5.515625 54.390625 
Q 5.515625 63.484375 10.046875 68.84375 
Q 14.59375 74.21875 22.3125 74.21875 
z
" id="DejaVuSans-37"/>
      <path d="M 48.6875 27.296875 
Q 48.6875 37.203125 44.609375 42.84375 
Q 40.53125 48.484375 33.40625 48.484375 
Q 26.265625 48.484375 22.1875 42.84375 
Q 18.109375 37.203125 18.109375 27.296875 
Q 18.109375 17.390625 22.1875 11.75 
Q 26.265625 6.109375 33.40625 6.109375 
Q 40.53125 6.109375 44.609375 11.75 
Q 48.6875 17.390625 48.6875 27.296875 
z
M 18.109375 46.390625 
Q 20.953125 51.265625 25.265625 53.625 
Q 29.59375 56 35.59375 56 
Q 45.5625 56 51.78125 48.09375 
Q 58.015625 40.1875 58.015625 27.296875 
Q 58.015625 14.40625 51.78125 6.484375 
Q 45.5625 -1.421875 35.59375 -1.421875 
Q 29.59375 -1.421875 25.265625 0.953125 
Q 20.953125 3.328125 18.109375 8.203125 
L 18.109375 0 
L 9.078125 0 
L 9.078125 75.984375 
L 18.109375 75.984375 
z
" id="DejaVuSans-98"/>
      <path d="M 2.984375 54.6875 
L 12.5 54.6875 
L 29.59375 8.796875 
L 46.6875 54.6875 
L 56.203125 54.6875 
L 35.6875 0 
L 23.484375 0 
z
" id="DejaVuSans-118"/>
     </defs>
     <g transform="translate(990.12275 88.393261)scale(0.12 -0.12)">
      <use xlink:href="#DejaVuSans-57"/>
      <use x="63.623047" xlink:href="#DejaVuSans-48"/>
      <use x="127.246094" xlink:href="#DejaVuSans-37"/>
      <use x="222.265625" xlink:href="#DejaVuSans-32"/>
      <use x="254.052734" xlink:href="#DejaVuSans-67"/>
      <use x="323.876953" xlink:href="#DejaVuSans-114"/>
      <use x="364.958984" xlink:href="#DejaVuSans-101"/>
      <use x="426.482422" xlink:href="#DejaVuSans-100"/>
      <use x="489.958984" xlink:href="#DejaVuSans-105"/>
      <use x="517.742188" xlink:href="#DejaVuSans-98"/>
      <use x="581.21875" xlink:href="#DejaVuSans-108"/>
      <use x="609.001953" xlink:href="#DejaVuSans-101"/>
      <use x="670.525391" xlink:href="#DejaVuSans-32"/>
      <use x="702.3125" xlink:href="#DejaVuSans-73"/>
      <use x="731.804688" xlink:href="#DejaVuSans-110"/>
      <use x="795.183594" xlink:href="#DejaVuSans-116"/>
      <use x="834.392578" xlink:href="#DejaVuSans-101"/>
      <use x="895.916016" xlink:href="#DejaVuSans-114"/>
      <use x="937.029297" xlink:href="#DejaVuSans-118"/>
      <use x="996.208984" xlink:href="#DejaVuSans-97"/>
      <use x="1057.488281" xlink:href="#DejaVuSans-108"/>
     </g>
    </g>
    <g id="patch_121">
     <path d="M 956.52275 113.973511 
L 980.52275 113.973511 
L 980.52275 105.573511 
L 956.52275 105.573511 
z
" style="fill:#008000;opacity:0.25;stroke:#008000;stroke-linejoin:miter;"/>
    </g>
    <g id="text_20">
     <!-- 90% Credible Interval  -->
     <g transform="translate(990.12275 106.007011)scale(0.12 -0.12)">
      <use xlink:href="#DejaVuSans-57"/>
      <use x="63.623047" xlink:href="#DejaVuSans-48"/>
      <use x="127.246094" xlink:href="#DejaVuSans-37"/>
      <use x="222.265625" xlink:href="#DejaVuSans-32"/>
      <use x="254.052734" xlink:href="#DejaVuSans-67"/>
      <use x="323.876953" xlink:href="#DejaVuSans-114"/>
      <use x="364.958984" xlink:href="#DejaVuSans-101"/>
      <use x="426.482422" xlink:href="#DejaVuSans-100"/>
      <use x="489.958984" xlink:href="#DejaVuSans-105"/>
      <use x="517.742188" xlink:href="#DejaVuSans-98"/>
      <use x="581.21875" xlink:href="#DejaVuSans-108"/>
      <use x="609.001953" xlink:href="#DejaVuSans-101"/>
      <use x="670.525391" xlink:href="#DejaVuSans-32"/>
      <use x="702.3125" xlink:href="#DejaVuSans-73"/>
      <use x="731.804688" xlink:href="#DejaVuSans-110"/>
      <use x="795.183594" xlink:href="#DejaVuSans-116"/>
      <use x="834.392578" xlink:href="#DejaVuSans-101"/>
      <use x="895.916016" xlink:href="#DejaVuSans-114"/>
      <use x="937.029297" xlink:href="#DejaVuSans-118"/>
      <use x="996.208984" xlink:href="#DejaVuSans-97"/>
      <use x="1057.488281" xlink:href="#DejaVuSans-108"/>
      <use x="1085.271484" xlink:href="#DejaVuSans-32"/>
     </g>
     <!--  for tau -->
     <g transform="translate(990.12275 119.444386)scale(0.12 -0.12)">
      <use xlink:href="#DejaVuSans-32"/>
      <use x="31.787109" xlink:href="#DejaVuSans-102"/>
      <use x="66.992188" xlink:href="#DejaVuSans-111"/>
      <use x="128.173828" xlink:href="#DejaVuSans-114"/>
      <use x="169.287109" xlink:href="#DejaVuSans-32"/>
      <use x="201.074219" xlink:href="#DejaVuSans-116"/>
      <use x="240.283203" xlink:href="#DejaVuSans-97"/>
      <use x="301.5625" xlink:href="#DejaVuSans-117"/>
     </g>
    </g>
    <g id="patch_122">
     <path d="M 956.52275 137.058136 
L 980.52275 137.058136 
L 980.52275 128.658136 
L 956.52275 128.658136 
z
" style="fill:#348abd;opacity:0.85;"/>
    </g>
    <g id="text_21">
     <!-- observed consumption -->
     <g transform="translate(990.12275 137.058136)scale(0.12 -0.12)">
      <use xlink:href="#DejaVuSans-111"/>
      <use x="61.181641" xlink:href="#DejaVuSans-98"/>
      <use x="124.658203" xlink:href="#DejaVuSans-115"/>
      <use x="176.757812" xlink:href="#DejaVuSans-101"/>
      <use x="238.28125" xlink:href="#DejaVuSans-114"/>
      <use x="279.394531" xlink:href="#DejaVuSans-118"/>
      <use x="338.574219" xlink:href="#DejaVuSans-101"/>
      <use x="400.097656" xlink:href="#DejaVuSans-100"/>
      <use x="463.574219" xlink:href="#DejaVuSans-32"/>
      <use x="495.361328" xlink:href="#DejaVuSans-99"/>
      <use x="550.341797" xlink:href="#DejaVuSans-111"/>
      <use x="611.523438" xlink:href="#DejaVuSans-110"/>
      <use x="674.902344" xlink:href="#DejaVuSans-115"/>
      <use x="727.001953" xlink:href="#DejaVuSans-117"/>
      <use x="790.380859" xlink:href="#DejaVuSans-109"/>
      <use x="887.792969" xlink:href="#DejaVuSans-112"/>
      <use x="951.269531" xlink:href="#DejaVuSans-116"/>
      <use x="990.478516" xlink:href="#DejaVuSans-105"/>
      <use x="1018.261719" xlink:href="#DejaVuSans-111"/>
      <use x="1079.443359" xlink:href="#DejaVuSans-110"/>
     </g>
    </g>
   </g>
   <g id="line2d_30">
    <path clip-path="url(#p2b6c28730f)" d="M 598.617259 379.124436 
L 598.617259 33.247636 
" style="fill:none;stroke:#000000;stroke-dasharray:4,6.6;stroke-dashoffset:0;stroke-width:4;"/>
   </g>
   <g id="PolyCollection_1">
    <defs>
     <path d="M 77.9465 -231.388501 
L 77.9465 -81.421368 
L 87.413241 -203.767616 
L 96.879982 -203.970487 
L 106.346723 -204.017018 
L 115.813464 -204.047146 
L 125.280205 -204.086247 
L 134.746946 -204.091823 
L 144.213687 -204.095454 
L 153.680429 -204.095454 
L 163.14717 -204.095454 
L 172.613911 -204.095454 
L 182.080652 -204.095454 
L 191.547393 -204.095454 
L 201.014134 -204.095454 
L 210.480875 -204.095454 
L 219.947616 -204.095454 
L 229.414357 -204.095454 
L 238.881098 -204.095454 
L 248.347839 -204.095454 
L 257.81458 -204.095454 
L 267.281321 -204.095454 
L 276.748063 -204.095454 
L 286.214804 -204.095454 
L 295.681545 -204.095454 
L 305.148286 -204.095454 
L 314.615027 -204.095454 
L 324.081768 -204.095454 
L 333.548509 -204.095454 
L 343.01525 -204.095454 
L 352.481991 -204.095454 
L 361.948732 -204.095454 
L 371.415473 -204.095454 
L 380.882214 -204.095454 
L 390.348955 -204.095454 
L 399.815696 -204.095454 
L 409.282438 -204.095454 
L 418.749179 -204.095454 
L 428.21592 -204.095454 
L 437.682661 -204.095454 
L 447.149402 -204.095454 
L 456.616143 -204.095454 
L 466.082884 -204.095454 
L 475.549625 -204.095454 
L 485.016366 -204.095454 
L 494.483107 -204.095454 
L 503.949848 -204.095454 
L 513.416589 -204.095454 
L 522.88333 -204.095454 
L 532.350071 -204.095454 
L 541.816813 -204.095454 
L 551.283554 -204.095454 
L 560.750295 -204.095454 
L 570.217036 -204.095454 
L 579.683777 -204.095454 
L 589.150518 -204.095454 
L 598.617259 -204.095454 
L 608.084 -204.095454 
L 617.550741 -204.095454 
L 627.017482 -204.095454 
L 636.484223 -204.095454 
L 645.950964 -204.095454 
L 655.417705 -204.095454 
L 664.884446 -204.095454 
L 674.351188 -204.095454 
L 683.817929 -204.095454 
L 693.28467 -204.095454 
L 702.751411 -204.095454 
L 712.218152 -204.095454 
L 721.684893 -204.095454 
L 731.151634 -204.095454 
L 740.618375 -204.095454 
L 750.085116 -204.095454 
L 759.551857 -204.095454 
L 769.018598 -204.095454 
L 778.485339 -204.095454 
L 787.95208 -204.095454 
L 797.418821 -204.095454 
L 806.885563 -204.095454 
L 816.352304 -204.095454 
L 825.819045 -204.095454 
L 835.285786 -204.095454 
L 844.752527 -204.095454 
L 854.219268 -204.095454 
L 863.686009 -204.095454 
L 873.15275 -204.095454 
L 882.619491 -204.095454 
L 892.086232 -204.095454 
L 901.552973 -204.095454 
L 911.019714 -204.095454 
L 920.486455 -204.095454 
L 929.953196 -204.095454 
L 939.419938 -204.095454 
L 948.886679 -204.095454 
L 958.35342 -204.095454 
L 967.820161 -204.095454 
L 977.286902 -204.095454 
L 986.753643 -204.095454 
L 996.220384 -204.095454 
L 1005.687125 -204.095454 
L 1015.153866 -204.095454 
L 1024.620607 -204.095454 
L 1034.087348 -204.095454 
L 1043.554089 -204.095454 
L 1053.02083 -204.095454 
L 1062.487571 -204.095454 
L 1071.954313 -204.095454 
L 1081.421054 -204.081925 
L 1090.887795 -204.017018 
L 1100.354536 -201.092335 
L 1109.821277 -81.661396 
L 1119.288018 -76.397924 
L 1128.754759 -76.097309 
L 1128.754759 -227.602196 
L 1128.754759 -227.602196 
L 1119.288018 -227.658548 
L 1109.821277 -229.413851 
L 1100.354536 -231.972831 
L 1090.887795 -232.192722 
L 1081.421054 -232.195254 
L 1071.954313 -232.206839 
L 1062.487571 -232.206839 
L 1053.02083 -232.206839 
L 1043.554089 -232.206839 
L 1034.087348 -232.206839 
L 1024.620607 -232.206839 
L 1015.153866 -232.206839 
L 1005.687125 -232.206839 
L 996.220384 -232.206839 
L 986.753643 -232.206839 
L 977.286902 -232.206839 
L 967.820161 -232.206839 
L 958.35342 -232.206839 
L 948.886679 -232.206839 
L 939.419938 -232.206839 
L 929.953196 -232.206839 
L 920.486455 -232.206839 
L 911.019714 -232.206839 
L 901.552973 -232.206839 
L 892.086232 -232.206839 
L 882.619491 -232.206839 
L 873.15275 -232.206839 
L 863.686009 -232.206839 
L 854.219268 -232.206839 
L 844.752527 -232.206839 
L 835.285786 -232.206839 
L 825.819045 -232.206839 
L 816.352304 -232.206839 
L 806.885563 -232.206839 
L 797.418821 -232.206839 
L 787.95208 -232.206839 
L 778.485339 -232.206839 
L 769.018598 -232.206839 
L 759.551857 -232.206839 
L 750.085116 -232.206839 
L 740.618375 -232.206839 
L 731.151634 -232.206839 
L 721.684893 -232.206839 
L 712.218152 -232.206839 
L 702.751411 -232.206839 
L 693.28467 -232.206839 
L 683.817929 -232.206839 
L 674.351188 -232.206839 
L 664.884446 -232.206839 
L 655.417705 -232.206839 
L 645.950964 -232.206839 
L 636.484223 -232.206839 
L 627.017482 -232.206839 
L 617.550741 -232.206839 
L 608.084 -232.206839 
L 598.617259 -232.206839 
L 589.150518 -232.206839 
L 579.683777 -232.206839 
L 570.217036 -232.206839 
L 560.750295 -232.206839 
L 551.283554 -232.206839 
L 541.816813 -232.206839 
L 532.350071 -232.206839 
L 522.88333 -232.206839 
L 513.416589 -232.206839 
L 503.949848 -232.206839 
L 494.483107 -232.206839 
L 485.016366 -232.206839 
L 475.549625 -232.206839 
L 466.082884 -232.206839 
L 456.616143 -232.206839 
L 447.149402 -232.206839 
L 437.682661 -232.206839 
L 428.21592 -232.206839 
L 418.749179 -232.206839 
L 409.282438 -232.206839 
L 399.815696 -232.206839 
L 390.348955 -232.206839 
L 380.882214 -232.206839 
L 371.415473 -232.206839 
L 361.948732 -232.206839 
L 352.481991 -232.206839 
L 343.01525 -232.206839 
L 333.548509 -232.206839 
L 324.081768 -232.206839 
L 314.615027 -232.206839 
L 305.148286 -232.206839 
L 295.681545 -232.206839 
L 286.214804 -232.206839 
L 276.748063 -232.206839 
L 267.281321 -232.206839 
L 257.81458 -232.206839 
L 248.347839 -232.206839 
L 238.881098 -232.206839 
L 229.414357 -232.206839 
L 219.947616 -232.206839 
L 210.480875 -232.206839 
L 201.014134 -232.206839 
L 191.547393 -232.206839 
L 182.080652 -232.206839 
L 172.613911 -232.206839 
L 163.14717 -232.206839 
L 153.680429 -232.206839 
L 144.213687 -232.206839 
L 134.746946 -232.206839 
L 125.280205 -232.210822 
L 115.813464 -232.210822 
L 106.346723 -232.212993 
L 96.879982 -232.210822 
L 87.413241 -232.212993 
L 77.9465 -231.388501 
z
" id="m6024e6455e" style="stroke:#ffa500;stroke-opacity:0.25;"/>
    </defs>
    <g clip-path="url(#p2b6c28730f)">
     <use style="fill:#ffa500;fill-opacity:0.25;stroke:#ffa500;stroke-opacity:0.25;" x="0" xlink:href="#m6024e6455e" y="422.874686"/>
    </g>
   </g>
   <g id="PolyCollection_2">
    <defs>
     <path d="M 1119.288018 -43.75025 
L 77.9465 -43.75025 
L 77.9465 -389.62705 
L 1119.288018 -389.62705 
L 1119.288018 -389.62705 
L 1119.288018 -43.75025 
z
" id="md2ba541866" style="stroke:#008000;stroke-opacity:0.25;"/>
    </defs>
    <g clip-path="url(#p2b6c28730f)">
     <use style="fill:#008000;fill-opacity:0.25;stroke:#008000;stroke-opacity:0.25;" x="0" xlink:href="#md2ba541866" y="422.874686"/>
    </g>
   </g>
  </g>
 </g>
 <defs>
  <clipPath id="p2b6c28730f">
   <rect height="345.8768" width="1060.275" x="77.9465" y="33.247636"/>
  </clipPath>
 </defs>
</svg>
