<?xml version="1.0" encoding="utf-8" standalone="no"?>
<!DOCTYPE svg PUBLIC "-//W3C//DTD SVG 1.1//EN"
  "http://www.w3.org/Graphics/SVG/1.1/DTD/svg11.dtd">
<!-- Created with matplotlib (https://matplotlib.org/) -->
<svg height="347.766123pt" version="1.1" viewBox="0 0 1145.2865 347.766123" width="1145.2865pt" xmlns="http://www.w3.org/2000/svg" xmlns:xlink="http://www.w3.org/1999/xlink">
 <defs>
  <style type="text/css">
*{stroke-linecap:butt;stroke-linejoin:round;}
  </style>
 </defs>
 <g id="figure_1">
  <g id="patch_1">
   <path d="M 0 347.766123 
L 1145.2865 347.766123 
L 1145.2865 0 
L 0 0 
z
" style="fill:#ffffff;"/>
  </g>
  <g id="axes_1">
   <g id="patch_2">
    <path d="M 74.3115 238.157693 
L 1138.0865 238.157693 
L 1138.0865 36.417128 
L 74.3115 36.417128 
z
" style="fill:#ffffff;"/>
   </g>
   <g id="patch_3">
    <path clip-path="url(#p8d3ec73d0c)" d="M 79.959863 238.157693 
L 87.491013 238.157693 
L 87.491013 118.693366 
L 79.959863 118.693366 
z
" style="fill:#348abd;"/>
   </g>
   <g id="patch_4">
    <path clip-path="url(#p8d3ec73d0c)" d="M 89.373801 238.157693 
L 96.904951 238.157693 
L 96.904951 132.447799 
L 89.373801 132.447799 
z
" style="fill:#348abd;"/>
   </g>
   <g id="patch_5">
    <path clip-path="url(#p8d3ec73d0c)" d="M 98.787739 238.157693 
L 106.318889 238.157693 
L 106.318889 132.657523 
L 98.787739 132.657523 
z
" style="fill:#348abd;"/>
   </g>
   <g id="patch_6">
    <path clip-path="url(#p8d3ec73d0c)" d="M 108.201677 238.157693 
L 115.732827 238.157693 
L 115.732827 93.823534 
L 108.201677 93.823534 
z
" style="fill:#348abd;"/>
   </g>
   <g id="patch_7">
    <path clip-path="url(#p8d3ec73d0c)" d="M 117.615615 238.157693 
L 125.146765 238.157693 
L 125.146765 63.098893 
L 117.615615 63.098893 
z
" style="fill:#348abd;"/>
   </g>
   <g id="patch_8">
    <path clip-path="url(#p8d3ec73d0c)" d="M 127.029553 238.157693 
L 134.560704 238.157693 
L 134.560704 61.290019 
L 127.029553 61.290019 
z
" style="fill:#348abd;"/>
   </g>
   <g id="patch_9">
    <path clip-path="url(#p8d3ec73d0c)" d="M 136.443491 238.157693 
L 143.974642 238.157693 
L 143.974642 81.746897 
L 136.443491 81.746897 
z
" style="fill:#348abd;"/>
   </g>
   <g id="patch_10">
    <path clip-path="url(#p8d3ec73d0c)" d="M 145.857429 238.157693 
L 153.38858 238.157693 
L 153.38858 57.724702 
L 145.857429 57.724702 
z
" style="fill:#348abd;"/>
   </g>
   <g id="patch_11">
    <path clip-path="url(#p8d3ec73d0c)" d="M 155.271367 238.157693 
L 162.802518 238.157693 
L 162.802518 81.126462 
L 155.271367 81.126462 
z
" style="fill:#348abd;"/>
   </g>
   <g id="patch_12">
    <path clip-path="url(#p8d3ec73d0c)" d="M 164.685305 238.157693 
L 172.216456 238.157693 
L 172.216456 82.367332 
L 164.685305 82.367332 
z
" style="fill:#348abd;"/>
   </g>
   <g id="patch_13">
    <path clip-path="url(#p8d3ec73d0c)" d="M 174.099243 238.157693 
L 181.630394 238.157693 
L 181.630394 89.655259 
L 174.099243 89.655259 
z
" style="fill:#348abd;"/>
   </g>
   <g id="patch_14">
    <path clip-path="url(#p8d3ec73d0c)" d="M 183.513181 238.157693 
L 191.044332 238.157693 
L 191.044332 97.21408 
L 183.513181 97.21408 
z
" style="fill:#348abd;"/>
   </g>
   <g id="patch_15">
    <path clip-path="url(#p8d3ec73d0c)" d="M 192.927119 238.157693 
L 200.45827 238.157693 
L 200.45827 118.667151 
L 192.927119 118.667151 
z
" style="fill:#348abd;"/>
   </g>
   <g id="patch_16">
    <path clip-path="url(#p8d3ec73d0c)" d="M 202.341058 238.157693 
L 209.872208 238.157693 
L 209.872208 106.887624 
L 202.341058 106.887624 
z
" style="fill:#348abd;"/>
   </g>
   <g id="patch_17">
    <path clip-path="url(#p8d3ec73d0c)" d="M 211.754996 238.157693 
L 219.286146 238.157693 
L 219.286146 123.901525 
L 211.754996 123.901525 
z
" style="fill:#348abd;"/>
   </g>
   <g id="patch_18">
    <path clip-path="url(#p8d3ec73d0c)" d="M 221.168934 238.157693 
L 228.700084 238.157693 
L 228.700084 189.816192 
L 221.168934 189.816192 
z
" style="fill:#348abd;"/>
   </g>
   <g id="patch_19">
    <path clip-path="url(#p8d3ec73d0c)" d="M 230.582872 238.157693 
L 238.114022 238.157693 
L 238.114022 67.686616 
L 230.582872 67.686616 
z
" style="fill:#348abd;"/>
   </g>
   <g id="patch_20">
    <path clip-path="url(#p8d3ec73d0c)" d="M 239.99681 238.157693 
L 247.52796 238.157693 
L 247.52796 76.503785 
L 239.99681 76.503785 
z
" style="fill:#348abd;"/>
   </g>
   <g id="patch_21">
    <path clip-path="url(#p8d3ec73d0c)" d="M 249.410748 238.157693 
L 256.941898 238.157693 
L 256.941898 55.461425 
L 249.410748 55.461425 
z
" style="fill:#348abd;"/>
   </g>
   <g id="patch_22">
    <path clip-path="url(#p8d3ec73d0c)" d="M 258.824686 238.157693 
L 266.355836 238.157693 
L 266.355836 55.443948 
L 258.824686 55.443948 
z
" style="fill:#348abd;"/>
   </g>
   <g id="patch_23">
    <path clip-path="url(#p8d3ec73d0c)" d="M 268.238624 238.157693 
L 275.769774 238.157693 
L 275.769774 48.138544 
L 268.238624 48.138544 
z
" style="fill:#348abd;"/>
   </g>
   <g id="patch_24">
    <path clip-path="url(#p8d3ec73d0c)" d="M 277.652562 238.157693 
L 285.183712 238.157693 
L 285.183712 46.023822 
L 277.652562 46.023822 
z
" style="fill:#348abd;"/>
   </g>
   <g id="patch_25">
    <path clip-path="url(#p8d3ec73d0c)" d="M 287.0665 238.157693 
L 294.59765 238.157693 
L 294.59765 68.918748 
L 287.0665 68.918748 
z
" style="fill:#348abd;"/>
   </g>
   <g id="patch_26">
    <path clip-path="url(#p8d3ec73d0c)" d="M 296.480438 238.157693 
L 304.011588 238.157693 
L 304.011588 60.975432 
L 296.480438 60.975432 
z
" style="fill:#348abd;"/>
   </g>
   <g id="patch_27">
    <path clip-path="url(#p8d3ec73d0c)" d="M 305.894376 238.157693 
L 313.425527 238.157693 
L 313.425527 52.560236 
L 305.894376 52.560236 
z
" style="fill:#348abd;"/>
   </g>
   <g id="patch_28">
    <path clip-path="url(#p8d3ec73d0c)" d="M 315.308314 238.157693 
L 322.839465 238.157693 
L 322.839465 80.060363 
L 315.308314 80.060363 
z
" style="fill:#348abd;"/>
   </g>
   <g id="patch_29">
    <path clip-path="url(#p8d3ec73d0c)" d="M 324.722252 238.157693 
L 332.253403 238.157693 
L 332.253403 81.720682 
L 324.722252 81.720682 
z
" style="fill:#348abd;"/>
   </g>
   <g id="patch_30">
    <path clip-path="url(#p8d3ec73d0c)" d="M 334.13619 238.157693 
L 341.667341 238.157693 
L 341.667341 98.035501 
L 334.13619 98.035501 
z
" style="fill:#348abd;"/>
   </g>
   <g id="patch_31">
    <path clip-path="url(#p8d3ec73d0c)" d="M 343.550128 238.157693 
L 351.081279 238.157693 
L 351.081279 91.499087 
L 343.550128 91.499087 
z
" style="fill:#348abd;"/>
   </g>
   <g id="patch_32">
    <path clip-path="url(#p8d3ec73d0c)" d="M 352.964066 238.157693 
L 360.495217 238.157693 
L 360.495217 100.22887 
L 352.964066 100.22887 
z
" style="fill:#348abd;"/>
   </g>
   <g id="patch_33">
    <path clip-path="url(#p8d3ec73d0c)" d="M 362.378004 238.157693 
L 369.909155 238.157693 
L 369.909155 111.737503 
L 362.378004 111.737503 
z
" style="fill:#348abd;"/>
   </g>
   <g id="patch_34">
    <path clip-path="url(#p8d3ec73d0c)" d="M 371.791942 238.157693 
L 379.323093 238.157693 
L 379.323093 180.317419 
L 371.791942 180.317419 
z
" style="fill:#348abd;"/>
   </g>
   <g id="patch_35">
    <path clip-path="url(#p8d3ec73d0c)" d="M 381.205881 238.157693 
L 388.737031 238.157693 
L 388.737031 200.416019 
L 381.205881 200.416019 
z
" style="fill:#348abd;"/>
   </g>
   <g id="patch_36">
    <path clip-path="url(#p8d3ec73d0c)" d="M 390.619819 238.157693 
L 398.150969 238.157693 
L 398.150969 152.459013 
L 390.619819 152.459013 
z
" style="fill:#348abd;"/>
   </g>
   <g id="patch_37">
    <path clip-path="url(#p8d3ec73d0c)" d="M 400.033757 238.157693 
L 407.564907 238.157693 
L 407.564907 206.856309 
L 400.033757 206.856309 
z
" style="fill:#348abd;"/>
   </g>
   <g id="patch_38">
    <path clip-path="url(#p8d3ec73d0c)" d="M 409.447695 238.157693 
L 416.978845 238.157693 
L 416.978845 186.189706 
L 409.447695 186.189706 
z
" style="fill:#348abd;"/>
   </g>
   <g id="patch_39">
    <path clip-path="url(#p8d3ec73d0c)" d="M 418.861633 238.157693 
L 426.392783 238.157693 
L 426.392783 208.184564 
L 418.861633 208.184564 
z
" style="fill:#348abd;"/>
   </g>
   <g id="patch_40">
    <path clip-path="url(#p8d3ec73d0c)" d="M 428.275571 238.157693 
L 435.806721 238.157693 
L 435.806721 190.366719 
L 428.275571 190.366719 
z
" style="fill:#348abd;"/>
   </g>
   <g id="patch_41">
    <path clip-path="url(#p8d3ec73d0c)" d="M 437.689509 238.157693 
L 445.220659 238.157693 
L 445.220659 59.56853 
L 437.689509 59.56853 
z
" style="fill:#348abd;"/>
   </g>
   <g id="patch_42">
    <path clip-path="url(#p8d3ec73d0c)" d="M 447.103447 238.157693 
L 454.634597 238.157693 
L 454.634597 53.53895 
L 447.103447 53.53895 
z
" style="fill:#348abd;"/>
   </g>
   <g id="patch_43">
    <path clip-path="url(#p8d3ec73d0c)" d="M 456.517385 238.157693 
L 464.048535 238.157693 
L 464.048535 68.403175 
L 456.517385 68.403175 
z
" style="fill:#348abd;"/>
   </g>
   <g id="patch_44">
    <path clip-path="url(#p8d3ec73d0c)" d="M 465.931323 238.157693 
L 473.462473 238.157693 
L 473.462473 118.064193 
L 465.931323 118.064193 
z
" style="fill:#348abd;"/>
   </g>
   <g id="patch_45">
    <path clip-path="url(#p8d3ec73d0c)" d="M 475.345261 238.157693 
L 482.876412 238.157693 
L 482.876412 126.348311 
L 475.345261 126.348311 
z
" style="fill:#348abd;"/>
   </g>
   <g id="patch_46">
    <path clip-path="url(#p8d3ec73d0c)" d="M 484.759199 238.157693 
L 492.29035 238.157693 
L 492.29035 132.779863 
L 484.759199 132.779863 
z
" style="fill:#348abd;"/>
   </g>
   <g id="patch_47">
    <path clip-path="url(#p8d3ec73d0c)" d="M 494.173137 238.157693 
L 501.704288 238.157693 
L 501.704288 132.771124 
L 494.173137 132.771124 
z
" style="fill:#348abd;"/>
   </g>
   <g id="patch_48">
    <path clip-path="url(#p8d3ec73d0c)" d="M 503.587075 238.157693 
L 511.118226 238.157693 
L 511.118226 128.576634 
L 503.587075 128.576634 
z
" style="fill:#348abd;"/>
   </g>
   <g id="patch_49">
    <path clip-path="url(#p8d3ec73d0c)" d="M 513.001013 238.157693 
L 520.532164 238.157693 
L 520.532164 131.469085 
L 513.001013 131.469085 
z
" style="fill:#348abd;"/>
   </g>
   <g id="patch_50">
    <path clip-path="url(#p8d3ec73d0c)" d="M 522.414951 238.157693 
L 529.946102 238.157693 
L 529.946102 143.283566 
L 522.414951 143.283566 
z
" style="fill:#348abd;"/>
   </g>
   <g id="patch_51">
    <path clip-path="url(#p8d3ec73d0c)" d="M 531.828889 238.157693 
L 539.36004 238.157693 
L 539.36004 216.608499 
L 531.828889 216.608499 
z
" style="fill:#348abd;"/>
   </g>
   <g id="patch_52">
    <path clip-path="url(#p8d3ec73d0c)" d="M 541.242827 238.157693 
L 548.773978 238.157693 
L 548.773978 214.589901 
L 541.242827 214.589901 
z
" style="fill:#348abd;"/>
   </g>
   <g id="patch_53">
    <path clip-path="url(#p8d3ec73d0c)" d="M 550.656765 238.157693 
L 558.187916 238.157693 
L 558.187916 214.921964 
L 550.656765 214.921964 
z
" style="fill:#348abd;"/>
   </g>
   <g id="patch_54">
    <path clip-path="url(#p8d3ec73d0c)" d="M 560.070704 238.157693 
L 567.601854 238.157693 
L 567.601854 173.973253 
L 560.070704 173.973253 
z
" style="fill:#348abd;"/>
   </g>
   <g id="patch_55">
    <path clip-path="url(#p8d3ec73d0c)" d="M 569.484642 238.157693 
L 577.015792 238.157693 
L 577.015792 79.571006 
L 569.484642 79.571006 
z
" style="fill:#348abd;"/>
   </g>
   <g id="patch_56">
    <path clip-path="url(#p8d3ec73d0c)" d="M 578.89858 238.157693 
L 586.42973 238.157693 
L 586.42973 215.018088 
L 578.89858 215.018088 
z
" style="fill:#348abd;"/>
   </g>
   <g id="patch_57">
    <path clip-path="url(#p8d3ec73d0c)" d="M 588.312518 238.157693 
L 595.843668 238.157693 
L 595.843668 104.108774 
L 588.312518 104.108774 
z
" style="fill:#348abd;"/>
   </g>
   <g id="patch_58">
    <path clip-path="url(#p8d3ec73d0c)" d="M 597.726456 238.157693 
L 605.257606 238.157693 
L 605.257606 96.305274 
L 597.726456 96.305274 
z
" style="fill:#348abd;"/>
   </g>
   <g id="patch_59">
    <path clip-path="url(#p8d3ec73d0c)" d="M 607.140394 238.157693 
L 614.671544 238.157693 
L 614.671544 99.34628 
L 607.140394 99.34628 
z
" style="fill:#348abd;"/>
   </g>
   <g id="patch_60">
    <path clip-path="url(#p8d3ec73d0c)" d="M 616.554332 238.157693 
L 624.085482 238.157693 
L 624.085482 111.711288 
L 616.554332 111.711288 
z
" style="fill:#348abd;"/>
   </g>
   <g id="patch_61">
    <path clip-path="url(#p8d3ec73d0c)" d="M 625.96827 238.157693 
L 633.49942 238.157693 
L 633.49942 95.212959 
L 625.96827 95.212959 
z
" style="fill:#348abd;"/>
   </g>
   <g id="patch_62">
    <path clip-path="url(#p8d3ec73d0c)" d="M 635.382208 238.157693 
L 642.913358 238.157693 
L 642.913358 116.526213 
L 635.382208 116.526213 
z
" style="fill:#348abd;"/>
   </g>
   <g id="patch_63">
    <path clip-path="url(#p8d3ec73d0c)" d="M 644.796146 238.157693 
L 652.327296 238.157693 
L 652.327296 118.439949 
L 644.796146 118.439949 
z
" style="fill:#348abd;"/>
   </g>
   <g id="patch_64">
    <path clip-path="url(#p8d3ec73d0c)" d="M 654.210084 238.157693 
L 661.741235 238.157693 
L 661.741235 123.551984 
L 654.210084 123.551984 
z
" style="fill:#348abd;"/>
   </g>
   <g id="patch_65">
    <path clip-path="url(#p8d3ec73d0c)" d="M 663.624022 238.157693 
L 671.155173 238.157693 
L 671.155173 113.738625 
L 663.624022 113.738625 
z
" style="fill:#348abd;"/>
   </g>
   <g id="patch_66">
    <path clip-path="url(#p8d3ec73d0c)" d="M 673.03796 238.157693 
L 680.569111 238.157693 
L 680.569111 173.501373 
L 673.03796 173.501373 
z
" style="fill:#348abd;"/>
   </g>
   <g id="patch_67">
    <path clip-path="url(#p8d3ec73d0c)" d="M 682.451898 238.157693 
L 689.983049 238.157693 
L 689.983049 186.644109 
L 682.451898 186.644109 
z
" style="fill:#348abd;"/>
   </g>
   <g id="patch_68">
    <path clip-path="url(#p8d3ec73d0c)" d="M 691.865836 238.157693 
L 699.396987 238.157693 
L 699.396987 157.247723 
L 691.865836 157.247723 
z
" style="fill:#348abd;"/>
   </g>
   <g id="patch_69">
    <path clip-path="url(#p8d3ec73d0c)" d="M 701.279774 238.157693 
L 708.810925 238.157693 
L 708.810925 154.329057 
L 701.279774 154.329057 
z
" style="fill:#348abd;"/>
   </g>
   <g id="patch_70">
    <path clip-path="url(#p8d3ec73d0c)" d="M 710.693712 238.157693 
L 718.224863 238.157693 
L 718.224863 201.613196 
L 710.693712 201.613196 
z
" style="fill:#348abd;"/>
   </g>
   <g id="patch_71">
    <path clip-path="url(#p8d3ec73d0c)" d="M 720.10765 238.157693 
L 727.638801 238.157693 
L 727.638801 207.328189 
L 720.10765 207.328189 
z
" style="fill:#348abd;"/>
   </g>
   <g id="patch_72">
    <path clip-path="url(#p8d3ec73d0c)" d="M 729.521588 238.157693 
L 737.052739 238.157693 
L 737.052739 186.69654 
L 729.521588 186.69654 
z
" style="fill:#348abd;"/>
   </g>
   <g id="patch_73">
    <path clip-path="url(#p8d3ec73d0c)" d="M 738.935527 238.157693 
L 746.466677 238.157693 
L 746.466677 78.487429 
L 738.935527 78.487429 
z
" style="fill:#348abd;"/>
   </g>
   <g id="patch_74">
    <path clip-path="url(#p8d3ec73d0c)" d="M 748.349465 238.157693 
L 755.880615 238.157693 
L 755.880615 90.677666 
L 748.349465 90.677666 
z
" style="fill:#348abd;"/>
   </g>
   <g id="patch_75">
    <path clip-path="url(#p8d3ec73d0c)" d="M 757.763403 238.157693 
L 765.294553 238.157693 
L 765.294553 144.611821 
L 757.763403 144.611821 
z
" style="fill:#348abd;"/>
   </g>
   <g id="patch_76">
    <path clip-path="url(#p8d3ec73d0c)" d="M 767.177341 238.157693 
L 774.708491 238.157693 
L 774.708491 146.822667 
L 767.177341 146.822667 
z
" style="fill:#348abd;"/>
   </g>
   <g id="patch_77">
    <path clip-path="url(#p8d3ec73d0c)" d="M 776.591279 238.157693 
L 784.122429 238.157693 
L 784.122429 145.144871 
L 776.591279 145.144871 
z
" style="fill:#348abd;"/>
   </g>
   <g id="patch_78">
    <path clip-path="url(#p8d3ec73d0c)" d="M 786.005217 238.157693 
L 793.536367 238.157693 
L 793.536367 151.969656 
L 786.005217 151.969656 
z
" style="fill:#348abd;"/>
   </g>
   <g id="patch_79">
    <path clip-path="url(#p8d3ec73d0c)" d="M 795.419155 238.157693 
L 802.950305 238.157693 
L 802.950305 153.000801 
L 795.419155 153.000801 
z
" style="fill:#348abd;"/>
   </g>
   <g id="patch_80">
    <path clip-path="url(#p8d3ec73d0c)" d="M 804.833093 238.157693 
L 812.364243 238.157693 
L 812.364243 153.359081 
L 804.833093 153.359081 
z
" style="fill:#348abd;"/>
   </g>
   <g id="patch_81">
    <path clip-path="url(#p8d3ec73d0c)" d="M 814.247031 238.157693 
L 821.778181 238.157693 
L 821.778181 154.285364 
L 814.247031 154.285364 
z
" style="fill:#348abd;"/>
   </g>
   <g id="patch_82">
    <path clip-path="url(#p8d3ec73d0c)" d="M 823.660969 238.157693 
L 831.192119 238.157693 
L 831.192119 190.410412 
L 823.660969 190.410412 
z
" style="fill:#348abd;"/>
   </g>
   <g id="patch_83">
    <path clip-path="url(#p8d3ec73d0c)" d="M 833.074907 238.157693 
L 840.606058 238.157693 
L 840.606058 219.544642 
L 833.074907 219.544642 
z
" style="fill:#348abd;"/>
   </g>
   <g id="patch_84">
    <path clip-path="url(#p8d3ec73d0c)" d="M 842.488845 238.157693 
L 850.019996 238.157693 
L 850.019996 198.642099 
L 842.488845 198.642099 
z
" style="fill:#348abd;"/>
   </g>
   <g id="patch_85">
    <path clip-path="url(#p8d3ec73d0c)" d="M 851.902783 238.157693 
L 859.433934 238.157693 
L 859.433934 163.757921 
L 851.902783 163.757921 
z
" style="fill:#348abd;"/>
   </g>
   <g id="patch_86">
    <path clip-path="url(#p8d3ec73d0c)" d="M 861.316721 238.157693 
L 868.847872 238.157693 
L 868.847872 153.761053 
L 861.316721 153.761053 
z
" style="fill:#348abd;"/>
   </g>
   <g id="patch_87">
    <path clip-path="url(#p8d3ec73d0c)" d="M 870.730659 238.157693 
L 878.26181 238.157693 
L 878.26181 145.258471 
L 870.730659 145.258471 
z
" style="fill:#348abd;"/>
   </g>
   <g id="patch_88">
    <path clip-path="url(#p8d3ec73d0c)" d="M 880.144597 238.157693 
L 887.675748 238.157693 
L 887.675748 149.155852 
L 880.144597 149.155852 
z
" style="fill:#348abd;"/>
   </g>
   <g id="patch_89">
    <path clip-path="url(#p8d3ec73d0c)" d="M 889.558535 238.157693 
L 897.089686 238.157693 
L 897.089686 150.990941 
L 889.558535 150.990941 
z
" style="fill:#348abd;"/>
   </g>
   <g id="patch_90">
    <path clip-path="url(#p8d3ec73d0c)" d="M 898.972473 238.157693 
L 906.503624 238.157693 
L 906.503624 160.542145 
L 898.972473 160.542145 
z
" style="fill:#348abd;"/>
   </g>
   <g id="patch_91">
    <path clip-path="url(#p8d3ec73d0c)" d="M 908.386412 238.157693 
L 915.917562 238.157693 
L 915.917562 156.723412 
L 908.386412 156.723412 
z
" style="fill:#348abd;"/>
   </g>
   <g id="patch_92">
    <path clip-path="url(#p8d3ec73d0c)" d="M 917.80035 238.157693 
L 925.3315 238.157693 
L 925.3315 160.952856 
L 917.80035 160.952856 
z
" style="fill:#348abd;"/>
   </g>
   <g id="patch_93">
    <path clip-path="url(#p8d3ec73d0c)" d="M 927.214288 238.157693 
L 934.745438 238.157693 
L 934.745438 155.561188 
L 927.214288 155.561188 
z
" style="fill:#348abd;"/>
   </g>
   <g id="patch_94">
    <path clip-path="url(#p8d3ec73d0c)" d="M 936.628226 238.157693 
L 944.159376 238.157693 
L 944.159376 161.215012 
L 936.628226 161.215012 
z
" style="fill:#348abd;"/>
   </g>
   <g id="patch_95">
    <path clip-path="url(#p8d3ec73d0c)" d="M 946.042164 238.157693 
L 953.573314 238.157693 
L 953.573314 161.014026 
L 946.042164 161.014026 
z
" style="fill:#348abd;"/>
   </g>
   <g id="patch_96">
    <path clip-path="url(#p8d3ec73d0c)" d="M 955.456102 238.157693 
L 962.987252 238.157693 
L 962.987252 161.835447 
L 955.456102 161.835447 
z
" style="fill:#348abd;"/>
   </g>
   <g id="patch_97">
    <path clip-path="url(#p8d3ec73d0c)" d="M 964.87004 238.157693 
L 972.40119 238.157693 
L 972.40119 159.68577 
L 964.87004 159.68577 
z
" style="fill:#348abd;"/>
   </g>
   <g id="patch_98">
    <path clip-path="url(#p8d3ec73d0c)" d="M 974.283978 238.157693 
L 981.815128 238.157693 
L 981.815128 195.574878 
L 974.283978 195.574878 
z
" style="fill:#348abd;"/>
   </g>
   <g id="patch_99">
    <path clip-path="url(#p8d3ec73d0c)" d="M 983.697916 238.157693 
L 991.229066 238.157693 
L 991.229066 172.548874 
L 983.697916 172.548874 
z
" style="fill:#348abd;"/>
   </g>
   <g id="patch_100">
    <path clip-path="url(#p8d3ec73d0c)" d="M 993.111854 238.157693 
L 1000.643004 238.157693 
L 1000.643004 153.918346 
L 993.111854 153.918346 
z
" style="fill:#348abd;"/>
   </g>
   <g id="patch_101">
    <path clip-path="url(#p8d3ec73d0c)" d="M 1002.525792 238.157693 
L 1010.056942 238.157693 
L 1010.056942 151.191927 
L 1002.525792 151.191927 
z
" style="fill:#348abd;"/>
   </g>
   <g id="patch_102">
    <path clip-path="url(#p8d3ec73d0c)" d="M 1011.93973 238.157693 
L 1019.470881 238.157693 
L 1019.470881 148.736403 
L 1011.93973 148.736403 
z
" style="fill:#348abd;"/>
   </g>
   <g id="patch_103">
    <path clip-path="url(#p8d3ec73d0c)" d="M 1021.353668 238.157693 
L 1028.884819 238.157693 
L 1028.884819 146.560511 
L 1021.353668 146.560511 
z
" style="fill:#348abd;"/>
   </g>
   <g id="patch_104">
    <path clip-path="url(#p8d3ec73d0c)" d="M 1030.767606 238.157693 
L 1038.298757 238.157693 
L 1038.298757 149.435485 
L 1030.767606 149.435485 
z
" style="fill:#348abd;"/>
   </g>
   <g id="patch_105">
    <path clip-path="url(#p8d3ec73d0c)" d="M 1040.181544 238.157693 
L 1047.712695 238.157693 
L 1047.712695 146.831405 
L 1040.181544 146.831405 
z
" style="fill:#348abd;"/>
   </g>
   <g id="patch_106">
    <path clip-path="url(#p8d3ec73d0c)" d="M 1049.595482 238.157693 
L 1057.126633 238.157693 
L 1057.126633 147.093561 
L 1049.595482 147.093561 
z
" style="fill:#348abd;"/>
   </g>
   <g id="patch_107">
    <path clip-path="url(#p8d3ec73d0c)" d="M 1059.00942 238.157693 
L 1066.540571 238.157693 
L 1066.540571 150.877341 
L 1059.00942 150.877341 
z
" style="fill:#348abd;"/>
   </g>
   <g id="patch_108">
    <path clip-path="url(#p8d3ec73d0c)" d="M 1068.423358 238.157693 
L 1075.954509 238.157693 
L 1075.954509 148.063537 
L 1068.423358 148.063537 
z
" style="fill:#348abd;"/>
   </g>
   <g id="patch_109">
    <path clip-path="url(#p8d3ec73d0c)" d="M 1077.837296 238.157693 
L 1085.368447 238.157693 
L 1085.368447 148.640279 
L 1077.837296 148.640279 
z
" style="fill:#348abd;"/>
   </g>
   <g id="patch_110">
    <path clip-path="url(#p8d3ec73d0c)" d="M 1087.251235 238.157693 
L 1094.782385 238.157693 
L 1094.782385 175.039352 
L 1087.251235 175.039352 
z
" style="fill:#348abd;"/>
   </g>
   <g id="patch_111">
    <path clip-path="url(#p8d3ec73d0c)" d="M 1096.665173 238.157693 
L 1104.196323 238.157693 
L 1104.196323 211.93339 
L 1096.665173 211.93339 
z
" style="fill:#348abd;"/>
   </g>
   <g id="patch_112">
    <path clip-path="url(#p8d3ec73d0c)" d="M 1106.079111 238.157693 
L 1113.610261 238.157693 
L 1113.610261 213.567494 
L 1106.079111 213.567494 
z
" style="fill:#348abd;"/>
   </g>
   <g id="patch_113">
    <path clip-path="url(#p8d3ec73d0c)" d="M 1115.493049 238.157693 
L 1123.024199 238.157693 
L 1123.024199 213.23543 
L 1115.493049 213.23543 
z
" style="fill:#348abd;"/>
   </g>
   <g id="patch_114">
    <path clip-path="url(#p8d3ec73d0c)" d="M 1124.906987 238.157693 
L 1132.438137 238.157693 
L 1132.438137 190.558967 
L 1124.906987 190.558967 
z
" style="fill:#348abd;"/>
   </g>
   <g id="matplotlib.axis_1">
    <g id="xtick_1">
     <g id="line2d_1">
      <path clip-path="url(#p8d3ec73d0c)" d="M 83.725438 238.157693 
L 83.725438 36.417128 
" style="fill:none;stroke:#808080;stroke-dasharray:0.5,0.825;stroke-dashoffset:0;stroke-width:0.5;"/>
     </g>
     <g id="line2d_2">
      <defs>
       <path d="M 0 0 
L 0 3.5 
" id="m324f600b16" style="stroke:#000000;stroke-width:0.8;"/>
      </defs>
      <g>
       <use style="stroke:#000000;stroke-width:0.8;" x="83.725438" xlink:href="#m324f600b16" y="238.157693"/>
      </g>
     </g>
     <g id="text_1">
      <!-- 16/03/20 08:00 -->
      <defs>
       <path d="M 12.40625 8.296875 
L 28.515625 8.296875 
L 28.515625 63.921875 
L 10.984375 60.40625 
L 10.984375 69.390625 
L 28.421875 72.90625 
L 38.28125 72.90625 
L 38.28125 8.296875 
L 54.390625 8.296875 
L 54.390625 0 
L 12.40625 0 
z
" id="DejaVuSans-49"/>
       <path d="M 33.015625 40.375 
Q 26.375 40.375 22.484375 35.828125 
Q 18.609375 31.296875 18.609375 23.390625 
Q 18.609375 15.53125 22.484375 10.953125 
Q 26.375 6.390625 33.015625 6.390625 
Q 39.65625 6.390625 43.53125 10.953125 
Q 47.40625 15.53125 47.40625 23.390625 
Q 47.40625 31.296875 43.53125 35.828125 
Q 39.65625 40.375 33.015625 40.375 
z
M 52.59375 71.296875 
L 52.59375 62.3125 
Q 48.875 64.0625 45.09375 64.984375 
Q 41.3125 65.921875 37.59375 65.921875 
Q 27.828125 65.921875 22.671875 59.328125 
Q 17.53125 52.734375 16.796875 39.40625 
Q 19.671875 43.65625 24.015625 45.921875 
Q 28.375 48.1875 33.59375 48.1875 
Q 44.578125 48.1875 50.953125 41.515625 
Q 57.328125 34.859375 57.328125 23.390625 
Q 57.328125 12.15625 50.6875 5.359375 
Q 44.046875 -1.421875 33.015625 -1.421875 
Q 20.359375 -1.421875 13.671875 8.265625 
Q 6.984375 17.96875 6.984375 36.375 
Q 6.984375 53.65625 15.1875 63.9375 
Q 23.390625 74.21875 37.203125 74.21875 
Q 40.921875 74.21875 44.703125 73.484375 
Q 48.484375 72.75 52.59375 71.296875 
z
" id="DejaVuSans-54"/>
       <path d="M 25.390625 72.90625 
L 33.6875 72.90625 
L 8.296875 -9.28125 
L 0 -9.28125 
z
" id="DejaVuSans-47"/>
       <path d="M 31.78125 66.40625 
Q 24.171875 66.40625 20.328125 58.90625 
Q 16.5 51.421875 16.5 36.375 
Q 16.5 21.390625 20.328125 13.890625 
Q 24.171875 6.390625 31.78125 6.390625 
Q 39.453125 6.390625 43.28125 13.890625 
Q 47.125 21.390625 47.125 36.375 
Q 47.125 51.421875 43.28125 58.90625 
Q 39.453125 66.40625 31.78125 66.40625 
z
M 31.78125 74.21875 
Q 44.046875 74.21875 50.515625 64.515625 
Q 56.984375 54.828125 56.984375 36.375 
Q 56.984375 17.96875 50.515625 8.265625 
Q 44.046875 -1.421875 31.78125 -1.421875 
Q 19.53125 -1.421875 13.0625 8.265625 
Q 6.59375 17.96875 6.59375 36.375 
Q 6.59375 54.828125 13.0625 64.515625 
Q 19.53125 74.21875 31.78125 74.21875 
z
" id="DejaVuSans-48"/>
       <path d="M 40.578125 39.3125 
Q 47.65625 37.796875 51.625 33 
Q 55.609375 28.21875 55.609375 21.1875 
Q 55.609375 10.40625 48.1875 4.484375 
Q 40.765625 -1.421875 27.09375 -1.421875 
Q 22.515625 -1.421875 17.65625 -0.515625 
Q 12.796875 0.390625 7.625 2.203125 
L 7.625 11.71875 
Q 11.71875 9.328125 16.59375 8.109375 
Q 21.484375 6.890625 26.8125 6.890625 
Q 36.078125 6.890625 40.9375 10.546875 
Q 45.796875 14.203125 45.796875 21.1875 
Q 45.796875 27.640625 41.28125 31.265625 
Q 36.765625 34.90625 28.71875 34.90625 
L 20.21875 34.90625 
L 20.21875 43.015625 
L 29.109375 43.015625 
Q 36.375 43.015625 40.234375 45.921875 
Q 44.09375 48.828125 44.09375 54.296875 
Q 44.09375 59.90625 40.109375 62.90625 
Q 36.140625 65.921875 28.71875 65.921875 
Q 24.65625 65.921875 20.015625 65.03125 
Q 15.375 64.15625 9.8125 62.3125 
L 9.8125 71.09375 
Q 15.4375 72.65625 20.34375 73.4375 
Q 25.25 74.21875 29.59375 74.21875 
Q 40.828125 74.21875 47.359375 69.109375 
Q 53.90625 64.015625 53.90625 55.328125 
Q 53.90625 49.265625 50.4375 45.09375 
Q 46.96875 40.921875 40.578125 39.3125 
z
" id="DejaVuSans-51"/>
       <path d="M 19.1875 8.296875 
L 53.609375 8.296875 
L 53.609375 0 
L 7.328125 0 
L 7.328125 8.296875 
Q 12.9375 14.109375 22.625 23.890625 
Q 32.328125 33.6875 34.8125 36.53125 
Q 39.546875 41.84375 41.421875 45.53125 
Q 43.3125 49.21875 43.3125 52.78125 
Q 43.3125 58.59375 39.234375 62.25 
Q 35.15625 65.921875 28.609375 65.921875 
Q 23.96875 65.921875 18.8125 64.3125 
Q 13.671875 62.703125 7.8125 59.421875 
L 7.8125 69.390625 
Q 13.765625 71.78125 18.9375 73 
Q 24.125 74.21875 28.421875 74.21875 
Q 39.75 74.21875 46.484375 68.546875 
Q 53.21875 62.890625 53.21875 53.421875 
Q 53.21875 48.921875 51.53125 44.890625 
Q 49.859375 40.875 45.40625 35.40625 
Q 44.1875 33.984375 37.640625 27.21875 
Q 31.109375 20.453125 19.1875 8.296875 
z
" id="DejaVuSans-50"/>
       <path id="DejaVuSans-32"/>
       <path d="M 31.78125 34.625 
Q 24.75 34.625 20.71875 30.859375 
Q 16.703125 27.09375 16.703125 20.515625 
Q 16.703125 13.921875 20.71875 10.15625 
Q 24.75 6.390625 31.78125 6.390625 
Q 38.8125 6.390625 42.859375 10.171875 
Q 46.921875 13.96875 46.921875 20.515625 
Q 46.921875 27.09375 42.890625 30.859375 
Q 38.875 34.625 31.78125 34.625 
z
M 21.921875 38.8125 
Q 15.578125 40.375 12.03125 44.71875 
Q 8.5 49.078125 8.5 55.328125 
Q 8.5 64.0625 14.71875 69.140625 
Q 20.953125 74.21875 31.78125 74.21875 
Q 42.671875 74.21875 48.875 69.140625 
Q 55.078125 64.0625 55.078125 55.328125 
Q 55.078125 49.078125 51.53125 44.71875 
Q 48 40.375 41.703125 38.8125 
Q 48.828125 37.15625 52.796875 32.3125 
Q 56.78125 27.484375 56.78125 20.515625 
Q 56.78125 9.90625 50.3125 4.234375 
Q 43.84375 -1.421875 31.78125 -1.421875 
Q 19.734375 -1.421875 13.25 4.234375 
Q 6.78125 9.90625 6.78125 20.515625 
Q 6.78125 27.484375 10.78125 32.3125 
Q 14.796875 37.15625 21.921875 38.8125 
z
M 18.3125 54.390625 
Q 18.3125 48.734375 21.84375 45.5625 
Q 25.390625 42.390625 31.78125 42.390625 
Q 38.140625 42.390625 41.71875 45.5625 
Q 45.3125 48.734375 45.3125 54.390625 
Q 45.3125 60.0625 41.71875 63.234375 
Q 38.140625 66.40625 31.78125 66.40625 
Q 25.390625 66.40625 21.84375 63.234375 
Q 18.3125 60.0625 18.3125 54.390625 
z
" id="DejaVuSans-56"/>
       <path d="M 11.71875 12.40625 
L 22.015625 12.40625 
L 22.015625 0 
L 11.71875 0 
z
M 11.71875 51.703125 
L 22.015625 51.703125 
L 22.015625 39.3125 
L 11.71875 39.3125 
z
" id="DejaVuSans-58"/>
      </defs>
      <g transform="translate(16.700996 316.86495)rotate(-45)scale(0.12 -0.12)">
       <use xlink:href="#DejaVuSans-49"/>
       <use x="63.623047" xlink:href="#DejaVuSans-54"/>
       <use x="127.246094" xlink:href="#DejaVuSans-47"/>
       <use x="160.9375" xlink:href="#DejaVuSans-48"/>
       <use x="224.560547" xlink:href="#DejaVuSans-51"/>
       <use x="288.183594" xlink:href="#DejaVuSans-47"/>
       <use x="321.875" xlink:href="#DejaVuSans-50"/>
       <use x="385.498047" xlink:href="#DejaVuSans-48"/>
       <use x="449.121094" xlink:href="#DejaVuSans-32"/>
       <use x="480.908203" xlink:href="#DejaVuSans-48"/>
       <use x="544.53125" xlink:href="#DejaVuSans-56"/>
       <use x="608.154297" xlink:href="#DejaVuSans-58"/>
       <use x="641.845703" xlink:href="#DejaVuSans-48"/>
       <use x="705.46875" xlink:href="#DejaVuSans-48"/>
      </g>
     </g>
    </g>
    <g id="xtick_2">
     <g id="line2d_3">
      <path clip-path="url(#p8d3ec73d0c)" d="M 121.38119 238.157693 
L 121.38119 36.417128 
" style="fill:none;stroke:#808080;stroke-dasharray:0.5,0.825;stroke-dashoffset:0;stroke-width:0.5;"/>
     </g>
     <g id="line2d_4">
      <g>
       <use style="stroke:#000000;stroke-width:0.8;" x="121.38119" xlink:href="#m324f600b16" y="238.157693"/>
      </g>
     </g>
     <g id="text_2">
      <!-- 16/03/20 12:00 -->
      <g transform="translate(54.356748 316.86495)rotate(-45)scale(0.12 -0.12)">
       <use xlink:href="#DejaVuSans-49"/>
       <use x="63.623047" xlink:href="#DejaVuSans-54"/>
       <use x="127.246094" xlink:href="#DejaVuSans-47"/>
       <use x="160.9375" xlink:href="#DejaVuSans-48"/>
       <use x="224.560547" xlink:href="#DejaVuSans-51"/>
       <use x="288.183594" xlink:href="#DejaVuSans-47"/>
       <use x="321.875" xlink:href="#DejaVuSans-50"/>
       <use x="385.498047" xlink:href="#DejaVuSans-48"/>
       <use x="449.121094" xlink:href="#DejaVuSans-32"/>
       <use x="480.908203" xlink:href="#DejaVuSans-49"/>
       <use x="544.53125" xlink:href="#DejaVuSans-50"/>
       <use x="608.154297" xlink:href="#DejaVuSans-58"/>
       <use x="641.845703" xlink:href="#DejaVuSans-48"/>
       <use x="705.46875" xlink:href="#DejaVuSans-48"/>
      </g>
     </g>
    </g>
    <g id="xtick_3">
     <g id="line2d_5">
      <path clip-path="url(#p8d3ec73d0c)" d="M 159.036942 238.157693 
L 159.036942 36.417128 
" style="fill:none;stroke:#808080;stroke-dasharray:0.5,0.825;stroke-dashoffset:0;stroke-width:0.5;"/>
     </g>
     <g id="line2d_6">
      <g>
       <use style="stroke:#000000;stroke-width:0.8;" x="159.036942" xlink:href="#m324f600b16" y="238.157693"/>
      </g>
     </g>
     <g id="text_3">
      <!-- 16/03/20 16:00 -->
      <g transform="translate(92.0125 316.86495)rotate(-45)scale(0.12 -0.12)">
       <use xlink:href="#DejaVuSans-49"/>
       <use x="63.623047" xlink:href="#DejaVuSans-54"/>
       <use x="127.246094" xlink:href="#DejaVuSans-47"/>
       <use x="160.9375" xlink:href="#DejaVuSans-48"/>
       <use x="224.560547" xlink:href="#DejaVuSans-51"/>
       <use x="288.183594" xlink:href="#DejaVuSans-47"/>
       <use x="321.875" xlink:href="#DejaVuSans-50"/>
       <use x="385.498047" xlink:href="#DejaVuSans-48"/>
       <use x="449.121094" xlink:href="#DejaVuSans-32"/>
       <use x="480.908203" xlink:href="#DejaVuSans-49"/>
       <use x="544.53125" xlink:href="#DejaVuSans-54"/>
       <use x="608.154297" xlink:href="#DejaVuSans-58"/>
       <use x="641.845703" xlink:href="#DejaVuSans-48"/>
       <use x="705.46875" xlink:href="#DejaVuSans-48"/>
      </g>
     </g>
    </g>
    <g id="xtick_4">
     <g id="line2d_7">
      <path clip-path="url(#p8d3ec73d0c)" d="M 196.692695 238.157693 
L 196.692695 36.417128 
" style="fill:none;stroke:#808080;stroke-dasharray:0.5,0.825;stroke-dashoffset:0;stroke-width:0.5;"/>
     </g>
     <g id="line2d_8">
      <g>
       <use style="stroke:#000000;stroke-width:0.8;" x="196.692695" xlink:href="#m324f600b16" y="238.157693"/>
      </g>
     </g>
     <g id="text_4">
      <!-- 16/03/20 20:00 -->
      <g transform="translate(129.668253 316.86495)rotate(-45)scale(0.12 -0.12)">
       <use xlink:href="#DejaVuSans-49"/>
       <use x="63.623047" xlink:href="#DejaVuSans-54"/>
       <use x="127.246094" xlink:href="#DejaVuSans-47"/>
       <use x="160.9375" xlink:href="#DejaVuSans-48"/>
       <use x="224.560547" xlink:href="#DejaVuSans-51"/>
       <use x="288.183594" xlink:href="#DejaVuSans-47"/>
       <use x="321.875" xlink:href="#DejaVuSans-50"/>
       <use x="385.498047" xlink:href="#DejaVuSans-48"/>
       <use x="449.121094" xlink:href="#DejaVuSans-32"/>
       <use x="480.908203" xlink:href="#DejaVuSans-50"/>
       <use x="544.53125" xlink:href="#DejaVuSans-48"/>
       <use x="608.154297" xlink:href="#DejaVuSans-58"/>
       <use x="641.845703" xlink:href="#DejaVuSans-48"/>
       <use x="705.46875" xlink:href="#DejaVuSans-48"/>
      </g>
     </g>
    </g>
    <g id="xtick_5">
     <g id="line2d_9">
      <path clip-path="url(#p8d3ec73d0c)" d="M 234.348447 238.157693 
L 234.348447 36.417128 
" style="fill:none;stroke:#808080;stroke-dasharray:0.5,0.825;stroke-dashoffset:0;stroke-width:0.5;"/>
     </g>
     <g id="line2d_10">
      <g>
       <use style="stroke:#000000;stroke-width:0.8;" x="234.348447" xlink:href="#m324f600b16" y="238.157693"/>
      </g>
     </g>
     <g id="text_5">
      <!-- 17/03/20 08:00 -->
      <defs>
       <path d="M 8.203125 72.90625 
L 55.078125 72.90625 
L 55.078125 68.703125 
L 28.609375 0 
L 18.3125 0 
L 43.21875 64.59375 
L 8.203125 64.59375 
z
" id="DejaVuSans-55"/>
      </defs>
      <g transform="translate(167.324005 316.86495)rotate(-45)scale(0.12 -0.12)">
       <use xlink:href="#DejaVuSans-49"/>
       <use x="63.623047" xlink:href="#DejaVuSans-55"/>
       <use x="127.246094" xlink:href="#DejaVuSans-47"/>
       <use x="160.9375" xlink:href="#DejaVuSans-48"/>
       <use x="224.560547" xlink:href="#DejaVuSans-51"/>
       <use x="288.183594" xlink:href="#DejaVuSans-47"/>
       <use x="321.875" xlink:href="#DejaVuSans-50"/>
       <use x="385.498047" xlink:href="#DejaVuSans-48"/>
       <use x="449.121094" xlink:href="#DejaVuSans-32"/>
       <use x="480.908203" xlink:href="#DejaVuSans-48"/>
       <use x="544.53125" xlink:href="#DejaVuSans-56"/>
       <use x="608.154297" xlink:href="#DejaVuSans-58"/>
       <use x="641.845703" xlink:href="#DejaVuSans-48"/>
       <use x="705.46875" xlink:href="#DejaVuSans-48"/>
      </g>
     </g>
    </g>
    <g id="xtick_6">
     <g id="line2d_11">
      <path clip-path="url(#p8d3ec73d0c)" d="M 272.004199 238.157693 
L 272.004199 36.417128 
" style="fill:none;stroke:#808080;stroke-dasharray:0.5,0.825;stroke-dashoffset:0;stroke-width:0.5;"/>
     </g>
     <g id="line2d_12">
      <g>
       <use style="stroke:#000000;stroke-width:0.8;" x="272.004199" xlink:href="#m324f600b16" y="238.157693"/>
      </g>
     </g>
     <g id="text_6">
      <!-- 17/03/20 12:00 -->
      <g transform="translate(204.979757 316.86495)rotate(-45)scale(0.12 -0.12)">
       <use xlink:href="#DejaVuSans-49"/>
       <use x="63.623047" xlink:href="#DejaVuSans-55"/>
       <use x="127.246094" xlink:href="#DejaVuSans-47"/>
       <use x="160.9375" xlink:href="#DejaVuSans-48"/>
       <use x="224.560547" xlink:href="#DejaVuSans-51"/>
       <use x="288.183594" xlink:href="#DejaVuSans-47"/>
       <use x="321.875" xlink:href="#DejaVuSans-50"/>
       <use x="385.498047" xlink:href="#DejaVuSans-48"/>
       <use x="449.121094" xlink:href="#DejaVuSans-32"/>
       <use x="480.908203" xlink:href="#DejaVuSans-49"/>
       <use x="544.53125" xlink:href="#DejaVuSans-50"/>
       <use x="608.154297" xlink:href="#DejaVuSans-58"/>
       <use x="641.845703" xlink:href="#DejaVuSans-48"/>
       <use x="705.46875" xlink:href="#DejaVuSans-48"/>
      </g>
     </g>
    </g>
    <g id="xtick_7">
     <g id="line2d_13">
      <path clip-path="url(#p8d3ec73d0c)" d="M 309.659951 238.157693 
L 309.659951 36.417128 
" style="fill:none;stroke:#808080;stroke-dasharray:0.5,0.825;stroke-dashoffset:0;stroke-width:0.5;"/>
     </g>
     <g id="line2d_14">
      <g>
       <use style="stroke:#000000;stroke-width:0.8;" x="309.659951" xlink:href="#m324f600b16" y="238.157693"/>
      </g>
     </g>
     <g id="text_7">
      <!-- 17/03/20 16:00 -->
      <g transform="translate(242.635509 316.86495)rotate(-45)scale(0.12 -0.12)">
       <use xlink:href="#DejaVuSans-49"/>
       <use x="63.623047" xlink:href="#DejaVuSans-55"/>
       <use x="127.246094" xlink:href="#DejaVuSans-47"/>
       <use x="160.9375" xlink:href="#DejaVuSans-48"/>
       <use x="224.560547" xlink:href="#DejaVuSans-51"/>
       <use x="288.183594" xlink:href="#DejaVuSans-47"/>
       <use x="321.875" xlink:href="#DejaVuSans-50"/>
       <use x="385.498047" xlink:href="#DejaVuSans-48"/>
       <use x="449.121094" xlink:href="#DejaVuSans-32"/>
       <use x="480.908203" xlink:href="#DejaVuSans-49"/>
       <use x="544.53125" xlink:href="#DejaVuSans-54"/>
       <use x="608.154297" xlink:href="#DejaVuSans-58"/>
       <use x="641.845703" xlink:href="#DejaVuSans-48"/>
       <use x="705.46875" xlink:href="#DejaVuSans-48"/>
      </g>
     </g>
    </g>
    <g id="xtick_8">
     <g id="line2d_15">
      <path clip-path="url(#p8d3ec73d0c)" d="M 347.315704 238.157693 
L 347.315704 36.417128 
" style="fill:none;stroke:#808080;stroke-dasharray:0.5,0.825;stroke-dashoffset:0;stroke-width:0.5;"/>
     </g>
     <g id="line2d_16">
      <g>
       <use style="stroke:#000000;stroke-width:0.8;" x="347.315704" xlink:href="#m324f600b16" y="238.157693"/>
      </g>
     </g>
     <g id="text_8">
      <!-- 17/03/20 20:00 -->
      <g transform="translate(280.291261 316.86495)rotate(-45)scale(0.12 -0.12)">
       <use xlink:href="#DejaVuSans-49"/>
       <use x="63.623047" xlink:href="#DejaVuSans-55"/>
       <use x="127.246094" xlink:href="#DejaVuSans-47"/>
       <use x="160.9375" xlink:href="#DejaVuSans-48"/>
       <use x="224.560547" xlink:href="#DejaVuSans-51"/>
       <use x="288.183594" xlink:href="#DejaVuSans-47"/>
       <use x="321.875" xlink:href="#DejaVuSans-50"/>
       <use x="385.498047" xlink:href="#DejaVuSans-48"/>
       <use x="449.121094" xlink:href="#DejaVuSans-32"/>
       <use x="480.908203" xlink:href="#DejaVuSans-50"/>
       <use x="544.53125" xlink:href="#DejaVuSans-48"/>
       <use x="608.154297" xlink:href="#DejaVuSans-58"/>
       <use x="641.845703" xlink:href="#DejaVuSans-48"/>
       <use x="705.46875" xlink:href="#DejaVuSans-48"/>
      </g>
     </g>
    </g>
    <g id="xtick_9">
     <g id="line2d_17">
      <path clip-path="url(#p8d3ec73d0c)" d="M 384.971456 238.157693 
L 384.971456 36.417128 
" style="fill:none;stroke:#808080;stroke-dasharray:0.5,0.825;stroke-dashoffset:0;stroke-width:0.5;"/>
     </g>
     <g id="line2d_18">
      <g>
       <use style="stroke:#000000;stroke-width:0.8;" x="384.971456" xlink:href="#m324f600b16" y="238.157693"/>
      </g>
     </g>
     <g id="text_9">
      <!-- 18/03/20 08:00 -->
      <g transform="translate(317.947014 316.86495)rotate(-45)scale(0.12 -0.12)">
       <use xlink:href="#DejaVuSans-49"/>
       <use x="63.623047" xlink:href="#DejaVuSans-56"/>
       <use x="127.246094" xlink:href="#DejaVuSans-47"/>
       <use x="160.9375" xlink:href="#DejaVuSans-48"/>
       <use x="224.560547" xlink:href="#DejaVuSans-51"/>
       <use x="288.183594" xlink:href="#DejaVuSans-47"/>
       <use x="321.875" xlink:href="#DejaVuSans-50"/>
       <use x="385.498047" xlink:href="#DejaVuSans-48"/>
       <use x="449.121094" xlink:href="#DejaVuSans-32"/>
       <use x="480.908203" xlink:href="#DejaVuSans-48"/>
       <use x="544.53125" xlink:href="#DejaVuSans-56"/>
       <use x="608.154297" xlink:href="#DejaVuSans-58"/>
       <use x="641.845703" xlink:href="#DejaVuSans-48"/>
       <use x="705.46875" xlink:href="#DejaVuSans-48"/>
      </g>
     </g>
    </g>
    <g id="xtick_10">
     <g id="line2d_19">
      <path clip-path="url(#p8d3ec73d0c)" d="M 422.627208 238.157693 
L 422.627208 36.417128 
" style="fill:none;stroke:#808080;stroke-dasharray:0.5,0.825;stroke-dashoffset:0;stroke-width:0.5;"/>
     </g>
     <g id="line2d_20">
      <g>
       <use style="stroke:#000000;stroke-width:0.8;" x="422.627208" xlink:href="#m324f600b16" y="238.157693"/>
      </g>
     </g>
     <g id="text_10">
      <!-- 18/03/20 12:00 -->
      <g transform="translate(355.602766 316.86495)rotate(-45)scale(0.12 -0.12)">
       <use xlink:href="#DejaVuSans-49"/>
       <use x="63.623047" xlink:href="#DejaVuSans-56"/>
       <use x="127.246094" xlink:href="#DejaVuSans-47"/>
       <use x="160.9375" xlink:href="#DejaVuSans-48"/>
       <use x="224.560547" xlink:href="#DejaVuSans-51"/>
       <use x="288.183594" xlink:href="#DejaVuSans-47"/>
       <use x="321.875" xlink:href="#DejaVuSans-50"/>
       <use x="385.498047" xlink:href="#DejaVuSans-48"/>
       <use x="449.121094" xlink:href="#DejaVuSans-32"/>
       <use x="480.908203" xlink:href="#DejaVuSans-49"/>
       <use x="544.53125" xlink:href="#DejaVuSans-50"/>
       <use x="608.154297" xlink:href="#DejaVuSans-58"/>
       <use x="641.845703" xlink:href="#DejaVuSans-48"/>
       <use x="705.46875" xlink:href="#DejaVuSans-48"/>
      </g>
     </g>
    </g>
    <g id="xtick_11">
     <g id="line2d_21">
      <path clip-path="url(#p8d3ec73d0c)" d="M 460.28296 238.157693 
L 460.28296 36.417128 
" style="fill:none;stroke:#808080;stroke-dasharray:0.5,0.825;stroke-dashoffset:0;stroke-width:0.5;"/>
     </g>
     <g id="line2d_22">
      <g>
       <use style="stroke:#000000;stroke-width:0.8;" x="460.28296" xlink:href="#m324f600b16" y="238.157693"/>
      </g>
     </g>
     <g id="text_11">
      <!-- 18/03/20 16:00 -->
      <g transform="translate(393.258518 316.86495)rotate(-45)scale(0.12 -0.12)">
       <use xlink:href="#DejaVuSans-49"/>
       <use x="63.623047" xlink:href="#DejaVuSans-56"/>
       <use x="127.246094" xlink:href="#DejaVuSans-47"/>
       <use x="160.9375" xlink:href="#DejaVuSans-48"/>
       <use x="224.560547" xlink:href="#DejaVuSans-51"/>
       <use x="288.183594" xlink:href="#DejaVuSans-47"/>
       <use x="321.875" xlink:href="#DejaVuSans-50"/>
       <use x="385.498047" xlink:href="#DejaVuSans-48"/>
       <use x="449.121094" xlink:href="#DejaVuSans-32"/>
       <use x="480.908203" xlink:href="#DejaVuSans-49"/>
       <use x="544.53125" xlink:href="#DejaVuSans-54"/>
       <use x="608.154297" xlink:href="#DejaVuSans-58"/>
       <use x="641.845703" xlink:href="#DejaVuSans-48"/>
       <use x="705.46875" xlink:href="#DejaVuSans-48"/>
      </g>
     </g>
    </g>
    <g id="xtick_12">
     <g id="line2d_23">
      <path clip-path="url(#p8d3ec73d0c)" d="M 497.938712 238.157693 
L 497.938712 36.417128 
" style="fill:none;stroke:#808080;stroke-dasharray:0.5,0.825;stroke-dashoffset:0;stroke-width:0.5;"/>
     </g>
     <g id="line2d_24">
      <g>
       <use style="stroke:#000000;stroke-width:0.8;" x="497.938712" xlink:href="#m324f600b16" y="238.157693"/>
      </g>
     </g>
     <g id="text_12">
      <!-- 18/03/20 20:00 -->
      <g transform="translate(430.91427 316.86495)rotate(-45)scale(0.12 -0.12)">
       <use xlink:href="#DejaVuSans-49"/>
       <use x="63.623047" xlink:href="#DejaVuSans-56"/>
       <use x="127.246094" xlink:href="#DejaVuSans-47"/>
       <use x="160.9375" xlink:href="#DejaVuSans-48"/>
       <use x="224.560547" xlink:href="#DejaVuSans-51"/>
       <use x="288.183594" xlink:href="#DejaVuSans-47"/>
       <use x="321.875" xlink:href="#DejaVuSans-50"/>
       <use x="385.498047" xlink:href="#DejaVuSans-48"/>
       <use x="449.121094" xlink:href="#DejaVuSans-32"/>
       <use x="480.908203" xlink:href="#DejaVuSans-50"/>
       <use x="544.53125" xlink:href="#DejaVuSans-48"/>
       <use x="608.154297" xlink:href="#DejaVuSans-58"/>
       <use x="641.845703" xlink:href="#DejaVuSans-48"/>
       <use x="705.46875" xlink:href="#DejaVuSans-48"/>
      </g>
     </g>
    </g>
    <g id="xtick_13">
     <g id="line2d_25">
      <path clip-path="url(#p8d3ec73d0c)" d="M 535.594465 238.157693 
L 535.594465 36.417128 
" style="fill:none;stroke:#808080;stroke-dasharray:0.5,0.825;stroke-dashoffset:0;stroke-width:0.5;"/>
     </g>
     <g id="line2d_26">
      <g>
       <use style="stroke:#000000;stroke-width:0.8;" x="535.594465" xlink:href="#m324f600b16" y="238.157693"/>
      </g>
     </g>
     <g id="text_13">
      <!-- 19/03/20 08:00 -->
      <defs>
       <path d="M 10.984375 1.515625 
L 10.984375 10.5 
Q 14.703125 8.734375 18.5 7.8125 
Q 22.3125 6.890625 25.984375 6.890625 
Q 35.75 6.890625 40.890625 13.453125 
Q 46.046875 20.015625 46.78125 33.40625 
Q 43.953125 29.203125 39.59375 26.953125 
Q 35.25 24.703125 29.984375 24.703125 
Q 19.046875 24.703125 12.671875 31.3125 
Q 6.296875 37.9375 6.296875 49.421875 
Q 6.296875 60.640625 12.9375 67.421875 
Q 19.578125 74.21875 30.609375 74.21875 
Q 43.265625 74.21875 49.921875 64.515625 
Q 56.59375 54.828125 56.59375 36.375 
Q 56.59375 19.140625 48.40625 8.859375 
Q 40.234375 -1.421875 26.421875 -1.421875 
Q 22.703125 -1.421875 18.890625 -0.6875 
Q 15.09375 0.046875 10.984375 1.515625 
z
M 30.609375 32.421875 
Q 37.25 32.421875 41.125 36.953125 
Q 45.015625 41.5 45.015625 49.421875 
Q 45.015625 57.28125 41.125 61.84375 
Q 37.25 66.40625 30.609375 66.40625 
Q 23.96875 66.40625 20.09375 61.84375 
Q 16.21875 57.28125 16.21875 49.421875 
Q 16.21875 41.5 20.09375 36.953125 
Q 23.96875 32.421875 30.609375 32.421875 
z
" id="DejaVuSans-57"/>
      </defs>
      <g transform="translate(468.570023 316.86495)rotate(-45)scale(0.12 -0.12)">
       <use xlink:href="#DejaVuSans-49"/>
       <use x="63.623047" xlink:href="#DejaVuSans-57"/>
       <use x="127.246094" xlink:href="#DejaVuSans-47"/>
       <use x="160.9375" xlink:href="#DejaVuSans-48"/>
       <use x="224.560547" xlink:href="#DejaVuSans-51"/>
       <use x="288.183594" xlink:href="#DejaVuSans-47"/>
       <use x="321.875" xlink:href="#DejaVuSans-50"/>
       <use x="385.498047" xlink:href="#DejaVuSans-48"/>
       <use x="449.121094" xlink:href="#DejaVuSans-32"/>
       <use x="480.908203" xlink:href="#DejaVuSans-48"/>
       <use x="544.53125" xlink:href="#DejaVuSans-56"/>
       <use x="608.154297" xlink:href="#DejaVuSans-58"/>
       <use x="641.845703" xlink:href="#DejaVuSans-48"/>
       <use x="705.46875" xlink:href="#DejaVuSans-48"/>
      </g>
     </g>
    </g>
    <g id="xtick_14">
     <g id="line2d_27">
      <path clip-path="url(#p8d3ec73d0c)" d="M 573.250217 238.157693 
L 573.250217 36.417128 
" style="fill:none;stroke:#808080;stroke-dasharray:0.5,0.825;stroke-dashoffset:0;stroke-width:0.5;"/>
     </g>
     <g id="line2d_28">
      <g>
       <use style="stroke:#000000;stroke-width:0.8;" x="573.250217" xlink:href="#m324f600b16" y="238.157693"/>
      </g>
     </g>
     <g id="text_14">
      <!-- 19/03/20 12:00 -->
      <g transform="translate(506.225775 316.86495)rotate(-45)scale(0.12 -0.12)">
       <use xlink:href="#DejaVuSans-49"/>
       <use x="63.623047" xlink:href="#DejaVuSans-57"/>
       <use x="127.246094" xlink:href="#DejaVuSans-47"/>
       <use x="160.9375" xlink:href="#DejaVuSans-48"/>
       <use x="224.560547" xlink:href="#DejaVuSans-51"/>
       <use x="288.183594" xlink:href="#DejaVuSans-47"/>
       <use x="321.875" xlink:href="#DejaVuSans-50"/>
       <use x="385.498047" xlink:href="#DejaVuSans-48"/>
       <use x="449.121094" xlink:href="#DejaVuSans-32"/>
       <use x="480.908203" xlink:href="#DejaVuSans-49"/>
       <use x="544.53125" xlink:href="#DejaVuSans-50"/>
       <use x="608.154297" xlink:href="#DejaVuSans-58"/>
       <use x="641.845703" xlink:href="#DejaVuSans-48"/>
       <use x="705.46875" xlink:href="#DejaVuSans-48"/>
      </g>
     </g>
    </g>
    <g id="xtick_15">
     <g id="line2d_29">
      <path clip-path="url(#p8d3ec73d0c)" d="M 610.905969 238.157693 
L 610.905969 36.417128 
" style="fill:none;stroke:#808080;stroke-dasharray:0.5,0.825;stroke-dashoffset:0;stroke-width:0.5;"/>
     </g>
     <g id="line2d_30">
      <g>
       <use style="stroke:#000000;stroke-width:0.8;" x="610.905969" xlink:href="#m324f600b16" y="238.157693"/>
      </g>
     </g>
     <g id="text_15">
      <!-- 19/03/20 16:00 -->
      <g transform="translate(543.881527 316.86495)rotate(-45)scale(0.12 -0.12)">
       <use xlink:href="#DejaVuSans-49"/>
       <use x="63.623047" xlink:href="#DejaVuSans-57"/>
       <use x="127.246094" xlink:href="#DejaVuSans-47"/>
       <use x="160.9375" xlink:href="#DejaVuSans-48"/>
       <use x="224.560547" xlink:href="#DejaVuSans-51"/>
       <use x="288.183594" xlink:href="#DejaVuSans-47"/>
       <use x="321.875" xlink:href="#DejaVuSans-50"/>
       <use x="385.498047" xlink:href="#DejaVuSans-48"/>
       <use x="449.121094" xlink:href="#DejaVuSans-32"/>
       <use x="480.908203" xlink:href="#DejaVuSans-49"/>
       <use x="544.53125" xlink:href="#DejaVuSans-54"/>
       <use x="608.154297" xlink:href="#DejaVuSans-58"/>
       <use x="641.845703" xlink:href="#DejaVuSans-48"/>
       <use x="705.46875" xlink:href="#DejaVuSans-48"/>
      </g>
     </g>
    </g>
    <g id="xtick_16">
     <g id="line2d_31">
      <path clip-path="url(#p8d3ec73d0c)" d="M 648.561721 238.157693 
L 648.561721 36.417128 
" style="fill:none;stroke:#808080;stroke-dasharray:0.5,0.825;stroke-dashoffset:0;stroke-width:0.5;"/>
     </g>
     <g id="line2d_32">
      <g>
       <use style="stroke:#000000;stroke-width:0.8;" x="648.561721" xlink:href="#m324f600b16" y="238.157693"/>
      </g>
     </g>
     <g id="text_16">
      <!-- 19/03/20 20:00 -->
      <g transform="translate(581.537279 316.86495)rotate(-45)scale(0.12 -0.12)">
       <use xlink:href="#DejaVuSans-49"/>
       <use x="63.623047" xlink:href="#DejaVuSans-57"/>
       <use x="127.246094" xlink:href="#DejaVuSans-47"/>
       <use x="160.9375" xlink:href="#DejaVuSans-48"/>
       <use x="224.560547" xlink:href="#DejaVuSans-51"/>
       <use x="288.183594" xlink:href="#DejaVuSans-47"/>
       <use x="321.875" xlink:href="#DejaVuSans-50"/>
       <use x="385.498047" xlink:href="#DejaVuSans-48"/>
       <use x="449.121094" xlink:href="#DejaVuSans-32"/>
       <use x="480.908203" xlink:href="#DejaVuSans-50"/>
       <use x="544.53125" xlink:href="#DejaVuSans-48"/>
       <use x="608.154297" xlink:href="#DejaVuSans-58"/>
       <use x="641.845703" xlink:href="#DejaVuSans-48"/>
       <use x="705.46875" xlink:href="#DejaVuSans-48"/>
      </g>
     </g>
    </g>
    <g id="xtick_17">
     <g id="line2d_33">
      <path clip-path="url(#p8d3ec73d0c)" d="M 686.217473 238.157693 
L 686.217473 36.417128 
" style="fill:none;stroke:#808080;stroke-dasharray:0.5,0.825;stroke-dashoffset:0;stroke-width:0.5;"/>
     </g>
     <g id="line2d_34">
      <g>
       <use style="stroke:#000000;stroke-width:0.8;" x="686.217473" xlink:href="#m324f600b16" y="238.157693"/>
      </g>
     </g>
     <g id="text_17">
      <!-- 20/03/20 08:00 -->
      <g transform="translate(619.193031 316.86495)rotate(-45)scale(0.12 -0.12)">
       <use xlink:href="#DejaVuSans-50"/>
       <use x="63.623047" xlink:href="#DejaVuSans-48"/>
       <use x="127.246094" xlink:href="#DejaVuSans-47"/>
       <use x="160.9375" xlink:href="#DejaVuSans-48"/>
       <use x="224.560547" xlink:href="#DejaVuSans-51"/>
       <use x="288.183594" xlink:href="#DejaVuSans-47"/>
       <use x="321.875" xlink:href="#DejaVuSans-50"/>
       <use x="385.498047" xlink:href="#DejaVuSans-48"/>
       <use x="449.121094" xlink:href="#DejaVuSans-32"/>
       <use x="480.908203" xlink:href="#DejaVuSans-48"/>
       <use x="544.53125" xlink:href="#DejaVuSans-56"/>
       <use x="608.154297" xlink:href="#DejaVuSans-58"/>
       <use x="641.845703" xlink:href="#DejaVuSans-48"/>
       <use x="705.46875" xlink:href="#DejaVuSans-48"/>
      </g>
     </g>
    </g>
    <g id="xtick_18">
     <g id="line2d_35">
      <path clip-path="url(#p8d3ec73d0c)" d="M 723.873226 238.157693 
L 723.873226 36.417128 
" style="fill:none;stroke:#808080;stroke-dasharray:0.5,0.825;stroke-dashoffset:0;stroke-width:0.5;"/>
     </g>
     <g id="line2d_36">
      <g>
       <use style="stroke:#000000;stroke-width:0.8;" x="723.873226" xlink:href="#m324f600b16" y="238.157693"/>
      </g>
     </g>
     <g id="text_18">
      <!-- 20/03/20 12:00 -->
      <g transform="translate(656.848784 316.86495)rotate(-45)scale(0.12 -0.12)">
       <use xlink:href="#DejaVuSans-50"/>
       <use x="63.623047" xlink:href="#DejaVuSans-48"/>
       <use x="127.246094" xlink:href="#DejaVuSans-47"/>
       <use x="160.9375" xlink:href="#DejaVuSans-48"/>
       <use x="224.560547" xlink:href="#DejaVuSans-51"/>
       <use x="288.183594" xlink:href="#DejaVuSans-47"/>
       <use x="321.875" xlink:href="#DejaVuSans-50"/>
       <use x="385.498047" xlink:href="#DejaVuSans-48"/>
       <use x="449.121094" xlink:href="#DejaVuSans-32"/>
       <use x="480.908203" xlink:href="#DejaVuSans-49"/>
       <use x="544.53125" xlink:href="#DejaVuSans-50"/>
       <use x="608.154297" xlink:href="#DejaVuSans-58"/>
       <use x="641.845703" xlink:href="#DejaVuSans-48"/>
       <use x="705.46875" xlink:href="#DejaVuSans-48"/>
      </g>
     </g>
    </g>
    <g id="xtick_19">
     <g id="line2d_37">
      <path clip-path="url(#p8d3ec73d0c)" d="M 761.528978 238.157693 
L 761.528978 36.417128 
" style="fill:none;stroke:#808080;stroke-dasharray:0.5,0.825;stroke-dashoffset:0;stroke-width:0.5;"/>
     </g>
     <g id="line2d_38">
      <g>
       <use style="stroke:#000000;stroke-width:0.8;" x="761.528978" xlink:href="#m324f600b16" y="238.157693"/>
      </g>
     </g>
     <g id="text_19">
      <!-- 20/03/20 16:00 -->
      <g transform="translate(694.504536 316.86495)rotate(-45)scale(0.12 -0.12)">
       <use xlink:href="#DejaVuSans-50"/>
       <use x="63.623047" xlink:href="#DejaVuSans-48"/>
       <use x="127.246094" xlink:href="#DejaVuSans-47"/>
       <use x="160.9375" xlink:href="#DejaVuSans-48"/>
       <use x="224.560547" xlink:href="#DejaVuSans-51"/>
       <use x="288.183594" xlink:href="#DejaVuSans-47"/>
       <use x="321.875" xlink:href="#DejaVuSans-50"/>
       <use x="385.498047" xlink:href="#DejaVuSans-48"/>
       <use x="449.121094" xlink:href="#DejaVuSans-32"/>
       <use x="480.908203" xlink:href="#DejaVuSans-49"/>
       <use x="544.53125" xlink:href="#DejaVuSans-54"/>
       <use x="608.154297" xlink:href="#DejaVuSans-58"/>
       <use x="641.845703" xlink:href="#DejaVuSans-48"/>
       <use x="705.46875" xlink:href="#DejaVuSans-48"/>
      </g>
     </g>
    </g>
    <g id="xtick_20">
     <g id="line2d_39">
      <path clip-path="url(#p8d3ec73d0c)" d="M 799.18473 238.157693 
L 799.18473 36.417128 
" style="fill:none;stroke:#808080;stroke-dasharray:0.5,0.825;stroke-dashoffset:0;stroke-width:0.5;"/>
     </g>
     <g id="line2d_40">
      <g>
       <use style="stroke:#000000;stroke-width:0.8;" x="799.18473" xlink:href="#m324f600b16" y="238.157693"/>
      </g>
     </g>
     <g id="text_20">
      <!-- 20/03/20 20:00 -->
      <g transform="translate(732.160288 316.86495)rotate(-45)scale(0.12 -0.12)">
       <use xlink:href="#DejaVuSans-50"/>
       <use x="63.623047" xlink:href="#DejaVuSans-48"/>
       <use x="127.246094" xlink:href="#DejaVuSans-47"/>
       <use x="160.9375" xlink:href="#DejaVuSans-48"/>
       <use x="224.560547" xlink:href="#DejaVuSans-51"/>
       <use x="288.183594" xlink:href="#DejaVuSans-47"/>
       <use x="321.875" xlink:href="#DejaVuSans-50"/>
       <use x="385.498047" xlink:href="#DejaVuSans-48"/>
       <use x="449.121094" xlink:href="#DejaVuSans-32"/>
       <use x="480.908203" xlink:href="#DejaVuSans-50"/>
       <use x="544.53125" xlink:href="#DejaVuSans-48"/>
       <use x="608.154297" xlink:href="#DejaVuSans-58"/>
       <use x="641.845703" xlink:href="#DejaVuSans-48"/>
       <use x="705.46875" xlink:href="#DejaVuSans-48"/>
      </g>
     </g>
    </g>
    <g id="xtick_21">
     <g id="line2d_41">
      <path clip-path="url(#p8d3ec73d0c)" d="M 836.840482 238.157693 
L 836.840482 36.417128 
" style="fill:none;stroke:#808080;stroke-dasharray:0.5,0.825;stroke-dashoffset:0;stroke-width:0.5;"/>
     </g>
     <g id="line2d_42">
      <g>
       <use style="stroke:#000000;stroke-width:0.8;" x="836.840482" xlink:href="#m324f600b16" y="238.157693"/>
      </g>
     </g>
     <g id="text_21">
      <!-- 21/03/20 08:00 -->
      <g transform="translate(769.81604 316.86495)rotate(-45)scale(0.12 -0.12)">
       <use xlink:href="#DejaVuSans-50"/>
       <use x="63.623047" xlink:href="#DejaVuSans-49"/>
       <use x="127.246094" xlink:href="#DejaVuSans-47"/>
       <use x="160.9375" xlink:href="#DejaVuSans-48"/>
       <use x="224.560547" xlink:href="#DejaVuSans-51"/>
       <use x="288.183594" xlink:href="#DejaVuSans-47"/>
       <use x="321.875" xlink:href="#DejaVuSans-50"/>
       <use x="385.498047" xlink:href="#DejaVuSans-48"/>
       <use x="449.121094" xlink:href="#DejaVuSans-32"/>
       <use x="480.908203" xlink:href="#DejaVuSans-48"/>
       <use x="544.53125" xlink:href="#DejaVuSans-56"/>
       <use x="608.154297" xlink:href="#DejaVuSans-58"/>
       <use x="641.845703" xlink:href="#DejaVuSans-48"/>
       <use x="705.46875" xlink:href="#DejaVuSans-48"/>
      </g>
     </g>
    </g>
    <g id="xtick_22">
     <g id="line2d_43">
      <path clip-path="url(#p8d3ec73d0c)" d="M 874.496235 238.157693 
L 874.496235 36.417128 
" style="fill:none;stroke:#808080;stroke-dasharray:0.5,0.825;stroke-dashoffset:0;stroke-width:0.5;"/>
     </g>
     <g id="line2d_44">
      <g>
       <use style="stroke:#000000;stroke-width:0.8;" x="874.496235" xlink:href="#m324f600b16" y="238.157693"/>
      </g>
     </g>
     <g id="text_22">
      <!-- 21/03/20 12:00 -->
      <g transform="translate(807.471792 316.86495)rotate(-45)scale(0.12 -0.12)">
       <use xlink:href="#DejaVuSans-50"/>
       <use x="63.623047" xlink:href="#DejaVuSans-49"/>
       <use x="127.246094" xlink:href="#DejaVuSans-47"/>
       <use x="160.9375" xlink:href="#DejaVuSans-48"/>
       <use x="224.560547" xlink:href="#DejaVuSans-51"/>
       <use x="288.183594" xlink:href="#DejaVuSans-47"/>
       <use x="321.875" xlink:href="#DejaVuSans-50"/>
       <use x="385.498047" xlink:href="#DejaVuSans-48"/>
       <use x="449.121094" xlink:href="#DejaVuSans-32"/>
       <use x="480.908203" xlink:href="#DejaVuSans-49"/>
       <use x="544.53125" xlink:href="#DejaVuSans-50"/>
       <use x="608.154297" xlink:href="#DejaVuSans-58"/>
       <use x="641.845703" xlink:href="#DejaVuSans-48"/>
       <use x="705.46875" xlink:href="#DejaVuSans-48"/>
      </g>
     </g>
    </g>
    <g id="xtick_23">
     <g id="line2d_45">
      <path clip-path="url(#p8d3ec73d0c)" d="M 912.151987 238.157693 
L 912.151987 36.417128 
" style="fill:none;stroke:#808080;stroke-dasharray:0.5,0.825;stroke-dashoffset:0;stroke-width:0.5;"/>
     </g>
     <g id="line2d_46">
      <g>
       <use style="stroke:#000000;stroke-width:0.8;" x="912.151987" xlink:href="#m324f600b16" y="238.157693"/>
      </g>
     </g>
     <g id="text_23">
      <!-- 21/03/20 16:00 -->
      <g transform="translate(845.127545 316.86495)rotate(-45)scale(0.12 -0.12)">
       <use xlink:href="#DejaVuSans-50"/>
       <use x="63.623047" xlink:href="#DejaVuSans-49"/>
       <use x="127.246094" xlink:href="#DejaVuSans-47"/>
       <use x="160.9375" xlink:href="#DejaVuSans-48"/>
       <use x="224.560547" xlink:href="#DejaVuSans-51"/>
       <use x="288.183594" xlink:href="#DejaVuSans-47"/>
       <use x="321.875" xlink:href="#DejaVuSans-50"/>
       <use x="385.498047" xlink:href="#DejaVuSans-48"/>
       <use x="449.121094" xlink:href="#DejaVuSans-32"/>
       <use x="480.908203" xlink:href="#DejaVuSans-49"/>
       <use x="544.53125" xlink:href="#DejaVuSans-54"/>
       <use x="608.154297" xlink:href="#DejaVuSans-58"/>
       <use x="641.845703" xlink:href="#DejaVuSans-48"/>
       <use x="705.46875" xlink:href="#DejaVuSans-48"/>
      </g>
     </g>
    </g>
    <g id="xtick_24">
     <g id="line2d_47">
      <path clip-path="url(#p8d3ec73d0c)" d="M 949.807739 238.157693 
L 949.807739 36.417128 
" style="fill:none;stroke:#808080;stroke-dasharray:0.5,0.825;stroke-dashoffset:0;stroke-width:0.5;"/>
     </g>
     <g id="line2d_48">
      <g>
       <use style="stroke:#000000;stroke-width:0.8;" x="949.807739" xlink:href="#m324f600b16" y="238.157693"/>
      </g>
     </g>
     <g id="text_24">
      <!-- 21/03/20 20:00 -->
      <g transform="translate(882.783297 316.86495)rotate(-45)scale(0.12 -0.12)">
       <use xlink:href="#DejaVuSans-50"/>
       <use x="63.623047" xlink:href="#DejaVuSans-49"/>
       <use x="127.246094" xlink:href="#DejaVuSans-47"/>
       <use x="160.9375" xlink:href="#DejaVuSans-48"/>
       <use x="224.560547" xlink:href="#DejaVuSans-51"/>
       <use x="288.183594" xlink:href="#DejaVuSans-47"/>
       <use x="321.875" xlink:href="#DejaVuSans-50"/>
       <use x="385.498047" xlink:href="#DejaVuSans-48"/>
       <use x="449.121094" xlink:href="#DejaVuSans-32"/>
       <use x="480.908203" xlink:href="#DejaVuSans-50"/>
       <use x="544.53125" xlink:href="#DejaVuSans-48"/>
       <use x="608.154297" xlink:href="#DejaVuSans-58"/>
       <use x="641.845703" xlink:href="#DejaVuSans-48"/>
       <use x="705.46875" xlink:href="#DejaVuSans-48"/>
      </g>
     </g>
    </g>
    <g id="xtick_25">
     <g id="line2d_49">
      <path clip-path="url(#p8d3ec73d0c)" d="M 987.463491 238.157693 
L 987.463491 36.417128 
" style="fill:none;stroke:#808080;stroke-dasharray:0.5,0.825;stroke-dashoffset:0;stroke-width:0.5;"/>
     </g>
     <g id="line2d_50">
      <g>
       <use style="stroke:#000000;stroke-width:0.8;" x="987.463491" xlink:href="#m324f600b16" y="238.157693"/>
      </g>
     </g>
     <g id="text_25">
      <!-- 22/03/20 08:00 -->
      <g transform="translate(920.439049 316.86495)rotate(-45)scale(0.12 -0.12)">
       <use xlink:href="#DejaVuSans-50"/>
       <use x="63.623047" xlink:href="#DejaVuSans-50"/>
       <use x="127.246094" xlink:href="#DejaVuSans-47"/>
       <use x="160.9375" xlink:href="#DejaVuSans-48"/>
       <use x="224.560547" xlink:href="#DejaVuSans-51"/>
       <use x="288.183594" xlink:href="#DejaVuSans-47"/>
       <use x="321.875" xlink:href="#DejaVuSans-50"/>
       <use x="385.498047" xlink:href="#DejaVuSans-48"/>
       <use x="449.121094" xlink:href="#DejaVuSans-32"/>
       <use x="480.908203" xlink:href="#DejaVuSans-48"/>
       <use x="544.53125" xlink:href="#DejaVuSans-56"/>
       <use x="608.154297" xlink:href="#DejaVuSans-58"/>
       <use x="641.845703" xlink:href="#DejaVuSans-48"/>
       <use x="705.46875" xlink:href="#DejaVuSans-48"/>
      </g>
     </g>
    </g>
    <g id="xtick_26">
     <g id="line2d_51">
      <path clip-path="url(#p8d3ec73d0c)" d="M 1025.119243 238.157693 
L 1025.119243 36.417128 
" style="fill:none;stroke:#808080;stroke-dasharray:0.5,0.825;stroke-dashoffset:0;stroke-width:0.5;"/>
     </g>
     <g id="line2d_52">
      <g>
       <use style="stroke:#000000;stroke-width:0.8;" x="1025.119243" xlink:href="#m324f600b16" y="238.157693"/>
      </g>
     </g>
     <g id="text_26">
      <!-- 22/03/20 12:00 -->
      <g transform="translate(958.094801 316.86495)rotate(-45)scale(0.12 -0.12)">
       <use xlink:href="#DejaVuSans-50"/>
       <use x="63.623047" xlink:href="#DejaVuSans-50"/>
       <use x="127.246094" xlink:href="#DejaVuSans-47"/>
       <use x="160.9375" xlink:href="#DejaVuSans-48"/>
       <use x="224.560547" xlink:href="#DejaVuSans-51"/>
       <use x="288.183594" xlink:href="#DejaVuSans-47"/>
       <use x="321.875" xlink:href="#DejaVuSans-50"/>
       <use x="385.498047" xlink:href="#DejaVuSans-48"/>
       <use x="449.121094" xlink:href="#DejaVuSans-32"/>
       <use x="480.908203" xlink:href="#DejaVuSans-49"/>
       <use x="544.53125" xlink:href="#DejaVuSans-50"/>
       <use x="608.154297" xlink:href="#DejaVuSans-58"/>
       <use x="641.845703" xlink:href="#DejaVuSans-48"/>
       <use x="705.46875" xlink:href="#DejaVuSans-48"/>
      </g>
     </g>
    </g>
    <g id="xtick_27">
     <g id="line2d_53">
      <path clip-path="url(#p8d3ec73d0c)" d="M 1062.774996 238.157693 
L 1062.774996 36.417128 
" style="fill:none;stroke:#808080;stroke-dasharray:0.5,0.825;stroke-dashoffset:0;stroke-width:0.5;"/>
     </g>
     <g id="line2d_54">
      <g>
       <use style="stroke:#000000;stroke-width:0.8;" x="1062.774996" xlink:href="#m324f600b16" y="238.157693"/>
      </g>
     </g>
     <g id="text_27">
      <!-- 22/03/20 16:00 -->
      <g transform="translate(995.750553 316.86495)rotate(-45)scale(0.12 -0.12)">
       <use xlink:href="#DejaVuSans-50"/>
       <use x="63.623047" xlink:href="#DejaVuSans-50"/>
       <use x="127.246094" xlink:href="#DejaVuSans-47"/>
       <use x="160.9375" xlink:href="#DejaVuSans-48"/>
       <use x="224.560547" xlink:href="#DejaVuSans-51"/>
       <use x="288.183594" xlink:href="#DejaVuSans-47"/>
       <use x="321.875" xlink:href="#DejaVuSans-50"/>
       <use x="385.498047" xlink:href="#DejaVuSans-48"/>
       <use x="449.121094" xlink:href="#DejaVuSans-32"/>
       <use x="480.908203" xlink:href="#DejaVuSans-49"/>
       <use x="544.53125" xlink:href="#DejaVuSans-54"/>
       <use x="608.154297" xlink:href="#DejaVuSans-58"/>
       <use x="641.845703" xlink:href="#DejaVuSans-48"/>
       <use x="705.46875" xlink:href="#DejaVuSans-48"/>
      </g>
     </g>
    </g>
    <g id="xtick_28">
     <g id="line2d_55">
      <path clip-path="url(#p8d3ec73d0c)" d="M 1100.430748 238.157693 
L 1100.430748 36.417128 
" style="fill:none;stroke:#808080;stroke-dasharray:0.5,0.825;stroke-dashoffset:0;stroke-width:0.5;"/>
     </g>
     <g id="line2d_56">
      <g>
       <use style="stroke:#000000;stroke-width:0.8;" x="1100.430748" xlink:href="#m324f600b16" y="238.157693"/>
      </g>
     </g>
     <g id="text_28">
      <!-- 22/03/20 20:00 -->
      <g transform="translate(1033.406306 316.86495)rotate(-45)scale(0.12 -0.12)">
       <use xlink:href="#DejaVuSans-50"/>
       <use x="63.623047" xlink:href="#DejaVuSans-50"/>
       <use x="127.246094" xlink:href="#DejaVuSans-47"/>
       <use x="160.9375" xlink:href="#DejaVuSans-48"/>
       <use x="224.560547" xlink:href="#DejaVuSans-51"/>
       <use x="288.183594" xlink:href="#DejaVuSans-47"/>
       <use x="321.875" xlink:href="#DejaVuSans-50"/>
       <use x="385.498047" xlink:href="#DejaVuSans-48"/>
       <use x="449.121094" xlink:href="#DejaVuSans-32"/>
       <use x="480.908203" xlink:href="#DejaVuSans-50"/>
       <use x="544.53125" xlink:href="#DejaVuSans-48"/>
       <use x="608.154297" xlink:href="#DejaVuSans-58"/>
       <use x="641.845703" xlink:href="#DejaVuSans-48"/>
       <use x="705.46875" xlink:href="#DejaVuSans-48"/>
      </g>
     </g>
    </g>
    <g id="text_29">
     <!-- Time -->
     <defs>
      <path d="M -0.296875 72.90625 
L 61.375 72.90625 
L 61.375 64.59375 
L 35.5 64.59375 
L 35.5 0 
L 25.59375 0 
L 25.59375 64.59375 
L -0.296875 64.59375 
z
" id="DejaVuSans-84"/>
      <path d="M 9.421875 54.6875 
L 18.40625 54.6875 
L 18.40625 0 
L 9.421875 0 
z
M 9.421875 75.984375 
L 18.40625 75.984375 
L 18.40625 64.59375 
L 9.421875 64.59375 
z
" id="DejaVuSans-105"/>
      <path d="M 52 44.1875 
Q 55.375 50.25 60.0625 53.125 
Q 64.75 56 71.09375 56 
Q 79.640625 56 84.28125 50.015625 
Q 88.921875 44.046875 88.921875 33.015625 
L 88.921875 0 
L 79.890625 0 
L 79.890625 32.71875 
Q 79.890625 40.578125 77.09375 44.375 
Q 74.3125 48.1875 68.609375 48.1875 
Q 61.625 48.1875 57.5625 43.546875 
Q 53.515625 38.921875 53.515625 30.90625 
L 53.515625 0 
L 44.484375 0 
L 44.484375 32.71875 
Q 44.484375 40.625 41.703125 44.40625 
Q 38.921875 48.1875 33.109375 48.1875 
Q 26.21875 48.1875 22.15625 43.53125 
Q 18.109375 38.875 18.109375 30.90625 
L 18.109375 0 
L 9.078125 0 
L 9.078125 54.6875 
L 18.109375 54.6875 
L 18.109375 46.1875 
Q 21.1875 51.21875 25.484375 53.609375 
Q 29.78125 56 35.6875 56 
Q 41.65625 56 45.828125 52.96875 
Q 50 49.953125 52 44.1875 
z
" id="DejaVuSans-109"/>
      <path d="M 56.203125 29.59375 
L 56.203125 25.203125 
L 14.890625 25.203125 
Q 15.484375 15.921875 20.484375 11.0625 
Q 25.484375 6.203125 34.421875 6.203125 
Q 39.59375 6.203125 44.453125 7.46875 
Q 49.3125 8.734375 54.109375 11.28125 
L 54.109375 2.78125 
Q 49.265625 0.734375 44.1875 -0.34375 
Q 39.109375 -1.421875 33.890625 -1.421875 
Q 20.796875 -1.421875 13.15625 6.1875 
Q 5.515625 13.8125 5.515625 26.8125 
Q 5.515625 40.234375 12.765625 48.109375 
Q 20.015625 56 32.328125 56 
Q 43.359375 56 49.78125 48.890625 
Q 56.203125 41.796875 56.203125 29.59375 
z
M 47.21875 32.234375 
Q 47.125 39.59375 43.09375 43.984375 
Q 39.0625 48.390625 32.421875 48.390625 
Q 24.90625 48.390625 20.390625 44.140625 
Q 15.875 39.890625 15.1875 32.171875 
z
" id="DejaVuSans-101"/>
     </defs>
     <g transform="translate(588.361 337.571373)scale(0.144 -0.144)">
      <use xlink:href="#DejaVuSans-84"/>
      <use x="61.037109" xlink:href="#DejaVuSans-105"/>
      <use x="88.820312" xlink:href="#DejaVuSans-109"/>
      <use x="186.232422" xlink:href="#DejaVuSans-101"/>
     </g>
    </g>
   </g>
   <g id="matplotlib.axis_2">
    <g id="ytick_1">
     <g id="line2d_57">
      <path clip-path="url(#p8d3ec73d0c)" d="M 74.3115 238.157693 
L 1138.0865 238.157693 
" style="fill:none;stroke:#808080;stroke-dasharray:0.5,0.825;stroke-dashoffset:0;stroke-width:0.5;"/>
     </g>
     <g id="line2d_58">
      <defs>
       <path d="M 0 0 
L -3.5 0 
" id="ma390be1eba" style="stroke:#000000;stroke-width:0.8;"/>
      </defs>
      <g>
       <use style="stroke:#000000;stroke-width:0.8;" x="74.3115" xlink:href="#ma390be1eba" y="238.157693"/>
      </g>
     </g>
     <g id="text_30">
      <!-- 0 -->
      <g transform="translate(59.6765 242.716755)scale(0.12 -0.12)">
       <use xlink:href="#DejaVuSans-48"/>
      </g>
     </g>
    </g>
    <g id="ytick_2">
     <g id="line2d_59">
      <path clip-path="url(#p8d3ec73d0c)" d="M 74.3115 194.465086 
L 1138.0865 194.465086 
" style="fill:none;stroke:#808080;stroke-dasharray:0.5,0.825;stroke-dashoffset:0;stroke-width:0.5;"/>
     </g>
     <g id="line2d_60">
      <g>
       <use style="stroke:#000000;stroke-width:0.8;" x="74.3115" xlink:href="#ma390be1eba" y="194.465086"/>
      </g>
     </g>
     <g id="text_31">
      <!-- 5000 -->
      <defs>
       <path d="M 10.796875 72.90625 
L 49.515625 72.90625 
L 49.515625 64.59375 
L 19.828125 64.59375 
L 19.828125 46.734375 
Q 21.96875 47.46875 24.109375 47.828125 
Q 26.265625 48.1875 28.421875 48.1875 
Q 40.625 48.1875 47.75 41.5 
Q 54.890625 34.8125 54.890625 23.390625 
Q 54.890625 11.625 47.5625 5.09375 
Q 40.234375 -1.421875 26.90625 -1.421875 
Q 22.3125 -1.421875 17.546875 -0.640625 
Q 12.796875 0.140625 7.71875 1.703125 
L 7.71875 11.625 
Q 12.109375 9.234375 16.796875 8.0625 
Q 21.484375 6.890625 26.703125 6.890625 
Q 35.15625 6.890625 40.078125 11.328125 
Q 45.015625 15.765625 45.015625 23.390625 
Q 45.015625 31 40.078125 35.4375 
Q 35.15625 39.890625 26.703125 39.890625 
Q 22.75 39.890625 18.8125 39.015625 
Q 14.890625 38.140625 10.796875 36.28125 
z
" id="DejaVuSans-53"/>
      </defs>
      <g transform="translate(36.7715 199.024148)scale(0.12 -0.12)">
       <use xlink:href="#DejaVuSans-53"/>
       <use x="63.623047" xlink:href="#DejaVuSans-48"/>
       <use x="127.246094" xlink:href="#DejaVuSans-48"/>
       <use x="190.869141" xlink:href="#DejaVuSans-48"/>
      </g>
     </g>
    </g>
    <g id="ytick_3">
     <g id="line2d_61">
      <path clip-path="url(#p8d3ec73d0c)" d="M 74.3115 150.772478 
L 1138.0865 150.772478 
" style="fill:none;stroke:#808080;stroke-dasharray:0.5,0.825;stroke-dashoffset:0;stroke-width:0.5;"/>
     </g>
     <g id="line2d_62">
      <g>
       <use style="stroke:#000000;stroke-width:0.8;" x="74.3115" xlink:href="#ma390be1eba" y="150.772478"/>
      </g>
     </g>
     <g id="text_32">
      <!-- 10000 -->
      <g transform="translate(29.1365 155.331541)scale(0.12 -0.12)">
       <use xlink:href="#DejaVuSans-49"/>
       <use x="63.623047" xlink:href="#DejaVuSans-48"/>
       <use x="127.246094" xlink:href="#DejaVuSans-48"/>
       <use x="190.869141" xlink:href="#DejaVuSans-48"/>
       <use x="254.492188" xlink:href="#DejaVuSans-48"/>
      </g>
     </g>
    </g>
    <g id="ytick_4">
     <g id="line2d_63">
      <path clip-path="url(#p8d3ec73d0c)" d="M 74.3115 107.079871 
L 1138.0865 107.079871 
" style="fill:none;stroke:#808080;stroke-dasharray:0.5,0.825;stroke-dashoffset:0;stroke-width:0.5;"/>
     </g>
     <g id="line2d_64">
      <g>
       <use style="stroke:#000000;stroke-width:0.8;" x="74.3115" xlink:href="#ma390be1eba" y="107.079871"/>
      </g>
     </g>
     <g id="text_33">
      <!-- 15000 -->
      <g transform="translate(29.1365 111.638934)scale(0.12 -0.12)">
       <use xlink:href="#DejaVuSans-49"/>
       <use x="63.623047" xlink:href="#DejaVuSans-53"/>
       <use x="127.246094" xlink:href="#DejaVuSans-48"/>
       <use x="190.869141" xlink:href="#DejaVuSans-48"/>
       <use x="254.492188" xlink:href="#DejaVuSans-48"/>
      </g>
     </g>
    </g>
    <g id="ytick_5">
     <g id="line2d_65">
      <path clip-path="url(#p8d3ec73d0c)" d="M 74.3115 63.387264 
L 1138.0865 63.387264 
" style="fill:none;stroke:#808080;stroke-dasharray:0.5,0.825;stroke-dashoffset:0;stroke-width:0.5;"/>
     </g>
     <g id="line2d_66">
      <g>
       <use style="stroke:#000000;stroke-width:0.8;" x="74.3115" xlink:href="#ma390be1eba" y="63.387264"/>
      </g>
     </g>
     <g id="text_34">
      <!-- 20000 -->
      <g transform="translate(29.1365 67.946326)scale(0.12 -0.12)">
       <use xlink:href="#DejaVuSans-50"/>
       <use x="63.623047" xlink:href="#DejaVuSans-48"/>
       <use x="127.246094" xlink:href="#DejaVuSans-48"/>
       <use x="190.869141" xlink:href="#DejaVuSans-48"/>
       <use x="254.492188" xlink:href="#DejaVuSans-48"/>
      </g>
     </g>
    </g>
    <g id="text_35">
     <!-- Energy consumption [Wh] -->
     <defs>
      <path d="M 9.8125 72.90625 
L 55.90625 72.90625 
L 55.90625 64.59375 
L 19.671875 64.59375 
L 19.671875 43.015625 
L 54.390625 43.015625 
L 54.390625 34.71875 
L 19.671875 34.71875 
L 19.671875 8.296875 
L 56.78125 8.296875 
L 56.78125 0 
L 9.8125 0 
z
" id="DejaVuSans-69"/>
      <path d="M 54.890625 33.015625 
L 54.890625 0 
L 45.90625 0 
L 45.90625 32.71875 
Q 45.90625 40.484375 42.875 44.328125 
Q 39.84375 48.1875 33.796875 48.1875 
Q 26.515625 48.1875 22.3125 43.546875 
Q 18.109375 38.921875 18.109375 30.90625 
L 18.109375 0 
L 9.078125 0 
L 9.078125 54.6875 
L 18.109375 54.6875 
L 18.109375 46.1875 
Q 21.34375 51.125 25.703125 53.5625 
Q 30.078125 56 35.796875 56 
Q 45.21875 56 50.046875 50.171875 
Q 54.890625 44.34375 54.890625 33.015625 
z
" id="DejaVuSans-110"/>
      <path d="M 41.109375 46.296875 
Q 39.59375 47.171875 37.8125 47.578125 
Q 36.03125 48 33.890625 48 
Q 26.265625 48 22.1875 43.046875 
Q 18.109375 38.09375 18.109375 28.8125 
L 18.109375 0 
L 9.078125 0 
L 9.078125 54.6875 
L 18.109375 54.6875 
L 18.109375 46.1875 
Q 20.953125 51.171875 25.484375 53.578125 
Q 30.03125 56 36.53125 56 
Q 37.453125 56 38.578125 55.875 
Q 39.703125 55.765625 41.0625 55.515625 
z
" id="DejaVuSans-114"/>
      <path d="M 45.40625 27.984375 
Q 45.40625 37.75 41.375 43.109375 
Q 37.359375 48.484375 30.078125 48.484375 
Q 22.859375 48.484375 18.828125 43.109375 
Q 14.796875 37.75 14.796875 27.984375 
Q 14.796875 18.265625 18.828125 12.890625 
Q 22.859375 7.515625 30.078125 7.515625 
Q 37.359375 7.515625 41.375 12.890625 
Q 45.40625 18.265625 45.40625 27.984375 
z
M 54.390625 6.78125 
Q 54.390625 -7.171875 48.1875 -13.984375 
Q 42 -20.796875 29.203125 -20.796875 
Q 24.46875 -20.796875 20.265625 -20.09375 
Q 16.0625 -19.390625 12.109375 -17.921875 
L 12.109375 -9.1875 
Q 16.0625 -11.328125 19.921875 -12.34375 
Q 23.78125 -13.375 27.78125 -13.375 
Q 36.625 -13.375 41.015625 -8.765625 
Q 45.40625 -4.15625 45.40625 5.171875 
L 45.40625 9.625 
Q 42.625 4.78125 38.28125 2.390625 
Q 33.9375 0 27.875 0 
Q 17.828125 0 11.671875 7.65625 
Q 5.515625 15.328125 5.515625 27.984375 
Q 5.515625 40.671875 11.671875 48.328125 
Q 17.828125 56 27.875 56 
Q 33.9375 56 38.28125 53.609375 
Q 42.625 51.21875 45.40625 46.390625 
L 45.40625 54.6875 
L 54.390625 54.6875 
z
" id="DejaVuSans-103"/>
      <path d="M 32.171875 -5.078125 
Q 28.375 -14.84375 24.75 -17.8125 
Q 21.140625 -20.796875 15.09375 -20.796875 
L 7.90625 -20.796875 
L 7.90625 -13.28125 
L 13.1875 -13.28125 
Q 16.890625 -13.28125 18.9375 -11.515625 
Q 21 -9.765625 23.484375 -3.21875 
L 25.09375 0.875 
L 2.984375 54.6875 
L 12.5 54.6875 
L 29.59375 11.921875 
L 46.6875 54.6875 
L 56.203125 54.6875 
z
" id="DejaVuSans-121"/>
      <path d="M 48.78125 52.59375 
L 48.78125 44.1875 
Q 44.96875 46.296875 41.140625 47.34375 
Q 37.3125 48.390625 33.40625 48.390625 
Q 24.65625 48.390625 19.8125 42.84375 
Q 14.984375 37.3125 14.984375 27.296875 
Q 14.984375 17.28125 19.8125 11.734375 
Q 24.65625 6.203125 33.40625 6.203125 
Q 37.3125 6.203125 41.140625 7.25 
Q 44.96875 8.296875 48.78125 10.40625 
L 48.78125 2.09375 
Q 45.015625 0.34375 40.984375 -0.53125 
Q 36.96875 -1.421875 32.421875 -1.421875 
Q 20.0625 -1.421875 12.78125 6.34375 
Q 5.515625 14.109375 5.515625 27.296875 
Q 5.515625 40.671875 12.859375 48.328125 
Q 20.21875 56 33.015625 56 
Q 37.15625 56 41.109375 55.140625 
Q 45.0625 54.296875 48.78125 52.59375 
z
" id="DejaVuSans-99"/>
      <path d="M 30.609375 48.390625 
Q 23.390625 48.390625 19.1875 42.75 
Q 14.984375 37.109375 14.984375 27.296875 
Q 14.984375 17.484375 19.15625 11.84375 
Q 23.34375 6.203125 30.609375 6.203125 
Q 37.796875 6.203125 41.984375 11.859375 
Q 46.1875 17.53125 46.1875 27.296875 
Q 46.1875 37.015625 41.984375 42.703125 
Q 37.796875 48.390625 30.609375 48.390625 
z
M 30.609375 56 
Q 42.328125 56 49.015625 48.375 
Q 55.71875 40.765625 55.71875 27.296875 
Q 55.71875 13.875 49.015625 6.21875 
Q 42.328125 -1.421875 30.609375 -1.421875 
Q 18.84375 -1.421875 12.171875 6.21875 
Q 5.515625 13.875 5.515625 27.296875 
Q 5.515625 40.765625 12.171875 48.375 
Q 18.84375 56 30.609375 56 
z
" id="DejaVuSans-111"/>
      <path d="M 44.28125 53.078125 
L 44.28125 44.578125 
Q 40.484375 46.53125 36.375 47.5 
Q 32.28125 48.484375 27.875 48.484375 
Q 21.1875 48.484375 17.84375 46.4375 
Q 14.5 44.390625 14.5 40.28125 
Q 14.5 37.15625 16.890625 35.375 
Q 19.28125 33.59375 26.515625 31.984375 
L 29.59375 31.296875 
Q 39.15625 29.25 43.1875 25.515625 
Q 47.21875 21.78125 47.21875 15.09375 
Q 47.21875 7.46875 41.1875 3.015625 
Q 35.15625 -1.421875 24.609375 -1.421875 
Q 20.21875 -1.421875 15.453125 -0.5625 
Q 10.6875 0.296875 5.421875 2 
L 5.421875 11.28125 
Q 10.40625 8.6875 15.234375 7.390625 
Q 20.0625 6.109375 24.8125 6.109375 
Q 31.15625 6.109375 34.5625 8.28125 
Q 37.984375 10.453125 37.984375 14.40625 
Q 37.984375 18.0625 35.515625 20.015625 
Q 33.0625 21.96875 24.703125 23.78125 
L 21.578125 24.515625 
Q 13.234375 26.265625 9.515625 29.90625 
Q 5.8125 33.546875 5.8125 39.890625 
Q 5.8125 47.609375 11.28125 51.796875 
Q 16.75 56 26.8125 56 
Q 31.78125 56 36.171875 55.265625 
Q 40.578125 54.546875 44.28125 53.078125 
z
" id="DejaVuSans-115"/>
      <path d="M 8.5 21.578125 
L 8.5 54.6875 
L 17.484375 54.6875 
L 17.484375 21.921875 
Q 17.484375 14.15625 20.5 10.265625 
Q 23.53125 6.390625 29.59375 6.390625 
Q 36.859375 6.390625 41.078125 11.03125 
Q 45.3125 15.671875 45.3125 23.6875 
L 45.3125 54.6875 
L 54.296875 54.6875 
L 54.296875 0 
L 45.3125 0 
L 45.3125 8.40625 
Q 42.046875 3.421875 37.71875 1 
Q 33.40625 -1.421875 27.6875 -1.421875 
Q 18.265625 -1.421875 13.375 4.4375 
Q 8.5 10.296875 8.5 21.578125 
z
M 31.109375 56 
z
" id="DejaVuSans-117"/>
      <path d="M 18.109375 8.203125 
L 18.109375 -20.796875 
L 9.078125 -20.796875 
L 9.078125 54.6875 
L 18.109375 54.6875 
L 18.109375 46.390625 
Q 20.953125 51.265625 25.265625 53.625 
Q 29.59375 56 35.59375 56 
Q 45.5625 56 51.78125 48.09375 
Q 58.015625 40.1875 58.015625 27.296875 
Q 58.015625 14.40625 51.78125 6.484375 
Q 45.5625 -1.421875 35.59375 -1.421875 
Q 29.59375 -1.421875 25.265625 0.953125 
Q 20.953125 3.328125 18.109375 8.203125 
z
M 48.6875 27.296875 
Q 48.6875 37.203125 44.609375 42.84375 
Q 40.53125 48.484375 33.40625 48.484375 
Q 26.265625 48.484375 22.1875 42.84375 
Q 18.109375 37.203125 18.109375 27.296875 
Q 18.109375 17.390625 22.1875 11.75 
Q 26.265625 6.109375 33.40625 6.109375 
Q 40.53125 6.109375 44.609375 11.75 
Q 48.6875 17.390625 48.6875 27.296875 
z
" id="DejaVuSans-112"/>
      <path d="M 18.3125 70.21875 
L 18.3125 54.6875 
L 36.8125 54.6875 
L 36.8125 47.703125 
L 18.3125 47.703125 
L 18.3125 18.015625 
Q 18.3125 11.328125 20.140625 9.421875 
Q 21.96875 7.515625 27.59375 7.515625 
L 36.8125 7.515625 
L 36.8125 0 
L 27.59375 0 
Q 17.1875 0 13.234375 3.875 
Q 9.28125 7.765625 9.28125 18.015625 
L 9.28125 47.703125 
L 2.6875 47.703125 
L 2.6875 54.6875 
L 9.28125 54.6875 
L 9.28125 70.21875 
z
" id="DejaVuSans-116"/>
      <path d="M 8.59375 75.984375 
L 29.296875 75.984375 
L 29.296875 69 
L 17.578125 69 
L 17.578125 -6.203125 
L 29.296875 -6.203125 
L 29.296875 -13.1875 
L 8.59375 -13.1875 
z
" id="DejaVuSans-91"/>
      <path d="M 3.328125 72.90625 
L 13.28125 72.90625 
L 28.609375 11.28125 
L 43.890625 72.90625 
L 54.984375 72.90625 
L 70.3125 11.28125 
L 85.59375 72.90625 
L 95.609375 72.90625 
L 77.296875 0 
L 64.890625 0 
L 49.515625 63.28125 
L 33.984375 0 
L 21.578125 0 
z
" id="DejaVuSans-87"/>
      <path d="M 54.890625 33.015625 
L 54.890625 0 
L 45.90625 0 
L 45.90625 32.71875 
Q 45.90625 40.484375 42.875 44.328125 
Q 39.84375 48.1875 33.796875 48.1875 
Q 26.515625 48.1875 22.3125 43.546875 
Q 18.109375 38.921875 18.109375 30.90625 
L 18.109375 0 
L 9.078125 0 
L 9.078125 75.984375 
L 18.109375 75.984375 
L 18.109375 46.1875 
Q 21.34375 51.125 25.703125 53.5625 
Q 30.078125 56 35.796875 56 
Q 45.21875 56 50.046875 50.171875 
Q 54.890625 44.34375 54.890625 33.015625 
z
" id="DejaVuSans-104"/>
      <path d="M 30.421875 75.984375 
L 30.421875 -13.1875 
L 9.71875 -13.1875 
L 9.71875 -6.203125 
L 21.390625 -6.203125 
L 21.390625 69 
L 9.71875 69 
L 9.71875 75.984375 
z
" id="DejaVuSans-93"/>
     </defs>
     <g transform="translate(18.14175 231.114661)rotate(-90)scale(0.144 -0.144)">
      <use xlink:href="#DejaVuSans-69"/>
      <use x="63.183594" xlink:href="#DejaVuSans-110"/>
      <use x="126.5625" xlink:href="#DejaVuSans-101"/>
      <use x="188.085938" xlink:href="#DejaVuSans-114"/>
      <use x="229.183594" xlink:href="#DejaVuSans-103"/>
      <use x="292.660156" xlink:href="#DejaVuSans-121"/>
      <use x="351.839844" xlink:href="#DejaVuSans-32"/>
      <use x="383.626953" xlink:href="#DejaVuSans-99"/>
      <use x="438.607422" xlink:href="#DejaVuSans-111"/>
      <use x="499.789062" xlink:href="#DejaVuSans-110"/>
      <use x="563.167969" xlink:href="#DejaVuSans-115"/>
      <use x="615.267578" xlink:href="#DejaVuSans-117"/>
      <use x="678.646484" xlink:href="#DejaVuSans-109"/>
      <use x="776.058594" xlink:href="#DejaVuSans-112"/>
      <use x="839.535156" xlink:href="#DejaVuSans-116"/>
      <use x="878.744141" xlink:href="#DejaVuSans-105"/>
      <use x="906.527344" xlink:href="#DejaVuSans-111"/>
      <use x="967.708984" xlink:href="#DejaVuSans-110"/>
      <use x="1031.087891" xlink:href="#DejaVuSans-32"/>
      <use x="1062.875" xlink:href="#DejaVuSans-91"/>
      <use x="1101.888672" xlink:href="#DejaVuSans-87"/>
      <use x="1200.765625" xlink:href="#DejaVuSans-104"/>
      <use x="1264.144531" xlink:href="#DejaVuSans-93"/>
     </g>
    </g>
   </g>
   <g id="patch_115">
    <path d="M 74.3115 238.157693 
L 74.3115 36.417128 
" style="fill:none;stroke:#000000;stroke-linecap:square;stroke-linejoin:miter;stroke-width:0.8;"/>
   </g>
   <g id="patch_116">
    <path d="M 1138.0865 238.157693 
L 1138.0865 36.417128 
" style="fill:none;stroke:#000000;stroke-linecap:square;stroke-linejoin:miter;stroke-width:0.8;"/>
   </g>
   <g id="patch_117">
    <path d="M 74.3115 238.157693 
L 1138.0865 238.157693 
" style="fill:none;stroke:#000000;stroke-linecap:square;stroke-linejoin:miter;stroke-width:0.8;"/>
   </g>
   <g id="patch_118">
    <path d="M 74.3115 36.417128 
L 1138.0865 36.417128 
" style="fill:none;stroke:#000000;stroke-linecap:square;stroke-linejoin:miter;stroke-width:0.8;"/>
   </g>
   <g id="text_36">
    <!-- Did the Main Incomer-1F's energy usage pattern change over time? -->
    <defs>
     <path d="M 19.671875 64.796875 
L 19.671875 8.109375 
L 31.59375 8.109375 
Q 46.6875 8.109375 53.6875 14.9375 
Q 60.6875 21.78125 60.6875 36.53125 
Q 60.6875 51.171875 53.6875 57.984375 
Q 46.6875 64.796875 31.59375 64.796875 
z
M 9.8125 72.90625 
L 30.078125 72.90625 
Q 51.265625 72.90625 61.171875 64.09375 
Q 71.09375 55.28125 71.09375 36.53125 
Q 71.09375 17.671875 61.125 8.828125 
Q 51.171875 0 30.078125 0 
L 9.8125 0 
z
" id="DejaVuSans-68"/>
     <path d="M 45.40625 46.390625 
L 45.40625 75.984375 
L 54.390625 75.984375 
L 54.390625 0 
L 45.40625 0 
L 45.40625 8.203125 
Q 42.578125 3.328125 38.25 0.953125 
Q 33.9375 -1.421875 27.875 -1.421875 
Q 17.96875 -1.421875 11.734375 6.484375 
Q 5.515625 14.40625 5.515625 27.296875 
Q 5.515625 40.1875 11.734375 48.09375 
Q 17.96875 56 27.875 56 
Q 33.9375 56 38.25 53.625 
Q 42.578125 51.265625 45.40625 46.390625 
z
M 14.796875 27.296875 
Q 14.796875 17.390625 18.875 11.75 
Q 22.953125 6.109375 30.078125 6.109375 
Q 37.203125 6.109375 41.296875 11.75 
Q 45.40625 17.390625 45.40625 27.296875 
Q 45.40625 37.203125 41.296875 42.84375 
Q 37.203125 48.484375 30.078125 48.484375 
Q 22.953125 48.484375 18.875 42.84375 
Q 14.796875 37.203125 14.796875 27.296875 
z
" id="DejaVuSans-100"/>
     <path d="M 9.8125 72.90625 
L 24.515625 72.90625 
L 43.109375 23.296875 
L 61.8125 72.90625 
L 76.515625 72.90625 
L 76.515625 0 
L 66.890625 0 
L 66.890625 64.015625 
L 48.09375 14.015625 
L 38.1875 14.015625 
L 19.390625 64.015625 
L 19.390625 0 
L 9.8125 0 
z
" id="DejaVuSans-77"/>
     <path d="M 34.28125 27.484375 
Q 23.390625 27.484375 19.1875 25 
Q 14.984375 22.515625 14.984375 16.5 
Q 14.984375 11.71875 18.140625 8.90625 
Q 21.296875 6.109375 26.703125 6.109375 
Q 34.1875 6.109375 38.703125 11.40625 
Q 43.21875 16.703125 43.21875 25.484375 
L 43.21875 27.484375 
z
M 52.203125 31.203125 
L 52.203125 0 
L 43.21875 0 
L 43.21875 8.296875 
Q 40.140625 3.328125 35.546875 0.953125 
Q 30.953125 -1.421875 24.3125 -1.421875 
Q 15.921875 -1.421875 10.953125 3.296875 
Q 6 8.015625 6 15.921875 
Q 6 25.140625 12.171875 29.828125 
Q 18.359375 34.515625 30.609375 34.515625 
L 43.21875 34.515625 
L 43.21875 35.40625 
Q 43.21875 41.609375 39.140625 45 
Q 35.0625 48.390625 27.6875 48.390625 
Q 23 48.390625 18.546875 47.265625 
Q 14.109375 46.140625 10.015625 43.890625 
L 10.015625 52.203125 
Q 14.9375 54.109375 19.578125 55.046875 
Q 24.21875 56 28.609375 56 
Q 40.484375 56 46.34375 49.84375 
Q 52.203125 43.703125 52.203125 31.203125 
z
" id="DejaVuSans-97"/>
     <path d="M 9.8125 72.90625 
L 19.671875 72.90625 
L 19.671875 0 
L 9.8125 0 
z
" id="DejaVuSans-73"/>
     <path d="M 4.890625 31.390625 
L 31.203125 31.390625 
L 31.203125 23.390625 
L 4.890625 23.390625 
z
" id="DejaVuSans-45"/>
     <path d="M 9.8125 72.90625 
L 51.703125 72.90625 
L 51.703125 64.59375 
L 19.671875 64.59375 
L 19.671875 43.109375 
L 48.578125 43.109375 
L 48.578125 34.8125 
L 19.671875 34.8125 
L 19.671875 0 
L 9.8125 0 
z
" id="DejaVuSans-70"/>
     <path d="M 17.921875 72.90625 
L 17.921875 45.796875 
L 9.625 45.796875 
L 9.625 72.90625 
z
" id="DejaVuSans-39"/>
     <path d="M 2.984375 54.6875 
L 12.5 54.6875 
L 29.59375 8.796875 
L 46.6875 54.6875 
L 56.203125 54.6875 
L 35.6875 0 
L 23.484375 0 
z
" id="DejaVuSans-118"/>
     <path d="M 19.09375 12.40625 
L 29 12.40625 
L 29 0 
L 19.09375 0 
z
M 28.71875 19.578125 
L 19.390625 19.578125 
L 19.390625 27.09375 
Q 19.390625 32.03125 20.75 35.203125 
Q 22.125 38.375 26.515625 42.578125 
L 30.90625 46.921875 
Q 33.6875 49.515625 34.9375 51.8125 
Q 36.1875 54.109375 36.1875 56.5 
Q 36.1875 60.84375 32.984375 63.53125 
Q 29.78125 66.21875 24.515625 66.21875 
Q 20.65625 66.21875 16.28125 64.5 
Q 11.921875 62.796875 7.171875 59.515625 
L 7.171875 68.703125 
Q 11.765625 71.484375 16.46875 72.84375 
Q 21.1875 74.21875 26.21875 74.21875 
Q 35.203125 74.21875 40.640625 69.484375 
Q 46.09375 64.75 46.09375 56.984375 
Q 46.09375 53.265625 44.328125 49.921875 
Q 42.578125 46.578125 38.1875 42.390625 
L 33.890625 38.1875 
Q 31.59375 35.890625 30.640625 34.59375 
Q 29.6875 33.296875 29.296875 32.078125 
Q 29 31.0625 28.859375 29.59375 
Q 28.71875 28.125 28.71875 25.59375 
z
" id="DejaVuSans-63"/>
    </defs>
    <g transform="translate(312.94795 20.3301)scale(0.1728 -0.1728)">
     <use xlink:href="#DejaVuSans-68"/>
     <use x="77.001953" xlink:href="#DejaVuSans-105"/>
     <use x="104.785156" xlink:href="#DejaVuSans-100"/>
     <use x="168.261719" xlink:href="#DejaVuSans-32"/>
     <use x="200.048828" xlink:href="#DejaVuSans-116"/>
     <use x="239.257812" xlink:href="#DejaVuSans-104"/>
     <use x="302.636719" xlink:href="#DejaVuSans-101"/>
     <use x="364.160156" xlink:href="#DejaVuSans-32"/>
     <use x="395.947266" xlink:href="#DejaVuSans-77"/>
     <use x="482.226562" xlink:href="#DejaVuSans-97"/>
     <use x="543.505859" xlink:href="#DejaVuSans-105"/>
     <use x="571.289062" xlink:href="#DejaVuSans-110"/>
     <use x="634.667969" xlink:href="#DejaVuSans-32"/>
     <use x="666.455078" xlink:href="#DejaVuSans-73"/>
     <use x="695.947266" xlink:href="#DejaVuSans-110"/>
     <use x="759.326172" xlink:href="#DejaVuSans-99"/>
     <use x="814.306641" xlink:href="#DejaVuSans-111"/>
     <use x="875.488281" xlink:href="#DejaVuSans-109"/>
     <use x="972.900391" xlink:href="#DejaVuSans-101"/>
     <use x="1034.423828" xlink:href="#DejaVuSans-114"/>
     <use x="1075.443359" xlink:href="#DejaVuSans-45"/>
     <use x="1111.527344" xlink:href="#DejaVuSans-49"/>
     <use x="1175.150391" xlink:href="#DejaVuSans-70"/>
     <use x="1232.669922" xlink:href="#DejaVuSans-39"/>
     <use x="1260.160156" xlink:href="#DejaVuSans-115"/>
     <use x="1312.259766" xlink:href="#DejaVuSans-32"/>
     <use x="1344.046875" xlink:href="#DejaVuSans-101"/>
     <use x="1405.570312" xlink:href="#DejaVuSans-110"/>
     <use x="1468.949219" xlink:href="#DejaVuSans-101"/>
     <use x="1530.472656" xlink:href="#DejaVuSans-114"/>
     <use x="1571.570312" xlink:href="#DejaVuSans-103"/>
     <use x="1635.046875" xlink:href="#DejaVuSans-121"/>
     <use x="1694.226562" xlink:href="#DejaVuSans-32"/>
     <use x="1726.013672" xlink:href="#DejaVuSans-117"/>
     <use x="1789.392578" xlink:href="#DejaVuSans-115"/>
     <use x="1841.492188" xlink:href="#DejaVuSans-97"/>
     <use x="1902.771484" xlink:href="#DejaVuSans-103"/>
     <use x="1966.248047" xlink:href="#DejaVuSans-101"/>
     <use x="2027.771484" xlink:href="#DejaVuSans-32"/>
     <use x="2059.558594" xlink:href="#DejaVuSans-112"/>
     <use x="2123.035156" xlink:href="#DejaVuSans-97"/>
     <use x="2184.314453" xlink:href="#DejaVuSans-116"/>
     <use x="2223.523438" xlink:href="#DejaVuSans-116"/>
     <use x="2262.732422" xlink:href="#DejaVuSans-101"/>
     <use x="2324.255859" xlink:href="#DejaVuSans-114"/>
     <use x="2365.353516" xlink:href="#DejaVuSans-110"/>
     <use x="2428.732422" xlink:href="#DejaVuSans-32"/>
     <use x="2460.519531" xlink:href="#DejaVuSans-99"/>
     <use x="2515.5" xlink:href="#DejaVuSans-104"/>
     <use x="2578.878906" xlink:href="#DejaVuSans-97"/>
     <use x="2640.158203" xlink:href="#DejaVuSans-110"/>
     <use x="2703.537109" xlink:href="#DejaVuSans-103"/>
     <use x="2767.013672" xlink:href="#DejaVuSans-101"/>
     <use x="2828.537109" xlink:href="#DejaVuSans-32"/>
     <use x="2860.324219" xlink:href="#DejaVuSans-111"/>
     <use x="2921.505859" xlink:href="#DejaVuSans-118"/>
     <use x="2980.685547" xlink:href="#DejaVuSans-101"/>
     <use x="3042.208984" xlink:href="#DejaVuSans-114"/>
     <use x="3083.322266" xlink:href="#DejaVuSans-32"/>
     <use x="3115.109375" xlink:href="#DejaVuSans-116"/>
     <use x="3154.318359" xlink:href="#DejaVuSans-105"/>
     <use x="3182.101562" xlink:href="#DejaVuSans-109"/>
     <use x="3279.513672" xlink:href="#DejaVuSans-101"/>
     <use x="3341.037109" xlink:href="#DejaVuSans-63"/>
    </g>
   </g>
   <g id="legend_1">
    <g id="patch_119">
     <path d="M 1039.529 63.964628 
L 1129.6865 63.964628 
Q 1132.0865 63.964628 1132.0865 61.564628 
L 1132.0865 44.817128 
Q 1132.0865 42.417128 1129.6865 42.417128 
L 1039.529 42.417128 
Q 1037.129 42.417128 1037.129 44.817128 
L 1037.129 61.564628 
Q 1037.129 63.964628 1039.529 63.964628 
z
" style="fill:#ffffff;opacity:0.8;stroke:#cccccc;stroke-linejoin:miter;"/>
    </g>
    <g id="patch_120">
     <path d="M 1041.929 56.335253 
L 1065.929 56.335253 
L 1065.929 47.935253 
L 1041.929 47.935253 
z
" style="fill:#348abd;"/>
    </g>
    <g id="text_37">
     <!-- E_66982 -->
     <defs>
      <path d="M 50.984375 -16.609375 
L 50.984375 -23.578125 
L -0.984375 -23.578125 
L -0.984375 -16.609375 
z
" id="DejaVuSans-95"/>
     </defs>
     <g transform="translate(1075.529 56.335253)scale(0.12 -0.12)">
      <use xlink:href="#DejaVuSans-69"/>
      <use x="63.183594" xlink:href="#DejaVuSans-95"/>
      <use x="113.183594" xlink:href="#DejaVuSans-54"/>
      <use x="176.806641" xlink:href="#DejaVuSans-54"/>
      <use x="240.429688" xlink:href="#DejaVuSans-57"/>
      <use x="304.052734" xlink:href="#DejaVuSans-56"/>
      <use x="367.675781" xlink:href="#DejaVuSans-50"/>
     </g>
    </g>
   </g>
  </g>
 </g>
 <defs>
  <clipPath id="p8d3ec73d0c">
   <rect height="201.740565" width="1063.775" x="74.3115" y="36.417128"/>
  </clipPath>
 </defs>
</svg>
