<?xml version="1.0" encoding="utf-8" standalone="no"?>
<!DOCTYPE svg PUBLIC "-//W3C//DTD SVG 1.1//EN"
  "http://www.w3.org/Graphics/SVG/1.1/DTD/svg11.dtd">
<!-- Created with matplotlib (https://matplotlib.org/) -->
<svg height="347.766123pt" version="1.1" viewBox="0 0 1142.948221 347.766123" width="1142.948221pt" xmlns="http://www.w3.org/2000/svg" xmlns:xlink="http://www.w3.org/1999/xlink">
 <defs>
  <style type="text/css">
*{stroke-linecap:butt;stroke-linejoin:round;}
  </style>
 </defs>
 <g id="figure_1">
  <g id="patch_1">
   <path d="M 0 347.766123 
L 1142.948221 347.766123 
L 1142.948221 0 
L 0 0 
z
" style="fill:#ffffff;"/>
  </g>
  <g id="axes_1">
   <g id="patch_2">
    <path d="M 71.251606 238.157693 
L 1135.748221 238.157693 
L 1135.748221 36.417128 
L 71.251606 36.417128 
z
" style="fill:#ffffff;"/>
   </g>
   <g id="patch_3">
    <path clip-path="url(#p07edc3dcd9)" d="M 76.9038 238.157693 
L 84.44006 238.157693 
L 84.44006 237.000758 
L 76.9038 237.000758 
z
" style="fill:#348abd;"/>
   </g>
   <g id="patch_4">
    <path clip-path="url(#p07edc3dcd9)" d="M 86.324125 238.157693 
L 93.860384 238.157693 
L 93.860384 140.975141 
L 86.324125 140.975141 
z
" style="fill:#348abd;"/>
   </g>
   <g id="patch_5">
    <path clip-path="url(#p07edc3dcd9)" d="M 95.744449 238.157693 
L 103.280708 238.157693 
L 103.280708 236.587567 
L 95.744449 236.587567 
z
" style="fill:#348abd;"/>
   </g>
   <g id="patch_6">
    <path clip-path="url(#p07edc3dcd9)" d="M 105.164773 238.157693 
L 112.701032 238.157693 
L 112.701032 236.670205 
L 105.164773 236.670205 
z
" style="fill:#348abd;"/>
   </g>
   <g id="patch_7">
    <path clip-path="url(#p07edc3dcd9)" d="M 114.585097 238.157693 
L 122.121356 238.157693 
L 122.121356 180.889404 
L 114.585097 180.889404 
z
" style="fill:#348abd;"/>
   </g>
   <g id="patch_8">
    <path clip-path="url(#p07edc3dcd9)" d="M 124.005421 238.157693 
L 131.54168 238.157693 
L 131.54168 188.740035 
L 124.005421 188.740035 
z
" style="fill:#348abd;"/>
   </g>
   <g id="patch_9">
    <path clip-path="url(#p07edc3dcd9)" d="M 133.425745 238.157693 
L 140.962004 238.157693 
L 140.962004 177.501236 
L 133.425745 177.501236 
z
" style="fill:#348abd;"/>
   </g>
   <g id="patch_10">
    <path clip-path="url(#p07edc3dcd9)" d="M 142.846069 238.157693 
L 150.382328 238.157693 
L 150.382328 183.451189 
L 142.846069 183.451189 
z
" style="fill:#348abd;"/>
   </g>
   <g id="patch_11">
    <path clip-path="url(#p07edc3dcd9)" d="M 152.266393 238.157693 
L 159.802652 238.157693 
L 159.802652 180.14566 
L 152.266393 180.14566 
z
" style="fill:#348abd;"/>
   </g>
   <g id="patch_12">
    <path clip-path="url(#p07edc3dcd9)" d="M 161.686717 238.157693 
L 169.222976 238.157693 
L 169.222976 175.683195 
L 161.686717 175.683195 
z
" style="fill:#348abd;"/>
   </g>
   <g id="patch_13">
    <path clip-path="url(#p07edc3dcd9)" d="M 171.107041 238.157693 
L 178.6433 238.157693 
L 178.6433 191.632373 
L 171.107041 191.632373 
z
" style="fill:#348abd;"/>
   </g>
   <g id="patch_14">
    <path clip-path="url(#p07edc3dcd9)" d="M 180.527365 238.157693 
L 188.063624 238.157693 
L 188.063624 192.293479 
L 180.527365 192.293479 
z
" style="fill:#348abd;"/>
   </g>
   <g id="patch_15">
    <path clip-path="url(#p07edc3dcd9)" d="M 189.947689 238.157693 
L 197.483948 238.157693 
L 197.483948 163.122185 
L 189.947689 163.122185 
z
" style="fill:#348abd;"/>
   </g>
   <g id="patch_16">
    <path clip-path="url(#p07edc3dcd9)" d="M 199.368013 238.157693 
L 206.904272 238.157693 
L 206.904272 138.082803 
L 199.368013 138.082803 
z
" style="fill:#348abd;"/>
   </g>
   <g id="patch_17">
    <path clip-path="url(#p07edc3dcd9)" d="M 208.788337 238.157693 
L 216.324596 238.157693 
L 216.324596 140.148759 
L 208.788337 140.148759 
z
" style="fill:#348abd;"/>
   </g>
   <g id="patch_18">
    <path clip-path="url(#p07edc3dcd9)" d="M 218.208661 238.157693 
L 225.74492 238.157693 
L 225.74492 237.000758 
L 218.208661 237.000758 
z
" style="fill:#348abd;"/>
   </g>
   <g id="patch_19">
    <path clip-path="url(#p07edc3dcd9)" d="M 227.628985 238.157693 
L 235.165244 238.157693 
L 235.165244 237.083396 
L 227.628985 237.083396 
z
" style="fill:#348abd;"/>
   </g>
   <g id="patch_20">
    <path clip-path="url(#p07edc3dcd9)" d="M 237.049309 238.157693 
L 244.585568 238.157693 
L 244.585568 205.26768 
L 237.049309 205.26768 
z
" style="fill:#348abd;"/>
   </g>
   <g id="patch_21">
    <path clip-path="url(#p07edc3dcd9)" d="M 246.469633 238.157693 
L 254.005892 238.157693 
L 254.005892 214.605799 
L 246.469633 214.605799 
z
" style="fill:#348abd;"/>
   </g>
   <g id="patch_22">
    <path clip-path="url(#p07edc3dcd9)" d="M 255.889957 238.157693 
L 263.426216 238.157693 
L 263.426216 214.688437 
L 255.889957 214.688437 
z
" style="fill:#348abd;"/>
   </g>
   <g id="patch_23">
    <path clip-path="url(#p07edc3dcd9)" d="M 265.310281 238.157693 
L 272.84654 238.157693 
L 272.84654 198.573984 
L 265.310281 198.573984 
z
" style="fill:#348abd;"/>
   </g>
   <g id="patch_24">
    <path clip-path="url(#p07edc3dcd9)" d="M 274.730605 238.157693 
L 282.266864 238.157693 
L 282.266864 171.551284 
L 274.730605 171.551284 
z
" style="fill:#348abd;"/>
   </g>
   <g id="patch_25">
    <path clip-path="url(#p07edc3dcd9)" d="M 284.150929 238.157693 
L 291.687188 238.157693 
L 291.687188 193.367775 
L 284.150929 193.367775 
z
" style="fill:#348abd;"/>
   </g>
   <g id="patch_26">
    <path clip-path="url(#p07edc3dcd9)" d="M 293.571253 238.157693 
L 301.107512 238.157693 
L 301.107512 206.837806 
L 293.571253 206.837806 
z
" style="fill:#348abd;"/>
   </g>
   <g id="patch_27">
    <path clip-path="url(#p07edc3dcd9)" d="M 302.991577 238.157693 
L 310.527836 238.157693 
L 310.527836 212.044014 
L 302.991577 212.044014 
z
" style="fill:#348abd;"/>
   </g>
   <g id="patch_28">
    <path clip-path="url(#p07edc3dcd9)" d="M 312.411901 238.157693 
L 319.94816 238.157693 
L 319.94816 212.374567 
L 312.411901 212.374567 
z
" style="fill:#348abd;"/>
   </g>
   <g id="patch_29">
    <path clip-path="url(#p07edc3dcd9)" d="M 321.832225 238.157693 
L 329.368484 238.157693 
L 329.368484 217.084946 
L 321.832225 217.084946 
z
" style="fill:#348abd;"/>
   </g>
   <g id="patch_30">
    <path clip-path="url(#p07edc3dcd9)" d="M 331.252549 238.157693 
L 338.788808 238.157693 
L 338.788808 217.002308 
L 331.252549 217.002308 
z
" style="fill:#348abd;"/>
   </g>
   <g id="patch_31">
    <path clip-path="url(#p07edc3dcd9)" d="M 340.672873 238.157693 
L 348.209132 238.157693 
L 348.209132 236.42229 
L 340.672873 236.42229 
z
" style="fill:#348abd;"/>
   </g>
   <g id="patch_32">
    <path clip-path="url(#p07edc3dcd9)" d="M 350.093197 238.157693 
L 357.629456 238.157693 
L 357.629456 236.257014 
L 350.093197 236.257014 
z
" style="fill:#348abd;"/>
   </g>
   <g id="patch_33">
    <path clip-path="url(#p07edc3dcd9)" d="M 359.513521 238.157693 
L 367.04978 238.157693 
L 367.04978 235.595908 
L 359.513521 235.595908 
z
" style="fill:#348abd;"/>
   </g>
   <g id="patch_34">
    <path clip-path="url(#p07edc3dcd9)" d="M 368.933845 238.157693 
L 376.470104 238.157693 
L 376.470104 237.083396 
L 368.933845 237.083396 
z
" style="fill:#348abd;"/>
   </g>
   <g id="patch_35">
    <path clip-path="url(#p07edc3dcd9)" d="M 378.354169 238.157693 
L 385.890428 238.157693 
L 385.890428 237.083396 
L 378.354169 237.083396 
z
" style="fill:#348abd;"/>
   </g>
   <g id="patch_36">
    <path clip-path="url(#p07edc3dcd9)" d="M 387.774493 238.157693 
L 395.310752 238.157693 
L 395.310752 195.681646 
L 387.774493 195.681646 
z
" style="fill:#348abd;"/>
   </g>
   <g id="patch_37">
    <path clip-path="url(#p07edc3dcd9)" d="M 397.194817 238.157693 
L 404.731077 238.157693 
L 404.731077 222.704345 
L 397.194817 222.704345 
z
" style="fill:#348abd;"/>
   </g>
   <g id="patch_38">
    <path clip-path="url(#p07edc3dcd9)" d="M 406.615141 238.157693 
L 414.151401 238.157693 
L 414.151401 226.836256 
L 406.615141 226.836256 
z
" style="fill:#348abd;"/>
   </g>
   <g id="patch_39">
    <path clip-path="url(#p07edc3dcd9)" d="M 416.035465 238.157693 
L 423.571725 238.157693 
L 423.571725 195.103178 
L 416.035465 195.103178 
z
" style="fill:#348abd;"/>
   </g>
   <g id="patch_40">
    <path clip-path="url(#p07edc3dcd9)" d="M 425.455789 238.157693 
L 432.992049 238.157693 
L 432.992049 170.642264 
L 425.455789 170.642264 
z
" style="fill:#348abd;"/>
   </g>
   <g id="patch_41">
    <path clip-path="url(#p07edc3dcd9)" d="M 434.876113 238.157693 
L 442.412373 238.157693 
L 442.412373 189.566417 
L 434.876113 189.566417 
z
" style="fill:#348abd;"/>
   </g>
   <g id="patch_42">
    <path clip-path="url(#p07edc3dcd9)" d="M 444.296437 238.157693 
L 451.832697 238.157693 
L 451.832697 179.236639 
L 444.296437 179.236639 
z
" style="fill:#348abd;"/>
   </g>
   <g id="patch_43">
    <path clip-path="url(#p07edc3dcd9)" d="M 453.716761 238.157693 
L 461.253021 238.157693 
L 461.253021 196.921219 
L 453.716761 196.921219 
z
" style="fill:#348abd;"/>
   </g>
   <g id="patch_44">
    <path clip-path="url(#p07edc3dcd9)" d="M 463.137085 238.157693 
L 470.673345 238.157693 
L 470.673345 211.052355 
L 463.137085 211.052355 
z
" style="fill:#348abd;"/>
   </g>
   <g id="patch_45">
    <path clip-path="url(#p07edc3dcd9)" d="M 472.557409 238.157693 
L 480.093669 238.157693 
L 480.093669 199.730919 
L 472.557409 199.730919 
z
" style="fill:#348abd;"/>
   </g>
   <g id="patch_46">
    <path clip-path="url(#p07edc3dcd9)" d="M 481.977734 238.157693 
L 489.513993 238.157693 
L 489.513993 207.003082 
L 481.977734 207.003082 
z
" style="fill:#348abd;"/>
   </g>
   <g id="patch_47">
    <path clip-path="url(#p07edc3dcd9)" d="M 491.398058 238.157693 
L 498.934317 238.157693 
L 498.934317 226.340427 
L 491.398058 226.340427 
z
" style="fill:#348abd;"/>
   </g>
   <g id="patch_48">
    <path clip-path="url(#p07edc3dcd9)" d="M 500.818382 238.157693 
L 508.354641 238.157693 
L 508.354641 184.856038 
L 500.818382 184.856038 
z
" style="fill:#348abd;"/>
   </g>
   <g id="patch_49">
    <path clip-path="url(#p07edc3dcd9)" d="M 510.238706 238.157693 
L 517.774965 238.157693 
L 517.774965 169.733243 
L 510.238706 169.733243 
z
" style="fill:#348abd;"/>
   </g>
   <g id="patch_50">
    <path clip-path="url(#p07edc3dcd9)" d="M 519.65903 238.157693 
L 527.195289 238.157693 
L 527.195289 237.000758 
L 519.65903 237.000758 
z
" style="fill:#348abd;"/>
   </g>
   <g id="patch_51">
    <path clip-path="url(#p07edc3dcd9)" d="M 529.079354 238.157693 
L 536.615613 238.157693 
L 536.615613 237.083396 
L 529.079354 237.083396 
z
" style="fill:#348abd;"/>
   </g>
   <g id="patch_52">
    <path clip-path="url(#p07edc3dcd9)" d="M 538.499678 238.157693 
L 546.035937 238.157693 
L 546.035937 203.201724 
L 538.499678 203.201724 
z
" style="fill:#348abd;"/>
   </g>
   <g id="patch_53">
    <path clip-path="url(#p07edc3dcd9)" d="M 547.920002 238.157693 
L 555.456261 238.157693 
L 555.456261 230.720253 
L 547.920002 230.720253 
z
" style="fill:#348abd;"/>
   </g>
   <g id="patch_54">
    <path clip-path="url(#p07edc3dcd9)" d="M 557.340326 238.157693 
L 564.876585 238.157693 
L 564.876585 230.720253 
L 557.340326 230.720253 
z
" style="fill:#348abd;"/>
   </g>
   <g id="patch_55">
    <path clip-path="url(#p07edc3dcd9)" d="M 566.76065 238.157693 
L 574.296909 238.157693 
L 574.296909 230.720253 
L 566.76065 230.720253 
z
" style="fill:#348abd;"/>
   </g>
   <g id="patch_56">
    <path clip-path="url(#p07edc3dcd9)" d="M 576.180974 238.157693 
L 583.717233 238.157693 
L 583.717233 230.720253 
L 576.180974 230.720253 
z
" style="fill:#348abd;"/>
   </g>
   <g id="patch_57">
    <path clip-path="url(#p07edc3dcd9)" d="M 585.601298 238.157693 
L 593.137557 238.157693 
L 593.137557 230.720253 
L 585.601298 230.720253 
z
" style="fill:#348abd;"/>
   </g>
   <g id="patch_58">
    <path clip-path="url(#p07edc3dcd9)" d="M 595.021622 238.157693 
L 602.557881 238.157693 
L 602.557881 198.821898 
L 595.021622 198.821898 
z
" style="fill:#348abd;"/>
   </g>
   <g id="patch_59">
    <path clip-path="url(#p07edc3dcd9)" d="M 604.441946 238.157693 
L 611.978205 238.157693 
L 611.978205 223.613365 
L 604.441946 223.613365 
z
" style="fill:#348abd;"/>
   </g>
   <g id="patch_60">
    <path clip-path="url(#p07edc3dcd9)" d="M 613.86227 238.157693 
L 621.398529 238.157693 
L 621.398529 200.061472 
L 613.86227 200.061472 
z
" style="fill:#348abd;"/>
   </g>
   <g id="patch_61">
    <path clip-path="url(#p07edc3dcd9)" d="M 623.282594 238.157693 
L 630.818853 238.157693 
L 630.818853 199.235089 
L 623.282594 199.235089 
z
" style="fill:#348abd;"/>
   </g>
   <g id="patch_62">
    <path clip-path="url(#p07edc3dcd9)" d="M 632.702918 238.157693 
L 640.239177 238.157693 
L 640.239177 183.203274 
L 632.702918 183.203274 
z
" style="fill:#348abd;"/>
   </g>
   <g id="patch_63">
    <path clip-path="url(#p07edc3dcd9)" d="M 642.123242 238.157693 
L 649.659501 238.157693 
L 649.659501 168.824223 
L 642.123242 168.824223 
z
" style="fill:#348abd;"/>
   </g>
   <g id="patch_64">
    <path clip-path="url(#p07edc3dcd9)" d="M 651.543566 238.157693 
L 659.079825 238.157693 
L 659.079825 142.87582 
L 651.543566 142.87582 
z
" style="fill:#348abd;"/>
   </g>
   <g id="patch_65">
    <path clip-path="url(#p07edc3dcd9)" d="M 660.96389 238.157693 
L 668.500149 238.157693 
L 668.500149 140.231397 
L 660.96389 140.231397 
z
" style="fill:#348abd;"/>
   </g>
   <g id="patch_66">
    <path clip-path="url(#p07edc3dcd9)" d="M 670.384214 238.157693 
L 677.920473 238.157693 
L 677.920473 237.000758 
L 670.384214 237.000758 
z
" style="fill:#348abd;"/>
   </g>
   <g id="patch_67">
    <path clip-path="url(#p07edc3dcd9)" d="M 679.804538 238.157693 
L 687.340797 238.157693 
L 687.340797 237.083396 
L 679.804538 237.083396 
z
" style="fill:#348abd;"/>
   </g>
   <g id="patch_68">
    <path clip-path="url(#p07edc3dcd9)" d="M 689.224862 238.157693 
L 696.761121 238.157693 
L 696.761121 192.624031 
L 689.224862 192.624031 
z
" style="fill:#348abd;"/>
   </g>
   <g id="patch_69">
    <path clip-path="url(#p07edc3dcd9)" d="M 698.645186 238.157693 
L 706.181445 238.157693 
L 706.181445 230.637615 
L 698.645186 230.637615 
z
" style="fill:#348abd;"/>
   </g>
   <g id="patch_70">
    <path clip-path="url(#p07edc3dcd9)" d="M 708.06551 238.157693 
L 715.601769 238.157693 
L 715.601769 230.637615 
L 708.06551 230.637615 
z
" style="fill:#348abd;"/>
   </g>
   <g id="patch_71">
    <path clip-path="url(#p07edc3dcd9)" d="M 717.485834 238.157693 
L 725.022093 238.157693 
L 725.022093 230.720253 
L 717.485834 230.720253 
z
" style="fill:#348abd;"/>
   </g>
   <g id="patch_72">
    <path clip-path="url(#p07edc3dcd9)" d="M 726.906158 238.157693 
L 734.442417 238.157693 
L 734.442417 230.637615 
L 726.906158 230.637615 
z
" style="fill:#348abd;"/>
   </g>
   <g id="patch_73">
    <path clip-path="url(#p07edc3dcd9)" d="M 736.326482 238.157693 
L 743.862741 238.157693 
L 743.862741 230.637615 
L 736.326482 230.637615 
z
" style="fill:#348abd;"/>
   </g>
   <g id="patch_74">
    <path clip-path="url(#p07edc3dcd9)" d="M 745.746806 238.157693 
L 753.283065 238.157693 
L 753.283065 190.144885 
L 745.746806 190.144885 
z
" style="fill:#348abd;"/>
   </g>
   <g id="patch_75">
    <path clip-path="url(#p07edc3dcd9)" d="M 755.16713 238.157693 
L 762.703389 238.157693 
L 762.703389 143.950117 
L 755.16713 143.950117 
z
" style="fill:#348abd;"/>
   </g>
   <g id="patch_76">
    <path clip-path="url(#p07edc3dcd9)" d="M 764.587454 238.157693 
L 772.123713 238.157693 
L 772.123713 187.913653 
L 764.587454 187.913653 
z
" style="fill:#348abd;"/>
   </g>
   <g id="patch_77">
    <path clip-path="url(#p07edc3dcd9)" d="M 774.007778 238.157693 
L 781.544037 238.157693 
L 781.544037 191.632373 
L 774.007778 191.632373 
z
" style="fill:#348abd;"/>
   </g>
   <g id="patch_78">
    <path clip-path="url(#p07edc3dcd9)" d="M 783.428102 238.157693 
L 790.964361 238.157693 
L 790.964361 183.533827 
L 783.428102 183.533827 
z
" style="fill:#348abd;"/>
   </g>
   <g id="patch_79">
    <path clip-path="url(#p07edc3dcd9)" d="M 792.848426 238.157693 
L 800.384686 238.157693 
L 800.384686 172.542943 
L 792.848426 172.542943 
z
" style="fill:#348abd;"/>
   </g>
   <g id="patch_80">
    <path clip-path="url(#p07edc3dcd9)" d="M 802.26875 238.157693 
L 809.80501 238.157693 
L 809.80501 141.553609 
L 802.26875 141.553609 
z
" style="fill:#348abd;"/>
   </g>
   <g id="patch_81">
    <path clip-path="url(#p07edc3dcd9)" d="M 811.689074 238.157693 
L 819.225334 238.157693 
L 819.225334 212.457205 
L 811.689074 212.457205 
z
" style="fill:#348abd;"/>
   </g>
   <g id="patch_82">
    <path clip-path="url(#p07edc3dcd9)" d="M 821.109398 238.157693 
L 828.645658 238.157693 
L 828.645658 237.083396 
L 821.109398 237.083396 
z
" style="fill:#348abd;"/>
   </g>
   <g id="patch_83">
    <path clip-path="url(#p07edc3dcd9)" d="M 830.529722 238.157693 
L 838.065982 238.157693 
L 838.065982 237.083396 
L 830.529722 237.083396 
z
" style="fill:#348abd;"/>
   </g>
   <g id="patch_84">
    <path clip-path="url(#p07edc3dcd9)" d="M 839.950046 238.157693 
L 847.486306 238.157693 
L 847.486306 205.350318 
L 839.950046 205.350318 
z
" style="fill:#348abd;"/>
   </g>
   <g id="patch_85">
    <path clip-path="url(#p07edc3dcd9)" d="M 849.37037 238.157693 
L 856.90663 238.157693 
L 856.90663 230.637615 
L 849.37037 230.637615 
z
" style="fill:#348abd;"/>
   </g>
   <g id="patch_86">
    <path clip-path="url(#p07edc3dcd9)" d="M 858.790694 238.157693 
L 866.326954 238.157693 
L 866.326954 203.780192 
L 858.790694 203.780192 
z
" style="fill:#348abd;"/>
   </g>
   <g id="patch_87">
    <path clip-path="url(#p07edc3dcd9)" d="M 868.211018 238.157693 
L 875.747278 238.157693 
L 875.747278 208.407932 
L 868.211018 208.407932 
z
" style="fill:#348abd;"/>
   </g>
   <g id="patch_88">
    <path clip-path="url(#p07edc3dcd9)" d="M 877.631342 238.157693 
L 885.167602 238.157693 
L 885.167602 218.241881 
L 877.631342 218.241881 
z
" style="fill:#348abd;"/>
   </g>
   <g id="patch_89">
    <path clip-path="url(#p07edc3dcd9)" d="M 887.051667 238.157693 
L 894.587926 238.157693 
L 894.587926 218.489796 
L 887.051667 218.489796 
z
" style="fill:#348abd;"/>
   </g>
   <g id="patch_90">
    <path clip-path="url(#p07edc3dcd9)" d="M 896.471991 238.157693 
L 904.00825 238.157693 
L 904.00825 228.323744 
L 896.471991 228.323744 
z
" style="fill:#348abd;"/>
   </g>
   <g id="patch_91">
    <path clip-path="url(#p07edc3dcd9)" d="M 905.892315 238.157693 
L 913.428574 238.157693 
L 913.428574 218.324519 
L 905.892315 218.324519 
z
" style="fill:#348abd;"/>
   </g>
   <g id="patch_92">
    <path clip-path="url(#p07edc3dcd9)" d="M 915.312639 238.157693 
L 922.848898 238.157693 
L 922.848898 228.323744 
L 915.312639 228.323744 
z
" style="fill:#348abd;"/>
   </g>
   <g id="patch_93">
    <path clip-path="url(#p07edc3dcd9)" d="M 924.732963 238.157693 
L 932.269222 238.157693 
L 932.269222 228.406382 
L 924.732963 228.406382 
z
" style="fill:#348abd;"/>
   </g>
   <g id="patch_94">
    <path clip-path="url(#p07edc3dcd9)" d="M 934.153287 238.157693 
L 941.689546 238.157693 
L 941.689546 228.323744 
L 934.153287 228.323744 
z
" style="fill:#348abd;"/>
   </g>
   <g id="patch_95">
    <path clip-path="url(#p07edc3dcd9)" d="M 943.573611 238.157693 
L 951.10987 238.157693 
L 951.10987 227.745277 
L 943.573611 227.745277 
z
" style="fill:#348abd;"/>
   </g>
   <g id="patch_96">
    <path clip-path="url(#p07edc3dcd9)" d="M 952.993935 238.157693 
L 960.530194 238.157693 
L 960.530194 228.07583 
L 952.993935 228.07583 
z
" style="fill:#348abd;"/>
   </g>
   <g id="patch_97">
    <path clip-path="url(#p07edc3dcd9)" d="M 962.414259 238.157693 
L 969.950518 238.157693 
L 969.950518 227.249447 
L 962.414259 227.249447 
z
" style="fill:#348abd;"/>
   </g>
   <g id="patch_98">
    <path clip-path="url(#p07edc3dcd9)" d="M 971.834583 238.157693 
L 979.370842 238.157693 
L 979.370842 236.42229 
L 971.834583 236.42229 
z
" style="fill:#348abd;"/>
   </g>
   <g id="patch_99">
    <path clip-path="url(#p07edc3dcd9)" d="M 981.254907 238.157693 
L 988.791166 238.157693 
L 988.791166 236.752843 
L 981.254907 236.752843 
z
" style="fill:#348abd;"/>
   </g>
   <g id="patch_100">
    <path clip-path="url(#p07edc3dcd9)" d="M 990.675231 238.157693 
L 998.21149 238.157693 
L 998.21149 204.937127 
L 990.675231 204.937127 
z
" style="fill:#348abd;"/>
   </g>
   <g id="patch_101">
    <path clip-path="url(#p07edc3dcd9)" d="M 1000.095555 238.157693 
L 1007.631814 238.157693 
L 1007.631814 230.720253 
L 1000.095555 230.720253 
z
" style="fill:#348abd;"/>
   </g>
   <g id="patch_102">
    <path clip-path="url(#p07edc3dcd9)" d="M 1009.515879 238.157693 
L 1017.052138 238.157693 
L 1017.052138 230.720253 
L 1009.515879 230.720253 
z
" style="fill:#348abd;"/>
   </g>
   <g id="patch_103">
    <path clip-path="url(#p07edc3dcd9)" d="M 1018.936203 238.157693 
L 1026.472462 238.157693 
L 1026.472462 230.720253 
L 1018.936203 230.720253 
z
" style="fill:#348abd;"/>
   </g>
   <g id="patch_104">
    <path clip-path="url(#p07edc3dcd9)" d="M 1028.356527 238.157693 
L 1035.892786 238.157693 
L 1035.892786 230.637615 
L 1028.356527 230.637615 
z
" style="fill:#348abd;"/>
   </g>
   <g id="patch_105">
    <path clip-path="url(#p07edc3dcd9)" d="M 1037.776851 238.157693 
L 1045.31311 238.157693 
L 1045.31311 136.677954 
L 1037.776851 136.677954 
z
" style="fill:#348abd;"/>
   </g>
   <g id="patch_106">
    <path clip-path="url(#p07edc3dcd9)" d="M 1047.197175 238.157693 
L 1054.733434 238.157693 
L 1054.733434 46.023822 
L 1047.197175 46.023822 
z
" style="fill:#348abd;"/>
   </g>
   <g id="patch_107">
    <path clip-path="url(#p07edc3dcd9)" d="M 1056.617499 238.157693 
L 1064.153758 238.157693 
L 1064.153758 120.398224 
L 1056.617499 120.398224 
z
" style="fill:#348abd;"/>
   </g>
   <g id="patch_108">
    <path clip-path="url(#p07edc3dcd9)" d="M 1066.037823 238.157693 
L 1073.574082 238.157693 
L 1073.574082 229.728594 
L 1066.037823 229.728594 
z
" style="fill:#348abd;"/>
   </g>
   <g id="patch_109">
    <path clip-path="url(#p07edc3dcd9)" d="M 1075.458147 238.157693 
L 1082.994406 238.157693 
L 1082.994406 229.645956 
L 1075.458147 229.645956 
z
" style="fill:#348abd;"/>
   </g>
   <g id="patch_110">
    <path clip-path="url(#p07edc3dcd9)" d="M 1084.878471 238.157693 
L 1092.41473 238.157693 
L 1092.41473 229.645956 
L 1084.878471 229.645956 
z
" style="fill:#348abd;"/>
   </g>
   <g id="patch_111">
    <path clip-path="url(#p07edc3dcd9)" d="M 1094.298795 238.157693 
L 1101.835054 238.157693 
L 1101.835054 229.645956 
L 1094.298795 229.645956 
z
" style="fill:#348abd;"/>
   </g>
   <g id="patch_112">
    <path clip-path="url(#p07edc3dcd9)" d="M 1103.719119 238.157693 
L 1111.255378 238.157693 
L 1111.255378 229.645956 
L 1103.719119 229.645956 
z
" style="fill:#348abd;"/>
   </g>
   <g id="patch_113">
    <path clip-path="url(#p07edc3dcd9)" d="M 1113.139443 238.157693 
L 1120.675702 238.157693 
L 1120.675702 229.728594 
L 1113.139443 229.728594 
z
" style="fill:#348abd;"/>
   </g>
   <g id="patch_114">
    <path clip-path="url(#p07edc3dcd9)" d="M 1122.559767 238.157693 
L 1130.096026 238.157693 
L 1130.096026 237.083396 
L 1122.559767 237.083396 
z
" style="fill:#348abd;"/>
   </g>
   <g id="matplotlib.axis_1">
    <g id="xtick_1">
     <g id="line2d_1">
      <path clip-path="url(#p07edc3dcd9)" d="M 80.67193 238.157693 
L 80.67193 36.417128 
" style="fill:none;stroke:#808080;stroke-dasharray:0.5,0.825;stroke-dashoffset:0;stroke-width:0.5;"/>
     </g>
     <g id="line2d_2">
      <defs>
       <path d="M 0 0 
L 0 3.5 
" id="m39eb766cde" style="stroke:#000000;stroke-width:0.8;"/>
      </defs>
      <g>
       <use style="stroke:#000000;stroke-width:0.8;" x="80.67193" xlink:href="#m39eb766cde" y="238.157693"/>
      </g>
     </g>
     <g id="text_1">
      <!-- 12/03/20 00:00 -->
      <defs>
       <path d="M 12.40625 8.296875 
L 28.515625 8.296875 
L 28.515625 63.921875 
L 10.984375 60.40625 
L 10.984375 69.390625 
L 28.421875 72.90625 
L 38.28125 72.90625 
L 38.28125 8.296875 
L 54.390625 8.296875 
L 54.390625 0 
L 12.40625 0 
z
" id="DejaVuSans-49"/>
       <path d="M 19.1875 8.296875 
L 53.609375 8.296875 
L 53.609375 0 
L 7.328125 0 
L 7.328125 8.296875 
Q 12.9375 14.109375 22.625 23.890625 
Q 32.328125 33.6875 34.8125 36.53125 
Q 39.546875 41.84375 41.421875 45.53125 
Q 43.3125 49.21875 43.3125 52.78125 
Q 43.3125 58.59375 39.234375 62.25 
Q 35.15625 65.921875 28.609375 65.921875 
Q 23.96875 65.921875 18.8125 64.3125 
Q 13.671875 62.703125 7.8125 59.421875 
L 7.8125 69.390625 
Q 13.765625 71.78125 18.9375 73 
Q 24.125 74.21875 28.421875 74.21875 
Q 39.75 74.21875 46.484375 68.546875 
Q 53.21875 62.890625 53.21875 53.421875 
Q 53.21875 48.921875 51.53125 44.890625 
Q 49.859375 40.875 45.40625 35.40625 
Q 44.1875 33.984375 37.640625 27.21875 
Q 31.109375 20.453125 19.1875 8.296875 
z
" id="DejaVuSans-50"/>
       <path d="M 25.390625 72.90625 
L 33.6875 72.90625 
L 8.296875 -9.28125 
L 0 -9.28125 
z
" id="DejaVuSans-47"/>
       <path d="M 31.78125 66.40625 
Q 24.171875 66.40625 20.328125 58.90625 
Q 16.5 51.421875 16.5 36.375 
Q 16.5 21.390625 20.328125 13.890625 
Q 24.171875 6.390625 31.78125 6.390625 
Q 39.453125 6.390625 43.28125 13.890625 
Q 47.125 21.390625 47.125 36.375 
Q 47.125 51.421875 43.28125 58.90625 
Q 39.453125 66.40625 31.78125 66.40625 
z
M 31.78125 74.21875 
Q 44.046875 74.21875 50.515625 64.515625 
Q 56.984375 54.828125 56.984375 36.375 
Q 56.984375 17.96875 50.515625 8.265625 
Q 44.046875 -1.421875 31.78125 -1.421875 
Q 19.53125 -1.421875 13.0625 8.265625 
Q 6.59375 17.96875 6.59375 36.375 
Q 6.59375 54.828125 13.0625 64.515625 
Q 19.53125 74.21875 31.78125 74.21875 
z
" id="DejaVuSans-48"/>
       <path d="M 40.578125 39.3125 
Q 47.65625 37.796875 51.625 33 
Q 55.609375 28.21875 55.609375 21.1875 
Q 55.609375 10.40625 48.1875 4.484375 
Q 40.765625 -1.421875 27.09375 -1.421875 
Q 22.515625 -1.421875 17.65625 -0.515625 
Q 12.796875 0.390625 7.625 2.203125 
L 7.625 11.71875 
Q 11.71875 9.328125 16.59375 8.109375 
Q 21.484375 6.890625 26.8125 6.890625 
Q 36.078125 6.890625 40.9375 10.546875 
Q 45.796875 14.203125 45.796875 21.1875 
Q 45.796875 27.640625 41.28125 31.265625 
Q 36.765625 34.90625 28.71875 34.90625 
L 20.21875 34.90625 
L 20.21875 43.015625 
L 29.109375 43.015625 
Q 36.375 43.015625 40.234375 45.921875 
Q 44.09375 48.828125 44.09375 54.296875 
Q 44.09375 59.90625 40.109375 62.90625 
Q 36.140625 65.921875 28.71875 65.921875 
Q 24.65625 65.921875 20.015625 65.03125 
Q 15.375 64.15625 9.8125 62.3125 
L 9.8125 71.09375 
Q 15.4375 72.65625 20.34375 73.4375 
Q 25.25 74.21875 29.59375 74.21875 
Q 40.828125 74.21875 47.359375 69.109375 
Q 53.90625 64.015625 53.90625 55.328125 
Q 53.90625 49.265625 50.4375 45.09375 
Q 46.96875 40.921875 40.578125 39.3125 
z
" id="DejaVuSans-51"/>
       <path id="DejaVuSans-32"/>
       <path d="M 11.71875 12.40625 
L 22.015625 12.40625 
L 22.015625 0 
L 11.71875 0 
z
M 11.71875 51.703125 
L 22.015625 51.703125 
L 22.015625 39.3125 
L 11.71875 39.3125 
z
" id="DejaVuSans-58"/>
      </defs>
      <g transform="translate(13.647488 316.86495)rotate(-45)scale(0.12 -0.12)">
       <use xlink:href="#DejaVuSans-49"/>
       <use x="63.623047" xlink:href="#DejaVuSans-50"/>
       <use x="127.246094" xlink:href="#DejaVuSans-47"/>
       <use x="160.9375" xlink:href="#DejaVuSans-48"/>
       <use x="224.560547" xlink:href="#DejaVuSans-51"/>
       <use x="288.183594" xlink:href="#DejaVuSans-47"/>
       <use x="321.875" xlink:href="#DejaVuSans-50"/>
       <use x="385.498047" xlink:href="#DejaVuSans-48"/>
       <use x="449.121094" xlink:href="#DejaVuSans-32"/>
       <use x="480.908203" xlink:href="#DejaVuSans-48"/>
       <use x="544.53125" xlink:href="#DejaVuSans-48"/>
       <use x="608.154297" xlink:href="#DejaVuSans-58"/>
       <use x="641.845703" xlink:href="#DejaVuSans-48"/>
       <use x="705.46875" xlink:href="#DejaVuSans-48"/>
      </g>
     </g>
    </g>
    <g id="xtick_2">
     <g id="line2d_3">
      <path clip-path="url(#p07edc3dcd9)" d="M 118.353226 238.157693 
L 118.353226 36.417128 
" style="fill:none;stroke:#808080;stroke-dasharray:0.5,0.825;stroke-dashoffset:0;stroke-width:0.5;"/>
     </g>
     <g id="line2d_4">
      <g>
       <use style="stroke:#000000;stroke-width:0.8;" x="118.353226" xlink:href="#m39eb766cde" y="238.157693"/>
      </g>
     </g>
     <g id="text_2">
      <!-- 12/03/20 12:00 -->
      <g transform="translate(51.328784 316.86495)rotate(-45)scale(0.12 -0.12)">
       <use xlink:href="#DejaVuSans-49"/>
       <use x="63.623047" xlink:href="#DejaVuSans-50"/>
       <use x="127.246094" xlink:href="#DejaVuSans-47"/>
       <use x="160.9375" xlink:href="#DejaVuSans-48"/>
       <use x="224.560547" xlink:href="#DejaVuSans-51"/>
       <use x="288.183594" xlink:href="#DejaVuSans-47"/>
       <use x="321.875" xlink:href="#DejaVuSans-50"/>
       <use x="385.498047" xlink:href="#DejaVuSans-48"/>
       <use x="449.121094" xlink:href="#DejaVuSans-32"/>
       <use x="480.908203" xlink:href="#DejaVuSans-49"/>
       <use x="544.53125" xlink:href="#DejaVuSans-50"/>
       <use x="608.154297" xlink:href="#DejaVuSans-58"/>
       <use x="641.845703" xlink:href="#DejaVuSans-48"/>
       <use x="705.46875" xlink:href="#DejaVuSans-48"/>
      </g>
     </g>
    </g>
    <g id="xtick_3">
     <g id="line2d_5">
      <path clip-path="url(#p07edc3dcd9)" d="M 156.034522 238.157693 
L 156.034522 36.417128 
" style="fill:none;stroke:#808080;stroke-dasharray:0.5,0.825;stroke-dashoffset:0;stroke-width:0.5;"/>
     </g>
     <g id="line2d_6">
      <g>
       <use style="stroke:#000000;stroke-width:0.8;" x="156.034522" xlink:href="#m39eb766cde" y="238.157693"/>
      </g>
     </g>
     <g id="text_3">
      <!-- 12/03/20 16:00 -->
      <defs>
       <path d="M 33.015625 40.375 
Q 26.375 40.375 22.484375 35.828125 
Q 18.609375 31.296875 18.609375 23.390625 
Q 18.609375 15.53125 22.484375 10.953125 
Q 26.375 6.390625 33.015625 6.390625 
Q 39.65625 6.390625 43.53125 10.953125 
Q 47.40625 15.53125 47.40625 23.390625 
Q 47.40625 31.296875 43.53125 35.828125 
Q 39.65625 40.375 33.015625 40.375 
z
M 52.59375 71.296875 
L 52.59375 62.3125 
Q 48.875 64.0625 45.09375 64.984375 
Q 41.3125 65.921875 37.59375 65.921875 
Q 27.828125 65.921875 22.671875 59.328125 
Q 17.53125 52.734375 16.796875 39.40625 
Q 19.671875 43.65625 24.015625 45.921875 
Q 28.375 48.1875 33.59375 48.1875 
Q 44.578125 48.1875 50.953125 41.515625 
Q 57.328125 34.859375 57.328125 23.390625 
Q 57.328125 12.15625 50.6875 5.359375 
Q 44.046875 -1.421875 33.015625 -1.421875 
Q 20.359375 -1.421875 13.671875 8.265625 
Q 6.984375 17.96875 6.984375 36.375 
Q 6.984375 53.65625 15.1875 63.9375 
Q 23.390625 74.21875 37.203125 74.21875 
Q 40.921875 74.21875 44.703125 73.484375 
Q 48.484375 72.75 52.59375 71.296875 
z
" id="DejaVuSans-54"/>
      </defs>
      <g transform="translate(89.01008 316.86495)rotate(-45)scale(0.12 -0.12)">
       <use xlink:href="#DejaVuSans-49"/>
       <use x="63.623047" xlink:href="#DejaVuSans-50"/>
       <use x="127.246094" xlink:href="#DejaVuSans-47"/>
       <use x="160.9375" xlink:href="#DejaVuSans-48"/>
       <use x="224.560547" xlink:href="#DejaVuSans-51"/>
       <use x="288.183594" xlink:href="#DejaVuSans-47"/>
       <use x="321.875" xlink:href="#DejaVuSans-50"/>
       <use x="385.498047" xlink:href="#DejaVuSans-48"/>
       <use x="449.121094" xlink:href="#DejaVuSans-32"/>
       <use x="480.908203" xlink:href="#DejaVuSans-49"/>
       <use x="544.53125" xlink:href="#DejaVuSans-54"/>
       <use x="608.154297" xlink:href="#DejaVuSans-58"/>
       <use x="641.845703" xlink:href="#DejaVuSans-48"/>
       <use x="705.46875" xlink:href="#DejaVuSans-48"/>
      </g>
     </g>
    </g>
    <g id="xtick_4">
     <g id="line2d_7">
      <path clip-path="url(#p07edc3dcd9)" d="M 193.715818 238.157693 
L 193.715818 36.417128 
" style="fill:none;stroke:#808080;stroke-dasharray:0.5,0.825;stroke-dashoffset:0;stroke-width:0.5;"/>
     </g>
     <g id="line2d_8">
      <g>
       <use style="stroke:#000000;stroke-width:0.8;" x="193.715818" xlink:href="#m39eb766cde" y="238.157693"/>
      </g>
     </g>
     <g id="text_4">
      <!-- 12/03/20 20:00 -->
      <g transform="translate(126.691376 316.86495)rotate(-45)scale(0.12 -0.12)">
       <use xlink:href="#DejaVuSans-49"/>
       <use x="63.623047" xlink:href="#DejaVuSans-50"/>
       <use x="127.246094" xlink:href="#DejaVuSans-47"/>
       <use x="160.9375" xlink:href="#DejaVuSans-48"/>
       <use x="224.560547" xlink:href="#DejaVuSans-51"/>
       <use x="288.183594" xlink:href="#DejaVuSans-47"/>
       <use x="321.875" xlink:href="#DejaVuSans-50"/>
       <use x="385.498047" xlink:href="#DejaVuSans-48"/>
       <use x="449.121094" xlink:href="#DejaVuSans-32"/>
       <use x="480.908203" xlink:href="#DejaVuSans-50"/>
       <use x="544.53125" xlink:href="#DejaVuSans-48"/>
       <use x="608.154297" xlink:href="#DejaVuSans-58"/>
       <use x="641.845703" xlink:href="#DejaVuSans-48"/>
       <use x="705.46875" xlink:href="#DejaVuSans-48"/>
      </g>
     </g>
    </g>
    <g id="xtick_5">
     <g id="line2d_9">
      <path clip-path="url(#p07edc3dcd9)" d="M 231.397114 238.157693 
L 231.397114 36.417128 
" style="fill:none;stroke:#808080;stroke-dasharray:0.5,0.825;stroke-dashoffset:0;stroke-width:0.5;"/>
     </g>
     <g id="line2d_10">
      <g>
       <use style="stroke:#000000;stroke-width:0.8;" x="231.397114" xlink:href="#m39eb766cde" y="238.157693"/>
      </g>
     </g>
     <g id="text_5">
      <!-- 13/03/20 00:00 -->
      <g transform="translate(164.372672 316.86495)rotate(-45)scale(0.12 -0.12)">
       <use xlink:href="#DejaVuSans-49"/>
       <use x="63.623047" xlink:href="#DejaVuSans-51"/>
       <use x="127.246094" xlink:href="#DejaVuSans-47"/>
       <use x="160.9375" xlink:href="#DejaVuSans-48"/>
       <use x="224.560547" xlink:href="#DejaVuSans-51"/>
       <use x="288.183594" xlink:href="#DejaVuSans-47"/>
       <use x="321.875" xlink:href="#DejaVuSans-50"/>
       <use x="385.498047" xlink:href="#DejaVuSans-48"/>
       <use x="449.121094" xlink:href="#DejaVuSans-32"/>
       <use x="480.908203" xlink:href="#DejaVuSans-48"/>
       <use x="544.53125" xlink:href="#DejaVuSans-48"/>
       <use x="608.154297" xlink:href="#DejaVuSans-58"/>
       <use x="641.845703" xlink:href="#DejaVuSans-48"/>
       <use x="705.46875" xlink:href="#DejaVuSans-48"/>
      </g>
     </g>
    </g>
    <g id="xtick_6">
     <g id="line2d_11">
      <path clip-path="url(#p07edc3dcd9)" d="M 269.078411 238.157693 
L 269.078411 36.417128 
" style="fill:none;stroke:#808080;stroke-dasharray:0.5,0.825;stroke-dashoffset:0;stroke-width:0.5;"/>
     </g>
     <g id="line2d_12">
      <g>
       <use style="stroke:#000000;stroke-width:0.8;" x="269.078411" xlink:href="#m39eb766cde" y="238.157693"/>
      </g>
     </g>
     <g id="text_6">
      <!-- 13/03/20 12:00 -->
      <g transform="translate(202.053968 316.86495)rotate(-45)scale(0.12 -0.12)">
       <use xlink:href="#DejaVuSans-49"/>
       <use x="63.623047" xlink:href="#DejaVuSans-51"/>
       <use x="127.246094" xlink:href="#DejaVuSans-47"/>
       <use x="160.9375" xlink:href="#DejaVuSans-48"/>
       <use x="224.560547" xlink:href="#DejaVuSans-51"/>
       <use x="288.183594" xlink:href="#DejaVuSans-47"/>
       <use x="321.875" xlink:href="#DejaVuSans-50"/>
       <use x="385.498047" xlink:href="#DejaVuSans-48"/>
       <use x="449.121094" xlink:href="#DejaVuSans-32"/>
       <use x="480.908203" xlink:href="#DejaVuSans-49"/>
       <use x="544.53125" xlink:href="#DejaVuSans-50"/>
       <use x="608.154297" xlink:href="#DejaVuSans-58"/>
       <use x="641.845703" xlink:href="#DejaVuSans-48"/>
       <use x="705.46875" xlink:href="#DejaVuSans-48"/>
      </g>
     </g>
    </g>
    <g id="xtick_7">
     <g id="line2d_13">
      <path clip-path="url(#p07edc3dcd9)" d="M 306.759707 238.157693 
L 306.759707 36.417128 
" style="fill:none;stroke:#808080;stroke-dasharray:0.5,0.825;stroke-dashoffset:0;stroke-width:0.5;"/>
     </g>
     <g id="line2d_14">
      <g>
       <use style="stroke:#000000;stroke-width:0.8;" x="306.759707" xlink:href="#m39eb766cde" y="238.157693"/>
      </g>
     </g>
     <g id="text_7">
      <!-- 13/03/20 16:00 -->
      <g transform="translate(239.735265 316.86495)rotate(-45)scale(0.12 -0.12)">
       <use xlink:href="#DejaVuSans-49"/>
       <use x="63.623047" xlink:href="#DejaVuSans-51"/>
       <use x="127.246094" xlink:href="#DejaVuSans-47"/>
       <use x="160.9375" xlink:href="#DejaVuSans-48"/>
       <use x="224.560547" xlink:href="#DejaVuSans-51"/>
       <use x="288.183594" xlink:href="#DejaVuSans-47"/>
       <use x="321.875" xlink:href="#DejaVuSans-50"/>
       <use x="385.498047" xlink:href="#DejaVuSans-48"/>
       <use x="449.121094" xlink:href="#DejaVuSans-32"/>
       <use x="480.908203" xlink:href="#DejaVuSans-49"/>
       <use x="544.53125" xlink:href="#DejaVuSans-54"/>
       <use x="608.154297" xlink:href="#DejaVuSans-58"/>
       <use x="641.845703" xlink:href="#DejaVuSans-48"/>
       <use x="705.46875" xlink:href="#DejaVuSans-48"/>
      </g>
     </g>
    </g>
    <g id="xtick_8">
     <g id="line2d_15">
      <path clip-path="url(#p07edc3dcd9)" d="M 344.441003 238.157693 
L 344.441003 36.417128 
" style="fill:none;stroke:#808080;stroke-dasharray:0.5,0.825;stroke-dashoffset:0;stroke-width:0.5;"/>
     </g>
     <g id="line2d_16">
      <g>
       <use style="stroke:#000000;stroke-width:0.8;" x="344.441003" xlink:href="#m39eb766cde" y="238.157693"/>
      </g>
     </g>
     <g id="text_8">
      <!-- 13/03/20 20:00 -->
      <g transform="translate(277.416561 316.86495)rotate(-45)scale(0.12 -0.12)">
       <use xlink:href="#DejaVuSans-49"/>
       <use x="63.623047" xlink:href="#DejaVuSans-51"/>
       <use x="127.246094" xlink:href="#DejaVuSans-47"/>
       <use x="160.9375" xlink:href="#DejaVuSans-48"/>
       <use x="224.560547" xlink:href="#DejaVuSans-51"/>
       <use x="288.183594" xlink:href="#DejaVuSans-47"/>
       <use x="321.875" xlink:href="#DejaVuSans-50"/>
       <use x="385.498047" xlink:href="#DejaVuSans-48"/>
       <use x="449.121094" xlink:href="#DejaVuSans-32"/>
       <use x="480.908203" xlink:href="#DejaVuSans-50"/>
       <use x="544.53125" xlink:href="#DejaVuSans-48"/>
       <use x="608.154297" xlink:href="#DejaVuSans-58"/>
       <use x="641.845703" xlink:href="#DejaVuSans-48"/>
       <use x="705.46875" xlink:href="#DejaVuSans-48"/>
      </g>
     </g>
    </g>
    <g id="xtick_9">
     <g id="line2d_17">
      <path clip-path="url(#p07edc3dcd9)" d="M 382.122299 238.157693 
L 382.122299 36.417128 
" style="fill:none;stroke:#808080;stroke-dasharray:0.5,0.825;stroke-dashoffset:0;stroke-width:0.5;"/>
     </g>
     <g id="line2d_18">
      <g>
       <use style="stroke:#000000;stroke-width:0.8;" x="382.122299" xlink:href="#m39eb766cde" y="238.157693"/>
      </g>
     </g>
     <g id="text_9">
      <!-- 14/03/20 00:00 -->
      <defs>
       <path d="M 37.796875 64.3125 
L 12.890625 25.390625 
L 37.796875 25.390625 
z
M 35.203125 72.90625 
L 47.609375 72.90625 
L 47.609375 25.390625 
L 58.015625 25.390625 
L 58.015625 17.1875 
L 47.609375 17.1875 
L 47.609375 0 
L 37.796875 0 
L 37.796875 17.1875 
L 4.890625 17.1875 
L 4.890625 26.703125 
z
" id="DejaVuSans-52"/>
      </defs>
      <g transform="translate(315.097857 316.86495)rotate(-45)scale(0.12 -0.12)">
       <use xlink:href="#DejaVuSans-49"/>
       <use x="63.623047" xlink:href="#DejaVuSans-52"/>
       <use x="127.246094" xlink:href="#DejaVuSans-47"/>
       <use x="160.9375" xlink:href="#DejaVuSans-48"/>
       <use x="224.560547" xlink:href="#DejaVuSans-51"/>
       <use x="288.183594" xlink:href="#DejaVuSans-47"/>
       <use x="321.875" xlink:href="#DejaVuSans-50"/>
       <use x="385.498047" xlink:href="#DejaVuSans-48"/>
       <use x="449.121094" xlink:href="#DejaVuSans-32"/>
       <use x="480.908203" xlink:href="#DejaVuSans-48"/>
       <use x="544.53125" xlink:href="#DejaVuSans-48"/>
       <use x="608.154297" xlink:href="#DejaVuSans-58"/>
       <use x="641.845703" xlink:href="#DejaVuSans-48"/>
       <use x="705.46875" xlink:href="#DejaVuSans-48"/>
      </g>
     </g>
    </g>
    <g id="xtick_10">
     <g id="line2d_19">
      <path clip-path="url(#p07edc3dcd9)" d="M 419.803595 238.157693 
L 419.803595 36.417128 
" style="fill:none;stroke:#808080;stroke-dasharray:0.5,0.825;stroke-dashoffset:0;stroke-width:0.5;"/>
     </g>
     <g id="line2d_20">
      <g>
       <use style="stroke:#000000;stroke-width:0.8;" x="419.803595" xlink:href="#m39eb766cde" y="238.157693"/>
      </g>
     </g>
     <g id="text_10">
      <!-- 14/03/20 12:00 -->
      <g transform="translate(352.779153 316.86495)rotate(-45)scale(0.12 -0.12)">
       <use xlink:href="#DejaVuSans-49"/>
       <use x="63.623047" xlink:href="#DejaVuSans-52"/>
       <use x="127.246094" xlink:href="#DejaVuSans-47"/>
       <use x="160.9375" xlink:href="#DejaVuSans-48"/>
       <use x="224.560547" xlink:href="#DejaVuSans-51"/>
       <use x="288.183594" xlink:href="#DejaVuSans-47"/>
       <use x="321.875" xlink:href="#DejaVuSans-50"/>
       <use x="385.498047" xlink:href="#DejaVuSans-48"/>
       <use x="449.121094" xlink:href="#DejaVuSans-32"/>
       <use x="480.908203" xlink:href="#DejaVuSans-49"/>
       <use x="544.53125" xlink:href="#DejaVuSans-50"/>
       <use x="608.154297" xlink:href="#DejaVuSans-58"/>
       <use x="641.845703" xlink:href="#DejaVuSans-48"/>
       <use x="705.46875" xlink:href="#DejaVuSans-48"/>
      </g>
     </g>
    </g>
    <g id="xtick_11">
     <g id="line2d_21">
      <path clip-path="url(#p07edc3dcd9)" d="M 457.484891 238.157693 
L 457.484891 36.417128 
" style="fill:none;stroke:#808080;stroke-dasharray:0.5,0.825;stroke-dashoffset:0;stroke-width:0.5;"/>
     </g>
     <g id="line2d_22">
      <g>
       <use style="stroke:#000000;stroke-width:0.8;" x="457.484891" xlink:href="#m39eb766cde" y="238.157693"/>
      </g>
     </g>
     <g id="text_11">
      <!-- 14/03/20 16:00 -->
      <g transform="translate(390.460449 316.86495)rotate(-45)scale(0.12 -0.12)">
       <use xlink:href="#DejaVuSans-49"/>
       <use x="63.623047" xlink:href="#DejaVuSans-52"/>
       <use x="127.246094" xlink:href="#DejaVuSans-47"/>
       <use x="160.9375" xlink:href="#DejaVuSans-48"/>
       <use x="224.560547" xlink:href="#DejaVuSans-51"/>
       <use x="288.183594" xlink:href="#DejaVuSans-47"/>
       <use x="321.875" xlink:href="#DejaVuSans-50"/>
       <use x="385.498047" xlink:href="#DejaVuSans-48"/>
       <use x="449.121094" xlink:href="#DejaVuSans-32"/>
       <use x="480.908203" xlink:href="#DejaVuSans-49"/>
       <use x="544.53125" xlink:href="#DejaVuSans-54"/>
       <use x="608.154297" xlink:href="#DejaVuSans-58"/>
       <use x="641.845703" xlink:href="#DejaVuSans-48"/>
       <use x="705.46875" xlink:href="#DejaVuSans-48"/>
      </g>
     </g>
    </g>
    <g id="xtick_12">
     <g id="line2d_23">
      <path clip-path="url(#p07edc3dcd9)" d="M 495.166187 238.157693 
L 495.166187 36.417128 
" style="fill:none;stroke:#808080;stroke-dasharray:0.5,0.825;stroke-dashoffset:0;stroke-width:0.5;"/>
     </g>
     <g id="line2d_24">
      <g>
       <use style="stroke:#000000;stroke-width:0.8;" x="495.166187" xlink:href="#m39eb766cde" y="238.157693"/>
      </g>
     </g>
     <g id="text_12">
      <!-- 14/03/20 20:00 -->
      <g transform="translate(428.141745 316.86495)rotate(-45)scale(0.12 -0.12)">
       <use xlink:href="#DejaVuSans-49"/>
       <use x="63.623047" xlink:href="#DejaVuSans-52"/>
       <use x="127.246094" xlink:href="#DejaVuSans-47"/>
       <use x="160.9375" xlink:href="#DejaVuSans-48"/>
       <use x="224.560547" xlink:href="#DejaVuSans-51"/>
       <use x="288.183594" xlink:href="#DejaVuSans-47"/>
       <use x="321.875" xlink:href="#DejaVuSans-50"/>
       <use x="385.498047" xlink:href="#DejaVuSans-48"/>
       <use x="449.121094" xlink:href="#DejaVuSans-32"/>
       <use x="480.908203" xlink:href="#DejaVuSans-50"/>
       <use x="544.53125" xlink:href="#DejaVuSans-48"/>
       <use x="608.154297" xlink:href="#DejaVuSans-58"/>
       <use x="641.845703" xlink:href="#DejaVuSans-48"/>
       <use x="705.46875" xlink:href="#DejaVuSans-48"/>
      </g>
     </g>
    </g>
    <g id="xtick_13">
     <g id="line2d_25">
      <path clip-path="url(#p07edc3dcd9)" d="M 532.847483 238.157693 
L 532.847483 36.417128 
" style="fill:none;stroke:#808080;stroke-dasharray:0.5,0.825;stroke-dashoffset:0;stroke-width:0.5;"/>
     </g>
     <g id="line2d_26">
      <g>
       <use style="stroke:#000000;stroke-width:0.8;" x="532.847483" xlink:href="#m39eb766cde" y="238.157693"/>
      </g>
     </g>
     <g id="text_13">
      <!-- 15/03/20 00:00 -->
      <defs>
       <path d="M 10.796875 72.90625 
L 49.515625 72.90625 
L 49.515625 64.59375 
L 19.828125 64.59375 
L 19.828125 46.734375 
Q 21.96875 47.46875 24.109375 47.828125 
Q 26.265625 48.1875 28.421875 48.1875 
Q 40.625 48.1875 47.75 41.5 
Q 54.890625 34.8125 54.890625 23.390625 
Q 54.890625 11.625 47.5625 5.09375 
Q 40.234375 -1.421875 26.90625 -1.421875 
Q 22.3125 -1.421875 17.546875 -0.640625 
Q 12.796875 0.140625 7.71875 1.703125 
L 7.71875 11.625 
Q 12.109375 9.234375 16.796875 8.0625 
Q 21.484375 6.890625 26.703125 6.890625 
Q 35.15625 6.890625 40.078125 11.328125 
Q 45.015625 15.765625 45.015625 23.390625 
Q 45.015625 31 40.078125 35.4375 
Q 35.15625 39.890625 26.703125 39.890625 
Q 22.75 39.890625 18.8125 39.015625 
Q 14.890625 38.140625 10.796875 36.28125 
z
" id="DejaVuSans-53"/>
      </defs>
      <g transform="translate(465.823041 316.86495)rotate(-45)scale(0.12 -0.12)">
       <use xlink:href="#DejaVuSans-49"/>
       <use x="63.623047" xlink:href="#DejaVuSans-53"/>
       <use x="127.246094" xlink:href="#DejaVuSans-47"/>
       <use x="160.9375" xlink:href="#DejaVuSans-48"/>
       <use x="224.560547" xlink:href="#DejaVuSans-51"/>
       <use x="288.183594" xlink:href="#DejaVuSans-47"/>
       <use x="321.875" xlink:href="#DejaVuSans-50"/>
       <use x="385.498047" xlink:href="#DejaVuSans-48"/>
       <use x="449.121094" xlink:href="#DejaVuSans-32"/>
       <use x="480.908203" xlink:href="#DejaVuSans-48"/>
       <use x="544.53125" xlink:href="#DejaVuSans-48"/>
       <use x="608.154297" xlink:href="#DejaVuSans-58"/>
       <use x="641.845703" xlink:href="#DejaVuSans-48"/>
       <use x="705.46875" xlink:href="#DejaVuSans-48"/>
      </g>
     </g>
    </g>
    <g id="xtick_14">
     <g id="line2d_27">
      <path clip-path="url(#p07edc3dcd9)" d="M 570.528779 238.157693 
L 570.528779 36.417128 
" style="fill:none;stroke:#808080;stroke-dasharray:0.5,0.825;stroke-dashoffset:0;stroke-width:0.5;"/>
     </g>
     <g id="line2d_28">
      <g>
       <use style="stroke:#000000;stroke-width:0.8;" x="570.528779" xlink:href="#m39eb766cde" y="238.157693"/>
      </g>
     </g>
     <g id="text_14">
      <!-- 15/03/20 12:00 -->
      <g transform="translate(503.504337 316.86495)rotate(-45)scale(0.12 -0.12)">
       <use xlink:href="#DejaVuSans-49"/>
       <use x="63.623047" xlink:href="#DejaVuSans-53"/>
       <use x="127.246094" xlink:href="#DejaVuSans-47"/>
       <use x="160.9375" xlink:href="#DejaVuSans-48"/>
       <use x="224.560547" xlink:href="#DejaVuSans-51"/>
       <use x="288.183594" xlink:href="#DejaVuSans-47"/>
       <use x="321.875" xlink:href="#DejaVuSans-50"/>
       <use x="385.498047" xlink:href="#DejaVuSans-48"/>
       <use x="449.121094" xlink:href="#DejaVuSans-32"/>
       <use x="480.908203" xlink:href="#DejaVuSans-49"/>
       <use x="544.53125" xlink:href="#DejaVuSans-50"/>
       <use x="608.154297" xlink:href="#DejaVuSans-58"/>
       <use x="641.845703" xlink:href="#DejaVuSans-48"/>
       <use x="705.46875" xlink:href="#DejaVuSans-48"/>
      </g>
     </g>
    </g>
    <g id="xtick_15">
     <g id="line2d_29">
      <path clip-path="url(#p07edc3dcd9)" d="M 608.210075 238.157693 
L 608.210075 36.417128 
" style="fill:none;stroke:#808080;stroke-dasharray:0.5,0.825;stroke-dashoffset:0;stroke-width:0.5;"/>
     </g>
     <g id="line2d_30">
      <g>
       <use style="stroke:#000000;stroke-width:0.8;" x="608.210075" xlink:href="#m39eb766cde" y="238.157693"/>
      </g>
     </g>
     <g id="text_15">
      <!-- 15/03/20 16:00 -->
      <g transform="translate(541.185633 316.86495)rotate(-45)scale(0.12 -0.12)">
       <use xlink:href="#DejaVuSans-49"/>
       <use x="63.623047" xlink:href="#DejaVuSans-53"/>
       <use x="127.246094" xlink:href="#DejaVuSans-47"/>
       <use x="160.9375" xlink:href="#DejaVuSans-48"/>
       <use x="224.560547" xlink:href="#DejaVuSans-51"/>
       <use x="288.183594" xlink:href="#DejaVuSans-47"/>
       <use x="321.875" xlink:href="#DejaVuSans-50"/>
       <use x="385.498047" xlink:href="#DejaVuSans-48"/>
       <use x="449.121094" xlink:href="#DejaVuSans-32"/>
       <use x="480.908203" xlink:href="#DejaVuSans-49"/>
       <use x="544.53125" xlink:href="#DejaVuSans-54"/>
       <use x="608.154297" xlink:href="#DejaVuSans-58"/>
       <use x="641.845703" xlink:href="#DejaVuSans-48"/>
       <use x="705.46875" xlink:href="#DejaVuSans-48"/>
      </g>
     </g>
    </g>
    <g id="xtick_16">
     <g id="line2d_31">
      <path clip-path="url(#p07edc3dcd9)" d="M 645.891372 238.157693 
L 645.891372 36.417128 
" style="fill:none;stroke:#808080;stroke-dasharray:0.5,0.825;stroke-dashoffset:0;stroke-width:0.5;"/>
     </g>
     <g id="line2d_32">
      <g>
       <use style="stroke:#000000;stroke-width:0.8;" x="645.891372" xlink:href="#m39eb766cde" y="238.157693"/>
      </g>
     </g>
     <g id="text_16">
      <!-- 15/03/20 20:00 -->
      <g transform="translate(578.866929 316.86495)rotate(-45)scale(0.12 -0.12)">
       <use xlink:href="#DejaVuSans-49"/>
       <use x="63.623047" xlink:href="#DejaVuSans-53"/>
       <use x="127.246094" xlink:href="#DejaVuSans-47"/>
       <use x="160.9375" xlink:href="#DejaVuSans-48"/>
       <use x="224.560547" xlink:href="#DejaVuSans-51"/>
       <use x="288.183594" xlink:href="#DejaVuSans-47"/>
       <use x="321.875" xlink:href="#DejaVuSans-50"/>
       <use x="385.498047" xlink:href="#DejaVuSans-48"/>
       <use x="449.121094" xlink:href="#DejaVuSans-32"/>
       <use x="480.908203" xlink:href="#DejaVuSans-50"/>
       <use x="544.53125" xlink:href="#DejaVuSans-48"/>
       <use x="608.154297" xlink:href="#DejaVuSans-58"/>
       <use x="641.845703" xlink:href="#DejaVuSans-48"/>
       <use x="705.46875" xlink:href="#DejaVuSans-48"/>
      </g>
     </g>
    </g>
    <g id="xtick_17">
     <g id="line2d_33">
      <path clip-path="url(#p07edc3dcd9)" d="M 683.572668 238.157693 
L 683.572668 36.417128 
" style="fill:none;stroke:#808080;stroke-dasharray:0.5,0.825;stroke-dashoffset:0;stroke-width:0.5;"/>
     </g>
     <g id="line2d_34">
      <g>
       <use style="stroke:#000000;stroke-width:0.8;" x="683.572668" xlink:href="#m39eb766cde" y="238.157693"/>
      </g>
     </g>
     <g id="text_17">
      <!-- 16/03/20 00:00 -->
      <g transform="translate(616.548226 316.86495)rotate(-45)scale(0.12 -0.12)">
       <use xlink:href="#DejaVuSans-49"/>
       <use x="63.623047" xlink:href="#DejaVuSans-54"/>
       <use x="127.246094" xlink:href="#DejaVuSans-47"/>
       <use x="160.9375" xlink:href="#DejaVuSans-48"/>
       <use x="224.560547" xlink:href="#DejaVuSans-51"/>
       <use x="288.183594" xlink:href="#DejaVuSans-47"/>
       <use x="321.875" xlink:href="#DejaVuSans-50"/>
       <use x="385.498047" xlink:href="#DejaVuSans-48"/>
       <use x="449.121094" xlink:href="#DejaVuSans-32"/>
       <use x="480.908203" xlink:href="#DejaVuSans-48"/>
       <use x="544.53125" xlink:href="#DejaVuSans-48"/>
       <use x="608.154297" xlink:href="#DejaVuSans-58"/>
       <use x="641.845703" xlink:href="#DejaVuSans-48"/>
       <use x="705.46875" xlink:href="#DejaVuSans-48"/>
      </g>
     </g>
    </g>
    <g id="xtick_18">
     <g id="line2d_35">
      <path clip-path="url(#p07edc3dcd9)" d="M 721.253964 238.157693 
L 721.253964 36.417128 
" style="fill:none;stroke:#808080;stroke-dasharray:0.5,0.825;stroke-dashoffset:0;stroke-width:0.5;"/>
     </g>
     <g id="line2d_36">
      <g>
       <use style="stroke:#000000;stroke-width:0.8;" x="721.253964" xlink:href="#m39eb766cde" y="238.157693"/>
      </g>
     </g>
     <g id="text_18">
      <!-- 16/03/20 12:00 -->
      <g transform="translate(654.229522 316.86495)rotate(-45)scale(0.12 -0.12)">
       <use xlink:href="#DejaVuSans-49"/>
       <use x="63.623047" xlink:href="#DejaVuSans-54"/>
       <use x="127.246094" xlink:href="#DejaVuSans-47"/>
       <use x="160.9375" xlink:href="#DejaVuSans-48"/>
       <use x="224.560547" xlink:href="#DejaVuSans-51"/>
       <use x="288.183594" xlink:href="#DejaVuSans-47"/>
       <use x="321.875" xlink:href="#DejaVuSans-50"/>
       <use x="385.498047" xlink:href="#DejaVuSans-48"/>
       <use x="449.121094" xlink:href="#DejaVuSans-32"/>
       <use x="480.908203" xlink:href="#DejaVuSans-49"/>
       <use x="544.53125" xlink:href="#DejaVuSans-50"/>
       <use x="608.154297" xlink:href="#DejaVuSans-58"/>
       <use x="641.845703" xlink:href="#DejaVuSans-48"/>
       <use x="705.46875" xlink:href="#DejaVuSans-48"/>
      </g>
     </g>
    </g>
    <g id="xtick_19">
     <g id="line2d_37">
      <path clip-path="url(#p07edc3dcd9)" d="M 758.93526 238.157693 
L 758.93526 36.417128 
" style="fill:none;stroke:#808080;stroke-dasharray:0.5,0.825;stroke-dashoffset:0;stroke-width:0.5;"/>
     </g>
     <g id="line2d_38">
      <g>
       <use style="stroke:#000000;stroke-width:0.8;" x="758.93526" xlink:href="#m39eb766cde" y="238.157693"/>
      </g>
     </g>
     <g id="text_19">
      <!-- 16/03/20 16:00 -->
      <g transform="translate(691.910818 316.86495)rotate(-45)scale(0.12 -0.12)">
       <use xlink:href="#DejaVuSans-49"/>
       <use x="63.623047" xlink:href="#DejaVuSans-54"/>
       <use x="127.246094" xlink:href="#DejaVuSans-47"/>
       <use x="160.9375" xlink:href="#DejaVuSans-48"/>
       <use x="224.560547" xlink:href="#DejaVuSans-51"/>
       <use x="288.183594" xlink:href="#DejaVuSans-47"/>
       <use x="321.875" xlink:href="#DejaVuSans-50"/>
       <use x="385.498047" xlink:href="#DejaVuSans-48"/>
       <use x="449.121094" xlink:href="#DejaVuSans-32"/>
       <use x="480.908203" xlink:href="#DejaVuSans-49"/>
       <use x="544.53125" xlink:href="#DejaVuSans-54"/>
       <use x="608.154297" xlink:href="#DejaVuSans-58"/>
       <use x="641.845703" xlink:href="#DejaVuSans-48"/>
       <use x="705.46875" xlink:href="#DejaVuSans-48"/>
      </g>
     </g>
    </g>
    <g id="xtick_20">
     <g id="line2d_39">
      <path clip-path="url(#p07edc3dcd9)" d="M 796.616556 238.157693 
L 796.616556 36.417128 
" style="fill:none;stroke:#808080;stroke-dasharray:0.5,0.825;stroke-dashoffset:0;stroke-width:0.5;"/>
     </g>
     <g id="line2d_40">
      <g>
       <use style="stroke:#000000;stroke-width:0.8;" x="796.616556" xlink:href="#m39eb766cde" y="238.157693"/>
      </g>
     </g>
     <g id="text_20">
      <!-- 16/03/20 20:00 -->
      <g transform="translate(729.592114 316.86495)rotate(-45)scale(0.12 -0.12)">
       <use xlink:href="#DejaVuSans-49"/>
       <use x="63.623047" xlink:href="#DejaVuSans-54"/>
       <use x="127.246094" xlink:href="#DejaVuSans-47"/>
       <use x="160.9375" xlink:href="#DejaVuSans-48"/>
       <use x="224.560547" xlink:href="#DejaVuSans-51"/>
       <use x="288.183594" xlink:href="#DejaVuSans-47"/>
       <use x="321.875" xlink:href="#DejaVuSans-50"/>
       <use x="385.498047" xlink:href="#DejaVuSans-48"/>
       <use x="449.121094" xlink:href="#DejaVuSans-32"/>
       <use x="480.908203" xlink:href="#DejaVuSans-50"/>
       <use x="544.53125" xlink:href="#DejaVuSans-48"/>
       <use x="608.154297" xlink:href="#DejaVuSans-58"/>
       <use x="641.845703" xlink:href="#DejaVuSans-48"/>
       <use x="705.46875" xlink:href="#DejaVuSans-48"/>
      </g>
     </g>
    </g>
    <g id="xtick_21">
     <g id="line2d_41">
      <path clip-path="url(#p07edc3dcd9)" d="M 834.297852 238.157693 
L 834.297852 36.417128 
" style="fill:none;stroke:#808080;stroke-dasharray:0.5,0.825;stroke-dashoffset:0;stroke-width:0.5;"/>
     </g>
     <g id="line2d_42">
      <g>
       <use style="stroke:#000000;stroke-width:0.8;" x="834.297852" xlink:href="#m39eb766cde" y="238.157693"/>
      </g>
     </g>
     <g id="text_21">
      <!-- 17/03/20 00:00 -->
      <defs>
       <path d="M 8.203125 72.90625 
L 55.078125 72.90625 
L 55.078125 68.703125 
L 28.609375 0 
L 18.3125 0 
L 43.21875 64.59375 
L 8.203125 64.59375 
z
" id="DejaVuSans-55"/>
      </defs>
      <g transform="translate(767.27341 316.86495)rotate(-45)scale(0.12 -0.12)">
       <use xlink:href="#DejaVuSans-49"/>
       <use x="63.623047" xlink:href="#DejaVuSans-55"/>
       <use x="127.246094" xlink:href="#DejaVuSans-47"/>
       <use x="160.9375" xlink:href="#DejaVuSans-48"/>
       <use x="224.560547" xlink:href="#DejaVuSans-51"/>
       <use x="288.183594" xlink:href="#DejaVuSans-47"/>
       <use x="321.875" xlink:href="#DejaVuSans-50"/>
       <use x="385.498047" xlink:href="#DejaVuSans-48"/>
       <use x="449.121094" xlink:href="#DejaVuSans-32"/>
       <use x="480.908203" xlink:href="#DejaVuSans-48"/>
       <use x="544.53125" xlink:href="#DejaVuSans-48"/>
       <use x="608.154297" xlink:href="#DejaVuSans-58"/>
       <use x="641.845703" xlink:href="#DejaVuSans-48"/>
       <use x="705.46875" xlink:href="#DejaVuSans-48"/>
      </g>
     </g>
    </g>
    <g id="xtick_22">
     <g id="line2d_43">
      <path clip-path="url(#p07edc3dcd9)" d="M 871.979148 238.157693 
L 871.979148 36.417128 
" style="fill:none;stroke:#808080;stroke-dasharray:0.5,0.825;stroke-dashoffset:0;stroke-width:0.5;"/>
     </g>
     <g id="line2d_44">
      <g>
       <use style="stroke:#000000;stroke-width:0.8;" x="871.979148" xlink:href="#m39eb766cde" y="238.157693"/>
      </g>
     </g>
     <g id="text_22">
      <!-- 17/03/20 12:00 -->
      <g transform="translate(804.954706 316.86495)rotate(-45)scale(0.12 -0.12)">
       <use xlink:href="#DejaVuSans-49"/>
       <use x="63.623047" xlink:href="#DejaVuSans-55"/>
       <use x="127.246094" xlink:href="#DejaVuSans-47"/>
       <use x="160.9375" xlink:href="#DejaVuSans-48"/>
       <use x="224.560547" xlink:href="#DejaVuSans-51"/>
       <use x="288.183594" xlink:href="#DejaVuSans-47"/>
       <use x="321.875" xlink:href="#DejaVuSans-50"/>
       <use x="385.498047" xlink:href="#DejaVuSans-48"/>
       <use x="449.121094" xlink:href="#DejaVuSans-32"/>
       <use x="480.908203" xlink:href="#DejaVuSans-49"/>
       <use x="544.53125" xlink:href="#DejaVuSans-50"/>
       <use x="608.154297" xlink:href="#DejaVuSans-58"/>
       <use x="641.845703" xlink:href="#DejaVuSans-48"/>
       <use x="705.46875" xlink:href="#DejaVuSans-48"/>
      </g>
     </g>
    </g>
    <g id="xtick_23">
     <g id="line2d_45">
      <path clip-path="url(#p07edc3dcd9)" d="M 909.660444 238.157693 
L 909.660444 36.417128 
" style="fill:none;stroke:#808080;stroke-dasharray:0.5,0.825;stroke-dashoffset:0;stroke-width:0.5;"/>
     </g>
     <g id="line2d_46">
      <g>
       <use style="stroke:#000000;stroke-width:0.8;" x="909.660444" xlink:href="#m39eb766cde" y="238.157693"/>
      </g>
     </g>
     <g id="text_23">
      <!-- 17/03/20 16:00 -->
      <g transform="translate(842.636002 316.86495)rotate(-45)scale(0.12 -0.12)">
       <use xlink:href="#DejaVuSans-49"/>
       <use x="63.623047" xlink:href="#DejaVuSans-55"/>
       <use x="127.246094" xlink:href="#DejaVuSans-47"/>
       <use x="160.9375" xlink:href="#DejaVuSans-48"/>
       <use x="224.560547" xlink:href="#DejaVuSans-51"/>
       <use x="288.183594" xlink:href="#DejaVuSans-47"/>
       <use x="321.875" xlink:href="#DejaVuSans-50"/>
       <use x="385.498047" xlink:href="#DejaVuSans-48"/>
       <use x="449.121094" xlink:href="#DejaVuSans-32"/>
       <use x="480.908203" xlink:href="#DejaVuSans-49"/>
       <use x="544.53125" xlink:href="#DejaVuSans-54"/>
       <use x="608.154297" xlink:href="#DejaVuSans-58"/>
       <use x="641.845703" xlink:href="#DejaVuSans-48"/>
       <use x="705.46875" xlink:href="#DejaVuSans-48"/>
      </g>
     </g>
    </g>
    <g id="xtick_24">
     <g id="line2d_47">
      <path clip-path="url(#p07edc3dcd9)" d="M 947.34174 238.157693 
L 947.34174 36.417128 
" style="fill:none;stroke:#808080;stroke-dasharray:0.5,0.825;stroke-dashoffset:0;stroke-width:0.5;"/>
     </g>
     <g id="line2d_48">
      <g>
       <use style="stroke:#000000;stroke-width:0.8;" x="947.34174" xlink:href="#m39eb766cde" y="238.157693"/>
      </g>
     </g>
     <g id="text_24">
      <!-- 17/03/20 20:00 -->
      <g transform="translate(880.317298 316.86495)rotate(-45)scale(0.12 -0.12)">
       <use xlink:href="#DejaVuSans-49"/>
       <use x="63.623047" xlink:href="#DejaVuSans-55"/>
       <use x="127.246094" xlink:href="#DejaVuSans-47"/>
       <use x="160.9375" xlink:href="#DejaVuSans-48"/>
       <use x="224.560547" xlink:href="#DejaVuSans-51"/>
       <use x="288.183594" xlink:href="#DejaVuSans-47"/>
       <use x="321.875" xlink:href="#DejaVuSans-50"/>
       <use x="385.498047" xlink:href="#DejaVuSans-48"/>
       <use x="449.121094" xlink:href="#DejaVuSans-32"/>
       <use x="480.908203" xlink:href="#DejaVuSans-50"/>
       <use x="544.53125" xlink:href="#DejaVuSans-48"/>
       <use x="608.154297" xlink:href="#DejaVuSans-58"/>
       <use x="641.845703" xlink:href="#DejaVuSans-48"/>
       <use x="705.46875" xlink:href="#DejaVuSans-48"/>
      </g>
     </g>
    </g>
    <g id="xtick_25">
     <g id="line2d_49">
      <path clip-path="url(#p07edc3dcd9)" d="M 985.023036 238.157693 
L 985.023036 36.417128 
" style="fill:none;stroke:#808080;stroke-dasharray:0.5,0.825;stroke-dashoffset:0;stroke-width:0.5;"/>
     </g>
     <g id="line2d_50">
      <g>
       <use style="stroke:#000000;stroke-width:0.8;" x="985.023036" xlink:href="#m39eb766cde" y="238.157693"/>
      </g>
     </g>
     <g id="text_25">
      <!-- 18/03/20 00:00 -->
      <defs>
       <path d="M 31.78125 34.625 
Q 24.75 34.625 20.71875 30.859375 
Q 16.703125 27.09375 16.703125 20.515625 
Q 16.703125 13.921875 20.71875 10.15625 
Q 24.75 6.390625 31.78125 6.390625 
Q 38.8125 6.390625 42.859375 10.171875 
Q 46.921875 13.96875 46.921875 20.515625 
Q 46.921875 27.09375 42.890625 30.859375 
Q 38.875 34.625 31.78125 34.625 
z
M 21.921875 38.8125 
Q 15.578125 40.375 12.03125 44.71875 
Q 8.5 49.078125 8.5 55.328125 
Q 8.5 64.0625 14.71875 69.140625 
Q 20.953125 74.21875 31.78125 74.21875 
Q 42.671875 74.21875 48.875 69.140625 
Q 55.078125 64.0625 55.078125 55.328125 
Q 55.078125 49.078125 51.53125 44.71875 
Q 48 40.375 41.703125 38.8125 
Q 48.828125 37.15625 52.796875 32.3125 
Q 56.78125 27.484375 56.78125 20.515625 
Q 56.78125 9.90625 50.3125 4.234375 
Q 43.84375 -1.421875 31.78125 -1.421875 
Q 19.734375 -1.421875 13.25 4.234375 
Q 6.78125 9.90625 6.78125 20.515625 
Q 6.78125 27.484375 10.78125 32.3125 
Q 14.796875 37.15625 21.921875 38.8125 
z
M 18.3125 54.390625 
Q 18.3125 48.734375 21.84375 45.5625 
Q 25.390625 42.390625 31.78125 42.390625 
Q 38.140625 42.390625 41.71875 45.5625 
Q 45.3125 48.734375 45.3125 54.390625 
Q 45.3125 60.0625 41.71875 63.234375 
Q 38.140625 66.40625 31.78125 66.40625 
Q 25.390625 66.40625 21.84375 63.234375 
Q 18.3125 60.0625 18.3125 54.390625 
z
" id="DejaVuSans-56"/>
      </defs>
      <g transform="translate(917.998594 316.86495)rotate(-45)scale(0.12 -0.12)">
       <use xlink:href="#DejaVuSans-49"/>
       <use x="63.623047" xlink:href="#DejaVuSans-56"/>
       <use x="127.246094" xlink:href="#DejaVuSans-47"/>
       <use x="160.9375" xlink:href="#DejaVuSans-48"/>
       <use x="224.560547" xlink:href="#DejaVuSans-51"/>
       <use x="288.183594" xlink:href="#DejaVuSans-47"/>
       <use x="321.875" xlink:href="#DejaVuSans-50"/>
       <use x="385.498047" xlink:href="#DejaVuSans-48"/>
       <use x="449.121094" xlink:href="#DejaVuSans-32"/>
       <use x="480.908203" xlink:href="#DejaVuSans-48"/>
       <use x="544.53125" xlink:href="#DejaVuSans-48"/>
       <use x="608.154297" xlink:href="#DejaVuSans-58"/>
       <use x="641.845703" xlink:href="#DejaVuSans-48"/>
       <use x="705.46875" xlink:href="#DejaVuSans-48"/>
      </g>
     </g>
    </g>
    <g id="xtick_26">
     <g id="line2d_51">
      <path clip-path="url(#p07edc3dcd9)" d="M 1022.704332 238.157693 
L 1022.704332 36.417128 
" style="fill:none;stroke:#808080;stroke-dasharray:0.5,0.825;stroke-dashoffset:0;stroke-width:0.5;"/>
     </g>
     <g id="line2d_52">
      <g>
       <use style="stroke:#000000;stroke-width:0.8;" x="1022.704332" xlink:href="#m39eb766cde" y="238.157693"/>
      </g>
     </g>
     <g id="text_26">
      <!-- 18/03/20 12:00 -->
      <g transform="translate(955.67989 316.86495)rotate(-45)scale(0.12 -0.12)">
       <use xlink:href="#DejaVuSans-49"/>
       <use x="63.623047" xlink:href="#DejaVuSans-56"/>
       <use x="127.246094" xlink:href="#DejaVuSans-47"/>
       <use x="160.9375" xlink:href="#DejaVuSans-48"/>
       <use x="224.560547" xlink:href="#DejaVuSans-51"/>
       <use x="288.183594" xlink:href="#DejaVuSans-47"/>
       <use x="321.875" xlink:href="#DejaVuSans-50"/>
       <use x="385.498047" xlink:href="#DejaVuSans-48"/>
       <use x="449.121094" xlink:href="#DejaVuSans-32"/>
       <use x="480.908203" xlink:href="#DejaVuSans-49"/>
       <use x="544.53125" xlink:href="#DejaVuSans-50"/>
       <use x="608.154297" xlink:href="#DejaVuSans-58"/>
       <use x="641.845703" xlink:href="#DejaVuSans-48"/>
       <use x="705.46875" xlink:href="#DejaVuSans-48"/>
      </g>
     </g>
    </g>
    <g id="xtick_27">
     <g id="line2d_53">
      <path clip-path="url(#p07edc3dcd9)" d="M 1060.385629 238.157693 
L 1060.385629 36.417128 
" style="fill:none;stroke:#808080;stroke-dasharray:0.5,0.825;stroke-dashoffset:0;stroke-width:0.5;"/>
     </g>
     <g id="line2d_54">
      <g>
       <use style="stroke:#000000;stroke-width:0.8;" x="1060.385629" xlink:href="#m39eb766cde" y="238.157693"/>
      </g>
     </g>
     <g id="text_27">
      <!-- 18/03/20 16:00 -->
      <g transform="translate(993.361186 316.86495)rotate(-45)scale(0.12 -0.12)">
       <use xlink:href="#DejaVuSans-49"/>
       <use x="63.623047" xlink:href="#DejaVuSans-56"/>
       <use x="127.246094" xlink:href="#DejaVuSans-47"/>
       <use x="160.9375" xlink:href="#DejaVuSans-48"/>
       <use x="224.560547" xlink:href="#DejaVuSans-51"/>
       <use x="288.183594" xlink:href="#DejaVuSans-47"/>
       <use x="321.875" xlink:href="#DejaVuSans-50"/>
       <use x="385.498047" xlink:href="#DejaVuSans-48"/>
       <use x="449.121094" xlink:href="#DejaVuSans-32"/>
       <use x="480.908203" xlink:href="#DejaVuSans-49"/>
       <use x="544.53125" xlink:href="#DejaVuSans-54"/>
       <use x="608.154297" xlink:href="#DejaVuSans-58"/>
       <use x="641.845703" xlink:href="#DejaVuSans-48"/>
       <use x="705.46875" xlink:href="#DejaVuSans-48"/>
      </g>
     </g>
    </g>
    <g id="xtick_28">
     <g id="line2d_55">
      <path clip-path="url(#p07edc3dcd9)" d="M 1098.066925 238.157693 
L 1098.066925 36.417128 
" style="fill:none;stroke:#808080;stroke-dasharray:0.5,0.825;stroke-dashoffset:0;stroke-width:0.5;"/>
     </g>
     <g id="line2d_56">
      <g>
       <use style="stroke:#000000;stroke-width:0.8;" x="1098.066925" xlink:href="#m39eb766cde" y="238.157693"/>
      </g>
     </g>
     <g id="text_28">
      <!-- 18/03/20 20:00 -->
      <g transform="translate(1031.042483 316.86495)rotate(-45)scale(0.12 -0.12)">
       <use xlink:href="#DejaVuSans-49"/>
       <use x="63.623047" xlink:href="#DejaVuSans-56"/>
       <use x="127.246094" xlink:href="#DejaVuSans-47"/>
       <use x="160.9375" xlink:href="#DejaVuSans-48"/>
       <use x="224.560547" xlink:href="#DejaVuSans-51"/>
       <use x="288.183594" xlink:href="#DejaVuSans-47"/>
       <use x="321.875" xlink:href="#DejaVuSans-50"/>
       <use x="385.498047" xlink:href="#DejaVuSans-48"/>
       <use x="449.121094" xlink:href="#DejaVuSans-32"/>
       <use x="480.908203" xlink:href="#DejaVuSans-50"/>
       <use x="544.53125" xlink:href="#DejaVuSans-48"/>
       <use x="608.154297" xlink:href="#DejaVuSans-58"/>
       <use x="641.845703" xlink:href="#DejaVuSans-48"/>
       <use x="705.46875" xlink:href="#DejaVuSans-48"/>
      </g>
     </g>
    </g>
    <g id="text_29">
     <!-- Time -->
     <defs>
      <path d="M -0.296875 72.90625 
L 61.375 72.90625 
L 61.375 64.59375 
L 35.5 64.59375 
L 35.5 0 
L 25.59375 0 
L 25.59375 64.59375 
L -0.296875 64.59375 
z
" id="DejaVuSans-84"/>
      <path d="M 9.421875 54.6875 
L 18.40625 54.6875 
L 18.40625 0 
L 9.421875 0 
z
M 9.421875 75.984375 
L 18.40625 75.984375 
L 18.40625 64.59375 
L 9.421875 64.59375 
z
" id="DejaVuSans-105"/>
      <path d="M 52 44.1875 
Q 55.375 50.25 60.0625 53.125 
Q 64.75 56 71.09375 56 
Q 79.640625 56 84.28125 50.015625 
Q 88.921875 44.046875 88.921875 33.015625 
L 88.921875 0 
L 79.890625 0 
L 79.890625 32.71875 
Q 79.890625 40.578125 77.09375 44.375 
Q 74.3125 48.1875 68.609375 48.1875 
Q 61.625 48.1875 57.5625 43.546875 
Q 53.515625 38.921875 53.515625 30.90625 
L 53.515625 0 
L 44.484375 0 
L 44.484375 32.71875 
Q 44.484375 40.625 41.703125 44.40625 
Q 38.921875 48.1875 33.109375 48.1875 
Q 26.21875 48.1875 22.15625 43.53125 
Q 18.109375 38.875 18.109375 30.90625 
L 18.109375 0 
L 9.078125 0 
L 9.078125 54.6875 
L 18.109375 54.6875 
L 18.109375 46.1875 
Q 21.1875 51.21875 25.484375 53.609375 
Q 29.78125 56 35.6875 56 
Q 41.65625 56 45.828125 52.96875 
Q 50 49.953125 52 44.1875 
z
" id="DejaVuSans-109"/>
      <path d="M 56.203125 29.59375 
L 56.203125 25.203125 
L 14.890625 25.203125 
Q 15.484375 15.921875 20.484375 11.0625 
Q 25.484375 6.203125 34.421875 6.203125 
Q 39.59375 6.203125 44.453125 7.46875 
Q 49.3125 8.734375 54.109375 11.28125 
L 54.109375 2.78125 
Q 49.265625 0.734375 44.1875 -0.34375 
Q 39.109375 -1.421875 33.890625 -1.421875 
Q 20.796875 -1.421875 13.15625 6.1875 
Q 5.515625 13.8125 5.515625 26.8125 
Q 5.515625 40.234375 12.765625 48.109375 
Q 20.015625 56 32.328125 56 
Q 43.359375 56 49.78125 48.890625 
Q 56.203125 41.796875 56.203125 29.59375 
z
M 47.21875 32.234375 
Q 47.125 39.59375 43.09375 43.984375 
Q 39.0625 48.390625 32.421875 48.390625 
Q 24.90625 48.390625 20.390625 44.140625 
Q 15.875 39.890625 15.1875 32.171875 
z
" id="DejaVuSans-101"/>
     </defs>
     <g transform="translate(585.661913 337.571373)scale(0.144 -0.144)">
      <use xlink:href="#DejaVuSans-84"/>
      <use x="61.037109" xlink:href="#DejaVuSans-105"/>
      <use x="88.820312" xlink:href="#DejaVuSans-109"/>
      <use x="186.232422" xlink:href="#DejaVuSans-101"/>
     </g>
    </g>
   </g>
   <g id="matplotlib.axis_2">
    <g id="ytick_1">
     <g id="line2d_57">
      <path clip-path="url(#p07edc3dcd9)" d="M 71.251606 238.157693 
L 1135.748221 238.157693 
" style="fill:none;stroke:#808080;stroke-dasharray:0.5,0.825;stroke-dashoffset:0;stroke-width:0.5;"/>
     </g>
     <g id="line2d_58">
      <defs>
       <path d="M 0 0 
L -3.5 0 
" id="m3f04942f50" style="stroke:#000000;stroke-width:0.8;"/>
      </defs>
      <g>
       <use style="stroke:#000000;stroke-width:0.8;" x="71.251606" xlink:href="#m3f04942f50" y="238.157693"/>
      </g>
     </g>
     <g id="text_30">
      <!-- 0 -->
      <g transform="translate(56.616606 242.716755)scale(0.12 -0.12)">
       <use xlink:href="#DejaVuSans-48"/>
      </g>
     </g>
    </g>
    <g id="ytick_2">
     <g id="line2d_59">
      <path clip-path="url(#p07edc3dcd9)" d="M 71.251606 196.838581 
L 1135.748221 196.838581 
" style="fill:none;stroke:#808080;stroke-dasharray:0.5,0.825;stroke-dashoffset:0;stroke-width:0.5;"/>
     </g>
     <g id="line2d_60">
      <g>
       <use style="stroke:#000000;stroke-width:0.8;" x="71.251606" xlink:href="#m3f04942f50" y="196.838581"/>
      </g>
     </g>
     <g id="text_31">
      <!-- 500 -->
      <g transform="translate(41.346606 201.397643)scale(0.12 -0.12)">
       <use xlink:href="#DejaVuSans-53"/>
       <use x="63.623047" xlink:href="#DejaVuSans-48"/>
       <use x="127.246094" xlink:href="#DejaVuSans-48"/>
      </g>
     </g>
    </g>
    <g id="ytick_3">
     <g id="line2d_61">
      <path clip-path="url(#p07edc3dcd9)" d="M 71.251606 155.519469 
L 1135.748221 155.519469 
" style="fill:none;stroke:#808080;stroke-dasharray:0.5,0.825;stroke-dashoffset:0;stroke-width:0.5;"/>
     </g>
     <g id="line2d_62">
      <g>
       <use style="stroke:#000000;stroke-width:0.8;" x="71.251606" xlink:href="#m3f04942f50" y="155.519469"/>
      </g>
     </g>
     <g id="text_32">
      <!-- 1000 -->
      <g transform="translate(33.711606 160.078531)scale(0.12 -0.12)">
       <use xlink:href="#DejaVuSans-49"/>
       <use x="63.623047" xlink:href="#DejaVuSans-48"/>
       <use x="127.246094" xlink:href="#DejaVuSans-48"/>
       <use x="190.869141" xlink:href="#DejaVuSans-48"/>
      </g>
     </g>
    </g>
    <g id="ytick_4">
     <g id="line2d_63">
      <path clip-path="url(#p07edc3dcd9)" d="M 71.251606 114.200357 
L 1135.748221 114.200357 
" style="fill:none;stroke:#808080;stroke-dasharray:0.5,0.825;stroke-dashoffset:0;stroke-width:0.5;"/>
     </g>
     <g id="line2d_64">
      <g>
       <use style="stroke:#000000;stroke-width:0.8;" x="71.251606" xlink:href="#m3f04942f50" y="114.200357"/>
      </g>
     </g>
     <g id="text_33">
      <!-- 1500 -->
      <g transform="translate(33.711606 118.759419)scale(0.12 -0.12)">
       <use xlink:href="#DejaVuSans-49"/>
       <use x="63.623047" xlink:href="#DejaVuSans-53"/>
       <use x="127.246094" xlink:href="#DejaVuSans-48"/>
       <use x="190.869141" xlink:href="#DejaVuSans-48"/>
      </g>
     </g>
    </g>
    <g id="ytick_5">
     <g id="line2d_65">
      <path clip-path="url(#p07edc3dcd9)" d="M 71.251606 72.881245 
L 1135.748221 72.881245 
" style="fill:none;stroke:#808080;stroke-dasharray:0.5,0.825;stroke-dashoffset:0;stroke-width:0.5;"/>
     </g>
     <g id="line2d_66">
      <g>
       <use style="stroke:#000000;stroke-width:0.8;" x="71.251606" xlink:href="#m3f04942f50" y="72.881245"/>
      </g>
     </g>
     <g id="text_34">
      <!-- 2000 -->
      <g transform="translate(33.711606 77.440307)scale(0.12 -0.12)">
       <use xlink:href="#DejaVuSans-50"/>
       <use x="63.623047" xlink:href="#DejaVuSans-48"/>
       <use x="127.246094" xlink:href="#DejaVuSans-48"/>
       <use x="190.869141" xlink:href="#DejaVuSans-48"/>
      </g>
     </g>
    </g>
    <g id="text_35">
     <!-- Energy consumption [Wh] -->
     <defs>
      <path d="M 9.8125 72.90625 
L 55.90625 72.90625 
L 55.90625 64.59375 
L 19.671875 64.59375 
L 19.671875 43.015625 
L 54.390625 43.015625 
L 54.390625 34.71875 
L 19.671875 34.71875 
L 19.671875 8.296875 
L 56.78125 8.296875 
L 56.78125 0 
L 9.8125 0 
z
" id="DejaVuSans-69"/>
      <path d="M 54.890625 33.015625 
L 54.890625 0 
L 45.90625 0 
L 45.90625 32.71875 
Q 45.90625 40.484375 42.875 44.328125 
Q 39.84375 48.1875 33.796875 48.1875 
Q 26.515625 48.1875 22.3125 43.546875 
Q 18.109375 38.921875 18.109375 30.90625 
L 18.109375 0 
L 9.078125 0 
L 9.078125 54.6875 
L 18.109375 54.6875 
L 18.109375 46.1875 
Q 21.34375 51.125 25.703125 53.5625 
Q 30.078125 56 35.796875 56 
Q 45.21875 56 50.046875 50.171875 
Q 54.890625 44.34375 54.890625 33.015625 
z
" id="DejaVuSans-110"/>
      <path d="M 41.109375 46.296875 
Q 39.59375 47.171875 37.8125 47.578125 
Q 36.03125 48 33.890625 48 
Q 26.265625 48 22.1875 43.046875 
Q 18.109375 38.09375 18.109375 28.8125 
L 18.109375 0 
L 9.078125 0 
L 9.078125 54.6875 
L 18.109375 54.6875 
L 18.109375 46.1875 
Q 20.953125 51.171875 25.484375 53.578125 
Q 30.03125 56 36.53125 56 
Q 37.453125 56 38.578125 55.875 
Q 39.703125 55.765625 41.0625 55.515625 
z
" id="DejaVuSans-114"/>
      <path d="M 45.40625 27.984375 
Q 45.40625 37.75 41.375 43.109375 
Q 37.359375 48.484375 30.078125 48.484375 
Q 22.859375 48.484375 18.828125 43.109375 
Q 14.796875 37.75 14.796875 27.984375 
Q 14.796875 18.265625 18.828125 12.890625 
Q 22.859375 7.515625 30.078125 7.515625 
Q 37.359375 7.515625 41.375 12.890625 
Q 45.40625 18.265625 45.40625 27.984375 
z
M 54.390625 6.78125 
Q 54.390625 -7.171875 48.1875 -13.984375 
Q 42 -20.796875 29.203125 -20.796875 
Q 24.46875 -20.796875 20.265625 -20.09375 
Q 16.0625 -19.390625 12.109375 -17.921875 
L 12.109375 -9.1875 
Q 16.0625 -11.328125 19.921875 -12.34375 
Q 23.78125 -13.375 27.78125 -13.375 
Q 36.625 -13.375 41.015625 -8.765625 
Q 45.40625 -4.15625 45.40625 5.171875 
L 45.40625 9.625 
Q 42.625 4.78125 38.28125 2.390625 
Q 33.9375 0 27.875 0 
Q 17.828125 0 11.671875 7.65625 
Q 5.515625 15.328125 5.515625 27.984375 
Q 5.515625 40.671875 11.671875 48.328125 
Q 17.828125 56 27.875 56 
Q 33.9375 56 38.28125 53.609375 
Q 42.625 51.21875 45.40625 46.390625 
L 45.40625 54.6875 
L 54.390625 54.6875 
z
" id="DejaVuSans-103"/>
      <path d="M 32.171875 -5.078125 
Q 28.375 -14.84375 24.75 -17.8125 
Q 21.140625 -20.796875 15.09375 -20.796875 
L 7.90625 -20.796875 
L 7.90625 -13.28125 
L 13.1875 -13.28125 
Q 16.890625 -13.28125 18.9375 -11.515625 
Q 21 -9.765625 23.484375 -3.21875 
L 25.09375 0.875 
L 2.984375 54.6875 
L 12.5 54.6875 
L 29.59375 11.921875 
L 46.6875 54.6875 
L 56.203125 54.6875 
z
" id="DejaVuSans-121"/>
      <path d="M 48.78125 52.59375 
L 48.78125 44.1875 
Q 44.96875 46.296875 41.140625 47.34375 
Q 37.3125 48.390625 33.40625 48.390625 
Q 24.65625 48.390625 19.8125 42.84375 
Q 14.984375 37.3125 14.984375 27.296875 
Q 14.984375 17.28125 19.8125 11.734375 
Q 24.65625 6.203125 33.40625 6.203125 
Q 37.3125 6.203125 41.140625 7.25 
Q 44.96875 8.296875 48.78125 10.40625 
L 48.78125 2.09375 
Q 45.015625 0.34375 40.984375 -0.53125 
Q 36.96875 -1.421875 32.421875 -1.421875 
Q 20.0625 -1.421875 12.78125 6.34375 
Q 5.515625 14.109375 5.515625 27.296875 
Q 5.515625 40.671875 12.859375 48.328125 
Q 20.21875 56 33.015625 56 
Q 37.15625 56 41.109375 55.140625 
Q 45.0625 54.296875 48.78125 52.59375 
z
" id="DejaVuSans-99"/>
      <path d="M 30.609375 48.390625 
Q 23.390625 48.390625 19.1875 42.75 
Q 14.984375 37.109375 14.984375 27.296875 
Q 14.984375 17.484375 19.15625 11.84375 
Q 23.34375 6.203125 30.609375 6.203125 
Q 37.796875 6.203125 41.984375 11.859375 
Q 46.1875 17.53125 46.1875 27.296875 
Q 46.1875 37.015625 41.984375 42.703125 
Q 37.796875 48.390625 30.609375 48.390625 
z
M 30.609375 56 
Q 42.328125 56 49.015625 48.375 
Q 55.71875 40.765625 55.71875 27.296875 
Q 55.71875 13.875 49.015625 6.21875 
Q 42.328125 -1.421875 30.609375 -1.421875 
Q 18.84375 -1.421875 12.171875 6.21875 
Q 5.515625 13.875 5.515625 27.296875 
Q 5.515625 40.765625 12.171875 48.375 
Q 18.84375 56 30.609375 56 
z
" id="DejaVuSans-111"/>
      <path d="M 44.28125 53.078125 
L 44.28125 44.578125 
Q 40.484375 46.53125 36.375 47.5 
Q 32.28125 48.484375 27.875 48.484375 
Q 21.1875 48.484375 17.84375 46.4375 
Q 14.5 44.390625 14.5 40.28125 
Q 14.5 37.15625 16.890625 35.375 
Q 19.28125 33.59375 26.515625 31.984375 
L 29.59375 31.296875 
Q 39.15625 29.25 43.1875 25.515625 
Q 47.21875 21.78125 47.21875 15.09375 
Q 47.21875 7.46875 41.1875 3.015625 
Q 35.15625 -1.421875 24.609375 -1.421875 
Q 20.21875 -1.421875 15.453125 -0.5625 
Q 10.6875 0.296875 5.421875 2 
L 5.421875 11.28125 
Q 10.40625 8.6875 15.234375 7.390625 
Q 20.0625 6.109375 24.8125 6.109375 
Q 31.15625 6.109375 34.5625 8.28125 
Q 37.984375 10.453125 37.984375 14.40625 
Q 37.984375 18.0625 35.515625 20.015625 
Q 33.0625 21.96875 24.703125 23.78125 
L 21.578125 24.515625 
Q 13.234375 26.265625 9.515625 29.90625 
Q 5.8125 33.546875 5.8125 39.890625 
Q 5.8125 47.609375 11.28125 51.796875 
Q 16.75 56 26.8125 56 
Q 31.78125 56 36.171875 55.265625 
Q 40.578125 54.546875 44.28125 53.078125 
z
" id="DejaVuSans-115"/>
      <path d="M 8.5 21.578125 
L 8.5 54.6875 
L 17.484375 54.6875 
L 17.484375 21.921875 
Q 17.484375 14.15625 20.5 10.265625 
Q 23.53125 6.390625 29.59375 6.390625 
Q 36.859375 6.390625 41.078125 11.03125 
Q 45.3125 15.671875 45.3125 23.6875 
L 45.3125 54.6875 
L 54.296875 54.6875 
L 54.296875 0 
L 45.3125 0 
L 45.3125 8.40625 
Q 42.046875 3.421875 37.71875 1 
Q 33.40625 -1.421875 27.6875 -1.421875 
Q 18.265625 -1.421875 13.375 4.4375 
Q 8.5 10.296875 8.5 21.578125 
z
M 31.109375 56 
z
" id="DejaVuSans-117"/>
      <path d="M 18.109375 8.203125 
L 18.109375 -20.796875 
L 9.078125 -20.796875 
L 9.078125 54.6875 
L 18.109375 54.6875 
L 18.109375 46.390625 
Q 20.953125 51.265625 25.265625 53.625 
Q 29.59375 56 35.59375 56 
Q 45.5625 56 51.78125 48.09375 
Q 58.015625 40.1875 58.015625 27.296875 
Q 58.015625 14.40625 51.78125 6.484375 
Q 45.5625 -1.421875 35.59375 -1.421875 
Q 29.59375 -1.421875 25.265625 0.953125 
Q 20.953125 3.328125 18.109375 8.203125 
z
M 48.6875 27.296875 
Q 48.6875 37.203125 44.609375 42.84375 
Q 40.53125 48.484375 33.40625 48.484375 
Q 26.265625 48.484375 22.1875 42.84375 
Q 18.109375 37.203125 18.109375 27.296875 
Q 18.109375 17.390625 22.1875 11.75 
Q 26.265625 6.109375 33.40625 6.109375 
Q 40.53125 6.109375 44.609375 11.75 
Q 48.6875 17.390625 48.6875 27.296875 
z
" id="DejaVuSans-112"/>
      <path d="M 18.3125 70.21875 
L 18.3125 54.6875 
L 36.8125 54.6875 
L 36.8125 47.703125 
L 18.3125 47.703125 
L 18.3125 18.015625 
Q 18.3125 11.328125 20.140625 9.421875 
Q 21.96875 7.515625 27.59375 7.515625 
L 36.8125 7.515625 
L 36.8125 0 
L 27.59375 0 
Q 17.1875 0 13.234375 3.875 
Q 9.28125 7.765625 9.28125 18.015625 
L 9.28125 47.703125 
L 2.6875 47.703125 
L 2.6875 54.6875 
L 9.28125 54.6875 
L 9.28125 70.21875 
z
" id="DejaVuSans-116"/>
      <path d="M 8.59375 75.984375 
L 29.296875 75.984375 
L 29.296875 69 
L 17.578125 69 
L 17.578125 -6.203125 
L 29.296875 -6.203125 
L 29.296875 -13.1875 
L 8.59375 -13.1875 
z
" id="DejaVuSans-91"/>
      <path d="M 3.328125 72.90625 
L 13.28125 72.90625 
L 28.609375 11.28125 
L 43.890625 72.90625 
L 54.984375 72.90625 
L 70.3125 11.28125 
L 85.59375 72.90625 
L 95.609375 72.90625 
L 77.296875 0 
L 64.890625 0 
L 49.515625 63.28125 
L 33.984375 0 
L 21.578125 0 
z
" id="DejaVuSans-87"/>
      <path d="M 54.890625 33.015625 
L 54.890625 0 
L 45.90625 0 
L 45.90625 32.71875 
Q 45.90625 40.484375 42.875 44.328125 
Q 39.84375 48.1875 33.796875 48.1875 
Q 26.515625 48.1875 22.3125 43.546875 
Q 18.109375 38.921875 18.109375 30.90625 
L 18.109375 0 
L 9.078125 0 
L 9.078125 75.984375 
L 18.109375 75.984375 
L 18.109375 46.1875 
Q 21.34375 51.125 25.703125 53.5625 
Q 30.078125 56 35.796875 56 
Q 45.21875 56 50.046875 50.171875 
Q 54.890625 44.34375 54.890625 33.015625 
z
" id="DejaVuSans-104"/>
      <path d="M 30.421875 75.984375 
L 30.421875 -13.1875 
L 9.71875 -13.1875 
L 9.71875 -6.203125 
L 21.390625 -6.203125 
L 21.390625 69 
L 9.71875 69 
L 9.71875 75.984375 
z
" id="DejaVuSans-93"/>
     </defs>
     <g transform="translate(22.716856 231.114661)rotate(-90)scale(0.144 -0.144)">
      <use xlink:href="#DejaVuSans-69"/>
      <use x="63.183594" xlink:href="#DejaVuSans-110"/>
      <use x="126.5625" xlink:href="#DejaVuSans-101"/>
      <use x="188.085938" xlink:href="#DejaVuSans-114"/>
      <use x="229.183594" xlink:href="#DejaVuSans-103"/>
      <use x="292.660156" xlink:href="#DejaVuSans-121"/>
      <use x="351.839844" xlink:href="#DejaVuSans-32"/>
      <use x="383.626953" xlink:href="#DejaVuSans-99"/>
      <use x="438.607422" xlink:href="#DejaVuSans-111"/>
      <use x="499.789062" xlink:href="#DejaVuSans-110"/>
      <use x="563.167969" xlink:href="#DejaVuSans-115"/>
      <use x="615.267578" xlink:href="#DejaVuSans-117"/>
      <use x="678.646484" xlink:href="#DejaVuSans-109"/>
      <use x="776.058594" xlink:href="#DejaVuSans-112"/>
      <use x="839.535156" xlink:href="#DejaVuSans-116"/>
      <use x="878.744141" xlink:href="#DejaVuSans-105"/>
      <use x="906.527344" xlink:href="#DejaVuSans-111"/>
      <use x="967.708984" xlink:href="#DejaVuSans-110"/>
      <use x="1031.087891" xlink:href="#DejaVuSans-32"/>
      <use x="1062.875" xlink:href="#DejaVuSans-91"/>
      <use x="1101.888672" xlink:href="#DejaVuSans-87"/>
      <use x="1200.765625" xlink:href="#DejaVuSans-104"/>
      <use x="1264.144531" xlink:href="#DejaVuSans-93"/>
     </g>
    </g>
   </g>
   <g id="patch_115">
    <path d="M 71.251606 238.157693 
L 71.251606 36.417128 
" style="fill:none;stroke:#000000;stroke-linecap:square;stroke-linejoin:miter;stroke-width:0.8;"/>
   </g>
   <g id="patch_116">
    <path d="M 1135.748221 238.157693 
L 1135.748221 36.417128 
" style="fill:none;stroke:#000000;stroke-linecap:square;stroke-linejoin:miter;stroke-width:0.8;"/>
   </g>
   <g id="patch_117">
    <path d="M 71.251606 238.157693 
L 1135.748221 238.157693 
" style="fill:none;stroke:#000000;stroke-linecap:square;stroke-linejoin:miter;stroke-width:0.8;"/>
   </g>
   <g id="patch_118">
    <path d="M 71.251606 36.417128 
L 1135.748221 36.417128 
" style="fill:none;stroke:#000000;stroke-linecap:square;stroke-linejoin:miter;stroke-width:0.8;"/>
   </g>
   <g id="text_36">
    <!-- Did the Aircon Rest.'s energy usage pattern change over time? -->
    <defs>
     <path d="M 19.671875 64.796875 
L 19.671875 8.109375 
L 31.59375 8.109375 
Q 46.6875 8.109375 53.6875 14.9375 
Q 60.6875 21.78125 60.6875 36.53125 
Q 60.6875 51.171875 53.6875 57.984375 
Q 46.6875 64.796875 31.59375 64.796875 
z
M 9.8125 72.90625 
L 30.078125 72.90625 
Q 51.265625 72.90625 61.171875 64.09375 
Q 71.09375 55.28125 71.09375 36.53125 
Q 71.09375 17.671875 61.125 8.828125 
Q 51.171875 0 30.078125 0 
L 9.8125 0 
z
" id="DejaVuSans-68"/>
     <path d="M 45.40625 46.390625 
L 45.40625 75.984375 
L 54.390625 75.984375 
L 54.390625 0 
L 45.40625 0 
L 45.40625 8.203125 
Q 42.578125 3.328125 38.25 0.953125 
Q 33.9375 -1.421875 27.875 -1.421875 
Q 17.96875 -1.421875 11.734375 6.484375 
Q 5.515625 14.40625 5.515625 27.296875 
Q 5.515625 40.1875 11.734375 48.09375 
Q 17.96875 56 27.875 56 
Q 33.9375 56 38.25 53.625 
Q 42.578125 51.265625 45.40625 46.390625 
z
M 14.796875 27.296875 
Q 14.796875 17.390625 18.875 11.75 
Q 22.953125 6.109375 30.078125 6.109375 
Q 37.203125 6.109375 41.296875 11.75 
Q 45.40625 17.390625 45.40625 27.296875 
Q 45.40625 37.203125 41.296875 42.84375 
Q 37.203125 48.484375 30.078125 48.484375 
Q 22.953125 48.484375 18.875 42.84375 
Q 14.796875 37.203125 14.796875 27.296875 
z
" id="DejaVuSans-100"/>
     <path d="M 34.1875 63.1875 
L 20.796875 26.90625 
L 47.609375 26.90625 
z
M 28.609375 72.90625 
L 39.796875 72.90625 
L 67.578125 0 
L 57.328125 0 
L 50.6875 18.703125 
L 17.828125 18.703125 
L 11.1875 0 
L 0.78125 0 
z
" id="DejaVuSans-65"/>
     <path d="M 44.390625 34.1875 
Q 47.5625 33.109375 50.5625 29.59375 
Q 53.5625 26.078125 56.59375 19.921875 
L 66.609375 0 
L 56 0 
L 46.6875 18.703125 
Q 43.0625 26.03125 39.671875 28.421875 
Q 36.28125 30.8125 30.421875 30.8125 
L 19.671875 30.8125 
L 19.671875 0 
L 9.8125 0 
L 9.8125 72.90625 
L 32.078125 72.90625 
Q 44.578125 72.90625 50.734375 67.671875 
Q 56.890625 62.453125 56.890625 51.90625 
Q 56.890625 45.015625 53.6875 40.46875 
Q 50.484375 35.9375 44.390625 34.1875 
z
M 19.671875 64.796875 
L 19.671875 38.921875 
L 32.078125 38.921875 
Q 39.203125 38.921875 42.84375 42.21875 
Q 46.484375 45.515625 46.484375 51.90625 
Q 46.484375 58.296875 42.84375 61.546875 
Q 39.203125 64.796875 32.078125 64.796875 
z
" id="DejaVuSans-82"/>
     <path d="M 10.6875 12.40625 
L 21 12.40625 
L 21 0 
L 10.6875 0 
z
" id="DejaVuSans-46"/>
     <path d="M 17.921875 72.90625 
L 17.921875 45.796875 
L 9.625 45.796875 
L 9.625 72.90625 
z
" id="DejaVuSans-39"/>
     <path d="M 34.28125 27.484375 
Q 23.390625 27.484375 19.1875 25 
Q 14.984375 22.515625 14.984375 16.5 
Q 14.984375 11.71875 18.140625 8.90625 
Q 21.296875 6.109375 26.703125 6.109375 
Q 34.1875 6.109375 38.703125 11.40625 
Q 43.21875 16.703125 43.21875 25.484375 
L 43.21875 27.484375 
z
M 52.203125 31.203125 
L 52.203125 0 
L 43.21875 0 
L 43.21875 8.296875 
Q 40.140625 3.328125 35.546875 0.953125 
Q 30.953125 -1.421875 24.3125 -1.421875 
Q 15.921875 -1.421875 10.953125 3.296875 
Q 6 8.015625 6 15.921875 
Q 6 25.140625 12.171875 29.828125 
Q 18.359375 34.515625 30.609375 34.515625 
L 43.21875 34.515625 
L 43.21875 35.40625 
Q 43.21875 41.609375 39.140625 45 
Q 35.0625 48.390625 27.6875 48.390625 
Q 23 48.390625 18.546875 47.265625 
Q 14.109375 46.140625 10.015625 43.890625 
L 10.015625 52.203125 
Q 14.9375 54.109375 19.578125 55.046875 
Q 24.21875 56 28.609375 56 
Q 40.484375 56 46.34375 49.84375 
Q 52.203125 43.703125 52.203125 31.203125 
z
" id="DejaVuSans-97"/>
     <path d="M 2.984375 54.6875 
L 12.5 54.6875 
L 29.59375 8.796875 
L 46.6875 54.6875 
L 56.203125 54.6875 
L 35.6875 0 
L 23.484375 0 
z
" id="DejaVuSans-118"/>
     <path d="M 19.09375 12.40625 
L 29 12.40625 
L 29 0 
L 19.09375 0 
z
M 28.71875 19.578125 
L 19.390625 19.578125 
L 19.390625 27.09375 
Q 19.390625 32.03125 20.75 35.203125 
Q 22.125 38.375 26.515625 42.578125 
L 30.90625 46.921875 
Q 33.6875 49.515625 34.9375 51.8125 
Q 36.1875 54.109375 36.1875 56.5 
Q 36.1875 60.84375 32.984375 63.53125 
Q 29.78125 66.21875 24.515625 66.21875 
Q 20.65625 66.21875 16.28125 64.5 
Q 11.921875 62.796875 7.171875 59.515625 
L 7.171875 68.703125 
Q 11.765625 71.484375 16.46875 72.84375 
Q 21.1875 74.21875 26.21875 74.21875 
Q 35.203125 74.21875 40.640625 69.484375 
Q 46.09375 64.75 46.09375 56.984375 
Q 46.09375 53.265625 44.328125 49.921875 
Q 42.578125 46.578125 38.1875 42.390625 
L 33.890625 38.1875 
Q 31.59375 35.890625 30.640625 34.59375 
Q 29.6875 33.296875 29.296875 32.078125 
Q 29 31.0625 28.859375 29.59375 
Q 28.71875 28.125 28.71875 25.59375 
z
" id="DejaVuSans-63"/>
    </defs>
    <g transform="translate(330.474563 20.3301)scale(0.1728 -0.1728)">
     <use xlink:href="#DejaVuSans-68"/>
     <use x="77.001953" xlink:href="#DejaVuSans-105"/>
     <use x="104.785156" xlink:href="#DejaVuSans-100"/>
     <use x="168.261719" xlink:href="#DejaVuSans-32"/>
     <use x="200.048828" xlink:href="#DejaVuSans-116"/>
     <use x="239.257812" xlink:href="#DejaVuSans-104"/>
     <use x="302.636719" xlink:href="#DejaVuSans-101"/>
     <use x="364.160156" xlink:href="#DejaVuSans-32"/>
     <use x="395.947266" xlink:href="#DejaVuSans-65"/>
     <use x="464.355469" xlink:href="#DejaVuSans-105"/>
     <use x="492.138672" xlink:href="#DejaVuSans-114"/>
     <use x="533.220703" xlink:href="#DejaVuSans-99"/>
     <use x="588.201172" xlink:href="#DejaVuSans-111"/>
     <use x="649.382812" xlink:href="#DejaVuSans-110"/>
     <use x="712.761719" xlink:href="#DejaVuSans-32"/>
     <use x="744.548828" xlink:href="#DejaVuSans-82"/>
     <use x="813.96875" xlink:href="#DejaVuSans-101"/>
     <use x="875.492188" xlink:href="#DejaVuSans-115"/>
     <use x="927.591797" xlink:href="#DejaVuSans-116"/>
     <use x="966.800781" xlink:href="#DejaVuSans-46"/>
     <use x="998.587891" xlink:href="#DejaVuSans-39"/>
     <use x="1026.078125" xlink:href="#DejaVuSans-115"/>
     <use x="1078.177734" xlink:href="#DejaVuSans-32"/>
     <use x="1109.964844" xlink:href="#DejaVuSans-101"/>
     <use x="1171.488281" xlink:href="#DejaVuSans-110"/>
     <use x="1234.867188" xlink:href="#DejaVuSans-101"/>
     <use x="1296.390625" xlink:href="#DejaVuSans-114"/>
     <use x="1337.488281" xlink:href="#DejaVuSans-103"/>
     <use x="1400.964844" xlink:href="#DejaVuSans-121"/>
     <use x="1460.144531" xlink:href="#DejaVuSans-32"/>
     <use x="1491.931641" xlink:href="#DejaVuSans-117"/>
     <use x="1555.310547" xlink:href="#DejaVuSans-115"/>
     <use x="1607.410156" xlink:href="#DejaVuSans-97"/>
     <use x="1668.689453" xlink:href="#DejaVuSans-103"/>
     <use x="1732.166016" xlink:href="#DejaVuSans-101"/>
     <use x="1793.689453" xlink:href="#DejaVuSans-32"/>
     <use x="1825.476562" xlink:href="#DejaVuSans-112"/>
     <use x="1888.953125" xlink:href="#DejaVuSans-97"/>
     <use x="1950.232422" xlink:href="#DejaVuSans-116"/>
     <use x="1989.441406" xlink:href="#DejaVuSans-116"/>
     <use x="2028.650391" xlink:href="#DejaVuSans-101"/>
     <use x="2090.173828" xlink:href="#DejaVuSans-114"/>
     <use x="2131.271484" xlink:href="#DejaVuSans-110"/>
     <use x="2194.650391" xlink:href="#DejaVuSans-32"/>
     <use x="2226.4375" xlink:href="#DejaVuSans-99"/>
     <use x="2281.417969" xlink:href="#DejaVuSans-104"/>
     <use x="2344.796875" xlink:href="#DejaVuSans-97"/>
     <use x="2406.076172" xlink:href="#DejaVuSans-110"/>
     <use x="2469.455078" xlink:href="#DejaVuSans-103"/>
     <use x="2532.931641" xlink:href="#DejaVuSans-101"/>
     <use x="2594.455078" xlink:href="#DejaVuSans-32"/>
     <use x="2626.242188" xlink:href="#DejaVuSans-111"/>
     <use x="2687.423828" xlink:href="#DejaVuSans-118"/>
     <use x="2746.603516" xlink:href="#DejaVuSans-101"/>
     <use x="2808.126953" xlink:href="#DejaVuSans-114"/>
     <use x="2849.240234" xlink:href="#DejaVuSans-32"/>
     <use x="2881.027344" xlink:href="#DejaVuSans-116"/>
     <use x="2920.236328" xlink:href="#DejaVuSans-105"/>
     <use x="2948.019531" xlink:href="#DejaVuSans-109"/>
     <use x="3045.431641" xlink:href="#DejaVuSans-101"/>
     <use x="3106.955078" xlink:href="#DejaVuSans-63"/>
    </g>
   </g>
   <g id="legend_1">
    <g id="patch_119">
     <path d="M 1037.190721 63.964628 
L 1127.348221 63.964628 
Q 1129.748221 63.964628 1129.748221 61.564628 
L 1129.748221 44.817128 
Q 1129.748221 42.417128 1127.348221 42.417128 
L 1037.190721 42.417128 
Q 1034.790721 42.417128 1034.790721 44.817128 
L 1034.790721 61.564628 
Q 1034.790721 63.964628 1037.190721 63.964628 
z
" style="fill:#ffffff;opacity:0.8;stroke:#cccccc;stroke-linejoin:miter;"/>
    </g>
    <g id="patch_120">
     <path d="M 1039.590721 56.335253 
L 1063.590721 56.335253 
L 1063.590721 47.935253 
L 1039.590721 47.935253 
z
" style="fill:#348abd;"/>
    </g>
    <g id="text_37">
     <!-- E_59672 -->
     <defs>
      <path d="M 50.984375 -16.609375 
L 50.984375 -23.578125 
L -0.984375 -23.578125 
L -0.984375 -16.609375 
z
" id="DejaVuSans-95"/>
      <path d="M 10.984375 1.515625 
L 10.984375 10.5 
Q 14.703125 8.734375 18.5 7.8125 
Q 22.3125 6.890625 25.984375 6.890625 
Q 35.75 6.890625 40.890625 13.453125 
Q 46.046875 20.015625 46.78125 33.40625 
Q 43.953125 29.203125 39.59375 26.953125 
Q 35.25 24.703125 29.984375 24.703125 
Q 19.046875 24.703125 12.671875 31.3125 
Q 6.296875 37.9375 6.296875 49.421875 
Q 6.296875 60.640625 12.9375 67.421875 
Q 19.578125 74.21875 30.609375 74.21875 
Q 43.265625 74.21875 49.921875 64.515625 
Q 56.59375 54.828125 56.59375 36.375 
Q 56.59375 19.140625 48.40625 8.859375 
Q 40.234375 -1.421875 26.421875 -1.421875 
Q 22.703125 -1.421875 18.890625 -0.6875 
Q 15.09375 0.046875 10.984375 1.515625 
z
M 30.609375 32.421875 
Q 37.25 32.421875 41.125 36.953125 
Q 45.015625 41.5 45.015625 49.421875 
Q 45.015625 57.28125 41.125 61.84375 
Q 37.25 66.40625 30.609375 66.40625 
Q 23.96875 66.40625 20.09375 61.84375 
Q 16.21875 57.28125 16.21875 49.421875 
Q 16.21875 41.5 20.09375 36.953125 
Q 23.96875 32.421875 30.609375 32.421875 
z
" id="DejaVuSans-57"/>
     </defs>
     <g transform="translate(1073.190721 56.335253)scale(0.12 -0.12)">
      <use xlink:href="#DejaVuSans-69"/>
      <use x="63.183594" xlink:href="#DejaVuSans-95"/>
      <use x="113.183594" xlink:href="#DejaVuSans-53"/>
      <use x="176.806641" xlink:href="#DejaVuSans-57"/>
      <use x="240.429688" xlink:href="#DejaVuSans-54"/>
      <use x="304.052734" xlink:href="#DejaVuSans-55"/>
      <use x="367.675781" xlink:href="#DejaVuSans-50"/>
     </g>
    </g>
   </g>
  </g>
 </g>
 <defs>
  <clipPath id="p07edc3dcd9">
   <rect height="201.740565" width="1064.496615" x="71.251606" y="36.417128"/>
  </clipPath>
 </defs>
</svg>
