<?xml version="1.0" encoding="utf-8" standalone="no"?>
<!DOCTYPE svg PUBLIC "-//W3C//DTD SVG 1.1//EN"
  "http://www.w3.org/Graphics/SVG/1.1/DTD/svg11.dtd">
<!-- Created with matplotlib (https://matplotlib.org/) -->
<svg height="347.673315pt" version="1.1" viewBox="0 0 1145.2865 347.673315" width="1145.2865pt" xmlns="http://www.w3.org/2000/svg" xmlns:xlink="http://www.w3.org/1999/xlink">
 <defs>
  <style type="text/css">
*{stroke-linecap:butt;stroke-linejoin:round;}
  </style>
 </defs>
 <g id="figure_1">
  <g id="patch_1">
   <path d="M 0 347.673315 
L 1145.2865 347.673315 
L 1145.2865 0 
L 0 0 
z
" style="fill:#ffffff;"/>
  </g>
  <g id="axes_1">
   <g id="patch_2">
    <path d="M 74.3115 238.064885 
L 1138.0865 238.064885 
L 1138.0865 36.412709 
L 74.3115 36.412709 
z
" style="fill:#ffffff;"/>
   </g>
   <g id="patch_3">
    <path clip-path="url(#p934beeb584)" d="M 80.891552 238.064885 
L 89.664954 238.064885 
L 89.664954 188.232728 
L 80.891552 188.232728 
z
" style="fill:#348abd;"/>
   </g>
   <g id="patch_4">
    <path clip-path="url(#p934beeb584)" d="M 91.858304 238.064885 
L 100.631706 238.064885 
L 100.631706 86.964211 
L 91.858304 86.964211 
z
" style="fill:#348abd;"/>
   </g>
   <g id="patch_5">
    <path clip-path="url(#p934beeb584)" d="M 102.825057 238.064885 
L 111.598459 238.064885 
L 111.598459 107.120425 
L 102.825057 107.120425 
z
" style="fill:#348abd;"/>
   </g>
   <g id="patch_6">
    <path clip-path="url(#p934beeb584)" d="M 113.791809 238.064885 
L 122.565211 238.064885 
L 122.565211 86.840531 
L 113.791809 86.840531 
z
" style="fill:#348abd;"/>
   </g>
   <g id="patch_7">
    <path clip-path="url(#p934beeb584)" d="M 124.758562 238.064885 
L 133.531964 238.064885 
L 133.531964 72.155341 
L 124.758562 72.155341 
z
" style="fill:#348abd;"/>
   </g>
   <g id="patch_8">
    <path clip-path="url(#p934beeb584)" d="M 135.725314 238.064885 
L 144.498716 238.064885 
L 144.498716 89.79794 
L 135.725314 89.79794 
z
" style="fill:#348abd;"/>
   </g>
   <g id="patch_9">
    <path clip-path="url(#p934beeb584)" d="M 146.692067 238.064885 
L 155.465469 238.064885 
L 155.465469 87.251585 
L 146.692067 87.251585 
z
" style="fill:#348abd;"/>
   </g>
   <g id="patch_10">
    <path clip-path="url(#p934beeb584)" d="M 157.65882 238.064885 
L 166.432222 238.064885 
L 166.432222 73.643139 
L 157.65882 73.643139 
z
" style="fill:#348abd;"/>
   </g>
   <g id="patch_11">
    <path clip-path="url(#p934beeb584)" d="M 168.625572 238.064885 
L 177.398974 238.064885 
L 177.398974 86.236681 
L 168.625572 86.236681 
z
" style="fill:#348abd;"/>
   </g>
   <g id="patch_12">
    <path clip-path="url(#p934beeb584)" d="M 179.592325 238.064885 
L 188.365727 238.064885 
L 188.365727 72.515468 
L 179.592325 72.515468 
z
" style="fill:#348abd;"/>
   </g>
   <g id="patch_13">
    <path clip-path="url(#p934beeb584)" d="M 190.559077 238.064885 
L 199.332479 238.064885 
L 199.332479 82.915507 
L 190.559077 82.915507 
z
" style="fill:#348abd;"/>
   </g>
   <g id="patch_14">
    <path clip-path="url(#p934beeb584)" d="M 201.52583 238.064885 
L 210.299232 238.064885 
L 210.299232 95.581802 
L 201.52583 95.581802 
z
" style="fill:#348abd;"/>
   </g>
   <g id="patch_15">
    <path clip-path="url(#p934beeb584)" d="M 212.492582 238.064885 
L 221.265985 238.064885 
L 221.265985 94.908837 
L 212.492582 94.908837 
z
" style="fill:#348abd;"/>
   </g>
   <g id="patch_16">
    <path clip-path="url(#p934beeb584)" d="M 223.459335 238.064885 
L 232.232737 238.064885 
L 232.232737 109.55765 
L 223.459335 109.55765 
z
" style="fill:#348abd;"/>
   </g>
   <g id="patch_17">
    <path clip-path="url(#p934beeb584)" d="M 234.426088 238.064885 
L 243.19949 238.064885 
L 243.19949 114.563056 
L 234.426088 114.563056 
z
" style="fill:#348abd;"/>
   </g>
   <g id="patch_18">
    <path clip-path="url(#p934beeb584)" d="M 245.39284 238.064885 
L 254.166242 238.064885 
L 254.166242 181.710423 
L 245.39284 181.710423 
z
" style="fill:#348abd;"/>
   </g>
   <g id="patch_19">
    <path clip-path="url(#p934beeb584)" d="M 256.359593 238.064885 
L 265.132995 238.064885 
L 265.132995 190.477158 
L 256.359593 190.477158 
z
" style="fill:#348abd;"/>
   </g>
   <g id="patch_20">
    <path clip-path="url(#p934beeb584)" d="M 267.326345 238.064885 
L 276.099747 238.064885 
L 276.099747 100.90732 
L 267.326345 100.90732 
z
" style="fill:#348abd;"/>
   </g>
   <g id="patch_21">
    <path clip-path="url(#p934beeb584)" d="M 278.293098 238.064885 
L 287.0665 238.064885 
L 287.0665 97.975375 
L 278.293098 97.975375 
z
" style="fill:#348abd;"/>
   </g>
   <g id="patch_22">
    <path clip-path="url(#p934beeb584)" d="M 289.259851 238.064885 
L 298.033253 238.064885 
L 298.033253 98.775658 
L 289.259851 98.775658 
z
" style="fill:#348abd;"/>
   </g>
   <g id="patch_23">
    <path clip-path="url(#p934beeb584)" d="M 300.226603 238.064885 
L 309.000005 238.064885 
L 309.000005 68.383099 
L 300.226603 68.383099 
z
" style="fill:#348abd;"/>
   </g>
   <g id="patch_24">
    <path clip-path="url(#p934beeb584)" d="M 311.193356 238.064885 
L 319.966758 238.064885 
L 319.966758 72.351774 
L 311.193356 72.351774 
z
" style="fill:#348abd;"/>
   </g>
   <g id="patch_25">
    <path clip-path="url(#p934beeb584)" d="M 322.160108 238.064885 
L 330.93351 238.064885 
L 330.93351 74.829013 
L 322.160108 74.829013 
z
" style="fill:#348abd;"/>
   </g>
   <g id="patch_26">
    <path clip-path="url(#p934beeb584)" d="M 333.126861 238.064885 
L 341.900263 238.064885 
L 341.900263 60.962294 
L 333.126861 60.962294 
z
" style="fill:#348abd;"/>
   </g>
   <g id="patch_27">
    <path clip-path="url(#p934beeb584)" d="M 344.093613 238.064885 
L 352.867015 238.064885 
L 352.867015 87.204296 
L 344.093613 87.204296 
z
" style="fill:#348abd;"/>
   </g>
   <g id="patch_28">
    <path clip-path="url(#p934beeb584)" d="M 355.060366 238.064885 
L 363.833768 238.064885 
L 363.833768 89.877968 
L 355.060366 89.877968 
z
" style="fill:#348abd;"/>
   </g>
   <g id="patch_29">
    <path clip-path="url(#p934beeb584)" d="M 366.027119 238.064885 
L 374.800521 238.064885 
L 374.800521 72.973812 
L 366.027119 72.973812 
z
" style="fill:#348abd;"/>
   </g>
   <g id="patch_30">
    <path clip-path="url(#p934beeb584)" d="M 376.993871 238.064885 
L 385.767273 238.064885 
L 385.767273 80.496471 
L 376.993871 80.496471 
z
" style="fill:#348abd;"/>
   </g>
   <g id="patch_31">
    <path clip-path="url(#p934beeb584)" d="M 387.960624 238.064885 
L 396.734026 238.064885 
L 396.734026 89.201365 
L 387.960624 89.201365 
z
" style="fill:#348abd;"/>
   </g>
   <g id="patch_32">
    <path clip-path="url(#p934beeb584)" d="M 398.927376 238.064885 
L 407.700778 238.064885 
L 407.700778 110.434324 
L 398.927376 110.434324 
z
" style="fill:#348abd;"/>
   </g>
   <g id="patch_33">
    <path clip-path="url(#p934beeb584)" d="M 409.894129 238.064885 
L 418.667531 238.064885 
L 418.667531 117.847853 
L 409.894129 117.847853 
z
" style="fill:#348abd;"/>
   </g>
   <g id="patch_34">
    <path clip-path="url(#p934beeb584)" d="M 420.860881 238.064885 
L 429.634284 238.064885 
L 429.634284 168.443916 
L 420.860881 168.443916 
z
" style="fill:#348abd;"/>
   </g>
   <g id="patch_35">
    <path clip-path="url(#p934beeb584)" d="M 431.827634 238.064885 
L 440.601036 238.064885 
L 440.601036 182.328823 
L 431.827634 182.328823 
z
" style="fill:#348abd;"/>
   </g>
   <g id="patch_36">
    <path clip-path="url(#p934beeb584)" d="M 442.794387 238.064885 
L 451.567789 238.064885 
L 451.567789 98.371879 
L 442.794387 98.371879 
z
" style="fill:#348abd;"/>
   </g>
   <g id="patch_37">
    <path clip-path="url(#p934beeb584)" d="M 453.761139 238.064885 
L 462.534541 238.064885 
L 462.534541 101.347476 
L 453.761139 101.347476 
z
" style="fill:#348abd;"/>
   </g>
   <g id="patch_38">
    <path clip-path="url(#p934beeb584)" d="M 464.727892 238.064885 
L 473.501294 238.064885 
L 473.501294 93.504704 
L 464.727892 93.504704 
z
" style="fill:#348abd;"/>
   </g>
   <g id="patch_39">
    <path clip-path="url(#p934beeb584)" d="M 475.694644 238.064885 
L 484.468046 238.064885 
L 484.468046 81.027567 
L 475.694644 81.027567 
z
" style="fill:#348abd;"/>
   </g>
   <g id="patch_40">
    <path clip-path="url(#p934beeb584)" d="M 486.661397 238.064885 
L 495.434799 238.064885 
L 495.434799 65.582109 
L 486.661397 65.582109 
z
" style="fill:#348abd;"/>
   </g>
   <g id="patch_41">
    <path clip-path="url(#p934beeb584)" d="M 497.628149 238.064885 
L 506.401552 238.064885 
L 506.401552 87.098804 
L 497.628149 87.098804 
z
" style="fill:#348abd;"/>
   </g>
   <g id="patch_42">
    <path clip-path="url(#p934beeb584)" d="M 508.594902 238.064885 
L 517.368304 238.064885 
L 517.368304 71.635157 
L 508.594902 71.635157 
z
" style="fill:#348abd;"/>
   </g>
   <g id="patch_43">
    <path clip-path="url(#p934beeb584)" d="M 519.561655 238.064885 
L 528.335057 238.064885 
L 528.335057 79.576145 
L 519.561655 79.576145 
z
" style="fill:#348abd;"/>
   </g>
   <g id="patch_44">
    <path clip-path="url(#p934beeb584)" d="M 530.528407 238.064885 
L 539.301809 238.064885 
L 539.301809 83.352025 
L 530.528407 83.352025 
z
" style="fill:#348abd;"/>
   </g>
   <g id="patch_45">
    <path clip-path="url(#p934beeb584)" d="M 541.49516 238.064885 
L 550.268562 238.064885 
L 550.268562 66.371479 
L 541.49516 66.371479 
z
" style="fill:#348abd;"/>
   </g>
   <g id="patch_46">
    <path clip-path="url(#p934beeb584)" d="M 552.461912 238.064885 
L 561.235314 238.064885 
L 561.235314 90.201719 
L 552.461912 90.201719 
z
" style="fill:#348abd;"/>
   </g>
   <g id="patch_47">
    <path clip-path="url(#p934beeb584)" d="M 563.428665 238.064885 
L 572.202067 238.064885 
L 572.202067 71.293218 
L 563.428665 71.293218 
z
" style="fill:#348abd;"/>
   </g>
   <g id="patch_48">
    <path clip-path="url(#p934beeb584)" d="M 574.395418 238.064885 
L 583.16882 238.064885 
L 583.16882 91.795009 
L 574.395418 91.795009 
z
" style="fill:#348abd;"/>
   </g>
   <g id="patch_49">
    <path clip-path="url(#p934beeb584)" d="M 585.36217 238.064885 
L 594.135572 238.064885 
L 594.135572 117.509552 
L 585.36217 117.509552 
z
" style="fill:#348abd;"/>
   </g>
   <g id="patch_50">
    <path clip-path="url(#p934beeb584)" d="M 596.328923 238.064885 
L 605.102325 238.064885 
L 605.102325 160.477464 
L 596.328923 160.477464 
z
" style="fill:#348abd;"/>
   </g>
   <g id="patch_51">
    <path clip-path="url(#p934beeb584)" d="M 607.295675 238.064885 
L 616.069077 238.064885 
L 616.069077 196.024573 
L 607.295675 196.024573 
z
" style="fill:#348abd;"/>
   </g>
   <g id="patch_52">
    <path clip-path="url(#p934beeb584)" d="M 618.262428 238.064885 
L 627.03583 238.064885 
L 627.03583 103.973859 
L 618.262428 103.973859 
z
" style="fill:#348abd;"/>
   </g>
   <g id="patch_53">
    <path clip-path="url(#p934beeb584)" d="M 629.22918 238.064885 
L 638.002582 238.064885 
L 638.002582 83.559371 
L 629.22918 83.559371 
z
" style="fill:#348abd;"/>
   </g>
   <g id="patch_54">
    <path clip-path="url(#p934beeb584)" d="M 640.195933 238.064885 
L 648.969335 238.064885 
L 648.969335 83.279272 
L 640.195933 83.279272 
z
" style="fill:#348abd;"/>
   </g>
   <g id="patch_55">
    <path clip-path="url(#p934beeb584)" d="M 651.162686 238.064885 
L 659.936088 238.064885 
L 659.936088 83.744891 
L 651.162686 83.744891 
z
" style="fill:#348abd;"/>
   </g>
   <g id="patch_56">
    <path clip-path="url(#p934beeb584)" d="M 662.129438 238.064885 
L 670.90284 238.064885 
L 670.90284 74.305192 
L 662.129438 74.305192 
z
" style="fill:#348abd;"/>
   </g>
   <g id="patch_57">
    <path clip-path="url(#p934beeb584)" d="M 673.096191 238.064885 
L 681.869593 238.064885 
L 681.869593 83.522995 
L 673.096191 83.522995 
z
" style="fill:#348abd;"/>
   </g>
   <g id="patch_58">
    <path clip-path="url(#p934beeb584)" d="M 684.062943 238.064885 
L 692.836345 238.064885 
L 692.836345 67.757423 
L 684.062943 67.757423 
z
" style="fill:#348abd;"/>
   </g>
   <g id="patch_59">
    <path clip-path="url(#p934beeb584)" d="M 695.029696 238.064885 
L 703.803098 238.064885 
L 703.803098 65.702151 
L 695.029696 65.702151 
z
" style="fill:#348abd;"/>
   </g>
   <g id="patch_60">
    <path clip-path="url(#p934beeb584)" d="M 705.996448 238.064885 
L 714.769851 238.064885 
L 714.769851 71.907981 
L 705.996448 71.907981 
z
" style="fill:#348abd;"/>
   </g>
   <g id="patch_61">
    <path clip-path="url(#p934beeb584)" d="M 716.963201 238.064885 
L 725.736603 238.064885 
L 725.736603 60.591254 
L 716.963201 60.591254 
z
" style="fill:#348abd;"/>
   </g>
   <g id="patch_62">
    <path clip-path="url(#p934beeb584)" d="M 727.929954 238.064885 
L 736.703356 238.064885 
L 736.703356 77.451758 
L 727.929954 77.451758 
z
" style="fill:#348abd;"/>
   </g>
   <g id="patch_63">
    <path clip-path="url(#p934beeb584)" d="M 738.896706 238.064885 
L 747.670108 238.064885 
L 747.670108 84.712506 
L 738.896706 84.712506 
z
" style="fill:#348abd;"/>
   </g>
   <g id="patch_64">
    <path clip-path="url(#p934beeb584)" d="M 749.863459 238.064885 
L 758.636861 238.064885 
L 758.636861 82.384411 
L 749.863459 82.384411 
z
" style="fill:#348abd;"/>
   </g>
   <g id="patch_65">
    <path clip-path="url(#p934beeb584)" d="M 760.830211 238.064885 
L 769.603613 238.064885 
L 769.603613 94.927025 
L 760.830211 94.927025 
z
" style="fill:#348abd;"/>
   </g>
   <g id="patch_66">
    <path clip-path="url(#p934beeb584)" d="M 771.796964 238.064885 
L 780.570366 238.064885 
L 780.570366 153.394961 
L 771.796964 153.394961 
z
" style="fill:#348abd;"/>
   </g>
   <g id="patch_67">
    <path clip-path="url(#p934beeb584)" d="M 782.763716 238.064885 
L 791.537119 238.064885 
L 791.537119 188.367321 
L 782.763716 188.367321 
z
" style="fill:#348abd;"/>
   </g>
   <g id="patch_68">
    <path clip-path="url(#p934beeb584)" d="M 793.730469 238.064885 
L 802.503871 238.064885 
L 802.503871 91.176609 
L 793.730469 91.176609 
z
" style="fill:#348abd;"/>
   </g>
   <g id="patch_69">
    <path clip-path="url(#p934beeb584)" d="M 804.697222 238.064885 
L 813.470624 238.064885 
L 813.470624 66.989879 
L 804.697222 66.989879 
z
" style="fill:#348abd;"/>
   </g>
   <g id="patch_70">
    <path clip-path="url(#p934beeb584)" d="M 815.663974 238.064885 
L 824.437376 238.064885 
L 824.437376 78.626719 
L 815.663974 78.626719 
z
" style="fill:#348abd;"/>
   </g>
   <g id="patch_71">
    <path clip-path="url(#p934beeb584)" d="M 826.630727 238.064885 
L 835.404129 238.064885 
L 835.404129 77.426295 
L 826.630727 77.426295 
z
" style="fill:#348abd;"/>
   </g>
   <g id="patch_72">
    <path clip-path="url(#p934beeb584)" d="M 837.597479 238.064885 
L 846.370881 238.064885 
L 846.370881 75.032721 
L 837.597479 75.032721 
z
" style="fill:#348abd;"/>
   </g>
   <g id="patch_73">
    <path clip-path="url(#p934beeb584)" d="M 848.564232 238.064885 
L 857.337634 238.064885 
L 857.337634 82.595394 
L 848.564232 82.595394 
z
" style="fill:#348abd;"/>
   </g>
   <g id="patch_74">
    <path clip-path="url(#p934beeb584)" d="M 859.530985 238.064885 
L 868.304387 238.064885 
L 868.304387 69.710841 
L 859.530985 69.710841 
z
" style="fill:#348abd;"/>
   </g>
   <g id="patch_75">
    <path clip-path="url(#p934beeb584)" d="M 870.497737 238.064885 
L 879.271139 238.064885 
L 879.271139 60.653094 
L 870.497737 60.653094 
z
" style="fill:#348abd;"/>
   </g>
   <g id="patch_76">
    <path clip-path="url(#p934beeb584)" d="M 881.46449 238.064885 
L 890.237892 238.064885 
L 890.237892 67.037168 
L 881.46449 67.037168 
z
" style="fill:#348abd;"/>
   </g>
   <g id="patch_77">
    <path clip-path="url(#p934beeb584)" d="M 892.431242 238.064885 
L 901.204644 238.064885 
L 901.204644 69.681739 
L 892.431242 69.681739 
z
" style="fill:#348abd;"/>
   </g>
   <g id="patch_78">
    <path clip-path="url(#p934beeb584)" d="M 903.397995 238.064885 
L 912.171397 238.064885 
L 912.171397 73.53401 
L 903.397995 73.53401 
z
" style="fill:#348abd;"/>
   </g>
   <g id="patch_79">
    <path clip-path="url(#p934beeb584)" d="M 914.364747 238.064885 
L 923.138149 238.064885 
L 923.138149 77.74277 
L 914.364747 77.74277 
z
" style="fill:#348abd;"/>
   </g>
   <g id="patch_80">
    <path clip-path="url(#p934beeb584)" d="M 925.3315 238.064885 
L 934.104902 238.064885 
L 934.104902 75.414675 
L 925.3315 75.414675 
z
" style="fill:#348abd;"/>
   </g>
   <g id="patch_81">
    <path clip-path="url(#p934beeb584)" d="M 936.298253 238.064885 
L 945.071655 238.064885 
L 945.071655 89.539667 
L 936.298253 89.539667 
z
" style="fill:#348abd;"/>
   </g>
   <g id="patch_82">
    <path clip-path="url(#p934beeb584)" d="M 947.265005 238.064885 
L 956.038407 238.064885 
L 956.038407 115.425179 
L 947.265005 115.425179 
z
" style="fill:#348abd;"/>
   </g>
   <g id="patch_83">
    <path clip-path="url(#p934beeb584)" d="M 958.231758 238.064885 
L 967.00516 238.064885 
L 967.00516 149.753674 
L 958.231758 149.753674 
z
" style="fill:#348abd;"/>
   </g>
   <g id="patch_84">
    <path clip-path="url(#p934beeb584)" d="M 969.19851 238.064885 
L 977.971912 238.064885 
L 977.971912 81.64233 
L 969.19851 81.64233 
z
" style="fill:#348abd;"/>
   </g>
   <g id="patch_85">
    <path clip-path="url(#p934beeb584)" d="M 980.165263 238.064885 
L 988.938665 238.064885 
L 988.938665 69.012412 
L 980.165263 69.012412 
z
" style="fill:#348abd;"/>
   </g>
   <g id="patch_86">
    <path clip-path="url(#p934beeb584)" d="M 991.132015 238.064885 
L 999.905418 238.064885 
L 999.905418 71.922531 
L 991.132015 71.922531 
z
" style="fill:#348abd;"/>
   </g>
   <g id="patch_87">
    <path clip-path="url(#p934beeb584)" d="M 1002.098768 238.064885 
L 1010.87217 238.064885 
L 1010.87217 47.033735 
L 1002.098768 47.033735 
z
" style="fill:#348abd;"/>
   </g>
   <g id="patch_88">
    <path clip-path="url(#p934beeb584)" d="M 1013.065521 238.064885 
L 1021.838923 238.064885 
L 1021.838923 49.700132 
L 1013.065521 49.700132 
z
" style="fill:#348abd;"/>
   </g>
   <g id="patch_89">
    <path clip-path="url(#p934beeb584)" d="M 1024.032273 238.064885 
L 1032.805675 238.064885 
L 1032.805675 57.932132 
L 1024.032273 57.932132 
z
" style="fill:#348abd;"/>
   </g>
   <g id="patch_90">
    <path clip-path="url(#p934beeb584)" d="M 1034.999026 238.064885 
L 1043.772428 238.064885 
L 1043.772428 46.015193 
L 1034.999026 46.015193 
z
" style="fill:#348abd;"/>
   </g>
   <g id="patch_91">
    <path clip-path="url(#p934beeb584)" d="M 1045.965778 238.064885 
L 1054.73918 238.064885 
L 1054.73918 49.027167 
L 1045.965778 49.027167 
z
" style="fill:#348abd;"/>
   </g>
   <g id="patch_92">
    <path clip-path="url(#p934beeb584)" d="M 1056.932531 238.064885 
L 1065.705933 238.064885 
L 1065.705933 57.204602 
L 1056.932531 57.204602 
z
" style="fill:#348abd;"/>
   </g>
   <g id="patch_93">
    <path clip-path="url(#p934beeb584)" d="M 1067.899284 238.064885 
L 1076.672686 238.064885 
L 1076.672686 71.766112 
L 1067.899284 71.766112 
z
" style="fill:#348abd;"/>
   </g>
   <g id="patch_94">
    <path clip-path="url(#p934beeb584)" d="M 1078.866036 238.064885 
L 1087.639438 238.064885 
L 1087.639438 49.987506 
L 1078.866036 49.987506 
z
" style="fill:#348abd;"/>
   </g>
   <g id="patch_95">
    <path clip-path="url(#p934beeb584)" d="M 1089.832789 238.064885 
L 1098.606191 238.064885 
L 1098.606191 66.516985 
L 1089.832789 66.516985 
z
" style="fill:#348abd;"/>
   </g>
   <g id="patch_96">
    <path clip-path="url(#p934beeb584)" d="M 1100.799541 238.064885 
L 1109.572943 238.064885 
L 1109.572943 92.929956 
L 1100.799541 92.929956 
z
" style="fill:#348abd;"/>
   </g>
   <g id="patch_97">
    <path clip-path="url(#p934beeb584)" d="M 1111.766294 238.064885 
L 1120.539696 238.064885 
L 1120.539696 100.427151 
L 1111.766294 100.427151 
z
" style="fill:#348abd;"/>
   </g>
   <g id="patch_98">
    <path clip-path="url(#p934beeb584)" d="M 1122.733046 238.064885 
L 1131.506448 238.064885 
L 1131.506448 111.176404 
L 1122.733046 111.176404 
z
" style="fill:#348abd;"/>
   </g>
   <g id="matplotlib.axis_1">
    <g id="xtick_1">
     <g id="line2d_1">
      <path clip-path="url(#p934beeb584)" d="M 85.278253 238.064885 
L 85.278253 36.412709 
" style="fill:none;stroke:#808080;stroke-dasharray:0.5,0.825;stroke-dashoffset:0;stroke-width:0.5;"/>
     </g>
     <g id="line2d_2">
      <defs>
       <path d="M 0 0 
L 0 3.5 
" id="m5d390c6e2f" style="stroke:#000000;stroke-width:0.8;"/>
      </defs>
      <g>
       <use style="stroke:#000000;stroke-width:0.8;" x="85.278253" xlink:href="#m5d390c6e2f" y="238.064885"/>
      </g>
     </g>
     <g id="text_1">
      <!-- 04/11/19 00:00 -->
      <defs>
       <path d="M 31.78125 66.40625 
Q 24.171875 66.40625 20.328125 58.90625 
Q 16.5 51.421875 16.5 36.375 
Q 16.5 21.390625 20.328125 13.890625 
Q 24.171875 6.390625 31.78125 6.390625 
Q 39.453125 6.390625 43.28125 13.890625 
Q 47.125 21.390625 47.125 36.375 
Q 47.125 51.421875 43.28125 58.90625 
Q 39.453125 66.40625 31.78125 66.40625 
z
M 31.78125 74.21875 
Q 44.046875 74.21875 50.515625 64.515625 
Q 56.984375 54.828125 56.984375 36.375 
Q 56.984375 17.96875 50.515625 8.265625 
Q 44.046875 -1.421875 31.78125 -1.421875 
Q 19.53125 -1.421875 13.0625 8.265625 
Q 6.59375 17.96875 6.59375 36.375 
Q 6.59375 54.828125 13.0625 64.515625 
Q 19.53125 74.21875 31.78125 74.21875 
z
" id="DejaVuSans-48"/>
       <path d="M 37.796875 64.3125 
L 12.890625 25.390625 
L 37.796875 25.390625 
z
M 35.203125 72.90625 
L 47.609375 72.90625 
L 47.609375 25.390625 
L 58.015625 25.390625 
L 58.015625 17.1875 
L 47.609375 17.1875 
L 47.609375 0 
L 37.796875 0 
L 37.796875 17.1875 
L 4.890625 17.1875 
L 4.890625 26.703125 
z
" id="DejaVuSans-52"/>
       <path d="M 25.390625 72.90625 
L 33.6875 72.90625 
L 8.296875 -9.28125 
L 0 -9.28125 
z
" id="DejaVuSans-47"/>
       <path d="M 12.40625 8.296875 
L 28.515625 8.296875 
L 28.515625 63.921875 
L 10.984375 60.40625 
L 10.984375 69.390625 
L 28.421875 72.90625 
L 38.28125 72.90625 
L 38.28125 8.296875 
L 54.390625 8.296875 
L 54.390625 0 
L 12.40625 0 
z
" id="DejaVuSans-49"/>
       <path d="M 10.984375 1.515625 
L 10.984375 10.5 
Q 14.703125 8.734375 18.5 7.8125 
Q 22.3125 6.890625 25.984375 6.890625 
Q 35.75 6.890625 40.890625 13.453125 
Q 46.046875 20.015625 46.78125 33.40625 
Q 43.953125 29.203125 39.59375 26.953125 
Q 35.25 24.703125 29.984375 24.703125 
Q 19.046875 24.703125 12.671875 31.3125 
Q 6.296875 37.9375 6.296875 49.421875 
Q 6.296875 60.640625 12.9375 67.421875 
Q 19.578125 74.21875 30.609375 74.21875 
Q 43.265625 74.21875 49.921875 64.515625 
Q 56.59375 54.828125 56.59375 36.375 
Q 56.59375 19.140625 48.40625 8.859375 
Q 40.234375 -1.421875 26.421875 -1.421875 
Q 22.703125 -1.421875 18.890625 -0.6875 
Q 15.09375 0.046875 10.984375 1.515625 
z
M 30.609375 32.421875 
Q 37.25 32.421875 41.125 36.953125 
Q 45.015625 41.5 45.015625 49.421875 
Q 45.015625 57.28125 41.125 61.84375 
Q 37.25 66.40625 30.609375 66.40625 
Q 23.96875 66.40625 20.09375 61.84375 
Q 16.21875 57.28125 16.21875 49.421875 
Q 16.21875 41.5 20.09375 36.953125 
Q 23.96875 32.421875 30.609375 32.421875 
z
" id="DejaVuSans-57"/>
       <path id="DejaVuSans-32"/>
       <path d="M 11.71875 12.40625 
L 22.015625 12.40625 
L 22.015625 0 
L 11.71875 0 
z
M 11.71875 51.703125 
L 22.015625 51.703125 
L 22.015625 39.3125 
L 11.71875 39.3125 
z
" id="DejaVuSans-58"/>
      </defs>
      <g transform="translate(18.25381 316.772142)rotate(-45)scale(0.12 -0.12)">
       <use xlink:href="#DejaVuSans-48"/>
       <use x="63.623047" xlink:href="#DejaVuSans-52"/>
       <use x="127.246094" xlink:href="#DejaVuSans-47"/>
       <use x="160.9375" xlink:href="#DejaVuSans-49"/>
       <use x="224.560547" xlink:href="#DejaVuSans-49"/>
       <use x="288.183594" xlink:href="#DejaVuSans-47"/>
       <use x="321.875" xlink:href="#DejaVuSans-49"/>
       <use x="385.498047" xlink:href="#DejaVuSans-57"/>
       <use x="449.121094" xlink:href="#DejaVuSans-32"/>
       <use x="480.908203" xlink:href="#DejaVuSans-48"/>
       <use x="544.53125" xlink:href="#DejaVuSans-48"/>
       <use x="608.154297" xlink:href="#DejaVuSans-58"/>
       <use x="641.845703" xlink:href="#DejaVuSans-48"/>
       <use x="705.46875" xlink:href="#DejaVuSans-48"/>
      </g>
     </g>
    </g>
    <g id="xtick_2">
     <g id="line2d_3">
      <path clip-path="url(#p934beeb584)" d="M 129.145263 238.064885 
L 129.145263 36.412709 
" style="fill:none;stroke:#808080;stroke-dasharray:0.5,0.825;stroke-dashoffset:0;stroke-width:0.5;"/>
     </g>
     <g id="line2d_4">
      <g>
       <use style="stroke:#000000;stroke-width:0.8;" x="129.145263" xlink:href="#m5d390c6e2f" y="238.064885"/>
      </g>
     </g>
     <g id="text_2">
      <!-- 04/11/19 12:00 -->
      <defs>
       <path d="M 19.1875 8.296875 
L 53.609375 8.296875 
L 53.609375 0 
L 7.328125 0 
L 7.328125 8.296875 
Q 12.9375 14.109375 22.625 23.890625 
Q 32.328125 33.6875 34.8125 36.53125 
Q 39.546875 41.84375 41.421875 45.53125 
Q 43.3125 49.21875 43.3125 52.78125 
Q 43.3125 58.59375 39.234375 62.25 
Q 35.15625 65.921875 28.609375 65.921875 
Q 23.96875 65.921875 18.8125 64.3125 
Q 13.671875 62.703125 7.8125 59.421875 
L 7.8125 69.390625 
Q 13.765625 71.78125 18.9375 73 
Q 24.125 74.21875 28.421875 74.21875 
Q 39.75 74.21875 46.484375 68.546875 
Q 53.21875 62.890625 53.21875 53.421875 
Q 53.21875 48.921875 51.53125 44.890625 
Q 49.859375 40.875 45.40625 35.40625 
Q 44.1875 33.984375 37.640625 27.21875 
Q 31.109375 20.453125 19.1875 8.296875 
z
" id="DejaVuSans-50"/>
      </defs>
      <g transform="translate(62.120821 316.772142)rotate(-45)scale(0.12 -0.12)">
       <use xlink:href="#DejaVuSans-48"/>
       <use x="63.623047" xlink:href="#DejaVuSans-52"/>
       <use x="127.246094" xlink:href="#DejaVuSans-47"/>
       <use x="160.9375" xlink:href="#DejaVuSans-49"/>
       <use x="224.560547" xlink:href="#DejaVuSans-49"/>
       <use x="288.183594" xlink:href="#DejaVuSans-47"/>
       <use x="321.875" xlink:href="#DejaVuSans-49"/>
       <use x="385.498047" xlink:href="#DejaVuSans-57"/>
       <use x="449.121094" xlink:href="#DejaVuSans-32"/>
       <use x="480.908203" xlink:href="#DejaVuSans-49"/>
       <use x="544.53125" xlink:href="#DejaVuSans-50"/>
       <use x="608.154297" xlink:href="#DejaVuSans-58"/>
       <use x="641.845703" xlink:href="#DejaVuSans-48"/>
       <use x="705.46875" xlink:href="#DejaVuSans-48"/>
      </g>
     </g>
    </g>
    <g id="xtick_3">
     <g id="line2d_5">
      <path clip-path="url(#p934beeb584)" d="M 173.012273 238.064885 
L 173.012273 36.412709 
" style="fill:none;stroke:#808080;stroke-dasharray:0.5,0.825;stroke-dashoffset:0;stroke-width:0.5;"/>
     </g>
     <g id="line2d_6">
      <g>
       <use style="stroke:#000000;stroke-width:0.8;" x="173.012273" xlink:href="#m5d390c6e2f" y="238.064885"/>
      </g>
     </g>
     <g id="text_3">
      <!-- 04/11/19 16:00 -->
      <defs>
       <path d="M 33.015625 40.375 
Q 26.375 40.375 22.484375 35.828125 
Q 18.609375 31.296875 18.609375 23.390625 
Q 18.609375 15.53125 22.484375 10.953125 
Q 26.375 6.390625 33.015625 6.390625 
Q 39.65625 6.390625 43.53125 10.953125 
Q 47.40625 15.53125 47.40625 23.390625 
Q 47.40625 31.296875 43.53125 35.828125 
Q 39.65625 40.375 33.015625 40.375 
z
M 52.59375 71.296875 
L 52.59375 62.3125 
Q 48.875 64.0625 45.09375 64.984375 
Q 41.3125 65.921875 37.59375 65.921875 
Q 27.828125 65.921875 22.671875 59.328125 
Q 17.53125 52.734375 16.796875 39.40625 
Q 19.671875 43.65625 24.015625 45.921875 
Q 28.375 48.1875 33.59375 48.1875 
Q 44.578125 48.1875 50.953125 41.515625 
Q 57.328125 34.859375 57.328125 23.390625 
Q 57.328125 12.15625 50.6875 5.359375 
Q 44.046875 -1.421875 33.015625 -1.421875 
Q 20.359375 -1.421875 13.671875 8.265625 
Q 6.984375 17.96875 6.984375 36.375 
Q 6.984375 53.65625 15.1875 63.9375 
Q 23.390625 74.21875 37.203125 74.21875 
Q 40.921875 74.21875 44.703125 73.484375 
Q 48.484375 72.75 52.59375 71.296875 
z
" id="DejaVuSans-54"/>
      </defs>
      <g transform="translate(105.987831 316.772142)rotate(-45)scale(0.12 -0.12)">
       <use xlink:href="#DejaVuSans-48"/>
       <use x="63.623047" xlink:href="#DejaVuSans-52"/>
       <use x="127.246094" xlink:href="#DejaVuSans-47"/>
       <use x="160.9375" xlink:href="#DejaVuSans-49"/>
       <use x="224.560547" xlink:href="#DejaVuSans-49"/>
       <use x="288.183594" xlink:href="#DejaVuSans-47"/>
       <use x="321.875" xlink:href="#DejaVuSans-49"/>
       <use x="385.498047" xlink:href="#DejaVuSans-57"/>
       <use x="449.121094" xlink:href="#DejaVuSans-32"/>
       <use x="480.908203" xlink:href="#DejaVuSans-49"/>
       <use x="544.53125" xlink:href="#DejaVuSans-54"/>
       <use x="608.154297" xlink:href="#DejaVuSans-58"/>
       <use x="641.845703" xlink:href="#DejaVuSans-48"/>
       <use x="705.46875" xlink:href="#DejaVuSans-48"/>
      </g>
     </g>
    </g>
    <g id="xtick_4">
     <g id="line2d_7">
      <path clip-path="url(#p934beeb584)" d="M 216.879284 238.064885 
L 216.879284 36.412709 
" style="fill:none;stroke:#808080;stroke-dasharray:0.5,0.825;stroke-dashoffset:0;stroke-width:0.5;"/>
     </g>
     <g id="line2d_8">
      <g>
       <use style="stroke:#000000;stroke-width:0.8;" x="216.879284" xlink:href="#m5d390c6e2f" y="238.064885"/>
      </g>
     </g>
     <g id="text_4">
      <!-- 04/11/19 20:00 -->
      <g transform="translate(149.854841 316.772142)rotate(-45)scale(0.12 -0.12)">
       <use xlink:href="#DejaVuSans-48"/>
       <use x="63.623047" xlink:href="#DejaVuSans-52"/>
       <use x="127.246094" xlink:href="#DejaVuSans-47"/>
       <use x="160.9375" xlink:href="#DejaVuSans-49"/>
       <use x="224.560547" xlink:href="#DejaVuSans-49"/>
       <use x="288.183594" xlink:href="#DejaVuSans-47"/>
       <use x="321.875" xlink:href="#DejaVuSans-49"/>
       <use x="385.498047" xlink:href="#DejaVuSans-57"/>
       <use x="449.121094" xlink:href="#DejaVuSans-32"/>
       <use x="480.908203" xlink:href="#DejaVuSans-50"/>
       <use x="544.53125" xlink:href="#DejaVuSans-48"/>
       <use x="608.154297" xlink:href="#DejaVuSans-58"/>
       <use x="641.845703" xlink:href="#DejaVuSans-48"/>
       <use x="705.46875" xlink:href="#DejaVuSans-48"/>
      </g>
     </g>
    </g>
    <g id="xtick_5">
     <g id="line2d_9">
      <path clip-path="url(#p934beeb584)" d="M 260.746294 238.064885 
L 260.746294 36.412709 
" style="fill:none;stroke:#808080;stroke-dasharray:0.5,0.825;stroke-dashoffset:0;stroke-width:0.5;"/>
     </g>
     <g id="line2d_10">
      <g>
       <use style="stroke:#000000;stroke-width:0.8;" x="260.746294" xlink:href="#m5d390c6e2f" y="238.064885"/>
      </g>
     </g>
     <g id="text_5">
      <!-- 05/11/19 00:00 -->
      <defs>
       <path d="M 10.796875 72.90625 
L 49.515625 72.90625 
L 49.515625 64.59375 
L 19.828125 64.59375 
L 19.828125 46.734375 
Q 21.96875 47.46875 24.109375 47.828125 
Q 26.265625 48.1875 28.421875 48.1875 
Q 40.625 48.1875 47.75 41.5 
Q 54.890625 34.8125 54.890625 23.390625 
Q 54.890625 11.625 47.5625 5.09375 
Q 40.234375 -1.421875 26.90625 -1.421875 
Q 22.3125 -1.421875 17.546875 -0.640625 
Q 12.796875 0.140625 7.71875 1.703125 
L 7.71875 11.625 
Q 12.109375 9.234375 16.796875 8.0625 
Q 21.484375 6.890625 26.703125 6.890625 
Q 35.15625 6.890625 40.078125 11.328125 
Q 45.015625 15.765625 45.015625 23.390625 
Q 45.015625 31 40.078125 35.4375 
Q 35.15625 39.890625 26.703125 39.890625 
Q 22.75 39.890625 18.8125 39.015625 
Q 14.890625 38.140625 10.796875 36.28125 
z
" id="DejaVuSans-53"/>
      </defs>
      <g transform="translate(193.721852 316.772142)rotate(-45)scale(0.12 -0.12)">
       <use xlink:href="#DejaVuSans-48"/>
       <use x="63.623047" xlink:href="#DejaVuSans-53"/>
       <use x="127.246094" xlink:href="#DejaVuSans-47"/>
       <use x="160.9375" xlink:href="#DejaVuSans-49"/>
       <use x="224.560547" xlink:href="#DejaVuSans-49"/>
       <use x="288.183594" xlink:href="#DejaVuSans-47"/>
       <use x="321.875" xlink:href="#DejaVuSans-49"/>
       <use x="385.498047" xlink:href="#DejaVuSans-57"/>
       <use x="449.121094" xlink:href="#DejaVuSans-32"/>
       <use x="480.908203" xlink:href="#DejaVuSans-48"/>
       <use x="544.53125" xlink:href="#DejaVuSans-48"/>
       <use x="608.154297" xlink:href="#DejaVuSans-58"/>
       <use x="641.845703" xlink:href="#DejaVuSans-48"/>
       <use x="705.46875" xlink:href="#DejaVuSans-48"/>
      </g>
     </g>
    </g>
    <g id="xtick_6">
     <g id="line2d_11">
      <path clip-path="url(#p934beeb584)" d="M 304.613304 238.064885 
L 304.613304 36.412709 
" style="fill:none;stroke:#808080;stroke-dasharray:0.5,0.825;stroke-dashoffset:0;stroke-width:0.5;"/>
     </g>
     <g id="line2d_12">
      <g>
       <use style="stroke:#000000;stroke-width:0.8;" x="304.613304" xlink:href="#m5d390c6e2f" y="238.064885"/>
      </g>
     </g>
     <g id="text_6">
      <!-- 05/11/19 12:00 -->
      <g transform="translate(237.588862 316.772142)rotate(-45)scale(0.12 -0.12)">
       <use xlink:href="#DejaVuSans-48"/>
       <use x="63.623047" xlink:href="#DejaVuSans-53"/>
       <use x="127.246094" xlink:href="#DejaVuSans-47"/>
       <use x="160.9375" xlink:href="#DejaVuSans-49"/>
       <use x="224.560547" xlink:href="#DejaVuSans-49"/>
       <use x="288.183594" xlink:href="#DejaVuSans-47"/>
       <use x="321.875" xlink:href="#DejaVuSans-49"/>
       <use x="385.498047" xlink:href="#DejaVuSans-57"/>
       <use x="449.121094" xlink:href="#DejaVuSans-32"/>
       <use x="480.908203" xlink:href="#DejaVuSans-49"/>
       <use x="544.53125" xlink:href="#DejaVuSans-50"/>
       <use x="608.154297" xlink:href="#DejaVuSans-58"/>
       <use x="641.845703" xlink:href="#DejaVuSans-48"/>
       <use x="705.46875" xlink:href="#DejaVuSans-48"/>
      </g>
     </g>
    </g>
    <g id="xtick_7">
     <g id="line2d_13">
      <path clip-path="url(#p934beeb584)" d="M 348.480314 238.064885 
L 348.480314 36.412709 
" style="fill:none;stroke:#808080;stroke-dasharray:0.5,0.825;stroke-dashoffset:0;stroke-width:0.5;"/>
     </g>
     <g id="line2d_14">
      <g>
       <use style="stroke:#000000;stroke-width:0.8;" x="348.480314" xlink:href="#m5d390c6e2f" y="238.064885"/>
      </g>
     </g>
     <g id="text_7">
      <!-- 05/11/19 16:00 -->
      <g transform="translate(281.455872 316.772142)rotate(-45)scale(0.12 -0.12)">
       <use xlink:href="#DejaVuSans-48"/>
       <use x="63.623047" xlink:href="#DejaVuSans-53"/>
       <use x="127.246094" xlink:href="#DejaVuSans-47"/>
       <use x="160.9375" xlink:href="#DejaVuSans-49"/>
       <use x="224.560547" xlink:href="#DejaVuSans-49"/>
       <use x="288.183594" xlink:href="#DejaVuSans-47"/>
       <use x="321.875" xlink:href="#DejaVuSans-49"/>
       <use x="385.498047" xlink:href="#DejaVuSans-57"/>
       <use x="449.121094" xlink:href="#DejaVuSans-32"/>
       <use x="480.908203" xlink:href="#DejaVuSans-49"/>
       <use x="544.53125" xlink:href="#DejaVuSans-54"/>
       <use x="608.154297" xlink:href="#DejaVuSans-58"/>
       <use x="641.845703" xlink:href="#DejaVuSans-48"/>
       <use x="705.46875" xlink:href="#DejaVuSans-48"/>
      </g>
     </g>
    </g>
    <g id="xtick_8">
     <g id="line2d_15">
      <path clip-path="url(#p934beeb584)" d="M 392.347325 238.064885 
L 392.347325 36.412709 
" style="fill:none;stroke:#808080;stroke-dasharray:0.5,0.825;stroke-dashoffset:0;stroke-width:0.5;"/>
     </g>
     <g id="line2d_16">
      <g>
       <use style="stroke:#000000;stroke-width:0.8;" x="392.347325" xlink:href="#m5d390c6e2f" y="238.064885"/>
      </g>
     </g>
     <g id="text_8">
      <!-- 05/11/19 20:00 -->
      <g transform="translate(325.322883 316.772142)rotate(-45)scale(0.12 -0.12)">
       <use xlink:href="#DejaVuSans-48"/>
       <use x="63.623047" xlink:href="#DejaVuSans-53"/>
       <use x="127.246094" xlink:href="#DejaVuSans-47"/>
       <use x="160.9375" xlink:href="#DejaVuSans-49"/>
       <use x="224.560547" xlink:href="#DejaVuSans-49"/>
       <use x="288.183594" xlink:href="#DejaVuSans-47"/>
       <use x="321.875" xlink:href="#DejaVuSans-49"/>
       <use x="385.498047" xlink:href="#DejaVuSans-57"/>
       <use x="449.121094" xlink:href="#DejaVuSans-32"/>
       <use x="480.908203" xlink:href="#DejaVuSans-50"/>
       <use x="544.53125" xlink:href="#DejaVuSans-48"/>
       <use x="608.154297" xlink:href="#DejaVuSans-58"/>
       <use x="641.845703" xlink:href="#DejaVuSans-48"/>
       <use x="705.46875" xlink:href="#DejaVuSans-48"/>
      </g>
     </g>
    </g>
    <g id="xtick_9">
     <g id="line2d_17">
      <path clip-path="url(#p934beeb584)" d="M 436.214335 238.064885 
L 436.214335 36.412709 
" style="fill:none;stroke:#808080;stroke-dasharray:0.5,0.825;stroke-dashoffset:0;stroke-width:0.5;"/>
     </g>
     <g id="line2d_18">
      <g>
       <use style="stroke:#000000;stroke-width:0.8;" x="436.214335" xlink:href="#m5d390c6e2f" y="238.064885"/>
      </g>
     </g>
     <g id="text_9">
      <!-- 06/11/19 00:00 -->
      <g transform="translate(369.189893 316.772142)rotate(-45)scale(0.12 -0.12)">
       <use xlink:href="#DejaVuSans-48"/>
       <use x="63.623047" xlink:href="#DejaVuSans-54"/>
       <use x="127.246094" xlink:href="#DejaVuSans-47"/>
       <use x="160.9375" xlink:href="#DejaVuSans-49"/>
       <use x="224.560547" xlink:href="#DejaVuSans-49"/>
       <use x="288.183594" xlink:href="#DejaVuSans-47"/>
       <use x="321.875" xlink:href="#DejaVuSans-49"/>
       <use x="385.498047" xlink:href="#DejaVuSans-57"/>
       <use x="449.121094" xlink:href="#DejaVuSans-32"/>
       <use x="480.908203" xlink:href="#DejaVuSans-48"/>
       <use x="544.53125" xlink:href="#DejaVuSans-48"/>
       <use x="608.154297" xlink:href="#DejaVuSans-58"/>
       <use x="641.845703" xlink:href="#DejaVuSans-48"/>
       <use x="705.46875" xlink:href="#DejaVuSans-48"/>
      </g>
     </g>
    </g>
    <g id="xtick_10">
     <g id="line2d_19">
      <path clip-path="url(#p934beeb584)" d="M 480.081345 238.064885 
L 480.081345 36.412709 
" style="fill:none;stroke:#808080;stroke-dasharray:0.5,0.825;stroke-dashoffset:0;stroke-width:0.5;"/>
     </g>
     <g id="line2d_20">
      <g>
       <use style="stroke:#000000;stroke-width:0.8;" x="480.081345" xlink:href="#m5d390c6e2f" y="238.064885"/>
      </g>
     </g>
     <g id="text_10">
      <!-- 06/11/19 12:00 -->
      <g transform="translate(413.056903 316.772142)rotate(-45)scale(0.12 -0.12)">
       <use xlink:href="#DejaVuSans-48"/>
       <use x="63.623047" xlink:href="#DejaVuSans-54"/>
       <use x="127.246094" xlink:href="#DejaVuSans-47"/>
       <use x="160.9375" xlink:href="#DejaVuSans-49"/>
       <use x="224.560547" xlink:href="#DejaVuSans-49"/>
       <use x="288.183594" xlink:href="#DejaVuSans-47"/>
       <use x="321.875" xlink:href="#DejaVuSans-49"/>
       <use x="385.498047" xlink:href="#DejaVuSans-57"/>
       <use x="449.121094" xlink:href="#DejaVuSans-32"/>
       <use x="480.908203" xlink:href="#DejaVuSans-49"/>
       <use x="544.53125" xlink:href="#DejaVuSans-50"/>
       <use x="608.154297" xlink:href="#DejaVuSans-58"/>
       <use x="641.845703" xlink:href="#DejaVuSans-48"/>
       <use x="705.46875" xlink:href="#DejaVuSans-48"/>
      </g>
     </g>
    </g>
    <g id="xtick_11">
     <g id="line2d_21">
      <path clip-path="url(#p934beeb584)" d="M 523.948356 238.064885 
L 523.948356 36.412709 
" style="fill:none;stroke:#808080;stroke-dasharray:0.5,0.825;stroke-dashoffset:0;stroke-width:0.5;"/>
     </g>
     <g id="line2d_22">
      <g>
       <use style="stroke:#000000;stroke-width:0.8;" x="523.948356" xlink:href="#m5d390c6e2f" y="238.064885"/>
      </g>
     </g>
     <g id="text_11">
      <!-- 06/11/19 16:00 -->
      <g transform="translate(456.923914 316.772142)rotate(-45)scale(0.12 -0.12)">
       <use xlink:href="#DejaVuSans-48"/>
       <use x="63.623047" xlink:href="#DejaVuSans-54"/>
       <use x="127.246094" xlink:href="#DejaVuSans-47"/>
       <use x="160.9375" xlink:href="#DejaVuSans-49"/>
       <use x="224.560547" xlink:href="#DejaVuSans-49"/>
       <use x="288.183594" xlink:href="#DejaVuSans-47"/>
       <use x="321.875" xlink:href="#DejaVuSans-49"/>
       <use x="385.498047" xlink:href="#DejaVuSans-57"/>
       <use x="449.121094" xlink:href="#DejaVuSans-32"/>
       <use x="480.908203" xlink:href="#DejaVuSans-49"/>
       <use x="544.53125" xlink:href="#DejaVuSans-54"/>
       <use x="608.154297" xlink:href="#DejaVuSans-58"/>
       <use x="641.845703" xlink:href="#DejaVuSans-48"/>
       <use x="705.46875" xlink:href="#DejaVuSans-48"/>
      </g>
     </g>
    </g>
    <g id="xtick_12">
     <g id="line2d_23">
      <path clip-path="url(#p934beeb584)" d="M 567.815366 238.064885 
L 567.815366 36.412709 
" style="fill:none;stroke:#808080;stroke-dasharray:0.5,0.825;stroke-dashoffset:0;stroke-width:0.5;"/>
     </g>
     <g id="line2d_24">
      <g>
       <use style="stroke:#000000;stroke-width:0.8;" x="567.815366" xlink:href="#m5d390c6e2f" y="238.064885"/>
      </g>
     </g>
     <g id="text_12">
      <!-- 06/11/19 20:00 -->
      <g transform="translate(500.790924 316.772142)rotate(-45)scale(0.12 -0.12)">
       <use xlink:href="#DejaVuSans-48"/>
       <use x="63.623047" xlink:href="#DejaVuSans-54"/>
       <use x="127.246094" xlink:href="#DejaVuSans-47"/>
       <use x="160.9375" xlink:href="#DejaVuSans-49"/>
       <use x="224.560547" xlink:href="#DejaVuSans-49"/>
       <use x="288.183594" xlink:href="#DejaVuSans-47"/>
       <use x="321.875" xlink:href="#DejaVuSans-49"/>
       <use x="385.498047" xlink:href="#DejaVuSans-57"/>
       <use x="449.121094" xlink:href="#DejaVuSans-32"/>
       <use x="480.908203" xlink:href="#DejaVuSans-50"/>
       <use x="544.53125" xlink:href="#DejaVuSans-48"/>
       <use x="608.154297" xlink:href="#DejaVuSans-58"/>
       <use x="641.845703" xlink:href="#DejaVuSans-48"/>
       <use x="705.46875" xlink:href="#DejaVuSans-48"/>
      </g>
     </g>
    </g>
    <g id="xtick_13">
     <g id="line2d_25">
      <path clip-path="url(#p934beeb584)" d="M 611.682376 238.064885 
L 611.682376 36.412709 
" style="fill:none;stroke:#808080;stroke-dasharray:0.5,0.825;stroke-dashoffset:0;stroke-width:0.5;"/>
     </g>
     <g id="line2d_26">
      <g>
       <use style="stroke:#000000;stroke-width:0.8;" x="611.682376" xlink:href="#m5d390c6e2f" y="238.064885"/>
      </g>
     </g>
     <g id="text_13">
      <!-- 07/11/19 00:00 -->
      <defs>
       <path d="M 8.203125 72.90625 
L 55.078125 72.90625 
L 55.078125 68.703125 
L 28.609375 0 
L 18.3125 0 
L 43.21875 64.59375 
L 8.203125 64.59375 
z
" id="DejaVuSans-55"/>
      </defs>
      <g transform="translate(544.657934 316.772142)rotate(-45)scale(0.12 -0.12)">
       <use xlink:href="#DejaVuSans-48"/>
       <use x="63.623047" xlink:href="#DejaVuSans-55"/>
       <use x="127.246094" xlink:href="#DejaVuSans-47"/>
       <use x="160.9375" xlink:href="#DejaVuSans-49"/>
       <use x="224.560547" xlink:href="#DejaVuSans-49"/>
       <use x="288.183594" xlink:href="#DejaVuSans-47"/>
       <use x="321.875" xlink:href="#DejaVuSans-49"/>
       <use x="385.498047" xlink:href="#DejaVuSans-57"/>
       <use x="449.121094" xlink:href="#DejaVuSans-32"/>
       <use x="480.908203" xlink:href="#DejaVuSans-48"/>
       <use x="544.53125" xlink:href="#DejaVuSans-48"/>
       <use x="608.154297" xlink:href="#DejaVuSans-58"/>
       <use x="641.845703" xlink:href="#DejaVuSans-48"/>
       <use x="705.46875" xlink:href="#DejaVuSans-48"/>
      </g>
     </g>
    </g>
    <g id="xtick_14">
     <g id="line2d_27">
      <path clip-path="url(#p934beeb584)" d="M 655.549387 238.064885 
L 655.549387 36.412709 
" style="fill:none;stroke:#808080;stroke-dasharray:0.5,0.825;stroke-dashoffset:0;stroke-width:0.5;"/>
     </g>
     <g id="line2d_28">
      <g>
       <use style="stroke:#000000;stroke-width:0.8;" x="655.549387" xlink:href="#m5d390c6e2f" y="238.064885"/>
      </g>
     </g>
     <g id="text_14">
      <!-- 07/11/19 12:00 -->
      <g transform="translate(588.524945 316.772142)rotate(-45)scale(0.12 -0.12)">
       <use xlink:href="#DejaVuSans-48"/>
       <use x="63.623047" xlink:href="#DejaVuSans-55"/>
       <use x="127.246094" xlink:href="#DejaVuSans-47"/>
       <use x="160.9375" xlink:href="#DejaVuSans-49"/>
       <use x="224.560547" xlink:href="#DejaVuSans-49"/>
       <use x="288.183594" xlink:href="#DejaVuSans-47"/>
       <use x="321.875" xlink:href="#DejaVuSans-49"/>
       <use x="385.498047" xlink:href="#DejaVuSans-57"/>
       <use x="449.121094" xlink:href="#DejaVuSans-32"/>
       <use x="480.908203" xlink:href="#DejaVuSans-49"/>
       <use x="544.53125" xlink:href="#DejaVuSans-50"/>
       <use x="608.154297" xlink:href="#DejaVuSans-58"/>
       <use x="641.845703" xlink:href="#DejaVuSans-48"/>
       <use x="705.46875" xlink:href="#DejaVuSans-48"/>
      </g>
     </g>
    </g>
    <g id="xtick_15">
     <g id="line2d_29">
      <path clip-path="url(#p934beeb584)" d="M 699.416397 238.064885 
L 699.416397 36.412709 
" style="fill:none;stroke:#808080;stroke-dasharray:0.5,0.825;stroke-dashoffset:0;stroke-width:0.5;"/>
     </g>
     <g id="line2d_30">
      <g>
       <use style="stroke:#000000;stroke-width:0.8;" x="699.416397" xlink:href="#m5d390c6e2f" y="238.064885"/>
      </g>
     </g>
     <g id="text_15">
      <!-- 07/11/19 16:00 -->
      <g transform="translate(632.391955 316.772142)rotate(-45)scale(0.12 -0.12)">
       <use xlink:href="#DejaVuSans-48"/>
       <use x="63.623047" xlink:href="#DejaVuSans-55"/>
       <use x="127.246094" xlink:href="#DejaVuSans-47"/>
       <use x="160.9375" xlink:href="#DejaVuSans-49"/>
       <use x="224.560547" xlink:href="#DejaVuSans-49"/>
       <use x="288.183594" xlink:href="#DejaVuSans-47"/>
       <use x="321.875" xlink:href="#DejaVuSans-49"/>
       <use x="385.498047" xlink:href="#DejaVuSans-57"/>
       <use x="449.121094" xlink:href="#DejaVuSans-32"/>
       <use x="480.908203" xlink:href="#DejaVuSans-49"/>
       <use x="544.53125" xlink:href="#DejaVuSans-54"/>
       <use x="608.154297" xlink:href="#DejaVuSans-58"/>
       <use x="641.845703" xlink:href="#DejaVuSans-48"/>
       <use x="705.46875" xlink:href="#DejaVuSans-48"/>
      </g>
     </g>
    </g>
    <g id="xtick_16">
     <g id="line2d_31">
      <path clip-path="url(#p934beeb584)" d="M 743.283407 238.064885 
L 743.283407 36.412709 
" style="fill:none;stroke:#808080;stroke-dasharray:0.5,0.825;stroke-dashoffset:0;stroke-width:0.5;"/>
     </g>
     <g id="line2d_32">
      <g>
       <use style="stroke:#000000;stroke-width:0.8;" x="743.283407" xlink:href="#m5d390c6e2f" y="238.064885"/>
      </g>
     </g>
     <g id="text_16">
      <!-- 07/11/19 20:00 -->
      <g transform="translate(676.258965 316.772142)rotate(-45)scale(0.12 -0.12)">
       <use xlink:href="#DejaVuSans-48"/>
       <use x="63.623047" xlink:href="#DejaVuSans-55"/>
       <use x="127.246094" xlink:href="#DejaVuSans-47"/>
       <use x="160.9375" xlink:href="#DejaVuSans-49"/>
       <use x="224.560547" xlink:href="#DejaVuSans-49"/>
       <use x="288.183594" xlink:href="#DejaVuSans-47"/>
       <use x="321.875" xlink:href="#DejaVuSans-49"/>
       <use x="385.498047" xlink:href="#DejaVuSans-57"/>
       <use x="449.121094" xlink:href="#DejaVuSans-32"/>
       <use x="480.908203" xlink:href="#DejaVuSans-50"/>
       <use x="544.53125" xlink:href="#DejaVuSans-48"/>
       <use x="608.154297" xlink:href="#DejaVuSans-58"/>
       <use x="641.845703" xlink:href="#DejaVuSans-48"/>
       <use x="705.46875" xlink:href="#DejaVuSans-48"/>
      </g>
     </g>
    </g>
    <g id="xtick_17">
     <g id="line2d_33">
      <path clip-path="url(#p934beeb584)" d="M 787.150418 238.064885 
L 787.150418 36.412709 
" style="fill:none;stroke:#808080;stroke-dasharray:0.5,0.825;stroke-dashoffset:0;stroke-width:0.5;"/>
     </g>
     <g id="line2d_34">
      <g>
       <use style="stroke:#000000;stroke-width:0.8;" x="787.150418" xlink:href="#m5d390c6e2f" y="238.064885"/>
      </g>
     </g>
     <g id="text_17">
      <!-- 08/11/19 00:00 -->
      <defs>
       <path d="M 31.78125 34.625 
Q 24.75 34.625 20.71875 30.859375 
Q 16.703125 27.09375 16.703125 20.515625 
Q 16.703125 13.921875 20.71875 10.15625 
Q 24.75 6.390625 31.78125 6.390625 
Q 38.8125 6.390625 42.859375 10.171875 
Q 46.921875 13.96875 46.921875 20.515625 
Q 46.921875 27.09375 42.890625 30.859375 
Q 38.875 34.625 31.78125 34.625 
z
M 21.921875 38.8125 
Q 15.578125 40.375 12.03125 44.71875 
Q 8.5 49.078125 8.5 55.328125 
Q 8.5 64.0625 14.71875 69.140625 
Q 20.953125 74.21875 31.78125 74.21875 
Q 42.671875 74.21875 48.875 69.140625 
Q 55.078125 64.0625 55.078125 55.328125 
Q 55.078125 49.078125 51.53125 44.71875 
Q 48 40.375 41.703125 38.8125 
Q 48.828125 37.15625 52.796875 32.3125 
Q 56.78125 27.484375 56.78125 20.515625 
Q 56.78125 9.90625 50.3125 4.234375 
Q 43.84375 -1.421875 31.78125 -1.421875 
Q 19.734375 -1.421875 13.25 4.234375 
Q 6.78125 9.90625 6.78125 20.515625 
Q 6.78125 27.484375 10.78125 32.3125 
Q 14.796875 37.15625 21.921875 38.8125 
z
M 18.3125 54.390625 
Q 18.3125 48.734375 21.84375 45.5625 
Q 25.390625 42.390625 31.78125 42.390625 
Q 38.140625 42.390625 41.71875 45.5625 
Q 45.3125 48.734375 45.3125 54.390625 
Q 45.3125 60.0625 41.71875 63.234375 
Q 38.140625 66.40625 31.78125 66.40625 
Q 25.390625 66.40625 21.84375 63.234375 
Q 18.3125 60.0625 18.3125 54.390625 
z
" id="DejaVuSans-56"/>
      </defs>
      <g transform="translate(720.125975 316.772142)rotate(-45)scale(0.12 -0.12)">
       <use xlink:href="#DejaVuSans-48"/>
       <use x="63.623047" xlink:href="#DejaVuSans-56"/>
       <use x="127.246094" xlink:href="#DejaVuSans-47"/>
       <use x="160.9375" xlink:href="#DejaVuSans-49"/>
       <use x="224.560547" xlink:href="#DejaVuSans-49"/>
       <use x="288.183594" xlink:href="#DejaVuSans-47"/>
       <use x="321.875" xlink:href="#DejaVuSans-49"/>
       <use x="385.498047" xlink:href="#DejaVuSans-57"/>
       <use x="449.121094" xlink:href="#DejaVuSans-32"/>
       <use x="480.908203" xlink:href="#DejaVuSans-48"/>
       <use x="544.53125" xlink:href="#DejaVuSans-48"/>
       <use x="608.154297" xlink:href="#DejaVuSans-58"/>
       <use x="641.845703" xlink:href="#DejaVuSans-48"/>
       <use x="705.46875" xlink:href="#DejaVuSans-48"/>
      </g>
     </g>
    </g>
    <g id="xtick_18">
     <g id="line2d_35">
      <path clip-path="url(#p934beeb584)" d="M 831.017428 238.064885 
L 831.017428 36.412709 
" style="fill:none;stroke:#808080;stroke-dasharray:0.5,0.825;stroke-dashoffset:0;stroke-width:0.5;"/>
     </g>
     <g id="line2d_36">
      <g>
       <use style="stroke:#000000;stroke-width:0.8;" x="831.017428" xlink:href="#m5d390c6e2f" y="238.064885"/>
      </g>
     </g>
     <g id="text_18">
      <!-- 08/11/19 12:00 -->
      <g transform="translate(763.992986 316.772142)rotate(-45)scale(0.12 -0.12)">
       <use xlink:href="#DejaVuSans-48"/>
       <use x="63.623047" xlink:href="#DejaVuSans-56"/>
       <use x="127.246094" xlink:href="#DejaVuSans-47"/>
       <use x="160.9375" xlink:href="#DejaVuSans-49"/>
       <use x="224.560547" xlink:href="#DejaVuSans-49"/>
       <use x="288.183594" xlink:href="#DejaVuSans-47"/>
       <use x="321.875" xlink:href="#DejaVuSans-49"/>
       <use x="385.498047" xlink:href="#DejaVuSans-57"/>
       <use x="449.121094" xlink:href="#DejaVuSans-32"/>
       <use x="480.908203" xlink:href="#DejaVuSans-49"/>
       <use x="544.53125" xlink:href="#DejaVuSans-50"/>
       <use x="608.154297" xlink:href="#DejaVuSans-58"/>
       <use x="641.845703" xlink:href="#DejaVuSans-48"/>
       <use x="705.46875" xlink:href="#DejaVuSans-48"/>
      </g>
     </g>
    </g>
    <g id="xtick_19">
     <g id="line2d_37">
      <path clip-path="url(#p934beeb584)" d="M 874.884438 238.064885 
L 874.884438 36.412709 
" style="fill:none;stroke:#808080;stroke-dasharray:0.5,0.825;stroke-dashoffset:0;stroke-width:0.5;"/>
     </g>
     <g id="line2d_38">
      <g>
       <use style="stroke:#000000;stroke-width:0.8;" x="874.884438" xlink:href="#m5d390c6e2f" y="238.064885"/>
      </g>
     </g>
     <g id="text_19">
      <!-- 08/11/19 16:00 -->
      <g transform="translate(807.859996 316.772142)rotate(-45)scale(0.12 -0.12)">
       <use xlink:href="#DejaVuSans-48"/>
       <use x="63.623047" xlink:href="#DejaVuSans-56"/>
       <use x="127.246094" xlink:href="#DejaVuSans-47"/>
       <use x="160.9375" xlink:href="#DejaVuSans-49"/>
       <use x="224.560547" xlink:href="#DejaVuSans-49"/>
       <use x="288.183594" xlink:href="#DejaVuSans-47"/>
       <use x="321.875" xlink:href="#DejaVuSans-49"/>
       <use x="385.498047" xlink:href="#DejaVuSans-57"/>
       <use x="449.121094" xlink:href="#DejaVuSans-32"/>
       <use x="480.908203" xlink:href="#DejaVuSans-49"/>
       <use x="544.53125" xlink:href="#DejaVuSans-54"/>
       <use x="608.154297" xlink:href="#DejaVuSans-58"/>
       <use x="641.845703" xlink:href="#DejaVuSans-48"/>
       <use x="705.46875" xlink:href="#DejaVuSans-48"/>
      </g>
     </g>
    </g>
    <g id="xtick_20">
     <g id="line2d_39">
      <path clip-path="url(#p934beeb584)" d="M 918.751448 238.064885 
L 918.751448 36.412709 
" style="fill:none;stroke:#808080;stroke-dasharray:0.5,0.825;stroke-dashoffset:0;stroke-width:0.5;"/>
     </g>
     <g id="line2d_40">
      <g>
       <use style="stroke:#000000;stroke-width:0.8;" x="918.751448" xlink:href="#m5d390c6e2f" y="238.064885"/>
      </g>
     </g>
     <g id="text_20">
      <!-- 08/11/19 20:00 -->
      <g transform="translate(851.727006 316.772142)rotate(-45)scale(0.12 -0.12)">
       <use xlink:href="#DejaVuSans-48"/>
       <use x="63.623047" xlink:href="#DejaVuSans-56"/>
       <use x="127.246094" xlink:href="#DejaVuSans-47"/>
       <use x="160.9375" xlink:href="#DejaVuSans-49"/>
       <use x="224.560547" xlink:href="#DejaVuSans-49"/>
       <use x="288.183594" xlink:href="#DejaVuSans-47"/>
       <use x="321.875" xlink:href="#DejaVuSans-49"/>
       <use x="385.498047" xlink:href="#DejaVuSans-57"/>
       <use x="449.121094" xlink:href="#DejaVuSans-32"/>
       <use x="480.908203" xlink:href="#DejaVuSans-50"/>
       <use x="544.53125" xlink:href="#DejaVuSans-48"/>
       <use x="608.154297" xlink:href="#DejaVuSans-58"/>
       <use x="641.845703" xlink:href="#DejaVuSans-48"/>
       <use x="705.46875" xlink:href="#DejaVuSans-48"/>
      </g>
     </g>
    </g>
    <g id="xtick_21">
     <g id="line2d_41">
      <path clip-path="url(#p934beeb584)" d="M 962.618459 238.064885 
L 962.618459 36.412709 
" style="fill:none;stroke:#808080;stroke-dasharray:0.5,0.825;stroke-dashoffset:0;stroke-width:0.5;"/>
     </g>
     <g id="line2d_42">
      <g>
       <use style="stroke:#000000;stroke-width:0.8;" x="962.618459" xlink:href="#m5d390c6e2f" y="238.064885"/>
      </g>
     </g>
     <g id="text_21">
      <!-- 09/11/19 00:00 -->
      <g transform="translate(895.594017 316.772142)rotate(-45)scale(0.12 -0.12)">
       <use xlink:href="#DejaVuSans-48"/>
       <use x="63.623047" xlink:href="#DejaVuSans-57"/>
       <use x="127.246094" xlink:href="#DejaVuSans-47"/>
       <use x="160.9375" xlink:href="#DejaVuSans-49"/>
       <use x="224.560547" xlink:href="#DejaVuSans-49"/>
       <use x="288.183594" xlink:href="#DejaVuSans-47"/>
       <use x="321.875" xlink:href="#DejaVuSans-49"/>
       <use x="385.498047" xlink:href="#DejaVuSans-57"/>
       <use x="449.121094" xlink:href="#DejaVuSans-32"/>
       <use x="480.908203" xlink:href="#DejaVuSans-48"/>
       <use x="544.53125" xlink:href="#DejaVuSans-48"/>
       <use x="608.154297" xlink:href="#DejaVuSans-58"/>
       <use x="641.845703" xlink:href="#DejaVuSans-48"/>
       <use x="705.46875" xlink:href="#DejaVuSans-48"/>
      </g>
     </g>
    </g>
    <g id="xtick_22">
     <g id="line2d_43">
      <path clip-path="url(#p934beeb584)" d="M 1006.485469 238.064885 
L 1006.485469 36.412709 
" style="fill:none;stroke:#808080;stroke-dasharray:0.5,0.825;stroke-dashoffset:0;stroke-width:0.5;"/>
     </g>
     <g id="line2d_44">
      <g>
       <use style="stroke:#000000;stroke-width:0.8;" x="1006.485469" xlink:href="#m5d390c6e2f" y="238.064885"/>
      </g>
     </g>
     <g id="text_22">
      <!-- 09/11/19 12:00 -->
      <g transform="translate(939.461027 316.772142)rotate(-45)scale(0.12 -0.12)">
       <use xlink:href="#DejaVuSans-48"/>
       <use x="63.623047" xlink:href="#DejaVuSans-57"/>
       <use x="127.246094" xlink:href="#DejaVuSans-47"/>
       <use x="160.9375" xlink:href="#DejaVuSans-49"/>
       <use x="224.560547" xlink:href="#DejaVuSans-49"/>
       <use x="288.183594" xlink:href="#DejaVuSans-47"/>
       <use x="321.875" xlink:href="#DejaVuSans-49"/>
       <use x="385.498047" xlink:href="#DejaVuSans-57"/>
       <use x="449.121094" xlink:href="#DejaVuSans-32"/>
       <use x="480.908203" xlink:href="#DejaVuSans-49"/>
       <use x="544.53125" xlink:href="#DejaVuSans-50"/>
       <use x="608.154297" xlink:href="#DejaVuSans-58"/>
       <use x="641.845703" xlink:href="#DejaVuSans-48"/>
       <use x="705.46875" xlink:href="#DejaVuSans-48"/>
      </g>
     </g>
    </g>
    <g id="xtick_23">
     <g id="line2d_45">
      <path clip-path="url(#p934beeb584)" d="M 1050.352479 238.064885 
L 1050.352479 36.412709 
" style="fill:none;stroke:#808080;stroke-dasharray:0.5,0.825;stroke-dashoffset:0;stroke-width:0.5;"/>
     </g>
     <g id="line2d_46">
      <g>
       <use style="stroke:#000000;stroke-width:0.8;" x="1050.352479" xlink:href="#m5d390c6e2f" y="238.064885"/>
      </g>
     </g>
     <g id="text_23">
      <!-- 09/11/19 16:00 -->
      <g transform="translate(983.328037 316.772142)rotate(-45)scale(0.12 -0.12)">
       <use xlink:href="#DejaVuSans-48"/>
       <use x="63.623047" xlink:href="#DejaVuSans-57"/>
       <use x="127.246094" xlink:href="#DejaVuSans-47"/>
       <use x="160.9375" xlink:href="#DejaVuSans-49"/>
       <use x="224.560547" xlink:href="#DejaVuSans-49"/>
       <use x="288.183594" xlink:href="#DejaVuSans-47"/>
       <use x="321.875" xlink:href="#DejaVuSans-49"/>
       <use x="385.498047" xlink:href="#DejaVuSans-57"/>
       <use x="449.121094" xlink:href="#DejaVuSans-32"/>
       <use x="480.908203" xlink:href="#DejaVuSans-49"/>
       <use x="544.53125" xlink:href="#DejaVuSans-54"/>
       <use x="608.154297" xlink:href="#DejaVuSans-58"/>
       <use x="641.845703" xlink:href="#DejaVuSans-48"/>
       <use x="705.46875" xlink:href="#DejaVuSans-48"/>
      </g>
     </g>
    </g>
    <g id="xtick_24">
     <g id="line2d_47">
      <path clip-path="url(#p934beeb584)" d="M 1094.21949 238.064885 
L 1094.21949 36.412709 
" style="fill:none;stroke:#808080;stroke-dasharray:0.5,0.825;stroke-dashoffset:0;stroke-width:0.5;"/>
     </g>
     <g id="line2d_48">
      <g>
       <use style="stroke:#000000;stroke-width:0.8;" x="1094.21949" xlink:href="#m5d390c6e2f" y="238.064885"/>
      </g>
     </g>
     <g id="text_24">
      <!-- 09/11/19 20:00 -->
      <g transform="translate(1027.195048 316.772142)rotate(-45)scale(0.12 -0.12)">
       <use xlink:href="#DejaVuSans-48"/>
       <use x="63.623047" xlink:href="#DejaVuSans-57"/>
       <use x="127.246094" xlink:href="#DejaVuSans-47"/>
       <use x="160.9375" xlink:href="#DejaVuSans-49"/>
       <use x="224.560547" xlink:href="#DejaVuSans-49"/>
       <use x="288.183594" xlink:href="#DejaVuSans-47"/>
       <use x="321.875" xlink:href="#DejaVuSans-49"/>
       <use x="385.498047" xlink:href="#DejaVuSans-57"/>
       <use x="449.121094" xlink:href="#DejaVuSans-32"/>
       <use x="480.908203" xlink:href="#DejaVuSans-50"/>
       <use x="544.53125" xlink:href="#DejaVuSans-48"/>
       <use x="608.154297" xlink:href="#DejaVuSans-58"/>
       <use x="641.845703" xlink:href="#DejaVuSans-48"/>
       <use x="705.46875" xlink:href="#DejaVuSans-48"/>
      </g>
     </g>
    </g>
    <g id="text_25">
     <!-- Time -->
     <defs>
      <path d="M -0.296875 72.90625 
L 61.375 72.90625 
L 61.375 64.59375 
L 35.5 64.59375 
L 35.5 0 
L 25.59375 0 
L 25.59375 64.59375 
L -0.296875 64.59375 
z
" id="DejaVuSans-84"/>
      <path d="M 9.421875 54.6875 
L 18.40625 54.6875 
L 18.40625 0 
L 9.421875 0 
z
M 9.421875 75.984375 
L 18.40625 75.984375 
L 18.40625 64.59375 
L 9.421875 64.59375 
z
" id="DejaVuSans-105"/>
      <path d="M 52 44.1875 
Q 55.375 50.25 60.0625 53.125 
Q 64.75 56 71.09375 56 
Q 79.640625 56 84.28125 50.015625 
Q 88.921875 44.046875 88.921875 33.015625 
L 88.921875 0 
L 79.890625 0 
L 79.890625 32.71875 
Q 79.890625 40.578125 77.09375 44.375 
Q 74.3125 48.1875 68.609375 48.1875 
Q 61.625 48.1875 57.5625 43.546875 
Q 53.515625 38.921875 53.515625 30.90625 
L 53.515625 0 
L 44.484375 0 
L 44.484375 32.71875 
Q 44.484375 40.625 41.703125 44.40625 
Q 38.921875 48.1875 33.109375 48.1875 
Q 26.21875 48.1875 22.15625 43.53125 
Q 18.109375 38.875 18.109375 30.90625 
L 18.109375 0 
L 9.078125 0 
L 9.078125 54.6875 
L 18.109375 54.6875 
L 18.109375 46.1875 
Q 21.1875 51.21875 25.484375 53.609375 
Q 29.78125 56 35.6875 56 
Q 41.65625 56 45.828125 52.96875 
Q 50 49.953125 52 44.1875 
z
" id="DejaVuSans-109"/>
      <path d="M 56.203125 29.59375 
L 56.203125 25.203125 
L 14.890625 25.203125 
Q 15.484375 15.921875 20.484375 11.0625 
Q 25.484375 6.203125 34.421875 6.203125 
Q 39.59375 6.203125 44.453125 7.46875 
Q 49.3125 8.734375 54.109375 11.28125 
L 54.109375 2.78125 
Q 49.265625 0.734375 44.1875 -0.34375 
Q 39.109375 -1.421875 33.890625 -1.421875 
Q 20.796875 -1.421875 13.15625 6.1875 
Q 5.515625 13.8125 5.515625 26.8125 
Q 5.515625 40.234375 12.765625 48.109375 
Q 20.015625 56 32.328125 56 
Q 43.359375 56 49.78125 48.890625 
Q 56.203125 41.796875 56.203125 29.59375 
z
M 47.21875 32.234375 
Q 47.125 39.59375 43.09375 43.984375 
Q 39.0625 48.390625 32.421875 48.390625 
Q 24.90625 48.390625 20.390625 44.140625 
Q 15.875 39.890625 15.1875 32.171875 
z
" id="DejaVuSans-101"/>
     </defs>
     <g transform="translate(588.361 337.478565)scale(0.144 -0.144)">
      <use xlink:href="#DejaVuSans-84"/>
      <use x="61.037109" xlink:href="#DejaVuSans-105"/>
      <use x="88.820312" xlink:href="#DejaVuSans-109"/>
      <use x="186.232422" xlink:href="#DejaVuSans-101"/>
     </g>
    </g>
   </g>
   <g id="matplotlib.axis_2">
    <g id="ytick_1">
     <g id="line2d_49">
      <path clip-path="url(#p934beeb584)" d="M 74.3115 238.064885 
L 1138.0865 238.064885 
" style="fill:none;stroke:#808080;stroke-dasharray:0.5,0.825;stroke-dashoffset:0;stroke-width:0.5;"/>
     </g>
     <g id="line2d_50">
      <defs>
       <path d="M 0 0 
L -3.5 0 
" id="md925c863bb" style="stroke:#000000;stroke-width:0.8;"/>
      </defs>
      <g>
       <use style="stroke:#000000;stroke-width:0.8;" x="74.3115" xlink:href="#md925c863bb" y="238.064885"/>
      </g>
     </g>
     <g id="text_26">
      <!-- 0 -->
      <g transform="translate(59.6765 242.623948)scale(0.12 -0.12)">
       <use xlink:href="#DejaVuSans-48"/>
      </g>
     </g>
    </g>
    <g id="ytick_2">
     <g id="line2d_51">
      <path clip-path="url(#p934beeb584)" d="M 74.3115 201.688393 
L 1138.0865 201.688393 
" style="fill:none;stroke:#808080;stroke-dasharray:0.5,0.825;stroke-dashoffset:0;stroke-width:0.5;"/>
     </g>
     <g id="line2d_52">
      <g>
       <use style="stroke:#000000;stroke-width:0.8;" x="74.3115" xlink:href="#md925c863bb" y="201.688393"/>
      </g>
     </g>
     <g id="text_27">
      <!-- 10000 -->
      <g transform="translate(29.1365 206.247455)scale(0.12 -0.12)">
       <use xlink:href="#DejaVuSans-49"/>
       <use x="63.623047" xlink:href="#DejaVuSans-48"/>
       <use x="127.246094" xlink:href="#DejaVuSans-48"/>
       <use x="190.869141" xlink:href="#DejaVuSans-48"/>
       <use x="254.492188" xlink:href="#DejaVuSans-48"/>
      </g>
     </g>
    </g>
    <g id="ytick_3">
     <g id="line2d_53">
      <path clip-path="url(#p934beeb584)" d="M 74.3115 165.3119 
L 1138.0865 165.3119 
" style="fill:none;stroke:#808080;stroke-dasharray:0.5,0.825;stroke-dashoffset:0;stroke-width:0.5;"/>
     </g>
     <g id="line2d_54">
      <g>
       <use style="stroke:#000000;stroke-width:0.8;" x="74.3115" xlink:href="#md925c863bb" y="165.3119"/>
      </g>
     </g>
     <g id="text_28">
      <!-- 20000 -->
      <g transform="translate(29.1365 169.870963)scale(0.12 -0.12)">
       <use xlink:href="#DejaVuSans-50"/>
       <use x="63.623047" xlink:href="#DejaVuSans-48"/>
       <use x="127.246094" xlink:href="#DejaVuSans-48"/>
       <use x="190.869141" xlink:href="#DejaVuSans-48"/>
       <use x="254.492188" xlink:href="#DejaVuSans-48"/>
      </g>
     </g>
    </g>
    <g id="ytick_4">
     <g id="line2d_55">
      <path clip-path="url(#p934beeb584)" d="M 74.3115 128.935408 
L 1138.0865 128.935408 
" style="fill:none;stroke:#808080;stroke-dasharray:0.5,0.825;stroke-dashoffset:0;stroke-width:0.5;"/>
     </g>
     <g id="line2d_56">
      <g>
       <use style="stroke:#000000;stroke-width:0.8;" x="74.3115" xlink:href="#md925c863bb" y="128.935408"/>
      </g>
     </g>
     <g id="text_29">
      <!-- 30000 -->
      <defs>
       <path d="M 40.578125 39.3125 
Q 47.65625 37.796875 51.625 33 
Q 55.609375 28.21875 55.609375 21.1875 
Q 55.609375 10.40625 48.1875 4.484375 
Q 40.765625 -1.421875 27.09375 -1.421875 
Q 22.515625 -1.421875 17.65625 -0.515625 
Q 12.796875 0.390625 7.625 2.203125 
L 7.625 11.71875 
Q 11.71875 9.328125 16.59375 8.109375 
Q 21.484375 6.890625 26.8125 6.890625 
Q 36.078125 6.890625 40.9375 10.546875 
Q 45.796875 14.203125 45.796875 21.1875 
Q 45.796875 27.640625 41.28125 31.265625 
Q 36.765625 34.90625 28.71875 34.90625 
L 20.21875 34.90625 
L 20.21875 43.015625 
L 29.109375 43.015625 
Q 36.375 43.015625 40.234375 45.921875 
Q 44.09375 48.828125 44.09375 54.296875 
Q 44.09375 59.90625 40.109375 62.90625 
Q 36.140625 65.921875 28.71875 65.921875 
Q 24.65625 65.921875 20.015625 65.03125 
Q 15.375 64.15625 9.8125 62.3125 
L 9.8125 71.09375 
Q 15.4375 72.65625 20.34375 73.4375 
Q 25.25 74.21875 29.59375 74.21875 
Q 40.828125 74.21875 47.359375 69.109375 
Q 53.90625 64.015625 53.90625 55.328125 
Q 53.90625 49.265625 50.4375 45.09375 
Q 46.96875 40.921875 40.578125 39.3125 
z
" id="DejaVuSans-51"/>
      </defs>
      <g transform="translate(29.1365 133.49447)scale(0.12 -0.12)">
       <use xlink:href="#DejaVuSans-51"/>
       <use x="63.623047" xlink:href="#DejaVuSans-48"/>
       <use x="127.246094" xlink:href="#DejaVuSans-48"/>
       <use x="190.869141" xlink:href="#DejaVuSans-48"/>
       <use x="254.492188" xlink:href="#DejaVuSans-48"/>
      </g>
     </g>
    </g>
    <g id="ytick_5">
     <g id="line2d_57">
      <path clip-path="url(#p934beeb584)" d="M 74.3115 92.558915 
L 1138.0865 92.558915 
" style="fill:none;stroke:#808080;stroke-dasharray:0.5,0.825;stroke-dashoffset:0;stroke-width:0.5;"/>
     </g>
     <g id="line2d_58">
      <g>
       <use style="stroke:#000000;stroke-width:0.8;" x="74.3115" xlink:href="#md925c863bb" y="92.558915"/>
      </g>
     </g>
     <g id="text_30">
      <!-- 40000 -->
      <g transform="translate(29.1365 97.117978)scale(0.12 -0.12)">
       <use xlink:href="#DejaVuSans-52"/>
       <use x="63.623047" xlink:href="#DejaVuSans-48"/>
       <use x="127.246094" xlink:href="#DejaVuSans-48"/>
       <use x="190.869141" xlink:href="#DejaVuSans-48"/>
       <use x="254.492188" xlink:href="#DejaVuSans-48"/>
      </g>
     </g>
    </g>
    <g id="ytick_6">
     <g id="line2d_59">
      <path clip-path="url(#p934beeb584)" d="M 74.3115 56.182423 
L 1138.0865 56.182423 
" style="fill:none;stroke:#808080;stroke-dasharray:0.5,0.825;stroke-dashoffset:0;stroke-width:0.5;"/>
     </g>
     <g id="line2d_60">
      <g>
       <use style="stroke:#000000;stroke-width:0.8;" x="74.3115" xlink:href="#md925c863bb" y="56.182423"/>
      </g>
     </g>
     <g id="text_31">
      <!-- 50000 -->
      <g transform="translate(29.1365 60.741486)scale(0.12 -0.12)">
       <use xlink:href="#DejaVuSans-53"/>
       <use x="63.623047" xlink:href="#DejaVuSans-48"/>
       <use x="127.246094" xlink:href="#DejaVuSans-48"/>
       <use x="190.869141" xlink:href="#DejaVuSans-48"/>
       <use x="254.492188" xlink:href="#DejaVuSans-48"/>
      </g>
     </g>
    </g>
    <g id="text_32">
     <!-- Energy consumption [Wh] -->
     <defs>
      <path d="M 9.8125 72.90625 
L 55.90625 72.90625 
L 55.90625 64.59375 
L 19.671875 64.59375 
L 19.671875 43.015625 
L 54.390625 43.015625 
L 54.390625 34.71875 
L 19.671875 34.71875 
L 19.671875 8.296875 
L 56.78125 8.296875 
L 56.78125 0 
L 9.8125 0 
z
" id="DejaVuSans-69"/>
      <path d="M 54.890625 33.015625 
L 54.890625 0 
L 45.90625 0 
L 45.90625 32.71875 
Q 45.90625 40.484375 42.875 44.328125 
Q 39.84375 48.1875 33.796875 48.1875 
Q 26.515625 48.1875 22.3125 43.546875 
Q 18.109375 38.921875 18.109375 30.90625 
L 18.109375 0 
L 9.078125 0 
L 9.078125 54.6875 
L 18.109375 54.6875 
L 18.109375 46.1875 
Q 21.34375 51.125 25.703125 53.5625 
Q 30.078125 56 35.796875 56 
Q 45.21875 56 50.046875 50.171875 
Q 54.890625 44.34375 54.890625 33.015625 
z
" id="DejaVuSans-110"/>
      <path d="M 41.109375 46.296875 
Q 39.59375 47.171875 37.8125 47.578125 
Q 36.03125 48 33.890625 48 
Q 26.265625 48 22.1875 43.046875 
Q 18.109375 38.09375 18.109375 28.8125 
L 18.109375 0 
L 9.078125 0 
L 9.078125 54.6875 
L 18.109375 54.6875 
L 18.109375 46.1875 
Q 20.953125 51.171875 25.484375 53.578125 
Q 30.03125 56 36.53125 56 
Q 37.453125 56 38.578125 55.875 
Q 39.703125 55.765625 41.0625 55.515625 
z
" id="DejaVuSans-114"/>
      <path d="M 45.40625 27.984375 
Q 45.40625 37.75 41.375 43.109375 
Q 37.359375 48.484375 30.078125 48.484375 
Q 22.859375 48.484375 18.828125 43.109375 
Q 14.796875 37.75 14.796875 27.984375 
Q 14.796875 18.265625 18.828125 12.890625 
Q 22.859375 7.515625 30.078125 7.515625 
Q 37.359375 7.515625 41.375 12.890625 
Q 45.40625 18.265625 45.40625 27.984375 
z
M 54.390625 6.78125 
Q 54.390625 -7.171875 48.1875 -13.984375 
Q 42 -20.796875 29.203125 -20.796875 
Q 24.46875 -20.796875 20.265625 -20.09375 
Q 16.0625 -19.390625 12.109375 -17.921875 
L 12.109375 -9.1875 
Q 16.0625 -11.328125 19.921875 -12.34375 
Q 23.78125 -13.375 27.78125 -13.375 
Q 36.625 -13.375 41.015625 -8.765625 
Q 45.40625 -4.15625 45.40625 5.171875 
L 45.40625 9.625 
Q 42.625 4.78125 38.28125 2.390625 
Q 33.9375 0 27.875 0 
Q 17.828125 0 11.671875 7.65625 
Q 5.515625 15.328125 5.515625 27.984375 
Q 5.515625 40.671875 11.671875 48.328125 
Q 17.828125 56 27.875 56 
Q 33.9375 56 38.28125 53.609375 
Q 42.625 51.21875 45.40625 46.390625 
L 45.40625 54.6875 
L 54.390625 54.6875 
z
" id="DejaVuSans-103"/>
      <path d="M 32.171875 -5.078125 
Q 28.375 -14.84375 24.75 -17.8125 
Q 21.140625 -20.796875 15.09375 -20.796875 
L 7.90625 -20.796875 
L 7.90625 -13.28125 
L 13.1875 -13.28125 
Q 16.890625 -13.28125 18.9375 -11.515625 
Q 21 -9.765625 23.484375 -3.21875 
L 25.09375 0.875 
L 2.984375 54.6875 
L 12.5 54.6875 
L 29.59375 11.921875 
L 46.6875 54.6875 
L 56.203125 54.6875 
z
" id="DejaVuSans-121"/>
      <path d="M 48.78125 52.59375 
L 48.78125 44.1875 
Q 44.96875 46.296875 41.140625 47.34375 
Q 37.3125 48.390625 33.40625 48.390625 
Q 24.65625 48.390625 19.8125 42.84375 
Q 14.984375 37.3125 14.984375 27.296875 
Q 14.984375 17.28125 19.8125 11.734375 
Q 24.65625 6.203125 33.40625 6.203125 
Q 37.3125 6.203125 41.140625 7.25 
Q 44.96875 8.296875 48.78125 10.40625 
L 48.78125 2.09375 
Q 45.015625 0.34375 40.984375 -0.53125 
Q 36.96875 -1.421875 32.421875 -1.421875 
Q 20.0625 -1.421875 12.78125 6.34375 
Q 5.515625 14.109375 5.515625 27.296875 
Q 5.515625 40.671875 12.859375 48.328125 
Q 20.21875 56 33.015625 56 
Q 37.15625 56 41.109375 55.140625 
Q 45.0625 54.296875 48.78125 52.59375 
z
" id="DejaVuSans-99"/>
      <path d="M 30.609375 48.390625 
Q 23.390625 48.390625 19.1875 42.75 
Q 14.984375 37.109375 14.984375 27.296875 
Q 14.984375 17.484375 19.15625 11.84375 
Q 23.34375 6.203125 30.609375 6.203125 
Q 37.796875 6.203125 41.984375 11.859375 
Q 46.1875 17.53125 46.1875 27.296875 
Q 46.1875 37.015625 41.984375 42.703125 
Q 37.796875 48.390625 30.609375 48.390625 
z
M 30.609375 56 
Q 42.328125 56 49.015625 48.375 
Q 55.71875 40.765625 55.71875 27.296875 
Q 55.71875 13.875 49.015625 6.21875 
Q 42.328125 -1.421875 30.609375 -1.421875 
Q 18.84375 -1.421875 12.171875 6.21875 
Q 5.515625 13.875 5.515625 27.296875 
Q 5.515625 40.765625 12.171875 48.375 
Q 18.84375 56 30.609375 56 
z
" id="DejaVuSans-111"/>
      <path d="M 44.28125 53.078125 
L 44.28125 44.578125 
Q 40.484375 46.53125 36.375 47.5 
Q 32.28125 48.484375 27.875 48.484375 
Q 21.1875 48.484375 17.84375 46.4375 
Q 14.5 44.390625 14.5 40.28125 
Q 14.5 37.15625 16.890625 35.375 
Q 19.28125 33.59375 26.515625 31.984375 
L 29.59375 31.296875 
Q 39.15625 29.25 43.1875 25.515625 
Q 47.21875 21.78125 47.21875 15.09375 
Q 47.21875 7.46875 41.1875 3.015625 
Q 35.15625 -1.421875 24.609375 -1.421875 
Q 20.21875 -1.421875 15.453125 -0.5625 
Q 10.6875 0.296875 5.421875 2 
L 5.421875 11.28125 
Q 10.40625 8.6875 15.234375 7.390625 
Q 20.0625 6.109375 24.8125 6.109375 
Q 31.15625 6.109375 34.5625 8.28125 
Q 37.984375 10.453125 37.984375 14.40625 
Q 37.984375 18.0625 35.515625 20.015625 
Q 33.0625 21.96875 24.703125 23.78125 
L 21.578125 24.515625 
Q 13.234375 26.265625 9.515625 29.90625 
Q 5.8125 33.546875 5.8125 39.890625 
Q 5.8125 47.609375 11.28125 51.796875 
Q 16.75 56 26.8125 56 
Q 31.78125 56 36.171875 55.265625 
Q 40.578125 54.546875 44.28125 53.078125 
z
" id="DejaVuSans-115"/>
      <path d="M 8.5 21.578125 
L 8.5 54.6875 
L 17.484375 54.6875 
L 17.484375 21.921875 
Q 17.484375 14.15625 20.5 10.265625 
Q 23.53125 6.390625 29.59375 6.390625 
Q 36.859375 6.390625 41.078125 11.03125 
Q 45.3125 15.671875 45.3125 23.6875 
L 45.3125 54.6875 
L 54.296875 54.6875 
L 54.296875 0 
L 45.3125 0 
L 45.3125 8.40625 
Q 42.046875 3.421875 37.71875 1 
Q 33.40625 -1.421875 27.6875 -1.421875 
Q 18.265625 -1.421875 13.375 4.4375 
Q 8.5 10.296875 8.5 21.578125 
z
M 31.109375 56 
z
" id="DejaVuSans-117"/>
      <path d="M 18.109375 8.203125 
L 18.109375 -20.796875 
L 9.078125 -20.796875 
L 9.078125 54.6875 
L 18.109375 54.6875 
L 18.109375 46.390625 
Q 20.953125 51.265625 25.265625 53.625 
Q 29.59375 56 35.59375 56 
Q 45.5625 56 51.78125 48.09375 
Q 58.015625 40.1875 58.015625 27.296875 
Q 58.015625 14.40625 51.78125 6.484375 
Q 45.5625 -1.421875 35.59375 -1.421875 
Q 29.59375 -1.421875 25.265625 0.953125 
Q 20.953125 3.328125 18.109375 8.203125 
z
M 48.6875 27.296875 
Q 48.6875 37.203125 44.609375 42.84375 
Q 40.53125 48.484375 33.40625 48.484375 
Q 26.265625 48.484375 22.1875 42.84375 
Q 18.109375 37.203125 18.109375 27.296875 
Q 18.109375 17.390625 22.1875 11.75 
Q 26.265625 6.109375 33.40625 6.109375 
Q 40.53125 6.109375 44.609375 11.75 
Q 48.6875 17.390625 48.6875 27.296875 
z
" id="DejaVuSans-112"/>
      <path d="M 18.3125 70.21875 
L 18.3125 54.6875 
L 36.8125 54.6875 
L 36.8125 47.703125 
L 18.3125 47.703125 
L 18.3125 18.015625 
Q 18.3125 11.328125 20.140625 9.421875 
Q 21.96875 7.515625 27.59375 7.515625 
L 36.8125 7.515625 
L 36.8125 0 
L 27.59375 0 
Q 17.1875 0 13.234375 3.875 
Q 9.28125 7.765625 9.28125 18.015625 
L 9.28125 47.703125 
L 2.6875 47.703125 
L 2.6875 54.6875 
L 9.28125 54.6875 
L 9.28125 70.21875 
z
" id="DejaVuSans-116"/>
      <path d="M 8.59375 75.984375 
L 29.296875 75.984375 
L 29.296875 69 
L 17.578125 69 
L 17.578125 -6.203125 
L 29.296875 -6.203125 
L 29.296875 -13.1875 
L 8.59375 -13.1875 
z
" id="DejaVuSans-91"/>
      <path d="M 3.328125 72.90625 
L 13.28125 72.90625 
L 28.609375 11.28125 
L 43.890625 72.90625 
L 54.984375 72.90625 
L 70.3125 11.28125 
L 85.59375 72.90625 
L 95.609375 72.90625 
L 77.296875 0 
L 64.890625 0 
L 49.515625 63.28125 
L 33.984375 0 
L 21.578125 0 
z
" id="DejaVuSans-87"/>
      <path d="M 54.890625 33.015625 
L 54.890625 0 
L 45.90625 0 
L 45.90625 32.71875 
Q 45.90625 40.484375 42.875 44.328125 
Q 39.84375 48.1875 33.796875 48.1875 
Q 26.515625 48.1875 22.3125 43.546875 
Q 18.109375 38.921875 18.109375 30.90625 
L 18.109375 0 
L 9.078125 0 
L 9.078125 75.984375 
L 18.109375 75.984375 
L 18.109375 46.1875 
Q 21.34375 51.125 25.703125 53.5625 
Q 30.078125 56 35.796875 56 
Q 45.21875 56 50.046875 50.171875 
Q 54.890625 44.34375 54.890625 33.015625 
z
" id="DejaVuSans-104"/>
      <path d="M 30.421875 75.984375 
L 30.421875 -13.1875 
L 9.71875 -13.1875 
L 9.71875 -6.203125 
L 21.390625 -6.203125 
L 21.390625 69 
L 9.71875 69 
L 9.71875 75.984375 
z
" id="DejaVuSans-93"/>
     </defs>
     <g transform="translate(18.14175 231.066047)rotate(-90)scale(0.144 -0.144)">
      <use xlink:href="#DejaVuSans-69"/>
      <use x="63.183594" xlink:href="#DejaVuSans-110"/>
      <use x="126.5625" xlink:href="#DejaVuSans-101"/>
      <use x="188.085938" xlink:href="#DejaVuSans-114"/>
      <use x="229.183594" xlink:href="#DejaVuSans-103"/>
      <use x="292.660156" xlink:href="#DejaVuSans-121"/>
      <use x="351.839844" xlink:href="#DejaVuSans-32"/>
      <use x="383.626953" xlink:href="#DejaVuSans-99"/>
      <use x="438.607422" xlink:href="#DejaVuSans-111"/>
      <use x="499.789062" xlink:href="#DejaVuSans-110"/>
      <use x="563.167969" xlink:href="#DejaVuSans-115"/>
      <use x="615.267578" xlink:href="#DejaVuSans-117"/>
      <use x="678.646484" xlink:href="#DejaVuSans-109"/>
      <use x="776.058594" xlink:href="#DejaVuSans-112"/>
      <use x="839.535156" xlink:href="#DejaVuSans-116"/>
      <use x="878.744141" xlink:href="#DejaVuSans-105"/>
      <use x="906.527344" xlink:href="#DejaVuSans-111"/>
      <use x="967.708984" xlink:href="#DejaVuSans-110"/>
      <use x="1031.087891" xlink:href="#DejaVuSans-32"/>
      <use x="1062.875" xlink:href="#DejaVuSans-91"/>
      <use x="1101.888672" xlink:href="#DejaVuSans-87"/>
      <use x="1200.765625" xlink:href="#DejaVuSans-104"/>
      <use x="1264.144531" xlink:href="#DejaVuSans-93"/>
     </g>
    </g>
   </g>
   <g id="patch_99">
    <path d="M 74.3115 238.064885 
L 74.3115 36.412709 
" style="fill:none;stroke:#000000;stroke-linecap:square;stroke-linejoin:miter;stroke-width:0.8;"/>
   </g>
   <g id="patch_100">
    <path d="M 1138.0865 238.064885 
L 1138.0865 36.412709 
" style="fill:none;stroke:#000000;stroke-linecap:square;stroke-linejoin:miter;stroke-width:0.8;"/>
   </g>
   <g id="patch_101">
    <path d="M 74.3115 238.064885 
L 1138.0865 238.064885 
" style="fill:none;stroke:#000000;stroke-linecap:square;stroke-linejoin:miter;stroke-width:0.8;"/>
   </g>
   <g id="patch_102">
    <path d="M 74.3115 36.412709 
L 1138.0865 36.412709 
" style="fill:none;stroke:#000000;stroke-linecap:square;stroke-linejoin:miter;stroke-width:0.8;"/>
   </g>
   <g id="text_33">
    <!-- Did the main incomer's energy usage pattern change over time? -->
    <defs>
     <path d="M 19.671875 64.796875 
L 19.671875 8.109375 
L 31.59375 8.109375 
Q 46.6875 8.109375 53.6875 14.9375 
Q 60.6875 21.78125 60.6875 36.53125 
Q 60.6875 51.171875 53.6875 57.984375 
Q 46.6875 64.796875 31.59375 64.796875 
z
M 9.8125 72.90625 
L 30.078125 72.90625 
Q 51.265625 72.90625 61.171875 64.09375 
Q 71.09375 55.28125 71.09375 36.53125 
Q 71.09375 17.671875 61.125 8.828125 
Q 51.171875 0 30.078125 0 
L 9.8125 0 
z
" id="DejaVuSans-68"/>
     <path d="M 45.40625 46.390625 
L 45.40625 75.984375 
L 54.390625 75.984375 
L 54.390625 0 
L 45.40625 0 
L 45.40625 8.203125 
Q 42.578125 3.328125 38.25 0.953125 
Q 33.9375 -1.421875 27.875 -1.421875 
Q 17.96875 -1.421875 11.734375 6.484375 
Q 5.515625 14.40625 5.515625 27.296875 
Q 5.515625 40.1875 11.734375 48.09375 
Q 17.96875 56 27.875 56 
Q 33.9375 56 38.25 53.625 
Q 42.578125 51.265625 45.40625 46.390625 
z
M 14.796875 27.296875 
Q 14.796875 17.390625 18.875 11.75 
Q 22.953125 6.109375 30.078125 6.109375 
Q 37.203125 6.109375 41.296875 11.75 
Q 45.40625 17.390625 45.40625 27.296875 
Q 45.40625 37.203125 41.296875 42.84375 
Q 37.203125 48.484375 30.078125 48.484375 
Q 22.953125 48.484375 18.875 42.84375 
Q 14.796875 37.203125 14.796875 27.296875 
z
" id="DejaVuSans-100"/>
     <path d="M 34.28125 27.484375 
Q 23.390625 27.484375 19.1875 25 
Q 14.984375 22.515625 14.984375 16.5 
Q 14.984375 11.71875 18.140625 8.90625 
Q 21.296875 6.109375 26.703125 6.109375 
Q 34.1875 6.109375 38.703125 11.40625 
Q 43.21875 16.703125 43.21875 25.484375 
L 43.21875 27.484375 
z
M 52.203125 31.203125 
L 52.203125 0 
L 43.21875 0 
L 43.21875 8.296875 
Q 40.140625 3.328125 35.546875 0.953125 
Q 30.953125 -1.421875 24.3125 -1.421875 
Q 15.921875 -1.421875 10.953125 3.296875 
Q 6 8.015625 6 15.921875 
Q 6 25.140625 12.171875 29.828125 
Q 18.359375 34.515625 30.609375 34.515625 
L 43.21875 34.515625 
L 43.21875 35.40625 
Q 43.21875 41.609375 39.140625 45 
Q 35.0625 48.390625 27.6875 48.390625 
Q 23 48.390625 18.546875 47.265625 
Q 14.109375 46.140625 10.015625 43.890625 
L 10.015625 52.203125 
Q 14.9375 54.109375 19.578125 55.046875 
Q 24.21875 56 28.609375 56 
Q 40.484375 56 46.34375 49.84375 
Q 52.203125 43.703125 52.203125 31.203125 
z
" id="DejaVuSans-97"/>
     <path d="M 17.921875 72.90625 
L 17.921875 45.796875 
L 9.625 45.796875 
L 9.625 72.90625 
z
" id="DejaVuSans-39"/>
     <path d="M 2.984375 54.6875 
L 12.5 54.6875 
L 29.59375 8.796875 
L 46.6875 54.6875 
L 56.203125 54.6875 
L 35.6875 0 
L 23.484375 0 
z
" id="DejaVuSans-118"/>
     <path d="M 19.09375 12.40625 
L 29 12.40625 
L 29 0 
L 19.09375 0 
z
M 28.71875 19.578125 
L 19.390625 19.578125 
L 19.390625 27.09375 
Q 19.390625 32.03125 20.75 35.203125 
Q 22.125 38.375 26.515625 42.578125 
L 30.90625 46.921875 
Q 33.6875 49.515625 34.9375 51.8125 
Q 36.1875 54.109375 36.1875 56.5 
Q 36.1875 60.84375 32.984375 63.53125 
Q 29.78125 66.21875 24.515625 66.21875 
Q 20.65625 66.21875 16.28125 64.5 
Q 11.921875 62.796875 7.171875 59.515625 
L 7.171875 68.703125 
Q 11.765625 71.484375 16.46875 72.84375 
Q 21.1875 74.21875 26.21875 74.21875 
Q 35.203125 74.21875 40.640625 69.484375 
Q 46.09375 64.75 46.09375 56.984375 
Q 46.09375 53.265625 44.328125 49.921875 
Q 42.578125 46.578125 38.1875 42.390625 
L 33.890625 38.1875 
Q 31.59375 35.890625 30.640625 34.59375 
Q 29.6875 33.296875 29.296875 32.078125 
Q 29 31.0625 28.859375 29.59375 
Q 28.71875 28.125 28.71875 25.59375 
z
" id="DejaVuSans-63"/>
    </defs>
    <g transform="translate(325.71085 20.3301)scale(0.1728 -0.1728)">
     <use xlink:href="#DejaVuSans-68"/>
     <use x="77.001953" xlink:href="#DejaVuSans-105"/>
     <use x="104.785156" xlink:href="#DejaVuSans-100"/>
     <use x="168.261719" xlink:href="#DejaVuSans-32"/>
     <use x="200.048828" xlink:href="#DejaVuSans-116"/>
     <use x="239.257812" xlink:href="#DejaVuSans-104"/>
     <use x="302.636719" xlink:href="#DejaVuSans-101"/>
     <use x="364.160156" xlink:href="#DejaVuSans-32"/>
     <use x="395.947266" xlink:href="#DejaVuSans-109"/>
     <use x="493.359375" xlink:href="#DejaVuSans-97"/>
     <use x="554.638672" xlink:href="#DejaVuSans-105"/>
     <use x="582.421875" xlink:href="#DejaVuSans-110"/>
     <use x="645.800781" xlink:href="#DejaVuSans-32"/>
     <use x="677.587891" xlink:href="#DejaVuSans-105"/>
     <use x="705.371094" xlink:href="#DejaVuSans-110"/>
     <use x="768.75" xlink:href="#DejaVuSans-99"/>
     <use x="823.730469" xlink:href="#DejaVuSans-111"/>
     <use x="884.912109" xlink:href="#DejaVuSans-109"/>
     <use x="982.324219" xlink:href="#DejaVuSans-101"/>
     <use x="1043.847656" xlink:href="#DejaVuSans-114"/>
     <use x="1084.960938" xlink:href="#DejaVuSans-39"/>
     <use x="1112.451172" xlink:href="#DejaVuSans-115"/>
     <use x="1164.550781" xlink:href="#DejaVuSans-32"/>
     <use x="1196.337891" xlink:href="#DejaVuSans-101"/>
     <use x="1257.861328" xlink:href="#DejaVuSans-110"/>
     <use x="1321.240234" xlink:href="#DejaVuSans-101"/>
     <use x="1382.763672" xlink:href="#DejaVuSans-114"/>
     <use x="1423.861328" xlink:href="#DejaVuSans-103"/>
     <use x="1487.337891" xlink:href="#DejaVuSans-121"/>
     <use x="1546.517578" xlink:href="#DejaVuSans-32"/>
     <use x="1578.304688" xlink:href="#DejaVuSans-117"/>
     <use x="1641.683594" xlink:href="#DejaVuSans-115"/>
     <use x="1693.783203" xlink:href="#DejaVuSans-97"/>
     <use x="1755.0625" xlink:href="#DejaVuSans-103"/>
     <use x="1818.539062" xlink:href="#DejaVuSans-101"/>
     <use x="1880.0625" xlink:href="#DejaVuSans-32"/>
     <use x="1911.849609" xlink:href="#DejaVuSans-112"/>
     <use x="1975.326172" xlink:href="#DejaVuSans-97"/>
     <use x="2036.605469" xlink:href="#DejaVuSans-116"/>
     <use x="2075.814453" xlink:href="#DejaVuSans-116"/>
     <use x="2115.023438" xlink:href="#DejaVuSans-101"/>
     <use x="2176.546875" xlink:href="#DejaVuSans-114"/>
     <use x="2217.644531" xlink:href="#DejaVuSans-110"/>
     <use x="2281.023438" xlink:href="#DejaVuSans-32"/>
     <use x="2312.810547" xlink:href="#DejaVuSans-99"/>
     <use x="2367.791016" xlink:href="#DejaVuSans-104"/>
     <use x="2431.169922" xlink:href="#DejaVuSans-97"/>
     <use x="2492.449219" xlink:href="#DejaVuSans-110"/>
     <use x="2555.828125" xlink:href="#DejaVuSans-103"/>
     <use x="2619.304688" xlink:href="#DejaVuSans-101"/>
     <use x="2680.828125" xlink:href="#DejaVuSans-32"/>
     <use x="2712.615234" xlink:href="#DejaVuSans-111"/>
     <use x="2773.796875" xlink:href="#DejaVuSans-118"/>
     <use x="2832.976562" xlink:href="#DejaVuSans-101"/>
     <use x="2894.5" xlink:href="#DejaVuSans-114"/>
     <use x="2935.613281" xlink:href="#DejaVuSans-32"/>
     <use x="2967.400391" xlink:href="#DejaVuSans-116"/>
     <use x="3006.609375" xlink:href="#DejaVuSans-105"/>
     <use x="3034.392578" xlink:href="#DejaVuSans-109"/>
     <use x="3131.804688" xlink:href="#DejaVuSans-101"/>
     <use x="3193.328125" xlink:href="#DejaVuSans-63"/>
    </g>
   </g>
   <g id="legend_1">
    <g id="patch_103">
     <path d="M 983.44025 63.960209 
L 1129.6865 63.960209 
Q 1132.0865 63.960209 1132.0865 61.560209 
L 1132.0865 44.812709 
Q 1132.0865 42.412709 1129.6865 42.412709 
L 983.44025 42.412709 
Q 981.04025 42.412709 981.04025 44.812709 
L 981.04025 61.560209 
Q 981.04025 63.960209 983.44025 63.960209 
z
" style="fill:#ffffff;opacity:0.8;stroke:#cccccc;stroke-linejoin:miter;"/>
    </g>
    <g id="patch_104">
     <path d="M 985.84025 56.330834 
L 1009.84025 56.330834 
L 1009.84025 47.930834 
L 985.84025 47.930834 
z
" style="fill:#348abd;"/>
    </g>
    <g id="text_34">
     <!-- E_59967 (filtered) -->
     <defs>
      <path d="M 50.984375 -16.609375 
L 50.984375 -23.578125 
L -0.984375 -23.578125 
L -0.984375 -16.609375 
z
" id="DejaVuSans-95"/>
      <path d="M 31 75.875 
Q 24.46875 64.65625 21.28125 53.65625 
Q 18.109375 42.671875 18.109375 31.390625 
Q 18.109375 20.125 21.3125 9.0625 
Q 24.515625 -2 31 -13.1875 
L 23.1875 -13.1875 
Q 15.875 -1.703125 12.234375 9.375 
Q 8.59375 20.453125 8.59375 31.390625 
Q 8.59375 42.28125 12.203125 53.3125 
Q 15.828125 64.359375 23.1875 75.875 
z
" id="DejaVuSans-40"/>
      <path d="M 37.109375 75.984375 
L 37.109375 68.5 
L 28.515625 68.5 
Q 23.6875 68.5 21.796875 66.546875 
Q 19.921875 64.59375 19.921875 59.515625 
L 19.921875 54.6875 
L 34.71875 54.6875 
L 34.71875 47.703125 
L 19.921875 47.703125 
L 19.921875 0 
L 10.890625 0 
L 10.890625 47.703125 
L 2.296875 47.703125 
L 2.296875 54.6875 
L 10.890625 54.6875 
L 10.890625 58.5 
Q 10.890625 67.625 15.140625 71.796875 
Q 19.390625 75.984375 28.609375 75.984375 
z
" id="DejaVuSans-102"/>
      <path d="M 9.421875 75.984375 
L 18.40625 75.984375 
L 18.40625 0 
L 9.421875 0 
z
" id="DejaVuSans-108"/>
      <path d="M 8.015625 75.875 
L 15.828125 75.875 
Q 23.140625 64.359375 26.78125 53.3125 
Q 30.421875 42.28125 30.421875 31.390625 
Q 30.421875 20.453125 26.78125 9.375 
Q 23.140625 -1.703125 15.828125 -13.1875 
L 8.015625 -13.1875 
Q 14.5 -2 17.703125 9.0625 
Q 20.90625 20.125 20.90625 31.390625 
Q 20.90625 42.671875 17.703125 53.65625 
Q 14.5 64.65625 8.015625 75.875 
z
" id="DejaVuSans-41"/>
     </defs>
     <g transform="translate(1019.44025 56.330834)scale(0.12 -0.12)">
      <use xlink:href="#DejaVuSans-69"/>
      <use x="63.183594" xlink:href="#DejaVuSans-95"/>
      <use x="113.183594" xlink:href="#DejaVuSans-53"/>
      <use x="176.806641" xlink:href="#DejaVuSans-57"/>
      <use x="240.429688" xlink:href="#DejaVuSans-57"/>
      <use x="304.052734" xlink:href="#DejaVuSans-54"/>
      <use x="367.675781" xlink:href="#DejaVuSans-55"/>
      <use x="431.298828" xlink:href="#DejaVuSans-32"/>
      <use x="463.085938" xlink:href="#DejaVuSans-40"/>
      <use x="502.099609" xlink:href="#DejaVuSans-102"/>
      <use x="537.304688" xlink:href="#DejaVuSans-105"/>
      <use x="565.087891" xlink:href="#DejaVuSans-108"/>
      <use x="592.871094" xlink:href="#DejaVuSans-116"/>
      <use x="632.080078" xlink:href="#DejaVuSans-101"/>
      <use x="693.603516" xlink:href="#DejaVuSans-114"/>
      <use x="734.685547" xlink:href="#DejaVuSans-101"/>
      <use x="796.208984" xlink:href="#DejaVuSans-100"/>
      <use x="859.685547" xlink:href="#DejaVuSans-41"/>
     </g>
    </g>
   </g>
  </g>
 </g>
 <defs>
  <clipPath id="p934beeb584">
   <rect height="201.652176" width="1063.775" x="74.3115" y="36.412709"/>
  </clipPath>
 </defs>
</svg>
