<?xml version="1.0" encoding="utf-8" standalone="no"?>
<!DOCTYPE svg PUBLIC "-//W3C//DTD SVG 1.1//EN"
  "http://www.w3.org/Graphics/SVG/1.1/DTD/svg11.dtd">
<!-- Created with matplotlib (https://matplotlib.org/) -->
<svg height="347.766123pt" version="1.1" viewBox="0 0 1142.596679 347.766123" width="1142.596679pt" xmlns="http://www.w3.org/2000/svg" xmlns:xlink="http://www.w3.org/1999/xlink">
 <defs>
  <style type="text/css">
*{stroke-linecap:butt;stroke-linejoin:round;}
  </style>
 </defs>
 <g id="figure_1">
  <g id="patch_1">
   <path d="M 0 347.766123 
L 1142.596679 347.766123 
L 1142.596679 0 
L 0 0 
z
" style="fill:#ffffff;"/>
  </g>
  <g id="axes_1">
   <g id="patch_2">
    <path d="M 69.685214 238.157693 
L 1135.396679 238.157693 
L 1135.396679 36.417128 
L 69.685214 36.417128 
z
" style="fill:#ffffff;"/>
   </g>
   <g id="patch_3">
    <path clip-path="url(#pa2006399ac)" d="M 76.277244 238.157693 
L 85.066617 238.157693 
L 85.066617 237.728891 
L 76.277244 237.728891 
z
" style="fill:#348abd;"/>
   </g>
   <g id="patch_4">
    <path clip-path="url(#pa2006399ac)" d="M 87.26396 238.157693 
L 96.053333 238.157693 
L 96.053333 47.769658 
L 87.26396 47.769658 
z
" style="fill:#348abd;"/>
   </g>
   <g id="patch_5">
    <path clip-path="url(#pa2006399ac)" d="M 98.250676 238.157693 
L 107.040049 238.157693 
L 107.040049 182.84225 
L 98.250676 182.84225 
z
" style="fill:#348abd;"/>
   </g>
   <g id="patch_6">
    <path clip-path="url(#pa2006399ac)" d="M 109.237392 238.157693 
L 118.026765 238.157693 
L 118.026765 215.859995 
L 109.237392 215.859995 
z
" style="fill:#348abd;"/>
   </g>
   <g id="patch_7">
    <path clip-path="url(#pa2006399ac)" d="M 120.224108 238.157693 
L 129.013481 238.157693 
L 129.013481 46.023822 
L 120.224108 46.023822 
z
" style="fill:#348abd;"/>
   </g>
   <g id="patch_8">
    <path clip-path="url(#pa2006399ac)" d="M 131.210824 238.157693 
L 140.000197 238.157693 
L 140.000197 63.237154 
L 131.210824 63.237154 
z
" style="fill:#348abd;"/>
   </g>
   <g id="patch_9">
    <path clip-path="url(#pa2006399ac)" d="M 142.19754 238.157693 
L 150.986913 238.157693 
L 150.986913 191.632689 
L 142.19754 191.632689 
z
" style="fill:#348abd;"/>
   </g>
   <g id="patch_10">
    <path clip-path="url(#pa2006399ac)" d="M 153.184257 238.157693 
L 161.973629 238.157693 
L 161.973629 111.753024 
L 153.184257 111.753024 
z
" style="fill:#348abd;"/>
   </g>
   <g id="patch_11">
    <path clip-path="url(#pa2006399ac)" d="M 164.170973 238.157693 
L 172.960346 238.157693 
L 172.960346 115.857271 
L 164.170973 115.857271 
z
" style="fill:#348abd;"/>
   </g>
   <g id="patch_12">
    <path clip-path="url(#pa2006399ac)" d="M 175.157689 238.157693 
L 183.947062 238.157693 
L 183.947062 140.635894 
L 175.157689 140.635894 
z
" style="fill:#348abd;"/>
   </g>
   <g id="patch_13">
    <path clip-path="url(#pa2006399ac)" d="M 186.144405 238.157693 
L 194.933778 238.157693 
L 194.933778 142.442987 
L 186.144405 142.442987 
z
" style="fill:#348abd;"/>
   </g>
   <g id="patch_14">
    <path clip-path="url(#pa2006399ac)" d="M 197.131121 238.157693 
L 205.920494 238.157693 
L 205.920494 141.156582 
L 197.131121 141.156582 
z
" style="fill:#348abd;"/>
   </g>
   <g id="patch_15">
    <path clip-path="url(#pa2006399ac)" d="M 208.117837 238.157693 
L 216.90721 238.157693 
L 216.90721 140.880923 
L 208.117837 140.880923 
z
" style="fill:#348abd;"/>
   </g>
   <g id="patch_16">
    <path clip-path="url(#pa2006399ac)" d="M 219.104553 238.157693 
L 227.893926 238.157693 
L 227.893926 165.138858 
L 219.104553 165.138858 
z
" style="fill:#348abd;"/>
   </g>
   <g id="patch_17">
    <path clip-path="url(#pa2006399ac)" d="M 230.09127 238.157693 
L 238.880642 238.157693 
L 238.880642 237.851406 
L 230.09127 237.851406 
z
" style="fill:#348abd;"/>
   </g>
   <g id="patch_18">
    <path clip-path="url(#pa2006399ac)" d="M 241.077986 238.157693 
L 249.867359 238.157693 
L 249.867359 237.790148 
L 241.077986 237.790148 
z
" style="fill:#348abd;"/>
   </g>
   <g id="patch_19">
    <path clip-path="url(#pa2006399ac)" d="M 252.064702 238.157693 
L 260.854075 238.157693 
L 260.854075 237.75952 
L 252.064702 237.75952 
z
" style="fill:#348abd;"/>
   </g>
   <g id="patch_20">
    <path clip-path="url(#pa2006399ac)" d="M 263.051418 238.157693 
L 271.840791 238.157693 
L 271.840791 146.822892 
L 263.051418 146.822892 
z
" style="fill:#348abd;"/>
   </g>
   <g id="patch_21">
    <path clip-path="url(#pa2006399ac)" d="M 274.038134 238.157693 
L 282.827507 238.157693 
L 282.827507 148.936273 
L 274.038134 148.936273 
z
" style="fill:#348abd;"/>
   </g>
   <g id="patch_22">
    <path clip-path="url(#pa2006399ac)" d="M 285.02485 238.157693 
L 293.814223 238.157693 
L 293.814223 113.682633 
L 285.02485 113.682633 
z
" style="fill:#348abd;"/>
   </g>
   <g id="patch_23">
    <path clip-path="url(#pa2006399ac)" d="M 296.011566 238.157693 
L 304.800939 238.157693 
L 304.800939 126.026001 
L 296.011566 126.026001 
z
" style="fill:#348abd;"/>
   </g>
   <g id="patch_24">
    <path clip-path="url(#pa2006399ac)" d="M 306.998282 238.157693 
L 315.787655 238.157693 
L 315.787655 142.167329 
L 306.998282 142.167329 
z
" style="fill:#348abd;"/>
   </g>
   <g id="patch_25">
    <path clip-path="url(#pa2006399ac)" d="M 317.984999 238.157693 
L 326.774372 238.157693 
L 326.774372 141.524126 
L 317.984999 141.524126 
z
" style="fill:#348abd;"/>
   </g>
   <g id="patch_26">
    <path clip-path="url(#pa2006399ac)" d="M 328.971715 238.157693 
L 337.761088 238.157693 
L 337.761088 139.870176 
L 328.971715 139.870176 
z
" style="fill:#348abd;"/>
   </g>
   <g id="patch_27">
    <path clip-path="url(#pa2006399ac)" d="M 339.958431 238.157693 
L 348.747804 238.157693 
L 348.747804 148.354328 
L 339.958431 148.354328 
z
" style="fill:#348abd;"/>
   </g>
   <g id="patch_28">
    <path clip-path="url(#pa2006399ac)" d="M 350.945147 238.157693 
L 359.73452 238.157693 
L 359.73452 109.884673 
L 350.945147 109.884673 
z
" style="fill:#348abd;"/>
   </g>
   <g id="patch_29">
    <path clip-path="url(#pa2006399ac)" d="M 361.931863 238.157693 
L 370.721236 238.157693 
L 370.721236 121.217294 
L 361.931863 121.217294 
z
" style="fill:#348abd;"/>
   </g>
   <g id="patch_30">
    <path clip-path="url(#pa2006399ac)" d="M 372.918579 238.157693 
L 381.707952 238.157693 
L 381.707952 140.176463 
L 372.918579 140.176463 
z
" style="fill:#348abd;"/>
   </g>
   <g id="patch_31">
    <path clip-path="url(#pa2006399ac)" d="M 383.905295 238.157693 
L 392.694668 238.157693 
L 392.694668 144.648254 
L 383.905295 144.648254 
z
" style="fill:#348abd;"/>
   </g>
   <g id="patch_32">
    <path clip-path="url(#pa2006399ac)" d="M 394.892012 238.157693 
L 403.681384 238.157693 
L 403.681384 179.656865 
L 394.892012 179.656865 
z
" style="fill:#348abd;"/>
   </g>
   <g id="patch_33">
    <path clip-path="url(#pa2006399ac)" d="M 405.878728 238.157693 
L 414.668101 238.157693 
L 414.668101 237.790148 
L 405.878728 237.790148 
z
" style="fill:#348abd;"/>
   </g>
   <g id="patch_34">
    <path clip-path="url(#pa2006399ac)" d="M 416.865444 238.157693 
L 425.654817 238.157693 
L 425.654817 191.418288 
L 416.865444 191.418288 
z
" style="fill:#348abd;"/>
   </g>
   <g id="patch_35">
    <path clip-path="url(#pa2006399ac)" d="M 427.85216 238.157693 
L 436.641533 238.157693 
L 436.641533 179.656865 
L 427.85216 179.656865 
z
" style="fill:#348abd;"/>
   </g>
   <g id="patch_36">
    <path clip-path="url(#pa2006399ac)" d="M 438.838876 238.157693 
L 447.628249 238.157693 
L 447.628249 235.492996 
L 438.838876 235.492996 
z
" style="fill:#348abd;"/>
   </g>
   <g id="patch_37">
    <path clip-path="url(#pa2006399ac)" d="M 449.825592 238.157693 
L 458.614965 238.157693 
L 458.614965 204.86429 
L 449.825592 204.86429 
z
" style="fill:#348abd;"/>
   </g>
   <g id="patch_38">
    <path clip-path="url(#pa2006399ac)" d="M 460.812308 238.157693 
L 469.601681 238.157693 
L 469.601681 186.793353 
L 460.812308 186.793353 
z
" style="fill:#348abd;"/>
   </g>
   <g id="patch_39">
    <path clip-path="url(#pa2006399ac)" d="M 471.799024 238.157693 
L 480.588397 238.157693 
L 480.588397 215.706852 
L 471.799024 215.706852 
z
" style="fill:#348abd;"/>
   </g>
   <g id="patch_40">
    <path clip-path="url(#pa2006399ac)" d="M 482.785741 238.157693 
L 491.575114 238.157693 
L 491.575114 237.820777 
L 482.785741 237.820777 
z
" style="fill:#348abd;"/>
   </g>
   <g id="patch_41">
    <path clip-path="url(#pa2006399ac)" d="M 493.772457 238.157693 
L 502.56183 238.157693 
L 502.56183 237.851406 
L 493.772457 237.851406 
z
" style="fill:#348abd;"/>
   </g>
   <g id="patch_42">
    <path clip-path="url(#pa2006399ac)" d="M 504.759173 238.157693 
L 513.548546 238.157693 
L 513.548546 169.028704 
L 504.759173 169.028704 
z
" style="fill:#348abd;"/>
   </g>
   <g id="patch_43">
    <path clip-path="url(#pa2006399ac)" d="M 515.745889 238.157693 
L 524.535262 238.157693 
L 524.535262 106.944318 
L 515.745889 106.944318 
z
" style="fill:#348abd;"/>
   </g>
   <g id="patch_44">
    <path clip-path="url(#pa2006399ac)" d="M 526.732605 238.157693 
L 535.521978 238.157693 
L 535.521978 180.330696 
L 526.732605 180.330696 
z
" style="fill:#348abd;"/>
   </g>
   <g id="patch_45">
    <path clip-path="url(#pa2006399ac)" d="M 537.719321 238.157693 
L 546.508694 238.157693 
L 546.508694 232.246353 
L 537.719321 232.246353 
z
" style="fill:#348abd;"/>
   </g>
   <g id="patch_46">
    <path clip-path="url(#pa2006399ac)" d="M 548.706037 238.157693 
L 557.49541 238.157693 
L 557.49541 232.246353 
L 548.706037 232.246353 
z
" style="fill:#348abd;"/>
   </g>
   <g id="patch_47">
    <path clip-path="url(#pa2006399ac)" d="M 559.692754 238.157693 
L 568.482126 238.157693 
L 568.482126 232.215724 
L 559.692754 232.215724 
z
" style="fill:#348abd;"/>
   </g>
   <g id="patch_48">
    <path clip-path="url(#pa2006399ac)" d="M 570.67947 238.157693 
L 579.468843 238.157693 
L 579.468843 233.624644 
L 570.67947 233.624644 
z
" style="fill:#348abd;"/>
   </g>
   <g id="patch_49">
    <path clip-path="url(#pa2006399ac)" d="M 581.666186 238.157693 
L 590.455559 238.157693 
L 590.455559 237.851406 
L 581.666186 237.851406 
z
" style="fill:#348abd;"/>
   </g>
   <g id="patch_50">
    <path clip-path="url(#pa2006399ac)" d="M 592.652902 238.157693 
L 601.442275 238.157693 
L 601.442275 237.75952 
L 592.652902 237.75952 
z
" style="fill:#348abd;"/>
   </g>
   <g id="patch_51">
    <path clip-path="url(#pa2006399ac)" d="M 603.639618 238.157693 
L 612.428991 238.157693 
L 612.428991 237.728891 
L 603.639618 237.728891 
z
" style="fill:#348abd;"/>
   </g>
   <g id="patch_52">
    <path clip-path="url(#pa2006399ac)" d="M 614.626334 238.157693 
L 623.415707 238.157693 
L 623.415707 230.990576 
L 614.626334 230.990576 
z
" style="fill:#348abd;"/>
   </g>
   <g id="patch_53">
    <path clip-path="url(#pa2006399ac)" d="M 625.61305 238.157693 
L 634.402423 238.157693 
L 634.402423 231.266234 
L 625.61305 231.266234 
z
" style="fill:#348abd;"/>
   </g>
   <g id="patch_54">
    <path clip-path="url(#pa2006399ac)" d="M 636.599767 238.157693 
L 645.389139 238.157693 
L 645.389139 231.388749 
L 636.599767 231.388749 
z
" style="fill:#348abd;"/>
   </g>
   <g id="patch_55">
    <path clip-path="url(#pa2006399ac)" d="M 647.586483 238.157693 
L 656.375856 238.157693 
L 656.375856 231.204977 
L 647.586483 231.204977 
z
" style="fill:#348abd;"/>
   </g>
   <g id="patch_56">
    <path clip-path="url(#pa2006399ac)" d="M 658.573199 238.157693 
L 667.362572 238.157693 
L 667.362572 231.082462 
L 658.573199 231.082462 
z
" style="fill:#348abd;"/>
   </g>
   <g id="patch_57">
    <path clip-path="url(#pa2006399ac)" d="M 669.559915 238.157693 
L 678.349288 238.157693 
L 678.349288 231.756293 
L 669.559915 231.756293 
z
" style="fill:#348abd;"/>
   </g>
   <g id="patch_58">
    <path clip-path="url(#pa2006399ac)" d="M 680.546631 238.157693 
L 689.336004 238.157693 
L 689.336004 232.123838 
L 680.546631 232.123838 
z
" style="fill:#348abd;"/>
   </g>
   <g id="patch_59">
    <path clip-path="url(#pa2006399ac)" d="M 691.533347 238.157693 
L 700.32272 238.157693 
L 700.32272 232.185095 
L 691.533347 232.185095 
z
" style="fill:#348abd;"/>
   </g>
   <g id="patch_60">
    <path clip-path="url(#pa2006399ac)" d="M 702.520063 238.157693 
L 711.309436 238.157693 
L 711.309436 232.215724 
L 702.520063 232.215724 
z
" style="fill:#348abd;"/>
   </g>
   <g id="patch_61">
    <path clip-path="url(#pa2006399ac)" d="M 713.506779 238.157693 
L 722.296152 238.157693 
L 722.296152 231.725665 
L 713.506779 231.725665 
z
" style="fill:#348abd;"/>
   </g>
   <g id="patch_62">
    <path clip-path="url(#pa2006399ac)" d="M 724.493496 238.157693 
L 733.282869 238.157693 
L 733.282869 232.001323 
L 724.493496 232.001323 
z
" style="fill:#348abd;"/>
   </g>
   <g id="patch_63">
    <path clip-path="url(#pa2006399ac)" d="M 735.480212 238.157693 
L 744.269585 238.157693 
L 744.269585 232.031952 
L 735.480212 232.031952 
z
" style="fill:#348abd;"/>
   </g>
   <g id="patch_64">
    <path clip-path="url(#pa2006399ac)" d="M 746.466928 238.157693 
L 755.256301 238.157693 
L 755.256301 233.01207 
L 746.466928 233.01207 
z
" style="fill:#348abd;"/>
   </g>
   <g id="patch_65">
    <path clip-path="url(#pa2006399ac)" d="M 757.453644 238.157693 
L 766.243017 238.157693 
L 766.243017 237.26946 
L 757.453644 237.26946 
z
" style="fill:#348abd;"/>
   </g>
   <g id="patch_66">
    <path clip-path="url(#pa2006399ac)" d="M 768.44036 238.157693 
L 777.229733 238.157693 
L 777.229733 237.575747 
L 768.44036 237.575747 
z
" style="fill:#348abd;"/>
   </g>
   <g id="patch_67">
    <path clip-path="url(#pa2006399ac)" d="M 779.427076 238.157693 
L 788.216449 238.157693 
L 788.216449 237.606376 
L 779.427076 237.606376 
z
" style="fill:#348abd;"/>
   </g>
   <g id="patch_68">
    <path clip-path="url(#pa2006399ac)" d="M 790.413792 238.157693 
L 799.203165 238.157693 
L 799.203165 234.757907 
L 790.413792 234.757907 
z
" style="fill:#348abd;"/>
   </g>
   <g id="patch_69">
    <path clip-path="url(#pa2006399ac)" d="M 801.400509 238.157693 
L 810.189881 238.157693 
L 810.189881 234.849793 
L 801.400509 234.849793 
z
" style="fill:#348abd;"/>
   </g>
   <g id="patch_70">
    <path clip-path="url(#pa2006399ac)" d="M 812.387225 238.157693 
L 821.176598 238.157693 
L 821.176598 235.278595 
L 812.387225 235.278595 
z
" style="fill:#348abd;"/>
   </g>
   <g id="patch_71">
    <path clip-path="url(#pa2006399ac)" d="M 823.373941 238.157693 
L 832.163314 238.157693 
L 832.163314 234.267847 
L 823.373941 234.267847 
z
" style="fill:#348abd;"/>
   </g>
   <g id="patch_72">
    <path clip-path="url(#pa2006399ac)" d="M 834.360657 238.157693 
L 843.15003 238.157693 
L 843.15003 235.217337 
L 834.360657 235.217337 
z
" style="fill:#348abd;"/>
   </g>
   <g id="patch_73">
    <path clip-path="url(#pa2006399ac)" d="M 845.347373 238.157693 
L 854.136746 238.157693 
L 854.136746 234.727278 
L 845.347373 234.727278 
z
" style="fill:#348abd;"/>
   </g>
   <g id="patch_74">
    <path clip-path="url(#pa2006399ac)" d="M 856.334089 238.157693 
L 865.123462 238.157693 
L 865.123462 235.064194 
L 856.334089 235.064194 
z
" style="fill:#348abd;"/>
   </g>
   <g id="patch_75">
    <path clip-path="url(#pa2006399ac)" d="M 867.320805 238.157693 
L 876.110178 238.157693 
L 876.110178 235.339852 
L 867.320805 235.339852 
z
" style="fill:#348abd;"/>
   </g>
   <g id="patch_76">
    <path clip-path="url(#pa2006399ac)" d="M 878.307521 238.157693 
L 887.096894 238.157693 
L 887.096894 235.094822 
L 878.307521 235.094822 
z
" style="fill:#348abd;"/>
   </g>
   <g id="patch_77">
    <path clip-path="url(#pa2006399ac)" d="M 889.294238 238.157693 
L 898.083611 238.157693 
L 898.083611 235.125451 
L 889.294238 235.125451 
z
" style="fill:#348abd;"/>
   </g>
   <g id="patch_78">
    <path clip-path="url(#pa2006399ac)" d="M 900.280954 238.157693 
L 909.070327 238.157693 
L 909.070327 235.492996 
L 900.280954 235.492996 
z
" style="fill:#348abd;"/>
   </g>
   <g id="patch_79">
    <path clip-path="url(#pa2006399ac)" d="M 911.26767 238.157693 
L 920.057043 238.157693 
L 920.057043 235.002936 
L 911.26767 235.002936 
z
" style="fill:#348abd;"/>
   </g>
   <g id="patch_80">
    <path clip-path="url(#pa2006399ac)" d="M 922.254386 238.157693 
L 931.043759 238.157693 
L 931.043759 235.921797 
L 922.254386 235.921797 
z
" style="fill:#348abd;"/>
   </g>
   <g id="patch_81">
    <path clip-path="url(#pa2006399ac)" d="M 933.241102 238.157693 
L 942.030475 238.157693 
L 942.030475 237.790148 
L 933.241102 237.790148 
z
" style="fill:#348abd;"/>
   </g>
   <g id="patch_82">
    <path clip-path="url(#pa2006399ac)" d="M 944.227818 238.157693 
L 953.017191 238.157693 
L 953.017191 237.790148 
L 944.227818 237.790148 
z
" style="fill:#348abd;"/>
   </g>
   <g id="patch_83">
    <path clip-path="url(#pa2006399ac)" d="M 955.214534 238.157693 
L 964.003907 238.157693 
L 964.003907 237.728891 
L 955.214534 237.728891 
z
" style="fill:#348abd;"/>
   </g>
   <g id="patch_84">
    <path clip-path="url(#pa2006399ac)" d="M 966.201251 238.157693 
L 974.990623 238.157693 
L 974.990623 234.635392 
L 966.201251 234.635392 
z
" style="fill:#348abd;"/>
   </g>
   <g id="patch_85">
    <path clip-path="url(#pa2006399ac)" d="M 977.187967 238.157693 
L 985.97734 238.157693 
L 985.97734 233.839045 
L 977.187967 233.839045 
z
" style="fill:#348abd;"/>
   </g>
   <g id="patch_86">
    <path clip-path="url(#pa2006399ac)" d="M 988.174683 238.157693 
L 996.964056 238.157693 
L 996.964056 218.739093 
L 988.174683 218.739093 
z
" style="fill:#348abd;"/>
   </g>
   <g id="patch_87">
    <path clip-path="url(#pa2006399ac)" d="M 999.161399 238.157693 
L 1007.950772 238.157693 
L 1007.950772 177.359712 
L 999.161399 177.359712 
z
" style="fill:#348abd;"/>
   </g>
   <g id="patch_88">
    <path clip-path="url(#pa2006399ac)" d="M 1010.148115 238.157693 
L 1018.937488 238.157693 
L 1018.937488 181.923389 
L 1010.148115 181.923389 
z
" style="fill:#348abd;"/>
   </g>
   <g id="patch_89">
    <path clip-path="url(#pa2006399ac)" d="M 1021.134831 238.157693 
L 1029.924204 238.157693 
L 1029.924204 180.851384 
L 1021.134831 180.851384 
z
" style="fill:#348abd;"/>
   </g>
   <g id="patch_90">
    <path clip-path="url(#pa2006399ac)" d="M 1032.121547 238.157693 
L 1040.91092 238.157693 
L 1040.91092 179.53435 
L 1032.121547 179.53435 
z
" style="fill:#348abd;"/>
   </g>
   <g id="patch_91">
    <path clip-path="url(#pa2006399ac)" d="M 1043.108264 238.157693 
L 1051.897636 238.157693 
L 1051.897636 180.269439 
L 1043.108264 180.269439 
z
" style="fill:#348abd;"/>
   </g>
   <g id="patch_92">
    <path clip-path="url(#pa2006399ac)" d="M 1054.09498 238.157693 
L 1062.884353 238.157693 
L 1062.884353 181.494587 
L 1054.09498 181.494587 
z
" style="fill:#348abd;"/>
   </g>
   <g id="patch_93">
    <path clip-path="url(#pa2006399ac)" d="M 1065.081696 238.157693 
L 1073.871069 238.157693 
L 1073.871069 226.059354 
L 1065.081696 226.059354 
z
" style="fill:#348abd;"/>
   </g>
   <g id="patch_94">
    <path clip-path="url(#pa2006399ac)" d="M 1076.068412 238.157693 
L 1084.857785 238.157693 
L 1084.857785 238.157693 
L 1076.068412 238.157693 
z
" style="fill:#348abd;"/>
   </g>
   <g id="patch_95">
    <path clip-path="url(#pa2006399ac)" d="M 1087.055128 238.157693 
L 1095.844501 238.157693 
L 1095.844501 238.157693 
L 1087.055128 238.157693 
z
" style="fill:#348abd;"/>
   </g>
   <g id="patch_96">
    <path clip-path="url(#pa2006399ac)" d="M 1098.041844 238.157693 
L 1106.831217 238.157693 
L 1106.831217 238.157693 
L 1098.041844 238.157693 
z
" style="fill:#348abd;"/>
   </g>
   <g id="patch_97">
    <path clip-path="url(#pa2006399ac)" d="M 1109.02856 238.157693 
L 1117.817933 238.157693 
L 1117.817933 214.941134 
L 1109.02856 214.941134 
z
" style="fill:#348abd;"/>
   </g>
   <g id="patch_98">
    <path clip-path="url(#pa2006399ac)" d="M 1120.015276 238.157693 
L 1128.804649 238.157693 
L 1128.804649 237.728891 
L 1120.015276 237.728891 
z
" style="fill:#348abd;"/>
   </g>
   <g id="matplotlib.axis_1">
    <g id="xtick_1">
     <g id="line2d_1">
      <path clip-path="url(#pa2006399ac)" d="M 80.67193 238.157693 
L 80.67193 36.417128 
" style="fill:none;stroke:#808080;stroke-dasharray:0.5,0.825;stroke-dashoffset:0;stroke-width:0.5;"/>
     </g>
     <g id="line2d_2">
      <defs>
       <path d="M 0 0 
L 0 3.5 
" id="m65fa8e623f" style="stroke:#000000;stroke-width:0.8;"/>
      </defs>
      <g>
       <use style="stroke:#000000;stroke-width:0.8;" x="80.67193" xlink:href="#m65fa8e623f" y="238.157693"/>
      </g>
     </g>
     <g id="text_1">
      <!-- 01/11/19 00:00 -->
      <defs>
       <path d="M 31.78125 66.40625 
Q 24.171875 66.40625 20.328125 58.90625 
Q 16.5 51.421875 16.5 36.375 
Q 16.5 21.390625 20.328125 13.890625 
Q 24.171875 6.390625 31.78125 6.390625 
Q 39.453125 6.390625 43.28125 13.890625 
Q 47.125 21.390625 47.125 36.375 
Q 47.125 51.421875 43.28125 58.90625 
Q 39.453125 66.40625 31.78125 66.40625 
z
M 31.78125 74.21875 
Q 44.046875 74.21875 50.515625 64.515625 
Q 56.984375 54.828125 56.984375 36.375 
Q 56.984375 17.96875 50.515625 8.265625 
Q 44.046875 -1.421875 31.78125 -1.421875 
Q 19.53125 -1.421875 13.0625 8.265625 
Q 6.59375 17.96875 6.59375 36.375 
Q 6.59375 54.828125 13.0625 64.515625 
Q 19.53125 74.21875 31.78125 74.21875 
z
" id="DejaVuSans-48"/>
       <path d="M 12.40625 8.296875 
L 28.515625 8.296875 
L 28.515625 63.921875 
L 10.984375 60.40625 
L 10.984375 69.390625 
L 28.421875 72.90625 
L 38.28125 72.90625 
L 38.28125 8.296875 
L 54.390625 8.296875 
L 54.390625 0 
L 12.40625 0 
z
" id="DejaVuSans-49"/>
       <path d="M 25.390625 72.90625 
L 33.6875 72.90625 
L 8.296875 -9.28125 
L 0 -9.28125 
z
" id="DejaVuSans-47"/>
       <path d="M 10.984375 1.515625 
L 10.984375 10.5 
Q 14.703125 8.734375 18.5 7.8125 
Q 22.3125 6.890625 25.984375 6.890625 
Q 35.75 6.890625 40.890625 13.453125 
Q 46.046875 20.015625 46.78125 33.40625 
Q 43.953125 29.203125 39.59375 26.953125 
Q 35.25 24.703125 29.984375 24.703125 
Q 19.046875 24.703125 12.671875 31.3125 
Q 6.296875 37.9375 6.296875 49.421875 
Q 6.296875 60.640625 12.9375 67.421875 
Q 19.578125 74.21875 30.609375 74.21875 
Q 43.265625 74.21875 49.921875 64.515625 
Q 56.59375 54.828125 56.59375 36.375 
Q 56.59375 19.140625 48.40625 8.859375 
Q 40.234375 -1.421875 26.421875 -1.421875 
Q 22.703125 -1.421875 18.890625 -0.6875 
Q 15.09375 0.046875 10.984375 1.515625 
z
M 30.609375 32.421875 
Q 37.25 32.421875 41.125 36.953125 
Q 45.015625 41.5 45.015625 49.421875 
Q 45.015625 57.28125 41.125 61.84375 
Q 37.25 66.40625 30.609375 66.40625 
Q 23.96875 66.40625 20.09375 61.84375 
Q 16.21875 57.28125 16.21875 49.421875 
Q 16.21875 41.5 20.09375 36.953125 
Q 23.96875 32.421875 30.609375 32.421875 
z
" id="DejaVuSans-57"/>
       <path id="DejaVuSans-32"/>
       <path d="M 11.71875 12.40625 
L 22.015625 12.40625 
L 22.015625 0 
L 11.71875 0 
z
M 11.71875 51.703125 
L 22.015625 51.703125 
L 22.015625 39.3125 
L 11.71875 39.3125 
z
" id="DejaVuSans-58"/>
      </defs>
      <g transform="translate(13.647488 316.86495)rotate(-45)scale(0.12 -0.12)">
       <use xlink:href="#DejaVuSans-48"/>
       <use x="63.623047" xlink:href="#DejaVuSans-49"/>
       <use x="127.246094" xlink:href="#DejaVuSans-47"/>
       <use x="160.9375" xlink:href="#DejaVuSans-49"/>
       <use x="224.560547" xlink:href="#DejaVuSans-49"/>
       <use x="288.183594" xlink:href="#DejaVuSans-47"/>
       <use x="321.875" xlink:href="#DejaVuSans-49"/>
       <use x="385.498047" xlink:href="#DejaVuSans-57"/>
       <use x="449.121094" xlink:href="#DejaVuSans-32"/>
       <use x="480.908203" xlink:href="#DejaVuSans-48"/>
       <use x="544.53125" xlink:href="#DejaVuSans-48"/>
       <use x="608.154297" xlink:href="#DejaVuSans-58"/>
       <use x="641.845703" xlink:href="#DejaVuSans-48"/>
       <use x="705.46875" xlink:href="#DejaVuSans-48"/>
      </g>
     </g>
    </g>
    <g id="xtick_2">
     <g id="line2d_3">
      <path clip-path="url(#pa2006399ac)" d="M 124.618795 238.157693 
L 124.618795 36.417128 
" style="fill:none;stroke:#808080;stroke-dasharray:0.5,0.825;stroke-dashoffset:0;stroke-width:0.5;"/>
     </g>
     <g id="line2d_4">
      <g>
       <use style="stroke:#000000;stroke-width:0.8;" x="124.618795" xlink:href="#m65fa8e623f" y="238.157693"/>
      </g>
     </g>
     <g id="text_2">
      <!-- 01/11/19 12:00 -->
      <defs>
       <path d="M 19.1875 8.296875 
L 53.609375 8.296875 
L 53.609375 0 
L 7.328125 0 
L 7.328125 8.296875 
Q 12.9375 14.109375 22.625 23.890625 
Q 32.328125 33.6875 34.8125 36.53125 
Q 39.546875 41.84375 41.421875 45.53125 
Q 43.3125 49.21875 43.3125 52.78125 
Q 43.3125 58.59375 39.234375 62.25 
Q 35.15625 65.921875 28.609375 65.921875 
Q 23.96875 65.921875 18.8125 64.3125 
Q 13.671875 62.703125 7.8125 59.421875 
L 7.8125 69.390625 
Q 13.765625 71.78125 18.9375 73 
Q 24.125 74.21875 28.421875 74.21875 
Q 39.75 74.21875 46.484375 68.546875 
Q 53.21875 62.890625 53.21875 53.421875 
Q 53.21875 48.921875 51.53125 44.890625 
Q 49.859375 40.875 45.40625 35.40625 
Q 44.1875 33.984375 37.640625 27.21875 
Q 31.109375 20.453125 19.1875 8.296875 
z
" id="DejaVuSans-50"/>
      </defs>
      <g transform="translate(57.594353 316.86495)rotate(-45)scale(0.12 -0.12)">
       <use xlink:href="#DejaVuSans-48"/>
       <use x="63.623047" xlink:href="#DejaVuSans-49"/>
       <use x="127.246094" xlink:href="#DejaVuSans-47"/>
       <use x="160.9375" xlink:href="#DejaVuSans-49"/>
       <use x="224.560547" xlink:href="#DejaVuSans-49"/>
       <use x="288.183594" xlink:href="#DejaVuSans-47"/>
       <use x="321.875" xlink:href="#DejaVuSans-49"/>
       <use x="385.498047" xlink:href="#DejaVuSans-57"/>
       <use x="449.121094" xlink:href="#DejaVuSans-32"/>
       <use x="480.908203" xlink:href="#DejaVuSans-49"/>
       <use x="544.53125" xlink:href="#DejaVuSans-50"/>
       <use x="608.154297" xlink:href="#DejaVuSans-58"/>
       <use x="641.845703" xlink:href="#DejaVuSans-48"/>
       <use x="705.46875" xlink:href="#DejaVuSans-48"/>
      </g>
     </g>
    </g>
    <g id="xtick_3">
     <g id="line2d_5">
      <path clip-path="url(#pa2006399ac)" d="M 168.565659 238.157693 
L 168.565659 36.417128 
" style="fill:none;stroke:#808080;stroke-dasharray:0.5,0.825;stroke-dashoffset:0;stroke-width:0.5;"/>
     </g>
     <g id="line2d_6">
      <g>
       <use style="stroke:#000000;stroke-width:0.8;" x="168.565659" xlink:href="#m65fa8e623f" y="238.157693"/>
      </g>
     </g>
     <g id="text_3">
      <!-- 01/11/19 16:00 -->
      <defs>
       <path d="M 33.015625 40.375 
Q 26.375 40.375 22.484375 35.828125 
Q 18.609375 31.296875 18.609375 23.390625 
Q 18.609375 15.53125 22.484375 10.953125 
Q 26.375 6.390625 33.015625 6.390625 
Q 39.65625 6.390625 43.53125 10.953125 
Q 47.40625 15.53125 47.40625 23.390625 
Q 47.40625 31.296875 43.53125 35.828125 
Q 39.65625 40.375 33.015625 40.375 
z
M 52.59375 71.296875 
L 52.59375 62.3125 
Q 48.875 64.0625 45.09375 64.984375 
Q 41.3125 65.921875 37.59375 65.921875 
Q 27.828125 65.921875 22.671875 59.328125 
Q 17.53125 52.734375 16.796875 39.40625 
Q 19.671875 43.65625 24.015625 45.921875 
Q 28.375 48.1875 33.59375 48.1875 
Q 44.578125 48.1875 50.953125 41.515625 
Q 57.328125 34.859375 57.328125 23.390625 
Q 57.328125 12.15625 50.6875 5.359375 
Q 44.046875 -1.421875 33.015625 -1.421875 
Q 20.359375 -1.421875 13.671875 8.265625 
Q 6.984375 17.96875 6.984375 36.375 
Q 6.984375 53.65625 15.1875 63.9375 
Q 23.390625 74.21875 37.203125 74.21875 
Q 40.921875 74.21875 44.703125 73.484375 
Q 48.484375 72.75 52.59375 71.296875 
z
" id="DejaVuSans-54"/>
      </defs>
      <g transform="translate(101.541217 316.86495)rotate(-45)scale(0.12 -0.12)">
       <use xlink:href="#DejaVuSans-48"/>
       <use x="63.623047" xlink:href="#DejaVuSans-49"/>
       <use x="127.246094" xlink:href="#DejaVuSans-47"/>
       <use x="160.9375" xlink:href="#DejaVuSans-49"/>
       <use x="224.560547" xlink:href="#DejaVuSans-49"/>
       <use x="288.183594" xlink:href="#DejaVuSans-47"/>
       <use x="321.875" xlink:href="#DejaVuSans-49"/>
       <use x="385.498047" xlink:href="#DejaVuSans-57"/>
       <use x="449.121094" xlink:href="#DejaVuSans-32"/>
       <use x="480.908203" xlink:href="#DejaVuSans-49"/>
       <use x="544.53125" xlink:href="#DejaVuSans-54"/>
       <use x="608.154297" xlink:href="#DejaVuSans-58"/>
       <use x="641.845703" xlink:href="#DejaVuSans-48"/>
       <use x="705.46875" xlink:href="#DejaVuSans-48"/>
      </g>
     </g>
    </g>
    <g id="xtick_4">
     <g id="line2d_7">
      <path clip-path="url(#pa2006399ac)" d="M 212.512524 238.157693 
L 212.512524 36.417128 
" style="fill:none;stroke:#808080;stroke-dasharray:0.5,0.825;stroke-dashoffset:0;stroke-width:0.5;"/>
     </g>
     <g id="line2d_8">
      <g>
       <use style="stroke:#000000;stroke-width:0.8;" x="212.512524" xlink:href="#m65fa8e623f" y="238.157693"/>
      </g>
     </g>
     <g id="text_4">
      <!-- 01/11/19 20:00 -->
      <g transform="translate(145.488082 316.86495)rotate(-45)scale(0.12 -0.12)">
       <use xlink:href="#DejaVuSans-48"/>
       <use x="63.623047" xlink:href="#DejaVuSans-49"/>
       <use x="127.246094" xlink:href="#DejaVuSans-47"/>
       <use x="160.9375" xlink:href="#DejaVuSans-49"/>
       <use x="224.560547" xlink:href="#DejaVuSans-49"/>
       <use x="288.183594" xlink:href="#DejaVuSans-47"/>
       <use x="321.875" xlink:href="#DejaVuSans-49"/>
       <use x="385.498047" xlink:href="#DejaVuSans-57"/>
       <use x="449.121094" xlink:href="#DejaVuSans-32"/>
       <use x="480.908203" xlink:href="#DejaVuSans-50"/>
       <use x="544.53125" xlink:href="#DejaVuSans-48"/>
       <use x="608.154297" xlink:href="#DejaVuSans-58"/>
       <use x="641.845703" xlink:href="#DejaVuSans-48"/>
       <use x="705.46875" xlink:href="#DejaVuSans-48"/>
      </g>
     </g>
    </g>
    <g id="xtick_5">
     <g id="line2d_9">
      <path clip-path="url(#pa2006399ac)" d="M 256.459388 238.157693 
L 256.459388 36.417128 
" style="fill:none;stroke:#808080;stroke-dasharray:0.5,0.825;stroke-dashoffset:0;stroke-width:0.5;"/>
     </g>
     <g id="line2d_10">
      <g>
       <use style="stroke:#000000;stroke-width:0.8;" x="256.459388" xlink:href="#m65fa8e623f" y="238.157693"/>
      </g>
     </g>
     <g id="text_5">
      <!-- 02/11/19 00:00 -->
      <g transform="translate(189.434946 316.86495)rotate(-45)scale(0.12 -0.12)">
       <use xlink:href="#DejaVuSans-48"/>
       <use x="63.623047" xlink:href="#DejaVuSans-50"/>
       <use x="127.246094" xlink:href="#DejaVuSans-47"/>
       <use x="160.9375" xlink:href="#DejaVuSans-49"/>
       <use x="224.560547" xlink:href="#DejaVuSans-49"/>
       <use x="288.183594" xlink:href="#DejaVuSans-47"/>
       <use x="321.875" xlink:href="#DejaVuSans-49"/>
       <use x="385.498047" xlink:href="#DejaVuSans-57"/>
       <use x="449.121094" xlink:href="#DejaVuSans-32"/>
       <use x="480.908203" xlink:href="#DejaVuSans-48"/>
       <use x="544.53125" xlink:href="#DejaVuSans-48"/>
       <use x="608.154297" xlink:href="#DejaVuSans-58"/>
       <use x="641.845703" xlink:href="#DejaVuSans-48"/>
       <use x="705.46875" xlink:href="#DejaVuSans-48"/>
      </g>
     </g>
    </g>
    <g id="xtick_6">
     <g id="line2d_11">
      <path clip-path="url(#pa2006399ac)" d="M 300.406253 238.157693 
L 300.406253 36.417128 
" style="fill:none;stroke:#808080;stroke-dasharray:0.5,0.825;stroke-dashoffset:0;stroke-width:0.5;"/>
     </g>
     <g id="line2d_12">
      <g>
       <use style="stroke:#000000;stroke-width:0.8;" x="300.406253" xlink:href="#m65fa8e623f" y="238.157693"/>
      </g>
     </g>
     <g id="text_6">
      <!-- 02/11/19 12:00 -->
      <g transform="translate(233.381811 316.86495)rotate(-45)scale(0.12 -0.12)">
       <use xlink:href="#DejaVuSans-48"/>
       <use x="63.623047" xlink:href="#DejaVuSans-50"/>
       <use x="127.246094" xlink:href="#DejaVuSans-47"/>
       <use x="160.9375" xlink:href="#DejaVuSans-49"/>
       <use x="224.560547" xlink:href="#DejaVuSans-49"/>
       <use x="288.183594" xlink:href="#DejaVuSans-47"/>
       <use x="321.875" xlink:href="#DejaVuSans-49"/>
       <use x="385.498047" xlink:href="#DejaVuSans-57"/>
       <use x="449.121094" xlink:href="#DejaVuSans-32"/>
       <use x="480.908203" xlink:href="#DejaVuSans-49"/>
       <use x="544.53125" xlink:href="#DejaVuSans-50"/>
       <use x="608.154297" xlink:href="#DejaVuSans-58"/>
       <use x="641.845703" xlink:href="#DejaVuSans-48"/>
       <use x="705.46875" xlink:href="#DejaVuSans-48"/>
      </g>
     </g>
    </g>
    <g id="xtick_7">
     <g id="line2d_13">
      <path clip-path="url(#pa2006399ac)" d="M 344.353117 238.157693 
L 344.353117 36.417128 
" style="fill:none;stroke:#808080;stroke-dasharray:0.5,0.825;stroke-dashoffset:0;stroke-width:0.5;"/>
     </g>
     <g id="line2d_14">
      <g>
       <use style="stroke:#000000;stroke-width:0.8;" x="344.353117" xlink:href="#m65fa8e623f" y="238.157693"/>
      </g>
     </g>
     <g id="text_7">
      <!-- 02/11/19 16:00 -->
      <g transform="translate(277.328675 316.86495)rotate(-45)scale(0.12 -0.12)">
       <use xlink:href="#DejaVuSans-48"/>
       <use x="63.623047" xlink:href="#DejaVuSans-50"/>
       <use x="127.246094" xlink:href="#DejaVuSans-47"/>
       <use x="160.9375" xlink:href="#DejaVuSans-49"/>
       <use x="224.560547" xlink:href="#DejaVuSans-49"/>
       <use x="288.183594" xlink:href="#DejaVuSans-47"/>
       <use x="321.875" xlink:href="#DejaVuSans-49"/>
       <use x="385.498047" xlink:href="#DejaVuSans-57"/>
       <use x="449.121094" xlink:href="#DejaVuSans-32"/>
       <use x="480.908203" xlink:href="#DejaVuSans-49"/>
       <use x="544.53125" xlink:href="#DejaVuSans-54"/>
       <use x="608.154297" xlink:href="#DejaVuSans-58"/>
       <use x="641.845703" xlink:href="#DejaVuSans-48"/>
       <use x="705.46875" xlink:href="#DejaVuSans-48"/>
      </g>
     </g>
    </g>
    <g id="xtick_8">
     <g id="line2d_15">
      <path clip-path="url(#pa2006399ac)" d="M 388.299982 238.157693 
L 388.299982 36.417128 
" style="fill:none;stroke:#808080;stroke-dasharray:0.5,0.825;stroke-dashoffset:0;stroke-width:0.5;"/>
     </g>
     <g id="line2d_16">
      <g>
       <use style="stroke:#000000;stroke-width:0.8;" x="388.299982" xlink:href="#m65fa8e623f" y="238.157693"/>
      </g>
     </g>
     <g id="text_8">
      <!-- 02/11/19 20:00 -->
      <g transform="translate(321.27554 316.86495)rotate(-45)scale(0.12 -0.12)">
       <use xlink:href="#DejaVuSans-48"/>
       <use x="63.623047" xlink:href="#DejaVuSans-50"/>
       <use x="127.246094" xlink:href="#DejaVuSans-47"/>
       <use x="160.9375" xlink:href="#DejaVuSans-49"/>
       <use x="224.560547" xlink:href="#DejaVuSans-49"/>
       <use x="288.183594" xlink:href="#DejaVuSans-47"/>
       <use x="321.875" xlink:href="#DejaVuSans-49"/>
       <use x="385.498047" xlink:href="#DejaVuSans-57"/>
       <use x="449.121094" xlink:href="#DejaVuSans-32"/>
       <use x="480.908203" xlink:href="#DejaVuSans-50"/>
       <use x="544.53125" xlink:href="#DejaVuSans-48"/>
       <use x="608.154297" xlink:href="#DejaVuSans-58"/>
       <use x="641.845703" xlink:href="#DejaVuSans-48"/>
       <use x="705.46875" xlink:href="#DejaVuSans-48"/>
      </g>
     </g>
    </g>
    <g id="xtick_9">
     <g id="line2d_17">
      <path clip-path="url(#pa2006399ac)" d="M 432.246846 238.157693 
L 432.246846 36.417128 
" style="fill:none;stroke:#808080;stroke-dasharray:0.5,0.825;stroke-dashoffset:0;stroke-width:0.5;"/>
     </g>
     <g id="line2d_18">
      <g>
       <use style="stroke:#000000;stroke-width:0.8;" x="432.246846" xlink:href="#m65fa8e623f" y="238.157693"/>
      </g>
     </g>
     <g id="text_9">
      <!-- 03/11/19 00:00 -->
      <defs>
       <path d="M 40.578125 39.3125 
Q 47.65625 37.796875 51.625 33 
Q 55.609375 28.21875 55.609375 21.1875 
Q 55.609375 10.40625 48.1875 4.484375 
Q 40.765625 -1.421875 27.09375 -1.421875 
Q 22.515625 -1.421875 17.65625 -0.515625 
Q 12.796875 0.390625 7.625 2.203125 
L 7.625 11.71875 
Q 11.71875 9.328125 16.59375 8.109375 
Q 21.484375 6.890625 26.8125 6.890625 
Q 36.078125 6.890625 40.9375 10.546875 
Q 45.796875 14.203125 45.796875 21.1875 
Q 45.796875 27.640625 41.28125 31.265625 
Q 36.765625 34.90625 28.71875 34.90625 
L 20.21875 34.90625 
L 20.21875 43.015625 
L 29.109375 43.015625 
Q 36.375 43.015625 40.234375 45.921875 
Q 44.09375 48.828125 44.09375 54.296875 
Q 44.09375 59.90625 40.109375 62.90625 
Q 36.140625 65.921875 28.71875 65.921875 
Q 24.65625 65.921875 20.015625 65.03125 
Q 15.375 64.15625 9.8125 62.3125 
L 9.8125 71.09375 
Q 15.4375 72.65625 20.34375 73.4375 
Q 25.25 74.21875 29.59375 74.21875 
Q 40.828125 74.21875 47.359375 69.109375 
Q 53.90625 64.015625 53.90625 55.328125 
Q 53.90625 49.265625 50.4375 45.09375 
Q 46.96875 40.921875 40.578125 39.3125 
z
" id="DejaVuSans-51"/>
      </defs>
      <g transform="translate(365.222404 316.86495)rotate(-45)scale(0.12 -0.12)">
       <use xlink:href="#DejaVuSans-48"/>
       <use x="63.623047" xlink:href="#DejaVuSans-51"/>
       <use x="127.246094" xlink:href="#DejaVuSans-47"/>
       <use x="160.9375" xlink:href="#DejaVuSans-49"/>
       <use x="224.560547" xlink:href="#DejaVuSans-49"/>
       <use x="288.183594" xlink:href="#DejaVuSans-47"/>
       <use x="321.875" xlink:href="#DejaVuSans-49"/>
       <use x="385.498047" xlink:href="#DejaVuSans-57"/>
       <use x="449.121094" xlink:href="#DejaVuSans-32"/>
       <use x="480.908203" xlink:href="#DejaVuSans-48"/>
       <use x="544.53125" xlink:href="#DejaVuSans-48"/>
       <use x="608.154297" xlink:href="#DejaVuSans-58"/>
       <use x="641.845703" xlink:href="#DejaVuSans-48"/>
       <use x="705.46875" xlink:href="#DejaVuSans-48"/>
      </g>
     </g>
    </g>
    <g id="xtick_10">
     <g id="line2d_19">
      <path clip-path="url(#pa2006399ac)" d="M 476.193711 238.157693 
L 476.193711 36.417128 
" style="fill:none;stroke:#808080;stroke-dasharray:0.5,0.825;stroke-dashoffset:0;stroke-width:0.5;"/>
     </g>
     <g id="line2d_20">
      <g>
       <use style="stroke:#000000;stroke-width:0.8;" x="476.193711" xlink:href="#m65fa8e623f" y="238.157693"/>
      </g>
     </g>
     <g id="text_10">
      <!-- 03/11/19 12:00 -->
      <g transform="translate(409.169269 316.86495)rotate(-45)scale(0.12 -0.12)">
       <use xlink:href="#DejaVuSans-48"/>
       <use x="63.623047" xlink:href="#DejaVuSans-51"/>
       <use x="127.246094" xlink:href="#DejaVuSans-47"/>
       <use x="160.9375" xlink:href="#DejaVuSans-49"/>
       <use x="224.560547" xlink:href="#DejaVuSans-49"/>
       <use x="288.183594" xlink:href="#DejaVuSans-47"/>
       <use x="321.875" xlink:href="#DejaVuSans-49"/>
       <use x="385.498047" xlink:href="#DejaVuSans-57"/>
       <use x="449.121094" xlink:href="#DejaVuSans-32"/>
       <use x="480.908203" xlink:href="#DejaVuSans-49"/>
       <use x="544.53125" xlink:href="#DejaVuSans-50"/>
       <use x="608.154297" xlink:href="#DejaVuSans-58"/>
       <use x="641.845703" xlink:href="#DejaVuSans-48"/>
       <use x="705.46875" xlink:href="#DejaVuSans-48"/>
      </g>
     </g>
    </g>
    <g id="xtick_11">
     <g id="line2d_21">
      <path clip-path="url(#pa2006399ac)" d="M 520.140575 238.157693 
L 520.140575 36.417128 
" style="fill:none;stroke:#808080;stroke-dasharray:0.5,0.825;stroke-dashoffset:0;stroke-width:0.5;"/>
     </g>
     <g id="line2d_22">
      <g>
       <use style="stroke:#000000;stroke-width:0.8;" x="520.140575" xlink:href="#m65fa8e623f" y="238.157693"/>
      </g>
     </g>
     <g id="text_11">
      <!-- 03/11/19 16:00 -->
      <g transform="translate(453.116133 316.86495)rotate(-45)scale(0.12 -0.12)">
       <use xlink:href="#DejaVuSans-48"/>
       <use x="63.623047" xlink:href="#DejaVuSans-51"/>
       <use x="127.246094" xlink:href="#DejaVuSans-47"/>
       <use x="160.9375" xlink:href="#DejaVuSans-49"/>
       <use x="224.560547" xlink:href="#DejaVuSans-49"/>
       <use x="288.183594" xlink:href="#DejaVuSans-47"/>
       <use x="321.875" xlink:href="#DejaVuSans-49"/>
       <use x="385.498047" xlink:href="#DejaVuSans-57"/>
       <use x="449.121094" xlink:href="#DejaVuSans-32"/>
       <use x="480.908203" xlink:href="#DejaVuSans-49"/>
       <use x="544.53125" xlink:href="#DejaVuSans-54"/>
       <use x="608.154297" xlink:href="#DejaVuSans-58"/>
       <use x="641.845703" xlink:href="#DejaVuSans-48"/>
       <use x="705.46875" xlink:href="#DejaVuSans-48"/>
      </g>
     </g>
    </g>
    <g id="xtick_12">
     <g id="line2d_23">
      <path clip-path="url(#pa2006399ac)" d="M 564.08744 238.157693 
L 564.08744 36.417128 
" style="fill:none;stroke:#808080;stroke-dasharray:0.5,0.825;stroke-dashoffset:0;stroke-width:0.5;"/>
     </g>
     <g id="line2d_24">
      <g>
       <use style="stroke:#000000;stroke-width:0.8;" x="564.08744" xlink:href="#m65fa8e623f" y="238.157693"/>
      </g>
     </g>
     <g id="text_12">
      <!-- 03/11/19 20:00 -->
      <g transform="translate(497.062998 316.86495)rotate(-45)scale(0.12 -0.12)">
       <use xlink:href="#DejaVuSans-48"/>
       <use x="63.623047" xlink:href="#DejaVuSans-51"/>
       <use x="127.246094" xlink:href="#DejaVuSans-47"/>
       <use x="160.9375" xlink:href="#DejaVuSans-49"/>
       <use x="224.560547" xlink:href="#DejaVuSans-49"/>
       <use x="288.183594" xlink:href="#DejaVuSans-47"/>
       <use x="321.875" xlink:href="#DejaVuSans-49"/>
       <use x="385.498047" xlink:href="#DejaVuSans-57"/>
       <use x="449.121094" xlink:href="#DejaVuSans-32"/>
       <use x="480.908203" xlink:href="#DejaVuSans-50"/>
       <use x="544.53125" xlink:href="#DejaVuSans-48"/>
       <use x="608.154297" xlink:href="#DejaVuSans-58"/>
       <use x="641.845703" xlink:href="#DejaVuSans-48"/>
       <use x="705.46875" xlink:href="#DejaVuSans-48"/>
      </g>
     </g>
    </g>
    <g id="xtick_13">
     <g id="line2d_25">
      <path clip-path="url(#pa2006399ac)" d="M 608.034305 238.157693 
L 608.034305 36.417128 
" style="fill:none;stroke:#808080;stroke-dasharray:0.5,0.825;stroke-dashoffset:0;stroke-width:0.5;"/>
     </g>
     <g id="line2d_26">
      <g>
       <use style="stroke:#000000;stroke-width:0.8;" x="608.034305" xlink:href="#m65fa8e623f" y="238.157693"/>
      </g>
     </g>
     <g id="text_13">
      <!-- 04/11/19 00:00 -->
      <defs>
       <path d="M 37.796875 64.3125 
L 12.890625 25.390625 
L 37.796875 25.390625 
z
M 35.203125 72.90625 
L 47.609375 72.90625 
L 47.609375 25.390625 
L 58.015625 25.390625 
L 58.015625 17.1875 
L 47.609375 17.1875 
L 47.609375 0 
L 37.796875 0 
L 37.796875 17.1875 
L 4.890625 17.1875 
L 4.890625 26.703125 
z
" id="DejaVuSans-52"/>
      </defs>
      <g transform="translate(541.009862 316.86495)rotate(-45)scale(0.12 -0.12)">
       <use xlink:href="#DejaVuSans-48"/>
       <use x="63.623047" xlink:href="#DejaVuSans-52"/>
       <use x="127.246094" xlink:href="#DejaVuSans-47"/>
       <use x="160.9375" xlink:href="#DejaVuSans-49"/>
       <use x="224.560547" xlink:href="#DejaVuSans-49"/>
       <use x="288.183594" xlink:href="#DejaVuSans-47"/>
       <use x="321.875" xlink:href="#DejaVuSans-49"/>
       <use x="385.498047" xlink:href="#DejaVuSans-57"/>
       <use x="449.121094" xlink:href="#DejaVuSans-32"/>
       <use x="480.908203" xlink:href="#DejaVuSans-48"/>
       <use x="544.53125" xlink:href="#DejaVuSans-48"/>
       <use x="608.154297" xlink:href="#DejaVuSans-58"/>
       <use x="641.845703" xlink:href="#DejaVuSans-48"/>
       <use x="705.46875" xlink:href="#DejaVuSans-48"/>
      </g>
     </g>
    </g>
    <g id="xtick_14">
     <g id="line2d_27">
      <path clip-path="url(#pa2006399ac)" d="M 651.981169 238.157693 
L 651.981169 36.417128 
" style="fill:none;stroke:#808080;stroke-dasharray:0.5,0.825;stroke-dashoffset:0;stroke-width:0.5;"/>
     </g>
     <g id="line2d_28">
      <g>
       <use style="stroke:#000000;stroke-width:0.8;" x="651.981169" xlink:href="#m65fa8e623f" y="238.157693"/>
      </g>
     </g>
     <g id="text_14">
      <!-- 04/11/19 12:00 -->
      <g transform="translate(584.956727 316.86495)rotate(-45)scale(0.12 -0.12)">
       <use xlink:href="#DejaVuSans-48"/>
       <use x="63.623047" xlink:href="#DejaVuSans-52"/>
       <use x="127.246094" xlink:href="#DejaVuSans-47"/>
       <use x="160.9375" xlink:href="#DejaVuSans-49"/>
       <use x="224.560547" xlink:href="#DejaVuSans-49"/>
       <use x="288.183594" xlink:href="#DejaVuSans-47"/>
       <use x="321.875" xlink:href="#DejaVuSans-49"/>
       <use x="385.498047" xlink:href="#DejaVuSans-57"/>
       <use x="449.121094" xlink:href="#DejaVuSans-32"/>
       <use x="480.908203" xlink:href="#DejaVuSans-49"/>
       <use x="544.53125" xlink:href="#DejaVuSans-50"/>
       <use x="608.154297" xlink:href="#DejaVuSans-58"/>
       <use x="641.845703" xlink:href="#DejaVuSans-48"/>
       <use x="705.46875" xlink:href="#DejaVuSans-48"/>
      </g>
     </g>
    </g>
    <g id="xtick_15">
     <g id="line2d_29">
      <path clip-path="url(#pa2006399ac)" d="M 695.928034 238.157693 
L 695.928034 36.417128 
" style="fill:none;stroke:#808080;stroke-dasharray:0.5,0.825;stroke-dashoffset:0;stroke-width:0.5;"/>
     </g>
     <g id="line2d_30">
      <g>
       <use style="stroke:#000000;stroke-width:0.8;" x="695.928034" xlink:href="#m65fa8e623f" y="238.157693"/>
      </g>
     </g>
     <g id="text_15">
      <!-- 04/11/19 16:00 -->
      <g transform="translate(628.903592 316.86495)rotate(-45)scale(0.12 -0.12)">
       <use xlink:href="#DejaVuSans-48"/>
       <use x="63.623047" xlink:href="#DejaVuSans-52"/>
       <use x="127.246094" xlink:href="#DejaVuSans-47"/>
       <use x="160.9375" xlink:href="#DejaVuSans-49"/>
       <use x="224.560547" xlink:href="#DejaVuSans-49"/>
       <use x="288.183594" xlink:href="#DejaVuSans-47"/>
       <use x="321.875" xlink:href="#DejaVuSans-49"/>
       <use x="385.498047" xlink:href="#DejaVuSans-57"/>
       <use x="449.121094" xlink:href="#DejaVuSans-32"/>
       <use x="480.908203" xlink:href="#DejaVuSans-49"/>
       <use x="544.53125" xlink:href="#DejaVuSans-54"/>
       <use x="608.154297" xlink:href="#DejaVuSans-58"/>
       <use x="641.845703" xlink:href="#DejaVuSans-48"/>
       <use x="705.46875" xlink:href="#DejaVuSans-48"/>
      </g>
     </g>
    </g>
    <g id="xtick_16">
     <g id="line2d_31">
      <path clip-path="url(#pa2006399ac)" d="M 739.874898 238.157693 
L 739.874898 36.417128 
" style="fill:none;stroke:#808080;stroke-dasharray:0.5,0.825;stroke-dashoffset:0;stroke-width:0.5;"/>
     </g>
     <g id="line2d_32">
      <g>
       <use style="stroke:#000000;stroke-width:0.8;" x="739.874898" xlink:href="#m65fa8e623f" y="238.157693"/>
      </g>
     </g>
     <g id="text_16">
      <!-- 04/11/19 20:00 -->
      <g transform="translate(672.850456 316.86495)rotate(-45)scale(0.12 -0.12)">
       <use xlink:href="#DejaVuSans-48"/>
       <use x="63.623047" xlink:href="#DejaVuSans-52"/>
       <use x="127.246094" xlink:href="#DejaVuSans-47"/>
       <use x="160.9375" xlink:href="#DejaVuSans-49"/>
       <use x="224.560547" xlink:href="#DejaVuSans-49"/>
       <use x="288.183594" xlink:href="#DejaVuSans-47"/>
       <use x="321.875" xlink:href="#DejaVuSans-49"/>
       <use x="385.498047" xlink:href="#DejaVuSans-57"/>
       <use x="449.121094" xlink:href="#DejaVuSans-32"/>
       <use x="480.908203" xlink:href="#DejaVuSans-50"/>
       <use x="544.53125" xlink:href="#DejaVuSans-48"/>
       <use x="608.154297" xlink:href="#DejaVuSans-58"/>
       <use x="641.845703" xlink:href="#DejaVuSans-48"/>
       <use x="705.46875" xlink:href="#DejaVuSans-48"/>
      </g>
     </g>
    </g>
    <g id="xtick_17">
     <g id="line2d_33">
      <path clip-path="url(#pa2006399ac)" d="M 783.821763 238.157693 
L 783.821763 36.417128 
" style="fill:none;stroke:#808080;stroke-dasharray:0.5,0.825;stroke-dashoffset:0;stroke-width:0.5;"/>
     </g>
     <g id="line2d_34">
      <g>
       <use style="stroke:#000000;stroke-width:0.8;" x="783.821763" xlink:href="#m65fa8e623f" y="238.157693"/>
      </g>
     </g>
     <g id="text_17">
      <!-- 05/11/19 00:00 -->
      <defs>
       <path d="M 10.796875 72.90625 
L 49.515625 72.90625 
L 49.515625 64.59375 
L 19.828125 64.59375 
L 19.828125 46.734375 
Q 21.96875 47.46875 24.109375 47.828125 
Q 26.265625 48.1875 28.421875 48.1875 
Q 40.625 48.1875 47.75 41.5 
Q 54.890625 34.8125 54.890625 23.390625 
Q 54.890625 11.625 47.5625 5.09375 
Q 40.234375 -1.421875 26.90625 -1.421875 
Q 22.3125 -1.421875 17.546875 -0.640625 
Q 12.796875 0.140625 7.71875 1.703125 
L 7.71875 11.625 
Q 12.109375 9.234375 16.796875 8.0625 
Q 21.484375 6.890625 26.703125 6.890625 
Q 35.15625 6.890625 40.078125 11.328125 
Q 45.015625 15.765625 45.015625 23.390625 
Q 45.015625 31 40.078125 35.4375 
Q 35.15625 39.890625 26.703125 39.890625 
Q 22.75 39.890625 18.8125 39.015625 
Q 14.890625 38.140625 10.796875 36.28125 
z
" id="DejaVuSans-53"/>
      </defs>
      <g transform="translate(716.797321 316.86495)rotate(-45)scale(0.12 -0.12)">
       <use xlink:href="#DejaVuSans-48"/>
       <use x="63.623047" xlink:href="#DejaVuSans-53"/>
       <use x="127.246094" xlink:href="#DejaVuSans-47"/>
       <use x="160.9375" xlink:href="#DejaVuSans-49"/>
       <use x="224.560547" xlink:href="#DejaVuSans-49"/>
       <use x="288.183594" xlink:href="#DejaVuSans-47"/>
       <use x="321.875" xlink:href="#DejaVuSans-49"/>
       <use x="385.498047" xlink:href="#DejaVuSans-57"/>
       <use x="449.121094" xlink:href="#DejaVuSans-32"/>
       <use x="480.908203" xlink:href="#DejaVuSans-48"/>
       <use x="544.53125" xlink:href="#DejaVuSans-48"/>
       <use x="608.154297" xlink:href="#DejaVuSans-58"/>
       <use x="641.845703" xlink:href="#DejaVuSans-48"/>
       <use x="705.46875" xlink:href="#DejaVuSans-48"/>
      </g>
     </g>
    </g>
    <g id="xtick_18">
     <g id="line2d_35">
      <path clip-path="url(#pa2006399ac)" d="M 827.768627 238.157693 
L 827.768627 36.417128 
" style="fill:none;stroke:#808080;stroke-dasharray:0.5,0.825;stroke-dashoffset:0;stroke-width:0.5;"/>
     </g>
     <g id="line2d_36">
      <g>
       <use style="stroke:#000000;stroke-width:0.8;" x="827.768627" xlink:href="#m65fa8e623f" y="238.157693"/>
      </g>
     </g>
     <g id="text_18">
      <!-- 05/11/19 12:00 -->
      <g transform="translate(760.744185 316.86495)rotate(-45)scale(0.12 -0.12)">
       <use xlink:href="#DejaVuSans-48"/>
       <use x="63.623047" xlink:href="#DejaVuSans-53"/>
       <use x="127.246094" xlink:href="#DejaVuSans-47"/>
       <use x="160.9375" xlink:href="#DejaVuSans-49"/>
       <use x="224.560547" xlink:href="#DejaVuSans-49"/>
       <use x="288.183594" xlink:href="#DejaVuSans-47"/>
       <use x="321.875" xlink:href="#DejaVuSans-49"/>
       <use x="385.498047" xlink:href="#DejaVuSans-57"/>
       <use x="449.121094" xlink:href="#DejaVuSans-32"/>
       <use x="480.908203" xlink:href="#DejaVuSans-49"/>
       <use x="544.53125" xlink:href="#DejaVuSans-50"/>
       <use x="608.154297" xlink:href="#DejaVuSans-58"/>
       <use x="641.845703" xlink:href="#DejaVuSans-48"/>
       <use x="705.46875" xlink:href="#DejaVuSans-48"/>
      </g>
     </g>
    </g>
    <g id="xtick_19">
     <g id="line2d_37">
      <path clip-path="url(#pa2006399ac)" d="M 871.715492 238.157693 
L 871.715492 36.417128 
" style="fill:none;stroke:#808080;stroke-dasharray:0.5,0.825;stroke-dashoffset:0;stroke-width:0.5;"/>
     </g>
     <g id="line2d_38">
      <g>
       <use style="stroke:#000000;stroke-width:0.8;" x="871.715492" xlink:href="#m65fa8e623f" y="238.157693"/>
      </g>
     </g>
     <g id="text_19">
      <!-- 05/11/19 16:00 -->
      <g transform="translate(804.69105 316.86495)rotate(-45)scale(0.12 -0.12)">
       <use xlink:href="#DejaVuSans-48"/>
       <use x="63.623047" xlink:href="#DejaVuSans-53"/>
       <use x="127.246094" xlink:href="#DejaVuSans-47"/>
       <use x="160.9375" xlink:href="#DejaVuSans-49"/>
       <use x="224.560547" xlink:href="#DejaVuSans-49"/>
       <use x="288.183594" xlink:href="#DejaVuSans-47"/>
       <use x="321.875" xlink:href="#DejaVuSans-49"/>
       <use x="385.498047" xlink:href="#DejaVuSans-57"/>
       <use x="449.121094" xlink:href="#DejaVuSans-32"/>
       <use x="480.908203" xlink:href="#DejaVuSans-49"/>
       <use x="544.53125" xlink:href="#DejaVuSans-54"/>
       <use x="608.154297" xlink:href="#DejaVuSans-58"/>
       <use x="641.845703" xlink:href="#DejaVuSans-48"/>
       <use x="705.46875" xlink:href="#DejaVuSans-48"/>
      </g>
     </g>
    </g>
    <g id="xtick_20">
     <g id="line2d_39">
      <path clip-path="url(#pa2006399ac)" d="M 915.662356 238.157693 
L 915.662356 36.417128 
" style="fill:none;stroke:#808080;stroke-dasharray:0.5,0.825;stroke-dashoffset:0;stroke-width:0.5;"/>
     </g>
     <g id="line2d_40">
      <g>
       <use style="stroke:#000000;stroke-width:0.8;" x="915.662356" xlink:href="#m65fa8e623f" y="238.157693"/>
      </g>
     </g>
     <g id="text_20">
      <!-- 05/11/19 20:00 -->
      <g transform="translate(848.637914 316.86495)rotate(-45)scale(0.12 -0.12)">
       <use xlink:href="#DejaVuSans-48"/>
       <use x="63.623047" xlink:href="#DejaVuSans-53"/>
       <use x="127.246094" xlink:href="#DejaVuSans-47"/>
       <use x="160.9375" xlink:href="#DejaVuSans-49"/>
       <use x="224.560547" xlink:href="#DejaVuSans-49"/>
       <use x="288.183594" xlink:href="#DejaVuSans-47"/>
       <use x="321.875" xlink:href="#DejaVuSans-49"/>
       <use x="385.498047" xlink:href="#DejaVuSans-57"/>
       <use x="449.121094" xlink:href="#DejaVuSans-32"/>
       <use x="480.908203" xlink:href="#DejaVuSans-50"/>
       <use x="544.53125" xlink:href="#DejaVuSans-48"/>
       <use x="608.154297" xlink:href="#DejaVuSans-58"/>
       <use x="641.845703" xlink:href="#DejaVuSans-48"/>
       <use x="705.46875" xlink:href="#DejaVuSans-48"/>
      </g>
     </g>
    </g>
    <g id="xtick_21">
     <g id="line2d_41">
      <path clip-path="url(#pa2006399ac)" d="M 959.609221 238.157693 
L 959.609221 36.417128 
" style="fill:none;stroke:#808080;stroke-dasharray:0.5,0.825;stroke-dashoffset:0;stroke-width:0.5;"/>
     </g>
     <g id="line2d_42">
      <g>
       <use style="stroke:#000000;stroke-width:0.8;" x="959.609221" xlink:href="#m65fa8e623f" y="238.157693"/>
      </g>
     </g>
     <g id="text_21">
      <!-- 06/11/19 00:00 -->
      <g transform="translate(892.584779 316.86495)rotate(-45)scale(0.12 -0.12)">
       <use xlink:href="#DejaVuSans-48"/>
       <use x="63.623047" xlink:href="#DejaVuSans-54"/>
       <use x="127.246094" xlink:href="#DejaVuSans-47"/>
       <use x="160.9375" xlink:href="#DejaVuSans-49"/>
       <use x="224.560547" xlink:href="#DejaVuSans-49"/>
       <use x="288.183594" xlink:href="#DejaVuSans-47"/>
       <use x="321.875" xlink:href="#DejaVuSans-49"/>
       <use x="385.498047" xlink:href="#DejaVuSans-57"/>
       <use x="449.121094" xlink:href="#DejaVuSans-32"/>
       <use x="480.908203" xlink:href="#DejaVuSans-48"/>
       <use x="544.53125" xlink:href="#DejaVuSans-48"/>
       <use x="608.154297" xlink:href="#DejaVuSans-58"/>
       <use x="641.845703" xlink:href="#DejaVuSans-48"/>
       <use x="705.46875" xlink:href="#DejaVuSans-48"/>
      </g>
     </g>
    </g>
    <g id="xtick_22">
     <g id="line2d_43">
      <path clip-path="url(#pa2006399ac)" d="M 1003.556085 238.157693 
L 1003.556085 36.417128 
" style="fill:none;stroke:#808080;stroke-dasharray:0.5,0.825;stroke-dashoffset:0;stroke-width:0.5;"/>
     </g>
     <g id="line2d_44">
      <g>
       <use style="stroke:#000000;stroke-width:0.8;" x="1003.556085" xlink:href="#m65fa8e623f" y="238.157693"/>
      </g>
     </g>
     <g id="text_22">
      <!-- 06/11/19 12:00 -->
      <g transform="translate(936.531643 316.86495)rotate(-45)scale(0.12 -0.12)">
       <use xlink:href="#DejaVuSans-48"/>
       <use x="63.623047" xlink:href="#DejaVuSans-54"/>
       <use x="127.246094" xlink:href="#DejaVuSans-47"/>
       <use x="160.9375" xlink:href="#DejaVuSans-49"/>
       <use x="224.560547" xlink:href="#DejaVuSans-49"/>
       <use x="288.183594" xlink:href="#DejaVuSans-47"/>
       <use x="321.875" xlink:href="#DejaVuSans-49"/>
       <use x="385.498047" xlink:href="#DejaVuSans-57"/>
       <use x="449.121094" xlink:href="#DejaVuSans-32"/>
       <use x="480.908203" xlink:href="#DejaVuSans-49"/>
       <use x="544.53125" xlink:href="#DejaVuSans-50"/>
       <use x="608.154297" xlink:href="#DejaVuSans-58"/>
       <use x="641.845703" xlink:href="#DejaVuSans-48"/>
       <use x="705.46875" xlink:href="#DejaVuSans-48"/>
      </g>
     </g>
    </g>
    <g id="xtick_23">
     <g id="line2d_45">
      <path clip-path="url(#pa2006399ac)" d="M 1047.50295 238.157693 
L 1047.50295 36.417128 
" style="fill:none;stroke:#808080;stroke-dasharray:0.5,0.825;stroke-dashoffset:0;stroke-width:0.5;"/>
     </g>
     <g id="line2d_46">
      <g>
       <use style="stroke:#000000;stroke-width:0.8;" x="1047.50295" xlink:href="#m65fa8e623f" y="238.157693"/>
      </g>
     </g>
     <g id="text_23">
      <!-- 06/11/19 16:00 -->
      <g transform="translate(980.478508 316.86495)rotate(-45)scale(0.12 -0.12)">
       <use xlink:href="#DejaVuSans-48"/>
       <use x="63.623047" xlink:href="#DejaVuSans-54"/>
       <use x="127.246094" xlink:href="#DejaVuSans-47"/>
       <use x="160.9375" xlink:href="#DejaVuSans-49"/>
       <use x="224.560547" xlink:href="#DejaVuSans-49"/>
       <use x="288.183594" xlink:href="#DejaVuSans-47"/>
       <use x="321.875" xlink:href="#DejaVuSans-49"/>
       <use x="385.498047" xlink:href="#DejaVuSans-57"/>
       <use x="449.121094" xlink:href="#DejaVuSans-32"/>
       <use x="480.908203" xlink:href="#DejaVuSans-49"/>
       <use x="544.53125" xlink:href="#DejaVuSans-54"/>
       <use x="608.154297" xlink:href="#DejaVuSans-58"/>
       <use x="641.845703" xlink:href="#DejaVuSans-48"/>
       <use x="705.46875" xlink:href="#DejaVuSans-48"/>
      </g>
     </g>
    </g>
    <g id="xtick_24">
     <g id="line2d_47">
      <path clip-path="url(#pa2006399ac)" d="M 1091.449815 238.157693 
L 1091.449815 36.417128 
" style="fill:none;stroke:#808080;stroke-dasharray:0.5,0.825;stroke-dashoffset:0;stroke-width:0.5;"/>
     </g>
     <g id="line2d_48">
      <g>
       <use style="stroke:#000000;stroke-width:0.8;" x="1091.449815" xlink:href="#m65fa8e623f" y="238.157693"/>
      </g>
     </g>
     <g id="text_24">
      <!-- 06/11/19 20:00 -->
      <g transform="translate(1024.425372 316.86495)rotate(-45)scale(0.12 -0.12)">
       <use xlink:href="#DejaVuSans-48"/>
       <use x="63.623047" xlink:href="#DejaVuSans-54"/>
       <use x="127.246094" xlink:href="#DejaVuSans-47"/>
       <use x="160.9375" xlink:href="#DejaVuSans-49"/>
       <use x="224.560547" xlink:href="#DejaVuSans-49"/>
       <use x="288.183594" xlink:href="#DejaVuSans-47"/>
       <use x="321.875" xlink:href="#DejaVuSans-49"/>
       <use x="385.498047" xlink:href="#DejaVuSans-57"/>
       <use x="449.121094" xlink:href="#DejaVuSans-32"/>
       <use x="480.908203" xlink:href="#DejaVuSans-50"/>
       <use x="544.53125" xlink:href="#DejaVuSans-48"/>
       <use x="608.154297" xlink:href="#DejaVuSans-58"/>
       <use x="641.845703" xlink:href="#DejaVuSans-48"/>
       <use x="705.46875" xlink:href="#DejaVuSans-48"/>
      </g>
     </g>
    </g>
    <g id="text_25">
     <!-- Time -->
     <defs>
      <path d="M -0.296875 72.90625 
L 61.375 72.90625 
L 61.375 64.59375 
L 35.5 64.59375 
L 35.5 0 
L 25.59375 0 
L 25.59375 64.59375 
L -0.296875 64.59375 
z
" id="DejaVuSans-84"/>
      <path d="M 9.421875 54.6875 
L 18.40625 54.6875 
L 18.40625 0 
L 9.421875 0 
z
M 9.421875 75.984375 
L 18.40625 75.984375 
L 18.40625 64.59375 
L 9.421875 64.59375 
z
" id="DejaVuSans-105"/>
      <path d="M 52 44.1875 
Q 55.375 50.25 60.0625 53.125 
Q 64.75 56 71.09375 56 
Q 79.640625 56 84.28125 50.015625 
Q 88.921875 44.046875 88.921875 33.015625 
L 88.921875 0 
L 79.890625 0 
L 79.890625 32.71875 
Q 79.890625 40.578125 77.09375 44.375 
Q 74.3125 48.1875 68.609375 48.1875 
Q 61.625 48.1875 57.5625 43.546875 
Q 53.515625 38.921875 53.515625 30.90625 
L 53.515625 0 
L 44.484375 0 
L 44.484375 32.71875 
Q 44.484375 40.625 41.703125 44.40625 
Q 38.921875 48.1875 33.109375 48.1875 
Q 26.21875 48.1875 22.15625 43.53125 
Q 18.109375 38.875 18.109375 30.90625 
L 18.109375 0 
L 9.078125 0 
L 9.078125 54.6875 
L 18.109375 54.6875 
L 18.109375 46.1875 
Q 21.1875 51.21875 25.484375 53.609375 
Q 29.78125 56 35.6875 56 
Q 41.65625 56 45.828125 52.96875 
Q 50 49.953125 52 44.1875 
z
" id="DejaVuSans-109"/>
      <path d="M 56.203125 29.59375 
L 56.203125 25.203125 
L 14.890625 25.203125 
Q 15.484375 15.921875 20.484375 11.0625 
Q 25.484375 6.203125 34.421875 6.203125 
Q 39.59375 6.203125 44.453125 7.46875 
Q 49.3125 8.734375 54.109375 11.28125 
L 54.109375 2.78125 
Q 49.265625 0.734375 44.1875 -0.34375 
Q 39.109375 -1.421875 33.890625 -1.421875 
Q 20.796875 -1.421875 13.15625 6.1875 
Q 5.515625 13.8125 5.515625 26.8125 
Q 5.515625 40.234375 12.765625 48.109375 
Q 20.015625 56 32.328125 56 
Q 43.359375 56 49.78125 48.890625 
Q 56.203125 41.796875 56.203125 29.59375 
z
M 47.21875 32.234375 
Q 47.125 39.59375 43.09375 43.984375 
Q 39.0625 48.390625 32.421875 48.390625 
Q 24.90625 48.390625 20.390625 44.140625 
Q 15.875 39.890625 15.1875 32.171875 
z
" id="DejaVuSans-101"/>
     </defs>
     <g transform="translate(584.702947 337.571373)scale(0.144 -0.144)">
      <use xlink:href="#DejaVuSans-84"/>
      <use x="61.037109" xlink:href="#DejaVuSans-105"/>
      <use x="88.820312" xlink:href="#DejaVuSans-109"/>
      <use x="186.232422" xlink:href="#DejaVuSans-101"/>
     </g>
    </g>
   </g>
   <g id="matplotlib.axis_2">
    <g id="ytick_1">
     <g id="line2d_49">
      <path clip-path="url(#pa2006399ac)" d="M 69.685214 238.157693 
L 1135.396679 238.157693 
" style="fill:none;stroke:#808080;stroke-dasharray:0.5,0.825;stroke-dashoffset:0;stroke-width:0.5;"/>
     </g>
     <g id="line2d_50">
      <defs>
       <path d="M 0 0 
L -3.5 0 
" id="m4c7afe0646" style="stroke:#000000;stroke-width:0.8;"/>
      </defs>
      <g>
       <use style="stroke:#000000;stroke-width:0.8;" x="69.685214" xlink:href="#m4c7afe0646" y="238.157693"/>
      </g>
     </g>
     <g id="text_26">
      <!-- 0 -->
      <g transform="translate(55.050214 242.716755)scale(0.12 -0.12)">
       <use xlink:href="#DejaVuSans-48"/>
      </g>
     </g>
    </g>
    <g id="ytick_2">
     <g id="line2d_51">
      <path clip-path="url(#pa2006399ac)" d="M 69.685214 207.528987 
L 1135.396679 207.528987 
" style="fill:none;stroke:#808080;stroke-dasharray:0.5,0.825;stroke-dashoffset:0;stroke-width:0.5;"/>
     </g>
     <g id="line2d_52">
      <g>
       <use style="stroke:#000000;stroke-width:0.8;" x="69.685214" xlink:href="#m4c7afe0646" y="207.528987"/>
      </g>
     </g>
     <g id="text_27">
      <!-- 1000 -->
      <g transform="translate(32.145214 212.08805)scale(0.12 -0.12)">
       <use xlink:href="#DejaVuSans-49"/>
       <use x="63.623047" xlink:href="#DejaVuSans-48"/>
       <use x="127.246094" xlink:href="#DejaVuSans-48"/>
       <use x="190.869141" xlink:href="#DejaVuSans-48"/>
      </g>
     </g>
    </g>
    <g id="ytick_3">
     <g id="line2d_53">
      <path clip-path="url(#pa2006399ac)" d="M 69.685214 176.900281 
L 1135.396679 176.900281 
" style="fill:none;stroke:#808080;stroke-dasharray:0.5,0.825;stroke-dashoffset:0;stroke-width:0.5;"/>
     </g>
     <g id="line2d_54">
      <g>
       <use style="stroke:#000000;stroke-width:0.8;" x="69.685214" xlink:href="#m4c7afe0646" y="176.900281"/>
      </g>
     </g>
     <g id="text_28">
      <!-- 2000 -->
      <g transform="translate(32.145214 181.459344)scale(0.12 -0.12)">
       <use xlink:href="#DejaVuSans-50"/>
       <use x="63.623047" xlink:href="#DejaVuSans-48"/>
       <use x="127.246094" xlink:href="#DejaVuSans-48"/>
       <use x="190.869141" xlink:href="#DejaVuSans-48"/>
      </g>
     </g>
    </g>
    <g id="ytick_4">
     <g id="line2d_55">
      <path clip-path="url(#pa2006399ac)" d="M 69.685214 146.271576 
L 1135.396679 146.271576 
" style="fill:none;stroke:#808080;stroke-dasharray:0.5,0.825;stroke-dashoffset:0;stroke-width:0.5;"/>
     </g>
     <g id="line2d_56">
      <g>
       <use style="stroke:#000000;stroke-width:0.8;" x="69.685214" xlink:href="#m4c7afe0646" y="146.271576"/>
      </g>
     </g>
     <g id="text_29">
      <!-- 3000 -->
      <g transform="translate(32.145214 150.830638)scale(0.12 -0.12)">
       <use xlink:href="#DejaVuSans-51"/>
       <use x="63.623047" xlink:href="#DejaVuSans-48"/>
       <use x="127.246094" xlink:href="#DejaVuSans-48"/>
       <use x="190.869141" xlink:href="#DejaVuSans-48"/>
      </g>
     </g>
    </g>
    <g id="ytick_5">
     <g id="line2d_57">
      <path clip-path="url(#pa2006399ac)" d="M 69.685214 115.64287 
L 1135.396679 115.64287 
" style="fill:none;stroke:#808080;stroke-dasharray:0.5,0.825;stroke-dashoffset:0;stroke-width:0.5;"/>
     </g>
     <g id="line2d_58">
      <g>
       <use style="stroke:#000000;stroke-width:0.8;" x="69.685214" xlink:href="#m4c7afe0646" y="115.64287"/>
      </g>
     </g>
     <g id="text_30">
      <!-- 4000 -->
      <g transform="translate(32.145214 120.201932)scale(0.12 -0.12)">
       <use xlink:href="#DejaVuSans-52"/>
       <use x="63.623047" xlink:href="#DejaVuSans-48"/>
       <use x="127.246094" xlink:href="#DejaVuSans-48"/>
       <use x="190.869141" xlink:href="#DejaVuSans-48"/>
      </g>
     </g>
    </g>
    <g id="ytick_6">
     <g id="line2d_59">
      <path clip-path="url(#pa2006399ac)" d="M 69.685214 85.014164 
L 1135.396679 85.014164 
" style="fill:none;stroke:#808080;stroke-dasharray:0.5,0.825;stroke-dashoffset:0;stroke-width:0.5;"/>
     </g>
     <g id="line2d_60">
      <g>
       <use style="stroke:#000000;stroke-width:0.8;" x="69.685214" xlink:href="#m4c7afe0646" y="85.014164"/>
      </g>
     </g>
     <g id="text_31">
      <!-- 5000 -->
      <g transform="translate(32.145214 89.573227)scale(0.12 -0.12)">
       <use xlink:href="#DejaVuSans-53"/>
       <use x="63.623047" xlink:href="#DejaVuSans-48"/>
       <use x="127.246094" xlink:href="#DejaVuSans-48"/>
       <use x="190.869141" xlink:href="#DejaVuSans-48"/>
      </g>
     </g>
    </g>
    <g id="ytick_7">
     <g id="line2d_61">
      <path clip-path="url(#pa2006399ac)" d="M 69.685214 54.385458 
L 1135.396679 54.385458 
" style="fill:none;stroke:#808080;stroke-dasharray:0.5,0.825;stroke-dashoffset:0;stroke-width:0.5;"/>
     </g>
     <g id="line2d_62">
      <g>
       <use style="stroke:#000000;stroke-width:0.8;" x="69.685214" xlink:href="#m4c7afe0646" y="54.385458"/>
      </g>
     </g>
     <g id="text_32">
      <!-- 6000 -->
      <g transform="translate(32.145214 58.944521)scale(0.12 -0.12)">
       <use xlink:href="#DejaVuSans-54"/>
       <use x="63.623047" xlink:href="#DejaVuSans-48"/>
       <use x="127.246094" xlink:href="#DejaVuSans-48"/>
       <use x="190.869141" xlink:href="#DejaVuSans-48"/>
      </g>
     </g>
    </g>
    <g id="text_33">
     <!-- Energy consumption [Wh] -->
     <defs>
      <path d="M 9.8125 72.90625 
L 55.90625 72.90625 
L 55.90625 64.59375 
L 19.671875 64.59375 
L 19.671875 43.015625 
L 54.390625 43.015625 
L 54.390625 34.71875 
L 19.671875 34.71875 
L 19.671875 8.296875 
L 56.78125 8.296875 
L 56.78125 0 
L 9.8125 0 
z
" id="DejaVuSans-69"/>
      <path d="M 54.890625 33.015625 
L 54.890625 0 
L 45.90625 0 
L 45.90625 32.71875 
Q 45.90625 40.484375 42.875 44.328125 
Q 39.84375 48.1875 33.796875 48.1875 
Q 26.515625 48.1875 22.3125 43.546875 
Q 18.109375 38.921875 18.109375 30.90625 
L 18.109375 0 
L 9.078125 0 
L 9.078125 54.6875 
L 18.109375 54.6875 
L 18.109375 46.1875 
Q 21.34375 51.125 25.703125 53.5625 
Q 30.078125 56 35.796875 56 
Q 45.21875 56 50.046875 50.171875 
Q 54.890625 44.34375 54.890625 33.015625 
z
" id="DejaVuSans-110"/>
      <path d="M 41.109375 46.296875 
Q 39.59375 47.171875 37.8125 47.578125 
Q 36.03125 48 33.890625 48 
Q 26.265625 48 22.1875 43.046875 
Q 18.109375 38.09375 18.109375 28.8125 
L 18.109375 0 
L 9.078125 0 
L 9.078125 54.6875 
L 18.109375 54.6875 
L 18.109375 46.1875 
Q 20.953125 51.171875 25.484375 53.578125 
Q 30.03125 56 36.53125 56 
Q 37.453125 56 38.578125 55.875 
Q 39.703125 55.765625 41.0625 55.515625 
z
" id="DejaVuSans-114"/>
      <path d="M 45.40625 27.984375 
Q 45.40625 37.75 41.375 43.109375 
Q 37.359375 48.484375 30.078125 48.484375 
Q 22.859375 48.484375 18.828125 43.109375 
Q 14.796875 37.75 14.796875 27.984375 
Q 14.796875 18.265625 18.828125 12.890625 
Q 22.859375 7.515625 30.078125 7.515625 
Q 37.359375 7.515625 41.375 12.890625 
Q 45.40625 18.265625 45.40625 27.984375 
z
M 54.390625 6.78125 
Q 54.390625 -7.171875 48.1875 -13.984375 
Q 42 -20.796875 29.203125 -20.796875 
Q 24.46875 -20.796875 20.265625 -20.09375 
Q 16.0625 -19.390625 12.109375 -17.921875 
L 12.109375 -9.1875 
Q 16.0625 -11.328125 19.921875 -12.34375 
Q 23.78125 -13.375 27.78125 -13.375 
Q 36.625 -13.375 41.015625 -8.765625 
Q 45.40625 -4.15625 45.40625 5.171875 
L 45.40625 9.625 
Q 42.625 4.78125 38.28125 2.390625 
Q 33.9375 0 27.875 0 
Q 17.828125 0 11.671875 7.65625 
Q 5.515625 15.328125 5.515625 27.984375 
Q 5.515625 40.671875 11.671875 48.328125 
Q 17.828125 56 27.875 56 
Q 33.9375 56 38.28125 53.609375 
Q 42.625 51.21875 45.40625 46.390625 
L 45.40625 54.6875 
L 54.390625 54.6875 
z
" id="DejaVuSans-103"/>
      <path d="M 32.171875 -5.078125 
Q 28.375 -14.84375 24.75 -17.8125 
Q 21.140625 -20.796875 15.09375 -20.796875 
L 7.90625 -20.796875 
L 7.90625 -13.28125 
L 13.1875 -13.28125 
Q 16.890625 -13.28125 18.9375 -11.515625 
Q 21 -9.765625 23.484375 -3.21875 
L 25.09375 0.875 
L 2.984375 54.6875 
L 12.5 54.6875 
L 29.59375 11.921875 
L 46.6875 54.6875 
L 56.203125 54.6875 
z
" id="DejaVuSans-121"/>
      <path d="M 48.78125 52.59375 
L 48.78125 44.1875 
Q 44.96875 46.296875 41.140625 47.34375 
Q 37.3125 48.390625 33.40625 48.390625 
Q 24.65625 48.390625 19.8125 42.84375 
Q 14.984375 37.3125 14.984375 27.296875 
Q 14.984375 17.28125 19.8125 11.734375 
Q 24.65625 6.203125 33.40625 6.203125 
Q 37.3125 6.203125 41.140625 7.25 
Q 44.96875 8.296875 48.78125 10.40625 
L 48.78125 2.09375 
Q 45.015625 0.34375 40.984375 -0.53125 
Q 36.96875 -1.421875 32.421875 -1.421875 
Q 20.0625 -1.421875 12.78125 6.34375 
Q 5.515625 14.109375 5.515625 27.296875 
Q 5.515625 40.671875 12.859375 48.328125 
Q 20.21875 56 33.015625 56 
Q 37.15625 56 41.109375 55.140625 
Q 45.0625 54.296875 48.78125 52.59375 
z
" id="DejaVuSans-99"/>
      <path d="M 30.609375 48.390625 
Q 23.390625 48.390625 19.1875 42.75 
Q 14.984375 37.109375 14.984375 27.296875 
Q 14.984375 17.484375 19.15625 11.84375 
Q 23.34375 6.203125 30.609375 6.203125 
Q 37.796875 6.203125 41.984375 11.859375 
Q 46.1875 17.53125 46.1875 27.296875 
Q 46.1875 37.015625 41.984375 42.703125 
Q 37.796875 48.390625 30.609375 48.390625 
z
M 30.609375 56 
Q 42.328125 56 49.015625 48.375 
Q 55.71875 40.765625 55.71875 27.296875 
Q 55.71875 13.875 49.015625 6.21875 
Q 42.328125 -1.421875 30.609375 -1.421875 
Q 18.84375 -1.421875 12.171875 6.21875 
Q 5.515625 13.875 5.515625 27.296875 
Q 5.515625 40.765625 12.171875 48.375 
Q 18.84375 56 30.609375 56 
z
" id="DejaVuSans-111"/>
      <path d="M 44.28125 53.078125 
L 44.28125 44.578125 
Q 40.484375 46.53125 36.375 47.5 
Q 32.28125 48.484375 27.875 48.484375 
Q 21.1875 48.484375 17.84375 46.4375 
Q 14.5 44.390625 14.5 40.28125 
Q 14.5 37.15625 16.890625 35.375 
Q 19.28125 33.59375 26.515625 31.984375 
L 29.59375 31.296875 
Q 39.15625 29.25 43.1875 25.515625 
Q 47.21875 21.78125 47.21875 15.09375 
Q 47.21875 7.46875 41.1875 3.015625 
Q 35.15625 -1.421875 24.609375 -1.421875 
Q 20.21875 -1.421875 15.453125 -0.5625 
Q 10.6875 0.296875 5.421875 2 
L 5.421875 11.28125 
Q 10.40625 8.6875 15.234375 7.390625 
Q 20.0625 6.109375 24.8125 6.109375 
Q 31.15625 6.109375 34.5625 8.28125 
Q 37.984375 10.453125 37.984375 14.40625 
Q 37.984375 18.0625 35.515625 20.015625 
Q 33.0625 21.96875 24.703125 23.78125 
L 21.578125 24.515625 
Q 13.234375 26.265625 9.515625 29.90625 
Q 5.8125 33.546875 5.8125 39.890625 
Q 5.8125 47.609375 11.28125 51.796875 
Q 16.75 56 26.8125 56 
Q 31.78125 56 36.171875 55.265625 
Q 40.578125 54.546875 44.28125 53.078125 
z
" id="DejaVuSans-115"/>
      <path d="M 8.5 21.578125 
L 8.5 54.6875 
L 17.484375 54.6875 
L 17.484375 21.921875 
Q 17.484375 14.15625 20.5 10.265625 
Q 23.53125 6.390625 29.59375 6.390625 
Q 36.859375 6.390625 41.078125 11.03125 
Q 45.3125 15.671875 45.3125 23.6875 
L 45.3125 54.6875 
L 54.296875 54.6875 
L 54.296875 0 
L 45.3125 0 
L 45.3125 8.40625 
Q 42.046875 3.421875 37.71875 1 
Q 33.40625 -1.421875 27.6875 -1.421875 
Q 18.265625 -1.421875 13.375 4.4375 
Q 8.5 10.296875 8.5 21.578125 
z
M 31.109375 56 
z
" id="DejaVuSans-117"/>
      <path d="M 18.109375 8.203125 
L 18.109375 -20.796875 
L 9.078125 -20.796875 
L 9.078125 54.6875 
L 18.109375 54.6875 
L 18.109375 46.390625 
Q 20.953125 51.265625 25.265625 53.625 
Q 29.59375 56 35.59375 56 
Q 45.5625 56 51.78125 48.09375 
Q 58.015625 40.1875 58.015625 27.296875 
Q 58.015625 14.40625 51.78125 6.484375 
Q 45.5625 -1.421875 35.59375 -1.421875 
Q 29.59375 -1.421875 25.265625 0.953125 
Q 20.953125 3.328125 18.109375 8.203125 
z
M 48.6875 27.296875 
Q 48.6875 37.203125 44.609375 42.84375 
Q 40.53125 48.484375 33.40625 48.484375 
Q 26.265625 48.484375 22.1875 42.84375 
Q 18.109375 37.203125 18.109375 27.296875 
Q 18.109375 17.390625 22.1875 11.75 
Q 26.265625 6.109375 33.40625 6.109375 
Q 40.53125 6.109375 44.609375 11.75 
Q 48.6875 17.390625 48.6875 27.296875 
z
" id="DejaVuSans-112"/>
      <path d="M 18.3125 70.21875 
L 18.3125 54.6875 
L 36.8125 54.6875 
L 36.8125 47.703125 
L 18.3125 47.703125 
L 18.3125 18.015625 
Q 18.3125 11.328125 20.140625 9.421875 
Q 21.96875 7.515625 27.59375 7.515625 
L 36.8125 7.515625 
L 36.8125 0 
L 27.59375 0 
Q 17.1875 0 13.234375 3.875 
Q 9.28125 7.765625 9.28125 18.015625 
L 9.28125 47.703125 
L 2.6875 47.703125 
L 2.6875 54.6875 
L 9.28125 54.6875 
L 9.28125 70.21875 
z
" id="DejaVuSans-116"/>
      <path d="M 8.59375 75.984375 
L 29.296875 75.984375 
L 29.296875 69 
L 17.578125 69 
L 17.578125 -6.203125 
L 29.296875 -6.203125 
L 29.296875 -13.1875 
L 8.59375 -13.1875 
z
" id="DejaVuSans-91"/>
      <path d="M 3.328125 72.90625 
L 13.28125 72.90625 
L 28.609375 11.28125 
L 43.890625 72.90625 
L 54.984375 72.90625 
L 70.3125 11.28125 
L 85.59375 72.90625 
L 95.609375 72.90625 
L 77.296875 0 
L 64.890625 0 
L 49.515625 63.28125 
L 33.984375 0 
L 21.578125 0 
z
" id="DejaVuSans-87"/>
      <path d="M 54.890625 33.015625 
L 54.890625 0 
L 45.90625 0 
L 45.90625 32.71875 
Q 45.90625 40.484375 42.875 44.328125 
Q 39.84375 48.1875 33.796875 48.1875 
Q 26.515625 48.1875 22.3125 43.546875 
Q 18.109375 38.921875 18.109375 30.90625 
L 18.109375 0 
L 9.078125 0 
L 9.078125 75.984375 
L 18.109375 75.984375 
L 18.109375 46.1875 
Q 21.34375 51.125 25.703125 53.5625 
Q 30.078125 56 35.796875 56 
Q 45.21875 56 50.046875 50.171875 
Q 54.890625 44.34375 54.890625 33.015625 
z
" id="DejaVuSans-104"/>
      <path d="M 30.421875 75.984375 
L 30.421875 -13.1875 
L 9.71875 -13.1875 
L 9.71875 -6.203125 
L 21.390625 -6.203125 
L 21.390625 69 
L 9.71875 69 
L 9.71875 75.984375 
z
" id="DejaVuSans-93"/>
     </defs>
     <g transform="translate(21.150464 231.114661)rotate(-90)scale(0.144 -0.144)">
      <use xlink:href="#DejaVuSans-69"/>
      <use x="63.183594" xlink:href="#DejaVuSans-110"/>
      <use x="126.5625" xlink:href="#DejaVuSans-101"/>
      <use x="188.085938" xlink:href="#DejaVuSans-114"/>
      <use x="229.183594" xlink:href="#DejaVuSans-103"/>
      <use x="292.660156" xlink:href="#DejaVuSans-121"/>
      <use x="351.839844" xlink:href="#DejaVuSans-32"/>
      <use x="383.626953" xlink:href="#DejaVuSans-99"/>
      <use x="438.607422" xlink:href="#DejaVuSans-111"/>
      <use x="499.789062" xlink:href="#DejaVuSans-110"/>
      <use x="563.167969" xlink:href="#DejaVuSans-115"/>
      <use x="615.267578" xlink:href="#DejaVuSans-117"/>
      <use x="678.646484" xlink:href="#DejaVuSans-109"/>
      <use x="776.058594" xlink:href="#DejaVuSans-112"/>
      <use x="839.535156" xlink:href="#DejaVuSans-116"/>
      <use x="878.744141" xlink:href="#DejaVuSans-105"/>
      <use x="906.527344" xlink:href="#DejaVuSans-111"/>
      <use x="967.708984" xlink:href="#DejaVuSans-110"/>
      <use x="1031.087891" xlink:href="#DejaVuSans-32"/>
      <use x="1062.875" xlink:href="#DejaVuSans-91"/>
      <use x="1101.888672" xlink:href="#DejaVuSans-87"/>
      <use x="1200.765625" xlink:href="#DejaVuSans-104"/>
      <use x="1264.144531" xlink:href="#DejaVuSans-93"/>
     </g>
    </g>
   </g>
   <g id="patch_99">
    <path d="M 69.685214 238.157693 
L 69.685214 36.417128 
" style="fill:none;stroke:#000000;stroke-linecap:square;stroke-linejoin:miter;stroke-width:0.8;"/>
   </g>
   <g id="patch_100">
    <path d="M 1135.396679 238.157693 
L 1135.396679 36.417128 
" style="fill:none;stroke:#000000;stroke-linecap:square;stroke-linejoin:miter;stroke-width:0.8;"/>
   </g>
   <g id="patch_101">
    <path d="M 69.685214 238.157693 
L 1135.396679 238.157693 
" style="fill:none;stroke:#000000;stroke-linecap:square;stroke-linejoin:miter;stroke-width:0.8;"/>
   </g>
   <g id="patch_102">
    <path d="M 69.685214 36.417128 
L 1135.396679 36.417128 
" style="fill:none;stroke:#000000;stroke-linecap:square;stroke-linejoin:miter;stroke-width:0.8;"/>
   </g>
   <g id="text_34">
    <!-- Did the air-con's energy usage pattern change over time? -->
    <defs>
     <path d="M 19.671875 64.796875 
L 19.671875 8.109375 
L 31.59375 8.109375 
Q 46.6875 8.109375 53.6875 14.9375 
Q 60.6875 21.78125 60.6875 36.53125 
Q 60.6875 51.171875 53.6875 57.984375 
Q 46.6875 64.796875 31.59375 64.796875 
z
M 9.8125 72.90625 
L 30.078125 72.90625 
Q 51.265625 72.90625 61.171875 64.09375 
Q 71.09375 55.28125 71.09375 36.53125 
Q 71.09375 17.671875 61.125 8.828125 
Q 51.171875 0 30.078125 0 
L 9.8125 0 
z
" id="DejaVuSans-68"/>
     <path d="M 45.40625 46.390625 
L 45.40625 75.984375 
L 54.390625 75.984375 
L 54.390625 0 
L 45.40625 0 
L 45.40625 8.203125 
Q 42.578125 3.328125 38.25 0.953125 
Q 33.9375 -1.421875 27.875 -1.421875 
Q 17.96875 -1.421875 11.734375 6.484375 
Q 5.515625 14.40625 5.515625 27.296875 
Q 5.515625 40.1875 11.734375 48.09375 
Q 17.96875 56 27.875 56 
Q 33.9375 56 38.25 53.625 
Q 42.578125 51.265625 45.40625 46.390625 
z
M 14.796875 27.296875 
Q 14.796875 17.390625 18.875 11.75 
Q 22.953125 6.109375 30.078125 6.109375 
Q 37.203125 6.109375 41.296875 11.75 
Q 45.40625 17.390625 45.40625 27.296875 
Q 45.40625 37.203125 41.296875 42.84375 
Q 37.203125 48.484375 30.078125 48.484375 
Q 22.953125 48.484375 18.875 42.84375 
Q 14.796875 37.203125 14.796875 27.296875 
z
" id="DejaVuSans-100"/>
     <path d="M 34.28125 27.484375 
Q 23.390625 27.484375 19.1875 25 
Q 14.984375 22.515625 14.984375 16.5 
Q 14.984375 11.71875 18.140625 8.90625 
Q 21.296875 6.109375 26.703125 6.109375 
Q 34.1875 6.109375 38.703125 11.40625 
Q 43.21875 16.703125 43.21875 25.484375 
L 43.21875 27.484375 
z
M 52.203125 31.203125 
L 52.203125 0 
L 43.21875 0 
L 43.21875 8.296875 
Q 40.140625 3.328125 35.546875 0.953125 
Q 30.953125 -1.421875 24.3125 -1.421875 
Q 15.921875 -1.421875 10.953125 3.296875 
Q 6 8.015625 6 15.921875 
Q 6 25.140625 12.171875 29.828125 
Q 18.359375 34.515625 30.609375 34.515625 
L 43.21875 34.515625 
L 43.21875 35.40625 
Q 43.21875 41.609375 39.140625 45 
Q 35.0625 48.390625 27.6875 48.390625 
Q 23 48.390625 18.546875 47.265625 
Q 14.109375 46.140625 10.015625 43.890625 
L 10.015625 52.203125 
Q 14.9375 54.109375 19.578125 55.046875 
Q 24.21875 56 28.609375 56 
Q 40.484375 56 46.34375 49.84375 
Q 52.203125 43.703125 52.203125 31.203125 
z
" id="DejaVuSans-97"/>
     <path d="M 4.890625 31.390625 
L 31.203125 31.390625 
L 31.203125 23.390625 
L 4.890625 23.390625 
z
" id="DejaVuSans-45"/>
     <path d="M 17.921875 72.90625 
L 17.921875 45.796875 
L 9.625 45.796875 
L 9.625 72.90625 
z
" id="DejaVuSans-39"/>
     <path d="M 2.984375 54.6875 
L 12.5 54.6875 
L 29.59375 8.796875 
L 46.6875 54.6875 
L 56.203125 54.6875 
L 35.6875 0 
L 23.484375 0 
z
" id="DejaVuSans-118"/>
     <path d="M 19.09375 12.40625 
L 29 12.40625 
L 29 0 
L 19.09375 0 
z
M 28.71875 19.578125 
L 19.390625 19.578125 
L 19.390625 27.09375 
Q 19.390625 32.03125 20.75 35.203125 
Q 22.125 38.375 26.515625 42.578125 
L 30.90625 46.921875 
Q 33.6875 49.515625 34.9375 51.8125 
Q 36.1875 54.109375 36.1875 56.5 
Q 36.1875 60.84375 32.984375 63.53125 
Q 29.78125 66.21875 24.515625 66.21875 
Q 20.65625 66.21875 16.28125 64.5 
Q 11.921875 62.796875 7.171875 59.515625 
L 7.171875 68.703125 
Q 11.765625 71.484375 16.46875 72.84375 
Q 21.1875 74.21875 26.21875 74.21875 
Q 35.203125 74.21875 40.640625 69.484375 
Q 46.09375 64.75 46.09375 56.984375 
Q 46.09375 53.265625 44.328125 49.921875 
Q 42.578125 46.578125 38.1875 42.390625 
L 33.890625 38.1875 
Q 31.59375 35.890625 30.640625 34.59375 
Q 29.6875 33.296875 29.296875 32.078125 
Q 29 31.0625 28.859375 29.59375 
Q 28.71875 28.125 28.71875 25.59375 
z
" id="DejaVuSans-63"/>
    </defs>
    <g transform="translate(351.713647 20.3301)scale(0.1728 -0.1728)">
     <use xlink:href="#DejaVuSans-68"/>
     <use x="77.001953" xlink:href="#DejaVuSans-105"/>
     <use x="104.785156" xlink:href="#DejaVuSans-100"/>
     <use x="168.261719" xlink:href="#DejaVuSans-32"/>
     <use x="200.048828" xlink:href="#DejaVuSans-116"/>
     <use x="239.257812" xlink:href="#DejaVuSans-104"/>
     <use x="302.636719" xlink:href="#DejaVuSans-101"/>
     <use x="364.160156" xlink:href="#DejaVuSans-32"/>
     <use x="395.947266" xlink:href="#DejaVuSans-97"/>
     <use x="457.226562" xlink:href="#DejaVuSans-105"/>
     <use x="485.009766" xlink:href="#DejaVuSans-114"/>
     <use x="526.029297" xlink:href="#DejaVuSans-45"/>
     <use x="562.113281" xlink:href="#DejaVuSans-99"/>
     <use x="617.09375" xlink:href="#DejaVuSans-111"/>
     <use x="678.275391" xlink:href="#DejaVuSans-110"/>
     <use x="741.654297" xlink:href="#DejaVuSans-39"/>
     <use x="769.144531" xlink:href="#DejaVuSans-115"/>
     <use x="821.244141" xlink:href="#DejaVuSans-32"/>
     <use x="853.03125" xlink:href="#DejaVuSans-101"/>
     <use x="914.554688" xlink:href="#DejaVuSans-110"/>
     <use x="977.933594" xlink:href="#DejaVuSans-101"/>
     <use x="1039.457031" xlink:href="#DejaVuSans-114"/>
     <use x="1080.554688" xlink:href="#DejaVuSans-103"/>
     <use x="1144.03125" xlink:href="#DejaVuSans-121"/>
     <use x="1203.210938" xlink:href="#DejaVuSans-32"/>
     <use x="1234.998047" xlink:href="#DejaVuSans-117"/>
     <use x="1298.376953" xlink:href="#DejaVuSans-115"/>
     <use x="1350.476562" xlink:href="#DejaVuSans-97"/>
     <use x="1411.755859" xlink:href="#DejaVuSans-103"/>
     <use x="1475.232422" xlink:href="#DejaVuSans-101"/>
     <use x="1536.755859" xlink:href="#DejaVuSans-32"/>
     <use x="1568.542969" xlink:href="#DejaVuSans-112"/>
     <use x="1632.019531" xlink:href="#DejaVuSans-97"/>
     <use x="1693.298828" xlink:href="#DejaVuSans-116"/>
     <use x="1732.507812" xlink:href="#DejaVuSans-116"/>
     <use x="1771.716797" xlink:href="#DejaVuSans-101"/>
     <use x="1833.240234" xlink:href="#DejaVuSans-114"/>
     <use x="1874.337891" xlink:href="#DejaVuSans-110"/>
     <use x="1937.716797" xlink:href="#DejaVuSans-32"/>
     <use x="1969.503906" xlink:href="#DejaVuSans-99"/>
     <use x="2024.484375" xlink:href="#DejaVuSans-104"/>
     <use x="2087.863281" xlink:href="#DejaVuSans-97"/>
     <use x="2149.142578" xlink:href="#DejaVuSans-110"/>
     <use x="2212.521484" xlink:href="#DejaVuSans-103"/>
     <use x="2275.998047" xlink:href="#DejaVuSans-101"/>
     <use x="2337.521484" xlink:href="#DejaVuSans-32"/>
     <use x="2369.308594" xlink:href="#DejaVuSans-111"/>
     <use x="2430.490234" xlink:href="#DejaVuSans-118"/>
     <use x="2489.669922" xlink:href="#DejaVuSans-101"/>
     <use x="2551.193359" xlink:href="#DejaVuSans-114"/>
     <use x="2592.306641" xlink:href="#DejaVuSans-32"/>
     <use x="2624.09375" xlink:href="#DejaVuSans-116"/>
     <use x="2663.302734" xlink:href="#DejaVuSans-105"/>
     <use x="2691.085938" xlink:href="#DejaVuSans-109"/>
     <use x="2788.498047" xlink:href="#DejaVuSans-101"/>
     <use x="2850.021484" xlink:href="#DejaVuSans-63"/>
    </g>
   </g>
   <g id="legend_1">
    <g id="patch_103">
     <path d="M 980.750429 63.964628 
L 1126.996679 63.964628 
Q 1129.396679 63.964628 1129.396679 61.564628 
L 1129.396679 44.817128 
Q 1129.396679 42.417128 1126.996679 42.417128 
L 980.750429 42.417128 
Q 978.350429 42.417128 978.350429 44.817128 
L 978.350429 61.564628 
Q 978.350429 63.964628 980.750429 63.964628 
z
" style="fill:#ffffff;opacity:0.8;stroke:#cccccc;stroke-linejoin:miter;"/>
    </g>
    <g id="patch_104">
     <path d="M 983.150429 56.335253 
L 1007.150429 56.335253 
L 1007.150429 47.935253 
L 983.150429 47.935253 
z
" style="fill:#348abd;"/>
    </g>
    <g id="text_35">
     <!-- E_59672 (filtered) -->
     <defs>
      <path d="M 50.984375 -16.609375 
L 50.984375 -23.578125 
L -0.984375 -23.578125 
L -0.984375 -16.609375 
z
" id="DejaVuSans-95"/>
      <path d="M 8.203125 72.90625 
L 55.078125 72.90625 
L 55.078125 68.703125 
L 28.609375 0 
L 18.3125 0 
L 43.21875 64.59375 
L 8.203125 64.59375 
z
" id="DejaVuSans-55"/>
      <path d="M 31 75.875 
Q 24.46875 64.65625 21.28125 53.65625 
Q 18.109375 42.671875 18.109375 31.390625 
Q 18.109375 20.125 21.3125 9.0625 
Q 24.515625 -2 31 -13.1875 
L 23.1875 -13.1875 
Q 15.875 -1.703125 12.234375 9.375 
Q 8.59375 20.453125 8.59375 31.390625 
Q 8.59375 42.28125 12.203125 53.3125 
Q 15.828125 64.359375 23.1875 75.875 
z
" id="DejaVuSans-40"/>
      <path d="M 37.109375 75.984375 
L 37.109375 68.5 
L 28.515625 68.5 
Q 23.6875 68.5 21.796875 66.546875 
Q 19.921875 64.59375 19.921875 59.515625 
L 19.921875 54.6875 
L 34.71875 54.6875 
L 34.71875 47.703125 
L 19.921875 47.703125 
L 19.921875 0 
L 10.890625 0 
L 10.890625 47.703125 
L 2.296875 47.703125 
L 2.296875 54.6875 
L 10.890625 54.6875 
L 10.890625 58.5 
Q 10.890625 67.625 15.140625 71.796875 
Q 19.390625 75.984375 28.609375 75.984375 
z
" id="DejaVuSans-102"/>
      <path d="M 9.421875 75.984375 
L 18.40625 75.984375 
L 18.40625 0 
L 9.421875 0 
z
" id="DejaVuSans-108"/>
      <path d="M 8.015625 75.875 
L 15.828125 75.875 
Q 23.140625 64.359375 26.78125 53.3125 
Q 30.421875 42.28125 30.421875 31.390625 
Q 30.421875 20.453125 26.78125 9.375 
Q 23.140625 -1.703125 15.828125 -13.1875 
L 8.015625 -13.1875 
Q 14.5 -2 17.703125 9.0625 
Q 20.90625 20.125 20.90625 31.390625 
Q 20.90625 42.671875 17.703125 53.65625 
Q 14.5 64.65625 8.015625 75.875 
z
" id="DejaVuSans-41"/>
     </defs>
     <g transform="translate(1016.750429 56.335253)scale(0.12 -0.12)">
      <use xlink:href="#DejaVuSans-69"/>
      <use x="63.183594" xlink:href="#DejaVuSans-95"/>
      <use x="113.183594" xlink:href="#DejaVuSans-53"/>
      <use x="176.806641" xlink:href="#DejaVuSans-57"/>
      <use x="240.429688" xlink:href="#DejaVuSans-54"/>
      <use x="304.052734" xlink:href="#DejaVuSans-55"/>
      <use x="367.675781" xlink:href="#DejaVuSans-50"/>
      <use x="431.298828" xlink:href="#DejaVuSans-32"/>
      <use x="463.085938" xlink:href="#DejaVuSans-40"/>
      <use x="502.099609" xlink:href="#DejaVuSans-102"/>
      <use x="537.304688" xlink:href="#DejaVuSans-105"/>
      <use x="565.087891" xlink:href="#DejaVuSans-108"/>
      <use x="592.871094" xlink:href="#DejaVuSans-116"/>
      <use x="632.080078" xlink:href="#DejaVuSans-101"/>
      <use x="693.603516" xlink:href="#DejaVuSans-114"/>
      <use x="734.685547" xlink:href="#DejaVuSans-101"/>
      <use x="796.208984" xlink:href="#DejaVuSans-100"/>
      <use x="859.685547" xlink:href="#DejaVuSans-41"/>
     </g>
    </g>
   </g>
  </g>
 </g>
 <defs>
  <clipPath id="pa2006399ac">
   <rect height="201.740565" width="1065.711465" x="69.685214" y="36.417128"/>
  </clipPath>
 </defs>
</svg>
